<?xml version="1.0" encoding="UTF-8"?>
<svg id="Ebene_1" data-name="Ebene 1" xmlns="http://www.w3.org/2000/svg" width="100" height="100" viewBox="0 0 100 100">
  <g id="Ebene_1-2" data-name="Ebene 1-2">
    <g id="Joscco_3" data-name="Joscco 3">
      <path d="M56.25,79.72c-.03,.15-.05,.23-.07,.37-.34-.09-.67,.1-.98-.18-.1-.09-.44-.11-.53-.02-.37,.37-.9,0-1.28,.34-.09,.09-.43-.1-.7-.18-.2,.1-.43,.22-.76,.39-1.01,.05-2.05-.27-3.23-.5-.44,.09-1.01,.25-1.6,.3-.57,.05-1.08-.27-1.54-.56-.66-.43-1.36-.58-2.12-.55-.39-.31-.83-.45-1.33-.37-.36-.55-1.16-.34-1.47-.94h-.79c-.33-.41-.83-.69-1.06-1.21-.27-.13-.55-.28-.97-.48h-.59c-.2-.2-.51-.27-.6-.56-.38,.02-.34-.36-.51-.54-.18-.19-.42-.31-.63-.46-.22-.16-.44-.31-.65-.46-.21-.15-.55-.27-.61-.46-.12-.42-.49-.48-.74-.71-.32-.29-.69-.48-.92-.9-.15-.28-.44-.48-.75-.61-.18-.42-.33-.87-.55-1.26-.22-.38-.34-.87-.83-1.05-.12-.53-.66-.71-.86-1.15-.27-.48-.53-.96-.8-1.44-.06-.1-.24-.2-.22-.27,.13-.58-.42-.83-.57-1.46v-.59c-.1-.09-.32-.22-.31-.3,.06-.43-.37-.6-.44-.95-.12-.62-.28-1.24-.15-1.91-.48-.21-.44-.69-.58-1.07-.12-.35-.12-.76-.18-1.14-.14-.87-.3-1.74-.23-2.63,.05-.55,0-1.12,0-1.74-.12-.09-.27-.2-.35-.27-.09-.41,.12-.78-.21-1.04,.38-1.01,.09-2.08,.21-3.14,.57-.91,.36-1.91,.24-3.03,.2-.15,0-.54,.13-.81,.16-.36,.16-.7,.16-1.05v-2.05c.12-.12,.23-.23,.34-.34,.08-.41,.09-.84,.24-1.22,.17-.38,.15-.76,.17-1.15,0-.14,.04-.3,.12-.41,.41-.55,.44-1.26,.8-1.83,.04-.06,0-.19,0-.35,.18-.14,.39-.32,.57-.45v-.47c.11-.04,.22-.08,.37-.12-.05-.38,.12-.72,.28-1.07,.23-.5,.49-.98,.66-1.51,.02-.07,.1-.12,.16-.17,.54-.47,.75-1.08,.79-1.82,.16-.12,.32-.3,.53-.43,.37-.22,.69-.48,.82-.9,.09-.29,.38-.37,.51-.62,.14-.27,.3-.51,.66-.58,.12-.02,.16-.3,.28-.42,.07-.08,.2-.09,.31-.15,.02-.02,.05-.04,.05-.06v-.67c.8-.66,1.57-1.29,2.45-2-.02,0,.12,0,.22,0,.26-.32,.48-.6,.71-.87,.24-.27,.58-.37,.92-.49,.41-.14,.78-.4,1.12-.66,.07-.05,.04-.26,.26-.27,.2-.02,.41-.08,.58-.19,.33-.21,.62-.46,.98-.73h.66c.72-.59,1.68-.82,2.07-1.7,.87-.03,1.71,.11,2.5-.19,.11-.11,.21-.23,.34-.37h.67c.69-.33,1.26-.59,2.02-.95,.47,0,1.15-.02,1.84,0,.62,.03,1.25,.12,1.84,.19,.28-.2,.53-.36,.83-.56,.44-.02,.94-.05,1.39,.3,.1,.08,.29,.06,.44,.06h1.78c.2,0,.42-.07,.61,.12,.08,.08,.35,.09,.42,.02,.39-.38,.78-.14,1.07,.05,.37,.24,.8,.12,1.18,.34,.16,.09,.38,.05,.58,.19,.17,.13,.44,.17,.66,.2,.37,.03,.75,0,1.22,0,.06,.1,.16,.26,.23,.37,.65,0,1.22-.09,1.76,.02,.49,.11,.94,.43,1.44,.68,0,.02,.02,.11,.05,.23,.11-.07,.2-.12,.33-.21,.38,.22,.79,.44,1.34,.76h.81c.44,.59,1.41,.45,1.66,1.31,.12,0,.27,.02,.44,.03,.02,.08,.05,.16,.06,.22,.32,.21,.63,.43,.95,.62,.17,.1,.36,.22,.55,.26,.83,.15,1.26,.7,1.51,1.42-.21,.4-.48,.74-.56,1.12-.09,.4-.17,.78-.49,1.01-.38,.27-.16,.87-.66,1.01v.53c-.2,.29-.44,.51-.51,.79-.09,.33-.48,.37-.55,.69-.05,.28-.21,.54-.35,.9-.04,0-.19,.02-.34,.03-.62,.44-.93,1.11-1.12,1.84-.09,.02-.17,.05-.3,.08,.05,.4-.15,.62-.53,.78-.25,.11-.56,.17-.69,.06-.31-.27-.66-.07-.95-.21-.95-.42-1.72-1.23-2.82-1.27-.05-.13-.09-.24-.13-.37h-.81c-.05-.14-.09-.25-.12-.36h-.41c-.16-.18-.34-.36-.49-.51-.09-.02-.15-.05-.2-.05-.37,.05-.7-.08-1.03-.23-.47-.22-.93-.48-1.41-.65-.28-.1-.6-.06-1.01-.09-.03-.09-.1-.28-.11-.31-3.12-.12-4.3-.08-4.81,.15-.03,0-.08,.02-.09,0-.21-.25-.5-.17-.76-.19-.44,.79-1.49,.57-2,1.24-.74,.24-1.45,.57-2.2,.67-.03,.15-.05,.23-.07,.34-.5-.02-.99-.03-1.37,.38-.81-.12-1.36,.27-1.78,.94-.21,.34-.51,.6-.78,.9h-1c-.11,.15-.23,.32-.44,.6,0,0-.02,.14-.04,.31-.09,.02-.22,0-.25,.04-.47,.79-1.48,1.17-1.61,2.21-.29,.09-.57,.19-.83,.28-.12,.18-.25,.37-.44,.67v.69c-.42,.48-.83,.92-1.22,1.4-.14,.17-.23,.41-.29,.62-.09,.31-.06,.67-.21,.94-.18,.33-.2,.74-.55,1-.28,.2-.55,1.24-.55,1.72,0,.42,.05,.84-.19,1.23-.07,.12-.2,.34-.16,.37,.37,.35,0,.84,.25,1.22,.08,.12,.1,.28,.1,.42,0,.83,0,1.68,0,2.48-.14,.14-.26,.26-.37,.37v.94c.12,.12,.25,.26,.37,.39v1.41c0,.12,0,.25,0,.37-.16,1.47,.09,1.27,.48,2.27,.12,.29,.58,.33,.46,.73,.55,.44,.34,1.26,.87,1.7-.08,.7,.69,1.1,.64,1.8,0,.12,.16,.24,.22,.37,.08,.16,.12,.32,.26,.66,.16,.12,.48,.34,.8,.58,.1,.07,.18,.17,.27,.27,.8,.89,.71,.96,2.45,1.72,.23,.46,.77,.27,1.1,.51,.34,.25,.62,.6,.99,.77,.41,.19,.81,.49,1.33,.41,.3-.05,.62,0,.96,0,.11,.17,.21,.35,.35,.57h1.72c.02,.12,.04,.2,.06,.3,.02,.02,.05,.05,.05,.05,.57-.2,1.09,.49,1.73,.05,.25-.17,.73-.03,1.17-.03,.09,.11,.2,.26,.29,.39,.9-.3,1.66-.91,2.64-.75,.2,.18,.34,.45,.69,.36,.73-1.01,1.79-.98,2.74-.93,.48-.21,.87-.34,1.22-.55,.37-.21,.73-.36,1.18-.41,.03-.09,.07-.2,.07-.21,.44-.24,.83-.45,1.28-.7h1.08c.48-.76,1.24-1.23,2.09-1.57,.27-.1,.55-.2,.8-.33,.11-.05,.16-.2,.26-.34,.11-.02,.26-.03,.41-.05,.04-.11,.09-.21,.14-.35h.96l.35-.35c.44,.19,.83,.44,1.25,.9,.02,.2,.02,.52,.3,.84,.34,.4,.48,.98,.79,1.65,.33,.27,.61,.81,.8,1.42,.09,.27,.41,.45,.66,.73,.21,.73,.44,1.54,.66,2.28-.5,.87-1.34,1.33-1.83,2.1h-.43c0,.15-.02,.29-.03,.45-.46,.19-.87,.51-1.16,.87-.3,.37-.65,.51-1.05,.59-.02,.12-.04,.2-.05,.2-.58,.27-1.12,.47-1.62,.75-.66,.37-1.31,.74-1.98,1.08-.27,.14-.51,.13-.59,.15-.5,.28-.84,.51-1.22,.67-.55,.24-1.12,.46-1.69,.65-.55,.18-1.02,.55-1.61,.63-.12,.02-.22,.21-.31,.31h-.76c-.3,.38-1.06,.23-1.05,1.02-.4-.16-.72-.28-1.05-.41-.33,.39-.88,.28-1.33,.35l-.09,.02Z" style="fill: #010101;"/>
    </g>
  </g>
</svg>