<?xml version="1.0" encoding="UTF-8"?>
<svg id="Ebene_2" data-name="Ebene 2" xmlns="http://www.w3.org/2000/svg" width="21mm" height="27.2mm" viewBox="0 -11 62.01 100">
  <g id="Ebene_1-2" data-name="Ebene 1">
    <g id="Joscco_4">
      <path d="M16.4,48.45c.11,.02,.19,.03,.34,.05,.26,.56,.2,1.32,.81,1.77v.68c.55,.74,1.38,1.2,1.82,2.07,.54-.17,.62,.56,1.07,.65,.56,1,1.33,1.78,2.34,2.33,.53,.29,.68,.99,1.26,1.25-.03,.51,.71,.33,.71,.76,0,.54,.56,.28,.75,.63,.14,.27,.61,.4,.95,.52,.84,.29,1.41,.93,1.86,1.4,.66,.22,1.15,.38,1.64,.54-.01,.03-.02,.07-.03,.1,.72,0,1.44-.04,2.16,.01,.64,.05,1.28,.2,2,.32,.55,.59,1.38,.32,2.15,.41,.03,.13,.05,.24,.09,.42,.64,.11,1.25,.07,1.77-.44h1.46c.05-.13,.09-.27,.15-.43,.83-.1,1.69-.12,2.5-.32,.6-.15,1.28-.21,1.66-.91,.15-.27,.64-.49,.97-.48,1.05,.02,1.74-.62,2.49-1.17,.04-.03,.03-.14,.05-.26h.96c.71-.55,1.35-1.05,2.16-1.68h1.24c.16-.16,.27-.27,.39-.39v-.75c.13-.04,.27-.09,.45-.15v-.51c.65-.3,1.26-.57,1.79-.82,.28,.09,.53,.17,.81,.26,.27,.73,1.02,1.1,1.51,1.74v.45c.58,.26,.8,.87,1.24,1.28,.45,.41,.78,.95,1.18,1.47v.46c.12,.02,.23,.05,.35,.07,.19,.66,.38,.91,.99,1.47,.16,.14,.24,.38,.35,.57,.24,.42,.47,.84,.67,1.21-.25,.51-.46,.98-.7,1.44-.36,.69-.72,1.38-1.14,2.05-.18,.29-.46,.57-.91,.42-.19,.2-.35,.47-.58,.59-.29,.15-.08,.63-.55,.66-.15,0-.28,.4-.47,.69-.5-.11-.87,.22-1.32,.43-.39,.18-.8,.43-1.22,.5-.53,.09-.94,.3-1.33,.72h-1.02c-.05,.14-.08,.24-.12,.37-.27,.13-.66,.21-.83,.44-.17,.24-.44,.38-.57,.58-.44,.7-1.12,1.06-1.91,1.52-.61,.07-1.44-.2-2.07,.49-.71-.08-1.36,.06-1.88,.68h-.83c-.44,.22-.8,.41-1.13,.57-.15,.24-.3,.46-.42,.66h-1.89c-.25-.14-.54-.29-.85-.47-.03,.12-.05,.22-.1,.42-.53,.11-1.12,0-1.71,.05-.42,.31-.85,.62-1.31,.95-.64,0-1.33,.01-2,0-.26,0-.54,.09-.78-.16-.09-.1-.37-.06-.55-.03-.22,.04-.42,.17-.63,.19-.45,.05-.89,.02-1.35,.22-.56,.24-1.53-.1-2.15-.53-.28-.19-.57-.37-.99-.64-.75-.03-1.68,.12-2.52-.44-.17-.11-.56,.1-.88,.17-.23-.08-.51-.18-.91-.33-.12-.12-.35-.35-.59-.59h-1.64c-1.77-1.66-1.83-1.46-3.92-1.45-.38-.41-.79-.87-1.29-1.42-.02,0-.21-.02-.43-.05-.02-.1-.04-.21-.07-.36-.45-.19-1.11-.11-1.29-.8-.89-.37-1.56-1.06-2.33-1.62-.16-.11-.43,0-.47-.39-.04-.37-.48-.43-.83-.43-.47-.43-.86-.92-1.55-1.42-.15-.31-.34-.87-.93-1.21-.32-.19-.51-.6-.73-.93-.21-.31-.37-.65-.6-.95-.21-.28-.68-.31-.75-.74-.48,.08-.45-.42-.54-.61-.46-.99-1.01-1.92-1.63-2.8-.1-.14-.08-.37-.11-.57-.59-.17-.89-.65-1.16-1.3v-1.59c-.13-.04-.27-.08-.44-.13v-.95c-.16-.3-.45-.2-.57-.57-.35-1.1-.92-2.1-.96-3.34-.03-.73-.33-1.51-.66-2.23-.33-.72-.35-1.48-.13-2.25,.08-.25,.21-.62,.1-.77-.33-.44-.2-.91-.21-1.36-.02-1.12-.01-2.24,0-3.36,0-.69-.13-1.4,.39-2,.1-.12,.08-.37,.08-.56,0-.76,.01-1.52,0-2.28-.01-.85,.21-1.65,.42-2.46,.09-.35-.03-.75-.06-1.12-.03-.27-.17-.56-.1-.79,.33-.95,.41-1.98,.89-2.87,.44-.81,.8-1.62,.77-2.56,.5-.41,.04-1.05,.4-1.52,.3-.38,.5-.83,.82-1.37v-1.4c.15-.03,.26-.05,.42-.09v-.51c.21-.17,.41-.26,.52-.42,.33-.5,.57-1.07,.96-1.51,.46-.53,.42-1.28,.96-1.78,.42-.39,.89-.77,1.2-1.26,.21-.34,.59-.58,.55-1.1-.02-.26,.33-.58,.56-.83,.52-.57,1.17-1.03,1.35-1.84,.63-.22,.75-.87,1.08-1.33,.06-.08,.07-.21,.11-.37h.46c.56-.5,1.04-.94,1.64-1.48,0-.01,.02-.2,.03-.3,.22-.21,.39-.36,.68-.63h.59c.63-.7,1.51-.99,2.11-1.68h.64c.02-.22,.03-.41,.05-.61,.04-.04,.08-.12,.14-.15,.56-.19,1.06-.59,1.7-.53,.2-.49,.79-.31,1.06-.61,.23-.25,.47-.5,.69-.77,.07-.08,.12-.25,.17-.25,.6,.01,.99-.35,1.4-.71,.11-.1,.37-.03,.54-.04,.04-.17,.07-.28,.11-.43,.59,.08,1.14-.7,1.75-.04,.25-.25,.48-.48,.71-.71h1.93c.13-.14,.27-.28,.37-.38,.61-.12,1.2-.15,1.72-.35,.98-.4,1.98-.53,3-.45,.05-.19,.08-.3,.11-.41,.07-.03,.14-.08,.2-.08,1.44,0,2.88-.06,4.32,.02,.72,.04,1.35-.33,2.06-.27,.35-.41,.8-.17,1.13-.22,1.04,.65,2.41,.52,3.13,1.68,.61-.09,1.24,.16,1.82-.24,.09-.07,.36-.03,.44,.05,.35,.36,.76,.08,1.2,.21,.03,.09,.07,.22,.11,.36,1.2,.12,2.03,.54,2.47,1.27h.88c1,.71,2.14,1.02,3.09,1.68,.92,.64,1.9,1.2,2.88,1.81v.46c.54,.33,1.07,.65,1.67,1.01,.02,.06,.07,.19,.12,.33h.48c.32,.39,.64,.77,.94,1.16,.3,.39,.58,.8,.89,1.24,0,.1,.01,.26,.02,.37,.42,.25,.8,.49,1.25,.76-.2,.54-.41,1.09-.66,1.76-.25,.25-.6,.58-.93,.93-.27,.29-.51,.59-.86,1,0,.02-.02,.21-.05,.42-.11,.02-.22,.05-.39,.08v.76c-.45,.41-.86,.79-1.08,.99-.45,1.17-.91,2.03-1.73,2.77-.12,0-.3,.02-.49,.03-.14,.14-.28,.28-.42,.42-.51,0-1.04,.1-1.52-.02-.6-.15-1.18-.45-1.72-.75-.53-.29-1.01-.66-1.5-1.01-.4-.29-.74-.72-1.19-.9-.45-.18-.69-.8-1.3-.63-.29-.61-.94-.78-1.44-1.18h-2.29c-.4-.27-.74-.5-.92-.63-1.31-.19-2.44-.36-3.73-.55-.15,.08-.44,.23-.8,.41-.93,.04-1.91,.41-2.94,.27-.06,0-.14,.05-.21,.07-.34,.13-.68,.33-1.04,.39-.39,.07-.8,.02-1.33,.02-.07-.12-.19-.33-.27-.47-.81-.05-1.17,.41-1.67,.91h-.85c-.66,.56-1.39,.84-2.11,1.07-.17,.32-.33,.57-.45,.85-.16,.37-.39,.63-.8,.76-1.03,.32-1.93,.87-2.68,1.67h-.68c-.47,.28-.61,.87-1.12,1.08v.39c-.34,.46-.64,.86-.93,1.26-.51,.74-1.26,1.32-1.52,2.23-.04,.13-.2,.28-.33,.33-.77,.33-1,1.05-1.31,1.72-.22,.47-.49,.92-.76,1.43,.75,.56,.1,1.16-.11,1.61-.3,.64-.54,1.3-.81,1.94-.13,.31-.18,.74-.67,.79-.02,.18-.04,.37-.07,.56-.14,.14-.28,.28-.44,.44,0,.1-.02,.22-.01,.34,.03,1.33-.41,2.64-.25,3.98,.01,.11-.02,.23-.07,.33-.13,.27-.34,.52-.39,.79-.07,.43-.02,.87-.02,1.3,.45,.42,.51,.94,.48,1.5-.06,1.28,.19,2.5,.62,3.7,.12,.32,.09,.69,.14,1.12Z"/>
    </g>
  </g>
</svg>
