<?xml version="1.0" encoding="UTF-8"?>
<svg id="Ebene_1" data-name="Ebene 1" xmlns="http://www.w3.org/2000/svg" width="100" height="100" viewBox="0 0 100 100">
  <g id="empty">
    <path d="M31.49,54.58v-5.28c-.23-.24-.45-.48-.65-.69v-1.3c.24-.27,.45-.51,.65-.73v-1.81c.14-.18,.33-.43,.6-.79v-1.58c.83-.82,1.53-1.51,2.05-2.03v-1.67c1.88-1.87,3.75-3.74,5.44-5.43,.95-.44,1.7-.77,2.43-1.14,.64-.33,1.23-.95,1.88-1.01,.79-.07,1.37-.47,2.05-.68,.71-.22,1.53-.05,2.3-.05h4.79c.28,.28,.44,.44,.63,.63h2.5c.56,.23,.78,.95,1.47,.7,.31-.52,.67-1.02,.94-1.57,.35-.73,.57-1.54,.96-2.25,.35-.63,1.28-.9,1.15-1.84,.55-.55,1.09-1.1,1.64-1.64,.46-.45,.27-1.29,.94-1.6,.79-.37,.53-1.38,1.16-1.84,.18-.13,.32-.31,.47-.46,.76-.12,1.52-.25,2.03,.56,.89-.4,1.13,1.11,2.03,.7,.55,.55,1.09,1.09,1.65,1.65v1.36c-1.17,.78-1.38,2.37-2.55,3.2-.28,1.21-1.22,2.14-1.48,3.45-.77,.89-1.85,1.63-2.29,2.93-.32,.94-.47,1.11,.09,2.03,.32,.53,.25,1.28,.92,1.61,.67,.32,.47,1.25,.96,1.57,.89,.58,.85,1.72,1.66,2.37v1.91c.23,.27,.43,.51,.68,.8v9.25c-.17,.19-.38,.43-.62,.7v1.94c-.74,.4-.54,1.37-1.15,1.85-.51,.4-.79,.92-.98,1.58-.19,.67-.65,1.32-1.15,1.82-.48,.48-.69,1.04-.9,1.62-.31,.08-.61,.16-1,.26-.05,.26-.11,.56-.2,.97-.2,.07-.49,.18-1.22,.44-.33,.41-.95,1.18-1.57,1.94-.08-.1-.15-.2-.23-.3-.82,.41-1.64,.83-2.88,1.45h-2.97c-.27,.27-.43,.43-.6,.6h-6.11c-.23-.23-.38-.38-.57-.57h-3.96c-.91,.69-1.62,1.58-2.12,2.67-.25,.55-.24,1.29-.91,1.61-.67,.32-.46,1.25-.96,1.57-.9,.58-.85,1.72-1.62,2.33,.02,1.02-.87,1.42-1.4,2.07,0,.22,0,.44,0,.73-.26,.1-.55,.21-.97,.37-.62-.75-1.25-1.51-1.87-2.27-1.26-.2-2.35-.55-3.22-1.62,.5-1.07,1.09-2.11,1.92-3.12,.75-.91,1.06-2.19,1.71-3.61,.63-.59,1.5-1.43,2.39-2.27,.02-.48,.04-.9,.08-1.63,.35-.24,.89-.62,1.48-1.03-.91-.54-.68-1.52-1.32-1.95-.68-.45-.72-1.27-1.17-1.85h-.64c-.97-1.03-.76-2.57-1.68-3.74v-1.19c-.23-.25-.45-.49-.68-.73Zm9.02,3.14c.3-.37,.65-.67,.81-1.05,.74-1.71,1.4-3.46,2.76-4.82-.2-1.16,1.51-1.28,1.33-2.43,.66-.72,1.31-1.45,1.93-2.13,.09-.97,1.1-1.66,.75-2.67,.78-.92,1.84-1.54,2.18-2.79,.09-.36,.4-.68,.5-1.12,.05-.23,.73-.27,1.05-.5,.91-.65,1.07-1.75,1.67-2.89-.38-.27-.81-.58-1.32-.94h-4.43c-.28,.24-.52,.45-.78,.68h-2c-.74,1.27-2.3,1.49-3.21,2.6-.91,1.09-2,2.03-2.95,2.99-.05,.73,.01,1.3-.47,1.92-.39,.5-.22,1.43-.29,2.12-.23,.29-.42,.53-.5,.64v3.36c.22,.22,.38,.38,.65,.65v2.69c1.29,.94,1.52,2.37,2.33,3.7Zm20.81-13.07v-1.99q-.66-.69-1.57-1c-.78,.45-1.02,1.28-1.46,1.99-.4,.64-1.06,1.11-1.61,1.66,.15,1.07-.99,1.33-1.37,2.17v1.18c-.66,.66-1.28,1.28-1.71,1.71-.38,.79-.64,1.34-.91,1.89-.14,.28-.24,.61-.47,.79-.85,.71-1.09,1.75-1.51,2.69-.46,1-1.78,1.34-1.97,2.49-.09,.52-.68,.69-.65,1.04,.05,.67-.47,.93-.69,1.39-.08,.16,.03,.42,.04,.62,.32,.32,.62,.63,.93,.94h1.32c.24-.22,.47-.43,.69-.63,.26,.23,.5,.44,.68,.6,.76,.27,.94-.53,1.74-.69h1.29c1.24-.6,2.16-1.05,2.88-1.4,1.3-1.3,2.47-2.46,3.38-3.38,.63-1.19,1.1-2.09,1.67-3.17v-1.67c.22-.22,.37-.37,.52-.52v-5.46c-.47-.47-.86-.86-1.25-1.24Z"/>
  </g>
</svg>