<?xml version="1.0" encoding="UTF-8"?>
<svg id="Ebene_1" data-name="Ebene 1" xmlns="http://www.w3.org/2000/svg" width="100" height="100" viewBox="0 0 100 100">
  <g id="Ebene_1-2" data-name="Ebene 1-2">
    <g id="Sigma">
      <path d="M62.08,19.18c.42,.43,.94,.48,1.5,.39,.04-.11,.09-.23,.15-.4,.15,.02,.37-.03,.46,.05,.3,.3,.68,.19,.98,.14,1.09-.18,1.09-.2,2.13,0,.2,.04,.42,0,.63,0h2.68c.12-.1,.23-.17,.43-.32,.09,.23,.17,.44,.19,.51h1.56c.3,.17,.5,.34,.75,.43,.68,.23,1.17,.7,1.36,1.36,.09,.31,.17,.63,.26,.95-.75,.97-1.73,1.71-2.12,2.88h-.77c-.24,.3-.44,.63-.71,.88-.29,.25-.23,.79-.73,.83-.09,.39-.5,.47-.73,.72-.22,.23-.5,.41-.79,.63-.02,.11-.03,.28-.05,.44-.41,.24-.84,.39-1.11,.86-.2,.36-.56,.69-1,.82-.38,.1-.52,.49-.84,.68-.3,.18-.76,.29-.69,.81h-1.35c-.07-.21-.15-.49-.27-.76-.11-.26-.26-.51-.38-.75,.36-.82,.69-1.58,1.07-2.45v-1.34c-.68,.2-1.37,.11-2.06,.1-.71-.02-1.37,.15-2.03,.4-.38-.42-.93-.4-1.45-.38-.06-.16-.11-.28-.16-.39-.35-.13-.76,.14-1.07-.21-.06-.07-.32-.08-.39-.02-.36,.36-.78,.17-1.17,.19-.94,.03-1.88,0-2.82,0-.11,.12-.23,.24-.37,.39h-1.55c-.05-.09-.16-.26-.25-.43-.75,.14-1.41-.1-2.08,.2-.31,.14-.84-.08-1.21-.26s-.7-.17-.98-.07c-.23,.09-.35,.22-.61,.02-.1-.08-.4,.12-.61,.14-.42,.04-.78-.1-1.06-.39-.23,.14-.44,.3-.69,.39-.24,.09-.56-.11-.76,.18-.31-.27-.76-.03-1.02-.2-.4-.25-.79-.15-1.18-.17-.49-.03-.97,0-1.46,0-.36,0-.7,.05-1.07,.18-1.18,.44-1.62,.13-2.71-.3-.06-.03-.11-.06-.17-.1-.56,.09-.43,.52-.45,.96,.12,.09,.3,.21,.42,.29v.96c.11,.03,.23,.08,.35,.11,.31,.84,.67,1.68,.99,2.51,.25,.65,.51,1.32,.77,1.97,.39,.98,.68,2.03,1.44,2.93v.64c.13,.03,.23,.04,.32,.07,.03,.04,.08,.1,.09,.16,.03,.76,.11,.72,.54,1.76,.23,.55,.64,.98,.77,1.55,.13,.56,.43,1.08,.63,1.62,.15,.37,.04,.73,.23,1.21,.23,.29,.56,.67,.93,1.12,.03,.21,.1,.47,.33,.71,.18,.19,.31,.53,.3,.79-.02,.39,.28,.52,.44,.77v.91c.48,.85,.91,1.62,1.43,2.54v1.09c-.18,.33-.46,.67-.4,1.14,.02,.13,.02,.3-.05,.39-.45,.49-.39,1.23-.96,1.69-.27,.22-.43,.67-.49,1.15-.07,.57-.43,1.14-.76,1.65-.29,.47-.41,.96-.48,1.53-.1,.1-.24,.26-.39,.41v1.22c-.3,.38-.55,.81-.9,1.09-.36,.29-.46,.76-.91,1-.23,.12-.26,.62-.37,.94-.09,0-.16,0-.27,.03v.69c-.16,.13-.3,.24-.43,.36v.89c-.37,.46-.5,1.03-1.06,1.28-.1,.56-.43,1-.64,1.5-.17,.42-.46,.76-.49,1.27-.02,.44-.66,.67-.56,1.22-.61,.03-.34,.69-.7,.96-.24,.17-.29,.63-.43,.98-.05,0-.14,.03-.27,.07v.83c-.31,.5-.58,.95-.89,1.46,.09,.1,.19,.22,.33,.37,.7,0,1.43,.05,2.15-.02,.56-.05,1.11-.26,1.68-.19,.32,.04,.66-.1,.98,.17,.14,.12,.51,.11,.7,.02,.72-.37,1.49-.1,2.1-.19,.42,.19,.74,.34,1.13,.52,.14-.22,.24-.39,.34-.54,.81,.07,1.58-.18,2.2,.43h1.02c.7-.56,1.39-.55,2.14,0,.57,0,1.2-.03,1.82,0,1.05,.05,2.09,.16,3.14,.19,.36,0,.72,.13,1.08-.17,.17-.14,.59-.12,.8,0,.66,.36,1.39,.27,2,.13,.58-.13,1.17-.24,1.68-.12,.81,.2,1.61,.14,2.39,.17,.06,.17,.1,.28,.15,.41h2.16c.15-.23,.32-.51,.5-.81-.3-.37-.35-.82-.16-1.22,.17-.35,.06-.6,.02-.93-.11-.84-.06-1.71-.08-2.57,.38-.46,.76-.92,1.09-1.33,.58-.06,.88,.25,.95,.66,.05,.28,.19,.42,.35,.59,.3,.32,.56,.69,.84,.99,.3,.3,.52,.6,.71,.96,.04,.09,.12,.2,.2,.23,.96,.31,.76,1.27,1.16,1.96,.03,0,.12,.03,.26,.05v.63c.26,.19,.64,.36,.63,.5-.02,.4,.36,.23,.46,.43,.33,.7,.69,1.38,1.03,2.08-.17,.46,.36,.61,.43,.97,.06,.31,.22,.6,.4,1.07v1.29c-.16,.15-.34,.31-.56,.5h-8.28c-.32,0-.64,.09-1.07,.14-.13-.03-.38-.14-.63-.14-2.74,0-5.49,0-8.23,0-.23,0-.46-.08-.68,.14-.1,.1-.35,.11-.49,.05-.86-.36-1.75-.19-2.63-.18-1.33,0-2.64-.37-3.98-.22-.6,.07-1.19,.17-1.79,.2-.59,.03-1.18-.02-1.77,.02-.5,.03-.91-.1-1.23-.37-.69,.1-1.34,.19-2.11,.3-.36-.16-.84-.17-1.39-.05-.65,.13-1.35,.05-2.01,.04-.08,0-.16-.1-.2-.15-.93,.42-1.87,.1-2.75,.23-.28-.16-.54-.3-.8-.43-.69,.44-1.4-.21-2.11,0-.31,.09-.67-.12-.97,.2-.1,.1-.44,.1-.6,0-.69-.4-1.41-.11-2.1-.17-.04,0-.1,.1-.14,.14-.21-.07-.41-.13-.71-.23-.17-.14-.44-.34-.7-.56-.2-.17-.38-.36-.6-.57-.23-1.15,.27-2.14,1.01-3.11v-.6c.15-.1,.32-.22,.42-.29,.03-.73,.15-1.3,.64-1.81v-.66c.13-.03,.23-.04,.36-.08v-.68c.5-.34,.46-1.01,.8-1.33,.42-.4,.07-1.07,.63-1.32,.12-.51,.45-.98,.23-1.55,.17-.06,.3-.1,.45-.16,0-.15,.03-.31,.04-.5,.09-.03,.17-.05,.35-.1,.09-.69,.7-1.24,.68-2.04,0-.09,.09-.17,.13-.25,.17-.31,.32-.63,.52-.93,.36-.51,.22-1.26,.8-1.65-.15-.65,.42-1.01,.63-1.51,.09-.21,.24-.39,.41-.64v-.55c.59-.51,.63-1.21,.63-1.75,.26-.32,.44-.52,.6-.75,.34-.49,.64-.97,.66-1.61,0-.34,.17-.69,.27-1.01h.31c.03-.85,.32-1.61,1.06-2.28,0-.09,.02-.32,.03-.58,.1-.03,.19-.04,.3-.07,.59-1.43,1.14-2.88,.63-4.55-.4-.9-.83-1.88-1.33-3.04,.22-.83-.66-1.61-.69-2.58-.15-.03-.24-.06-.29-.07-.29-.69-.56-1.34-.83-2.01-.04,0-.14-.03-.23-.06-.03-.03-.08-.05-.07-.07,.11-.57-.33-.98-.42-1.49-.12-.7-.7-1.27-.63-2.03-.45-.31-.43-.87-.66-1.29-.05-.09-.23-.1-.36-.17v-.52c-.17-.3-.36-.5-.43-.75-.23-.98-.53-1.93-.96-2.83-.22-.47-.45-.92-.59-1.42-.1-.37-.39-.7-.5-1.04-.11-.36-.17-.68-.43-.98-.17-.19-.14-.56-.24-.83-.08-.21-.21-.41-.39-.75v-.71c-.69-.2-.22-1.07-.79-1.39-.1-.45-.23-.89-.27-1.35-.09-.95,.03-1.86,.59-2.67,.07-.1,.03-.27,.03-.4,.18-.15,.36-.3,.63-.52,.21,.07,.56-.15,.93,.14,.17,.14,.65,.16,.78,.02,.37-.38,.84-.07,1.25-.3,.36-.19,.86-.1,1.19-.12,.36,.19,.62,.32,.91,.48,.73-.36,1.42-.35,2.14,.14,.3,.2,.7,.31,1.2,.13,.58-.21,1.33-.22,1.92-.05,.96,.28,1.84,.17,2.74-.1,.56-.17,1.09-.4,1.68-.63,.57,.47,1.27,.5,1.98,.48,.29,0,.59-.1,.88,.15,.13,.11,.52,.1,.67-.02,.23-.19,.47-.07,.68-.15,.46-.19,.8,.44,1.34,.1,.33-.21,.86-.1,1.36-.13,.11,.16,.23,.32,.27,.37,.86-.05,1.6-.1,2.34-.13,.57-.02,1.16,.05,1.53-.46,.45,.09,.83,.17,.96,.63h.9c.63-.54,1.24-.52,1.86,.03h4.79l.02,.02Z" style="fill: #010101;"/>
    </g>
  </g>
</svg>