<?xml version="1.0" encoding="UTF-8"?>
<svg id="Ebene_2" data-name="Ebene 2" xmlns="http://www.w3.org/2000/svg" width="22mm" height="27.96mm" viewBox="0 -10 59.52 100">
  <g id="Ebene_1-2" data-name="Ebene 1">
    <g id="Joscco_2">
      <path d="M56.24,63.42c.14,.68-.5,1.35-1.17,1.92-.13,.4-.23,.72-.35,1.07-.39,.23-.8,.46-1.42,.82,0-.01-.1,.24-.29,.4-.18,.15-.45,.17-.51,.5-.02,.15-.45,0-.45,.4,0,.14-.4,.27-.65,.43v.82c-.47,.2-.92,.38-1.35,.58-.42,.19-.92,.21-1.12,.82-.09,.29-.4,.67-.91,.63-.39-.03-.49,.59-1,.5-.28-.05-.38,.42-.66,.61-.53,.37-1.12,.76-1.48,1.36-.04,.06-.08,.14-.15,.16-.69,.27-1.39,.52-2.32,.87-.06,.08-.29,.36-.4,.5-1.67,.3-3.05,.83-4.29,1.74-.83-.46-1.68,.29-2.52-.02-.2,.19-.37,.35-.55,.52h-1.11c-.38,.26-.69,.47-1.03,.7h-1.23c-.11,.17-.24,.38-.33,.52-.74-.08-1.35,.08-1.96-.23-.23-.12-.63,.18-.96,.2-.6,.04-1.2,.01-1.8,0-.66,0-1.32,.07-1.94-.24-.57,.34-1.21,.21-1.82,.24-.56,.03-1.08-.04-1.49-.49-1.72,.17-3.28-.38-4.92-1.18h-.83c-.25-.29-.53-.48-.98-.53-.62-.06-1.07-.61-1.74-.72-.6-.1-1.13-.53-1.66-.9-.54-.37-1.23-.44-1.81-.87-.49-.37-.78-.95-1.37-1.19,.02-.33-.19-.57-.45-.58-.38-.03-.19-.38-.38-.49-.23-.13-.43-.31-.67-.41-.17-.08-.37-.07-.55-.1-.52-.4-.85-1.04-1.53-1.27v-.46c-.59-.21-.61-.96-1.19-1.12v-1.03c-.18-.2-.36-.4-.55-.61,.07-.12,.11-.24,.19-.3,.29-.21,.4-.48,.34-.79,.25-.19,.5-.36,.71-.57,.23-.24,.37-.68,.63-.76,1.02-.3,1.61-1.07,2.05-1.91,.37-.7,.97-1.13,1.49-1.61,.56-.51,1.02-1.16,1.7-1.53,.51,.43,1.13,.12,1.64,.23,.98,.73,1.92,1.44,2.79,2.1,.54,.13,.99,.03,1.45,.25,.29,.14,.13,.71,.6,.52,.52,.61,1.19,.83,1.99,.7,.03,.15,.05,.26,.07,.34,.82,.35,1.63,.72,2.45,1.05,.38,.15,.74,.33,1.19,.33,1.88-.04,3.76-.02,5.64-.01,.52,0,.99-.08,1.4-.49,.85,0,1.73,.03,2.6-.01,.49-.02,1-.09,1.45-.25,.34-.12,.73-.37,.91-.67,.32-.54,.83-.62,1.32-.85,.41-.2,.77-.05,1.16-.16,.66-1.13,2.04-1.22,2.98-2.08v-.62c.29-.2,.57-.39,.92-.63h.56c1.15-.69,1.29-2.27,2.6-2.76v-.52c.53-.21,.54-.96,1.17-1.13,.09-1,.24-1.99,.27-3,.03-.85-.08-1.7-.12-2.31-.44-.61-.8-.98-1.01-1.42-.54-1.1-1.57-1.44-2.59-1.84-.24-.1-.46-.24-.68-.4-.37-.21-.83,.1-1.21-.27-.13-.12-.49-.12-.68-.04-.59,.27-1.27,.13-1.86,.45-.32,.17-.72,.21-1.09,.25-.39,.04-.8,0-1.19,0-.15,.15-.29,.29-.47,.47h-1.03c-.03,.15-.05,.25-.07,.36-.59,.49-1.31,.34-1.97,.36-.77,.58-1.55,1.05-2.52,1.23-.48,.09-.98,.32-1.33,.83-.25,.36-.81,.51-1.29,.8h-5.88c-.51,.39-1,.76-1.51,1.15-.95-.46-2.19-.25-3.12-1.11h-1.06c-.39-.27-.74-.5-1.09-.74h-1.69c-.54-.65-1.18-1.11-2.14-.94-.37-.4-.73-.83-1.12-1.22-.39-.39-.82-.74-1.27-1.14-.61-.15-1.12-.5-1.6-1.03-.75-.82-1.31-1.8-2.08-2.44-.08-.31-.09-.52-.19-.66-.59-.78-.85-1.75-1.49-2.52-.2-.25-.18-.78-.3-1.18-.25-.79-.63-1.57-.49-2.44,.01-.08,.03-.18,0-.23-.68-.98-.45-2.09-.46-3.17-.02-1.96,0-3.92-.01-5.88,0-.56,.05-1.07,.49-1.53-.09-.86,.17-1.69,.47-2.52,.13-.35,.2-.73,.24-1.1,.04-.39,0-.79,0-1.12,.55-.84,.76-1.83,1.66-2.48v-.68c.24-.51,.39-.77,.5-1.05,.28-.74,.64-1.42,1.14-2.06,.48-.6,1.09-1.18,1.04-2.09-.01-.23,.16-.57,.34-.67,.78-.42,1.08-1.24,1.56-1.88,.73-.98,1.5-1.86,2.55-2.49,.31-.88,1.19-1.35,1.55-2.22,.17-.41,.5-.76,.73-1.1,.75-.04,1.56-.33,1.99-.71h1.35c.99-.63,1.98-1.1,3.13-1.25,.45-.06,.86-.41,1.4-.69,.49,.04,1.11,0,1.58-.48,.4,0,.8,0,1.12,0,.69-.36,1.32-.68,1.95-1,.51,.16,.98,.56,1.51,.06,.13-.12,.46-.02,.7-.02h4.32c.37,.41,.85,.55,1.36,.47,.52-.07,.84,.29,1.54,.5,.16-.02,.61-.09,1.05-.16,.42,.07,.87,.13,1.37,.21,.03,.07,.07,.21,.14,.4h1.53c.15,.24,.29,.47,.45,.72h.51c.62,.33,1.11,.6,1.78,.96h.78c.38,.26,.69,.47,1.08,.73h.84c.18,.22,.36,.43,.64,.76,0,0,.02,.19,.05,.42h1.06c.06,.17,.11,.31,.17,.49h1.02c.1,.29,.12,.67,.28,.75,.66,.32,1.04,.99,1.78,1.21,.48,.15,.9,.51,1.33,.77,.17,.34,.34,.67,.49,.97,.64,.25,1.22,.47,1.89,.73,.44,.92,1.49,1.36,2.26,2.19v1.04h1.05c.26,.31,.48,.58,.83,1.01v1.12c-.09,.09-.24,.23-.38,.36-.16,.36,.02,.75-.28,1.11-.35,.42-.45,1.09-.85,1.42-.45,.36-.67,.99-1.31,1.13v.73c-.16,.08-.35,.13-.47,.25-.4,.36-.76,.76-1.25,1.03-.29,.16-.48,.5-.68,.78-.29,.41-.57,.79-1.08,.99-.25,.1-.69,.17-.69,.64,0,.02-.29,.04-.45,.06-.87-.89-2.09-1.34-2.87-2.34-.1-.13-.31-.19-.49-.26-.51-.19-.96-.44-1.34-.84-.14-.15-.41-.16-.74-.28-.29-.29-.69-.69-1.09-1.09h-.4c-.52-.39-.73-.95-1.3-1.27-.7-.39-1.28-1.01-1.76-1.42-1.11-.67-2.22-.98-3.01-1.86-.45-.04-.88,.05-1.34,.18-.38,.11-.87-.16-1.41-.28-.1-.08-.05-.35-.4-.46-.45-.15-.81-.57-1.18-.9-.69-.6-1.47-.59-2.28-.37-.39,.11-.77,.29-1.17,.35-.24,.03-.5-.11-.82-.19-.55,.28-1.18,.59-1.9,.95-.16-.13-.36-.3-.59-.5h-.93c-.07,.07-.19,.14-.24,.24-.42,.85-1.08,1.29-2.02,1.46-.36,.07-.72,.18-1.1,.23-.51,.07-1.18,.61-1.55,1.2-.79,1.24-1.87,2.28-2.4,3.68-.73,.4-.93,1.19-1.34,1.82-.18,.27-.4,.46-.35,.83,.02,.13-.06,.31-.15,.41-.52,.51-.59,1.14-.56,1.81,.03,.66,.08,1.33-.47,1.87-.03,1.01,.17,2.08-.62,3.11,.24,.11,.46,.22,.69,.33-.35,.84,.34,1.19,.55,1.75,.19,.52,.39,1.04,.58,1.55,.64,.2,.85,.92,1.43,1.17,.58,.26,1.07,.76,1.74,.61,.49,.42,.96,.82,1.41,1.2,.58,0,1.1-.04,1.62,.01,.48,.04,.96,.17,1.42,.26,.04,.15,.07,.26,.11,.41h1.5c.33-.38,.63-.85,1.05-1.14,.41-.29,1.02-.3,1.42-.6,.52-.39,1.07-.38,1.44-.38,.85-.28,1.28-.92,2.09-.99,.63-.06,.84-.99,1.54-.97,.04-.19,.06-.3,.1-.47,.28,.07,.53,.12,.84,.2,.73-.52,1.67-.39,2.57-.4,.15-.15,.29-.29,.47-.47h.72c.18-.18,.33-.33,.49-.49,.46,0,.94,0,1.41,0,.19,0,.42,.02,.57-.07,.93-.61,1.88-.47,2.86-.17,.47,.14,.95,.23,1.52,.37,.06,.06,.2,.2,.35,.35h1.43c.17,.17,.34,.33,.43,.41,.98,.12,1.86,.24,2.77,.35,.02,.09,.05,.2,.1,.4,.38,0,.8,.11,1.02,.51,.38,.7,1.07,.96,1.76,1.28,.24,.46,.51,.92,.92,1.11,.36,.17,.21,.6,.61,.79,.3,.14,.79,.35,.9,.58,.2,.44,.63,.58,.92,.75,.32,.19,.48,.51,.81,.61,0,.28-.1,.63,.02,.74,.67,.65,.8,1.6,1.36,2.3,.03,.04,.15,.03,.22,.04,.12,.75,.23,1.51,.35,2.29,.12,.04,.26,.09,.44,.16v.99c.18,.18,.33,.33,.47,.47,.06,.83,.73,2.59,1.21,3.13v1c-.16,.16-.3,.3-.46,.46,0,1.39-.06,2.79,.02,4.18,.05,.84-.2,1.62-.3,2.42-.08,.63-.53,1.21-.9,1.98,.15,.67-.32,1.42-.49,2.23-.17,.8-1.05,1.1-1.15,2.29Z"/>
    </g>
  </g>
</svg>
