<?xml version="1.0" encoding="UTF-8"?>
<svg id="Ebene_2" data-name="Ebene 2" xmlns="http://www.w3.org/2000/svg" width="24mm" height="27.46mm" viewBox="0 -11 72.03 100">
  <g id="Ebene_1-2" data-name="Ebene 1">
    <g id="Joscco_5">
      <path d="M2.24,25.32c.25-.3,.51-.6,.87-1.04v-1.18c.3-.56,.69-.98,.72-1.42,.04-.59,.73-.84,.59-1.45,.38-.22,.43-.64,.5-.99,.16-.85,.58-1.62,.65-2.5,.05-.69,.56-1.21,.98-1.74,.22-.28,.5-.51,.71-.72,.41-.13,.76-.25,1.1-.36,.36-.84,1-1.56,1.68-2.21,.47-.45,1-.85,1.32-1.48,.21-.42,.7-.69,1.15-1.11,0,0,0-.15,0-.35,.13-.04,.27-.09,.4-.13,.06-.14,.11-.27,.19-.45h1.09c.53-.47,.95-.83,1.37-1.2h.49c.02-.11,.03-.31,.07-.32,.48-.09,.47-.66,.82-.84,.39-.21,.81-.36,1.21-.53,.56-.78,.97-1.72,2.03-1.99,.62-.16,1.25-.28,1.88-.38,.31-.05,.63,0,.89,0,.13-.2,.2-.42,.34-.47,.56-.21,1.09-.49,1.72-.51,.52-.02,1.04-.19,1.59-.3,.12-.57,.82-.47,1.15-.86,1.04-.16,2.23,.35,3.12-.73,.48,.04,1.01-.18,1.5,.2,.86-.46,1.79-.1,2.67-.2,.51-.06,1,0,1.44,.3,.39,.27,.73,.22,1.16-.04,.64-.39,.87-.31,1.85-.08,.67,.15,1.36,.26,2.04,.29,.7,.02,1.37,.07,2.01,.39,.17,.09,.48,.11,.63,.01,.45-.28,.99-.25,1.37-.1,.8,.31,1.6,.47,2.4,.43,.18,.18,.32,.32,.4,.4,.55,.1,1.04,.2,1.32,.25,.41,.43,.64,.82,.98,1.02,1.16,.68,2.45,.83,3.8,.72,.05,.15,.1,.29,.16,.49,.17,0,.35,.02,.54,.02,.19,.42,.64,.61,.86,.96,.24,.38,.74,.01,.95,.48,.13,.3,.52,.61,.84,.67,.42,.08,.35,.58,.8,.67,.32,.06,.57,.52,.85,.8,.24,0,.48,0,.72,0,.05,.34,.39,.4,.56,.6,.63,.72,1.55,1.13,2.03,1.99,.07,.13,.22,.24,.35,.29,.44,.15,.6,.52,.84,.87,.4,.59,.8,1.18,1.16,1.8,.16,.28,.4,.59,.68,.77,.29,.18,.44,.47,.68,.63,.55,.34,.51,1.06,1.02,1.4-.13,.82,.53,1.32,.86,1.92,.22,.4,.33,.75,.35,1.2,.13,.03,.24,.05,.36,.08,.25,.63,.49,1.29,.76,1.94,.28,.66,.67,1.27,.58,2.05-.03,.28,.25,.6,.44,1,.08,.61,.2,1.33,.24,2.06,.04,.72-.09,1.46,.04,2.15,.1,.53,.22,1.17,.91,1.44,.06,1.2-.01,2.41-.41,3.61-.19,.57-.03,1.26-.03,1.96,.11,.09,.26,.22,.42,.35v1.33c-.11,.11-.26,.26-.4,.4-.23,1.12,.32,2.36-.52,3.43,.01,.49,0,1,.18,1.55,.13,.39-.06,1.01-.32,1.39-.38,.58-.33,1.17-.36,1.78-.02,.34,.14,.71-.19,1.01-.08,.07-.1,.35-.03,.45,.58,.81,.02,1.35-.48,2.01v.86c-.53,.71-.57,1.48-.73,2.21-.17,.73-.63,1.4-.48,2.09-.25,.49-.46,.88-.73,1.43v.89c-.15,.03-.26,.06-.42,.09v.46c-.46,.55-.99,.97-1.21,1.51-.26,.64-.81,1.08-1.03,1.73-.2,.59-.52,1.14-.78,1.71-.19,.53-1.04,.25-1.13,.94-.65,.16-.44,.85-.81,1.28-.2,0-.47,.02-.61,.03-.34,.3-.6,.54-.92,.82v.74c-.58,.05-.54,.75-1.1,.89-.35,.09-.52,.72-.86,1.01-.36,.3-.82,.49-1.32,.76-.24,.28-.57,.66-.92,1.07-.9-.18-1.54,.25-2.14,.87-.33,.35-.57,.88-1.23,.83-.09,0-.46,.37-.55,.54-.33,.66-.8,1.15-1.49,1.57h-1.35c-.21,.23-.42,.46-.61,.67-.87,.11-1.67,.29-2.48,.48-.83,.19-1.09,1.08-1.88,1.3-.27-.1-.55-.21-.82-.31-.6,.29-1.2,.51-1.72,.86-.39,.27-1.03-.15-1.24,.49-.48,.1-.89,.37-1.41,.38-.45,0-.94,.05-1.33,.24-1.12,.55-2.2-.3-3.29-.01-1.83,.48-3.7,.08-5.57,.27-.23-.28-.45-.55-.65-.79h-1.38c-.04-.15-.07-.26-.11-.41h-1.51c-.45-.22-.79-.83-1.42-.33-.11,.09-.47-.1-.71-.19-.28-.1-.55-.22-.84-.34-.02-.08-.05-.19-.09-.34h-2.08c-.56-.3-1-.73-1.42-.7-.55,.03-.65-.6-1.12-.53-.24-.82-.97-.97-1.64-1.21-.21-.08-.36-.3-.55-.47-.22,0-.46,0-.7,0-.15-.55-.7-.57-1.06-.82-.03-.12-.05-.23-.08-.38h-1.09c-.03-.15-.05-.25-.09-.45-.15-.01-.33-.03-.62-.05-.17-.03-.01-.39-.39-.51-.69-.21-1.18-.77-1.55-1.45-.3-.56-.63-1.18-1.11-1.56-.55-.43-.78-1.23-1.56-1.37-.37-.61-.73-1.22-1.11-1.82-.25-.39-.52-.75-.82-1.18,0-.56-.35-1.08-.72-1.53-.46-.57-1.06-1.04-.97-1.89-.61-.6-.61-1.52-1.13-2.17-.07-.08-.07-.21-.03-.1-.42-.48-.71-.8-1.01-1.13,.16-1.24-.51-2.18-1.12-3.07-.1-1.21-.15-2.38-.33-3.53-.07-.4-.25-.8-.21-1.22,.04-.45,.12-.9,.2-1.49-.52-.54-.34-1.45-.68-2.2-.05-.1-.05-.26,0-.35,.43-.78,.15-1.62,.24-2.42,.04-.37-.18-.81,.23-1.1,0-.7,.09-1.4-.36-2.15,.23-.12,.45-.23,.53-.27,.05-.25,.08-.32,.08-.4,0-.44-.02-.88,0-1.32,.06-.97,.13-1.94,.25-2.9,.04-.32,.27-.61,.46-1,0-.8-.01-1.72,0-2.64,0-.37-.17-.8,.23-1.1,.17-1.17,.34-2.34,.53-3.61Zm23.6-9.21c-.12,.12-.39,.36-.62,.63-.19,.23-.31,.66-.52,.71-.44,.1-.38,.55-.66,.69-.28,.13-.51,.27-.57,.59-.63-.06-.24,.55-.49,.74-.4,.3-.74,.76-1.19,.9-.76,.25-.9,1.1-1.57,1.37,.07,.48-.62,.57-.52,1.12,.05,.28-.15,.65-.34,.92-.49,.72-1.04,1.41-1.54,2.09-.05,.44,0,.84-.22,1.26-.23,.46-.37,1.01-.28,1.57,.05,.27-.05,.5-.21,.75-.25,.4-.33,.9-.51,1.35-.11,.28-.25,.54-.43,.9-.1,.71-.23,1.55-.35,2.42-.14,.11-.29,.23-.42,.33,0,1.69,0,3.33,0,4.97,0,.28,.1,.66-.04,.81-.36,.39,.01,.93-.25,1.22-.44,.47,.07,.78,.05,1.16-.02,.38,.1,.76-.12,1.15-.21,.36-.19,.79,.04,1.21,.19,.35,.25,.78,.33,1.18,.1,.48,.07,1.02,.27,1.45,.37,.79,.53,1.59,.45,2.45,.17,.18,.33,.35,.5,.52v1.35c.42,.54,.8,1.03,1.19,1.53v.81c.13,.09,.32,.23,.49,.34-.1,1.2,.71,2.11,.77,3.21,.12,.03,.22,.06,.33,.09,.14,.57,.26,1.15,1.04,1.17,.08,0,.19,.1,.24,.18,.29,.45,.76,.67,1.21,.88,.48,.22,.93,.54,1.13,.97,.21,.43,.69,.44,.87,.82,.89,.05,1.37,.77,2.04,1.25h2.8c.12,.17,.2,.33,.32,.45,.1,.1,.28,.13,.37,.24,.12,.14,.17,.32,.26,.49h4.48c.53-.27,.99-.51,1.46-.75,.66,.25,1.28,.44,1.99,.08,.31-.16,.86-.23,1.17,.16,.58-.26,1.16-.52,1.78-.8,.07-.7,.84-.91,1.28-1.39,.33-.37,.97-.47,1.47-.69,.12,.11,.21,.19,.3,.27,1.53-.92,4.76-3.7,5.25-4.52,.18-.02,.37-.04,.47-.05,.24-.33,.44-.6,.67-.91v-1.04c.24-.35,.43-.63,.62-.9,.19-.02,.38-.03,.42-.03,.31-.66,.54-1.21,.83-1.72,.27-.49,.64-.93,.92-1.42,.29-.51,.52-1.06,.81-1.65-.14-1.01,.19-1.99,.66-2.9,.26-.51,.54-.99,.53-1.58-.01-.89,.38-1.69,.67-2.48,.2-.53,.27-1.02,.29-1.56,.07-1.3-.23-2.63,.44-3.9,.19-.36,.11-.97-.05-1.39-.1-.27-.14-.51-.15-.77-.09-1.25-.16-2.49-.24-3.74,0-.08,.03-.2,0-.23-.46-.43-.01-1.07-.27-1.44-.37-.55-.13-1.08-.2-1.6-.05-.43-.01-.87-.01-1.18-.35-.75-.86-1.31-.71-2.05-.2-.19-.35-.33-.45-.43-.04-1.41-.39-2.68-1.25-3.74-.53-.65-.96-1.37-1.55-1.96-.12-.12-.17-.31-.25-.47h-.5c.1-.5-.7-.34-.58-.83-1.16-.48-2.04-1.52-3.3-1.61-.07-.2-.1-.31-.14-.41h-.5c-.15-.22-.24-.53-.45-.64-.24-.13-.43-.24-.49-.56h-1.24c-.18-.18-.33-.33-.47-.47-.9-.12-1.88,.25-2.68-.49-.09-.08-.31-.01-.47-.01h-1.18c-.26-.2-.51-.39-.89-.7h-.58c-.15,.15-.29,.29-.42,.42-.41,.14-.9-.17-1.16,.18-.76-.28-1.51-.08-2.14-.15-1.25,.64-2.47,1.09-3.76,1.26-.5,.84-.91,1.1-1.93,1.18-.02,.1-.04,.21-.07,.36-.64,.29-1.31,.6-2.25,1.03Z"/>
    </g>
  </g>
</svg>
