<?xml version="1.0" encoding="UTF-8"?>
<svg id="Ebene_1" data-name="Ebene 1" xmlns="http://www.w3.org/2000/svg" width="100" height="100" viewBox="0 0 100 100">
  <g id="small_j">
    <path d="M55.21,64.27c-.15,.14-.31,.3-.58,.55v2.72c-.8,.47-.77,1.13-.75,1.8-.15,.89-1.48,1.03-1.33,2.1-.52,.56-.95,1.41-1.58,1.61-.91,.29-1.41,.92-2.06,1.48h-1.29c-.25,.23-.49,.45-.72,.66h-.66c-.17-.17-.32-.32-.57-.57-1.07-.21-2.27,.03-3.45-.14-1.17-1.17-2.34-2.34-3.52-3.52-.14-.7,.14-1.56-.72-2.03v-1.31c-.23-.25-.45-.49-.68-.73v-3.29c-.23-.25-.45-.49-.66-.71v-1.02c.32-.63,.65-1.27,.97-1.92h.65c.25-.23,.49-.45,.71-.66h1.75c.75,.38,1.29,.67,1.86,.96v1.96c.23,.25,.45,.49,.68,.73,0,.43,0,.87,0,1.31,.16,.16,.31,.31,.61,.61,.02,.37,.06,.9,.09,1.42,.31,.31,.62,.62,.94,.94h2.02c.27-.29,.57-.62,.93-1v-3.82c.22-.25,.67-1.21,.7-1.44-.22-.23-.44-.47-.66-.71,.15-.15,.31-.31,.47-.47,.06-.19,.18-.39,.18-.58,.02-.99,0-1.98,0-2.92-.2-.2-.36-.36-.59-.59v-1.48c.16-.16,.32-.32,.53-.53v-6.66c-.11-.13-.31-.38-.57-.69v-1.3c.15-.17,.37-.42,.61-.69v-1.3c-.2-.21-.42-.45-.64-.69,0-1.1,0-2.2,0-3.3,.16-.16,.31-.31,.61-.61,.02-.37,.06-.9,.09-1.42,.55-.28,1.1-.56,1.84-.94h2.42c.23,.21,.47,.43,.72,.67h1.3c.11,.19,.3,.37,.3,.55,.02,1.97,.01,3.94,.01,5.74,.31,.31,.47,.47,.64,.64v2.66c-.19,.21-.42,.45-.64,.69v17.23Z"/>
    <path d="M48.58,27.15c.78-.79,1.55-1.57,2.32-2.34h1.33c2.32,1.69,2.19,1.79,3.04,2.94,.51,.69,.66,1.29,.59,2.05-.39,.39-.77,.78-1.16,1.16-.08,.3-.15,.59-.23,.89-.52,.33-1.24,.29-1.6,.9-.33,0-.66,0-.96,0-1.31-.52-2.49-1.19-3.32-2.4v-3.22Z"/>
  </g>
</svg>