<?xml version="1.0" encoding="UTF-8"?>
<svg id="Ebene_1" data-name="Ebene 1" xmlns="http://www.w3.org/2000/svg" width="100" height="100" viewBox="0 0 100 100">
  <g id="Ebene_1-2" data-name="Ebene 1-2">
    <g id="Head">
      <path d="M79.59,62.26h-.7c-.02,.1-.06,.2-.1,.38-.36,.05-.74,.04-1.13,.17-.34,.11-.67,.22-1.01,.37-.24,.1-.55,.06-.85,.08-.1,.3-.21,.61-.32,.91-.09,.02-.18,.04-.28,.06v.56c-.38,.41-.4,.96-.64,1.38-.25,.44-.54,.9-.69,1.35-.16,.49-.54,.8-.7,1.25-.17,.47-.39,.92-.58,1.34-.12,.03-.21,.06-.3,.08v.46c-.1,.03-.21,.06-.36,.1-.02,.49-.3,.88-.6,1.26-.22,.28-.38,.62-.58,.9-.21,.3-.45,.58-.67,.87-.21,.26-.36,.62-.62,.78-.32,.2-.26,.73-.72,.75-.06,.4-.39,.56-.67,.76-.26,.18-.42,.46-.7,.66-.38,.26-.58,.72-1,.98-.57,.36-1.07,.81-1.62,1.21-.27,.2-.55,.38-.9,.62h-.3c-.03,.07-.06,.16-.13,.34-.26,.1-.58,.22-.89,.34-.02,.09-.04,.18-.06,.26-.18,.02-.33,.03-.5,.06-.02,.09-.04,.18-.06,.26-.73,.45-1.54,.78-2.25,1.28-.43,.3-.94,.5-1.42,.73-.3,.14-.58,.32-.9,.37-.35,.06-.62,.19-.9,.39-.4,.3-.9,.18-1.36,.2-.04,.12-.08,.22-.14,.38-.71-.1-1.34,.2-2,.57h-1.09c-.14,.14-.28,.26-.41,.38-.4,0-.78-.02-1.16,0-.49,.04-.98-.11-1.48,.14-.43,.22-1-.14-1.43,.25-.62-.08-1.26,.18-1.85-.18-.05-.03-.12-.02-.18-.02-1.16-.08-2.31-.16-3.53-.24-.06-.06-.17-.18-.3-.31h-1.21c-.06-.14-.14-.33-.14-.34-.71-.13-1.22-.22-1.82-.32,0-.03-.04-.14-.08-.29h-.54v-.03s-.08,.02-.1,0c-.33-.5-.95-.51-1.42-.78-.94-.53-1.78-1.23-2.73-1.74-.27-.14-.7-.2-.79-.65-.02-.08-.34-.06-.49-.15-.1-.06-.14-.28-.24-.32-.55-.22-1.02-.57-1.39-.98-.59-.66-1.55-.95-1.92-1.85-.34-.05-.4-.46-.73-.54v-.38c-.68-.39-.95-1.1-1.36-1.71-.42-.62-.82-1.25-1.14-1.93-.12-.24-.26-.51-.46-.66-.34-.26-.3-.59-.3-.95-.1-.02-.19-.04-.3-.06-.1-.58-.83-.91-.63-1.63-.1-.03-.18-.06-.34-.12-.04-.64-.47-1.19-.72-1.82-.36-.95-.57-1.94-.91-2.89-.39-1.08-.33-2.14-.34-3.22-.02-1.41,.02-2.82-.02-4.22,0-.66,.1-1.27,.34-1.87,.16-.4,.02-.82,.19-1.26,.18-.42,.31-.9,.39-1.37,.08-.46,.25-.86,.38-1.29,.13-.44,.18-.88,.52-1.23,.09-.1,.07-.29,.1-.43,.02-.09,.54-1.01,.63-1.09,.02-.02,.06-.02,.08-.04,.24-.54,.47-1.08,.72-1.65,.07-.02,.18-.06,.3-.1v-.42c.78-.54,.9-1.69,1.89-2.07,.27-.62,.54-.9,1.33-1.32,.18-.45,.45-.88,.09-1.38-.08-.1-.03-.3-.04-.46v-4.13c0-.5,.3-.94,.2-1.46-.1-.5,.12-.95,.31-1.4,.02-.06,.06-.11,.06-.17-.1-.89,.26-1.66,.57-2.46,.06-.14,0-.32,0-.54,.12-.09,.27-.21,.38-.29v-.67c.1-.03,.22-.07,.33-.11,.02-.06,.06-.11,.06-.17-.04-.29,.02-.6,.21-.77,.33-.3,.3-.78,.72-1.06,.32-.22,.42-.76,.64-1.14,.06-.1,.26-.13,.35-.22,.28-.3,.56-.6,.96-.94,0-.45,.04-.98-.18-1.53-.18-.47-.38-.98-.37-1.46,.02-1.01-.18-1.99-.21-2.99-.03-.99-.06-1.98,.02-2.98,.05-.58,.25-1.17,.68-1.66,.1,0,.26-.02,.4-.03,.03-.12,.06-.21,.09-.33h.86c.02,.06,.06,.18,.1,.29,.37,.13,.85,.09,.98,.6,.79,.29,1.21,1.1,1.98,1.42,.27,.11,.21,.58,.6,.6,.17,.02,.34,.11,.62,.22v-1.58c0-.53,0-1.04,.18-1.56,.15-.46,.15-.96,.22-1.41,.21-.49,.7-.5,1.06-.7,.18,.28,.5,.12,.76,.18,.52,.53,1.01,1.1,1.5,1.66,.4,.44,.81,.95,1.38,1.2,.3,.14,.43,.46,.83,.53,.26,.04,.54,.36,.86,.45,.07,.46,.54,.37,.82,.56,.28,.2,.66,.26,.98,.41,.19,.09,.36,.22,.62,.37,.12,0,.34,.02,.54,.03,.03,.12,.06,.21,.08,.3,.06,.02,.11,.07,.16,.06,.54-.03,1.01,.14,1.48,.38,.29,.14,.62,.18,1.02,.3,.05,.05,.17,.17,.29,.29,.45,0,.92-.06,1.29,.33,.94,.17,1.82,.7,2.81,.62,.5-.04,.78,.51,1.28,.39,.2,.3,.52,.15,.78,.2,.11,.11,.22,.22,.38,.38,.65-.21,1.17,.28,1.77,.46,.59,.17,1.13,.53,1.82,.87h.41c.21,.42,.54,.61,1,.59,.14,.46,.63,.47,.98,.75,.2-.16,.49-.3,.63-.53,.18-.26,.47-.33,.66-.57,.17-.22,.42-.37,.71-.62h.22c.42-.33,.78-.66,1.19-.94,.37-.24,.78-.42,1.18-.62,.13-.62,.88-.29,1.09-.72,.62-.2,1.08,.17,1.61,.4,.12,.3,.26,.66,.46,1.18v.86c0,.34,.02,.66-.18,.98-.13,.19-.17,.45-.19,.68-.03,.25,0,.5,0,.74-.13,.13-.24,.24-.38,.38-.02,.51,.11,1.1-.38,1.54,.37,.29,.82-.02,1.25,.23,.32,.19,.78,.28,1.23,.27,.4,0,.84,.13,1.2,.32,.41,.22,.82,.22,1.22,.23,.11,.11,.19,.26,.3,.29,.78,.23,1.46,.66,2.16,1.05,.1,.06,.25,0,.43,0,.16,.19,.34,.41,.48,.58h.42c.14,.14,.24,.28,.37,.38,.53,.42,1.08,.84,1.24,1.56,.03,.17,.04,.35,.02,.52-.03,.24-.11,.46-.18,.73-.1,.09-.25,.21-.54,.45h-.68c-.04,.15-.06,.24-.1,.4-.32,0-.66-.02-1.01,0-.36,.03-.72,.1-1.07,.19-.32,.07-.62,.2-.94,.27-.33,.07-.67,.1-1.13,.17-.04,.06-.14,.21-.21,.3-.25,.02-.4,.03-.54,.04-.02,.1-.06,.17-.05,.21,.23,.58,.58,1.14,.66,1.73,.07,.48,.54,.72,.51,1.25-.02,.38,.26,.78,.4,1.16,.12,.34,.16,.72,.35,1,.23,.35,.13,.72,.19,1.07,.12,.12,.23,.23,.3,.3,.1,.43,.19,.82,.29,1.23,.12,.06,.28,.14,.42,.22,.16-.04,.32-.12,.49-.12,.45-.02,.9-.06,1.34,0,.38,.06,.72,.26,1.09,.37,1.06,.32,2.07,.74,2.98,1.36,.82,.56,1.58,1.23,2.03,2.14,.16,.32,.59,.47,.54,.91,.38,.21,.3,.64,.47,.96,.42,.79,.39,.81,.42,1.65,.31,.3,.38,.68,.38,1.1-.02,.42-.02,.83,0,1.25s-.06,.8-.39,1.1c.1,1.04-.26,1.94-.84,2.81-.18,.27-.32,.63-.5,.94-.46,.79-1.11,1.42-1.7,2.1-.38,0-.2,.61-.51,.55-.4-.06-.18,.41-.5,.43-.24,.02-.45,.28-.7,.39-.33,.15-.46,.53-.9,.58-.35,.04-.68,.35-1.02,.54-.18,.1-.36,.22-.63,.38v.04Zm-38.13,18.24c.57,0,1.1-.05,1.59,.18,.27,.13,.56,.18,.87,.22,.42,.05,.9,.05,1.25,.2,.66,.3,1.34,.06,2.01,.25,.65,.18,1.38,.08,2.08,.1,.22,0,.47,.06,.66-.02,1-.41,2.06-.46,3.12-.61,.1-.1,.22-.22,.34-.34h.88c.86-.54,1.7-.88,2.63-1.02,.04-.11,.08-.22,.11-.33h.6c.32-.35,.78-.44,1.17-.65,.35-.19,.85-.11,1.1-.61,.18-.35,.74-.31,1.11-.52,.37-.21,.66-.54,1.03-.7,.42-.18,.78-.39,1.01-.8h.26c.42-.43,.74-.86,1.14-1.17,.43-.33,.78-.7,1.13-1.11,.34-.4,.74-.73,1.16-1.12,0-.09,.02-.24,0-.18,.26-.33,.38-.5,.51-.67,.25-.31,.5-.62,.74-.94,.23-.31,.5-.62,.64-.98,.13-.34,.5-.52,.52-.93,0-.18,.21-.36,.32-.53,.17-.25,.47-.49,.5-.75,.06-.82,.62-1.36,.98-2,.29-.5,.62-.97,.99-1.55v-.7c.12-.03,.21-.06,.27-.07,.15-.46,.3-.91,.46-1.38-.16-.17-.33-.34-.5-.53-.87,.23-1.4-.58-2.15-.58-.05-.15-.08-.26-.1-.31-.21-.05-.4-.04-.5-.13-.57-.49-1.11-.99-1.51-1.65-.16-.26-.23-.49-.24-.77,0-.06-.05-.1-.07-.16-.06,0-.12,0-.2-.02-.29-.86-.86-1.66-.67-2.62-.17-.14-.29-.25-.39-.34v-2.71c.33-.3,.37-.69,.39-1.1,.02-.35,.04-.81,.25-1.03,.33-.35,.27-.9,.7-1.17-.1-.51,.48-.65,.62-1.07,.15-.46,.56-.9,.97-1.18,.22-.15,.29-.45,.62-.53,.26-.06,.45-.44,.69-.64,.23-.19,.57-.18,.78-.51,.12-.2,.52-.22,.77-.35,.11-.06,.16-.22,.26-.38,.18,0,.39,0,.38,0,.46-.22,.73-.35,1.06-.51-.03-.17-.02-.42-.12-.63-.4-.87-.37-1.87-.86-2.72,.07-.43-.29-.73-.36-1.1-.06-.37-.08-.79-.36-1-.4-.3-.1-.79-.42-1.09-.18-.17-.27-.46-.39-.7-.14-.26-.39-.55-.35-.79,.06-.42-.58-.21-.42-.59-.37-.26-.38-.78-.7-1.02-.33-.25-.45-.58-.66-.85,.42-.29,.89-.48,1.15-.82,.34-.42,.87-.18,1.24-.56,.27-.27,.83-.26,1.38-.41,.03-.05,.12-.18,.17-.25,.42-.02,.76-.04,1.15-.06-.3-.2-.52-.35-.79-.54h-.96c-.09-.11-.21-.26-.31-.39h-4.61c-.12-.1-.21-.19-.26-.23v-2.02c.12-.03,.21-.06,.32-.08,.1-.62-.08-1.26,.13-1.86-.07-.07-.14-.13-.21-.19-.05,.05-.09,.12-.14,.14-.14,.04-.3,.05-.34,.06-.29,.3-.52,.54-.75,.78-.26,.27-.52,.55-.76,.84-.24,.28-.46,.58-.72,.93-.28-.15-.6-.14-.85-.5-.16-.24-.62-.27-.9-.38-.04-.15-.06-.23-.09-.31-.18-.02-.33-.03-.47-.05-.03-.11-.05-.2-.08-.3-.8-.1-1.3-.79-2.06-1.03-.76-.24-1.49-.58-2.34-.93-.66,.14-1.29-.5-2.07-.48-.26,0-.57-.06-.77-.21-.41-.31-.86-.3-1.28-.3-.14-.14-.26-.26-.38-.38-.95,.14-1.66-.71-2.65-.59-.09-.15-.16-.3-.22-.4h-.62c-.14-.14-.25-.25-.36-.36h-.58c-.27-.19-.55-.38-.69-.47-.5-.12-.9-.12-1.18-.31-.41-.27-.9-.3-1.3-.62-.38-.3-.9-.44-1.36-.63-.38-.16-.66-.53-1.12-.54,.05-.54-.49-.18-.68-.45-.18-.24-.54-.35-.86-.54-.02-.06-.06-.18-.08-.24h-.59c.22,.9,.32,1.76,.26,2.63,0,.03-.02,.08,0,.1,.37,.34,.06,.81,.21,1.16,.18,.42,.18,.84,.18,1.27v1.15c0,.06-.05,.1-.07,.15h-.7c-.21-.3-.37-.66-.65-.88-.26-.2-.49-.45-.77-.64-.26-.18-.42-.5-.62-.77h-.33c-.73-.86-1.7-1.31-2.56-1.9-.1,.1-.16,.16-.25,.25-.18,1.8,.42,3.57,.36,5.37,0,.02,.03,.05,.05,.07,.12,.05,.25,.1,.54,.22-.26,.12-.38,.14-.45,.21-.1,.1-.19,.23-.22,.36-.06,.34-.41,.43-.57,.7-.16,.27-.35,.58-.7,.78-.25,.14-.54,.43-.56,.69-.04,.46-.57,.54-.59,.91-.02,.46-.53,.69-.48,1.15-.42,.28-.33,.82-.59,1.2-.14,.2-.37,.43-.29,.74,.09,.34-.1,.62-.23,.86-.11,.22-.15,.4-.15,.61v.9c-.28,.37-.39,.73-.39,1.14,.02,1.5,.02,3.01,0,4.51,0,.42,.06,.79,.39,1.09v1.82c-.16,.28-.26,.51-.42,.69-.17,.18-.16,.54-.52,.54,.1,.36-.33,.26-.42,.48-.1,.22-.34,.38-.56,.6v.26c-.94,.71-1.4,1.82-2.3,2.61,0,.03,.06,.22,0,.28-.34,.29-.38,.77-.67,1.06-.34,.35-.35,.82-.58,1.21-.55,.96-.75,2.06-1.04,3.12-.1,.38-.14,.78-.2,1.17-.06,.39-.06,.81-.21,1.16-.22,.52-.17,1.03-.18,1.56,0,.51-.03,1.02,0,1.54,.06,.71-.14,1.42,.17,2.14,.28,.65,.31,1.39,.58,2.06,.16,.42,.18,.89,.24,1.22,.21,.58,.55,.98,.6,1.5,.5,.3,.2,1.04,.71,1.34,.02,.54,.74,.76,.58,1.34,.18,.06,.28,.09,.38,.13v.41c.14,.14,.42,.08,.42,.4,0,.17,.12,.34,.15,.5,.04,.23,.49,.05,.39,.4,.34,.29,.37,.83,.68,1.04,.42,.27,.49,.72,.78,1.02,.33,.34,.77,.63,.98,1.04,.12,.23,.31,.23,.46,.42v.31c.52,.4,.86,.91,1.42,1.1,.22,.67,.94,.66,1.4,.99,.5,.36,1.08,.63,1.63,.91,.53,.26,1.15,.34,1.6,.78,1.04-.11,1.86,.74,2.9,.58,.13,.15,.22,.28,.3,.38h.02Zm37.67-34.18c-.51-.17-.82-.31-1.14-.36-.85-.14-1.67,.13-2.51,.18-.22,.32-.59,.1-.86,.24-.34,.18-.7,.34-1.02,.53-.44,.26-.87,.54-1.29,.83-.5,.35-.69,.99-1.26,1.28-.06,.03-.07,.15-.12,.22-.31,.48-.62,.96-.96,1.48,.08,.46-.06,.91-.41,1.34,.17,.93-.29,1.94,.41,2.85-.02,.37,0,.76,.19,1.13s.34,.76,.55,1.11c.21,.34,.52,.61,.73,.95,.22,.37,.76,.4,.89,.89,.21,0,.42,.02,.74,.04,.06,.1,.16,.26,.22,.36h2.11c.77,0,1.38-.37,2.04-.78h.5c.19-.19,.38-.38,.55-.55,.33-.09,.62-.23,.89-.4,.41-.25,.84-.48,1.21-.78,.26-.21,.42-.51,.62-.78,.08-.11,.13-.26,.22-.35,.25-.25,.63-.42,.68-.77,.06-.4,.4-.58,.52-.93,.25-.68,.52-1.31,.6-2.06,.1-.93,.18-.91-.04-1.67-.1-.34-.18-.7-.26-1.06-.09-.03-.2-.07-.31-.11v-.38c-.42-.52-.84-1.02-1.23-1.5h-.46c-.02-.1-.04-.18-.06-.3-.18-.06-.42-.06-.56-.19-.42-.41-.9-.51-1.22-.47l.02,.02Z" style="fill: #010101;"/>
      <path d="M44.71,34.57c2.22,.43,4.4,.24,6.62-.02,.43-.45,1.05-.3,1.7-.34,.06-.09,.14-.22,.19-.28,.97-.21,1.79-.51,2.58-.94,.54-.29,1.08-.53,1.51-.98,.39,.04,.54-.34,.83-.49,.3-.15,.54-.4,.82-.56,.31-.17,.64-.31,.98-.42,.39-.14,.79-.29,1.2-.34,.61-.07,1.07,.21,1.34,.76s.51,1.14,.78,1.7c.18,.38,.47,.72,.55,1.11,.08,.42,.31,.8,.24,1.26-.03,.18,.2,.42,.36,.7,.02,.45-.11,1.04,.39,1.47-.04,.65-.03,1.29,.33,1.87,.03,.05,.04,.11,.05,.18,.14,1.04,.34,4.49,.17,5.38-.11,.57-.1,1.19-.46,1.73-.15,.22-.1,.59-.14,.89-.1,.03-.19,.05-.31,.08v.62c-.25,.59-.59,1.01-.56,1.4,.05,.58-.55,.83-.49,1.35-.31,.18-.35,.52-.38,.79-.05,.38-.67,.36-.5,.83-.31,.14-.41,.45-.59,.7-.19,.27-.27,.62-.63,.81-.27,.14-.38,.57-.64,.75-.42,.3-.68,.71-.93,1.14h-.38c-.18,.34-.37,.67-.54,.98l.43,.43v1.94c-.74,1.08-1.8,1.71-3.21,1.9-.29,.28-.7,.33-1.14,.32-1.02-.02-2.05,0-3.07,0-.65,0-1.3,.06-1.94-.18-.66-.26-1.34-.21-2.06-.19-.1,.22-.21,.46-.33,.71-.1,.03-.21,.07-.32,.11v.35c-.51,.37-1.01,.73-1.39,1-.41,.18-.7,.3-1.13,.48h-2.43c-.38-.14-.7-.23-.99-.38-.3-.14-.54-.42-.84-.5-.34-.09-.38-.46-.7-.58-.27-.11-.58-.38-.62-.77-.36-.02-.37-.5-.72-.53v-.38s-.1-.1-.15-.1h-2.98c-.37,0-.77-.13-1.2-.38-.21,0-.43-.02-.66,0-.75,.07-1.44-.14-2.11-.46-.26-.13-.59-.12-.93-.18-.09-.09-.2-.2-.23-.23-.41-.11-.74-.16-1.04-.3-.27-.13-.52-.33-.74-.53-.23-.21-.42-.46-.7-.78v-1.7c.08-.02,.16-.04,.31-.08,.02-.14,.05-.31,.08-.48,.11-.11,.23-.22,.34-.34,.02-.75,.1-1.01,.47-1.62,.05-.07,.12-.17,.11-.24-.08-.5,.32-.83,.44-1.26,.05-.17,.13-.33,.23-.58,0,0,.12-.04,.26-.08v-.46c.14-.05,.25-.09,.39-.14v-.49c.25-.4,.47-.75,.73-1.17,.03,0,.14-.05,.25-.09v-.39c.42-.11,.45-.5,.65-.81,.86-.5,1.45-1.4,2.23-2.16,0-1.04-.02-2.16,.02-3.27,0-.33-.17-.58-.21-.88-.05-.36-.15-.71-.18-1.07-.03-.35,0-.7,0-1.06,0-.67,0-1.34,0-2.02,0-.34,.02-.66,.19-.98,.3-.58,.17-1.22,.2-1.85,.1-.02,.19-.04,.36-.07-.19-.86,.58-1.44,.64-2.25,.12-.03,.21-.05,.29-.07,.22-1.26,1.35-1.86,1.99-2.82h.68c.3,.29,.58,.64,.88,.96,.27,.29,.46,.69,.69,1.03,.34,.5,.74,.9,1.21,1.26,.15,.11,.22,.34,.37,.46,.13,.12,.38,.15,.44,.29,.16,.31,.47,.12,.66,.26,.02,.1,.05,.18,.07,.29,.46,.06,.81,.34,1.2,.56,.34,.18,.84,.1,1.12,.41l-.02-.02Zm12.23,19.7c.35-.27,.66-.43,.86-.67,.31-.37,.54-.8,.82-1.18,.25-.34,.61-.63,.78-1.01,.19-.43,.53-.74,.8-1.09,.26-.34,.5-.68,.63-1.08,.52-.1,.42-.66,.67-.97,.27-.34,.46-.82,.6-1.27,.26-.88,.5-1.78,.74-2.66,.18-.69,.42-1.42,.2-2.1-.15-.46-.14-.94-.32-1.4-.18-.47-.15-1.02-.22-1.54,0-.09-.04-.18-.08-.26-.25-.47-.33-.98-.31-1.5,0-.17-.14-.34-.15-.5-.09-.88-.66-1.58-.9-2.42-.14-.47-.38-.91-.58-1.38-.54,.42-1.03,.82-1.55,1.19-.57,.4-1.14,.78-1.74,1.14-.61,.37-1.36,.46-1.9,.97-.7-.08-1.22,.47-1.87,.58-.29,.05-.55,.21-.98,.38h-1.44c-.07,.1-.18,.26-.27,.38h-4.45c-.7-.63-1.57-.26-2.33-.41l-.34-.34c-.82,.05-1.49-.43-2.2-.71-.34-.13-.6-.5-.98-.64-.65-.25-.99-.91-1.62-1.17-.06-.02-.04-.19-.1-.24-.43-.34-.85-.69-1.23-1.14-.04,.78-.81,1.26-.68,2.05-.13,.14-.26,.27-.38,.4-.02,.5,.04,.98-.17,1.47-.13,.3,0,.7-.02,1.05-.14,1.74,.29,3.45,.19,5.15,.14,.14,.26,.26,.32,.32,.07,.36,.06,.7,.21,.95,.22,.4,.28,.8,.24,1.24-.3,.36-.66,.68-.86,1.09-.21,.42-.62,.56-.9,.84-.32,.3-.46,.79-.91,.96v.4c-.71,.16-.88,.88-1.32,1.33,0,0,.04,.04,.06,.06h.46c.05-.14,.09-.25,.13-.36,.21,0,.46,.07,.58-.02,.7-.46,1.51-.54,2.27-.78,.23-.07,.45-.17,.7-.17h3.94c.18,0,.36,.06,.53,.11,.5,.18,1,.37,1.49,.54,.04,.1,.08,.21,.12,.3h.42c.05,.12,.1,.23,.14,.35h.62c.14-.14,.25-.25,.32-.31,1.18-.22,2.26-.65,3.45-.64,1.18,0,2.25,.46,3.38,.66,.04,.11,.07,.22,.11,.33h.93c.12,.15,.29,.38,.43,.57,.18,0,.3,.02,.42,.02,.05,.14,.09,.25,.13,.36h.31c.75,.54,1.46,1.02,2.12,1.56,.26,.22,.57,.38,.76,.66,.07,.1,0,.3,0,.55h-.03Zm-13.11,1.45c.73,.37,1.29,.81,1.9,.93,1.42,.27,2.7,1.11,4.25,.98,.1,.12,.21,.27,.34,.42,.84-.14,1.63,.1,2.43,.14,1.18,.05,2.38,.14,3.58-.23v-.58c-.17-.26-.32-.48-.46-.71-.53,.12-.05-.57-.5-.61-.18-.02-.35-.37-.5-.59-.16-.26-.49-.3-.65-.58-.13-.22-.38-.42-.62-.48-.36-.1-.47-.34-.54-.51-.86-.5-1.62-.95-2.5-1.46h-.49c-.09-.12-.21-.26-.24-.3-.45-.11-.77-.26-1.09-.26-1.38,0-2.78-.14-4.12,.46-.51,.23-1.17,.25-1.72-.04-.92-.47-1.94-.43-2.9-.64-.52-.11-.96,.2-1.46,.2-.68,0-.96,.1-1.8,.52-.08,.04-.18,.06-.26,.05-.23-.02-.39,.07-.59,.21-.51,.35-1.08,.63-1.62,.95-.29,.17-.54,.38-.82,.55-.42,.26-.74,.64-1.09,.99-.18,.18-.54,.06-.6,.46-.03,.19-.42,.32-.63,.48-.04,.02-.05,.09-.06,.09,.07,.17,.13,.3,.17,.39,.38,.16,.74,.31,1.08,.45,.81,.14,1.6,.28,2.42,.24,.16,0,.38,.22,.49,.17,.89-.38,1.81-.07,2.71-.18,.54-.06,1.14-.03,1.63-.23,.48-.2,.98-.26,1.45-.44s.9-.45,1.43-.5c.13,0,.24-.28,.3-.36h1.08Zm1.78,4.34c-.36-.44-.78-.72-1.31-.71-.03-.16-.05-.24-.07-.34h-1.23c-.05,.13-.09,.24-.14,.35-.22,0-.44,.02-.62,.03l-.37,.37c-.45-.02-.91-.05-1.25,.36,.61,.62,.74,.7,1.33,.9,.03,.1,.06,.18,.08,.26h1.95c.13-.12,.26-.25,.4-.38h.28c.34-.3,.62-.55,.94-.85h0Z" style="fill: #010101;"/>
      <path d="M76.84,54.13c-.11,.15-.26,.34-.46,.61h-.74c-.14-.21-.3-.43-.48-.7,0-.45-.02-.96,0-1.46,.03-.46-.1-.84-.41-1.18-.22,.06-.43,.1-.7,.17-.46,.46-.95,.95-1.46,1.46h-.64c-.08-.11-.21-.3-.42-.58v-.66s.06,.02,.08,.02c.12-.4,.24-.79,.36-1.22,.07-.03,.27-.07,.27-.12,0-.31,.26-.42,.42-.59,.16-.17,.51-.26,.54-.43,.06-.46,.41-.16,.59-.3,.56-.4,1.23-.57,1.88-.78,.22-.07,.42-.1,.62-.11,.58,0,1.15,.02,1.73,0,.7-.04,1.24,.25,1.74,.68,.3,.26,.6,.5,.93,.78,.09,.78,.58,1.63-.24,2.37h-1.06c0-.17-.02-.32-.02-.42-.65-.58-1.41-.81-2.3-.92v.78c0,.45,.03,.9,0,1.34-.04,.42-.15,.83-.25,1.29h.02Z" style="fill: #010101;"/>
      <path d="M50.83,47.24c-.32,.13-.7,.28-1.1,.44-.41-.06-.7-.47-1.15-.42-.05-.26-.32-.32-.43-.48-.16-.22-.25-.58-.2-.86,.16-.88,.31-1.79,1.37-2.1,.08-.02,.15-.1,.25-.17h.82c.02,.1,.04,.19,.07,.34,.12,0,.27,.02,.42,.02,.45,.43,.56,1.04,.67,1.6,.11,.58-.25,1.09-.71,1.61h0Z" style="fill: #010101;"/>
      <path d="M44.25,44.48c.06,.99,.11,1.97-1.15,2.42-.7,0-1.56,.17-2.04-.62-.1-.42-.23-.77-.23-1.12s.14-.7,.22-1.02c.14-.12,.27-.25,.52-.47,1.86-.51,1.76-.23,2.68,.82h0Z" style="fill: #010101;"/>
    </g>
  </g>
</svg>