<?xml version="1.0" encoding="UTF-8"?>
<svg id="Ebene_1" data-name="Ebene 1" xmlns="http://www.w3.org/2000/svg" width="100" height="100" viewBox="0 0 100 100">
  <g id="Joscco_1">
    <g id="Joscco_1-2" data-name="Joscco 1">
      <path d="M23.36,43.71v-3.06c.14-.1,.31-.22,.53-.38,.03-.34,.3-.71,.26-1.16-.04-.46,.21-.87,.38-1.28,.16-.38,.17-.81,.34-1.2,.12-.26,.02-.63,.12-.91,.34-.75,.67-1.51,1.01-2.27,.05,0,.11,0,.22-.02v-.88c.38-.35,.75-.58,.95-.91,.46-.76,.84-1.57,1.23-2.37,.1-.21,.14-.46,.28-.9,.1-.09,.34-.34,.61-.55,.23-.19,.47-.43,.75-.51,.36-.1,.26-.59,.7-.63,.19-.02,.34-.38,.52-.59,.2-.24,.55-.28,.65-.68,.06-.27,.49-.38,.52-.73,.79-.47,1.68-.75,2.29-1.48,.04-.05,.08-.14,.1-.14,.51,.17,.67-.6,1.06-.43,.3-.26,.58-.43,.75-.67,.17-.25,.38-.45,.61-.62,.26-.2,.58-.31,.83-.55,.24-.22,.55-.38,.89-.62h.31c.04-.1,.07-.22,.13-.36h1.8c.05-.14,.09-.25,.14-.38h1.08c.31-.22,.59-.4,.89-.61,.47,.07,.99-.14,1.44,.21,.34-.16,.69-.33,1.2-.57h1c.1-.13,.21-.28,.33-.45,.87,.22,1.64-.14,2.45-.14s1.67-.02,2.5,0c.53,0,1.03,.13,1.41,.55,.47,.12,1-.14,1.46,.23,.37-.31,.82-.18,1.27-.21,.1,.11,.21,.22,.33,.36,.97,0,1.81,.38,2.59,.99h.95c.04,.1,.08,.22,.13,.36,.14,.02,.29,.02,.47,.04,.02,.08,.05,.16,.09,.31,.28,.1,.6,.23,.93,.36,.04,.51,.55,.22,.78,.45,.24,.24,.6,.35,.95,.54,0,.03,.02,.12,.05,.24h.84c.16,.21,.29,.41,.44,.58,.31,.35,.71,.53,1.19,.59,.42,.06,.74,.2,.99,.65,.27,.49,.61,1.03,1.02,1.39,.38,.34,.62,.83,1.15,1.08,.43,.2,.67,.79,1.06,1.28v.29c.13,.06,.34,.1,.37,.19,.2,.66,.79,1,1.16,1.52,.22,.3,.51,.53,.69,.87,.17,.31,.58,.49,.53,.94,.58,.1,.29,.72,.6,.99,.38,.32,.38,.8,.53,1.23,.14,.39,.34,.76,.38,1.19,0,.11,.06,.24,.12,.33,.49,.67,.81,1.4,.85,2.25,0,.25,.22,.48,.37,.8v.67c.11,.11,.22,.22,.34,.33,.02,.03,.05,.06,.05,.08,.08,.77,.15,1.54,.23,2.32,.11,.11,.22,.22,.34,.34v3.26c.14,.14,.26,.27,.39,.42v1.28c.14,.26,.26,.47,.38,.67-.15,.48-.42,.93-.39,1.48,.03,.54,0,1.07,0,1.6-.14,.04-.23,.06-.31,.08-.02,.06-.06,.11-.06,.16,0,.8-.02,1.6,0,2.41,0,.33-.14,.7,.18,.99,.06,.06,.06,.28,0,.36-.48,.67,.11,1.48-.34,2.15,.37,.72,.03,1.5,.18,2.23-.22,.25-.46,.43-.44,.81,0,.18-.28,.38-.51,.67-.12,.91-.44,1.9-.8,2.89-.19,.53-.41,1.06-.62,1.57-.15,.37-.08,.73-.19,1.08-.1,.02-.18,.04-.31,.07v.77c-.61,.61-.55,1.6-1.38,1.98v.3c-.34,.3-.65,.56-.95,.82v.57c-1.43,.88-2,2.54-3.29,3.54v.43c-.14,0-.3,.02-.45,.03-.1,.12-.18,.26-.3,.38-.25,.23-.58,.41-.77,.68-.72,1.05-.95,1.17-2.08,1.69-.41,.19-.83,.39-1.09,.85-.22,.38-.62,.65-.99,1.02-1-.18-1.9,.3-2.81,.71-.41,.19-.81,.27-1.07,.26-.87,.34-1.59,.62-2.48,.95h-.87c-.25,0-.47,.04-.71,.15-.18,.09-.44,.2-.67,.22-.38,.04-.77,0-1.15,0-.34,.18-.69,.36-1.11,.58-.39,0-.87,.03-1.35,0-.43-.04-.83-.15-1.35-.26-.06-.06-.2-.19-.34-.32h-3.06c-.12-.12-.23-.23-.36-.36h-1.96c-.09-.14-.18-.3-.24-.39h-1.07c-.26-.17-.51-.34-.84-.56h-1.03c-.79-.38-1.39-.84-2.03-.94-.66-.1-1.11-.48-1.61-.78-.3-.18-.57-.21-.89-.24-.02-.08-.06-.16-.09-.26-.59-.18-1.05-.56-1.45-1.07h-.36c-.36-.43-.83-.76-1.23-1.15-.1-.1-.26-.14-.4-.19-.09-.02-.19,0-.37,0-.36-.47-.75-.98-1.17-1.54,.03,0-.03,0-.12,0-.03-.1-.07-.22-.12-.36h-.86c-.04-.2-.04-.39-.12-.55-.06-.14-.3-.23-.3-.34,0-.53-.67-.74-.61-1.3,0-.06-.28-.11-.34-.22-.34-.56-.75-1.11-.92-1.72-.12-.4-.32-.74-.54-1.03-.38-.51-.51-1.03-.49-1.63-.23-.4-.62-.68-.84-1.08-.27-.48-.02-.99-.14-1.52-.06-.02-.14-.05-.28-.09-.41-1.13-1.02-2.25-1.07-3.55-.31-.29-.42-.67-.36-1.08,.1-.79-.16-1.55-.23-2.41-.09-.07-.24-.18-.35-.27v-1.12c0-.34,0-.67-.18-.99-.1-.18-.17-.38-.19-.59-.03-.25,.02-.51-.02-.77-.07-.62,.2-1.26-.18-1.85-.04-.06-.04-.22,0-.28,.39-.62,.15-1.3,.17-1.94,.02-.63,.16-1.27-.1-1.88,.3-.64-.06-1.36,.28-2.03,.26-.52,.19-1.19,.6-1.74l.02,.02Zm18.4,25.73c.73,.09,1.44,.17,2.07,.24,.45,.24,.84,.46,1.33,.72h1.23c.29,.18,.59,.34,.91,.36,.63,.03,1.21,.14,1.66,.66,.34-.15,.64-.29,.95-.43,1.14-.09,2.29-.18,3.46-.26,.02-.08,.03-.17,.05-.25,.36-.14,.71-.28,1.25-.48h1.47c.43-.34,.83-.64,1.27-.99h1.08c.14-.16,.21-.28,.32-.35,.38-.24,.86-.38,1.11-.71,.3-.38,.67-.58,1.05-.75,.26-.12,.47-.22,.67-.45,.22-.26,.62-.38,.76-.67,.3-.59,.79-1.01,1.16-1.52,.52-.71,1.04-1.43,1.6-2.2v-.56c.38-.74,.75-1.28,.91-1.87,.1-.36,.6-.53,.42-.99,.29-.55,.17-1.16,.19-1.74l.39-.39c-.1-1.08,.06-2.2,.18-3.32,.02-.14,.09-.29,.1-.43,.04-.53,.06-1.07,.09-1.6,0-.02-.03-.05-.09-.13-.07-.06-.19-.18-.23-.22-.1-.54-.21-.99-.25-1.44-.04-.51,.09-1.05-.04-1.53-.11-.43-.1-.85-.18-1.28-.07-.42-.14-.84-.23-1.25-.14-.63-.34-1.23-.33-1.88v-1.02c-.43-.79-.79-1.51-1.35-2.08v-.76s-.06,.02-.09,.03c-.2-.59-.39-1.18-.61-1.84,0,0-.09-.02-.18-.04-.46-1.43-1.16-2.73-2.02-4.04v-.45c-.63-.43-1.23-.83-1.81-1.27-.52-.4-.98-.88-1.49-1.28-.5-.38-1.16-.5-1.61-1.01-.13-.15-.44-.15-.67-.2-.42-.09-.91-.03-1.23-.26-.4-.28-.83-.47-1.26-.71-.13,.06-.27,.19-.4,.18-1.2-.12-2.38,.22-3.58,.2-.29,0-.58,.02-.87,0-.45-.02-.86,.03-1.2,.38h-2.15c-.17,.19-.35,.41-.51,.59h-.83c-.27,.24-.53,.47-.85,.75-.75,.16-1.66,.18-2.28,.97-.2,.26-.64,.38-.75,.67-.13,.32-.56,.33-.54,.71h-.99c-.38,.41-.87,.75-.85,1.44-.4,.21-.5,.76-.98,.98-.48,.22-.4,.94-.95,1.12-.02,.3,.04,.6-.26,.87-.29,.26-.62,.6-.68,.95-.12,.66-.57,1.01-1,1.48v1.76c-.43,.09-.5,.42-.57,.73-.05,.21,.03,.49-.08,.63-.4,.53-.22,1.14-.34,1.7-.06,.28,.32,.43,.08,.74-.14,.18-.06,.55-.07,.81-.13,.05-.24,.09-.29,.1-.26,.76-.31,1.51-.26,2.26,.02,.36,.15,.71,.18,1.07,.03,.42,0,.83,0,1.25v2.45c.59,.12,.52,.57,.61,.93,.1,.4,.27,.79,.34,1.2,.06,.39,.05,.78,.16,1.18,.1,.36-.13,.83-.18,1.13,.24,.35,.43,.59,.58,.86,.15,.26,.28,.53,.41,.79,.14,.26,.27,.53,.38,.8,.2,.5,.42,.99,.55,1.5,.07,.27,.18,.42,.38,.62,.24,.25,.61,.48,.63,.96,.04,.83,.57,1.47,1.11,2.02,.26,.27,.5,.57,.78,.83,.29,.27,.52,.61,.79,.9,.36,.38,.68,.87,1.12,1.1,.49,.25,.86,.59,1.29,1h.02Z" style="fill: #010101;"/>
    </g>
  </g>
</svg>