<?xml version="1.0" encoding="UTF-8"?>
<svg id="Ebene_1" data-name="Ebene 1" xmlns="http://www.w3.org/2000/svg" width="100" height="100" viewBox="0 0 100 100">
  <g id="Ebene_1-2" data-name="Ebene 1-2">
    <g id="Joscco_5" data-name="Joscco 5">
      <path d="M23.71,39.38c.19-.23,.4-.47,.68-.81v-.92c.23-.44,.54-.76,.56-1.11,.03-.46,.57-.65,.46-1.13,.3-.17,.33-.5,.39-.77,.12-.66,.45-1.26,.51-1.95,.04-.54,.44-.94,.76-1.35,.17-.22,.39-.4,.55-.56,.32-.1,.59-.19,.86-.28,.28-.65,.78-1.21,1.31-1.72,.37-.35,.78-.66,1.03-1.15,.16-.33,.54-.54,.9-.86v-.27c.1-.03,.21-.07,.31-.1,.05-.11,.09-.21,.15-.35h.85c.41-.37,.74-.65,1.07-.93h.38c.02-.09,.02-.24,.05-.25,.37-.07,.37-.51,.64-.65,.3-.16,.63-.28,.94-.41,.44-.61,.76-1.34,1.58-1.55,.48-.12,.97-.22,1.46-.3,.24-.04,.49,0,.69,0,.1-.16,.16-.33,.26-.37,.44-.16,.85-.38,1.34-.4,.4-.02,.81-.15,1.24-.23,.09-.44,.64-.37,.9-.67,.81-.12,1.74,.27,2.43-.57,.37,.03,.79-.14,1.17,.16,.67-.36,1.39-.08,2.08-.16,.4-.05,.78,0,1.12,.23,.3,.21,.57,.17,.9-.03,.5-.3,.68-.24,1.44-.06,.52,.12,1.06,.2,1.59,.23,.54,.02,1.07,.05,1.56,.3,.13,.07,.37,.09,.49,0,.35-.22,.77-.19,1.07-.08,.62,.24,1.25,.37,1.87,.33,.14,.14,.25,.25,.31,.31,.43,.08,.81,.16,1.03,.19,.32,.33,.5,.64,.76,.79,.9,.53,1.91,.65,2.96,.56,.04,.12,.08,.23,.12,.38,.13,0,.27,.02,.42,.02,.15,.33,.5,.47,.67,.75,.19,.3,.58,0,.74,.37,.1,.23,.4,.47,.65,.52,.33,.06,.27,.45,.62,.52,.25,.05,.44,.4,.66,.62h.56c.04,.26,.3,.31,.44,.47,.49,.56,1.21,.88,1.58,1.55,.05,.1,.17,.19,.27,.23,.34,.12,.47,.4,.65,.68,.31,.46,.62,.92,.9,1.4,.12,.22,.31,.46,.53,.6,.23,.14,.34,.37,.53,.49,.43,.26,.4,.83,.79,1.09-.1,.64,.41,1.03,.67,1.49,.17,.31,.26,.58,.27,.93,.1,.02,.19,.04,.28,.06,.19,.49,.38,1,.59,1.51,.22,.51,.52,.99,.45,1.6-.02,.22,.19,.47,.34,.78,.06,.47,.16,1.04,.19,1.6,.03,.56-.07,1.14,.03,1.67,.08,.41,.17,.91,.71,1.12,.05,.93,0,1.88-.32,2.81-.15,.44-.02,.98-.02,1.53,.09,.07,.2,.17,.33,.27v1.04c-.09,.09-.2,.2-.31,.31-.18,.87,.25,1.84-.4,2.67,0,.38,0,.78,.14,1.21,.1,.3-.05,.79-.25,1.08-.3,.45-.26,.91-.28,1.39-.02,.26,.11,.55-.15,.79-.06,.05-.08,.27-.02,.35,.45,.63,.02,1.05-.37,1.56v.67c-.41,.55-.44,1.15-.57,1.72-.13,.57-.49,1.09-.37,1.63-.19,.38-.36,.68-.57,1.11v.69c-.12,.02-.2,.05-.33,.07v.36c-.36,.43-.77,.76-.94,1.18-.2,.5-.63,.84-.8,1.35-.16,.46-.4,.89-.61,1.33-.15,.41-.81,.19-.88,.73-.51,.12-.34,.66-.63,1-.16,0-.37,.02-.47,.02-.26,.23-.47,.42-.72,.64v.58c-.45,.04-.42,.58-.86,.69-.27,.07-.4,.56-.67,.79-.28,.23-.64,.38-1.03,.59-.19,.22-.44,.51-.72,.83-.7-.14-1.2,.19-1.67,.68-.26,.27-.44,.68-.96,.65-.07,0-.36,.29-.43,.42-.26,.51-.62,.9-1.16,1.22h-1.05c-.16,.18-.33,.36-.47,.52-.68,.09-1.3,.23-1.93,.37-.65,.15-.85,.84-1.46,1.01-.21-.08-.43-.16-.64-.24-.47,.23-.93,.4-1.34,.67-.3,.21-.8-.12-.97,.38-.37,.08-.69,.29-1.1,.3-.35,0-.73,.04-1.04,.19-.87,.43-1.71-.23-2.56,0-1.42,.37-2.88,.06-4.34,.21-.18-.22-.35-.43-.51-.61h-1.07c-.03-.12-.05-.2-.09-.32h-1.18c-.35-.17-.61-.65-1.11-.26-.09,.07-.37-.08-.55-.15-.22-.08-.43-.17-.65-.26-.02-.06-.04-.15-.07-.26h-1.62c-.44-.23-.78-.57-1.11-.54-.43,.02-.51-.47-.87-.41-.19-.64-.76-.76-1.28-.94-.16-.06-.28-.23-.43-.37h-.54c-.12-.43-.54-.44-.83-.64-.02-.09-.04-.18-.06-.3h-.85c-.02-.12-.04-.19-.07-.35-.12,0-.26-.02-.48-.04-.13-.02,0-.3-.3-.4-.54-.16-.92-.6-1.21-1.13-.23-.44-.49-.92-.86-1.21-.43-.33-.61-.96-1.21-1.07-.29-.47-.57-.95-.86-1.42-.19-.3-.4-.58-.64-.92,0-.44-.27-.84-.56-1.19-.36-.44-.83-.81-.76-1.47-.47-.47-.47-1.18-.88-1.69-.05-.06-.05-.16-.02-.08-.33-.37-.55-.62-.79-.88,.12-.97-.4-1.7-.87-2.39-.08-.94-.12-1.85-.26-2.75-.05-.31-.19-.62-.16-.95,.03-.35,.09-.7,.16-1.16-.4-.42-.26-1.13-.53-1.71-.04-.08-.04-.2,0-.27,.33-.61,.12-1.26,.19-1.88,.03-.29-.14-.63,.18-.86,0-.54,.07-1.09-.28-1.67,.18-.09,.35-.18,.41-.21,.04-.19,.06-.25,.06-.31,0-.34-.02-.68,0-1.03,.05-.76,.1-1.51,.19-2.26,.03-.25,.21-.47,.36-.78,0-.62,0-1.34,0-2.05,0-.29-.13-.62,.18-.86,.13-.91,.26-1.82,.41-2.81l.02-.07Zm18.37-7.17c-.09,.09-.3,.28-.48,.49-.15,.18-.24,.51-.4,.55-.34,.08-.3,.43-.51,.54-.22,.1-.4,.21-.44,.46-.49-.05-.19,.43-.38,.58-.31,.23-.58,.59-.93,.7-.59,.19-.7,.86-1.22,1.07,.05,.37-.48,.44-.4,.87,.04,.22-.12,.51-.26,.72-.38,.56-.81,1.1-1.2,1.63-.04,.34,0,.65-.17,.98-.18,.36-.29,.79-.22,1.22,.04,.21-.04,.39-.16,.58-.19,.31-.26,.7-.4,1.05-.09,.22-.19,.42-.33,.7-.08,.55-.18,1.21-.27,1.88-.11,.09-.23,.18-.33,.26v3.87c0,.22,.08,.51-.03,.63-.28,.3,0,.72-.19,.95-.34,.37,.05,.61,.04,.9-.02,.3,.08,.59-.09,.9-.16,.28-.15,.61,.03,.94,.15,.27,.19,.61,.26,.92,.08,.37,.05,.79,.21,1.13,.29,.61,.41,1.24,.35,1.91,.13,.14,.26,.27,.39,.4v1.05c.33,.42,.62,.8,.93,1.19v.63c.1,.07,.25,.18,.38,.26-.08,.93,.55,1.64,.6,2.5,.09,.02,.17,.05,.26,.07,.11,.44,.2,.9,.81,.91,.06,0,.15,.08,.19,.14,.23,.35,.59,.52,.94,.68,.37,.17,.72,.42,.88,.76,.16,.33,.54,.34,.68,.64,.69,.04,1.07,.6,1.59,.97h2.18c.09,.13,.16,.26,.25,.35,.08,.08,.22,.1,.29,.19,.09,.11,.13,.25,.2,.38h3.49c.41-.21,.77-.4,1.14-.58,.51,.19,1,.34,1.55,.06,.24-.12,.67-.18,.91,.12,.45-.2,.9-.4,1.39-.62,.05-.54,.65-.71,1-1.08,.26-.29,.76-.37,1.14-.54,.09,.09,.16,.15,.23,.21,1.19-.72,3.71-2.88,4.09-3.52,.14-.02,.29-.03,.37-.04,.19-.26,.34-.47,.52-.71v-.81c.19-.27,.33-.49,.48-.7,.15-.02,.3-.02,.33-.02,.24-.51,.42-.94,.65-1.34,.21-.38,.5-.72,.72-1.11,.23-.4,.4-.83,.63-1.28-.11-.79,.15-1.55,.51-2.26,.2-.4,.42-.77,.41-1.23,0-.69,.3-1.32,.52-1.93,.16-.41,.21-.79,.23-1.21,.05-1.01-.18-2.05,.34-3.04,.15-.28,.09-.76-.04-1.08-.08-.21-.11-.4-.12-.6-.07-.97-.12-1.94-.19-2.91,0-.06,.02-.16,0-.18-.36-.33,0-.83-.21-1.12-.29-.43-.1-.84-.16-1.25-.04-.33,0-.68,0-.92-.27-.58-.67-1.02-.55-1.6-.16-.15-.27-.26-.35-.33-.03-1.1-.3-2.09-.97-2.91-.41-.51-.75-1.07-1.21-1.53-.09-.09-.13-.24-.19-.37h-.39c.08-.39-.54-.26-.45-.65-.9-.37-1.59-1.18-2.57-1.25-.05-.16-.08-.24-.11-.32h-.39c-.12-.17-.19-.41-.35-.5-.19-.1-.33-.19-.38-.44h-.97c-.14-.14-.26-.26-.37-.37-.7-.09-1.46,.19-2.09-.38-.07-.06-.24,0-.37,0h-.92c-.2-.16-.4-.3-.69-.54h-.45c-.12,.12-.23,.23-.33,.33-.32,.11-.7-.13-.9,.14-.59-.22-1.18-.06-1.67-.12-.97,.5-1.92,.85-2.93,.98-.39,.65-.71,.86-1.5,.92-.02,.08-.03,.16-.05,.28-.5,.23-1.02,.47-1.75,.8l-.02-.02Z" style="fill: #010101;"/>
    </g>
  </g>
</svg>