<?xml version="1.0" encoding="UTF-8"?>
<svg id="Ebene_1" data-name="Ebene 1" xmlns="http://www.w3.org/2000/svg" width="100" height="100" viewBox="0 0 100 100">
  <g id="Joscco_2">
    <g id="Joscco_2-2" data-name="Joscco 2">
      <path d="M70.97,69c.11,.54-.4,1.07-.93,1.52-.1,.32-.18,.57-.28,.85-.31,.18-.63,.36-1.13,.65,0,0-.08,.19-.23,.32-.14,.12-.36,.13-.4,.4-.02,.12-.36,0-.36,.32,0,.11-.32,.21-.52,.34v.65c-.37,.16-.73,.3-1.07,.46-.33,.15-.73,.17-.89,.65-.07,.23-.32,.53-.72,.5-.31-.02-.39,.47-.79,.4-.22-.04-.3,.33-.52,.48-.42,.29-.89,.6-1.17,1.08-.03,.05-.06,.11-.12,.13-.55,.21-1.1,.41-1.84,.69-.05,.06-.23,.29-.32,.4-1.32,.24-2.42,.66-3.4,1.38-.66-.36-1.33,.23-2-.02-.16,.15-.29,.28-.44,.41h-.88c-.3,.21-.55,.37-.82,.55h-.97c-.09,.13-.19,.3-.26,.41-.59-.06-1.07,.06-1.55-.18-.18-.1-.5,.14-.76,.16-.48,.03-.95,0-1.43,0-.52,0-1.05,.06-1.54-.19-.45,.27-.96,.17-1.44,.19-.44,.02-.86-.03-1.18-.39-1.36,.13-2.6-.3-3.9-.94h-.66c-.2-.23-.42-.38-.78-.42-.49-.05-.85-.48-1.38-.57-.48-.08-.9-.42-1.32-.71-.43-.29-.97-.35-1.43-.69-.39-.29-.62-.75-1.09-.94,.02-.26-.15-.45-.36-.46-.3-.02-.15-.3-.3-.39-.18-.1-.34-.25-.53-.32-.13-.06-.29-.06-.44-.08-.41-.32-.67-.82-1.21-1.01v-.36c-.47-.17-.48-.76-.94-.89v-.82c-.14-.16-.29-.32-.44-.48,.06-.1,.09-.19,.15-.24,.23-.17,.32-.38,.27-.63,.2-.15,.4-.29,.56-.45,.18-.19,.29-.54,.5-.6,.81-.24,1.28-.85,1.62-1.51,.29-.55,.77-.9,1.18-1.28,.44-.4,.81-.92,1.35-1.21,.4,.34,.9,.1,1.3,.18,.78,.58,1.52,1.14,2.21,1.66,.43,.1,.78,.02,1.15,.2,.23,.11,.1,.56,.48,.41,.41,.48,.94,.66,1.58,.55,.02,.12,.04,.21,.06,.27,.65,.28,1.29,.57,1.94,.83,.3,.12,.59,.26,.94,.26,1.49-.03,2.98-.02,4.47,0,.41,0,.78-.06,1.11-.39,.67,0,1.37,.02,2.06,0,.39-.02,.79-.07,1.15-.2,.27-.1,.58-.29,.72-.53,.25-.43,.66-.49,1.05-.67,.32-.16,.61-.04,.92-.13,.52-.9,1.62-.97,2.36-1.65v-.49c.23-.16,.45-.31,.73-.5h.44c.91-.55,1.02-1.8,2.06-2.19v-.41c.42-.17,.43-.76,.93-.9,.07-.79,.19-1.58,.21-2.38,.02-.67-.06-1.35-.1-1.83-.35-.48-.63-.78-.8-1.13-.43-.87-1.24-1.14-2.05-1.46-.19-.08-.36-.19-.54-.32-.29-.17-.66,.08-.96-.21-.1-.1-.39-.1-.54-.03-.47,.21-1.01,.1-1.47,.36-.25,.13-.57,.17-.86,.2-.31,.03-.63,0-.94,0l-.37,.37h-.82c-.02,.12-.04,.2-.06,.29-.47,.39-1.04,.27-1.56,.29-.61,.46-1.23,.83-2,.97-.38,.07-.78,.25-1.05,.66-.2,.29-.64,.4-1.02,.63h-4.66c-.4,.31-.79,.6-1.2,.91-.75-.36-1.74-.2-2.47-.88h-.84c-.31-.21-.59-.4-.86-.59h-1.34c-.43-.52-.94-.88-1.7-.75-.29-.32-.58-.66-.89-.97-.31-.31-.65-.59-1.01-.9-.48-.12-.89-.4-1.27-.82-.59-.65-1.04-1.43-1.65-1.93-.06-.25-.07-.41-.15-.52-.47-.62-.67-1.39-1.18-2-.16-.2-.14-.62-.24-.94-.2-.63-.5-1.24-.39-1.93,0-.06,.02-.14,0-.18-.54-.78-.36-1.66-.36-2.51-.02-1.55,0-3.11,0-4.66,0-.44,.04-.85,.39-1.21-.07-.68,.13-1.34,.37-2,.1-.28,.16-.58,.19-.87,.03-.31,0-.63,0-.89,.44-.67,.6-1.45,1.32-1.97v-.54c.19-.4,.31-.61,.4-.83,.22-.59,.51-1.13,.9-1.63,.38-.48,.86-.94,.82-1.66,0-.18,.13-.45,.27-.53,.62-.33,.86-.98,1.24-1.49,.58-.78,1.19-1.47,2.02-1.97,.25-.7,.94-1.07,1.23-1.76,.13-.32,.4-.6,.58-.87,.59-.03,1.24-.26,1.58-.56h1.07c.78-.5,1.57-.87,2.48-.99,.36-.05,.68-.32,1.11-.55,.39,.03,.88,0,1.25-.38h.89c.55-.29,1.05-.54,1.55-.79,.4,.13,.78,.44,1.2,.05,.1-.1,.36-.02,.55-.02h3.42c.29,.32,.67,.44,1.08,.37,.41-.06,.67,.23,1.22,.4,.13-.02,.48-.07,.83-.13,.33,.06,.69,.1,1.09,.17,.02,.06,.06,.17,.11,.32h1.21c.12,.19,.23,.37,.36,.57h.4c.49,.26,.88,.48,1.41,.76h.62c.3,.21,.55,.37,.86,.58h.67c.14,.17,.29,.34,.51,.6,0,0,.02,.15,.04,.33h.84c.05,.13,.09,.25,.13,.39h.81c.08,.23,.1,.53,.22,.59,.52,.25,.82,.78,1.41,.96,.38,.12,.71,.4,1.05,.61,.13,.27,.27,.53,.39,.77,.51,.2,.97,.37,1.5,.58,.35,.73,1.18,1.08,1.79,1.74v.82h.83c.21,.25,.38,.46,.66,.8v.89c-.07,.07-.19,.18-.3,.29-.13,.29,.02,.59-.22,.88-.28,.33-.36,.86-.67,1.13-.36,.29-.53,.78-1.04,.9v.58c-.13,.06-.28,.1-.37,.2-.32,.29-.6,.6-.99,.82-.23,.13-.38,.4-.54,.62-.23,.32-.45,.63-.86,.78-.2,.08-.55,.13-.55,.51,0,.02-.23,.03-.36,.05-.69-.71-1.66-1.06-2.27-1.85-.08-.1-.25-.15-.39-.21-.4-.15-.76-.35-1.06-.67-.11-.12-.32-.13-.59-.22-.23-.23-.55-.55-.86-.86h-.32c-.41-.31-.58-.75-1.03-1.01-.55-.31-1.01-.8-1.39-1.13-.88-.53-1.76-.78-2.39-1.47-.36-.03-.7,.04-1.06,.14-.3,.09-.69-.13-1.12-.22-.08-.06-.04-.28-.32-.36-.36-.12-.64-.45-.94-.71-.55-.48-1.17-.47-1.81-.29-.31,.09-.61,.23-.93,.28-.19,.02-.4-.09-.65-.15-.44,.22-.94,.47-1.51,.75-.13-.1-.29-.24-.47-.4h-.74c-.06,.06-.15,.11-.19,.19-.33,.67-.86,1.02-1.6,1.16-.29,.06-.57,.14-.87,.18-.4,.06-.94,.48-1.23,.95-.63,.98-1.48,1.81-1.9,2.92-.58,.32-.74,.94-1.06,1.44-.14,.21-.32,.36-.28,.66,.02,.1-.05,.25-.12,.32-.41,.4-.47,.9-.44,1.43,.02,.52,.06,1.05-.37,1.48-.02,.8,.13,1.65-.49,2.46,.19,.09,.36,.17,.55,.26-.28,.67,.27,.94,.44,1.39,.15,.41,.31,.82,.46,1.23,.51,.16,.67,.73,1.13,.93,.46,.21,.85,.6,1.38,.48,.39,.33,.76,.65,1.12,.95,.46,0,.87-.03,1.28,0,.38,.03,.76,.13,1.13,.21,.03,.12,.06,.21,.09,.32h1.19c.26-.3,.5-.67,.83-.9,.32-.23,.81-.24,1.13-.48,.41-.31,.85-.3,1.14-.3,.67-.22,1.01-.73,1.66-.78,.5-.05,.67-.78,1.22-.77,.03-.15,.05-.24,.08-.37,.22,.06,.42,.1,.67,.16,.58-.41,1.32-.31,2.04-.32,.12-.12,.23-.23,.37-.37h.57c.14-.14,.26-.26,.39-.39h1.12c.15,0,.33,.02,.45-.06,.74-.48,1.49-.37,2.27-.13,.37,.11,.75,.18,1.2,.29,.05,.05,.16,.16,.28,.28h1.13c.13,.13,.27,.26,.34,.32,.78,.1,1.47,.19,2.2,.28,.02,.07,.04,.16,.08,.32,.3,0,.63,.09,.81,.4,.3,.55,.85,.76,1.39,1.01,.19,.36,.4,.73,.73,.88,.29,.13,.17,.48,.48,.63,.24,.11,.63,.28,.71,.46,.16,.35,.5,.46,.73,.59,.25,.15,.38,.4,.64,.48,0,.22-.08,.5,.02,.59,.53,.52,.63,1.27,1.08,1.82,.02,.03,.12,.02,.17,.03,.1,.59,.18,1.2,.28,1.81,.1,.03,.21,.07,.35,.13v.78l.37,.37c.05,.66,.58,2.05,.96,2.48v.79l-.36,.36c0,1.1-.05,2.21,.02,3.31,.04,.67-.16,1.28-.24,1.92-.06,.5-.42,.96-.71,1.57,.12,.53-.25,1.13-.39,1.77-.13,.63-.83,.87-.91,1.81l-.05,.02Z" style="fill: #010101;"/>
    </g>
  </g>
</svg>