<?xml version="1.0" encoding="UTF-8"?>
<svg id="Ebene_1" data-name="Ebene 1" xmlns="http://www.w3.org/2000/svg" width="100" height="100" viewBox="0 0 100 100">
  <g id="del">
    <path d="M29.15,30.46c.22-.24,.43-.47,.64-.7-.17-.17-.33-.33-.48-.48,.68-2.28,2.16-4.02,3.92-5.52,.54-.46,1.34-.53,1.83-1.18,.46-.61,.99-1.37,1.64-1.58,.79-.26,1.25-.77,1.82-1.23,.48-.39,1.25-.29,1.6-.93h1.97c.17-.17,.32-.32,.48-.48,.2-.06,.39-.17,.59-.17,3.19-.01,6.39,0,9.47,0,.34,.27,.57,.58,.85,.64,1.72,.39,2.15,.74,3.61,1.71,.7,.46,1.53,.74,2.03,1.45,.52,.75,1.51,.73,2.09,1.39,.58,.66,1.24,1.26,1.86,1.88,.39,.39,.97,.72,1.12,1.19,.17,.53,.31,1,.75,1.35-.26,1.2,1.21,1.37,1.39,2.42,.15,.86,.84,1.62,1.26,2.44,.42,.82,.8,1.66,1.33,2.75v1c.23,.24,.45,.48,.68,.73v1.29c.17,.17,.33,.33,.6,.6v2.65c.27,.27,.43,.43,.65,.65v9.33c-.08,.11-.28,.36-.51,.65-.37,1.39,.42,3.02-.48,4.35-.49,.73,.23,1.87-.91,2.28v2.5c-.27,.47-.48,.82-.67,1.19-.23,.45-.7,.97-.61,1.37,.18,.9-.87,1.32-.68,2.05,.24,.9-.64,1.29-.75,2.04-.1,.66-.66,1.25-1,1.89-.14,.27-.23,.57-.45,1.1-1.44,.94-1.99,2.98-3.53,4.22-.68,.55-1.26,1.24-1.88,1.86-1.06-.09-1.33,1.1-2.09,1.33-1.1,.33-1.99,1.06-3.07,1.39-.29,.09-.52,.34-1,.68h-2.52l-.61,.61h-3.26c-.25,.23-.49,.45-.75,.68h-1.3c-.23-.21-.47-.43-.72-.66h-2.6c-.26-.24-.5-.45-.72-.65h-1.14c-.26-.19-.6-.42-.94-.66-.33,0-.66,0-.82,0-.77-.78-1.46-1.47-1.96-1.98h-1.03c-.56-.51-.55-1.33-1.17-1.85-1.03-.87-.97-.94-1.19-1.81-.62-.62-1.25-1.24-1.87-1.87-.3-.65,.06-1.43-.65-2.08-.44-.4,.1-1.51-.75-1.96-.02-.11-.04-.22-.04-.32,0-2.1,0-4.19,0-6.31,.78-.47,.54-1.6,1.33-2.08-.56-1.18,1.15-1.87,.58-2.99,.64-1.19,2.06-1.72,2.26-3.12,.93-.94,1.86-1.88,2.77-2.8h.76c.56-1.11,1.8-1.38,2.78-1.96,1.23-.73,2.57-1.27,4.12-2.01,2.1,0,4.53,0,6.95,0,.16,.16,.31,.31,.58,.58h2.39c1.05,.59,1.74,1.06,2.5,1.38,.46,.19,1.04-.11,1.52,.35,.35,.34,.92,.44,1.34,.73,.61,.42,1.19,.33,1.87,.05v-6.73c-.08-.1-.27-.35-.54-.69v-2.33c-.71-1.32-1.33-2.5-2.05-3.84v-1.78c-.81-.35-.48-1.39-1.16-1.85-.61-.41-1.05-1.02-.95-1.8h-.88c-.64-.64-1.16-1.57-1.91-1.81-.92-.29-1.37-.98-2.12-1.49h-4.55c-.25-.23-.48-.45-.78-.72-.9,.09-1.58,1.09-2.69,.71-.8,1.58-2.7,1.54-3.84,2.63-.89-.04-1.46,.5-1.64,1.24-.24,.96-1.12,1.29-1.59,1.99-1.36,.11-1.8,1.46-2.84,2.07h-1.24l-.58-.58c-.42-.04-.94-.09-1.45-.13-.29-.55-.57-1.1-.95-1.82v-2.41Zm29.26,31.56c-2.53-3.05-3.3-3.77-5.85-5.45h-2.4c-.91-.5-1.54-.85-2.29-1.26h-1.81c-.25,.23-.49,.45-.73,.68h-1.95c-.87,.87-1.73,1.73-2.59,2.59-.21,.02-.43,.03-.68,.05-.55,1.06-1.11,2.14-1.62,3.12v6.56c.53,.48,.96,.85,1.64,1.07,.65,.21,1.07,1.07,1.67,1.54,.48,.37,1.08,.58,1.81,.96h1.73c.25,.23,.48,.45,.72,.67h1.3c.25-.23,.49-.45,.73-.67,1.09,.51,1.72-.81,2.71-.65,.5,.08,.75-.4,1.11-.51,1-.29,1.7-.7,1.86-1.86,.05-.35,.58-.63,.9-.95h.65c.78-1.22,1.08-2.74,2.34-3.61v-1.3c.28-.36,.53-.69,.76-.99Z"/>
  </g>
</svg>