<?xml version="1.0" encoding="UTF-8"?>
<svg id="Ebene_1" data-name="Ebene 1" xmlns="http://www.w3.org/2000/svg" width="100" height="100" viewBox="0 0 100 100">
  <path d="M35.75,37.71c.01-.22,.03-.44,.04-.73,.27-.08,.56-.17,1.07-.33,.72-.42,1.15-1.57,2.28-1.88,.92-.25,1.27-1.48,2.38-1.45,.73-1.14,2.27-1.22,3.01-2.34,.61-.94,1.86-.95,2.58-1.84,.57-.7,1.05-1.75,2.26-1.68,.62-.62,1.25-1.25,1.92-1.92h1.17c1.3-.74,1.88-2.13,3.26-2.74,1.2-.53,2.1-1.71,3.86-2,.43-.54,1.04-1.31,1.57-1.97,1.04,.19,1.62-.3,2.3-.57,.56-.22,1.28-.05,1.87-.05,.2,.49,.26,.99,.54,1.23,1.24,1.07,2.02,2.4,2.57,3.92,.1,.28,.36,.49,.49,.67-.09,.87-.78,1.15-1.18,1.64-.35,.42-.77,.79-1.14,1.17h-.68c-.61,.42-.9,1.15-1.76,1.39-.65,.18-1.25,.86-1.69,1.45-.44,.59-1.22,.33-1.65,.9-.45,.6-1.06,1.09-1.53,1.57h-1.17c-.85,.94-1.73,1.91-2.41,2.66h-1.08c-.89,1.12-2.16,1.62-3.51,2.15-.05,.26-.12,.56-.2,.96-.22,.07-.51,.16-1.05,.33-.83,.83-1.69,2.1-2.89,2.78-1.16,.66-2,1.58-2.97,2.39-.8-.13-1.11,.56-1.59,.96,.56,.99,1.62,1.3,2.56,1.64,.58,.21,1.3,.03,1.7,.7,.64-.15,1.01,.64,1.37,.61,.78-.06,1.03,.7,1.71,.78,.45,.05,.81,.66,1.25,.94,.61,.37,1.27,.67,1.9,1,.37,.19,.73,.37,1.29,.66h1.76c.35,.42,.78,.61,1.34,.75,.46,.11,.79,.72,1.27,1.2,.34,.02,.76,.04,1.47,.08,.2,.39,.51,.99,.66,1.27h1.83c.48,.46,.95,.91,1.43,1.37h1.15c1.24,.85,2.71,.8,3.79,1.65,.98,.77,2.42,.75,3.21,1.99,.04,.51,.29,1.09-.25,1.71-.46,.52-.96,1.27-.92,1.89,.05,.88-.55,1.35-.76,2.04-.2,.68-.61,1.29-.93,1.95h-2.01c-.2-.19-.44-.41-.69-.64h-1.64c-1.1-.53-1.9-1.15-2.77-1.27-.99-.14-1.64-.85-2.48-1.06-.08-.33-.15-.63-.24-1.03-.33,.27-.55,.47-.8,.68-.45-.42-.91-.86-1.39-1.31h-1.29l-1.23-1.23c-.97,.18-1.84-.35-2.6-.79-1.16-.68-2.36-1.3-3.54-1.87-1.19-.58-2.4-1.14-3.55-1.79-.56-.31-1.05-.13-1.87-.43-.19-.25-.6-.76-.91-1.16h-1.61c-.44-1.08-1.66-1.19-2.48-1.85-.28-.23-.83-.13-1.43-.19-.64-.22-.86-1.42-1.93-1.27-.49-.78-1.59-.58-2.1-1.33-2.46-.62-3.88-2.35-4.92-4.57,.26-.52,.53-1.06,1.03-2.08,.17-.15,.74-.67,1.41-1.26,.05,0,.26-.03,.48-.05,.67-.41,.62-1.25,1.14-1.82,.63-.67,1.63-.63,2.1-1.37,.44-.7,1.35-.57,1.81-1.17Z"/>
  <path d="M66.49,73.23h1.42c.52,.54,1.05,1.1,1.7,1.78,.45,.76-1.19,.99-.72,1.88-.85,1.18-1.43,2.49-2.01,3.81-.2,.46-.66,.82-.89,1.1-.86,.31-1.05-.47-1.56-.6-.33,0-.66,0-1.3,0-.24-.37-.61-.91-.87-1.3h-1.59c-.25-.23-.49-.45-.74-.68h-1.37c-.53-1.14-1.87-1.24-2.74-1.99h-1.67c-.1-.04-.23-.04-.28-.11-.98-1.36-2.71-1.54-3.96-2.56h-1.91c-.63-.43-.88-1.24-1.8-1.36-.56-.07-1-.6-1.71-.67-1.11-.1-1.94-1.08-3.09-1.33-.45-.1-.78-.74-1.2-1.16-1.06,.03-2.04-.41-2.88-.94-.88-.55-2.05-.75-2.48-1.83-.41,0-.74,0-1.07,0-1.99-.95-4.04-1.82-5.31-3.8-.26-1.11,.94-1.91,.62-3.22,.44-.33,.97-.73,1.36-1.03v-1.64c.27-.08,.57-.13,.84-.27,.28-.14,.52-.36,.79-.56,.67,.37,1.37,.77,2.21,1.24h1.14c1.47,1.4,1.55,1.35,3.48,2.01,1.66,.57,3.28,1.31,4.54,2.63,.34,0,.67,0,1,0,.66,.28,1.23,.86,2.04,.66,.1,.03,.22,.03,.29,.1,.17,.14,.32,.3,.47,.46,1.15,1.28,3.17,1.23,4.08,2.78h1.93c.58,.48,1.03,1.11,1.59,1.24,.72,.17,1.15,1.01,2.04,.74,.67-.21,.94,.93,1.71,.64,.77-.29,1.09,.54,1.7,.7,1.27,.35,2.27,1.48,3.73,1.38,.75,.75,2.02,.8,2.47,1.88Z"/>
</svg>