<?xml version="1.0" encoding="UTF-8"?>
<svg id="Ebene_2" data-name="Ebene 2" xmlns="http://www.w3.org/2000/svg" width="17.08mm" height="28.87mm" viewBox="0 -9 48.4 100">
  <g id="Ebene_1-2" data-name="Ebene 1">
    <g id="Note">
      <path d="M18.24,7.19c.82,.03,1.5-.18,2.17-.67,.34-.25,.71-.67,1.33-.58,.32,.05,.7-.38,1.21-.69h.63c.57-.43,.97-.73,1.53-1.16h1.07c.04-.14,.07-.25,.1-.36,.9-.39,1.81-.79,2.72-1.19-.02-.05-.03-.09-.05-.14h1.05c.37-.61,1.08-.57,1.55-.91,.49-.36,1.06-.37,1.56-.59,.56-.24,1.17-.26,1.73-.52,.04-.11,.09-.25,.14-.39h.5c.54,.75,1,1.55,1.27,2.45,.27,.89,.8,1.67,1.04,2.57,.03,.1,.23,.15,.28,.26,.34,.64,.67,1.3,1.07,2.09,.99,.3,.71,1.67,1.5,2.33,.01,.25,.03,.52,.04,.8,.14,.03,.25,.05,.36,.08,.2,.2,.12,.65-.24,1.16h-.79c-.44,.24-.76,.42-1.09,.6-.01-.02-.02-.05-.04-.07-.49,.38-.97,.76-1.49,1.16h-1.4c-.17,.17-.35,.33-.52,.49h-.47c-.09,.16-.14,.37-.27,.46-.32,.21-.76,.16-1.05,.49-.24,.27-.51,.57-.84,.7-.9,.38-1.77,.91-2.85,.72-.22,.27-.45,.54-.68,.81-.04-.06-.07-.12-.11-.18-.66,.23-1.33,.46-1.98,.69-.03,.13-.05,.24-.06,.29-.59,.15-1.13,.28-1.64,.4-.01,.16-.02,.23-.03,.36h-1.47c-.22,.21-.39,.37-.56,.54h-.64c-.76,.64-1.48,1.24-2.27,1.91-.6-.29-.98,.32-1.44,.59-.46,.27-.85,.59-1.43,.64-.33,.03-.64,.35-1.01,.56v1.03c.1,.02,.21,.05,.36,.09,.39,.27,.05,1.04,.71,1.19,.15,.52,.61,.79,.93,1.18,.24,.29,.45,.61,.68,.93,.34,.01,.64,.02,.99-.15,.6-.29,1.22-.53,1.8-.88,.65-.39,1.36-.62,1.96-.65,.4-.35,.69-.6,1.04-.91h.87c1.07-.55,1.74-1.61,3.02-1.46,.06-.16,.11-.3,.17-.47,.26-.01,.52-.03,.82-.04,.03-.11,.05-.22,.09-.41,.54-.11,1.13-.24,1.87-.39,.37-.28,.8-.77,1.5-.88,.31-.05,.56-.38,.86-.51,.51-.23,.86-.67,1.52-.72,.56-.04,1.1-.51,1.53-1.1h1.17c.17-.18,.31-.33,.43-.46,1.18-.13,1.74-.44,2.23-1.25h.48c.38-.4,.77-.8,1.14-1.19h.82c.13,.17,.31,.38,.55,.68,.01,.09,.05,.3,.08,.5,.16,0,.23,.01,.36,.02,.04,1,.73,1.68,1.26,2.67,0,.37,.1,.88,.35,1.44,.59,1.28,1.32,2.49,1.9,3.77,.08,.17,.12,.35,.2,.58-.32,.25-.86,.28-.81,.79-.36,.18-.7,.34-1.19,.58h-.94c-.53,.47-.94,.83-1.35,1.19-.66,.26-1.39,.39-1.96,.75-.6,.38-1.13,.81-1.86,.98-.67,.16-1.28,.57-2.02,.91-.33,.09-.81-.17-1.26,.14-.21,.15-.37,.26-.51,.49-.1,.18-.46,.32-.69,.29-.42-.05-.34,.34-.53,.46-.21,.13-.51,.01-.73,.26-.41,.45-1.18,.3-1.56,.86-.36,.54-.96,.78-1.51,.99-.53,.21-1.09,.33-1.48,.8h-1.51c-.19,.23-.42,.5-.63,.74h-.55c-.05,.14-.1,.28-.17,.46h-1.07v1.1c.51,.13,.51,.71,.79,1.06,.33,.41,.69,.81,.84,1.33,.13,.45,.65,.58,.78,1.11,.08,.36,.68,.59,.68,.94,.4,.34,.69,.58,.98,.83-.04,.03-.08,.06-.12,.08,.3,.59,.59,1.18,1.01,2.02,1.04,.96,2.15,2.22,2.73,3.85,.27,.5,.78,.76,1.14,1.19,.65,.76,1.32,1.46,1.74,2.41,.28,.65,.91,1.14,1.38,1.71,.4,.5,.79,1.01,1.24,1.59-.03,0,.08,.02,.2,.04v.72c.48,.53,.95,1.05,1.48,1.63h.32c.2,.29,.39,.58,.62,.92v.58c.38,.36,.74,.7,1.14,1.08-.06,.5,.66,.63,.75,1.12,.1,.52,.85,.8,.45,1.47,.17,.05,.27,.09,.48,.16-.03,.86,.94,1.46,.78,2.45,.16,.17,.32,.34,.48,.5v4.32c-.15,.15-.29,.29-.43,.43-.02,.91-.59,1.53-1.24,2.4,0-.08,0,.11-.02,.33-.1,.03-.2,.06-.35,.11-.15,.29-.24,.76-.5,.9-.35,.19-.11,.75-.62,.76-.42,0-.3,.69-.76,.71-.4,.88-1.56,1.08-1.85,2.06-.74,.35-1.33,1.09-2.31,.79-.04,.16-.07,.27-.11,.46-.67-.02-1.03,.68-1.75,.83-.65,.13-1.29,.37-1.96,.46-.14,.14-.28,.28-.46,.46-1.06-.08-2.06,.22-3.02,.71-1.41-.38-2.83-.35-4.34,0-.84-.59-1.84-.91-2.97-.68-.06-.18-.11-.32-.17-.49h-1.33c-.51-.32-.96-.59-1.46-.9-.02-.05-.07-.19-.11-.33h-.67c-.69-.7-1.35-1.37-2.05-2.07-.13-.42-.28-.92-.43-1.41-.24-.36,.07-.85-.36-1.18,0-.73-.17-1.51,.25-2.17,.42-.66,.48-1.36,.46-2.09,.5-.68,.9-1.46,1.5-2,.56-.51,1.03-1.03,1.49-1.74,.77-.23,1.68-.46,2.54-.79,.41-.16,.8-.45,1.11-.77,.87-.89,2.05-1.05,3.16-1.36,.86-.25,1.76-.26,2.66-.27,.38,0,.77-.25,1.25-.42,.12,.04,.43,.25,.6,.17,.6-.27,1.22-.21,1.83-.21,.64,0,1.28,0,1.87,0,.42,.42,.81,.81,1.17,1.18h1.16v-.62c-.09-.03-.28-.04-.36-.14-.22-.25-.4-.53-.59-.81-.47-.7-.9-1.42-1.52-2.02-.58-.57-1.12-1.19-1.54-1.88-.15-.26-.41-.18-.49-.37-.09-.2-.15-.59-.18-.59-.41,.06-.29-.31-.39-.47-.12-.18-.16-.41-.2-.52-.39-.35-.7-.7-1.08-.95-.38-.26-.48-.72-.88-.99-.3-.2-.38-.73-.86-.78-.08-.46-.57-.58-.77-.98-.21-.41-.64-.69-.93-1.06-.28-.35-.42-.87-.76-1.1-.36-.24-.51-.6-.8-.88-.3-.28-.16-.91-.8-.98v-.57c-.14-.05-.24-.09-.45-.16-.13-.86-1.1-1.2-1.5-1.98-.2-.39-.4-.79-.66-1.29-1.01-.73-1.54-2.11-2.69-2.98,0-.17-.02-.36-.03-.53-.23-.15-.5-.26-.66-.46-.52-.67-1.21-1.15-1.77-1.76-.23-.25-.43-.54-.59-.83-.29-.51-.54-1.01-1.08-1.35-.3-.18-.7-.41-.69-.9-.44-.06-.46-.37-.52-.73-.03-.17-.52-.12-.47-.5-.87-.25-1.1-1.15-1.67-1.69-.12-.11-.13-.34-.22-.5-.06-.11-.17-.19-.25-.29-.11-.13-.2-.27-.33-.45-.14-.02-.33-.04-.52-.06-.25-.53-.64-.93-1.02-1.37-.51-.58-.82-1.33-1.23-2-.1-.16-.21-.36-.37-.44-1.09-.56-1.26-1.82-2.02-2.63-.06-.06,0-.23,0-.35-.83-.35-1.34-1.06-1.64-1.82-.24-.6-.69-1.06-.9-1.67-.06-.17-.44-.23-.78-.4-.04-.06-.11-.32-.28-.43-.48-.32-.75-.75-1.01-1.25-.23-.43-.69-.74-.88-1.18-.2-.47-.51-.83-.77-1.25-.29-.46-.39-1.04-.57-1.55,.29-.26,.5-.44,.76-.67H1.93c.04-.13,.09-.26,.13-.38,.59-.22,1.18-.45,1.94-.74,.26-.26,.65-.65,1.04-1.04,.13,.13,.28,.28,.5,.5,.11-.2,.22-.4,.27-.5,1.08,.04,1.78-.51,2.52-.94,.71-.41,1.45-.73,2.22-1.03,1.03-.4,2.09-.75,3.11-1.18,.1-.04,.12-.26,.2-.45,.16,0,.35-.02,.57-.03,.03-.1,.06-.2,.1-.33,.52-.2,1.06-.43,1.62-.62,.79-.27,1.35-.57,2.09-1.21Z"/>
    </g>
  </g>
</svg>
