<?xml version="1.0" encoding="UTF-8"?>
<svg id="Ebene_2" data-name="Ebene 2" xmlns="http://www.w3.org/2000/svg" width="20.78mm" height="25.77mm" viewBox="0 -13 58.91 100">
  <g id="Ebene_1-2" data-name="Ebene 1">
    <g id="Sigma">
      <path d="M43.84,1.02c.48,.49,1.08,.55,1.73,.45,.05-.13,.1-.27,.17-.46,.17,.02,.43-.04,.53,.06,.35,.35,.78,.22,1.13,.16,1.26-.21,1.26-.23,2.45,.01,.23,.05,.48,0,.72,0h3.09c.14-.11,.26-.19,.49-.37,.1,.27,.19,.51,.22,.59h1.8c.34,.2,.58,.39,.86,.49,.78,.27,1.35,.81,1.57,1.57,.1,.36,.2,.72,.3,1.09-.86,1.12-1.99,1.97-2.44,3.32h-.89c-.28,.35-.51,.73-.82,1.01-.33,.29-.26,.91-.84,.96-.1,.45-.57,.54-.84,.83-.25,.27-.58,.47-.91,.73-.02,.13-.04,.32-.06,.51-.47,.28-.97,.45-1.28,.99-.23,.42-.64,.8-1.15,.94-.44,.12-.6,.56-.97,.78-.35,.21-.88,.33-.79,.93h-1.56c-.08-.24-.17-.56-.31-.87-.13-.3-.3-.59-.44-.86,.41-.94,.8-1.82,1.23-2.82v-1.54c-.78,.23-1.58,.13-2.37,.12-.82-.02-1.58,.17-2.34,.46-.44-.48-1.07-.46-1.67-.44-.07-.18-.13-.32-.18-.45-.4-.15-.87,.16-1.23-.24-.07-.08-.37-.09-.45-.02-.41,.42-.9,.2-1.35,.22-1.08,.04-2.16,.01-3.25,.01-.13,.14-.27,.28-.43,.45h-1.78c-.06-.1-.18-.3-.29-.49-.86,.16-1.62-.11-2.4,.23-.36,.16-.97-.09-1.39-.3-.4-.2-.81-.2-1.13-.08-.27,.1-.4,.25-.7,.02-.12-.09-.46,.14-.7,.16-.48,.05-.9-.12-1.22-.45-.27,.16-.51,.35-.79,.45-.28,.1-.64-.13-.87,.21-.36-.31-.88-.04-1.18-.23-.46-.29-.91-.17-1.36-.2-.56-.03-1.12-.01-1.68,0-.42,0-.81,.06-1.23,.21-1.36,.51-1.86,.15-3.12-.35-.07-.03-.13-.07-.2-.11-.64,.1-.5,.6-.52,1.11,.14,.1,.34,.24,.48,.33v1.11c.13,.04,.27,.09,.4,.13,.36,.97,.77,1.93,1.14,2.89,.29,.75,.59,1.52,.89,2.27,.45,1.13,.78,2.34,1.66,3.37v.74c.15,.03,.26,.05,.37,.08,.03,.05,.09,.12,.1,.18,.03,.87,.13,.83,.62,2.03,.26,.63,.74,1.13,.89,1.79,.15,.65,.49,1.24,.72,1.86,.17,.43,.05,.84,.27,1.39,.27,.33,.64,.77,1.07,1.29,.03,.24,.11,.54,.38,.82,.21,.22,.36,.61,.35,.91-.02,.45,.32,.6,.51,.89v1.05c.55,.98,1.05,1.86,1.65,2.92v1.25c-.21,.38-.53,.77-.46,1.31,.02,.15,.02,.35-.06,.45-.52,.56-.45,1.42-1.1,1.95-.31,.25-.5,.77-.56,1.32-.08,.66-.5,1.31-.87,1.9-.33,.54-.47,1.1-.55,1.76-.12,.12-.28,.3-.45,.47v1.41c-.35,.44-.63,.93-1.04,1.26-.41,.33-.53,.88-1.05,1.15-.26,.14-.3,.71-.43,1.08-.1,0-.18,.01-.31,.03v.79c-.18,.15-.34,.28-.5,.41v1.02c-.43,.53-.58,1.19-1.22,1.47-.11,.64-.5,1.15-.74,1.73-.2,.48-.53,.88-.56,1.46-.02,.51-.76,.77-.65,1.4-.7,.03-.39,.8-.81,1.11-.28,.2-.33,.72-.5,1.13-.06,.01-.16,.04-.31,.08v.96c-.36,.58-.67,1.09-1.03,1.68,.1,.11,.22,.25,.38,.43,.81,0,1.65,.06,2.47-.02,.65-.06,1.28-.3,1.94-.22,.37,.05,.76-.11,1.13,.2,.16,.14,.59,.13,.81,.02,.83-.43,1.71-.11,2.42-.22,.48,.22,.85,.39,1.3,.6,.16-.25,.28-.45,.39-.62,.93,.08,1.82-.21,2.53,.49h1.17c.81-.65,1.6-.63,2.46,0,.66,0,1.38-.03,2.09,0,1.21,.06,2.41,.18,3.62,.22,.41,.01,.83,.15,1.24-.2,.19-.16,.68-.14,.92,0,.76,.42,1.6,.31,2.3,.15,.67-.15,1.35-.28,1.94-.14,.93,.23,1.85,.16,2.75,.2,.07,.19,.12,.32,.17,.47h2.49c.17-.27,.37-.59,.58-.93-.34-.43-.4-.94-.18-1.41,.19-.4,.07-.69,.02-1.07-.13-.97-.07-1.97-.09-2.96,.44-.53,.87-1.06,1.26-1.53,.67-.07,1.01,.29,1.09,.76,.06,.32,.22,.48,.4,.68,.34,.37,.64,.79,.97,1.14,.34,.35,.6,.69,.82,1.1,.05,.1,.14,.23,.23,.26,1.1,.36,.88,1.46,1.33,2.26,.03,0,.14,.03,.3,.06v.73c.3,.22,.74,.41,.73,.57-.02,.46,.42,.26,.53,.5,.38,.81,.79,1.59,1.19,2.39-.2,.53,.41,.7,.49,1.12,.07,.36,.25,.69,.46,1.23v1.49c-.18,.17-.39,.36-.64,.58h-.41c-3.04,0-6.08,0-9.12,0-.37,0-.74,.1-1.23,.16-.15-.04-.44-.16-.73-.16-3.16-.01-6.32-.01-9.48,0-.26,0-.53-.09-.78,.16-.11,.11-.4,.13-.56,.06-.99-.41-2.02-.22-3.03-.21-1.53,0-3.04-.43-4.58-.25-.69,.08-1.37,.19-2.06,.23-.68,.04-1.36-.02-2.04,.02-.57,.03-1.05-.12-1.42-.43-.8,.12-1.54,.22-2.43,.35-.41-.18-.97-.19-1.6-.06-.75,.15-1.55,.06-2.32,.05-.09,0-.18-.12-.23-.17-1.07,.48-2.15,.11-3.17,.27-.32-.18-.62-.34-.92-.5-.8,.51-1.61-.24-2.43,0-.36,.1-.77-.14-1.12,.23-.11,.12-.51,.11-.69,0-.79-.46-1.62-.13-2.42-.2-.05,0-.11,.11-.16,.16-.24-.08-.47-.15-.82-.26-.2-.16-.51-.39-.81-.64-.23-.2-.44-.42-.69-.66-.26-1.32,.31-2.46,1.16-3.58v-.69c.17-.12,.37-.25,.48-.33,.03-.84,.17-1.5,.74-2.08v-.76c.15-.03,.26-.05,.42-.09v-.78c.58-.39,.53-1.16,.92-1.53,.48-.46,.08-1.23,.72-1.52,.14-.59,.52-1.13,.27-1.78,.2-.07,.34-.12,.52-.18,.01-.17,.03-.36,.05-.58,.1-.03,.2-.06,.4-.11,.1-.79,.81-1.43,.78-2.35,0-.1,.1-.19,.15-.29,.2-.36,.37-.73,.6-1.07,.41-.59,.25-1.45,.92-1.9-.17-.75,.48-1.16,.73-1.74,.1-.24,.28-.45,.47-.74,0-.15,0-.39,0-.63,.68-.59,.73-1.39,.73-2.01,.3-.37,.51-.6,.69-.86,.39-.56,.74-1.12,.76-1.85,0-.39,.2-.79,.31-1.16h.36c.03-.98,.37-1.85,1.22-2.63,0-.1,.02-.37,.03-.67,.11-.03,.22-.05,.34-.08,.68-1.65,1.31-3.32,.73-5.24-.46-1.04-.95-2.16-1.53-3.5,.25-.96-.76-1.85-.8-2.97-.17-.04-.28-.07-.33-.08-.33-.79-.64-1.54-.96-2.32-.05-.01-.16-.04-.27-.07-.03-.03-.09-.06-.08-.08,.13-.66-.38-1.13-.48-1.72-.14-.81-.81-1.46-.72-2.34-.52-.36-.49-1-.76-1.48-.06-.1-.26-.12-.42-.19v-.6c-.2-.34-.42-.58-.49-.86-.26-1.13-.61-2.22-1.11-3.26-.25-.54-.52-1.06-.68-1.64-.12-.43-.45-.81-.57-1.2-.13-.41-.19-.78-.5-1.13-.2-.22-.16-.64-.28-.96-.09-.24-.24-.47-.45-.86v-.82c-.8-.23-.25-1.23-.91-1.6-.11-.52-.26-1.03-.31-1.55-.1-1.09,.03-2.14,.68-3.07,.08-.11,.03-.31,.03-.46,.21-.17,.41-.35,.72-.6,.24,.08,.65-.17,1.07,.16,.2,.16,.75,.18,.9,.02,.43-.44,.97-.08,1.44-.34,.41-.22,.99-.12,1.37-.14,.41,.22,.71,.37,1.05,.55,.84-.41,1.63-.4,2.46,.16,.34,.23,.81,.36,1.38,.15,.67-.24,1.53-.25,2.21-.06,1.1,.32,2.12,.19,3.16-.12,.64-.19,1.25-.46,1.93-.72,.66,.54,1.46,.57,2.28,.55,.33,0,.68-.11,1.01,.17,.15,.13,.6,.11,.77-.02,.27-.22,.54-.08,.78-.17,.53-.22,.92,.51,1.54,.12,.38-.24,.99-.11,1.57-.15,.13,.18,.27,.37,.31,.43,.99-.06,1.84-.12,2.69-.15,.66-.02,1.33,.06,1.76-.53,.52,.1,.95,.19,1.11,.73,.34,0,.69,0,1.04,0,.72-.62,1.43-.6,2.14,.03h5.51Z"/>
    </g>
  </g>
</svg>
