<?xml version="1.0" encoding="UTF-8"?>
<svg id="Ebene_1" data-name="Ebene 1" xmlns="http://www.w3.org/2000/svg" width="100" height="100" viewBox="0 0 100 100">
  <path d="M59.66,29c-.33,.59-.73,1.08-.81,1.76-.07,.54-.48,1.11-.89,1.51-.94,.93-1.77,1.98-2.91,2.73-.6,.4-1.43,.37-1.86,1.04-.04,.06-.24,.02-.37,.01-.49-.03-.95,.09-1.42,.23-.31,.09-.69,.57-1.06,.03-.04-.06-.28-.06-.36,0-.62,.43-1.08,.27-1.62-.23-.3-.28-.67,.13-.96,.45-.08-.06-.15-.16-.24-.18-.61-.15-.83-.91-1.34-1.02-.56-.12-1.06-.37-1.52-.63-.38-.22-.58-.75-.87-1.13-.19-.26-.34-.66-.6-.74-.72-.24-.95-.81-1.18-1.42-.35-.91-1-1.7-1.07-2.9-.36,1.12-.68,2.04-.96,2.97-.14,.48-.07,1.1-.86,1.02-.39,.51-.79,1.01-1.18,1.52-.18,.22-.32,.51-.54,.65-.4,.26-.92,.28-1.34,.43-.34,.12-.54,.68-1.08,.71-.26,.02-.53,.14-.78,.24-.38,.15-.74,.35-1.16,.25-.48-.11-.78,.18-1.04,.51-.25-.25-.48-.5-.73-.73-.38-.35-.45-.35-1.19-.3-.7,.06-1.39,.02-2.05-.26-.43-.18-.78-.57-1.31-.51-.06,0-.12-.1-.19-.13-.5-.24-.4-1-1.03-1.13-.54-.12-.88-.56-1.27-.91-.63-.55-.73-1.41-1.22-2.04-.06-.08-.02-.25,0-.37q.06-.66-.36-1.24c-.35,.62-.91,1.12-.63,1.88-.61,.61-1.18,1.18-1.79,1.79v1.1h-1.15c0,.52-.44,.56-.71,.73-.3,.19-.81,.08-1.38-.14-.21,1.01-.88,1.3-1.84,1.24-.77-.05-1.57-.14-2.21,.54-.35-.19-.7-.37-1.13-.59-.21,.18-.45,.39-.75,.66-.49-.68-1.09-1.07-1.89-.86-.24-.35-.4-.86-.65-.91-.73-.14-1.03-.85-1.59-1.08-.95-.38-1.11-1.4-1.85-1.91-.04-.61-.2-1.17-.56-1.67-.11-.16-.15-.36-.26-.52-.34-.49-.8-.96-.26-1.59,.04-.05,.04-.18,0-.25-.58-1.01,.08-2.2-.48-3.23-.1-.19,.09-.54,.13-.81,.02-.14,.08-.35,.01-.42-.24-.26-.19-.5-.08-.79,.26-.66,.23-1.45,.9-1.91,.07-.05,.12-.13,.19-.15,.54-.08,.63-.44,.6-.9-.04-.53,.11-.9,.74-.89,.09,0,.21-.09,.27-.17,.85-1.03,1.49-2.22,2.45-3.18,.17-.17,.31-.36,.52-.53,.86-.69,1.52-1.57,1.92-2.67h.68c.59-.47,1.26-.75,1.49-1.25,.29-.6,.85-.76,1.26-1.07,.77-.59,1.6-1.26,2.74-1.03,.57,.11,1.11-.04,1.63-.34,.48-.28,1.01-.22,1.53-.03,.37,.14,.78,.42,1.1,.34,.55-.12,1.19-.06,1.62-.34,.38-.25,.55,.09,.82,.02,.31-.08,.63-.14,.95-.14,.32,0,.62-.06,.95,.18,.22,.16,.65,.09,.98,.05,.35-.04,.69-.17,1.04-.24,.35-.07,.74,.14,1.06-.24,.07-.08,.41-.02,.57,.07,.55,.32,1.17,.22,1.7,.1,.36-.08,.6-.28,.98-.01,.2,.14,.58,.12,.85,.05,.33-.09,.71-.51,.93-.42,.31,.12,.66,.29,.91,.17,.76-.39,1.47,.24,2.2,.05,.23,.31,.41,.23,.72,.04,.2-.12,.59,.07,1.04,.14,.19-.17,.49-.44,.74-.68,.39,.08,.73,.16,1.08,.21,1.02,.14,2.08-.28,3.06,.26,.73-.45,1.53-.2,2.3-.25,.24-.02,.54-.04,.72,.08,.65,.45,1.07,.09,1.53-.4,.13,.09,.26,.26,.39,.25,.37,0,.77-.18,1.11-.11,.37,.08,.66,.48,1.09,.41,.56-.09,1.08-.3,1.67-.26,.5,.04,1.03-.28,1.49,.23,.08,.09,.4,.04,.58-.03,.22-.07,.4-.27,.62-.34,.52-.16,1.06-.28,1.46,.26,.12,.17,.23,.35,.33,.5,.5-.26,.85-.43,1.19-.61,.22,.09,.45,.16,.66,.26,1.01,.46,1.24,.35,1.5-.81,.18,.1,.34,.19,.5,.28,.35,.18,.7,.5,1.05,.5,.5,0,.74,.3,1.09,.59,.56-.27,1.12-.54,1.69-.8,.07-.03,.16-.01,.25-.01,.08,0,.21-.04,.25,0,.49,.61,1.27-.03,1.85,.47,.37,.32,1.02,.5,1.51,.44,.46-.05,.88-.49,1.32-.76,.1-.06,.2-.12,.27-.17,.6,.16,.47,1.14,1.49,.84,.51-.57,1.42-.43,2.29-.19,.33,.09,.65,.16,.95,.09,1.14-.27,1.13-.24,2.23-.02,.55,.11,1.14,.19,1.7-.08,.14-.07,.31-.13,.46-.11,.39,.06,.89,.35,1.14,.2,.37-.22,.71-.21,1.06-.2,.23,0,.45,.14,.68,.17,.28,.04,.65,.15,.83,.02,.37-.26,.65-.34,.97,.01,.83-.17,1.28,.59,1.95,.82,.21,.07,.29,.44,.5,.59,.22,.15,.62,.11,.75,.3,.88,1.22,2.29,1.92,3.07,3.26,.54,.94,.62,.89,1.99,1.47,.04,.5,0,1.07,.44,1.53,.17,.18,.15,.52,.56,.47,.15-.02,.45,.18,.47,.31,.05,.35,.3,.43,.55,.52,.49,.18,.62,.61,.82,1.04,.28,.59,.08,1.47,.94,1.74-.07,.78,.81,.79,1,1.25,.11,1.05,.33,2.03,.28,3-.06,1.37-.31,2.74-.48,4.1,0,.07-.09,.13-.12,.2-.22,.51-.21,.54-.13,1.39,.02,.25,0,.51,0,.66-.53,.39-1.04,.71-1.48,1.1-.48,.41-.9,.89-1.35,1.34-.57,.57-1.58,1.09-2.48,1.36-.2,.06-.46,.28-.5,.46-.1,.47-.49,.53-.79,.65-.37,.14-.84,.04-1.17,.22-.4,.23-.62,.05-.98-.03-.68-.15-1.43-.05-2.14-.05-.38,0-.69-.04-1.01-.34-.54-.49-1.31-.48-1.99-.67-.44-.12-1.35-.58-1.55-1-.15-.32-.7-.35-.57-.91,.04-.17-.42-.48-.67-.71-.42-.4-.66-.87-.84-1.43-.25-.76-.55-1.48-.59-2.33-.03,.54-.44,.86-.64,1.27-.39,.81-.68,1.66-1.04,2.49-.09,.21-.23,.51-.4,.56-.91,.24-1.45,.94-2,1.58-.61,.7-1.47,.96-2.22,1.41-.19,.11-.49,.11-.72,.07-.44-.07-.95,.08-1.11,.32-.41,.62-.87,.19-1.26,.16-.23-.02-.44-.39-.71-.03-.02,.03-.07,.06-.1,.06-.46,0-.74-.55-1.35-.29-.5,.21-.95-.29-1.35-.65-.23-.21-.5-.41-.79-.53-.51-.22-1.11-.6-1.48-.98-.35-.37-.69-.75-1.08-1.07-.77-.64-1.26-1.49-1.78-2.31-.08-.13-.1-.3-.13-.45-.09-.42-.17-.85-.25-1.28Z"/>
  <path d="M49.45,91.79c-.94,.49-1.83,.41-2.65,.23-.32-.07-.45-.09-.73,.07-.21,.11-.58,.04-.83-.06-.58-.24-1.09-.31-1.57,.2-.11,.12-.46,.21-.55,.13-.49-.4-1.04-.22-1.56-.22-.35,0-.62-.19-.91-.24-.27-.04-.54,.3-.91,.23-.28-.05-.55,0-.79-.27-.21-.24-1.1-.33-1.47-.29-.33,.04-.67,0-1,.05-.31,.05-.6,.19-.91,.23-.24,.03-.53,.04-.72-.08-.4-.26-.71-.17-1.14-.02-.56,.2-1.16,.27-1.73-.24-.24-.21-.77-.12-1.17-.11-.18,0-.38,.21-.54,.19-.71-.11-1.4-.29-2.11-.39-.8-.11-1.61-.3-2.4,.15-.6,.34-1.18,.12-1.72-.21-.2-.13-.44-.21-.6-.37-.26-.24-.55-.28-.77-.07-.31,.28-.7,.22-.95,.13-.93-.37-1.88-.15-2.82-.24-.23-.02-.51-.07-.66-.22-.24-.22-.47-.33-.78-.28-.38,.06-.76,.19-1.13,.15-.33-.04-.63-.31-.97-.4-.98-.26-1.79-.65-1.9-1.84-.03-.28-.32-.54-.46-.82-.25-.49-.39-1.07-.74-1.46-.5-.54-.18-1.12-.29-1.66-.1-.51-.13-1.05-.34-1.51-.13-.27-.06-.33,.08-.46-.15-.15-.37-.27-.43-.45-.13-.37-.39-.68-.35-1.13,.06-.71,.04-1.44,0-2.15-.01-.35,.15-.75-.2-1.06-.09-.08-.06-.32-.04-.48,.04-.3,.26-.68,.14-.86-.22-.33-.11-.64-.14-.96-.03-.34,.03-.68-.02-1.01-.04-.35,.28-.88-.42-.94,0-.31-.07-.67,.05-.93,.14-.3,.14-.49,.03-.79-.13-.33-.17-.72-.13-1.08,.03-.21,.29-.38,.47-.59-.53-.53-.6-1.13-.21-1.8,.11-.2,.21-.44,.22-.66,.02-.97,.01-1.94,0-2.92,0-.16,.03-.42-.05-.47-.66-.43-.32-.93-.23-1.5,.13-.83,.02-1.69,.04-2.53,0-.29,.16-.59,.12-.86-.04-.3-.29-.57-.33-.87-.07-.64-.21-1.29,.19-1.91,.32-.5,.42-1.03,.11-1.6-.09-.17-.16-.45-.08-.58,.39-.62,.04-1.37,.42-1.99,.06-.1-.08-.34-.14-.51-.22-.6-.51-1.13-.08-1.83,.3-.48-.1-1.01-.51-1.33,.27-.42,.51-.74,.68-1.09,.09-.19,.14-.51,.05-.67-.32-.57-.23-1.1,.09-1.6,.44-.68,.29-1.22-.36-1.74,.16-.19,.28-.35,.42-.48,.16-.16,.23-.28,.12-.53-.19-.43-.35-.88-.43-1.34-.1-.6,.19-1.09,.63-1.49,1.34,.46,2.58,.5,3.5-.73,1.15,.64,2.11-.19,3.18-.34v-.8c.07-.07,.11-.13,.13-.13,.61,.08,1.09-.32,1.64-.44,.05-.01,.12,.09,.18,.14,.23-.61,.22-1.34,1.05-1.59,.53-.16,.23-.73,.41-1.23,.47,.45,.87,.95,1.53,1.07,.16,.03,.29,.27,.41,.43,.12,.16,.17,.42,.32,.49,.85,.41,1.22,1.28,1.86,1.88,.47,.44,.83,1.02,1.58,1.1,.14,.01,.26,.31,.37,.44,.81-.29,1.49-.63,2.29-.56,.33,.03,.68-.03,.88,.33,.16,.29,.45,.14,.68,.19,.31,.06,.61,.14,.98,.23,.29-.67,.85-1.04,1.65-.99,.25,.01,.5,.02,.67-.23,.15-.23,.36-.33,.65-.27,.27,.05,.45-.09,.66-.24,.48-.34,1.03-.59,1.63-.65,.78-.08,1.12-.76,1.45-1.27,.37-.58,.86-1,1.31-1.47,.36-.38,.89-.21,1.02,.33,.07,.31,.22,.4,.43,.59,.51,.46,1.02,.92,1.41,1.55,.45,.72,1.16,1.35,2.15,1.15,.62-.12,.8,.5,1.29,.61,.27,.06,.47,.45,.69,.68,.76,0,1.48,.05,2.19-.02,.45-.04,.74,.54,1.26,.18,.31-.22,.74-.25,1.11-.38,.42-.15,.85,0,1.31-.21,.47-.21,1.03-.17,1.37-.68,.06-.08,.2-.16,.31-.15,.95,.02,1.3-.71,1.75-1.34,.13-.18,.36-.43,.53-.42,.92,.05,1.4-.58,1.95-1.12,.16-.45-.19-1.03,.4-1.4,.19,.15,.4,.3,.6,.47,.27,.23,.67,.42,.78,.71,.44,1.15,1.47,1.77,2.24,2.62,.36,.39,.81,.3,1.25-.04,.38,.85,1.55,.68,1.96,1.54,.45-.11,.95,.19,1.31-.27,.46,.12,.97,.15,1.36,.38,.79,.48,1.45,.49,2.19-.11,.5-.4,1.16-.31,1.8-.26,.53-.88,1.23-1.61,2.18-1.94,.6-.21,.81-.67,.93-1.13,.1-.41,.25-.59,.62-.77,.5-.24,.91-.65,1.38-1.01,.31,.11,.59,.26,.56,.67-.03,.46,.09,.78,.62,.89,.16,.03,.23,.41,.4,.57,.35,.33,.74,.61,1.12,.91,.88-.19,1.23,.54,1.78,1.01,.46,.11,1.08-.18,1.43,.43,.78,.04,1.37,.56,2.08,.8,.11,.04,.28,.08,.33,.02,.66-.7,1.4-.02,2.13-.25,0,.44,0,.77,0,1.1,0,.33-.03,.65,.3,.89,.38,.27,.28,.72,.11,1.01-.23,.42-.18,.72-.01,1.14,.32,.8,.13,1.15-.7,1.68,.61,.8,.79,1.72,.81,2.7,0,.43-.21,.93,.24,1.29-.12,.41-.23,.83-.39,1.37,.2,.24,.76,.6,.14,1.16-.06,.06-.06,.28,0,.36,.42,.61,.22,1.28,.23,1.93,.01,.44-.05,.86-.19,1.31-.18,.58-.25,1.35,.59,1.78-.2,.22-.32,.38-.46,.52-.16,.16-.23,.28-.1,.53,.26,.52,.46,1.08,.71,1.68-.97,.56-.89,1.38-.55,2.31,.34,.91,.29,.93-.24,2.09-.2,.44-.47,.86,.08,1.29,.15,.11,.17,.44,.17,.68,.02,1.18-.02,2.37,.02,3.55,.02,.52-.21,1.01-.04,1.57,.15,.51,.05,1.09,.02,1.64-.02,.35,.16,.76-.21,1.06-.07,.05-.08,.27-.03,.35,.47,.7,.15,1.38,.01,2.08-.05,.26-.12,.45-.28,.65-.35,.44-.33,.75-.03,1.2,.41,.63,.42,.64-.04,1.13-.14,.15-.32,.25-.45,.36,.52,.67,.32,1.27,.01,1.78-.42,.72-.16,1.46-.23,2.19-.03,.31-.13,.68,.25,.92-.25,.23-.5,.45-.68,.6-.24,.6,.05,1.13-.28,1.66-.27,.43-.48,.83-1.02,.96-.05,.31-.05,.64-.17,.93-.1,.25-.33,.44-.61,.79-1.17-.13-2.42,.29-3.66,.75-.35,.13-.75,.44-1.2,.04-.13-.11-.52,.09-.8,.14-.3,.05-.51,.42-.92,.12-.16-.11-.58,.19-.89,.21-.61,.04-1.17,.06-1.76,.37-.47,.25-1.13,.11-1.71,.15-.28,.02-.47-.53-.86-.1-.1,.11-.56-.15-.85-.14-.31,.01-.62,.12-.91,.24-.79,.34-1.62,.24-2.43,.25-.34,0-.68-.03-1.01,.01-.27,.03-.53,.15-.78,.25-.31,.11-.6,.5-.95,.01-.05-.07-.38,.04-.57,.1-.64,.17-1.26,.36-1.82-.24-.11-.12-.44-.19-.56-.11-.63,.37-1.22,.39-1.83-.02-.65,.47-1.46,.06-2.13,.37-.61,.28-1.23,.06-1.85,.14-.74-.66-1.46,.03-2.17,.11-.41,.05-.74,.42-.88-.28-.01-.05-.24-.12-.33-.08-.95,.44-1.96,.15-3,.27-.01,0-.1,.03-.15,.08-.91,.88-.91,.89-1.76,.04-.15-.15-.24-.34-.34-.48Zm33.44-10.07c.05-.14,.06-.33,.16-.43,.56-.56,.71-1.25,.7-2,0-.25-.09-.56,.02-.75,.46-.79,.11-1.64,.23-2.44-.48-.41-.1-.82,.08-1.15,.15-.28,.28-.55,.09-.78-.7-.85-.73-1.91-.94-2.91-.04-.19-.1-.39-.22-.54-.17-.2-.21-.42-.3-.64-.32-.75-.17-1.72-.99-2.18,.1-.38,.29-.71,.23-.98-.15-.6-.46-1.16-.66-1.75-.32-.97-.99-1.84-.86-2.95,.02-.16-.16-.35-.24-.53-.13-.29-.38-.56-.25-.91,.15-.42-.12-.83-.3-1-.48-.44-.48-.94-.46-1.48,.04-1-.26-1.87-.84-2.7-.35-.5-.65-1.05-.71-1.74-.12-1.54-.92-2.69-2.26-3.52,0-.12,0-.29,0-.45,0-.12,.02-.26,.08-.34,.15-.17,.29-.35,.06-.52-.21-.15-.03-.57-.51-.58-.3,0-.81-.34-.85-.58-.17-1-.95-1.35-1.63-1.85-.56-.41-1.07-.9-1.61-1.33-.28-.23-.62-.38-.87-.64-.41-.43-.87,.31-1.28-.1-.07-.07-.36,.1-.55,.15-.11,.03-.28,.11-.34,.07-.56-.46-1.21-.17-1.81-.23-.65-.06-1.3-.04-1.88,.37-.06,.04-.18,0-.26,0-.48-.05-.96-.1-1.33-.14-.45,.41-.73,.85-1.13,1.01-.89,.36-1.63,.87-2.26,1.59-.08,.09-.18,.18-.29,.21-.52,.16-.73,.59-.98,1.08-.17-.11-.32-.27-.5-.3-.51-.1-1.02,.06-1.56-.23-.42-.23-1.06,.11-1.52-.29-.48,.44-.96-.01-1.44-.02-.56,0-1.15,.17-1.71-.15-.6-.34-1.17,.12-1.76,.16-.17,.01-.4,.07-.5,0-.58-.52-1.03-.07-1.52,.15-.12,.06-.31,.08-.43,.03-.76-.34-1.53-.26-2.21,.12-.28,.16-.52,.21-.8,.21-.67,0-1.34,0-1.89,0-.64-.51-1.18-.94-1.73-1.37,.05-.64-.58-.77-.89-.84-.68-.15-1.12-.59-1.65-.94-.67-.45-1.3-.95-2.18-.42-.13,.08-.47,.04-.57-.07-.51-.54-1.13,.26-1.64-.16-.05-.04-.17-.02-.25,0-.07,.02-.16,.06-.2,.12-.27,.42-.69,.39-1.11,.38-.79-.01-1.59,0-2.34,0q-.98,1.41-1.96,1.01c-.82,.39-.19,1.24-.55,1.77-.81-.17-1.32,.49-1.98,.74-.42,.16-.12,.46,.05,.68-.09,.09-.16,.22-.27,.26-.6,.26-.96,.59-1.03,1.35-.05,.47-.23,1.14-.9,1.38-.16,.06-.29,.4-.3,.61-.03,.71-.17,1.35-.68,1.88-.24,.25-.58,.6-.56,.89,.04,.72-.21,1.37-.3,2.05-.14,1.12-.36,2.22-1.27,3.01,.07,1.13-.23,2.16-.76,3.12-.19,.35-.5,.65-.59,1.02-.08,.34,.08,.73,.07,1.1,0,.18-.16,.35-.22,.54-.1,.34-.16,.69-.28,1.02-.33,.88-.6,1.75-.52,2.71,.01,.13-.18,.26-.24,.4-.15,.37-.33,.72-.27,1.16,.06,.45,.01,.91,.01,1.31-.21,.21-.35,.36-.51,.5-.47,.42-.75,.85-.32,1.49,.16,.23,.13,.55-.16,.77-.12,.09-.3,.28-.27,.38,.15,.58-.28,.91-.65,1.33,.46,.36,.64,.75,.68,1.3,.02,.36,.42,.7-.02,1.08-.05,.04,0,.27,.06,.32,.36,.29,.02,.74,.26,1.04,.42,.42,.84,.84,1.28,1.28,.26,.02,.57-.01,.82,.08,.29,.11,.56,.31,.79,.53,.34,.33,.54-.3,.84-.08,.64,.46,1.37,.25,2.05,.23,.45-.02,.84-.14,1.26,.16,.35,.24,.79,.26,1.1-.13,.18-.23,.4-.24,.66-.26,.48-.03,.98,.15,1.43-.24,.4-.35,.87,.09,1.3-.02,.18-.05,.37-.18,.49-.32,.3-.36,.71-.54,1.12-.67,.76-.23,1.47-.47,1.74-1.33,.03-.1,.24-.13,.37-.21,.21-.12,.43-.21,.61-.36,.43-.37,.73-.81,.94-1.38,.17-.46,.87-.53,1.15-1.15,.66-1.46,1.04-2.95,.96-4.54-.03-.66,.14-1.13,.55-1.35,.64,.07,1.11,.13,1.59,.16,.57,.03,1.14-.06,1.64,.34,.59,.47,1.05,.13,1.43-.33,.7,.55,1.39,.92,2.28,.78,.28-.04,.69,.31,.89,.2,.52-.29,1.07-.09,1.55-.25,.43-.15,.7-.03,1.01,.18,.2,.13,.38,.28,.67,.5,.26-.35,.49-.66,.73-.98,.64,.5,1.32,.29,1.97,.33,.48,.03,.95-.02,1.43,.24,.93,.5,1.86,.46,2.71-.26,.13-.11,2.43-.48,2.56-.42,.11,.05,.2,.13,.3,.19,.36,.23,.86,.45,1.14,.22,.44-.37,.71,.28,1.08,.01,.28-.2,.65-.28,.94-.46,.61-.38,1.21-.35,1.81-.02,.16,.09,.21,.15,.46,.09,.87-.19,1.77-.23,2.61-.33,.15,.43,.29,.8,.41,1.17,.07,.22,.26,.57,.18,.66-.37,.41-.18,.87-.24,1.32,.47,.42,.96,.82,.78,1.58-.02,.09,.06,.23,.12,.32,.52,.82,1.01,1.68,1.79,2.31,.2,.16,.44,.32,.53,.54,.27,.65,.89,.92,1.43,1.11,.84,.29,1.48,.78,2.1,1.37,.35,.33,.72,.69,1.15,.88,.5,.22,1.07,.26,1.62,.38,.61-.58,1.26-.25,1.79,.05,.42,.24,.73,.24,1.14,.08,.2-.08,.53-.16,.67-.06,.38,.27,.65,.24,.98-.07,.13-.13,.45-.28,.5-.23,.65,.64,.96-.37,1.48-.28,.38-.62,.99-.5,1.57-.51,.17,0,.34,0,.54,0Z"/>
  <path d="M59.49,62.71c-.4,.29-.72,.51-1.04,.74-.56-.16-1.12-.35-1.69-.49-.18-.04-.4,.02-.6,.07-.15,.03-.29,.16-.43,.17-.28,0-.6,.02-.84-.09-.42-.2-.47,.12-.55,.34-.1,.26-.12,.54-.18,.81-.02,.12-.12,.27-.08,.34,.56,.9,.06,1.88,.28,2.81-.5,.12-.9,.73-1.45,.13-.1-.11-.43-.08-.61,0-.95,.41-1.89,.34-2.84,0-.19-.07-.42-.04-.63,0-.52,.08-1.03,.25-1.57,.01-.14-.06-.37,.09-.57,.13-.31,.05-.62,.09-1.01,.14,.01-.48,.47-.86,.03-1.28-.11-.11-.01-.48,.05-.71,.23-.85,.23-.84-.06-1.97-.04-.16,0-.34,0-.5,0-.12-.03-.23-.04-.28-.64,.05-1.24,.09-1.82,.16-.35,.05-.69,.22-1.04,.23-.26,0-.59-.29-.76-.2-.22,.11-.41,.25-.67,.22-.43-.05-.83-.14-1.08-.69,.4-.04,.71-.08,1.01-.11,.1-.18,.19-.35,.28-.53,.26-.53,.87-.87,.83-1.55,.42-.22,.41-.82,.94-1,.29-.1,.48-.46,.73-.69,.83-.75,1.66-1.5,2.49-2.23,.08-.07,.22-.06,.41-.11,0-.46,0-.9,.44-1.3,.64-.57,1.29-1.14,1.74-1.92,.34-.59,1.05-.58,1.67-.49,.17,.03,.36,.31,.44,.51,.07,.18,.02,.41,.02,.63,.9,.34,1.68,.78,1.78,1.87,0,.07,.04,.2,.08,.21,.83,.16,1.06,1.09,1.83,1.39,.42,.17,.64,.81,1.01,1.19,.63,.64,1.22,1.3,1.66,2.1,.36,.66,1.18,.93,1.55,1.62,.05,.1,.15,.19,.3,.36Z"/>
</svg>