<?xml version="1.0" encoding="UTF-8"?>
<svg id="Ebene_1" data-name="Ebene 1" xmlns="http://www.w3.org/2000/svg" width="100" height="100" viewBox="0 0 100 100">
  <path d="M9.69,32.53c.23-.65,.9-.66,1.08-1.22,.37-1.17,1.27-2.08,1.72-3.22,.09-.22,.41-.35,.72-.6v-1.21c.57-.41,1.19-.72,1.31-1.49,.03-.17,.27-.31,.42-.45,.51-.51,.98-1.06,1.53-1.51,.6-.5,.93-1.12,1.06-1.85,.07-.39,.26-.63,.61-.63,.63,0,.96-.3,1.19-.85,.16-.39,.44-.73,.84-.89,.23-.09,.32-.2,.47-.42,.25-.38,.7-.67,1.13-.88,.5-.24,.96-.4,1.25-.99,.18-.37,.52-.9,1.16-.8,.23-.41,.83-.33,1.04-.89,.15-.38,.69-.74,1.12-.86,.72-.19,1.33-.49,1.9-.95,.18-.15,.41-.33,.61-.33,.64,0,.87-.26,.9-.89,.01-.19,.33-.65,.75-.25,.08,.07,.28,.14,.32,.1,.52-.5,1.22-.36,1.81-.56,.58-.2,1.04-.77,1.59-1.21h1.2c.24-.24,.48-.48,.76-.76,.29,0,.62,0,.96,0,.34,.01,.67,.02,.89-.32,.06-.09,.19-.17,.3-.19,.64-.1,1.28-.24,1.92-.24,.47,0,.87-.14,1.28-.29,.22-.08,.44-.17,.67-.23,.23-.06,.48-.14,.71-.12,.38,.03,.53-.64,1.07-.27,.23,.16,.73-.06,1.1-.12,.51-.08,1.09,.22,1.55-.24,.06-.06,.26-.05,.37,0,.99,.39,1.97,.38,2.97,0,.22-.08,.55-.1,.75,0,.71,.39,1.46,.18,2.19,.24,.64,.06,1.3-.12,1.94,.22,.25,.13,.73,.18,1.06-.13,.07-.07,.28,0,.42,0l1.27,.41c.55,.12,1.12-.19,1.69,.22,.39,.28,.95,.39,1.45,.46,.74,.1,1.42,.26,1.86,.87,1.07-.46,.99-.48,1.72,.7h1.47c.99,.89,2.09,1.39,3.39,1.3,.06,.06,.09,.08,.12,.12,.6,.86,.59,.86,1.53,1.14,.12,.03,.31-.05,.37,.02,.66,.68,1.59,.87,2.36,1.36,.28,.18,.42,.58,.65,.91,.45,0,.91-.04,1.36,.02,.21,.03,.58,.3,.56,.38-.15,.6,.5,.56,.65,.87,.34,.74,1.15,1.03,1.55,1.74,.22,.39,.72,.64,1.13,.91,.32,.22,.89,.3,.97,.57,.14,.46,.49,.48,.76,.69,.28,.22,.64,.43,.57,.9-.01,.07,.21,.16,.3,.27,.16,.17,.4,.34,.43,.54,.11,.65,.57,.95,1.07,1.24,.46,.27,1.14,.37,1,1.16,.72,.37,.64,1.31,1.25,1.77,.14,.1,.17,.34,.25,.52,.09,.22,.13,.47,.26,.65,.31,.39,.89,.71,.95,1.12,.08,.55,.4,.79,.7,1.12,.2,.21,.31,.44,.41,.72,.13,.37,.54,.64,.94,1.07-.28,.82,.83,1.57,.5,2.67,.29,.23,.58,.47,.84,.67-.09,.77,.01,1.4,.54,1.89,.39,.36,.12,.8,.25,1.33,.19,.15,.48,.39,.71,.57,0,.62-.02,1.13,0,1.63,.01,.23,.11,.46,.19,.68,.29,.83,.59,1.65,.57,2.56,0,.35-.13,.72,.22,1.06,.19,.18-.39,.57,.11,.9,.2,.13,.14,.68,.16,1.05,.02,.38,.06,.77,0,1.14-.13,.79,.52,1.32,.61,2.04,.06,.45,.42,.85-.25,1.16-.11,.05-.1,.63,.02,.89,.21,.47,.26,.88-.17,1.21-.3,.23-.28,.57-.19,.8,.27,.63,.34,1.2,0,1.84-.12,.23,.1,.74-.04,.85-.4,.31,.08,.48,.02,.71-.09,.34-.35,.86-.22,1,.35,.37-.07,.57-.05,.84,0,.17-.22,.35-.22,.53,0,.62-.04,1.2-.44,1.73-.15,.19-.08,.56-.08,.85,0,.66-.16,1.26-.57,1.8-.09,.12-.18,.28-.19,.42-.03,.61-.02,1.2-.23,1.81-.14,.41,.01,.92-.48,1.21-.07,.04-.07,.23-.06,.35,.03,.48-.12,.78-.65,.87-.15,.03-.38,.32-.35,.46,.1,.54-.26,.82-.51,1.2-.19,.28-.22,.67-.26,1.02-.04,.33,0,.67,0,.97-1.06,.46-1.42,1.39-1.77,2.33-.07,.18-.02,.47-.14,.57-.58,.49-.82,1.18-1.13,1.82-.03,.07-.06,.17-.12,.2-.84,.46-1.46,1.12-1.78,2.04-.56-.03-.41,.61-.78,.81-.32,.17-.66,.47-.79,.8-.17,.42-.56,.62-.73,.97-.28,.58-.84,.88-1.28,1.19-.8,.56-1.49,1.1-1.64,2.12-.01,.08-.15,.18-.24,.2-.87,.16-1.53,.65-2.16,1.25-.4,.37-.92,.61-1.39,.91-.47,.3-.96,.61-1.43,.84-.62,.3-.38,1.06-1.14,1.31-.43-.04-1.04-.04-1.46,.59-.14,.21-.44,.33-.7,.43-.85,.34-.98,.43-1.47,.99-.15,.18-.31,.45-.61,.2-.36-.29-.61-.13-.97,.08-.47,.27-.79,.78-1.45,.81-.28,.01-.55,.47-.82,.72-.27-.09-.53-.24-.79-.23-.16,0-.32,.25-.59,.48-.12,0-.42-.04-.7,0-.49,.09-.98-.09-1.23-.36-.39-.41-.64-.99-.83-1.54-.18-.53-.22-1.1-.26-1.66-.04-.55-.03-1.1,0-1.65,.02-.44-.15-.9,.23-1.31,.11-.11,.08-.43,0-.61-.38-.91-.4-1.81,0-2.71,.05-.11-.01-.25,0-.38,.09-.59-.16-1.12-.25-1.67-.08-.53,.43-1,.24-1.54-.33-.96-.07-1.99-.28-2.93-.47-2.02-.85-4.1-2.21-5.8-.35-.44-.67-.89-1.09-1.47,.35,.09,.7,.06,.83,.22,.37,.47,.89,.43,1.26,.29,.93-.33,1.86-.53,2.84-.48,.08,0,.21,.04,.25,0,.4-.41,.89-.45,1.43-.55,.47-.09,.94-.17,1.43-.21,.18-.02,.35-.16,.52-.27,.65-.4,1.27-.8,2.11-.75,.74,.04,1.16-.42,1.3-1.21,.12-.67,.13-.63,.81-.81,.49-.13,.99-.3,1.4-.58,.64-.44,1.2-1,1.81-1.52-.14-.27-.27-.53-.42-.82,.02-.02,.07-.07,.12-.11,.85-.57,1.66-1.15,1.96-2.24,.23-.82,.28-.81,1.21-1.73-.44-.63-.42-1.22,.23-1.78,.51-.43,.72-1.16,.44-1.67-.33-.6,.04-.88,.23-1.26,.14-.28,.35-.53,.53-.8-.21-.4-.44-.8-.62-1.22-.08-.18-.16-.46-.08-.58,.67-1.01,.44-2.13,.5-3.22,.02-.35-.03-.69,.15-1.08,.13-.28-.16-.8-.33-1.18-.1-.22-.32-.4-.53-.54-.41-.26-.37-.66-.3-1.01,.06-.3,.39-.55,.18-.89-.32-.5-.28-1.17-.8-1.58-.23-.18-.42-.41-.67-.66,0-.21,.03-.46,0-.71-.03-.19-.11-.48-.23-.52-.8-.25-.84-1.06-.97-1.61-.17-.67-.51-.97-1.12-1.21,.11-.23,.26-.43,.29-.64,.11-.93,.18-1.87,.27-2.81,.02-.16,.02-.35,.11-.46,.75-.97,.37-2.04,.26-3.08,0-.07-.11-.14-.11-.2,0-.55,.09-1.12-.03-1.64-.11-.44-.43-.81-.51-1.31-.07-.48-.34-.96-.61-1.39-.3-.5-.91-.37-1.25-.22-.33,.15-.61,.2-.93,.2-1.24-.01-2.35,.34-3.4,1-.16,.1-.31,.08-.4,.33-.12,.31-.37,.73-.83,.26-.03-.03-.24,.12-.37,.19-.44,.26-.88,.53-1.37,.68-.78,.23-1.33,.78-1.85,1.35-.29,.32-.57,.56-1.06,.52-.35-.03-.62,.28-1.08,.03-.5-.27-1.16-.55-1.81-.07-.19,.14-.58,0-.87,.03-.18,.02-.36,.13-.6,.22-.09-.18-.16-.41-.3-.6-.12-.16-.3-.38-.46-.38-.9,0-1.79-.68-2.72-.04-.17,.12-.6,.12-.73,0-.27-.28-.39-.14-.56,.06-.26,.3-.6,.39-.85,.07-.27-.35-.67-.27-.96-.45-.39-.25-.64-.18-.97,.1-.42,.36-.78,.36-1.19,.02-.33-.28-.6-.42-.97-.12-.38,.3-.89-.11-1.29,.26-.29,.28-.84-.11-1.13,.34-.02,.03-.19,.02-.23-.02-.64-.65-1.19,.23-1.82,.11-.28-.05-.5,.5-.99,.21-.22-.13-.67,.14-1.02,.22-.39,.08-.85-.19-1.18,.21-.01,.02-.07,.02-.09,0-.55-.69-1.53-.7-2.11-1.34-.23-.25-.47-.4-.85-.42-.36-.02-.75-.25-1.05-.49-.41-.32-.76-.67-1.34-.78-.44-.09-.81-.48-1.21-.73-.17-.1-.35-.24-.53-.24-.74,0-1.45-.03-2.08-.51-.23-.18-.6-.18-.9-.27-.22-.06-.99,.13-1.24,.17-.52,.08-.9,.32-1.14,.65,.07,.29,.25,.64,.16,.73-.51,.53-.42,1.29-.76,1.85-.26,.42-.27,.67,0,1.09,.27,.42,.56,.96-.11,1.38-.08,.05-.14,.3-.11,.31,.58,.37,0,.72-.03,1.07-.04,.59,.05,1.18,.3,1.66,.27,.51,.28,.89-.09,1.28,.13,.15,.21,.24,.29,.33,.7,.73,.75,1.24,.07,1.99-.33,.37-.61,.75-.81,1.19-.04,.1-.11,.23-.19,.26-1.34,.52-1.39,1.75-1.58,2.9-.03,.16,0,.34,0,.51,0,.08,.02,.24,0,.24-.37,.11-.47,.47-.69,.71-.35,.38,.35,.53,.11,.99-.3,.6-.62,1.13-1.12,1.55,.06,.26,.14,.51,.18,.77,.03,.2-.06,.53,.05,.6,1.01,.74,.2,1.58,.1,2.34-.07,.49-.2,.9,.02,1.39,.11,.24,.11,.57,.08,.85-.1,.96,.15,1.88,.28,2.81,.03,.21,.21,.45,.38,.59,.43,.35,.51,.79,.27,1.21-.23,.39-.21,.67,.09,.98,.07,.08,.07,.22,.11,.33q.39,.87,1.11,1.35v1.23c.61,.75,1.16,1.42,1.79,2.19v.69c.74,.46,1.44,.82,1.85,1.64,.44,.88,1.14,1.6,2.3,1.55,.59-.03,1.02,.44,1.3,.78,.56,.69,1.34,.71,2.03,.98,.44,.17,.92,.22,1.38,.34,.07,.02,.13,.17,.18,.17,1.06-.12,1.99,.18,2.86,.77,.06,.04,.18,.03,.25,0,.63-.31,1.21-.44,1.74,.23,.12,.15,.56,.03,.86,.03,.24,0,.48,0,.79,0-.21,.35-.37,.61-.52,.88-.07,.13-.11,.36-.2,.38-1.04,.21-1.23,1.19-1.51,1.91-.34,.87-.81,1.78-.56,2.77-.38,.37-.67,.84-1.29,.66-.99,.43-2.02,.55-3.09,.52-.47-.01-.9,.31-1.42,.25-1.3-.16-2.57-.35-3.35-1.42-.38,.03-.69,.13-.95,.05-.21-.06-.47-.31-.53-.52-.26-.94-1.05-1.44-1.63-2.12-.52-.62-.97-1.29-1.48-1.92-.14-.18-.37-.28-.55-.43-.16-.13-.39-.25-.44-.41-.11-.43-.33-.63-.77-.61-.07,0-.2-.04-.21-.08-.08-.33-.22-.55-.59-.69-.77-.29-1.48-.76-2.26-.97-.59-.16-1.26-.06-1.89-.02-.46,.03-.85,.27-1.13,.62-.16,.21-.25,.48-.36,.71,1.09,.64,2.17,1.08,3,1.94,.3,.32,.72,.52,1.05,.82,.63,.58,1.26,1.17,1.53,2.03,.05,.15,.08,.38,.18,.42,.68,.24,.65,.8,.67,1.36,.02,.5-.2,1.15,.64,1.23,.18,.5,.59,.86,.83,1.29,.15,.27,.28,.56,.5,.8,.32,.36,.68,.68,.93,1.13,.27,.49,.8,.79,1.41,.83,.19,.01,.4,.07,.56,.18,.85,.59,1.84,.72,2.83,.84,.15,.02,.31,.08,.44,.15,.8,.42,1.66,.33,2.52,.37,.42,.02,.59-.24,.83-.47,.39,.07,.66,.52,1.2,.23,.35-.19,.88,.09,1.25-.36,.34-.41,.84-.09,1.32-.18-.27,.89-.53,1.64-.06,2.45,.16,.29,.16,.82,0,1.11-.26,.49-.16,.85,0,1.34,.15,.46-.14,1.09,.07,1.49,.36,.7,.13,1.39,.21,2.07,.07,.57-.19,1.02-.59,1.4-.12,.11-.28,.3-.38,.28-.73-.16-1.03,.43-1.49,.81-.68-.18-1.37-.36-2.05-.55-.15-.04-.3-.12-.41-.23-.15-.15-.23-.43-.41-.51-.5-.22-1.04-.36-1.56-.52-.08-.02-.19,.03-.25,0-.37-.24-.71-.53-1.1-.72-.36-.18-.82,.13-1.19-.19-.11-.1-.39-.1-.41-.19-.2-.72-.77-.82-1.38-.94-.26-.05-.5-.23-.72-.39-.92-.65-1.8-1.36-2.75-1.95-.47-.29-1-.47-1.4-.9-.35-.38-.83-.65-1.22-1-.44-.4-.78-.95-1.27-1.23-1.03-.57-1.56-1.7-2.64-2.18-.07-.03-.16-.11-.17-.18-.1-.48-.4-.77-.78-1.07-.37-.29-.61-.74-.89-1.14-.79-1.11-1.49-2.29-2.39-3.3-.36-.41-.27-.93-.67-1.27-.37-.32-.67-.73-1-1.1,0,0-.51-1.16-.51-1.16-.1-.44-.3-.82-.64-1.13-.53-.48-.81-1.03-.93-1.78-.11-.69-.53-1.33-.46-2.08-.39-.32-.49-.81-.67-1.24-.3-.69-.67-1.33-.64-2.16,.02-.45-.34-.96-.64-1.36-.21-.28-.38-.51-.34-.88,.06-.57,.04-1.15-.36-1.62-.18-.21,0-.24,.06-.37,.1-.21,.06-.32-.2-.44-.35-.16-.34-.35-.26-.87,.03-.21,.08-.46,0-.63-.23-.42-.41-.79,0-1.2,.06-.06,.06-.28,0-.37-.6-.87,.11-1.98-.51-2.83-.3-.42-.39-.79-.08-1.23,.06-.09,.06-.23,.09-.34,.1-.47-.23-.87-.22-1.29,.01-.4,.42-.78,.44-1.19,.03-.51,.25-1.08-.19-1.56-.07-.07,0-.25-.04-.36-.15-.56,.34-1.06,.22-1.54-.13-.49,.04-.86,.15-1.27,.19-.68,.15-1.43,.64-2.02,.04-.05,.02-.17,0-.25-.08-.31-.27-.62-.22-.91,.05-.33,.33-.62,.47-.94,.13-.28,.21-.59,.3-.89,.23-.79,.82-1.46,.75-2.37-.02-.27,.33-.55,.24-.9,.57-.34,.45-.91,.52-1.44,.06-.45,.21-.97,.49-1.3,.4-.47,.24-.8,0-1.16Z"/>
</svg>