<?xml version="1.0" encoding="UTF-8"?>
<svg id="Ebene_1" data-name="Ebene 1" xmlns="http://www.w3.org/2000/svg" width="100" height="100" viewBox="0 0 100 100">
  <path d="M86.96,12.35c-.33,.33-.51,.46-.62,.63-.43,.66-.8,1.31-1.49,1.79-.62,.43-1.04,1.15-1.55,1.75-.1,.12-.2,.25-.29,.39-.26,.4-.55,.78-.75,1.21-.22,.47-.76,.53-1.02,.95-.19,.3-.6,.47-.52,.93,.01,.06-.05,.17-.1,.2-.66,.39-1.13,.96-1.65,1.52-.48,.53-1.25,.78-1.31,1.66,0,.14-.28,.27-.44,.39-.13,.09-.26,.18-.41,.24-.36,.15,.13,.68-.39,.8-.29,.06-.63,.22-.82,.44-.75,.86-1.45,1.76-2.16,2.66-.09,.11-.07,.31-.07,.47,0,.25,0,.41-.35,.51-.27,.08-.39,.58-.65,.82-.73,.66-1.47,1.32-2.25,1.92-.68,.52-.58,.58-1.36,1.6-.54,.7-1.11,1.5-1.93,1.93-.33,.17-.45,.36-.6,.67-.35,.69-.83,1.29-1.56,1.65-.19,.09-.3,.35-.43,.55-.17,.26-.48,.56-.45,.81,.06,.51-.67,.27-.61,.78,.02,.14-.49,.34-.73,.54-.11,.1-.17,.26-.24,.41-.16,.34-.4,.5-.79,.46-.44-.04-.68,.17-.75,.62-.05,.35-.09,.74-.28,1.02-.17,.26-.21,.65-.67,.75-.32,.07-.57,.43-.87,.65-.28,.21-.3,.58,0,.76,.53,.32,1.1,.59,1.08,1.35,0,.06,.17,.15,.27,.17,.92,.17,1.21,1.03,1.69,1.65,.27,.35,.46,.68,.88,.92,.78,.42,1.18,1.24,1.69,1.92,.12,.16,.02,.49,.02,.72,.66,.39,1.34,.7,1.28,1.64-.01,.2,.18,.42,.35,.77,.21,.19,.76-.22,1.01,.25,.16,.31,.24,.66,.41,.97,.16,.28,.35,.7,.59,.74,.57,.11,.64,.58,.86,.92,.23,.36,.43,.75,.56,1.16,.17,.53,.52,.9,.88,1.29,.56,.6,1.06,1.26,1.63,1.86,.27,.29,.49,.66,.96,.74,.13,.02,.33,.23,.33,.35,0,.48,0,.92,.48,1.21,.44,.26,.22,.84,.55,1.17,.14,.14,.21,.35,.35,.48,.9,.9,1.7,1.89,2.45,2.92,.06,.08,.19,.11,.28,.17,.89,.53,.98,.51,1.16,1.34,.26,1.25,1.1,2.1,1.82,3.05,.42,.55,.92,1.05,1.29,1.63,.31,.49,.64,.94,1.11,1.3,.38,.3,.81,.61,.7,1.23-.02,.12,.11,.29,.21,.41,1.28,1.56,2.48,3.16,3.63,4.83,.79,1.16,1.69,2.27,2.56,3.39,.57,.73,1.13,1.48,1.72,2.25-.46,.25-1.08-.12-1.49,.33-.06,.06-.3,.06-.36,0-.47-.44-1.04-.23-1.55-.23-1.94-.03-3.89-.03-5.83,0-.51,0-1.06-.23-1.57,.21-.13,.11-.59-.11-.88-.23-.41-.17-.73,.33-1.21,.04-.31-.19-.83-.06-1.25-.03-1.07,.07-2.12-.09-3.21,.2-.61,.16-1.34,.14-2.06-.13-.55-.21-1.29-.23-1.94,.08-.5,.24-1.03,.15-1.5-.15-.43,.33-1,.42-1.38,.19-.5-.31-.98-.07-1.6-.26-.12-.17-.32-.47-.55-.74-.15-.17-.35-.31-.53-.46-.16-.13-.47-.27-.45-.37,.08-.57-.38-.79-.64-1.15-.23-.31-.34-.71-.56-1.03-.21-.31-.61-.41-.8-.79-.21-.43-.55-.79-.82-1.18-.04-.06-.02-.17-.07-.22-.32-.39-.92-.43-1.08-1.06-.12-.48-.42-.98-1.03-1.07-.13-.85-.94-1.3-1.23-2.03-.27-.68-.82-.8-1.41-1.08,0-.29,.01-.62,0-.95-.02-.52-.15-.63-.75-.74-.31-.06-.64-.12-.89-.28-.18-.11-.4-.44-.35-.58,.23-.69-.31-1.11-.58-1.55-.46-.72-1.11-1.32-1.68-1.98,.08-.16,.15-.32,.29-.59-1.03-.05-1.31-.96-1.89-1.52-.09-.08-.22-.21-.2-.29,.15-.73-.35-.96-.84-1.3-.55-.38-.98-.92-1.44-1.42-.13-.14-.21-.34-.26-.52-.2-.81-.37-1.58-1.25-2.02-.49-.25-.83-.79-1.33-1.28-.19,.42-.26,.79-.48,1.01-.24,.24-.61,.33-.99,.52-.12,.38,.24,1.1-.64,1.18-.15,.01-.36,.37-.37,.57-.01,.36-.2,.59-.47,.65-1.14,.26-1.52,1.27-2.07,2.07-.58,.83-1.25,1.48-2.3,1.81,0,.23-.03,.48,0,.71,.06,.36-.15,.55-.38,.73-.05,.04-.22-.01-.23,.02-.11,.25-.15,.68-.29,.72-.33,.08-.51,.24-.62,.52-.13,.33-.16,.72-.36,.98-.21,.27-.61,.39-.85,.65-.35,.38-.9,.61-.86,1.31,.01,.2-.46,.42-.71,.63-.31,.27-.74,.47-.91,.81-.32,.61-.76,1-1.34,1.33-.45,.26-.25,.91-.56,1.27-.26,.31-.85,.18-1.01,.68-.04,.11-.16,.19-.2,.3-.27,.64-.82,1.16-1.52,1.43-.07,.03-.21,.03-.22,.06-.12,.64-.79,1.02-.83,1.68-.03,.48-.15,.86-.7,.78-.47-.07-.76,.21-.92,.51-.29,.58-.78,.95-1.18,1.41-.12,.14-.24,.35-.24,.53,0,.47-.11,.78-.64,.89-.1,.02-.13,.43-.21,.73h-1.08c-.63,0-1.3-.13-1.89,.04-.61,.17-1.13-.2-1.71-.05-.31,.08-.8-.09-.96,.09-.36,.39-.45-.15-.73-.11-.33,.05-.6,.21-.91,.28-.31,.06-.6-.03-.92-.21-.5-.28-1.1-.54-1.7-.08-.11,.08-.32,.05-.48,.05-1.05,0-2.1,0-3.23,0,.15-.29,.25-.53,.37-.75,.18-.34,.32-.65,.77-.83,.43-.17,.73-.68,1.14-1.08v-.73c.26-.17,.47-.29,.65-.44,.44-.36,.73-.91,1.33-1.08,.11-.03,.26-.18,.26-.26-.05-.77,.63-1.02,1-1.5,.22-.29,.4-.6,.64-.87,.15-.17,.37-.27,.69-.49-.03-.43,0-.88,.68-1.22,.69-.35,1.27-.98,1.96-1.41,.14-.09,.19-.33,.28-.5,.3-.54,.42-1.21,1.15-1.42,.11-.03,.16-.26,.25-.39,.52-.78,.92-1.64,1.79-2.17,.34-.21,.58-.68,.73-1.07,.1-.27,.12-.41,.42-.59,.5-.31,.98-.68,1.51-.96,.14-.07,.28-.21,.36-.35,1.07-1.9,1.33-2.2,2.67-3.19,.16-.12,.27-.3,.39-.46,.48-.62,.81-1.36,1.57-1.75,.29-.15,.49-.46,.72-.68v-.81c.6-.42,.92-1.18,1.69-1.42,.11-.03,.2-.16,.27-.26,.25-.4,.52-.8,.71-1.23,.19-.43,.76-.33,.94-.86,.14-.43,.62-.83,1.04-1.07,1.06-.62,1.46-1.79,2.28-2.61,.3-.3,.37-.85,.67-1.23,.34-.43,.31-.46,.95-.58,.16-.34,.12-.63-.2-.86-.29-.21-.42-.66-.88-.63-.62-.69-1.18-1.42-1.65-2.23-.22-.39-.2-.99-.84-1.06-.06,0-.13-.09-.17-.15-.78-1.3-.78-1.3-1.61-1.87-.4-.27-.59-.68-.65-1.1-.07-.53-.41-.77-.76-1.07-.52-.45-1.01-.94-1.3-1.61-.39-.91-.73-1.23-1.56-2-.38-.35-.72-.79-.95-1.25-.3-.61-.85-1.05-1.05-1.72-.04-.14-.21-.31-.35-.35-.24-.06-.5-.02-.82-.02-.11-.45-.14-.95-.36-1.34-.33-.58-.5-1.28-1.1-1.7-.48-.34-.68-.96-1.23-1.25-.11-.06-.15-.27-.18-.42-.14-.75-.74-1.22-1.09-1.83-.16-.28-.43-.35-.75-.32-.47,.04-.63-.22-.72-.66-.06-.33-.29-.64-.46-.95-.06-.11-.24-.17-.25-.27-.21-1.24-1.23-1.88-1.97-2.74-.71-.83-1.34-1.74-2.12-2.76v-.88c-.51-.24-.96-.45-1.47-.69-.1-.29-.05-.66-.4-.93-.49-.37-.88-.84-.92-1.51,0-.08-.04-.21-.08-.21-.9-.12-.79-1.02-1.19-1.52-.44-.54-.83-1.17-1.4-1.53-.53-.34-.96-.59-.89-1.29,0-.07-.03-.21-.06-.22-.53-.11-.65-.45-.74-.96-.07-.34-.56-.6-.85-.91-.08-.08-.1-.21-.2-.43,.96,.03,1.77-.37,2.68-.33,.64,.03,1.33,.21,1.93-.23,.05-.04,.17-.02,.25,0,.39,.08,.91,.36,1.14,.21,.45-.31,.88-.17,1.32-.21,.42-.03,.85-.04,1.27,0,.68,.08,1.34,.35,2.04,.26,.46,.61,.92,.09,1.28-.09,.34-.17,.56-.21,.89-.04,.2,.11,.47,.11,.71,.11,.63,.01,1.27,.03,1.9,0,.44-.02,.85-.02,1.31-.19,.56-.2,1.3-.22,1.9,.19,1.14-.13,2.32,.26,3.45-.24,.21-.09,.54-.1,.75,0,.96,.44,1.96,.16,2.95,.23,.57,.04,1.22,.41,1.49,.93,.17,.31,.3,.64,.47,.95,.39,.71,.8,1.38,1.39,1.97,.62,.62,1.1,1.39,1.63,2.11,.07,.09,.04,.31,.1,.33,.94,.31,1.12,1.17,1.44,1.93,.26,.63,.78,1.05,1.23,1.52,.28,.29,.55,.54,.59,1.04,.04,.38,.46,.73,.76,1.06,.15,.17,.42,.23,.6,.37,.19,.15,.11,.54,.53,.55,.12,0,.22,.39,.36,.58,.15,.2,.34,.36,.49,.56,.94,1.24,1.51,2.74,2.63,3.86,.12,.12,.14,.37,.16,.56,.02,.25-.03,.48,.37,.5,.14,0,.26,.37,.4,.56,.37,.48,.75,.96,1.13,1.43,.11,.13,.33,.23,.34,.36,.11,.9,.91,.92,1.46,1.21,.1,.36,.11,.78,.32,1.02,.21,.24,.6,.36,.94,.45,.34,.09,.59-.19,.6-.48,.02-.44,.21-.61,.59-.8,.46-.23,.9-.56,1.25-.95,.25-.27,.32-.7,.46-1.07,.07-.18,.07-.47,.19-.54,.51-.28,.72-.77,.96-1.24,0,0,.61-.61,.61-.61,.32-.24,.65-.48,.97-.72,1.06-.77,1.83-1.8,2.58-2.85,.34-.47,.58-1.02,.9-1.61h1c.29-.62,.26-1.33,1.06-1.66,.39-.16,.58-.82,.86-1.26,.15-.23,.22-.6,.43-.69,.85-.37,1.1-1.28,1.76-1.82,.68-.56,1.28-1.23,1.89-1.87,.33-.35,.84-.57,.78-1.21-.01-.13,.52-.25,.62-.46,.45-.94,1.39-1.36,2.03-2.07,.49-.55,1.08-1.08,1.4-1.81,.16-.36,.56-.57,.93-.28,.28,.21,.55,.15,.83,.16,1.22,.01,2.45,.02,3.67,0,.42,0,.8,.03,1.16,.26,.22,.14,.47,.03,.67,.04,1.38,.12,2.71-.4,4.08-.29,.51,.04,1.02,.14,1.71,.23ZM39.9,30.96c-.41-.1-.7-.21-.77-.6-.1-.51-.77,.02-.88-.48-.03-.11-.08-.22-.13-.33-.1-.21-.18-.44-.32-.63-.42-.54-.89-1.02-1-1.75-.05-.29-.28-.64-.53-.77-.57-.29-.91-.84-1.14-1.3-.28-.56-.92-.53-1.15-1.02-.21-.46-.33-1-.65-1.37-.37-.44-.62-.92-.89-1.41-.33-.59-.75-1.13-1.15-1.68-.34-.47-.77-.53-1.3-.27-.38,.19-1.03,.21-1.51,.12-.31-.06-.6-.2-.91-.24-.33-.04-.68,.02-1.01-.02-.26-.03-.63-.28-.75-.18-.39,.33-.97-.01-1.17,.22-.45,.51-.81-.19-1.2,.01,.26,.75,.57,1.21,1.09,1.44,.23,.1,.45,.1,.43,.46-.01,.16,.15,.36,.27,.51,.24,.28,.52,.48,.5,.95-.01,.26,.34,.52,.48,.8,.3,.61,.75,1.11,1.27,1.49,.59,.42,.63,1.13,1.07,1.6,.61,.65,.87,1.52,1.42,2.21,.34,.43,.65,.91,.89,1.4,.21,.42,.67,.11,.87,.36,.34,.44,.64,.91,.9,1.4,.18,.34,.37,.68,.47,1.08,.08,.3,.56,.51,.87,.75,.03,.03,.08,.06,.09,.09,.13,.69,.82,.92,1.17,1.42,.37,.52,.7,1.07,1.08,1.58,.27,.37,.62,.67,.94,1,.31,.31,.4,.84,.64,1.24,.24,.41,.52,.81,.83,1.18,.27,.32,.56,.65,.9,.89,.36,.26,.51,.68,.83,.97,.27,.24,.36,.67,.58,.97,.42,.55,1.05,1.01,1.3,1.62,.29,.73,.92,1.05,1.37,1.57,.06,.06,.16,.11,.17,.18,.14,.73,.82,.79,1.36,1.08,0,.39-.07,.83,.02,1.23,.11,.52,.17,1.13,.93,1.22,.2,.02,.53,.24,.55,.4,.08,.6,.52,.83,.92,1.13,.16,.12,.31,.3,.36,.48,.16,.62,.74,1,.85,1.69,.1,.64,.93,.82,1.29,1.34,.17,.26,.25,.58,.42,.84,.21,.3,.32,.63,.71,.85,.42,.24,.93,.6,.82,1.29-.02,.15,.17,.35,.28,.51,.14,.2,.43,.38,.44,.57,.03,.59,.29,.82,.86,.78,.39-.03,.64,.15,.68,.55,.1,.8,.63,1.29,1.22,1.73,.11,.08,.28,.18,.29,.28,.09,.82,.74,1.31,1.11,1.95,.21,.37,.33,.84,.88,.88,.96,.95,1.94,1.89,1.86,3.44,.82,.02,1.39,.47,1.86,1.05,.46,.57,.84,1.19,.62,2.04,.35,0,.66-.09,.83,.02,.26,.17,.67,.13,.78,.61,.06,.24,.09,.57,.24,.77,.18,.24,.52,.36,.77,.56,.17,.13,.44,.31,.43,.44-.06,.67,.5,.99,.76,1.47,.27,.49,.7,.89,1.05,1.34,.1,.12,.25,.29,.22,.4-.08,.42,.23,.47,.48,.54,.43,.12,.55,.52,.78,.81,.34,.43,.51,1.06,.93,1.36,.51,.36,1.22,.5,1.85,.18,.77-.39,1.64,.15,2.41-.33,.12-.08,.44,.07,.62,.2,.93,.65,1.72-.2,2.84-.06-.55-.59-1.15-.95-1.21-1.38-.11-.72-.66-.66-1.02-.95-.21-.16-.35-.44-.45-.69-.24-.61-.59-1.14-1.08-1.59-.31-.28-.6-.61-.84-.91-.29-.38-.5-.83-.93-1.1-.14-.95-.89-1.51-1.44-2.19-.31-.38-.77-.64-.66-1.27,.03-.14-.27-.36-.44-.51-.21-.19-.49-.3-.67-.52-.59-.72-1.15-1.46-1.71-2.21-.11-.15-.19-.36-.2-.55-.02-.3,0-.5-.41-.6-.25-.06-.4-.48-.61-.73-.21-.25-.4-.58-.67-.7-.32-.15-.44-.35-.63-.63-.41-.65-.88-1.39-1.52-1.75-.75-.42-.78-.94-.74-1.45-.73-.9-1.44-1.66-2-2.51-.24-.38-.44-.51-.85-.54-.57-.05-.65-.17-.7-.78-.01-.15-.02-.31-.02-.38-.39-.18-.67-.31-1.06-.48,.37-.6-.31-.9-.41-1.38-.12-.6-.6-.93-.83-1.44-.24-.53-.73-.81-1.18-1.08-.26-.15-.43-.28-.57-.56-.29-.56-.56-1.19-1.02-1.59-.57-.51-.95-1.07-1.26-1.75-.24-.54-.82-.99-.89-1.52-.1-.81-.79-.76-1.18-1.13-.37-.35-.74-.7-1.07-1.08-.16-.19-.38-.59-.31-.67,.43-.5-.02-.63-.29-.85-.19-.14-.43-.25-.54-.43-.57-.93-1.51-1.59-1.93-2.62-.04-.1-.17-.2-.28-.23-.35-.09-.43-.38-.63-.62-.42-.51-.59-1.14-.98-1.63-.39-.49-.41-1.38-1.37-1.33-.12,0-.33-.35-.38-.56-.07-.27-.02-.57-.02-.88-.69,.01-.73-.6-1.01-.96-.4-.51-.48-1.29-1.27-1.48v-.83Z"/>
</svg>