<?xml version="1.0" encoding="UTF-8"?>
<svg id="Ebene_1" data-name="Ebene 1" xmlns="http://www.w3.org/2000/svg" width="100" height="100" viewBox="0 0 100 100">
  <path d="M52.62,92.91c-.23-.2-.44-.39-.6-.54-.36-.04-.55,.53-.93,.09-.12-.14-.54-.18-.7-.08-.62,.4-1.3,.13-1.93,.24-.47,.08-.68-.22-.97-.51-.26,.25-.53,.5-.79,.75-.95-.37-1.93-.39-2.89-.12-.55,.15-1.02,.2-1.49-.13-.09-.07-.23-.08-.31-.15-.25-.23-.68,.06-.9-.34-.03-.05-.49,.16-.75,.23-.2,.06-.42,.16-.6,.12-.55-.12-.93,.72-1.47,.3-.5-.39-1.04-.51-1.6-.4-.31,.06-.47-.37-.85-.1-.25,.17-.81,.17-1.06,0-.38-.27-.54,.18-.85,.1-.4-.1-.85,.04-1.26-.04-.74-.14-1.46,.46-2.21,.03-.1-.06-.35,.23-.52,.22-.43-.02-.95-.31-1.25-.15-.43,.23-.96,.29-1.18,.12-.6-.44-1.07-.06-1.59,.03-.29,.05-.56,.35-.91-.09-.27-.34-.83-.25-1.25-.02-.4,.22-.79,.51-1.28,.13-.09-.07-.36,.1-.54,.17-.29,.11-.56,.14-.77-.13-.2-.26-.45-.36-.76-.31-.38,.06-.85,.3-1.11,.15-.43-.24-.81-.1-1.21-.14-.42-.04-.85-.04-1.27,0-.44,.04-.93-.21-1.29,.25-.82,.01-1.61-.12-2.31-.55-.38-.24-.72-.47-1.21-.47-.45,0-.78-.2-.98-.66-.11-.24-.4-.56-.63-.57-.61-.03-.47-.76-1.01-.91-.42-.12-.55-.72-.6-1.24-.02-.25-.27-.47-.4-.72-.22-.43-.37-.87-.36-1.38,0-.6-.18-1.2-.22-1.8-.04-.63,.08-1.28-.03-1.9-.13-.71-.36-1.36,0-2.09,.08-.17-.26-.54-.47-.93,.08-.17,.22-.45,.36-.73,.05-.11,.17-.27,.13-.31-.51-.66,.24-1.3,.02-1.96-.12-.37,.15-.83-.25-1.17-.06-.05-.06-.26-.01-.36,.52-1.12,.14-2.3,.24-3.45,.03-.36,0-.69-.21-1.06-.17-.28-.06-.74-.02-1.12,.03-.27,.26-.54,.22-.78-.05-.29-.28-.56-.44-.85,.24-.41,.51-.83,.48-1.4-.03-.55,.05-1.1-.46-1.34,.07-.48,.18-.87,.19-1.26,.02-1.99-.01-3.97,.02-5.96,0-.43-.09-.84-.3-1.15-.24-.35-.21-.69-.23-1.07,.24-.23,.48-.46,.73-.7-.03-.07-.07-.13-.09-.19-.21-.46-.46-.91-.61-1.39-.08-.25-.08-.68,.08-.82,.73-.67,.44-1.22-.15-1.81,.47-.76,.98-1.48,.84-2.46-.07-.51-.3-.89-.56-1.37,.52-.77,.74-1.58,.32-2.56-.23-.52,.09-1.22-.27-1.79-.07-.1,.13-.35,.17-.54,.14-.63,.39-1.22,.33-1.9-.06-.63,0-1.27-.02-1.9-.02-.35,.12-.72-.19-1.07-.14-.16-.12-.64,.02-.81,.38-.44,.08-.75-.08-1.1-.16-.35-.5-.7-.06-1.08-.02-.81,.72-1.6,.06-2.43,.08-.44-.15-.9,.13-1.34,.11-.17,.14-.54,.03-.66-.65-.73-.32-1.49-.13-2.25,.06-.23,.2-.44,.21-.67,.02-.4-.02-.78-.2-1.18-.13-.29,.16-.75,.2-1.15,.05-.4-.4-.73-.24-1.16,.42-1.17,.22-2.38,.24-3.57,.03-1.23,0-2.45,0-3.68,0-.86,.4-1.68,.27-2.56-.03-.2,.14-.44,.24-.65,.25-.53,.41-1.15,.79-1.56,.39-.42,.81-.84,1.21-1.26,.38-.39,.78-.78,1.16-1.17,.36-.04,.69,.03,1.06-.23,.4-.28,.95-.47,1.44-.46,.9,.02,1.77-.74,2.7-.09,.11,.08,.37,.07,.49,0,.7-.41,1.45-.22,2.18-.23,.43,0,.88-.14,1.31,.21,.2,.16,.75,.15,.97-.01,.61-.47,1.41,.08,1.98-.46,.06-.05,.27-.02,.35,.04,.47,.38,1,.54,1.59,.45,.56-.09,1.18,.27,1.68-.24,.04-.04,.24,.02,.33,.09,.31,.21,.55,.18,.89,0,.2-.11,.57,.14,.87,.15,.22,0,.44-.19,.67-.19,.21,0,.42,.17,.64,.2,.57,.07,1.87-.14,2.55-.37,.14-.05,.35-.13,.42-.07,.92,.79,1.93-.05,2.89,.16,.26,.06,.61-.44,.92-.44,.31,0,.6,.37,.94,.45,.36,.09,.82,.15,1.12-.01,.45-.24,.85-.03,1.19,.06,.68,.18,1.3,.37,1.96-.03,.06-.04,.18-.03,.25,0,.86,.42,1.71,.15,2.59,.03,.62-.09,1.27,0,1.93,.17,.87,.22,1.85,.07,2.78,.04,.14,0,.26-.19,.4-.24,.47-.16,.97-.56,1.4,.11,.06,.1,.33,.18,.44,.12,.79-.42,1.63-.17,2.44-.25,.15-.01,.29-.12,.44-.15,.14-.03,.35-.08,.42,0,.34,.31,.79,.24,1.07,.13,.43-.17,.78-.33,1.18,0,.48-.54,.75,.16,1.14,.19,.23,.02,.55,.11,.67,0,.44-.42,.75,0,1.11,.1q.67-.53,1.59-.25c1.19,.35,1.99,.35,3.59,0,.08-.02,.19-.03,.25,0,.61,.36,1.19,.23,1.83,.02,.61-.2,1.33,.19,1.93-.24,.59,.57,1.47-.14,2.08,.46,.09,.09,.44,.03,.57-.08,.26-.21,.42-.2,.63,.04,.04,.05,.17,.09,.22,.06,.9-.5,1.88-.14,2.82-.24,.25-.03,.63,.1,.74-.02,.41-.46,.79-.1,1.06,.05,.36,.2,.63,.35,.98,.05,.81,.16,1.54-.68,2.44-.11,.49,.31,1.04-.24,1.62-.51,.48,.54,1.16,.57,1.87,.55,1.36-.04,2.61,.46,3.67,1.22,.71,.51,1.76,.5,2.16,1.55,.32,.84,.92,1.56,1.37,2.35,.6,1.03,.58,1.03,.28,2.35-.06,.28-.02,.59-.02,.88,0,2.87,0,5.75,0,8.62,0,.25,.05,.52-.01,.76-.09,.35-.36,.68-.36,1.02,0,.32,.26,.64,.36,.98,.03,.08-.06,.23-.13,.32-.19,.27-.18,.51,.02,.79,.09,.11,.07,.31,.12,.46,.14,.44-.56,.78-.16,1.25,.35,.41,.15,.89,.14,1.33,0,.51-.2,1.03-.22,1.54-.02,.48,.03,.94,.18,1.43,.16,.52-.18,1.18-.18,1.78,0,.56,.47,1.14,.2,1.65-.26,.51-.37,.89,.03,1.33-.1,1.07,.18,2.15-.17,3.22-.17,.52-.2,1.1,.15,1.65,.21,.33,.45,.69,.08,1.21-.24,.34-.1,.99-.04,1.48,.03,.2,.31,.36,.49,.56-.4,.25-.54,.59-.53,1.06,0,.6,.17,1.23-.22,1.81-.07,.11,.08,.37,.14,.56,.02,.07,.11,.16,.09,.21-.2,.44-.46,.85-.07,1.35,.28,.36-.16,.92,.28,1.28-.38,.69-.15,1.44-.19,2.15-.04,.72,.01,1.44-.02,2.15-.01,.35,.11,.72-.19,1.07-.14,.15-.11,.63,.03,.81,.29,.36,.06,.74,.18,1.08,.14,.41-.61,.72-.04,1.22,.26,.23,.12,.88,.34,1.23,.26,.42,.23,.73,.06,1.14-.21,.5-.21,1.02,.02,1.54,.09,.21,.18,.53,.09,.71-.42,.79-.15,1.63-.24,2.44-.04,.44,.12,.89-.23,1.31-.12,.15-.05,.63,.1,.81,.69,.76,.17,1.53,.02,2.25-.09,.42-.24,.74,.02,1.13,.08,.12,.07,.31,.09,.47,.06,.48-.61,.96,0,1.44v3.42c0,.17-.07,.39,.01,.5,.49,.65,.16,1.19-.15,1.77-.1,.18-.05,.45-.02,.68,.03,.23,.22,.51,.15,.68-.49,1.22-.08,2.48-.29,3.75-.59,.78-1.17,1.67-1.87,2.45-.45,.5-1.03,.93-1.62,1.27-1.36,.78-2.77,1.43-4.41,1.29-.23-.02-.46,.09-.7,.14-.16,.03-.36,.15-.46,.09-.78-.44-1.63-.21-2.44-.22-.51,0-1.03,.18-1.54,.23-.5,.04-1.02-.02-1.52,.02-.27,.02-.52,.17-.78,.24-.63,.16-1.18-.21-1.77-.31-.15-.02-.3-.21-.42-.18-.49,.1-.88,.33-1.47,.03-.47-.24-1.16-.05-1.75-.05-.55,0-1.1-.03-1.65,0-.81,.05-1.63-.16-2.45,.22-.32,.15-.82,.01-1.2-.1-.21-.06-.32-.15-.54,0-.15,.1-.39,.15-.57,.13-.43-.05-.96-.35-1.27-.2-.46,.23-.88,.16-1.31,.21-.08,0-.19-.03-.25,0-.35,.23-.46-.58-.89-.18-.21,.2-.56,.27-.85,.37-.15,.05-.34,.1-.48,.05-1.38-.53-2.81-.14-4.21-.22-.32-.02-.65,.32-1.03,.23-.19-.04-.46-.04-.56-.17-.41-.55-.84-.32-1.29-.09-.17,.09-.34,.19-.53,.29Zm29.21-42.87c.17-.55,.34-1.14-.2-1.68-.11-.11-.03-.4-.03-.61-.02-.65-.71-2.38-1.15-2.82-.4-.41-.8-.81-.89-1.41-.59-.18-.92-.68-1.32-1.08-.19-.19-.3-.46-.44-.7-.06-.1-.04-.29-.11-.32-.56-.3-1.27-.36-1.57-1.05-1.09-.1-1.83-.79-2.55-1.57-.43,.24-.79,.38-1.33,.1-.4-.21-1.01-.62-1.55-.06-.06,.06-.31-.03-.46-.08-.52-.17-1.03-.36-1.55-.53-.14-.05-.31-.12-.43-.08-.22,.07-.4,.28-.62,.33-.19,.04-.41-.13-.61-.12-.18,.01-.35,.16-.53,.24-.17,.08-.44,.26-.5,.21-.45-.4-1.04,0-1.42-.24-.44-.27-.72,.22-1.08,.03-.33,.53-.8-.35-1.14,.11-.91,.14-1.6,.78-2.49,1.03-1.82,.52-3.1,1.91-4.35,3.27-.01,.65-.65,.63-1,.91-.05,.04-.2-.06-.4-.13,.23-.3,.42-.56,.61-.81-.25-.6-.32-1.15-.26-1.84,.03-.38-.02-.7-.34-1-.79-.74-2.38-1.24-3.62-.95-.21,.05-.3-.01-.46-.02-.85-.06-1.76-.24-2.53,.23-.43,.27-.68,.26-1.08,0-.36-.24-.82-.26-1.28-.29-1.29-.08-2.54,.23-3.8,.33-.02,.07-.04,.16-.07,.22-.38,.71-.83,1.39-.27,2.23,.12,.19,.03,.5-.23,.65-.31,.18-.34,.5-.25,.77,.25,.79,.46,1.55,0,2.33-.03,.05-.01,.19,.03,.23,.39,.34,.14,.79,.22,1.18,.08,.43,.21,.86,.24,1.29,.04,.52,.15,1.14-.26,1.52-.54,.51-.05,.91,.04,1.32,.11,.5-.61,.86-.16,1.38,.08,.1,.11,.29,.08,.42-.27,1.24-.25,1.34,.03,2.74,.07,.37-.02,.79-.1,1.2-.16,.79-.05,1.63-.03,2.45,0,.23,.2,.58,.11,.67-.34,.33-.19,.71-.2,1.07-.03,.76,.02,1.52-.02,2.28-.05,.93,.29,1.72,.68,2.41-.15,.44-.35,.84-.4,1.25-.08,.6,.07,1.22-.25,1.8-.09,.15-.07,.47,.04,.6,.38,.46,.21,.98,.18,1.44-.04,.57-.48,1.13,.01,1.7,.03,.03-.14,.19-.15,.3-.09,.76-.5,1.48-.33,2.27,.13,.61,.45,1.2,.02,1.84-.07,.11,.16,.42,.23,.64,.09,.31,.55,.62,0,.93,0,.97-.07,1.95,.04,2.91,.04,.36,.19,.92,.73,1,.76,.12,1.53,.24,2.3,.24,.77,0,1.57,.2,2.31-.23,.13-.07,.35-.06,.5,0,.55,.21,1.08,.45,1.65,.7,.39-.27,.83-.61,1.4-.2,.06,.04,.18,.04,.25,0,.53-.27,1.05,0,1.57-.02,.62-.02,1.11,.25,1.67,.51,.11-.23,.19-.41,.27-.59,.17-.35,.27-.77,.53-1.04,.69-.72,.77-1,.52-2-.15-.62-.24-1.27-.28-1.91-.02-.3,.22-.6,.22-.91,.02-1.77,.02-3.55,0-5.32,0-.15-.14-.29-.16-.44-.02-.23,0-.46,.02-.69,.03-.24,.14-.47,.14-.7,0-.44,.01-.86-.2-1.31-.15-.32,.15-.84,.2-1.27,.02-.18-.11-.38-.13-.57-.03-.31-.05-.63-.03-.94,.01-.19,.16-.37,.17-.56,.01-1.82,.01-3.63,0-5.45,0-.18-.26-.47-.21-.5,.22-.2,.16-.46,.25-.67,.13-.3,.18-.6,.26-.91,.2-.75,.32-1.57,.76-2.21,.41-.58,.52-1.17,.48-1.74,.37-.54,.87-.84,1.14-1.4,.21-.43,.65-.79,1.06-1.07,.44-.31,.96-.54,1.47-.72,.37-.12,.71-.39,1.15-.3,.55,.12,.98-.22,1.43-.48,.36,.34,.67,.83,1.24,.26,.09-.09,.35-.08,.48-.02,.71,.33,1.38,.75,2.11,1.03,.67,.26,.83,.96,1.33,1.34,1.14,.87,1.11,2.25,1.52,3.43,.1,.28-.2,.69-.12,.99,.08,.33,.41,.58,.59,.89,.07,.13,.06,.32,.06,.48,0,.4-.02,.78-.21,1.18-.13,.29,.18,.75,.19,1.14,0,.3-.24,.61-.21,.91,.03,.3,.3,.55,.24,.91-.04,.27-.03,.61,.1,.84,.34,.6,.12,1.01-.33,1.4-.12,.1-.23,.23-.32,.32,.11,.29,.33,.63,.26,.7-.31,.33-.27,.53,.04,.83,.15,.15,.22,.43,.23,.65,.06,1.14-.04,2.26-.46,3.36-.12,.32-.06,.75,.05,1.09,.25,.81,.47,1.62,.43,2.49-.02,.43-.08,.87,.21,1.31,.16,.25-.04,.67-.17,1.03-.1,.28,.31,.72,.2,1.14-.02,.07-.12,.12-.14,.2-.12,.47-.3,.95,.13,1.37-.19,.2-.38,.41-.55,.59,.29,.54,.67,.96,.55,1.53-.1,.48,.11,.93,.36,1.24,.35,.43,.83,.97,1.32,1.04,.93,.14,1.93,.1,2.86-.08,.68-.13,1.26-.17,1.95,.18,.21-.44,.6-.64,1.1-.55,.59,.11,1.2,.16,1.75,.36,.34,.12,.55,.08,.88,0,.52-.13,1.07-.72,1.65-.11,.55-.22,1.21-.1,1.69-.51,.44-.38,.82-.81,1.2-1.2-.4-.74-.77-1.47-.51-2.15,.21-.54,.15-1.04,.2-1.56,.03-.25-.1-.6,.02-.74,.52-.59-.13-.91-.24-1.36,.32-.34,.82-.64,.26-1.22-.11-.11-.11-.44-.02-.6,.25-.47,.04-.9-.13-1.27-.23-.49-.2-1-.09-1.45,.15-.6,.5-1.14,.77-1.71-.49-.5-1-.92-1.12-1.61-.02-.12-.17-.14-.09-.37,.2-.56,.32-1.15,.38-1.74,.06-.63,0-1.27,.02-1.9,0-.29-.06-.53-.23-.8-.2-.32-.39-.87-.24-1.13,.49-.83-.09-1.81,.46-2.61,.05-.07,.02-.28-.05-.34-.39-.35,0-.88-.22-1.17-.35-.49,.16-.67,.2-1,.04-.31,.08-.67-.05-.93-.63-1.25-.72-2.57-.63-3.92,.02-.34,0-.68,0-1.08-.31-.24-.65-.51-1.04-.81Zm-61.85-9.02c-.34,.8-.38,1.04-.11,1.4,.51,.68,.56,1.33-.03,1.99-.23,.25-.17,.49-.02,.78,.2,.38,.27,.82,.48,1.19,.09,.17,.12,.21,0,.37-.5,.66-.4,1.31,.03,1.99,.14,.22,.51,.46,.16,.88-.22,.27,.22,.61,.2,.89-.02,.28-.36,.52-.46,.81-.08,.23-.08,.52,0,.75,.19,.55,.45,1.08,.71,1.69-.74,.21-.37,.92-.5,1.47-.14,.05-.28,.11-.49,.19,.13,.4,0,.8,.2,1.28,.28,.64,.24,1.42,.33,2.14,.08,.68-.16,1.39,.23,2.06,.11,.19,.06,.53-.13,.81-.21,.31-.42,.8-.31,1.1,.23,.65,.11,1.31,.25,1.93,.09,.39,.3,.73,.16,1.15-.16,.07-.33,.14-.61,.25,.31,.33,.52,.56,.75,.81-.13,.16-.26,.25-.26,.34,0,.48-.01,.97,.06,1.45,.08,.54-.48,.83-.4,1.39,.19,1.39-.28,2.83,.26,4.21,.05,.13,0,.34-.09,.46-.4,.57,.09,1.31-.39,1.88-.13,.15-.1,.53,0,.74,.28,.59,.23,1.19,.24,1.8,.64,.61,.06,1.23-.03,1.81-.1,.68-.04,1.11,.52,1.42,.44,.25,.89,.51,1.33,.76,.17-.1,.33-.2,.55-.34,.17,.24,.32,.44,.38,.52,.76-.06,1.26-.76,2-.21,.16,.12,.55-.02,.81-.11,.52-.17,1.03-.21,1.54,.02,.11,.05,.28,.14,.32,.1,.77-.69,1.33,.07,2.02,.28,.53-.48,1.19-.58,1.9-.53,.62,.05,1.14-.14,1.72-.45,.6-.33,.79-.75,.86-1.3,.06-.48-.11-1.02,.44-1.35,.07-.04,.12-.26,.07-.33-.37-.56-.14-1.2-.28-1.79-.28-1.22-.23-1.27-.02-2.48,.11-.66,.3-1.4-.18-2.04,.27-.7,.4-1.43,.13-2.12-.16-.41-.15-.63,.12-.98,.42-.54,.57-1.16,.17-1.81-.14-.23-.28-.47-.43-.72,.37-.24,.54-.57,.51-1.04-.04-.67-.05-1.36,0-2.03,.04-.44-.09-.83-.29-1.15-.29-.48-.29-.83-.03-1.34,.14-.27,.25-.72,.09-1.18-.12-.35-.25-.9,.15-1.3,.06-.06,.06-.28,0-.33-.37-.31-.05-.77-.22-1.05-.23-.37,.04-.64,.01-.94-.02-.32,.12-.64-.15-.96-.13-.15-.18-.54-.08-.7,.4-.62,.16-1.29,.24-1.94,.06-.52-.09-1.03,.21-1.56,.19-.33,.12-.88-.21-1.27-.2-.24-.19-.5-.03-.81,.1-.2,.05-.48,.29-.64,.3-.19,.36-.56,.19-.76-.33-.39-.16-.8-.2-1.19-.04-.37,.09-.81-.07-1.11-.4-.75-.21-1.42,.15-2.06,.19-.34,.22-.56,0-.88-.15-.22-.2-.51-.28-.77-.17-.56-.35-1.13,.13-1.57-.32-.85-.98-1.33-1.56-1.84-.3-.26-.79-.5-1.24-.31-.26,.11-.5,.21-.78,.26-.24,.05-.43,.34-.59,.48-.66-.27-1.23-.7-1.81-.72-1.1-.03-2.24-.29-3.32,.2-.12,.06-.38,.03-.46-.07-.25-.27-.55-.19-.82-.17-.93,.09-1.85,.21-2.75,.32-.33,.84-1.51,.5-1.81,1.34l.5,.5Zm12.01-6.74c.65-.56,1.11-1.33,2.03-1.55,.24-.06,.45-.34,.4-.7-.08-.59,.49-.86,.71-1.3,.95,.07,.79-.61,.81-1.19,.03-.73-.08-1.46,.23-2.18,.3-.7,.35-1.4,.07-2.21-.2-.57-.48-1.23-.3-1.9,.11-.45-.16-.79-.36-1.11-.87-1.34-2.13-2.34-3.21-3.48-.51-.03-.69-.63-1.27-.63-1,0-1.84-.63-2.79-.89-.34-.55-1.02-.5-1.34-.31-.46,.28-.97,0-1.29,.25-.48,.37-.97,.18-1.44,.2-.61,.02-1.1,.23-1.5,.67-.63,.7-1.42,1.19-2.24,1.63-.17,.09-.48,.23-.47,.34,.04,.65-.65,.8-.82,1.3-.05,.15-.26,.28-.25,.4,.13,.97-.42,1.62-1.03,2.15,0,.3-.05,.53,0,.72,.25,.74,.44,1.46,0,2.21-.06,.1,0,.36,.08,.45,.51,.55,.39,1.22,.41,1.86,.01,.24,0,.54,.13,.7,.54,.65,.9,1.42,1.46,2.08,.53,.62,1.19,1.11,1.67,1.79,.28,.41,.82,.63,1.26,.94,.27-.07,.62-.28,.86-.19,.28,.11,.46,.48,.69,.75,.18-.09,.36-.27,.53-.26,.39,.03,.78,.15,1.16,.24,.39,.08,.83-.19,1.2,.18,.09,.09,.37,.13,.46,.06,.44-.34,.95-.17,1.42-.25,.54-.09,1.16-.13,1.58-.43,.39-.28,.73-.32,1.13-.32Z"/>
</svg>