<?xml version="1.0" encoding="UTF-8"?>
<svg id="Ebene_1" data-name="Ebene 1" xmlns="http://www.w3.org/2000/svg" width="35.28mm" height="52.92mm" viewBox="0 0 100 150">
  <path d="M62.84,84.4c0-.3-.06-.53,.01-.71,.27-.68,.38-1.39,.53-2.1,.09-.44,.42-.83,.68-1.31v-1.43c.63-.42,.3-1.19,.47-1.76,.41-.21,.72-.22,1.04-.05,.83,.43,1.55,1.02,2.35,1.5,1.17,.7,2.14,1.63,3.07,2.71v.95c0,.47-.43,.79-.39,1.32,.03,.37-.18,.75-.38,1.46v1.31c-.29,.77-.52,1.38-.85,2.27v1.27c-.27,.31-.49,.57-.76,.88v1.76c-.22,.43-.43,.83-.64,1.25-.28-.24-.54-.46-.87-.74h-1.47c-.25-.17-.42-.29-.63-.43h-2.68c-.59-.7-1.48-.29-2.24-.5-.25-.57-.09-1.12-.14-1.68,1.22-1.8,1.68-4,2.87-5.96Z" style="fill: #626262;"/>
  <path d="M66.3,131.86c.64,0,2.02-.47,2.49-.47,.49-.25,.89-.46,1.33-.68h2.04c.94-.36,1.76-.57,2.46-1.04,.71-.46,1.54-.65,2.3-1,.76-.36,1.35-1.02,2.07-1.14,1.38-1.25,2.55-2.49,3.25-4.06v-2.6c-.47-.41-.25-1.09-.72-1.53-.39-.36-.56-.96-.93-1.62-.36-.34-.87-.82-1.3-1.23-.24-.5-.43-.9-.64-1.36-.46-.33-.79-.86-1.4-1.15-.6-.29-1-.97-1.59-1.28-.56-.29-.79-1.02-1.45-1.07-.46,.41-1.3-2.78-1.69-2.42,.12-.32,.16-.68,.24-1.05h-2.9c-.7-.25-1.27-.46-1.98-.72h-1.3c-.5-.26-.9-.46-1.34-.68h-.67c-.93-.34-1.58-.9-2.45-1.06-.47-.09-.99-.31-1.3-.75-.28-.41-.79-.12-1.16-.33-.37-.44-.75-.88-1.08-1.27-.33-.04-.56-.06-.71-.08-.39-.25-.73-.44-1.04-.69-.36-.28-.68-.61-1.03-.91-.29-.24-.46-.64-.95-.75-.62,1.53-2.25,2.23-2.96,3.66-.38,.18-.73,.36-1.15,.56-.23,.75-.74,1.21-1.26,1.49-.63,.34-1.06,.85-1.57,1.3-.34,.3-.66,.63-.94,.89-.26,.01-.44,.02-.64,.03-.32,.3-.63,.66-1.01,.91-.37,.25-.81,.37-1.21,.58-.35,.19-.66,.43-1,.62-.59,.33-1.18,.65-1.77,.97-.44-.11-.79,.16-1.1,.37-.44,.31-.98,.23-1.41,.52-.47,.31-1.01,.1-1.44,.18-.46,.24-.86,.45-1.28,.68h-1.17c-.21,.13-.4,.25-.59,.37h-1.88c-.18,.12-.33,.22-.47,.32-.7,.09-1.07-2.57-1.77-2.27-.43-.92-1.36,.5-1.83,.03-.93-.49-1.47,.29-2.18,.18-.25,.22-.52,.44-.77,.66-.85-.01-1.44,.61-2.18,.85-.06,.61-.57,.86-.93,1.21-.28,.04-.55,.08-.61,.09-1.36,.98-2.06,2.26-3.02,3.33v.54c-.21,.25-.43,.51-.69,.83v1.24c-.14,.21-.24,.36-.33,.5-.09,.7,.61,1.25,.35,1.82,.44,.75,.82,1.37,1.19,2,.39,.65,1.09,1.07,1.47,1.68,.35,.55,.82,.94,1.2,1.43,.4,.51,1.02,.73,1.46,1.15,.47,.44,1.02,.71,1.56,1.05h.7c.59,.27,1.03,.59,1.51,.66,.51,.08,.88,.49,1.46,.41,.54-.07,1.03,.46,1.63,.32,.42,.39,.94,.35,1.43,.35,.21,.13,.4,.25,.59,.36h3.27c.19,.13,.33,.22,.57,.39,.58-.05,1.16-.67,2.04-.27,.02,.01,.21,.12,.38,.23,.25-.14,.45-.25,.66-.37h2.9c.22-.13,.41-.25,.57-.35,.31,.14,.56,.25,.79,.35,.23-.13,.42-.24,.62-.36h1.29c.62-.2,.99-.32,1.37-.44,.22-.42,.45-.87,.65-1.25,1.41-1.53,2.93-2.76,4.94-3.26,.22-.19,.44-.38,.65-.56,.35-.02,.69-.04,.99-.06,.3-.25,.56-.46,.86-.71,.22,.13,.41,.24,.61,.36h1.58c.3-.15,.5-.25,.68-.33,.36,.28,.67,.52,1,.78,.36-.28,.66-.53,.93-.74h2.94c1.26,.68,1.75,2.19,2.43,3.03" style="fill: #636363;"/>
  <path d="M23.34,112.27c.32-.18,.64-.36,1.06-.6-.58-.23-1.02-.41-1.67-.67-.43-.32-1.06-.75-1.65-1.24-.68-.57-1.24-1.28-1.64-2.05-.39-.76-.61-1.63-.77-2.48-.08-.44-.37-.8-.37-1.25,0-.39,0-.78-.04-1.16-.03-.21-.17-.4-.25-.59,.22-.57,.44-1.14,.12-1.74-.07-.14-.1-.31-.12-.47-.01-.1-.02-.25,.04-.32,.47-.61-.02-1.45,.53-2.02-.07-.12-.12-.21-.22-.38,.08-.3,.2-.66,.27-1.02,.08-.37-.08-.78,.18-1.13,.26-.35,.07-.76,.16-1.13,.02-.11,0-.26,.06-.32,.41-.4,.19-.96,.37-1.42,.25-.66,.39-1.37,.71-1.99,.66-1.26,1.13-2.61,1.99-3.77,.32-.44,.53-.96,.81-1.42,.43-.7,.95-1.34,1.55-1.92,.56-.53,.91-1.23,1.43-1.8,.99-1.07,2.26-1.78,3.26-2.81,.6-.11,.85-.68,.99-.77,1-.43,1.65-.7,2.46-1.04,.14-.18,.39-.48,.57-.7,1.31-.58,2.5-1.11,3.69-1.64,.15-.07,.29-.17,.45-.2,.64-.14,1.28-.27,1.92-.37,.32-.05,.65-.05,.91-.07,.26-.3,.18-.58,.18-.85,0-.44,.08-.88-.12-1.32-.87,.29-1.71,.65-2.63,.73-.89-.04-1.57-.57-2.35-1.07-.54-.64-.63-1.56-1.02-2.33-.41-.83-.38-1.81-.86-2.62,.06-.89-.4-1.7-.36-2.59,.04-.89,0-1.78,0-2.66,.5-.52,.16-1.32,.63-1.85,.06-.68,.34-1.31,.75-1.79,.41-.48,.81-1.01,1.39-1.47,.95-.12,1.9-.66,2.92-.45,.3-.15,.54-.28,.8-.41,.43-1.28,.85-2.57,1.84-4.06,.56-.48,1.44-1.23,2.27-1.94,2.07-1.37,4.45-1.78,6.76-2.51,.2,.07,.45,.17,.75,.28,.54-.18,1.11-.37,1.69-.57,.22,.07,.46,.22,.72,.23,.76,.05,1.51,.12,2.27,.27,.84,.17,1.55,.54,2.23,.97,.65,.4,1.22,.93,1.76,1.35,.24,.49,.36,.94,.63,1.27,.36,.44,.54,.94,.74,1.44,.14,.36,.4,.69,.45,1.05,.07,.5,.26,.95,.33,1.43,.07,.43,.01,.89,.01,1.37,.25,.2,.5,.4,.9,.72,.27,.7,1.28,1.12,1.46,2.36v2.63c-.32,.82-.6,1.53-.84,2.14,.07,.51,.12,.93,.2,1.35,.07,.37,.19,.73,.28,1.1-.05,.1-.11,.19-.19,.34,.04,.1,.1,.24,.18,.44-.16,.8-.41,1.62-.92,2.34-.02,.27-.04,.55-.06,.86-.08,.11-.17,.25-.28,.37-.71,.77-1.45,1.49-2.45,1.92-.54,.23-1,.65-1.56,1.03,.17,.21,.3,.36,.45,.54,.27,.02,.54,.03,.82,.05,.1,.04,.21,.07,.3,.12,1.08,.53,2.13,1.11,3.36,1.22,.2,.02,.39,.18,.59,.28,.74,.35,1.5,.66,2.21,1.06,1.09,.62,2.23,1.16,3.17,2.03,1.1,.46,1.67,1.6,2.72,2.13,.23,.12,.45,.36,.57,.59,.36,.71,.99,1.19,1.49,1.76,.43,.49,.9,.93,1.22,1.54,.5,.96,1.27,1.78,1.77,2.75,.97,1.84,1.95,3.68,2.8,5.58,.53,1.18,.96,2.43,1.16,3.72,.07,.44,.41,.77,.36,1.25-.05,.44-.01,.89,0,1.33,0,.78-.06,1.56,.02,2.33,.1,.86-.45,1.58-.41,2.42,0,.19-.16,.41-.29,.58-.44,.62-.86,1.27-1.37,1.83-.4,.44-.92,.78-1.43,1.11-.5,.33-1.02,.65-1.58,.85-.71,.25-1.46,.38-2.16,.55-.14,.29-.27,.53-.39,.78,.3,.6,1,.6,1.52,.98,.19,.79,1.01,.85,1.75,1.4,.41,.58,1.35,.99,1.73,1.91,.02,.05,.07,.1,.11,.12,.44,.15,.77,.46,1.02,.82,.83,1.15,1.69,2.29,2.41,3.52,.46,.79,.77,1.69,.75,2.65,0,.6-.07,1.21,.25,1.73-.09,.34-.2,.65-.25,.96-.04,.27,0,.55,0,.79-1.16,1.45-2.07,3.04-3.52,4.24-.18,.03-.4,.06-.66,.1-.38,.35-.79,.73-1.26,1.17-.98,.1-1.64,1.13-2.74,1.17-.87,.59-1.95,.68-2.82,1.29h-1.44c-.19,.12-.33,.21-.51,.33h-2.47c-.18,.13-.36,.26-.5,.36-.21,.48-.04,.92-.06,1.35-.02,.44,0,.89,0,1.25-.33,.62-.6,1.16-.88,1.68-.46,.33-.91,.65-1.37,.98-.4,.06-.83,.13-1.35,.21-.51-.28-1.28-.1-1.9-.51-.54-.36-1.14-.63-1.72-.95-.51,.51-1.02,1.02-1.49,1.49-.41,.13-.77,.24-1.42,.45-.19,0-.72,.12-1.17-.02-.83-.26-1.68-.44-2.51-.68-1.1-.91-2.54-1.3-3.55-2.37-.67-.71-1.49-1.27-2.26-1.91-1.09,.44-2.17,.84-3.37,.63-.2,.1-.39,.2-.67,.35h-9.38c-.21-.11-.41-.29-.6-.28-.95,.03-1.82-.35-2.76-.41-.9-.06-1.78-.45-2.68-.63-.26-.05-.49-.24-.75-.3-.32-.07-.66-.06-.97-.08-.45-.22-.72-.71-1.33-.65-.23,.02-.5-.21-.72-.38-.4-.29-.75-.67-1.31-.61-.77-.58-1.84-.8-2.27-1.81-.65-.21-.68-1.14-1.45-1.24-.13-.02-.28-.19-.36-.32-.38-.6-.82-1.18-1.09-1.83-.28-.68-1.04-1.01-1.18-1.77-.02-.1-.1-.19-.15-.29-.1-.64,.1-1.32-.27-1.93-.03-.04,.18-.24,.16-.27-.35-.43,.16-.8,.08-1.22-.07-.37-.07-.79,.03-1.16,.18-.68,.33-1.42,.72-1.98,.81-1.16,1.49-2.43,2.62-3.35,.38-.31,.72-.65,1.16-.91,.71-.41,1.33-.97,1.99-1.46,.06,0,.12,0,.18,0Zm19.32-45.19v1.47c.13,.22,.22,.36,.29,.51,.02,.05,.01,.11,.01,.16-.06,2.73-.05,2.91,.28,3.77-.48,.5-.05,1.19-.41,1.81-.28,.3-.62,.66-.92,.98-.37,.03-.66-.01-.91,.08-1.23,.45-2.47,.82-3.77,1-.48,.37-1.21,.25-1.6,.79-.69,.11-.99,.82-1.65,1.04-.99,.33-1.82,.97-2.66,1.58-.25,.18-.6,.23-.94,.36-.73,.7-1.48,1.44-2.25,2.17-.24,.22-.57,.35-.76,.6-.44,.56-.8,1.17-1.23,1.74-.79,1.04-1.52,2.13-2.21,3.25-.8,1.32-1.51,3.01-2.01,4.79-.13,.48-.18,.99-.36,1.41-.21,.49-.07,1.01-.26,1.44-.47,1.07-.29,2.17-.35,3.26-.02,.33,.09,.72-.04,.99-.44,.85-.17,1.74-.24,2.61-.02,.27-.01,.57,.09,.81,.48,1.15,.67,2.43,1.47,3.42,.64,.69,1.29,1.38,1.92,2.05h1.55c.64,.16,.95,.3,1.26,.31,1.44,.02,2.88,.01,4.3,.01,.83-.32,1.64-.63,2.59-1,.22-.01,.61-.03,.95-.05,1.2-.63,2.36-1.24,3.63-1.91,.15-.01,.43-.04,.78-.06,.32-.39,.67-.81,1.04-1.25,.97-.05,1.85-.48,2.62-1.11,.72-.59,1.49-1.11,2.3-1.55,.78-.42,1.5-.9,2.13-1.53,.23-.24,.45-.57,.74-.66,.91-.29,1.02-1.45,1.93-1.7,.18-.76,.95-1.06,1.28-1.65,.25-.82,.59-1.58,.71-2.37,.13-.81,.05-1.66,.05-2.49,0-.56,.03-1.12-.05-1.66-.06-.42-.24-.84-.43-1.22-.27-.54-.26-1.05,.03-1.57,.07-.13,.05-.32,.08-.53-.09-.17-.19-.36-.28-.56-.09-.2,.1-.52-.21-.63-.26,.62-.51,1.22-.88,2.1v1.65c-.22,.2-.38,.34-.51,.45-.39,.02-.72,.11-1.01-.12-.1-.47-.2-.94-.3-1.46,.4-.53,.12-1.24,.27-1.91q.47-.9,.48-1.45c-.37,.24-.81,.52-.82,.96-.01,.59-.57,.8-.74,1.44,.25,.86-.27,1.77-.4,2.85-.95,.71-2,1.38-3.12,1.96-.27,.14-.63,.11-.92,.3-.46,.28-.96,.66-1.46,.7-.69,.06-1,.69-1.6,.82-.1,.02-.17,.14-.27,.18-.81,.34-1.57,.76-2.3,1.26-.81,.55-1.72,.95-2.54,1.48-1.33,.86-2.82,1.47-3.89,2.64h-.6c-.17-.17-.36-.36-.51-.52,.24-1.17,1.23-1.89,1.43-3.1,.54-.38,.99-.98,1.16-1.68,.23-.98,.85-1.76,1.23-2.66,.07-.18,.26-.37,.66-.3,.11,.1,.31,.29,.46,.42,.16,.76-.09,1.48,.13,2.17,.54-.29,1.02-.55,1.5-.81,.23-.6,.78-.68,1.3-.85,.52-.17,.99-.44,1.43-.79,.42-.33,1-.34,1.44-.73,.39-.35,.96-.5,1.5-.76,.39-.02,.82-.05,1.16-.06,.47-.29,.73-.69,1.24-.69,.18,0,.36-.21,.47-.28,.19-.5,.37-.89,.5-1.3,.15-.47,.22-.95,.38-1.42,.41-1.2,.87-1.95,1.78-2.9,.34-.36,.71-.7,1.05-1.04h1.98c.41,.36,.78,.68,1.12,.98,.64,.02,1.06-.45,1.62-.44,.14,0,.28-.16,.47-.27,.54,.13,1.18-.16,1.73,.26,.57-.22,1.15-.26,1.82-.11,.22,.24,.5,.51,.72,.82,.37,.54,.72,1.1,1.01,1.69,.21,.41,.48,.74,.85,.98,.35-.96,.7-1.93,1.16-3.18v-1.02c.36-.9,.66-1.66,1-2.49,.01-.19,.03-.46,.04-.67,.24-.32,.44-.59,.59-.8,.02-.35,.03-.63,.04-.89-.08-.1-.14-.21-.23-.26-.96-.53-2.08-.6-3.04-1.09-.64-.33-1.33,.02-2.1-.38-.25-.28-.62-.69-.89-.99-.14-.45,.04-.81-.13-.98-1.41,.22-2.73,.14-3.96,.15-1.27-.52-2.5-.68-3.78-.68-.68-.84-1.95-.86-2.51-1.88-.03-.34-.18-.73,.24-1.1,.32,.07,.68,.16,1.04,.24,0,.03-.01,.07-.02,.1h1.37c.31,.14,.51,.25,.72,.31,1.53,.44,3.05,.81,4.68,.72,1.54-.09,1.54-.02,3.52-.66,.26-.08,.52-.17,.78-.23,.63-.13,.97-.71,1.53-.94,.16-.75,1.05-.98,1.2-1.74,.04-.2,.2-.38,.32-.6-.1-.37-.19-.74-.36-1.39-.02-.25-.05-.8-.08-1.31-.36-.48-.65-.96-1.03-1.35-.38-.38-.84-.68-1.22-.98,0-.58-.15-1.15,.04-1.56,.23-.49,.2-.95,.27-1.43,.06-.48,.28-.95,.3-1.43,.05-1.16,.01-2.33,.01-3.5-.69-1.3-1-2.78-1.9-3.97-.31-.23-.61-.47-.93-.68-.32-.21-.66-.53-1-.53-.84-.01-1.58-.46-2.42-.41-.93,.05-1.88-.15-2.76,.3-1.24-.12-2.33,.51-3.49,.74-.35,.36-.82,.26-1.15,.31-1.08,.56-1.87,1.33-2.64,2.13-.19,.19-.29,.46-.44,.69-.15,.22-.54,.16-.58,.52-.1,.87-.6,1.62-.69,2.51-.06,.54-.29,1.06-.91,1.45h-2.15c-.73,.23-1.09,.34-1.52,.47-.44,.41-.93,.86-1.17,1.08-.26,.74-.4,1.15-.57,1.63v1.87c-.13,.25-.23,.44-.36,.7,.4,.73,.41,1.55,.39,2.33,.11,.18,.27,.32,.28,.47,.07,.88,.51,1.65,.74,2.48,.18,.62,.46,1.26,1.13,1.57,.61-.32,1.38-.31,1.98-.96,.13-.23,.3-.58,.52-.89,.43-.63,.7-1.37,1.29-1.88,.11-.1,.28-.13,.44-.19,.3,.29,.57,.56,.94,.92Zm8.07,38.53c-.22,.72-.71,1.16-1.21,1.43-.6,.33-1.02,.82-1.51,1.25-.33,.29-.64,.6-.9,.86-.25,.01-.42,.02-.61,.03-.31,.29-.61,.63-.97,.88-.35,.24-.78,.36-1.16,.56-.33,.18-.63,.41-.96,.6-.56,.32-1.13,.62-1.7,.93-.42-.1-.76,.15-1.05,.36-.42,.3-.95,.22-1.36,.5-.45,.3-.97,.09-1.38,.17-.44,.23-.82,.44-1.23,.65h-1.12c-.2,.13-.39,.24-.57,.35h-1.8c-.18,.12-.31,.21-.45,.31-.67,.08-1.2-.58-1.87-.29-.41-.88-1.14-1.4-1.58-1.86-.89-.47-1.41,.28-2.09,.17-.24,.21-.5,.42-.74,.63-.82-.01-1.38,.58-2.09,.81-.06,.59-.55,.82-.89,1.16-.26,.04-.53,.08-.59,.09-1.31,.94-1.98,2.17-2.9,3.2v.51c-.2,.24-.41,.49-.67,.8v1.2c-.14,.2-.23,.34-.32,.48-.09,.67,.59,1.2,.34,1.75,.43,.72,.78,1.32,1.14,1.92,.38,.63,1.05,1.02,1.42,1.61,.33,.53,.78,.91,1.15,1.38,.38,.49,.98,.7,1.4,1.11,.45,.43,.98,.68,1.5,1h.67c.56,.26,.99,.56,1.45,.64,.49,.08,.84,.47,1.4,.39,.52-.07,.99,.44,1.56,.31,.4,.37,.91,.33,1.38,.34,.2,.12,.39,.24,.56,.34h3.14c.18,.12,.31,.21,.55,.37,.56-.05,1.11-.64,1.96-.25,.02,.01,.2,.12,.37,.22,.24-.14,.43-.24,.63-.35h2.79c.21-.13,.39-.24,.55-.34,.3,.13,.54,.24,.76,.34,.22-.13,.4-.23,.59-.34h1.24c.59-.19,.95-.3,1.32-.42,.21-.41,.43-.83,.62-1.21,1.35-1.47,2.82-2.65,4.74-3.13,.21-.18,.42-.36,.62-.54,.34-.02,.66-.04,.95-.06,.29-.24,.54-.44,.82-.68,.21,.12,.39,.23,.58,.35h1.52c.29-.14,.48-.24,.65-.32,.35,.27,.64,.5,.96,.75,.34-.27,.64-.51,.9-.72h2.82c1.21,.65,2.3,1.36,2.96,2.17,.53,.89,.92,1.54,1.24,2.08,.08,.32,.13,.52,.19,.72h1.61c.47-.24,.85-.44,1.27-.65h1.96c.9-.34,1.69-.55,2.37-.99,.68-.44,1.48-.62,2.21-.96,.73-.35,1.3-.98,1.99-1.1,1.33-1.2,2.45-2.39,3.13-3.9v-2.5c-.45-.39-.24-1.04-.69-1.47-.37-.35-.54-.92-.89-1.56-.35-.33-.83-.79-1.25-1.18-.23-.48-.41-.87-.62-1.31-.44-.32-.76-.82-1.35-1.11-.57-.27-.96-.93-1.52-1.23-.54-.28-.75-.98-1.39-1.02-.44,.4-.85,.77-1.22,1.11-.06,.67-.3,1.2-.68,1.67-.27,.33-.65,.57-.76,1.05-.12,.49-.74,.42-1.03,.76-.18,.21-.43,.38-.55,.62-.5,1.03-1.47,1.62-2.21,2.42-1.05,.43-1.82,1.34-2.91,1.72-.29,.1-.52,.4-.78,.61-.72,0-1.4,.15-1.94,.68-.52,.51-1.27,.58-1.82,1.02h-1.15c-.16,.11-.3,.21-.45,.32h-1.46c-.99,.52-.61,.41-1.7,0-.16,.1-.34,.21-.53,.33h-3.89c-.3-.52-.86-.25-1.24-.34-.46-.24-.84-.44-1.25-.66h-1.06c-.26-.13-.47-.33-.65-.31-.53,.08-.85-.45-1.41-.38-.55,.07-1.02-.31-1.46-.62-.7,.04-1.18-.55-1.8-.65-.62-.1-1.09-.46-1.63-.7-.49-.22-.96-.57-1.47-.63-.68-.08-.9-.83-1.54-.86-.25-.3-.58-.47-.94-.63-.18-.08-.29-.31-.43-.46,.03-.25,.06-.46,.09-.7h1.71c.92,.39,1.92,.65,2.76,1.26,.66-.04,1.2,.57,1.83,.37,.68,.35,1.3,.67,1.96,1h.73c.44,.24,.82,.44,1.24,.66h1.12c.15,.1,.28,.19,.46,.31,.29,.02,.61,.03,.94,.05,.26,.22,.51,.43,.76,.64h2.51c.15,.1,.29,.19,.47,.3h1.59c.14-.1,.28-.19,.44-.3h2.79c.21-.12,.4-.23,.6-.34h1.14c.15-.1,.29-.2,.43-.3,.72-.01,1.39-.17,1.95-.67,.16-.14,.35-.33,.54-.34,.84-.02,1.36-.61,1.86-1,.3-.02,.46-.04,.57-.05,.69-.54,1.37-1,1.97-1.55,.82-.75,1.62-1.53,2.35-2.36,.71-.81,1.43-1.64,1.89-2.63,.15-.32,.32-.58,.56-.78,.31-.26,.44-.61,.62-.95,.17-.33,.37-.66,.5-1.01,.12-.31,.15-.65,.23-1.01h-2.78c-.67-.24-1.22-.45-1.9-.69h-1.24c-.48-.25-.87-.44-1.28-.66h-.64c-.89-.33-1.52-.87-2.35-1.02-.46-.08-.95-.29-1.25-.72-.27-.39-.75-.11-1.12-.32-.36-.42-.72-.85-1.03-1.22-.32-.04-.54-.06-.68-.08-.37-.24-.7-.43-1-.66-.35-.27-.65-.59-.99-.87-.28-.23-.44-.61-.91-.72-.6,1.46-2.16,2.15-2.84,3.51-.36,.18-.7,.34-1.1,.54Zm21.8-21.64c-.22,.83-.58,1.38-.56,2.06,.01,.34-.1,.63-.21,.95-.25,.72-.37,1.48-.77,2.14-.4,.68-.24,1.5-.69,2.1,.36,.45,.7,.82,.97,1.23,.47,.74,.92,1.48,1.56,2.09,.4,.38,.66,.86,.79,1.46-.18,.16-.37,.34-.51,.47h-.66c-1.82-.66-3.3-1.48-4.96-1.74-.61-.29-1.18-.72-1.8-.83-.8-.15-1.57-.53-2.41-.44-.75-.48-1.61-.26-2.36-.35-.54-.26-1.04-.5-1.51-.73-.22-.47-.5-.89-.43-1.42-.4-.6-.27-1.36-.63-2.01-.36-.65-.56-1.39-.84-2.13-.08,.09-.15,.13-.15,.18,0,.55,0,1.09,0,1.54,.14,.28,.23,.48,.26,.53v2.26c-.21,.27-.39,.48-.79,.45-.11-.11-.29-.24-.41-.41-.36-.56-.45-1.2-.58-1.84-.1-.48-.27-.93-.37-1.41-.1-.48-.14-.97-.22-1.47-.3-.55-.54-1.19-1.27-1.48-.16,.01-.37,.03-.51,.05-.36,.55,.08,.9,.16,1.33,0,.59,0,1.2,0,1.81,0,.61,.03,1.22,.05,1.83,.5,.76,.25,1.61,.29,2.43,.06,1.11,.01,2.22,.01,3.16,.31,.75,.57,1.35,.85,2.04,1.14,1.14,2.19,2.51,3.66,3.43,.72,.88,1.88,1.13,2.68,1.88,1.29,.3,2.38,1.07,3.56,1.63,.8,.38,1.65,.6,2.49,.71,.88,.12,1.68,.42,2.63,.73h1.54c1,.57,2.01,.35,2.98,.01,.17,.08,.32,.15,.39,.18,.74-.23,1.41-.44,2.15-.67,.87-.83,1.87-1.62,2.41-2.94v-1.61c.15-.31,.24-.5,.34-.7-.11-.39-.26-.74-.31-1.11-.06-.44-.08-.89-.02-1.33,.08-.54-.37-.92-.36-1.42,.02-.84-.31-1.59-.64-2.34-.26-.59-.58-1.16-.75-1.81-.19-.72-.49-1.46-.92-2.07-.45-.63-.69-1.35-1.17-1.97-.52-.69-1.03-1.42-1.46-2.17-.4-.71-.84-1.37-1.52-2.26Zm-8.89,.59c-.97,1.6-1.34,3.38-2.33,4.84,.04,.46-.09,.9,.11,1.37,.61,.17,1.34-.16,1.82,.4h2.18c.17,.12,.31,.21,.51,.35h1.19c.26,.22,.47,.4,.7,.6,.17-.34,.34-.66,.52-1.01v-1.43c.21-.25,.39-.46,.62-.71v-1.03c.27-.72,.46-1.22,.69-1.85v-1.07c.16-.58,.34-.89,.31-1.19-.04-.43,.32-.69,.31-1.07v-.77c-.75-.87-1.54-1.63-2.49-2.2-.65-.38-1.24-.87-1.91-1.21-.26-.14-.51-.13-.85,.04-.14,.46,.13,1.09-.38,1.43v1.16c-.21,.39-.48,.71-.55,1.07-.12,.58-.21,1.15-.43,1.71-.06,.14,0,.33,0,.58Zm-7.03,51.59c.94-.33,1.57-.83,2.02-1.62,0-.79,.08-1.63-.02-2.44-.1-.75-.38-1.48-.32-2.25-.36-.52-.16-1.34-.86-1.68h-3.19c-.64,.39-1.32,.75-1.94,1.19-.57,.41-1.08,.9-1.61,1.36-.23,.77-1.07,1.07-1.45,1.78,.65,.75,1.24,1.47,2.01,1.99,.79-.12,1.09,.68,1.73,.87,.67,.19,1.3,.54,1.92,.81h1.71Zm-16.5-26.03c1.31-.72,2.62-1.4,3.87-2.16,1.54-.94,2.92-2.1,4.36-3.18,.38-.28,.62-.75,.95-1.1,.61-.64,1.22-1.29,1.88-1.88,.69-.61,1.14-1.42,1.79-1.97,.07-.52-.15-.78-.58-.96-.45,.57-.8,1.24-1.35,1.66-.92,.71-1.61,1.62-2.39,2.45-.19,.2-.42,.35-.63,.51-.7,.52-1.45,.98-2.09,1.57-.74,.67-1.55,1.23-2.42,1.66-.75,.37-1.45,.78-1.99,1.37-.37,.04-.69,.07-.94,.1-.52,.34-.98,.63-1.43,.92-.46,.03-.9,.05-1.21,.07-1.24,.58-2.29,1.27-3.53,1.51-.09-.05-.19-.11-.33-.2-.67,.24-1.37,.49-2.15,.76,.34,.33,.61,.6,.85,.83,.25-.12,.45-.21,.62-.29h1.8c1.26-.36,2.2-.95,3.3-1.07,.22-.17,.44-.34,.66-.51,.27-.03,.55-.06,.97-.1Zm24.81,25.09c0-.41,.11-.84-.02-1.17-.43-1.06-.59-2.19-.98-3.25-.37-1.01-.8-2.04-1.94-2.5-.24-.09-.41-.34-.56-.47-.53-.04-.97-.05-1.41,.17-.01,.16-.1,.37-.03,.46,.45,.55,.3,1.25,.52,1.87,.21,.6,.12,1.3,.15,1.96,.01,.22,0,.44,0,.63,.1,.17,.18,.32,.3,.53v1.93c.78,.68,1.73,.88,2.63,1.14,.35-.16,.64-.3,.93-.43,.11-.25,.23-.49,.4-.86Zm-2.84-73.32c.22-.24,.4-.43,.55-.6v-2.56c-.08-.12-.16-.26-.26-.39-.11-.14,.03-.46-.28-.43-.56,.23-.33,.8-.56,1.14-.24,.35-.19,.73-.25,1.1-.06,.41-.17,.81-.26,1.2,.39,.2,.72,.37,1.06,.55Z" style="fill: #030303;"/>
  <path d="M42.66,67.09c-.37-.36-.65-.63-.94-.92-.16,.07-.33,.1-.44,.19-.59,.51-.87,1.25-1.29,1.88-.21,.32-.38,.66-.52,.89-.6,.64-1.37,.64-1.98,.96-.67-.31-.95-.94-1.13-1.57-.23-.83-.67-1.6-.74-2.48-.01-.15-.16-.28-.28-.47,.02-.78,0-1.6-.39-2.33,.13-.26,.23-.45,.36-.7v-1.87c.17-.48,.31-.89,.57-1.63,.24-.22,.73-.67,1.17-1.08,.43-.13,.79-.24,1.52-.47h2.15c.62-.39,.86-.92,.91-1.45,.09-.88,.59-1.64,.69-2.51,.04-.36,.43-.3,.58-.52,.15-.23,.26-.5,.44-.69,.77-.79,1.56-1.57,2.64-2.13,.33-.04,.79,.05,1.15-.31,1.17-.23,2.25-.86,3.49-.74,.88-.46,1.84-.25,2.76-.3,.83-.05,1.58,.4,2.42,.41,.33,0,.68,.32,1,.53,.32,.21,.62,.45,.93,.68,.9,1.19,1.21,2.67,1.9,3.97,0,1.17,.03,2.33-.01,3.5-.02,.48-.23,.95-.3,1.43-.06,.48-.04,.94-.27,1.43-.19,.41-.04,.98-.04,1.56,.38,.3,.85,.59,1.22,.98,.38,.39,.67,.87,1.03,1.35,.03,.51,.07,1.06,.08,1.31,.17,.65,.26,1.02,.36,1.39-.12,.22-.28,.4-.32,.6-.15,.76-1.04,1-1.2,1.74-.56,.23-.9,.81-1.53,.94-.26,.05-.52,.14-.78,.23-1.98,.64-1.98,.57-3.52,.66-1.62,.09-3.15-.27-4.68-.72-.21-.06-.4-.17-.72-.31h-1.37s.01-.07,.02-.1c-.36-.08-.72-.17-1.04-.24-.42,.38-.26,.77-.24,1.1,.57,1.03,1.83,1.04,2.51,1.88,1.28,0,2.51,.15,3.78,.68,1.23,0,2.55,.08,3.96-.15,.17,.16-.01,.53,.13,.98,.27,.3,.64,.71,.89,.99,.77,.39,1.46,.05,2.1,.38,.96,.49,2.09,.56,3.04,1.09,.09,.05,.14,.17,.23,.26-.01,.26-.03,.54-.04,.89-.16,.21-.35,.48-.59,.8-.01,.21-.03,.49-.04,.67-.33,.83-.64,1.59-1,2.49v1.02c-.46,1.25-.81,2.22-1.16,3.18-.37-.24-.64-.57-.85-.98-.29-.59-.65-1.14-1.01-1.69-.21-.32-.5-.58-.72-.82-.67-.15-1.25-.11-1.82,.11-.55-.42-1.19-.13-1.73-.26-.19,.12-.34,.28-.47,.27-.56-.01-.98,.45-1.62,.44-.34-.29-.71-.62-1.12-.98h-1.98c-.34,.34-.71,.68-1.05,1.04-.91,.96-1.38,1.7-1.78,2.9-.16,.46-.23,.95-.38,1.42-.13,.41-.31,.81-.5,1.3-.1,.07-.28,.28-.47,.28-.51,0-.77,.4-1.24,.69-.33,.02-.77,.04-1.16,.06-.54,.26-1.11,.41-1.5,.76-.44,.39-1.03,.39-1.44,.73-.44,.35-.91,.62-1.43,.79-.52,.17-1.07,.25-1.3,.85-.48,.26-.96,.52-1.5,.81-.22-.69,.03-1.41-.13-2.17-.15-.14-.34-.32-.46-.42-.4-.07-.59,.12-.66,.3-.37,.9-.99,1.68-1.23,2.66-.17,.7-.61,1.29-1.16,1.68-.2,1.21-1.19,1.93-1.43,3.1,.16,.16,.34,.35,.51,.52h.6c1.06-1.17,2.56-1.79,3.89-2.64,.82-.53,1.73-.93,2.54-1.48,.73-.5,1.48-.92,2.3-1.26,.1-.04,.17-.16,.27-.18,.6-.13,.91-.76,1.6-.82,.51-.05,1-.42,1.46-.7,.3-.18,.65-.16,.92-.3,1.11-.57,2.17-1.25,3.12-1.96,.13-1.08,.65-1.99,.4-2.85,.17-.64,.73-.85,.74-1.44,0-.44,.44-.71,.82-.96q0,.55-.48,1.45c-.15,.67,.13,1.37-.27,1.91,.11,.52,.21,.99,.3,1.46,.29,.23,.62,.14,1.01,.12,.12-.11,.28-.25,.51-.45v-1.65c.37-.88,.62-1.48,.88-2.1,.31,.11,.12,.43,.21,.63,.09,.2,.19,.39,.28,.56-.03,.21,0,.39-.08,.53-.29,.53-.3,1.03-.03,1.57,.19,.39,.37,.8,.43,1.22,.08,.55,.05,1.11,.05,1.66,0,.83,.07,1.68-.05,2.49-.12,.79-.46,1.56-.71,2.37-.33,.59-1.1,.89-1.28,1.65-.91,.25-1.01,1.41-1.93,1.7-.29,.09-.5,.42-.74,.66-.62,.63-1.34,1.11-2.13,1.53-.81,.44-1.58,.96-2.3,1.55-.77,.63-1.65,1.06-2.62,1.11-.37,.44-.71,.86-1.04,1.25-.35,.03-.63,.05-.78,.06-1.26,.66-2.42,1.27-3.63,1.91-.34,.02-.73,.04-.95,.05-.95,.37-1.76,.68-2.59,1-1.42,0-2.86,.01-4.3-.01-.31,0-.62-.15-1.26-.31h-1.55c-.63-.67-1.28-1.36-1.92-2.05-.8-.99-.99-2.26-1.47-3.42-.1-.24-.11-.54-.09-.81,.07-.87-.2-1.76,.24-2.61,.14-.27,.02-.65,.04-.99,.06-1.09-.12-2.2,.35-3.26,.19-.42,.05-.94,.26-1.44,.18-.42,.22-.94,.36-1.41,.5-1.78,1.21-3.47,2.01-4.79,.68-1.12,1.41-2.2,2.21-3.25,.43-.57,.79-1.18,1.23-1.74,.2-.25,.53-.38,.76-.6,.77-.72,1.52-1.46,2.25-2.17,.34-.13,.69-.18,.94-.36,.84-.61,1.67-1.26,2.66-1.58,.66-.22,.96-.92,1.65-1.04,.4-.54,1.12-.42,1.6-.79,1.3-.17,2.54-.55,3.77-1,.25-.09,.54-.05,.91-.08,.3-.32,.65-.69,.92-.98,.36-.62-.07-1.31,.41-1.81-.32-.86-.33-1.04-.28-3.77,0-.06,0-.12-.01-.16-.08-.15-.16-.29-.29-.51v-1.47Zm12.1,1.08c1.27-.85,2.5-1.74,3.14-3.17-.17-.3-.3-.54-.45-.79h-.89c-.87,.7-1.67,1.35-2.48,2-.6-.29-1.12-.58-1.67-.8-.6-.24-1.22-.4-1.79-.73-.41-.24-.9-.35-1.37-.48-.21-.06-.44,0-.56,.23v.68c.72,.7,1.43,1.39,2.08,2.03,1,.12,1.69,.72,2.54,1.05h1.46Zm-8.85-7.82c.44,.17,.85,.3,1.24,.48,.99,.46,2.12,.44,3.09,.97,.25,.14,.64,.02,.95,.02,.18-.21,.32-.38,.5-.6-.24-.43-.47-.85-.72-1.32-.92,.01-1.58-.69-2.49-.77-.9-.08-1.7-.74-2.64-.59-.24,.19-.52,.31-.52,.7,.16,.29,.33,.63,.59,1.11Zm-8.03-.16c-.22,.12-.43,.2-.61,.33-.22,.15-.42,.34-.6,.49-.05,.34-.09,.61,.27,.87h1.5c.4,.51-.03,1.16,.43,1.6,.67,.02,.81-.7,1.32-.96,.27,.1,.57,.22,.91,.35,.18-.2,.37-.39,.52-.55-.16-.81-.59-1.35-1.02-1.63-.57-.22-.91-.41-1.28-.47-.43-.07-.88-.02-1.46-.02Zm16.36,1.15c.36,.16,.65,.29,.99,.43,.56-.67,1.32-1.1,2.15-1.45,.2-.24,.41-.49,.58-.69,.03-.39,.12-.72-.16-1.1-.25-.01-.57-.03-.86-.04-1.05,.6-2.15,1.07-3.01,1.96,.12,.34,.23,.63,.32,.89Zm-17.18,4.99c.07,.14,.15,.28,.22,.42-.1,.31-.2,.61-.3,.93,.38,.28,.55,.75,1.07,.78,.29-.14,.58-.28,.85-.42,.14-.31,.28-.61,.39-.84v-1.54c-.27-.29-.54-.56-.81-.85-.23,.02-.44,.05-.63,.07-.28,.51-.53,.99-.78,1.45Z" style="fill: #fff;"/>
  <path d="M72.53,83.98c.67,.89,1.11,1.56,1.52,2.26,.42,.75,.93,1.49,1.46,2.17,.47,.62,.72,1.34,1.17,1.97,.43,.6,.73,1.34,.92,2.07,.17,.65,.49,1.22,.75,1.81,.34,.76,.66,1.5,.64,2.34-.01,.51,.44,.88,.36,1.42-.06,.43-.04,.89,.02,1.33,.05,.37,.2,.72,.31,1.11-.1,.2-.19,.4-.34,.7v1.61c-.53,1.32-1.54,2.11-2.41,2.94-.74,.23-1.41,.44-2.15,.67-.07-.03-.21-.1-.39-.18-.97,.34-1.98,.56-2.98-.01h-1.54c-.94-.31-1.75-.6-2.63-.73-.84-.12-1.69-.34-2.49-.71-1.18-.55-2.27-1.32-3.56-1.63-.81-.75-1.97-1-2.68-1.88-1.47-.92-2.53-2.29-3.66-3.43-.29-.69-.54-1.29-.85-2.04,0-.95,.04-2.06-.01-3.16-.04-.81,.21-1.67-.29-2.43-.02-.61-.04-1.22-.05-1.83,0-.61,0-1.22,0-1.81-.08-.43-.52-.77-.16-1.33,.15-.01,.35-.03,.51-.05,.73,.3,.97,.93,1.27,1.48,.07,.51,.12,1,.22,1.47,.1,.47,.28,.93,.37,1.41,.13,.64,.21,1.28,.58,1.84,.11,.18,.3,.31,.41,.41,.4,.03,.58-.18,.79-.45v-2.26c-.03-.05-.12-.25-.26-.53,0-.45,0-1,0-1.54,0-.04,.07-.08,.15-.18,.28,.73,.47,1.48,.84,2.13,.36,.64,.23,1.4,.63,2.01-.07,.53,.2,.95,.43,1.42,.47,.23,.96,.47,1.51,.73,.75,.1,1.6-.13,2.36,.35,.84-.1,1.61,.29,2.41,.44,.62,.12,1.19,.54,1.8,.83,1.66,.26,3.15,1.08,4.96,1.74h.66c.14-.13,.33-.31,.51-.47-.12-.6-.39-1.08-.79-1.46-.64-.61-1.09-1.35-1.56-2.09-.27-.41-.61-.78-.97-1.23,.45-.6,.29-1.43,.69-2.1,.39-.66,.52-1.42,.77-2.14,.11-.32,.23-.61,.21-.95-.02-.67,.34-1.22,.56-2.06Z" style="fill: #fff;"/>
  <path d="M56.62,136.17h-1.71c-.62-.27-1.25-.61-1.92-.81-.64-.19-.94-.99-1.73-.87-.78-.52-1.36-1.24-2.01-1.99,.37-.71,1.22-1.01,1.45-1.78,.54-.46,1.04-.95,1.61-1.36,.62-.44,1.29-.8,1.94-1.19h3.19c.71,.34,.5,1.15,.86,1.68-.06,.78,.23,1.5,.32,2.25,.11,.81,.02,1.65,.02,2.44-.45,.79-1.08,1.29-2.02,1.62Z" style="fill: #fefefe;"/>
  <path d="M40.12,110.14c-.42,.04-.69,.07-.97,.1-.22,.17-.44,.34-.66,.51-1.1,.12-2.03,.71-3.3,1.07h-1.8c-.17,.08-.36,.17-.62,.29-.24-.24-.51-.5-.85-.83,.78-.28,1.48-.53,2.15-.76,.15,.09,.24,.14,.33,.2,1.24-.25,2.29-.93,3.53-1.51,.31-.02,.74-.04,1.21-.07,.44-.28,.9-.58,1.43-.92,.25-.03,.57-.06,.94-.1,.55-.6,1.24-1,1.99-1.37,.88-.43,1.68-.99,2.42-1.66,.64-.58,1.39-1.05,2.09-1.57,.22-.16,.45-.32,.63-.51,.79-.82,1.48-1.73,2.39-2.45,.54-.42,.9-1.09,1.35-1.66,.44,.17,.65,.43,.58,.96-.65,.55-1.1,1.36-1.79,1.97-.66,.59-1.27,1.24-1.88,1.88-.33,.35-.57,.81-.95,1.1-1.44,1.08-2.82,2.24-4.36,3.18-1.26,.76-2.57,1.44-3.87,2.16Z" style="fill: #f3f3f3;"/>
  <path d="M64.93,135.23c-.17,.37-.28,.61-.4,.86-.29,.14-.59,.27-.93,.43-.89-.26-1.85-.46-2.63-1.14v-1.93c-.12-.22-.2-.36-.3-.53,0-.19,0-.41,0-.63-.03-.66,.05-1.36-.15-1.96-.22-.61-.07-1.32-.52-1.87-.07-.09,.02-.3,.03-.46,.44-.22,.87-.2,1.41-.17,.15,.13,.32,.37,.56,.47,1.14,.46,1.57,1.49,1.94,2.5,.39,1.06,.55,2.19,.98,3.25,.13,.33,.02,.76,.02,1.17Z" style="fill: #fcfcfc;"/>
  <path d="M62.09,61.9c-.34-.18-.67-.35-1.06-.55,.09-.39,.19-.79,.26-1.2,.06-.37,0-.75,.25-1.1,.24-.34,0-.91,.56-1.14,.3-.03,.16,.3,.28,.43,.1,.13,.18,.27,.26,.39v2.56c-.15,.17-.33,.36-.55,.6Z" style="fill: #fff;"/>
  <path d="M54.76,68.17h-1.46c-.85-.32-1.54-.92-2.54-1.05-.65-.63-1.36-1.33-2.08-2.03v-.68c.12-.22,.35-.29,.56-.23,.47,.13,.96,.25,1.37,.48,.57,.33,1.2,.49,1.79,.73,.55,.22,1.08,.51,1.67,.8,.8-.65,1.61-1.3,2.48-2h.89c.15,.26,.28,.5,.45,.79-.64,1.43-1.87,2.32-3.14,3.17Z" style="fill: #080808;"/>
  <path d="M45.91,60.35c-.26-.48-.43-.81-.59-1.11,0-.38,.28-.5,.52-.7,.94-.15,1.74,.51,2.64,.59,.91,.08,1.57,.78,2.49,.77,.25,.46,.48,.89,.72,1.32-.18,.22-.32,.38-.5,.6-.31,0-.7,.12-.95-.02-.97-.53-2.1-.52-3.09-.97-.39-.18-.8-.31-1.24-.48Z" style="fill: #0c0c0c;"/>
  <path d="M37.88,60.19c.57,0,1.02-.05,1.46,.02,.37,.06,.71,.25,1.28,.47,.43,.28,.85,.82,1.02,1.63-.15,.16-.34,.36-.52,.55-.35-.13-.64-.25-.91-.35-.52,.27-.65,.98-1.32,.96-.46-.44-.04-1.09-.43-1.6h-1.5c-.36-.26-.32-.53-.27-.87,.17-.14,.37-.33,.6-.49,.18-.12,.39-.21,.61-.33Z" style="fill: #111;"/>
  <path d="M54.24,61.34c-.09-.26-.2-.55-.32-.89,.87-.9,1.96-1.37,3.01-1.96,.29,.01,.61,.03,.86,.04,.28,.38,.19,.71,.16,1.1-.17,.21-.38,.46-.58,.69-.83,.35-1.59,.77-2.15,1.45-.34-.15-.63-.28-.99-.43Z" style="fill: #0b0b0b;"/>
  <path d="M37.06,66.34c.25-.47,.51-.94,.78-1.45,.19-.02,.4-.04,.63-.07,.27,.28,.54,.56,.81,.85v1.54c-.11,.24-.24,.53-.39,.84-.28,.13-.57,.28-.85,.42-.52-.03-.68-.5-1.07-.78,.1-.32,.2-.62,.3-.93-.07-.14-.15-.28-.22-.42Z" style="fill: #0e0e0e;"/>
</svg>