<?xml version="1.0" encoding="UTF-8"?>
<svg id="Ebene_1" data-name="Ebene 1" xmlns="http://www.w3.org/2000/svg" width="35.28mm" height="52.92mm" viewBox="0 0 100 150">
  <path d="M21.33,68.94c.22-.63,.3-1.33,.38-2.04,.08-.73,.39-1.48,.76-2.14,.64-1.14,1.37-2.23,2.25-3.27,.83-.03,1.51-.53,2.27-.81,.72-.27,1.54-.16,2.07-.67,.72,0,1.38,.16,1.92-.04,.77-.28,1.51-.21,2.21-.24,.48,.12,.89,.22,1.35,.34,.43-.7,.91-1.3,1.47-1.83,.41-.38,.85-.67,1.39-.85,.41-.13,.88-.24,1.18-.51,.6-.54,1.31-.77,2.06-.94,.47-.78,.59-1.68,1.11-2.39,.67-.86,1.63-1.49,2.13-2.52,.62-.44,1.23-.9,1.87-1.32,.41-.27,.87-.46,1.36-.71,.5,.11,1.03,.22,1.55,.34,.47,.12,.94,.26,1.56,.43,.13,.12,.34,.38,.61,.56,.9,.59,1.45,1.44,1.86,2.41,.17,.4,.4,.78,.64,1.26-.08,.19-.18,.44-.32,.77,.08,.24,.23,.53,.29,.84,.07,.32,.06,.65,.09,1.02,1.03-.42,2-.82,3.1-1.27,.15,.04,.4,.12,.7,.21,.67-.36,1.45-.15,2.18-.19,.83,.47,1.76,.7,2.45,1.37,.36,.61,.73,1.22,1.14,1.91-.38,.79-.27,1.74-.32,2.77-.28,.55-.69,1.15-.91,1.82-.21,.64-1,.89-1.05,1.68,.91,.13,1.79,.11,2.66,.13,.65,.33,1.43,.35,1.97,.82,1,.86,2.22,1.48,2.99,2.73v2.46c-.23,.53-.48,1.13-.85,2-.18,.18-.6,.55-.96,.97-.34,.41-1.1,.37-1.11,1.13,.38,.16,.76,.38,1.17,.46,1.36,.28,2.41,1.03,3.28,2.07,.14,.17,.3,.33,.37,.4,.15,.47,.26,.83,.45,1.41v1.57c-.51,.8-.53,1.82-1.25,2.49-.32,.99-1.46,1.14-2.01,1.98,.96,.46,2.1,.46,2.89,1.25,1.11,.42,1.51,1.55,2.33,2.38,.08,.97,.81,1.84,.7,2.86-.35,.75-.6,1.49-1.02,2.12-.43,.63-1.04,1.15-1.61,1.76,.21,.15,.4,.37,.64,.44,.71,.2,1.22,.73,1.82,1.09,.97,.58,1.56,1.55,2.14,2.49,.19,.3,.19,.72,.37,1.42v1.27c-.3,.79-.6,1.54-.89,2.29,.18,.31,.45,.45,.82,.44,.72-.02,1.44,0,1.85,0,1.79,.57,2.81,1.67,3.83,2.79,.22,.59,.46,1.2,.77,2.04v1.82c.56-.36,1.14-.15,1.61-.33,.58-.23,1.15-.32,1.76-.31,.55,0,1.11,0,1.58,0,1.12,.7,2.11,1.39,2.86,2.44,.22,.85,.9,1.55,1.14,2.46v4.13c-.12,.22-.22,.41-.34,.64,.23,.36,.48,.72,.7,1.09,.22,.38,.41,.77,.64,1.2v2.03c-.41,1.07-1.14,1.91-2.19,2.48-.48,.26-.89,.64-1.35,.92-.51,.31-1.03,.73-1.59,.83-.7,.13-1.34,.44-2.06,.48-.87,.05-1.69,.46-2.59,.33-.45-.06-.76,.42-1.26,.34-.43-.07-.89-.02-1.33,.02-.15,.01-.3,.14-.45,.21-.71-.46-1.51-.13-2.22-.24-.13,.07-.23,.13-.36,.2-.74-.37-1.57-.15-2.37-.26-.15-.09-.29-.17-.46-.26-.2,0-.42,0-.64,0-.44-.01-.89,0-1.33-.06-.37-.05-.76-.15-1.09-.31-.56-.28-1.15-.33-1.75-.33-.28-.21-.54-.4-.85-.63h-1.09c-.79-.12-1.2-.71-1.89-.61-.23,.54,.06,1.02,.18,1.55,.11,.47,.02,.99,.02,1.28-.27,.98-.48,1.77-.71,2.6-.62,.74-1.31,1.42-2.39,1.56-.26,.03-.51,.21-.74,.34-.57,.33-1.14,.67-1.84,.62-.52,.41-1.16,.27-1.68,.34-.41,.2-.75,.37-1.11,.55-.67,.17-1.43-.13-2.07,.37-.81,.04-1.66-.11-2.42,.33-.94,.02-1.89,.04-2.83,.05-.83,0-1.67-.01-2.5,.02-.32,.01-.63,.13-1.09,.23-.1-.04-.35-.13-.68-.25-.62,.17-1.3,.4-2.02,.32-.32-.04-.64-.07-.96-.18-.85-.27-1.73-.22-2.57,.12-.76-.44-1.6-.26-2.41-.31-1.14-.6-2.62-.52-3.49-1.75-.06-.21-.13-.47-.2-.72-.11-.05-.2-.13-.3-.13-.67-.02-1.33-.01-2-.03-.49-.01-1,.07-1.45-.25-.08-.06-.21-.06-.32-.05-.84,.06-1.61-.23-2.46-.48-.2-.19-.45-.42-.71-.66,.14-.93-.76-1.77-.11-2.72-.01-.8,.42-1.45,.73-2.15,.52-1.15,1.35-1.99,2.36-2.7,.22-.16,.45-.32,.65-.5,.11-.1,.19-.23,.29-.35-.1-.1-.17-.21-.26-.25-1.19-.52-2.11-1.39-2.99-2.32-.5-.52-1.03-1.01-1.34-1.31-.58-.76-.73-1.42-1.14-1.95-.28-.37-.46-.89-.5-1.35-.05-.51-.3-.94-.4-1.42-.11-.53-.44-1.01-.33-1.59-.41-1.11-.33-2.27-.34-3.42,0-1.11,.05-2.22,0-3.33-.02-.53,.36-.94,.34-1.42-.04-.9,.23-1.72,.53-2.54,.06-.15,.13-.31,.12-.47-.03-1.15,.57-2.08,1.01-3.22v-.45c.69-1.68,1.28-3.14,1.89-4.62-.34-.44-.7-.91-1.11-1.46-.27,.08-.62,.21-.97,.3-.37,.09-.74,.15-1.23,.25-.57-.18-1.16-.55-1.59-1.29,0-.25,0-.58,0-.91-.01-.99,.06-1.95,.34-2.93,.26-.89,.49-1.77,.94-2.59,.23-.42,.36-.91,.59-1.51,.14-.1,.4-.3,.7-.52,.28-.52,.59-1.1,.83-1.55,.51-.45,.92-.81,1.33-1.17,.41-.36,.81-.72,1.28-1.02,.42-.26,.84-.65,1.28-.7,.82-.09,1.58-.52,2.42-.38,.11,.02,.25-.04,.33,.02,.66,.48,1.52,.14,2.25,.6,.34-.49,.69-.98,1.04-1.48-1.02-.34-1.99-.66-2.97-.97-.77-.25-1.58-.39-2.35-.66-2.13-.76-4.13-1.73-5.75-3.37-.11-.11-.28-.16-.47-.26-.08-.15-.15-.37-.28-.54-.58-.74-1.05-1.53-1.23-2.48-.08-.42-.29-.82-.46-1.22-.15-.35-.31-.69-.5-1.1Zm6.19-6.55c-.78,.56-1.54,1.02-2.19,1.59-.4,.35-.76,.84-.91,1.34-.21,.71-.68,1.42-.31,2.26,1.11,.47,2.39,.52,3.5,1.11,.57-.07,1.06,.33,1.59,.32,.64-.02,1.19,.2,1.75,.39,.58,.2,1.15,.34,1.76,.33,.16,0,.33,.03,.39,.03,.48,.23,.87,.42,1.23,.6,1.11-.01,2.06,.37,3,.86v1c-.18,.17-.34,.32-.48,.45-.63,.07-1.21,.06-1.74-.16-.73,.49-.85,1.47-1.37,1.72-.65,.2-1.01,.31-1.51,.46h-1.49c-1.1-.38-1.73-1.06-2.24-1.68-.21-.82-.38-1.5-.55-2.17-1.14-.6-2.37-.83-3.58-1.12-.08-.02-.19,.08-.24,.11,.56,1.67,1.6,3,2.86,4.02,2.7,1.44,5.38,2.64,8.2,3.27,.15,.11,.24,.18,.33,.25,.13,.1,.26,.21,.38,.31q.98,.12,1.99,.72c.12,.28,.24,.57,.35,.82-.64,.99-1.24,1.97-1.56,3.09-.14,.48-.35,.92-.71,1.28-.7,.71-1.17,1.58-1.62,2.46-.15,.29-.26,.6-.43,.88-.17,.28-.39,.52-.44,.59-.15,.54-.21,.86-.32,1.17-.16,.47-.54,.83-.75,1.25-.4,.83-1.01,1.58-1.1,2.54-.73,.84-1.03,1.93-1.65,2.87,.21,.74-.41,1.28-.55,1.93,.35,.21,.54-.07,.8-.18h1.45c.71,.14,1.08,.26,1.45,.27,.72,0,1.42,.12,2.09,.38,.46,.18,.96,.23,1.41,.38,1.55,.49,3.14,.95,4.46,1.98,.39,.3,.75,.65,1.16,.94,1.2,.83,2.09,1.92,2.8,3.18,.29,.52,.73,1,.88,1.56,.18,.66,.6,1.17,.8,1.79,.17,.51,.5,1,.55,1.52,.05,.56,.29,1.05,.41,1.58,.13,.53,.31,1.03,.29,1.6-.02,.5-.13,1.08,.07,1.48,.39,.79,.22,1.48-.09,2.22,.69,1.14,.24,2.38,.35,3.49-.13,.27-.22,.46-.3,.63,.1,.19,.18,.34,.25,.48-.38,.48-.11,1.12-.34,1.58-.29,.58-.23,1.18-.38,1.75-.42,1.18-1.05,2.27-1.54,3.42-.28,.66-.6,1.31-1.26,1.71-.09,.01-.19,.03-.3,.05-.8,.16-1.6,.3-2.39,.48-.85,.19-1.7,.37-2.53,.59-.88,.23-1.78,.52-2.43,1.29-.43,.51-.84,1.01-.98,1.42-.13,.93-.24,1.63-.35,2.41,.09,.09,.24,.25,.43,.45h2.5c.27,.15,.41,.24,.6,.34h4.73c.2,.1,.35,.18,.42,.21,.32-.08,.58-.2,.84-.2,1.17-.03,2.33-.03,3.5-.04,.27,0,.58,.02,.8-.1,.37-.21,.73-.2,1.12-.2,.55,0,1.11,0,1.63,0,.24-.12,.43-.22,.68-.35h2.05c.15-.09,.23-.17,.34-.2,1.09-.32,2.24-.39,3.32-.77,.8,.17,1.47-.46,2.25-.39,.66-.36,1.48-.45,2.01-1.15v-1.49c.16-.31,.26-.51,.37-.71-.15-.6-.46-1.16-.36-1.77,.1-.59-.37-1.03-.36-1.6,.02-.59-.6-1.1-.12-1.9,.05-.04,.25-.22,.49-.42,1.34,.6,2.71,.97,3.91,1.7,.56,.04,1.08,.07,1.63,.29,.7,.28,1.42,.65,2.15,.71,1.04,.08,2.02,.51,3.09,.42,.41-.04,.83,.25,1.25,.3,.49,.06,1,0,1.5,.02,.11,0,.24,.02,.31,.08,.34,.29,.73,.2,1.11,.2,.94,0,1.88,0,2.78,0,.19-.11,.33-.2,.47-.28,.04-.02,.11-.01,.39-.03,1.58,.27,3.23-.47,4.94-.79,.57-.65,1.54-.53,2.18-1.09,.41-.43,.83-.87,1.29-1.36,0-.24,0-.52,0-.79-.01-.27-.04-.54-.07-.87-.84-.8-1.61-1.7-2.54-2.37-1.1-.79-2.23-1.59-3.52-2.1-.3-.12-.61-.27-.86-.47-1.24-1-2.73-1.6-4.07-2.46-.78-.5-1.65-.89-2.32-1.54-.71-.69-1.67-1.08-2.25-1.92-.22-.31-.55-.55-.83-.82-1.15-1.13-2.26-2.29-3.45-3.39-.83-.76-1.27-1.78-1.91-2.66-.32-.44-.51-.96-.75-1.45-.05-.1-.1-.21-.09-.31,.02-.84-.46-1.45-.92-2.07-.06-.08-.05-.21-.07-.32,.08-.14,.16-.28,.28-.51-.64-1.08-.54-2.49-1.35-3.69,0-.41,.16-.98-.04-1.39-.25-.52-.14-1.1-.42-1.57-.27-.47-.06-1.02-.26-1.44-.25-.54-.13-1.11-.32-1.6-.23-.59-.25-1.17-.31-1.76-.59-.67-.1-1.64-.64-2.33,.15-.8-.35-1.47-.48-2.22-.03-.16-.12-.3-.15-.46-.09-.54,.09-1.1-.24-1.62-.29-.47,0-1.12-.43-1.56,.12-.74-.45-1.35-.37-2.08,.09-.89-.36-1.7-.45-2.56-.36-.36-.04-.9-.3-1.25-.29-.4-.16-.86-.29-1.27-.2-.26-.4-.53-.59-.77-.02-.31-.03-.58-.05-.82-.22-.43-.42-.82-.61-1.18-.02-.25,.02-.49-.06-.69-.33-.86-.66-1.73-1.04-2.57-.34-.75-.75-1.46-1.1-2.2-.36-.75-.75-1.46-1.36-2.05-.19-.19-.35-.42-.49-.65-.43-.69-.86-1.4-1.22-2-.56-.36-1.04-.63-1.47-.96-.48-.37-.91-.79-1.38-1.2-.39-.15-.83-.16-1.19-.5-.3-.28-.74-.54-1.15-.58-.76-.08-1.41-.51-1.77-.55-1.54,.33-2.8-.11-3.87,.42-.36-.11-.67-.2-.99-.29-.41,.35-.78,.67-1.18,1.01-1.13,0-2.02,.69-2.95,1.11-.45,.41-.81,.91-1.29,1.12-.57,.24-.56,.97-1.13,1.11h-3.1c-.21-.12-.35-.2-.56-.32-.21,.09-.45,.2-.77,.34-1.11-.3-2.19,.4-3.45,.34Zm18.15,52.6c-.12-.53-.25-.95-.31-1.38-.05-.38,0-.78-.05-1.16-.06-.43-.29-.81-.33-1.26-.06-.59-.18-1.2-.44-1.72-.3-.59-.45-1.22-.71-1.81-.19-.44-.35-.88-.63-1.31-.73-1.11-1.53-2.15-2.46-3.09-.31-.31-.64-.63-1.02-.84-1.1-.61-2.13-1.35-3.31-1.82-.15-.06-.29-.15-.42-.22h-1.21c-.64-.23-1.15-.42-1.88-.68-.21,0-.65,0-1.1,0-.49,0-.96-.07-1.44-.25-.43-.16-.97-.16-1.44,.15-.21,.14-.51,.15-.77,.22-.7,1.37-1.5,2.69-1.47,4.22-.24,.51-.44,.96-.67,1.43v1.65c-.45,.64-.32,1.38-.31,2.09,0,.32-.39,.55-.15,.89,.26,.36-.08,.61-.16,.91-.12,.42,.21,.72,.29,1.18-.07,1.3,.11,2.64,.53,3.97,.42,1.36,.99,2.65,1.68,3.96,1.63,1.64,3.48,3.08,5.67,4.05,.5,.22,.94,.56,1.43,.86,.24,.02,.52,.04,.79,.06,.27,.2,.53,.41,.75,.57,.53,.14,1,.35,1.47,.37,.52,.02,.88,.43,1.42,.4,.41-.02,.83,.21,1.25,.31,.47,.11,.96,.31,1.43,.28,.52-.03,.9,.4,1.48,.3,.04-.87,.76-1.4,1.03-2.18,.05-.54-.05-1.17,.2-1.61,.28-.52,.08-1.08,.4-1.58,.33-.53,.12-1.19,.17-1.79,.02-.22,0-.45,.09-.64,.37-.85,.18-1.74,.18-2.61-.52-.68-.22-1.35,.03-1.91Zm-19.8-28.27c-.18,.45-.24,.79-.43,1.04-.45,.58-.77,1.17-.81,1.93-.02,.42-.42,.79-.29,1.26,.14,.54-.39,.92-.29,1.43,.02,.1,.1,.18,.16,.3h.64c.24-.22,.48-.46,.73-.67,.47-.38,.96-.72,1.6-.55,.16,.28,.34,.51,.41,.76,.11,.36,.14,.74,.21,1.12h.42c.3-.74,.59-1.5,.92-2.23,.41-.89,.86-1.76,1.3-2.64,.22-.44,.44-.88,.65-1.32,.19-.39,.51-.77,.54-1.17,.04-.58,.52-.83,.74-1.26,.32-.62,.74-1.18,.88-1.93-.49-.06-1.01-.01-1.45-.19-.55-.22-1.07-.2-1.56-.17-.29,.15-.53,.28-.81,.42-.22,.85-1.09,.96-1.64,1.32-.55,1.06-1.26,1.89-1.93,2.55Zm11.22,41.87c-1.04-.45-1.86-.9-2.74-1.16-.66-.2-1.31-.64-2.06-.32-1.58,.7-2.83,1.83-3.93,3.16,.15,.82-.65,1.54-.2,2.42,.1,.09,.22,.2,.35,.32,.76,.03,1.53,.06,2.3,.09,.88,.5,1.81,.23,2.79,.28,.22-1.56,.9-2.83,2.05-3.95,.36-.21,.82-.48,1.44-.84Zm32-34.47c.78-.61,1.47-1.5,1.82-2.66-.33-.78-.67-1.58-.97-2.29-.91-.52-1.72-.99-2.5-1.44-.65,0-1.26,0-1.86,0-.04,0-.09,.06-.13,.09-.02,.04-.08,.11-.07,.13,.35,.63,.14,1.42,.6,2.01,.03,.04,.01,.11,.03,.29-.19,.72,.36,1.47,.33,2.28-.03,.85,.48,1.56,.41,2.41,.13,.12,.25,.24,.35,.33,.59-.34,1.14-.67,1.99-1.17Zm2.08,11.91c.96-.74,1.23-1.92,1.79-2.88,.02-.3,.01-.58,.07-.85,.03-.15,.16-.28,.18-.32-.21-1.61-1.22-2.61-2.38-3.53-1.02-.1-2.04-.66-3.14-.25,.65,3.17,1.13,5.01,3.48,7.83Zm-23.92-55c-.5,.58-1.21,.71-1.63,1.25-.37,.48-.96,.82-1.21,1.34-.28,.6-1.02,.87-1.08,1.66,.23,.04,.44,.11,.65,.11,.72,0,1.43-.03,2.15-.01,.38,0,.82-.02,1.12,.15,.52,.31,1.08,.11,1.54,.26,.39,.21,.72,.42,1.07,.55,.33,.13,.7,.17,1.1,.26,.11-.78-.03-1.49-.23-2.24-.5-1.89-.88-2.37-2.78-3-.2-.07-.39-.18-.69-.32Zm17.09,30.77v1.69c.2,.26,.31,.54,.68,.55,.5-.26,1.03-.53,1.71-.87,.2-.22,.5-.54,.9-.97,.2-.52,.45-1.18,.66-1.71v-1.27c-.28-.3-.53-.6-.8-.87-.27-.26-.56-.5-.92-.67-.36-.16-.76-.18-1.07-.37-.36-.22-.73-.28-1.11-.24-.37,.05-.66-.37-1.03-.14-.07,.48-.06,.9,.23,1.29,.23,.31-.28,.62,0,1.05,.21,.32,.1,.85,.13,1.23,.19,.4,.35,.75,.62,1.31Zm-2.41-9.64c.02,.57,.27,1.05,.57,1.54h.67c.93-.92,1.87-1.86,2.75-2.73v-1.87c-1.25-1.03-2.73-1.43-4.24-2.02-.48,.08-1.08-.16-1.67,.12,1.74,3.54,1.22,3.31,1.4,4.34,.17,.2,.35,.41,.53,.62Zm-7.57-13.29c.74,.77,1.55,1.46,2.16,2.29,.59,.8,1.09,1.66,1.7,2.45,.38-.28,.64-.58,.83-1.01,.16-.38,.59-.64,.86-.99,.26-.33,.47-.71,.69-1.03-.48-.76-.08-1.57-.33-2.35-.49-.26-1.01-.54-1.52-.82h-1.86c-.77,.55-1.8,.71-2.52,1.47Zm18.97,49.43c.02,.33,.24,.55,.48,.64,.44,.16,.72,.5,1.04,.8,.2,.19,.41,.38,.58,.59,.88,1.08,2.22,1.64,3.11,2.73,.23-.01,.44-.02,.61-.03,.18-.35,.33-.64,.47-.93,.17-1.47-.61-2.62-1.21-3.84-.61-.3-1.2-.58-1.77-.86h-2.03c-.43,.3-1.06,.32-1.29,.9Zm8.97,6.66c.07,.18,.08,.25,.12,.27,.91,.5,1.76,1.09,2.64,1.65,.92,.59,1.91,1.06,2.77,1.74,.21,.17,.5,.21,.76-.04,.29-.93-.52-1.77-.24-2.6-.34-.63-.63-1.16-.93-1.71-.38-.2-.77-.4-1.09-.57h-2.05c-.59,.52-1.5,.49-1.96,1.25ZM30.78,73.04h.98c.44-.32,1.17-.35,1.22-1.27-.6,0-1.15-.18-1.71-.35-.38-.12-.85-.2-1.21,.08,.1,.27,.18,.53,.29,.77,.11,.24,.25,.46,.42,.77Z" style="fill: #030303;"/>
  <path d="M27.52,62.39c1.26,.06,2.34-.63,3.45-.34,.32-.14,.56-.25,.77-.34,.21,.12,.35,.2,.56,.32h3.1c.57-.15,.57-.87,1.13-1.11,.48-.21,.84-.71,1.29-1.12,.93-.42,1.83-1.11,2.95-1.11,.4-.34,.78-.66,1.18-1.01,.32,.1,.63,.19,.99,.29,1.06-.53,2.33-.1,3.87-.42,.36,.04,1.01,.47,1.77,.55,.4,.04,.84,.29,1.15,.58,.36,.34,.79,.35,1.19,.5,.46,.41,.9,.83,1.38,1.2,.43,.33,.91,.6,1.47,.96,.37,.61,.79,1.31,1.22,2,.14,.23,.3,.47,.49,.65,.61,.58,1,1.3,1.36,2.05,.36,.74,.77,1.46,1.1,2.2,.38,.84,.71,1.7,1.04,2.57,.08,.2,.04,.44,.06,.69,.19,.37,.39,.76,.61,1.18,.01,.24,.03,.51,.05,.82,.19,.24,.39,.51,.59,.77,.13,.41,0,.87,.29,1.27,.26,.36-.05,.89,.3,1.25,.09,.86,.54,1.67,.45,2.56-.07,.73,.49,1.35,.37,2.08,.42,.45,.13,1.09,.43,1.56,.32,.52,.15,1.08,.24,1.62,.03,.16,.12,.3,.15,.46,.14,.74,.63,1.41,.48,2.22,.54,.69,.05,1.66,.64,2.33,.06,.59,.09,1.18,.31,1.76,.19,.49,.07,1.06,.32,1.6,.2,.42-.01,.97,.26,1.44,.27,.47,.17,1.05,.42,1.57,.19,.41,.04,.98,.04,1.39,.82,1.2,.71,2.61,1.35,3.69-.13,.23-.21,.37-.28,.51,.02,.11,.01,.24,.07,.32,.46,.62,.94,1.23,.92,2.07,0,.1,.05,.21,.09,.31,.24,.49,.44,1.01,.75,1.45,.64,.89,1.08,1.9,1.91,2.66,1.18,1.09,2.3,2.25,3.45,3.39,.28,.27,.61,.51,.83,.82,.58,.84,1.54,1.23,2.25,1.92,.67,.64,1.54,1.04,2.32,1.54,1.34,.85,2.82,1.45,4.07,2.46,.25,.2,.56,.35,.86,.47,1.29,.51,2.41,1.3,3.52,2.1,.94,.67,1.71,1.58,2.54,2.37,.03,.33,.06,.6,.07,.87,.01,.27,0,.55,0,.79-.46,.49-.88,.93-1.29,1.36-.64,.56-1.61,.44-2.18,1.09-1.72,.32-3.36,1.05-4.94,.79-.28,.02-.34,0-.39,.03-.15,.08-.29,.17-.47,.28-.9,0-1.84,0-2.78,0-.38,0-.78,.09-1.11-.2-.07-.06-.2-.08-.31-.08-.5,0-1,.04-1.5-.02-.43-.05-.85-.34-1.25-.3-1.07,.09-2.05-.34-3.09-.42-.74-.06-1.46-.43-2.15-.71-.54-.22-1.06-.25-1.63-.29-1.21-.73-2.58-1.1-3.91-1.7-.23,.2-.44,.37-.49,.42-.48,.81,.14,1.31,.12,1.9-.02,.57,.45,1,.36,1.6-.1,.61,.21,1.17,.36,1.77-.11,.2-.21,.39-.37,.71v1.49c-.54,.7-1.35,.79-2.01,1.15-.78-.07-1.45,.55-2.25,.39-1.08,.38-2.23,.46-3.32,.77-.1,.03-.19,.11-.34,.2h-2.05c-.25,.13-.44,.23-.68,.35-.52,0-1.07,0-1.63,0-.39,0-.75,0-1.12,.2-.22,.12-.53,.1-.8,.1-1.17,.02-2.33,.01-3.5,.04-.26,0-.52,.12-.84,.2-.07-.04-.21-.11-.42-.21h-4.73c-.19-.11-.33-.19-.6-.34h-2.5c-.2-.2-.35-.36-.43-.45,.11-.78,.21-1.48,.35-2.41,.14-.4,.55-.91,.98-1.42,.65-.76,1.55-1.06,2.43-1.29,.83-.22,1.69-.4,2.53-.59,.79-.18,1.59-.33,2.39-.48,.11-.02,.22-.04,.3-.05,.67-.41,.98-1.05,1.26-1.71,.49-1.15,1.12-2.23,1.54-3.42,.15-.57,.09-1.16,.38-1.75,.23-.46-.04-1.1,.34-1.58-.08-.15-.15-.29-.25-.48,.08-.17,.17-.37,.3-.63-.11-1.12,.34-2.35-.35-3.49,.31-.75,.48-1.44,.09-2.22-.2-.41-.09-.98-.07-1.48,.03-.56-.16-1.07-.29-1.6-.12-.53-.36-1.02-.41-1.58-.05-.52-.38-1-.55-1.52-.2-.62-.63-1.14-.8-1.79-.15-.56-.59-1.04-.88-1.56-.71-1.26-1.6-2.35-2.8-3.18-.41-.28-.77-.63-1.16-.94-1.32-1.02-2.9-1.48-4.46-1.98-.45-.14-.95-.2-1.41-.38-.67-.26-1.37-.37-2.09-.38-.37,0-.74-.13-1.45-.27h-1.45c-.27,.11-.46,.4-.8,.18,.14-.66,.75-1.2,.55-1.93,.62-.94,.92-2.03,1.65-2.87,.09-.97,.7-1.71,1.1-2.54,.21-.42,.59-.78,.75-1.25,.11-.3,.17-.62,.32-1.17,.05-.06,.27-.31,.44-.59,.17-.28,.28-.59,.43-.88,.44-.88,.92-1.75,1.62-2.46,.36-.36,.57-.8,.71-1.28,.32-1.12,.91-2.09,1.56-3.09-.11-.25-.23-.54-.35-.82q-1.01-.61-1.99-.72c-.12-.1-.25-.21-.38-.31-.09-.07-.18-.13-.33-.25-2.82-.63-5.5-1.83-8.2-3.27-1.25-1.03-2.3-2.35-2.86-4.02,.05-.02,.16-.12,.24-.11,1.21,.29,2.44,.52,3.58,1.12,.17,.67,.34,1.35,.55,2.17,.51,.62,1.14,1.3,2.24,1.68h1.49c.5-.15,.86-.26,1.51-.46,.52-.25,.64-1.24,1.37-1.72,.53,.22,1.11,.24,1.74,.16,.14-.13,.3-.28,.48-.45v-1c-.94-.49-1.89-.87-3-.86-.36-.18-.75-.37-1.23-.6-.07,0-.23-.04-.39-.03-.61,0-1.18-.13-1.76-.33-.56-.19-1.11-.41-1.75-.39-.53,.02-1.02-.38-1.59-.32-1.11-.59-2.4-.64-3.5-1.11-.36-.85,.1-1.55,.31-2.26,.15-.5,.52-.99,.91-1.34,.65-.58,1.41-1.03,2.19-1.59Zm14.36,20.9c-.43,.88-1.07,1.48-1.7,2.1-.48,.46-.94,.94-1.37,1.45-.39,.46-.72,.96-1.12,1.5-.02,.14-.05,.36-.07,.54-.64,.8-1.26,1.58-1.72,2.16-.24,.62-.39,1.02-.56,1.46v1.62c.29,.41,.58,.8,.86,1.19,.25,.13,.49,.26,.41,.21,1.13,.47,1.81-.17,2.6-.12,.27,1.01,1.24,1.15,1.94,1.55,.6-.15,1.17-.29,1.85-.45,.29,.34,.66,.76,.96,1.11,.52,.19,.93,.33,1.29,.46,.37-.15,.69-.24,.97-.4,.34-.18,.65-.41,.91-.58,.76-1.34,1.5-2.61,2.47-3.77,.87,.28,1.7,.57,2.6,.32,.3-.29,.74-.47,.81-.93-.17-.54-.63-.71-1.02-.82-.95-.28-1.76-.85-2.68-1.13-.53,.22-1.11,.4-1.36,.91-.25,.5-.72,.77-1.02,1.22-.31,.46-.58,.93-.86,1.4-.38,.63-.48,.76-1.34,1.36-.19-.72,.15-1.46-.15-2.13-.24-.37-.57-.52-1-.42-.68,.53-1.37,1.06-2.09,1.61-.17-.19-.31-.35-.46-.51,.11-.33,.26-.63,.31-.95,.05-.32,.01-.65,.01-1-.36-.18-.69-.35-1.07-.54-.35,.31-.71,.58-.99,.9-.3,.35-.71,.52-1.09,.72-.24,.13-.53,.12-.74-.06,.38-.85,.75-1.7,1.14-2.56,.36-.27,.75-.55,1.07-.79,.05-.32,.08-.54,.1-.72,.9-.87,1.34-2.1,2.5-2.66,.07-.03,.06-.21,.12-.3,.36-.48,.72-.96,1.09-1.44,.47-.02,.48-.55,.94-.78,.79,.13,1.75-.17,2.62,.34,.68-.12,1.23,.41,1.93,.35,.65-.05,1.22,.49,1.92,.37,.18-.03,.39,.17,.6,.24,.31,.1,.62,.19,.94,.26,.26,.06,.53,.11,.8,.13,.33,.02,.67,.02,.94,.26,.02,.01,.09-.04,.22-.1,.09-.1,.22-.26,.36-.43-.05-.25-.1-.46-.14-.67-.53-.36-.99-.82-1.54-.99-.59-.18-1.12-.43-1.75-.73-.24,0-.58,.04-.9-.01-.26-.04-.5-.21-.76-.3-.41-.13-.83-.27-1.25-.33-1.08-.15-2.13-.51-3.24-.44-.09,0-.19-.1-.24-.13-1.15,.18-2.02,.84-3.04,1.46Zm10.43-13.59c-.39-.41-.82-.72-1.51-.6-.68,.97-1.86,1.53-2.73,2.56-.15,.04-.41,.12-.69,.2-.24,.27-.49,.55-.63,.7-.17,.66,.16,.88,.47,1.1h.99c.33-.41,.58-.84,.95-1.15,.45-.38,.97-.7,1.51-.94,.87-.38,1.4-1,1.65-1.88Zm1.11,1.61c-1.63,.99-3.02,2-4.04,3.33-.12,.58,.19,.81,.51,1.04,1.06-.18,1.81-.95,2.72-1.42,.59-.3,.69-1.11,1.33-1.39,.03-.01,.03-.1,.08-.23,0-.19-.02-.46-.04-.78-.15-.15-.31-.3-.56-.55Zm-13.87-3.59c.27-.3,.52-.58,.76-.85-.19-.75-.48-1.38-1.17-1.77h-.82c-.19,.19-.45,.47-.63,.66v1.48c.19,.17,.35,.32,.53,.49h1.32Zm5.46-1.13c-.3-.28-.61-.58-.88-.83h-.63c-.27,.29-.56,.61-.8,.87v.87c.19,.32,.36,.59,.54,.89,.76,0,1.35-.31,1.78-.89v-.92Zm-13.02-.75c-.63-.19-1.1-.21-1.61,.02v1c.2,.24,.36,.55,.82,.49,.25-.23,.53-.49,.79-.74v-.77Zm-4.6,.51c.07,.08,.26,.27,.38,.4,.37-.03,.58-.04,.78-.06,.17-.18,.32-.34,.44-.47,.14-.54-.05-.89-.54-1.17-.15,0-.36-.02-.53-.03-.44,.28-.65,.64-.53,1.31Z" style="fill: #fff;"/>
  <path d="M45.66,114.99c-.24,.56-.54,1.23-.03,1.91,0,.87,.19,1.76-.18,2.61-.08,.19-.07,.43-.09,.64-.05,.6,.17,1.26-.17,1.79-.31,.5-.11,1.06-.4,1.58-.24,.44-.14,1.07-.2,1.61-.27,.77-.99,1.31-1.03,2.18-.58,.09-.96-.34-1.48-.3-.47,.03-.95-.17-1.43-.28-.42-.1-.84-.33-1.25-.31-.54,.03-.9-.39-1.42-.4-.48-.02-.95-.23-1.47-.37-.22-.16-.48-.37-.75-.57-.28-.02-.55-.05-.79-.06-.49-.3-.94-.64-1.43-.86-2.2-.97-4.05-2.41-5.67-4.05-.69-1.32-1.26-2.6-1.68-3.96-.41-1.33-.59-2.67-.53-3.97-.09-.45-.41-.76-.29-1.18,.08-.3,.42-.55,.16-.91-.25-.34,.15-.57,.15-.89-.01-.7-.14-1.44,.31-2.09v-1.65c.22-.48,.43-.92,.67-1.43-.03-1.53,.78-2.85,1.47-4.22,.26-.07,.56-.08,.77-.22,.47-.31,1.01-.31,1.44-.15,.48,.18,.95,.24,1.44,.25,.44,0,.89,0,1.1,0,.74,.27,1.25,.45,1.88,.68h1.21c.13,.07,.27,.16,.42,.22,1.18,.47,2.2,1.21,3.31,1.82,.38,.21,.71,.53,1.02,.84,.93,.94,1.73,1.98,2.46,3.09,.28,.42,.44,.86,.63,1.31,.26,.59,.41,1.22,.71,1.81,.26,.52,.38,1.13,.44,1.72,.04,.45,.27,.83,.33,1.26,.05,.38,0,.78,.05,1.16,.06,.43,.19,.84,.31,1.38Z" style="fill: #fff;"/>
  <path d="M25.87,86.72c.67-.66,1.38-1.49,1.93-2.55,.56-.36,1.42-.47,1.64-1.32,.27-.14,.52-.27,.81-.42,.49-.03,1.01-.05,1.56,.17,.44,.18,.96,.13,1.45,.19-.14,.76-.56,1.32-.88,1.93-.22,.43-.7,.67-.74,1.26-.03,.4-.34,.78-.54,1.17-.22,.44-.44,.88-.65,1.32-.43,.88-.89,1.75-1.3,2.64-.34,.74-.62,1.5-.92,2.23h-.42c-.07-.37-.1-.76-.21-1.12-.08-.26-.26-.48-.41-.76-.64-.18-1.13,.16-1.6,.55-.26,.21-.49,.45-.73,.67h-.64c-.07-.12-.14-.2-.16-.3-.1-.51,.44-.89,.29-1.43-.12-.46,.27-.84,.29-1.26,.04-.76,.36-1.35,.81-1.93,.19-.24,.25-.59,.43-1.04Z" style="fill: #fdfdfd;"/>
  <path d="M37.09,128.58c-.62,.36-1.08,.63-1.44,.84-1.15,1.12-1.83,2.39-2.05,3.95-.98-.05-1.91,.22-2.79-.28-.77-.03-1.53-.06-2.3-.09-.13-.12-.26-.23-.35-.32-.45-.88,.35-1.6,.2-2.42,1.1-1.33,2.34-2.47,3.93-3.16,.75-.32,1.41,.12,2.06,.32,.88,.26,1.7,.71,2.74,1.16Z" style="fill: #fdfdfd;"/>
  <path d="M69.09,94.12c-.85,.5-1.41,.82-1.99,1.17-.1-.1-.22-.21-.35-.33,.07-.85-.44-1.56-.41-2.41,.03-.81-.52-1.56-.33-2.28-.02-.19,0-.26-.03-.29-.46-.59-.25-1.38-.6-2.01-.01-.02,.04-.09,.07-.13,.04-.03,.08-.09,.13-.09,.61,0,1.22,0,1.86,0,.79,.45,1.59,.91,2.5,1.44,.3,.71,.64,1.51,.97,2.29-.35,1.17-1.04,2.05-1.82,2.66Z" style="fill: #fcfcfc;"/>
  <path d="M71.17,106.02c-2.35-2.82-2.83-4.66-3.48-7.83,1.1-.41,2.12,.15,3.14,.25,1.16,.92,2.17,1.92,2.38,3.53-.02,.04-.15,.17-.18,.32-.05,.27-.05,.55-.07,.85-.56,.96-.83,2.14-1.79,2.88Z" style="fill: #fcfcfc;"/>
  <path d="M47.26,51.02c.3,.14,.49,.26,.69,.32,1.91,.63,2.28,1.12,2.78,3,.2,.76,.34,1.46,.23,2.24-.4-.09-.77-.14-1.1-.26-.35-.13-.68-.34-1.07-.55-.45-.15-1.01,.05-1.54-.26-.3-.18-.74-.15-1.12-.15-.72-.01-1.43,.02-2.15,.01-.21,0-.42-.07-.65-.11,.06-.79,.8-1.06,1.08-1.66,.24-.52,.84-.87,1.21-1.34,.42-.54,1.13-.67,1.63-1.25Z" style="fill: #fcfcfc;"/>
  <path d="M64.35,81.8c-.27-.57-.43-.91-.62-1.31-.03-.38,.08-.91-.13-1.23-.29-.43,.23-.73,0-1.05-.29-.39-.3-.81-.23-1.29,.37-.23,.66,.19,1.03,.14,.37-.05,.75,.02,1.11,.24,.31,.19,.72,.2,1.07,.37,.37,.17,.65,.41,.92,.67,.28,.27,.53,.57,.8,.87v1.27c-.21,.53-.46,1.19-.66,1.71-.4,.43-.7,.75-.9,.97-.67,.34-1.2,.62-1.71,.87-.37-.01-.48-.29-.68-.55v-1.69Z" style="fill: #fcfcfc;"/>
  <path d="M61.94,72.16c-.17-.21-.35-.42-.53-.62-.18-1.03,.34-.8-1.4-4.34,.59-.28,1.2-.04,1.67-.12,1.5,.59,2.98,.99,4.24,2.02v1.87c-.88,.87-1.82,1.81-2.75,2.73h-.67c-.3-.5-.54-.97-.57-1.54Z" style="fill: #fbfbfb;"/>
  <path d="M54.37,58.87c.71-.76,1.74-.92,2.52-1.47h1.86c.52,.28,1.04,.56,1.52,.82,.25,.78-.15,1.59,.33,2.35-.21,.33-.42,.7-.69,1.03-.27,.35-.7,.61-.86,.99-.19,.44-.45,.73-.83,1.01-.61-.79-1.12-1.65-1.7-2.45-.61-.83-1.42-1.52-2.16-2.29Z" style="fill: #fcfcfc;"/>
  <path d="M73.34,108.3c.23-.59,.86-.6,1.29-.9h2.03c.57,.28,1.16,.56,1.77,.86,.59,1.22,1.38,2.37,1.21,3.84-.15,.29-.29,.58-.47,.93-.17,0-.38,.02-.61,.03-.9-1.09-2.23-1.64-3.11-2.73-.17-.21-.38-.4-.58-.59-.32-.3-.6-.64-1.04-.8-.24-.09-.46-.32-.48-.64Z" style="fill: #fafafa;"/>
  <path d="M82.31,114.96c.46-.76,1.37-.73,1.96-1.25h2.05c.33,.17,.71,.37,1.09,.57,.3,.55,.59,1.08,.93,1.71-.27,.83,.54,1.66,.24,2.6-.26,.25-.55,.21-.76,.04-.86-.69-1.85-1.16-2.77-1.74-.87-.56-1.73-1.15-2.64-1.65-.04-.02-.04-.09-.12-.27Z" style="fill: #f9f9f9;"/>
  <path d="M30.78,73.04c-.17-.31-.31-.53-.42-.77-.11-.24-.19-.5-.29-.77,.36-.29,.83-.2,1.21-.08,.56,.17,1.11,.35,1.71,.35-.06,.91-.78,.95-1.22,1.27h-.98Z" style="fill: #e8e8e8;"/>
  <path d="M41.88,83.29c1.01-.61,1.89-1.27,3.04-1.46,.05,.03,.15,.14,.24,.13,1.11-.08,2.16,.29,3.24,.44,.43,.06,.84,.2,1.25,.33,.26,.08,.5,.25,.76,.3,.32,.05,.66,.01,.9,.01,.63,.31,1.16,.56,1.75,.73,.55,.17,1.01,.64,1.54,.99,.04,.21,.09,.42,.14,.67-.14,.16-.28,.33-.36,.43-.13,.06-.2,.12-.22,.1-.27-.24-.61-.24-.94-.26-.27-.02-.54-.07-.8-.13-.32-.07-.63-.16-.94-.26-.21-.07-.42-.27-.6-.24-.7,.12-1.27-.42-1.92-.37-.69,.06-1.24-.48-1.93-.35-.87-.51-1.83-.21-2.62-.34-.46,.23-.47,.77-.94,.78-.36,.48-.73,.95-1.09,1.44-.06,.08-.05,.26-.12,.3-1.16,.56-1.6,1.79-2.5,2.66-.03,.18-.06,.39-.1,.72-.32,.24-.71,.53-1.07,.79-.38,.87-.76,1.71-1.14,2.56,.2,.17,.49,.18,.74,.06,.38-.2,.79-.37,1.09-.72,.28-.33,.64-.59,.99-.9,.37,.19,.71,.36,1.07,.54,0,.35,.04,.68-.01,1-.05,.31-.2,.61-.31,.95,.15,.17,.29,.33,.46,.51,.72-.55,1.41-1.08,2.09-1.61,.43-.1,.76,.05,1,.42,.3,.67-.04,1.41,.15,2.13,.86-.6,.96-.73,1.34-1.36,.28-.47,.55-.94,.86-1.4,.3-.45,.77-.72,1.02-1.22,.25-.51,.83-.69,1.36-.91,.91,.28,1.73,.85,2.68,1.13,.39,.12,.85,.28,1.02,.82-.06,.45-.51,.64-.81,.93-.9,.25-1.73-.04-2.6-.32-.97,1.17-1.71,2.43-2.47,3.77-.27,.17-.58,.4-.91,.58-.29,.15-.6,.25-.97,.4-.36-.13-.77-.27-1.29-.46-.3-.35-.66-.77-.96-1.11-.68,.17-1.25,.31-1.85,.45-.7-.4-1.66-.54-1.94-1.55-.8-.05-1.48,.6-2.6,.12,.09,.05-.16-.08-.41-.21-.28-.38-.56-.78-.86-1.19v-1.62c.17-.44,.32-.84,.56-1.46,.47-.59,1.08-1.36,1.72-2.16,.02-.18,.05-.4,.07-.54,.4-.53,.73-1.04,1.12-1.5,.43-.51,.9-.98,1.37-1.45,.64-.61,1.28-1.22,1.7-2.1Z" style="fill: #040404;"/>
  <path d="M52.31,69.7c-.25,.89-.79,1.5-1.65,1.88-.54,.24-1.06,.56-1.51,.94-.37,.3-.62,.74-.95,1.15h-.99c-.31-.21-.63-.44-.47-1.1,.14-.16,.39-.44,.63-.7,.29-.08,.54-.16,.69-.2,.87-1.03,2.05-1.59,2.73-2.56,.69-.12,1.11,.19,1.51,.6Z" style="fill: #0c0c0c;"/>
  <path d="M53.42,71.3c.25,.25,.41,.4,.56,.55,.02,.32,.03,.59,.04,.78-.04,.14-.05,.22-.08,.23-.64,.28-.74,1.08-1.33,1.39-.91,.47-1.66,1.24-2.72,1.42-.32-.23-.64-.46-.51-1.04,1.02-1.33,2.41-2.34,4.04-3.33Z" style="fill: #0c0c0c;"/>
  <path d="M39.55,67.71h-1.32c-.18-.17-.34-.32-.53-.49v-1.48c.18-.18,.44-.46,.63-.66h.82c.68,.39,.98,1.02,1.17,1.77-.24,.27-.5,.55-.76,.85Z" style="fill: #0f0f0f;"/>
  <path d="M45.01,66.58v.92c-.43,.58-1.01,.89-1.78,.89-.18-.3-.34-.57-.54-.89v-.87c.24-.26,.53-.58,.8-.87h.63c.27,.25,.58,.55,.88,.83Z" style="fill: #111;"/>
  <path d="M31.99,65.83v.77c-.26,.24-.54,.51-.79,.74-.46,.05-.62-.26-.82-.49v-1c.51-.23,.98-.21,1.61-.02Z" style="fill: #222;"/>
  <path d="M27.38,66.34c-.12-.68,.09-1.03,.53-1.31,.17,0,.39,.02,.53,.03,.48,.28,.68,.63,.54,1.17-.12,.13-.27,.28-.44,.47-.2,.02-.41,.03-.78,.06-.12-.13-.3-.33-.38-.4Z" style="fill: #101010;"/>
</svg>