<?xml version="1.0" encoding="UTF-8"?>
<svg id="Ebene_1" data-name="Ebene 1" xmlns="http://www.w3.org/2000/svg" width="35.28mm" height="35.28mm" viewBox="0 0 100 100">
  <path d="M92.6,81.35v1.36c-.47-.02-.7,.21-.68,.68v.68c-.11,0-.3-.02-.3,0-.25,.95-1.29,1.59-1.06,2.72-.47-.02-.7,.21-.68,.68s-.21,.7-.68,.68-.7,.21-.68,.68c-.47-.02-.7,.21-.68,.68-.47-.02-.7,.21-.68,.68h-1.01c-.25,.23-.5,.46-.75,.7h-1.35c-.51,1.15-2.01,.18-2.56,1.22-.76,.07-1.52,.14-2.25,.21l-.63,.63h-9.54l-.65,.65c-1.99,0-4.02,0-6.06,0-.09,0-.18,.12-.26,.18-.16,.16-.32,.32-.49,.49h-21.11c-.23-.22-.48-.45-.72-.67h-1.34c-.26,.24-.51,.46-.72,.66-.75,.27-.97-.5-1.59-.71h-6.61c-.2-.2-.36-.36-.64-.64h-6.82c-.28-.28-.44-.44-.64-.64-.23,.19-.46,.39-.71,.6-.22-.2-.46-.42-.71-.65h-2.37c-.07-.19-.1-.5-.23-.54-.76-.27-1.72,.06-2.26-.82-.94,.34-1.56-.41-2.32-.67-.19-.07-.43,0-.65,0,.02-.47-.21-.7-.68-.68,.02-.47-.21-.7-.68-.68,.02-.47-.21-.7-.68-.68,.02-.47-.21-.7-.68-.68v-.68c.02-.47-.21-.7-.68-.68,0-.4,0-.8,0-1.36-.56,0-.96,0-1.36,0v-1.36c.02-.47-.21-.7-.68-.68v-.68c0-.75,.04-1.5-.02-2.25-.02-.31-.27-.56-.66-.48v-6.55c-.3-.12-.49-.2-.68-.27v-2.05c.19-.08,.39-.16,.63-.26v-10.39c-.24-.1-.44-.18-.63-.26v-6.82c.19-.07,.52-.12,.54-.23,.09-.41-.21-.48-.54-.45v-3.41c.02-.51-.03-.97,.37-1.45,.59-.7,.5-.78-.37-1.28v-8.18c.19-.08,.39-.16,.63-.26v-4.94c-.24-.1-.44-.18-.63-.26v-1.36c.65,.05,.7-.39,.67-.86-.03-.49,.24-1.19-.67-1.19v-2.05c.65,.05,.7-.39,.67-.86-.03-.49,.24-1.19-.67-1.19v-1.36c.19-.07,.38-.15,.63-.25v-4.12c.29-.31,.52-.54,.73-.77v-2.36c.47,.02,.7-.21,.68-.68,.02-.99,1.28-1.12,1.41-2.14,.09-.68,.63-1.31,.99-1.95,.03-.05,.21,0,.33,0,1.08-.27,1.47-.99,1.36-2.05,1.17-.63,2.44-1.07,3.53-1.85,.43-.31,.84-.11,1.25-.2,.31,0,.63,.06,.92-.02,.29-.07,.52-.3,.44-.67,1.01,0,2.03,0,3.04,0,.16-.15,.32-.31,.49-.47,.19-.07,.39-.2,.58-.21,1.13-.02,2.26,0,3.38,0h5.18c.12-.3,.19-.49,.27-.68h3.41c.97,0,1.95,.03,2.92-.02,.32-.01,.57-.27,.49-.67h24.54c-.08,.4,.17,.65,.49,.67,.97,.05,1.94,.02,2.92,.02h2.73c-.08,.41,.18,.66,.5,.67,1.42,.04,2.85,.02,4.27,.02h4.09c-.08,.39,.17,.64,.48,.66,.74,.05,1.5,.02,2.24,.02h2.36c.44,.57,1.02,.79,1.73,.68-.07,.37,.15,.59,.44,.67,.29,.07,.61,.02,.92,.02,.75,.04,1.01,.74,1.47,1.16,.3,.27,.6,.17,.83,.2,.93,.61,1.4,1.69,2.47,2.05-.11,1.06,.29,1.78,1.36,2.05-.08,.54,.45,.67,.68,1.05,0,.6-.04,1.24,.02,1.88,.03,.31,.27,.56,.66,.48,0,.31-.06,.63,.02,.92,.07,.29,.3,.52,.67,.44v2.05c0,.97-.03,1.95,.02,2.92,.01,.32,.27,.57,.67,.49v5.45c-.42-.08-.63,.18-.67,.52-.05,.46,.03,.9,.67,.85v2.05c-.65-.05-.7,.39-.67,.85,.03,.49-.24,1.19,.67,1.19v15.41c.3,.12,.49,.2,.68,.27v1.36c-.19,.08-.45,.1-.56,.24-.53,.69,.39,1.03,.43,1.59-.17,.17-.32,.32-.56,.56v22.16c-.19,.07-.38,.15-.63,.25v3.44c-.29,.31-.52,.54-.73,.77v1ZM43.19,13.18h-6.81c-.25-.23-.5-.46-.71-.66h-3.38c-.28,.25-.53,.47-.8,.7h-6.75c-.2,.2-.36,.36-.64,.64h-3.76c-1.15,.6-1.87,1.12-2.66,1.33-.64,.16-1.18,.59-1.26,.97-.28,1.36-1.51,1.87-2.21,2.88v12.21c.26,.36,.77,.53,.65,1.27-.15,.21-.4,.56-.69,.95v25.78c-.88,.55-.68,1.34-.55,2.04,.23,.3,.43,.56,.65,.84v18.32c.46,.17,.86,.31,1.23,.45,.03,.28,.05,.5,.06,.63,1.09,1.08,2.13,2.12,3.26,3.24,.95,0,2.09,0,3.22,.01,.08,0,.16,.15,.14,.14,.26,.24,.43,.38,.61,.55h6.08c.18,.18,.34,.34,.61,.61h14.36c.6,.96,1.39,.77,2.1,.64,.3-.23,.55-.43,.66-.52h10.42c.31,1,1.12,.49,1.77,.62,.24-.21,.49-.44,.76-.68h8.8c.26-.24,.5-.46,.75-.7h8.83c.26-.24,.5-.46,.74-.69,1.01,.42,1.76-.29,2.43-.71,1.69-1.06,3.04-2.52,3.99-4.68,0-2.15,0-4.64,0-7.13,0-.09,.12-.18,.18-.26,.16-.16,.32-.32,.5-.5,0-.78,.01-1.57-.01-2.36,0-.2-.14-.39-.21-.58-.16-.17-.31-.33-.45-.48v-4.08c.79-.5,.73-1.48,1.23-2.11-.21-.26-.41-.51-.63-.79v-23.05l-.54-.54v-8.38c.47-.33,.71-.68,.58-1.24-.2-.21-.43-.46-.66-.71v-8.3c-1.01-.11-.46-1.27-1.18-1.79-.71-.52-1.23-1.31-1.83-1.98-.07,.09-.15,.19-.22,.28-.93-.49-1.86-.98-2.97-1.57h-3.76c-.23-.23-.39-.39-.55-.55-.1-.02-.21-.06-.31-.06-2.61,0-5.22,0-7.83,0-.09,0-.18-.11-.27-.16-.16-.16-.32-.32-.48-.48-.76,.03-1.55-.22-2.32,.19-.14,.15-.29,.32-.42,.47h-6.75c-.46-.22-.6-.79-1.15-.68-.64-.07-.75,.91-1.46,.68-.73-.41-1.42-1.03-2.45-.51-.2,.37-.55,.6-1.12,.5-.21-.18-.45-.4-.75-.67-1.64,0-3.33,0-5.03,0-.2,0-.4,.13-.61,.2-.15,.15-.31,.32-.46,.47Z" style="fill: #171717;"/>
  <path d="M65.73,61.58h-1.94c-1.13-.4-.99-1.69-1.82-2.33v-1.98c-.23-.27-.45-.52-.7-.81v-1.3c-.61-.67-1.61-.53-2.09-1.27-.45,.37-.7,.59-.97,.82-1.17,.18-2.41-.09-3.69,.17v1.88c-.47,.91-1.13,1.59-.64,2.55l.6,.6v2.95c.88,.05,1.64,.09,2.4,.14,.16,.16,.32,.32,.56,.56h1.97c.33,.3,.66,.59,1.13,1.01,.08,.86,.04,1.86,0,2.89-1.41,1.09-2.19,2.6-2.96,4.19-.31,.63-.32,1.56-1.15,1.91-.83,.36-.41,1.51-1.2,1.89-.79,.38-.62,1.36-1.2,1.89-.59,.54-1.12,1.13-1.69,1.68-.47,.45-1.33,.24-1.64,.97h-2.05c-.75-.79-1.47-1.54-1.99-2.57-.49-.96-1.54-1.64-2.39-2.49v-1.36c-.61-.61-1.42-1.15-1.83-1.91-.42-.78-1.15-1.4-1.41-2.13-.33-.92-.99-1.43-1.55-2.18v-2.77c.26-.21,.61-.49,1.12-.9h3.85c.33-.3,.65-.6,1.05-.97v-6.96c-.32-.35-.63-.68-.91-.98h-7.53c-.57,.41-.19,1.38-1,1.66v1.37c.14,.37,.76,.48,.6,1.44-.22,.52-1.08,.95-1.62,1.65h-1.36c-.24-.22-.48-.44-.74-.68h-1.34c-.98-1.25-2.55-1.67-3.66-2.72-.69,.06-.96-.54-1.31-.92-.61-.66-1.3-1.14-2.14-1.44-.82-.29-1.56-.73-2.14-1.43-.58-.69-1.27-1.3-1.95-1.97v-2.71c.72-.73,1.36-1.54,2.48-1.98,.87-.35,1.47-1.38,2.2-2.09,.4-.38,.79-.79,1.26-1.07,.81-.49,1.82-.59,2.51-1.34,.69-.74,1.42-1.44,2.07-2.09h1.83c.65-.4,1.28-.84,2.23-.66,.24,.22,.57,.52,.97,.89v1.88c.28,.41,.53,.76,.76,1.1,.12,.55-.27,.82-.65,1.19,.28,.31,.56,.61,.9,.98h7.67c.26-.26,.5-.5,.74-.74,.07-.09,.16-.16,.2-.26,.03-.1,0-.22,0-.34v-5.74c-.36-.36-.68-.68-1.01-1.01h-2.69c-.26-.24-.5-.47-.76-.7h-1.34l-.99-.99v-2.72c.43-.47,1.14-.9,1.27-1.47,.15-.62,.4-1.06,.85-1.35,.63-.42,.42-1.24,.95-1.67,.55-.44,.22-1.05,.41-2.01,.39-.34,1.29-.82,1.7-1.56,.43-.78,1.15-1.39,1.43-2.12,.34-.89,1-1.42,1.49-2.12,.21-.3-.05-.95,.56-1.02,.86-.09,1.43-1.19,2.56-.64,.15,.13,.4,.35,.69,.6h1.35c.75,.81,1.52,1.63,2.22,2.38,.63,1.29,1.1,2.61,1.88,3.7,.51,.7,1,1.39,1.41,2.16,.35,.66,.48,1.45,1.19,1.9,.68,.43,.52,1.37,1.17,1.92,.61,.52,.94,1.4,1.31,2.16,.13,.28,.02,.67,.02,1.01-1.73,1.85-1.73,1.84-4.33,2.53-.29,.08-.51,.41-.81,.65h-1.28c-.72,.33-.17,1.4-1.04,1.64v4.85c.22,.24,.53,.56,.89,.95h6.31c.56-.74,.03-1.56,.44-2.49-.02,.02,.15-.14,.3-.3,.26-1.34,1.08-3.01,1.93-3.95h2.01c.27,.24,.52,.47,.74,.67h1.12c.55,.11,.79,.68,1.21,1.03,.35,.29,.6,.82,.98,.92,.56,.14,1.05,.29,1.38,.77h1.36c.69,.54,1.09,1.46,2.14,1.44,.32,.52,.99,.46,1.38,.76,.69,.52,1.35,1.03,2.12,1.47,.86,.48,1.48,1.39,2.21,2.13v4.05c-1.08,1.62-3.18,2.03-4.26,3.64-1.09,.4-2.1,.98-3.12,1.51-1.4,.73-2.82,1.43-4.27,2.03-.67,.28-.95,.96-1.53,1.25-.47,.24-1.08,.2-1.41,.82Z" style="fill: #171717;"/>
</svg>