<?xml version="1.0" encoding="UTF-8"?>
<svg id="Ebene_1" data-name="Ebene 1" xmlns="http://www.w3.org/2000/svg" width="35.28mm" height="52.92mm" viewBox="0 0 100 150">
  <path d="M51.1,110.51c.22-.21,.45-.34,.53-.52,.28-.7,.79-1.17,1.43-1.54,.14-.08,.33-.16,.39-.29,.41-.99,1.48-1.26,2.12-2.02,.47-.56,1.65-.89,2.82-.99,.16,.08,.41,.2,.65,.31,.59,.26,.96,.72,1.17,1.31,.13,.36,.26,.71,.36,1.08,.11,.42,.11,.89,.31,1.25,.21,.38,.16,.74,.22,1.15,.5,.61,.94,1.35,1.57,1.84,.62,.48,1.13,1.04,1.66,1.55,.15,.74-.11,1.5,.35,2.14,.02,.67,.02,1.33,.05,2,0,.15,.13,.3,.2,.46-.45,.92-.17,1.92-.27,2.99-.05,.1-.16,.3-.26,.5-.1,.67,.52,1.21,.37,1.89,.47,.64,.51,1.43,.76,2.14,.17,.5,.21,.94,0,1.43-.13,.29-.18,.62-.24,.87-.39,.44-.87,.6-1.34,.73-.65,.18-1.21,.46-1.69,.95-.39,.4-.89,.61-1.43,.76-.83,.24-1.64,.53-2.5,.71-.78,.17-1.53,.56-2.35,.64-.26,.03-.49,.21-.69,.3-.49-.15-.9-.27-1.35-.4-.56,.56-1.06,1.17-1.67,1.64-.55,.43-1.21,.72-1.9,1.12-2.15-.4-4.25-1.1-6.4-2.03h-.82c-1.29-.51-2.3-1.36-3.45-1.98-1.18-.63-2.21-1.43-3.15-2.3-.26-.05-.48-.09-.65-.12-.67-.5-1.17-1.07-1.56-2.02,.02-.55,.05-1.32,.08-2.09,.42-.47,.2-1.06,.33-1.64,.15-.18,.32-.4,.5-.61,.24-.72,.57-1.43,.43-2.18,.23-.54,.85-.84,.74-1.49,.33-.8,.59-1.63,1.02-2.39,.27-.48,.5-.96,.62-1.51,.09-.4,.36-.8,.65-1.11,.91-.97,1.46-2.18,2.21-3.27,.44-.29,.89-.6,1.4-.94h4.06c.42,.2,.82,.39,1.28,.61,.31,.02,.69,.05,1.08,.08,.75,.29,1.4,.85,2.36,1Zm-3.27,6.3c-.32-.3-.6-.56-.83-.78,.02-.4,.04-.68,.04-.8,.51-1.18,1.49-1.88,1.92-2.96-.83-.29-1.59-.62-2.26-.5-.56-.25-.96-.43-1.34-.6h-1.65c-.34,.15-.64,.28-1.21,.54,0,0-.18,.21-.33,.44-.19,.27-.35,.55-.53,.82-.15,.23-.5,.18-.62,.5-.15,.4-.34,.84-.64,1.13-.41,.38-.33,.91-.57,1.35-.31,.56-.79,1.11-.77,1.79,.01,.77-.48,1.32-.71,1.98-.22,.64-.27,1.27-.29,1.83-.24,.47-.44,.86-.64,1.25-.14,.53,.14,1.11-.17,1.62-.32,.52-.23,1.05-.14,1.53,1.05,1.13,2.52,1.46,3.62,2.36,.29,.24,.67,.36,1.02,.52,1.09,.48,2.1,1.15,3.26,1.47,1.15,.32,2.2,.9,3.36,1.24,.65,.19,1.26,.32,1.94,.22,.87-.82,1.24-1.93,1.76-2.95,.45-.88,.75-1.82,.65-2.74,.22-.37,.38-.64,.53-.89h1.39c.25,.3,.5,.59,.78,.91-.12,.37-.24,.73-.38,1.17,.16,.54-.13,1.22,.16,1.91,.56-.24,1.06-.45,1.58-.68,1.05,.08,2.03-.25,2.98-.68,.8-.37,1.62-.63,2.5-.74,.27-.28,.54-.56,.76-.79v-1.15c-.23-.47-.42-.87-.59-1.23-.03-.42,.05-.88-.12-1.18-.3-.52-.27-1.05-.3-1.6-.06-1.33,.34-2.58,.68-3.79-.23-.95-.71-1.77-.71-2.82-.57-.53-1.17-1.11-1.79-1.66-.2-.18-.48-.26-.68-.43-.25-.21-.47-.47-.69-.72-.06-.07-.06-.2-.08-.32,.08-.14,.16-.28,.26-.47-.09-.26-.22-.56-.28-.88-.06-.32-.04-.66-.06-.99-.2-.39-.43-.77-.6-1.17-.1-.24-.22-.36-.53-.33-1.1,1.1-2.44,1.99-3.54,3.16-.31,.33-.48,.79-.8,1.02-1.14,.81-2.03,1.86-3.01,2.84-.31,.31-.69,.54-1.09,.84-.21,.57-.74,.96-1.26,1.43Z" style="fill: #030303;"/>
  <path d="M47.83,116.81c.52-.48,1.05-.87,1.26-1.43,.4-.31,.79-.54,1.09-.84,.97-.98,1.87-2.02,3.01-2.84,.32-.23,.5-.69,.8-1.02,1.1-1.17,2.44-2.06,3.54-3.16,.3-.02,.43,.09,.53,.33,.17,.4,.4,.78,.6,1.17,.02,.33,0,.67,.06,.99,.06,.31,.19,.61,.28,.88-.11,.19-.19,.34-.26,.47,.03,.12,.02,.25,.08,.32,.21,.25,.43,.51,.69,.72,.2,.17,.49,.25,.68,.43,.62,.55,1.22,1.13,1.79,1.66,0,1.05,.48,1.87,.71,2.82-.34,1.21-.74,2.46-.68,3.79,.02,.55,0,1.08,.3,1.6,.17,.3,.09,.76,.12,1.18,.17,.36,.36,.76,.59,1.23v1.15c-.23,.24-.49,.51-.76,.79-.88,.11-1.71,.37-2.5,.74-.95,.44-1.93,.76-2.98,.68-.52,.22-1.02,.43-1.58,.68-.29-.69,0-1.37-.16-1.91,.14-.44,.26-.8,.38-1.17-.28-.32-.52-.61-.78-.91h-1.39c-.15,.25-.31,.53-.53,.89,.09,.92-.21,1.86-.65,2.74-.52,1.02-.89,2.13-1.76,2.95-.68,.1-1.29-.03-1.94-.22-1.16-.33-2.21-.92-3.36-1.24-1.17-.32-2.17-.99-3.26-1.47-.35-.15-.73-.28-1.02-.52-1.1-.9-2.58-1.23-3.62-2.36-.1-.48-.18-1.01,.14-1.53,.31-.51,.03-1.09,.17-1.62,.2-.39,.4-.78,.64-1.25,.02-.56,.07-1.19,.29-1.83,.23-.66,.72-1.22,.71-1.98-.01-.68,.46-1.23,.77-1.79,.24-.43,.16-.96,.57-1.35,.3-.29,.49-.73,.64-1.13,.12-.33,.47-.27,.62-.5,.18-.27,.34-.56,.53-.82,.16-.23,.34-.44,.33-.44,.58-.26,.88-.39,1.21-.54h1.65c.38,.17,.78,.35,1.34,.6,.67-.11,1.43,.21,2.26,.5-.44,1.08-1.41,1.78-1.92,2.96,0,.13-.02,.4-.04,.8,.23,.22,.51,.48,.83,.78Zm-2.15,2.92c-.35-.66-.68-1.29-1-1.92,0-.34,.04-.67-.01-1-.04-.26-.18-.5-.3-.82,.36-.25,.72-.49,1.07-.74,.4-.28,.79-.57,1.18-.85-.17-.5-.27-.99-.78-1.25h-.94c-.73,.8-1.95,.88-2.55,1.97,.04,.45-.02,1.04,.16,1.53,.14,.38,.18,.73,.18,1.11,0,.27,0,.55,0,.63,.3,.61,.51,1.05,.73,1.5-.94,1.01-2.2,1.58-2.95,2.71-.13,.4-.26,.81-.38,1.2,.26,.97,.7,1.85,1.37,2.56,.67,.72,1.31,1.5,2.2,1.74h.94c.14-.19,.27-.35,.38-.5-.81-.91-1.4-1.92-2.28-2.69-.27-.24-.4-.64-.6-.99,1.25-.99,2.55-1.89,3.6-2.98v-1.24Zm11.18-2.47c-.54-.26-1.02,.02-1.48-.33,.31-.93,.63-1.89,.94-2.84-.28-.61-.51-1.25-1.21-1.59h-.92c-.17,.18-.33,.34-.53,.56,0,.68,.15,1.44-.04,2.1-.21,.71-.25,1.39-.23,1.95,.17,.5,.28,.86,.41,1.23,.39,.56,.93,.91,1.57,1.14,.27,.01,.55,.03,.81,.04,.57,.47,1.38,.5,1.85,1.21-.09,.21-.24,.44-.29,.7-.07,.32-.06,.65-.07,.85-.29,.38-.5,.63-.63,.8v1.96c.18,.15,.33,.29,.47,.41,.91-.52,1.18-1.5,1.83-2.16,.36-1.02,.72-2.04,1.07-3.04-.58-1.25-1.31-2.21-2.72-2.46-.3-.05-.55-.34-.83-.51Zm-4.49,5.89c-.13-.25-.24-.44-.34-.63-.02-.05-.02-.11-.05-.16-.03-.05-.07-.1-.12-.11-.21-.06-.44-.06-.62-.16-.22-.13-.4-.34-.56-.48-.02-.99,.96-1.61,.62-2.66-.16-.14-.29-.49-.76-.43-.53,.5-1.14,.97-1.4,1.74-.09,.25-.1,.54-.22,.77-.15,.28-.37,.52-.52,.71,.04,.56,.72,.67,.59,1.28-1.12,.53-2.37,.87-3.58,1.26-.27,.26-.65,.43-.69,.92,.22,.54,.81,.64,1.25,.91,.42-.12,.79-.38,1.26-.32,.32,.04,.67,.02,.98-.07,.72-.21,1.39-.61,2.18-.59,.14,0,.28-.15,.43-.21,.78-.3,1.17-.95,1.55-1.77Z" style="fill: #fefefe;"/>
  <path d="M45.68,119.72v1.24c-1.05,1.08-2.35,1.98-3.6,2.98,.21,.35,.33,.75,.6,.99,.88,.77,1.46,1.78,2.28,2.69-.12,.15-.24,.31-.38,.5h-.94c-.89-.23-1.53-1.02-2.2-1.74-.67-.72-1.11-1.59-1.37-2.56,.12-.39,.25-.8,.38-1.2,.75-1.13,2.01-1.7,2.95-2.71-.22-.45-.43-.89-.73-1.5,0-.08,0-.35,0-.63,0-.38-.04-.73-.18-1.11-.18-.49-.12-1.08-.16-1.53,.6-1.09,1.82-1.17,2.55-1.97h.94c.51,.26,.6,.75,.78,1.25-.39,.28-.78,.56-1.18,.85-.35,.25-.7,.49-1.07,.74,.12,.32,.26,.56,.3,.82,.05,.33,.01,.66,.01,1,.33,.63,.66,1.25,1,1.92Z" style="fill: #060606;"/>
  <path d="M56.86,117.25c.28,.18,.53,.46,.83,.51,1.41,.25,2.14,1.21,2.72,2.46-.35,1-.71,2.02-1.07,3.04-.65,.66-.92,1.64-1.83,2.16-.14-.12-.29-.26-.47-.41v-1.96c.13-.17,.33-.42,.63-.8,.01-.2,0-.53,.07-.85,.05-.25,.2-.49,.29-.7-.48-.71-1.29-.74-1.85-1.21-.26-.01-.54-.03-.81-.04-.64-.22-1.18-.58-1.57-1.14-.12-.37-.24-.73-.41-1.23-.02-.56,.02-1.24,.23-1.95,.19-.66,.04-1.42,.04-2.1,.2-.21,.35-.37,.53-.56h.92c.7,.34,.93,.97,1.21,1.59-.31,.95-.63,1.91-.94,2.84,.45,.35,.93,.08,1.48,.33Z" style="fill: #050505;"/>
  <path d="M52.37,123.14c-.38,.81-.77,1.47-1.55,1.77-.15,.06-.29,.22-.43,.21-.79-.02-1.46,.39-2.18,.59-.31,.09-.66,.12-.98,.07-.47-.06-.84,.2-1.26,.32-.45-.28-1.03-.37-1.25-.91,.04-.49,.42-.66,.69-.92,1.22-.4,2.46-.73,3.58-1.26,.13-.62-.55-.72-.59-1.28,.14-.19,.37-.43,.52-.71,.12-.23,.13-.52,.22-.77,.26-.76,.88-1.24,1.4-1.74,.47-.06,.6,.29,.76,.43,.35,1.06-.64,1.68-.62,2.66,.16,.14,.34,.35,.56,.48,.18,.1,.42,.1,.62,.16,.05,.01,.09,.07,.12,.11,.03,.05,.02,.11,.05,.16,.1,.19,.2,.38,.34,.63Z" style="fill: #070707;"/>
</svg>