<?xml version="1.0" encoding="UTF-8"?>
<svg id="Ebene_1" data-name="Ebene 1" xmlns="http://www.w3.org/2000/svg" width="35.28mm" height="52.92mm" viewBox="0 0 100 150">
  <path d="M78.14,85.14c.41,.88,.68,1.4,1.09,1.87,.49,.56,.87,1.21,1.16,1.94,.38,.95,.85,1.88,1.24,2.84,.29,.7,.8,1.33,.72,2.15,.32,.63,.49,1.31,.64,2,.12,.52,.35,1.02,.57,1.52,.21,.51,.04,1.05,.29,1.6,.22,.47,.14,1.08,.19,1.59,.2,.59,.4,1.16,.59,1.71-.09,.16-.18,.31-.23,.4,.09,.52,.23,1,.25,1.48,.04,1.44,.03,2.89,.03,4.33,0,.44-.02,.89-.34,1.29,0,.69,0,1.41,0,2.13,0,.49,.08,1-.26,1.44-.09,.11-.07,.32-.08,.48-.04,.54,.05,1.09-.29,1.61-.16,.24-.07,.65-.07,.98,0,.66-.11,1.29-.28,1.94-.18,.69-.39,1.35-.66,2.01-.25,.61-.64,1.13-.97,1.69-.69,1.14-1.72,1.82-2.8,2.48-.18,.11-.35,.25-.56,.41,.09,.43,.2,.84,.25,1.26,.04,.44,.02,.89,.02,1.33,0,.44,0,.89,0,1.24-.2,.55-.36,1.01-.53,1.47-.18,.46-.37,.91-.69,1.71-.23,.37-.98,.66-1.62,1.19h-1.89s-.18-.09-.33-.16c-1.73-.87-1.85-1.02-2.64-2.91-.21-.5-.49-.97-.75-1.48-.16-.02-.32-.04-.55-.08-.27,.2-.56,.44-.89,.64-.33,.2-.67,.37-1.03,.5-.81,.3-1.63,.59-2.46,.84-.62,.19-1.24,.38-1.92,.38-.72,0-1.33,.38-1.97,.59v2.16c-.19,.55-.33,.96-.57,1.65-.3,.24-.81,.66-1.48,1.21,.06,0-.1,0-.26,.03-.42,.08-.78,.47-1.25,.29-.56-.2-1.17-.23-1.68-.58-.36-.25-.79-.38-1.15-.62-.32-.22-.58-.52-.74-.67-.22-.51-.28-.94-.53-1.19-.35-.36-.3-.82-.51-1.2-.18-.33-.38-.65-.52-.89-.9-.4-1.6,.15-2.35,.16-.72,0-1.48,.12-2.16-.05-.76-.19-1.51-.26-2.28-.3-.5-.45-1.2-.15-1.72-.42-.6-.31-1.34-.08-1.87-.56-.59-.05-1.12-.5-1.88-.22-.1,.16-.29,.42-.45,.71-.68,1.28-1.56,2.4-2.64,3.37-.42,.38-.91,.6-1.46,.83-.98-.36-2.13-.44-2.84-1.59v-2.53c.65-.94,.87-2.19,1.19-3.45-.16-.04-.35-.09-.57-.15-.32,.4-.61,.79-.92,1.15-.29,.34-.71,.6-.89,.98-.22,.47-.74,.61-.93,1.09-.09,.22-.4,.35-.62,.51-.71,.49-1.41,1.02-2.17,1.45-.33,.19-.59,.5-.83,.71-.67,.26-1.27,.5-2.02,.8-.84-.1-1.74,.53-2.75,.43-.49,.37-1.06,.25-1.6,.26-.72,0-1.44,.01-2.17-.02-.54-.02-1.07,.04-1.62-.22-.41-.2-.99-.01-1.4-.38-1.3-.27-2.45-.89-3.67-1.51-.37-.35-.77-.73-1.11-1.05-.49-.16-.9-.29-1.35-.44-.3,.2-.59,.44-.93,.61-.29,.14-.62,.19-1.22,.36h-2.41c-.97-.27-1.63-1.01-2.29-1.76-.03-.17-.03-.34-.09-.49-.25-.62-.5-1.26-.24-1.91,.32-.8,.48-1.69,1.23-2.28,.43-.34,.77-.8,.92-.96,.65-.28,.99-.42,1.37-.59-.18-.57-.34-1.07-.56-1.78v-1.95c.33-.43,.64-.88,.99-1.3,.35-.43,.72-.83,1.02-1.18,.36-.1,.63-.17,.88-.26,.1-.03,.19-.11,.31-.17h1.88c.52,.3,1.15,.55,1.64,.97,.49,.42,.83,1.01,1.23,1.52,.03,.33-.06,.75,.11,.97,.28,.38-.08,.61-.07,.9,.01,.33,0,.66,0,1.02,.85,.75,2.14,.86,2.7,1.84,.72,.16,1.33,.04,1.91,.36,.24,.13,.65,.03,.96-.06,.52-.15,1.02-.38,1.45-.55,1.27-.8,1.9-2.08,2.87-3.14,.19-.27,.1-.69,.39-1.01,.75-.83,.97-1.93,1.37-2.94-.06-.71,.32-1.26,.65-1.87,0-.48,0-.97,0-1.47,0-.49-.02-.95-.22-1.45-.21-.54-.21-1.2,.21-1.73v-2.42c-.07-.13-.17-.32-.32-.59,.08-.19,.19-.43,.29-.68,.04-.29-.4-.59-.02-.89,.02-.66,0-1.33,.06-1.99,.06-.81-.21-1.67,.31-2.42,.03-.04,.03-.11,.02-.16-.11-.95,.26-1.84,.31-2.76,.05-.99,.23-1.93,.53-2.89,.24-.77,.35-1.59,.52-2.39,.2-.96,.56-1.87,.69-2.85,.03-.26,.21-.5,.32-.75,.26-.54,.49-1.09,.71-1.65,.2-.54,.53-1.06,.79-1.6,.85-1.73,1.89-3.32,3.27-4.69,.99-.97,2.12-1.75,3.17-2.64,.36-.31,.59-.78,1.1-.91,.45-.11,.72-.49,1.08-.74,.22-.15,.49-.24,.7-.4,.22-.16,.41-.37,.61-.56,.34-.04,.69-.01,.98-.13,.9-.37,1.78-.81,2.67-1.21,.55-.25,1.09-.64,1.65-.68,.57-.04,1.05-.3,1.58-.41,1.1-.24,2.24-.44,3.26-.95,.65-.1,1.33,.12,1.95-.3,.19-.13,.54-.06,.82-.06,1.17,0,2.33-.02,3.5,.02,.81,.03,1.59,.39,2.42,.34,.78-.04,1.47,.35,2.2,.53,.85,.21,1.68,.41,2.49,.74,.3,.12,.66,.06,1.2,.1,1.76,.93,3.69,1.95,5.56,2.94,.94,.79,1.62,1.81,2.97,2.1,1.69,1.7,3.45,3.48,5.08,5.12Zm-38.32,42.45c.71,.19,1.29,.33,1.86,.49,.62,.17,1.25,.47,1.87,.48,.63,0,1.1,.47,1.75,.4,.64-.07,1.23,.37,1.92,.32,.58-.04,1.18-.1,1.66,.18,.23-.09,.38-.15,.55-.21,.92,.12,1.87-.17,2.74,.22,.21-.08,.41-.15,.57-.21,.2,.12,.34,.21,.57,.36h1.56c.31,.98,.6,1.91,.92,2.92,.52,.54,1.1,1.13,1.64,1.68h.68c.56-.29,.63-.82,.85-1.23,.12-1.23-.1-2.45,.08-3.68,.2-.14,.38-.37,.56-.37,.73,0,1.37-.36,2.05-.51,.95-.21,1.87-.61,2.83-.56,.98-.6,2-.97,3.05-1.29,1.45-.45,2.82-1.11,4.31-1.66,.28,.84,.62,1.64,.81,2.47,.33,1.48,.58,2.06,1.57,3.15h.92c.31-.35,.83-1.43,.85-1.77,.03-.44,0-.89,.05-1.33,.06-.43,.2-.84,.29-1.21-.13-.25-.22-.45-.32-.63v-2.51c.5-.73,1.45-.75,2.03-1.38,.54-.58,1.41-.84,1.95-1.72,.34-.8,.74-1.76,1.15-2.71,.33-.76,.54-1.55,.53-2.38,0-.44-.15-.96,.03-1.32,.26-.52-.06-.92-.04-1.37,.05-1.11,.02-2.22,.02-3.26,.11-.33,.28-.58,.27-.84,0-.31-.16-.62-.22-.85,.09-.39,.22-.7,.24-1.02,.04-.66,.05-1.29-.23-1.94-.21-.47-.04-1.1-.1-1.65-.06-.54-.22-1.06-.27-1.6-.07-.65-.2-1.29-.32-1.93-.13-.72-.44-1.34-.61-2.11,.02-.06,.07-.2,.1-.3-.39-.93-.76-1.84-1.22-2.92v-.5c-.23-.64-.54-1.08-.71-1.62-.23-.72-.56-1.4-1-2.05-.76-1.12-1.64-2.17-2.16-3.49-.93-.35-1.54-1.09-2.11-1.82-.55-.7-1.11-1.32-1.87-1.81-.41-.26-.75-.65-1.22-.83-.37-.15-.65-.39-.94-.66-.32-.29-.72-.51-1.04-.8-.66-.6-1.5-.88-2.25-1.33-.75-.45-1.51-.89-2.19-1.29-.37-.02-.65-.04-.96-.06-.77-.67-1.83-.6-2.72-.98-.63-.27-1.33-.17-1.91-.4-.66-.26-1.29-.23-1.95-.26-.55-.03-1.11-.01-1.66-.02-.38,0-.74-.03-1.12-.18-.38-.15-.86-.06-1.3-.08-.58,.49-1.28,.24-1.7,.29-.62,.2-1.04,.32-1.45,.46-.46,.16-.9,.39-1.37,.5-.42,.1-.84,.17-1.26,.31-.47,.15-.97,.26-1.36,.52-.41,.28-.86,.14-1.3,.31-.31,.27-.64,.56-.9,.78-1.58,.26-2.94,.76-4.07,1.8-.2,.19-.39,.39-.61,.56-1.3,.98-2.31,1.96-3.2,3.08-.16,.2-.42,.33-.6,.52-.14,.16-.2,.4-.35,.54-.19,.19-.44,.32-.67,.48-.45,1.04-.91,2.09-1.35,3.15-.06,.14,0,.32,0,.48,.37,.19,.7,.37,.89,.47,.7,.17,1.11-.19,1.61-.32,.42,0,.87,.03,1.31,0,1.4-.1,2.73,.12,4.01,.7,.63-.02,.84,.71,1.4,.72,.22,.71,.94,1.01,1.17,1.68-.36,.34-.74,.28-1.08,.25-.85-.44-1.65-.96-2.53-1.25-.5-.17-1.04-.33-1.58-.38-.77-.07-1.55-.02-2.21-.02-.3,.15-.49,.25-.62,.32h-2.06c-.45-.29-.9-.45-1.46-.33-.16,.32-.32,.66-.46,.95-.03,.44-.06,.82-.08,1.16-.22,.31-.42,.57-.6,.83,.02,.24,.04,.45,.07,.73,.5-.02,.99,.08,1.35-.1,.54-.26,1.07-.28,1.61-.26,1.37,.05,2.76-.22,4.09,.32,.63-.12,1.19,.16,1.75,.35,.87,.3,1.79,.44,2.73,.79,.7,.73,1.71,1.34,1.7,2.68-.18,.16-.37,.35-.54,.5-.77-.02-1.31-.38-1.8-.84-.44-.43-.96-.67-1.57-.84-1.21-.33-2.41-.68-3.69-.66-.33,0-.67-.01-.97-.11-.92-.29-1.86-.13-2.8-.16-.63,.48-1.4,.16-2.15,.38-.23,.22-.51,.49-.81,.76v1.89c-.15,.29-.25,.48-.33,.64v1.68c-.11,.18-.19,.33-.33,.57,0,2.07,0,4.23,0,6.39,0,1.11,0,2.22,0,3.33,0,.33,.07,.71-.06,.99-.18,.39-.03,.71,.02,1.06,.02,.15-.03,.32-.07,.48-.06,.26-.23,.54-.19,.78,.16,.91-.19,1.76-.42,2.58-.24,.88-.49,1.77-.91,2.61-.87,1.74-1.98,3.28-3.37,4.63-.28,.27-.51,.59-.76,.89l-.12-.14c-.56,.34-1.13,.68-1.76,1.05-.25,.02-.58,.02-.91,.08-.31,.06-.61,.18-.9,.27-.62-.51-1.34-.16-2.03-.36-.76-.42-1.58-.84-2.31-1.46-.7-.59-1.59-.95-2.32-1.36-.23-.44-.41-.78-.59-1.13v-2.5c-.55-.4-1.07-.79-1.62-1.2-.58,.17-1.15,.35-1.7,.51-.24,.28-.46,.53-.66,.76v2.19c.58,.7,1.01,1.45,1.31,2.35-.17,.19-.35,.38-.45,.5-.48,.16-.86,.04-1.24,.23-.38,.18-.84,.2-1.36,.32-.09,.11-.25,.28-.37,.46-.09,.13-.21,.29-.2,.44,.02,.46-.34,.68-.55,.99-.06,.08-.07,.2-.1,.29,.14,.42,.28,.83,.42,1.27,1,.21,1.99,.03,3.01,.06,.38-.64,1.12-.62,1.7-.91,.27-.13,.64-.05,.91-.06,.67,.51,1.32,.94,1.89,1.46,.62,.58,1.37,.9,2.13,1.21,.5,.2,1.02,.39,1.67,.63,.39,.02,.92,0,1.45,.28,.37,.19,.86,.13,1.25-.18,.07-.06,.21-.03,.3-.03,.21,.11,.4,.21,.63,.32,.31-.11,.61-.27,.92-.32,.38-.07,.77-.05,1.16-.06,.33-.01,.63-.1,.95-.19,.57-.17,1.15-.31,1.73-.43,.61-.13,1.2-.23,1.63-.7,.29-.32,.7-.29,1.08-.44,.63-.47,1.16-1.1,1.88-1.54,.73-.45,1.33-1.14,1.72-1.97,.3-.64,.66-1.28,1.13-1.81,.82-.93,1.3-2.02,1.72-3.15,.35-.92,.91-1.74,1.14-2.71,.06-.24,.32-.44,.48-.64-.14-.82,.44-1.47,.43-2.27,0-.73,.35-1.46,.6-2.4v-1.5c.29-.31,.59-.62,.86-.9,.24,.01,.41,.02,.68,.03,.24,.36,.52,.77,.8,1.19-.03,.44,.04,.93-.13,1.3-.23,.49-.14,.97-.21,1.46-.06,.41-.21,.82-.31,1.2,.42,.43,.78,.88,1.41,.86,.77,.45,1.66,.51,2.49,.75,1.05,.31,2.09,.59,3.21,.52,.66-.04,1.33,0,1.99,0,.55,.53,1.06,1.03,1.41,1.37,.19,.59,.3,.95,.42,1.33-.23,.63-.47,1.29-.64,1.79-1,.58-1.84,1.07-2.58,1.5-1.17,.09-2.24-.18-3.23,.27-.45-.15-.91-.3-1.38-.46-.12,.06-.27,.12-.48,.22-.43-.36-1.01-.27-1.52-.43-.46-.14-.91-.35-1.36-.54-.5-.22-.98-.46-1.46-.69-.82,.68-.83,.68-1.16,1.38-.11,.23-.12,.51-.17,.73,.59,.42,1.32,.48,1.73,1.21-.66,.45-.08,1.36-.69,1.91-.08,.66-.42,1.24-.59,1.86-.19,.67-.3,1.37-.43,1.99,.21,.3,.34,.55,.8,.53,.46-.43,.98-.91,1.43-1.34,.19-.44,.3-.82,.51-1.13,.66-.94,1.35-1.85,2.07-2.81Zm3.42-5.69c.28,0,.56,.04,.83-.01,.26-.05,.5-.22,.75-.28,.26-.06,.56,.05,.8-.21-.02-.12-.04-.27-.07-.47h-2.54q-.97-.43-1.59-.14c.46,.62,1.23,.7,1.81,1.11Zm-3.9-1.82c-.52-.51-1.02-.99-1.5-1.46-.15,.12-.28,.17-.31,.26-.19,.55-.37,1.1-.52,1.65-.02,.08,.07,.19,.09,.22,.59-.08,1.16-.16,1.85-.25,.08-.09,.23-.25,.39-.42Z" style="fill: #030303;"/>
  <path d="M39.82,127.59c-.71,.96-1.41,1.87-2.07,2.81-.22,.31-.32,.69-.51,1.13-.46,.43-.98,.91-1.43,1.34-.45,.02-.59-.23-.8-.53,.13-.62,.24-1.32,.43-1.99,.17-.63,.51-1.21,.59-1.86,.61-.54,.02-1.46,.69-1.91-.41-.74-1.14-.8-1.73-1.21,.05-.22,.07-.5,.17-.73,.33-.71,.34-.7,1.16-1.38,.47,.23,.96,.47,1.46,.69,.45,.2,.89,.4,1.36,.54,.51,.16,1.09,.07,1.52,.43,.2-.09,.35-.16,.48-.22,.47,.16,.93,.31,1.38,.46,1-.45,2.06-.18,3.23-.27,.74-.43,1.58-.92,2.58-1.5,.18-.49,.42-1.15,.64-1.79-.12-.38-.24-.74-.42-1.33-.35-.34-.86-.84-1.41-1.37-.67,0-1.33-.03-1.99,0-1.12,.07-2.16-.21-3.21-.52-.83-.25-1.72-.31-2.49-.75-.63,.02-.98-.43-1.41-.86,.1-.38,.25-.79,.31-1.2,.07-.48-.02-.97,.21-1.46,.17-.37,.09-.86,.13-1.3-.28-.42-.56-.82-.8-1.19-.27-.01-.43-.02-.68-.03-.27,.28-.57,.6-.86,.9v1.5c-.25,.94-.61,1.67-.6,2.4,.01,.81-.57,1.45-.43,2.27-.16,.2-.42,.39-.48,.64-.23,.97-.8,1.79-1.14,2.71-.43,1.13-.91,2.22-1.72,3.15-.46,.53-.83,1.17-1.13,1.81-.39,.84-.99,1.53-1.72,1.97-.72,.44-1.25,1.07-1.88,1.54-.38,.16-.79,.13-1.08,.44-.43,.47-1.02,.57-1.63,.7-.58,.12-1.17,.26-1.73,.43-.32,.09-.62,.18-.95,.19-.39,.02-.78,0-1.16,.06-.31,.05-.61,.21-.92,.32-.23-.12-.42-.22-.63-.32-.09,0-.23-.02-.3,.03-.39,.31-.89,.37-1.25,.18-.53-.28-1.06-.26-1.45-.28-.65-.25-1.16-.43-1.67-.63-.76-.31-1.51-.63-2.13-1.21-.56-.52-1.21-.95-1.89-1.46-.27,.01-.65-.07-.91,.06-.58,.29-1.32,.27-1.7,.91-1.03-.02-2.02,.16-3.01-.06-.15-.44-.28-.85-.42-1.27,.03-.09,.04-.2,.1-.29,.21-.31,.57-.53,.55-.99,0-.14,.11-.3,.2-.44,.12-.18,.28-.35,.37-.46,.53-.11,.98-.14,1.36-.32,.38-.19,.77-.07,1.24-.23,.1-.11,.28-.31,.45-.5-.3-.9-.73-1.65-1.31-2.35v-2.19c.2-.23,.41-.48,.66-.76,.54-.16,1.11-.33,1.7-.51,.55,.41,1.07,.79,1.62,1.2v2.5c.18,.35,.36,.69,.59,1.13,.73,.42,1.62,.78,2.32,1.36,.73,.61,1.55,1.04,2.31,1.46,.69,.19,1.4-.15,2.03,.36,.28-.09,.58-.21,.9-.27,.32-.06,.66-.06,.91-.08,.63-.38,1.19-.72,1.76-1.05l.12,.14c.25-.3,.48-.62,.76-.89,1.39-1.35,2.5-2.89,3.37-4.63,.42-.84,.67-1.73,.91-2.61,.23-.82,.58-1.66,.42-2.58-.04-.24,.13-.52,.19-.78,.04-.16,.09-.33,.07-.48-.06-.35-.21-.66-.02-1.06,.13-.28,.06-.66,.06-.99,0-1.11,0-2.22,0-3.33,0-2.16,0-4.33,0-6.39,.14-.24,.23-.39,.33-.57v-1.68c.08-.16,.18-.35,.33-.64v-1.89c.29-.28,.57-.54,.81-.76,.75-.22,1.52,.1,2.15-.38,.93,.03,1.87-.13,2.8,.16,.31,.1,.65,.11,.97,.11,1.28-.02,2.48,.33,3.69,.66,.61,.17,1.13,.41,1.57,.84,.49,.47,1.02,.83,1.8,.84,.17-.16,.37-.34,.54-.5,.01-1.34-1-1.95-1.7-2.68-.93-.35-1.85-.49-2.73-.79-.56-.19-1.12-.47-1.75-.35-1.33-.55-2.73-.27-4.09-.32-.54-.02-1.08,0-1.61,.26-.36,.17-.85,.07-1.35,.1-.03-.28-.05-.49-.07-.73,.19-.25,.38-.52,.6-.83,.02-.34,.05-.72,.08-1.16,.14-.29,.31-.64,.46-.95,.56-.13,1.01,.03,1.46,.33h2.06c.13-.07,.32-.17,.62-.32,.66,0,1.44-.05,2.21,.02,.53,.05,1.08,.21,1.58,.38,.87,.29,1.67,.81,2.53,1.25,.34,.03,.72,.09,1.08-.25-.23-.67-.95-.97-1.17-1.68-.55-.02-.77-.74-1.4-.72-1.28-.57-2.61-.8-4.01-.7-.44,.03-.89,0-1.31,0-.5,.13-.91,.49-1.61,.32-.18-.1-.52-.27-.89-.47,0-.16-.05-.34,0-.48,.44-1.06,.9-2.1,1.35-3.15,.23-.16,.48-.29,.67-.48,.15-.15,.21-.38,.35-.54,.18-.19,.43-.32,.6-.52,.89-1.11,1.9-2.1,3.2-3.08,.22-.17,.41-.37,.61-.56,1.12-1.04,2.49-1.54,4.07-1.8,.26-.22,.59-.52,.9-.78,.44-.17,.89-.03,1.3-.31,.39-.27,.9-.37,1.36-.52,.42-.14,.84-.21,1.26-.31,.47-.11,.91-.34,1.37-.5,.41-.14,.82-.26,1.45-.46,.42-.05,1.12,.2,1.7-.29,.44,.02,.92-.07,1.3,.08,.38,.15,.74,.18,1.12,.18,.55,0,1.11,0,1.66,.02,.65,.03,1.29,0,1.95,.26,.59,.23,1.29,.13,1.91,.4,.89,.39,1.95,.32,2.72,.98,.31,.02,.58,.04,.96,.06,.68,.4,1.43,.84,2.19,1.29,.75,.45,1.59,.73,2.25,1.33,.33,.29,.72,.51,1.04,.8,.29,.26,.57,.51,.94,.66,.46,.18,.81,.57,1.22,.83,.76,.48,1.32,1.11,1.87,1.81,.57,.73,1.19,1.47,2.11,1.82,.52,1.32,1.4,2.37,2.16,3.49,.44,.65,.77,1.33,1,2.05,.17,.54,.49,.98,.71,1.62v.5c.45,1.08,.83,1.99,1.22,2.92-.04,.1-.08,.24-.1,.3,.16,.77,.48,1.39,.61,2.11,.11,.64,.25,1.28,.32,1.93,.05,.54,.22,1.06,.27,1.6,.06,.55-.11,1.18,.1,1.65,.29,.66,.27,1.29,.23,1.94-.02,.32-.14,.63-.24,1.02,.06,.23,.21,.54,.22,.85,0,.25-.16,.51-.27,.84,0,1.04,.03,2.15-.02,3.26-.02,.45,.3,.85,.04,1.37-.18,.35-.03,.87-.03,1.32,0,.84-.2,1.62-.53,2.38-.41,.95-.81,1.91-1.15,2.71-.53,.88-1.4,1.14-1.95,1.72-.59,.63-1.53,.65-2.03,1.38v2.51c.09,.18,.19,.38,.32,.63-.09,.37-.24,.79-.29,1.21-.06,.44-.02,.89-.05,1.33-.02,.35-.54,1.43-.85,1.77h-.92c-1-1.09-1.24-1.68-1.57-3.15-.19-.83-.53-1.63-.81-2.47-1.48,.55-2.86,1.21-4.31,1.66-1.05,.33-2.07,.69-3.05,1.29-.96-.05-1.88,.35-2.83,.56-.69,.15-1.32,.51-2.05,.51-.18,0-.36,.23-.56,.37-.17,1.23,.05,2.45-.08,3.68-.22,.41-.29,.94-.85,1.23h-.68c-.54-.55-1.11-1.15-1.64-1.68-.32-1.01-.61-1.94-.92-2.92h-1.56c-.24-.15-.38-.24-.57-.36-.16,.06-.36,.13-.57,.21-.87-.4-1.83-.11-2.74-.22-.17,.06-.32,.12-.55,.21-.48-.28-1.08-.22-1.66-.18-.69,.05-1.28-.4-1.92-.32-.65,.07-1.12-.39-1.75-.4-.63,0-1.25-.31-1.87-.48-.57-.15-1.15-.3-1.86-.49Zm35.72-33.33c-.19,.34-.37,.67-.53,.96-.08,.89,.58,1.62,.32,2.47,.28,.73,.42,1.48,.35,2.25-.07,.81,.2,1.67-.26,2.45,.19,.33,.36,.7,.13,1.06-.19,.31-.19,.63-.2,.95-.02,.55-.04,1.1-.05,1.41-.27,.68-.58,1.13-.6,1.59-.03,.57-.64,.51-.79,.98-.14,.43-.65,.73-.92,1.02-.48,.25-.88,.43-1.26,.65-.31,.18-.61,.22-1.03,.04-.2-.29-.38-.72-.69-.99-.39-.34-.27-.82-.46-1.21-.19-.38-.22-.83-.34-1.31-.34-.2-.7-.41-1.02-.59-.73,.35-.89,1.03-1.22,1.71,0,.24-.05,.58,.01,.9,.1,.45-.35,.68-.34,1.08,.01,.39-.05,.74-.22,1.11-.17,.38-.03,.87-.31,1.26-.05,.06,.1,.27,.15,.4-.29,.5-.85,.76-1,1.33-.77,.86-1.48,1.8-2.66,2.11h-1.9c-.51-.18-.92-.33-1.36-.48-.55-.52-1.12-1.05-1.57-1.47-.23-1.75-1-3.22-.77-4.76-.14-.27-.25-.46-.32-.6v-2.38c-.11-.21-.21-.4-.31-.57,.26-.76,.5-1.46,.05-2.23-.19-.33-.17-.77,.05-1.11,.19-.29-.22-.61,.11-.87,.06-.04,.07-.24,.02-.31-.22-.29-.25-.6-.25-.94,0-.33-.01-.67,.02-1,.03-.3,.11-.6,.16-.86-.07-.14-.12-.24-.23-.48v-3.46c-.18-.16-.3-.27-.48-.43-.17,.22-.43,.4-.47,.62-.09,.61-.44,1.11-.64,1.65-.07,.5,.02,.99-.25,1.47-.18,.31-.03,.84-.24,1.09-.37,.44,.07,.81-.07,1.21-.09,.26,.05,.56-.09,.88-.15,.33-.06,.76-.07,1.15,0,.33,0,.67-.01,1,0,.33,0,.67,0,.96-.12,.23-.22,.42-.29,.57,.07,.26,.24,.52,.17,.64-.38,.66-.07,1.27,.1,1.77-.14,.31-.22,.5-.34,.76,.46,.31,.37,.77,.38,1.21,.01,.61,.03,1.22,.05,1.82,.46,.43,.23,1.05,.43,1.56,.21,.54,.18,1.18,.25,1.68,.4,.68,.76,1.3,1.21,2.06,1.97,2.1,4.53,2.88,7.54,2.45,1.58-.76,2.85-1.96,4.06-3.33,.16-.35,.35-.74,.52-1.14,.17-.4,.28-.83,.49-1.2,.22-.39-.13-.9,.34-1.23,.68,.32,1.37,.64,2,.94,.8,.14,1.51-.12,2.08-.48,.55-.35,1.17-.58,1.72-.99,.46-.81,1.36-1.22,1.72-1.73,.37-.88,.62-1.48,.95-2.26v-1.48c.47-.76,.29-1.6,.34-2.42,.08-.14,.16-.29,.24-.43-.43-.67-.28-1.38-.14-2.08,.23-1.08,.19-1.91-.03-2.9-.16-.74-.5-1.45-.43-2.25-.33-.41-.39-1.04-1.03-1.29-.21,0-.49,.02-.78,.04Zm-33.84,18.8c.31,.35,.66,.64,.88,1.02,.3,.52,.74,.79,1.3,.83,.67,.05,1.23,.39,1.86,.56,.1,.03,.2,.06,.21,.07h1.6c.16-.15,.32-.3,.45-.43v-1.06c-.18-.15-.35-.3-.52-.44-.56,0-1.12,.06-1.66-.02-.58-.08-1.15-.28-1.66-.42-.67-.59-1.19-1.26-2-1.54-.12-.04-.29,.05-.46,.08v1.34Zm1.06-4.1c-.24,.81,.1,1.38,.42,1.99,.22,.19,.48,.4,.72,.62h1.98c.4-.42,.77-.81,1.12-1.18-.17-.53-.32-.99-.46-1.43-.68-.88-1.57-1.17-2.73-1.02-.34,.33-.73,.71-1.05,1.02Z" style="fill: #fff;"/>
  <path d="M43.24,121.9c-.58-.41-1.36-.49-1.81-1.11q.62-.29,1.59,.14h2.54c.03,.2,.05,.34,.07,.47-.25,.26-.55,.15-.8,.21-.26,.06-.49,.23-.75,.28-.27,.05-.55,.01-.83,.01Z" style="fill: #e2e2e2;"/>
  <path d="M39.34,120.09c-.17,.18-.31,.33-.39,.42-.69,.09-1.26,.17-1.85,.25-.02-.04-.11-.15-.09-.22,.16-.56,.33-1.11,.52-1.65,.03-.09,.16-.14,.31-.26,.48,.47,.98,.95,1.5,1.46Z" style="fill: #e2e2e2;"/>
  <path d="M75.54,94.27c.29-.01,.57-.03,.78-.04,.64,.26,.7,.88,1.03,1.29-.07,.79,.27,1.51,.43,2.25,.21,.99,.26,1.82,.03,2.9-.15,.69-.29,1.41,.14,2.08-.08,.14-.16,.28-.24,.43-.05,.82,.13,1.66-.34,2.42v1.48c-.33,.78-.58,1.38-.95,2.26-.36,.51-1.26,.93-1.72,1.73-.54,.41-1.16,.64-1.72,.99-.57,.36-1.28,.62-2.08,.48-.63-.3-1.32-.62-2-.94-.46,.33-.12,.85-.34,1.23-.21,.37-.32,.8-.49,1.2-.17,.4-.36,.8-.52,1.14-1.21,1.37-2.48,2.58-4.06,3.33-3.01,.43-5.58-.35-7.54-2.45-.45-.76-.81-1.38-1.21-2.06-.06-.5-.03-1.14-.25-1.68-.2-.52,.03-1.14-.43-1.56-.02-.61-.04-1.22-.05-1.82,0-.44,.08-.9-.38-1.21,.11-.26,.2-.45,.34-.76-.17-.5-.49-1.11-.1-1.77,.07-.12-.09-.38-.17-.64,.08-.15,.18-.34,.29-.57,0-.3,0-.63,0-.96,0-.33,0-.67,.01-1,0-.39-.08-.82,.07-1.15,.14-.32,0-.61,.09-.88,.14-.4-.3-.77,.07-1.21,.21-.25,.06-.78,.24-1.09,.27-.48,.18-.97,.25-1.47,.2-.54,.55-1.04,.64-1.65,.03-.22,.3-.41,.47-.62,.18,.16,.31,.27,.48,.43v3.46c.11,.23,.16,.33,.23,.48-.05,.26-.13,.56-.16,.86-.03,.33-.01,.67-.02,1,0,.34,.03,.66,.25,.94,.05,.06,.04,.26-.02,.31-.33,.26,.08,.58-.11,.87-.22,.34-.24,.78-.05,1.11,.45,.77,.21,1.47-.05,2.23,.09,.17,.19,.36,.31,.57v2.38c.07,.14,.18,.33,.32,.6-.23,1.54,.54,3.01,.77,4.76,.45,.43,1.02,.96,1.57,1.47,.43,.15,.84,.3,1.36,.48h1.9c1.18-.31,1.89-1.25,2.66-2.11,.14-.58,.71-.83,1-1.33-.05-.13-.19-.33-.15-.4,.29-.39,.14-.89,.31-1.26,.17-.37,.24-.72,.22-1.11-.01-.4,.43-.63,.34-1.08-.07-.32-.01-.66-.01-.9,.33-.68,.49-1.35,1.22-1.71,.32,.18,.68,.39,1.02,.59,.12,.48,.15,.93,.34,1.31,.19,.39,.07,.87,.46,1.21,.31,.28,.5,.7,.69,.99,.42,.17,.72,.14,1.03-.04,.38-.22,.78-.4,1.26-.65,.28-.29,.78-.6,.92-1.02,.15-.47,.76-.41,.79-.98,.03-.46,.33-.91,.6-1.59,.01-.31,.03-.86,.05-1.41,.01-.33,0-.65,.2-.95,.23-.37,.06-.73-.13-1.06,.46-.78,.19-1.63,.26-2.45,.06-.78-.07-1.53-.35-2.25,.26-.85-.4-1.59-.32-2.47,.16-.29,.34-.62,.53-.96Z" style="fill: #040404;"/>
  <path d="M41.7,113.06v-1.34c.16-.03,.33-.13,.46-.08,.81,.28,1.33,.95,2,1.54,.52,.13,1.08,.34,1.66,.42,.54,.07,1.1,.02,1.66,.02,.17,.15,.34,.29,.52,.44v1.06c-.13,.12-.29,.27-.45,.43h-1.6s-.11-.04-.21-.07c-.62-.17-1.19-.51-1.86-.56-.56-.04-1-.3-1.3-.83-.22-.37-.57-.67-.88-1.02Z" style="fill: #0c0c0c;"/>
  <path d="M42.76,108.96c.32-.31,.71-.69,1.05-1.02,1.15-.15,2.05,.14,2.73,1.02,.14,.44,.29,.9,.46,1.43-.35,.37-.72,.76-1.12,1.18h-1.98c-.25-.21-.5-.42-.72-.62-.32-.61-.66-1.18-.42-1.99Z" style="fill: #080808;"/>
</svg>