<?xml version="1.0" encoding="UTF-8"?>
<svg id="Ebene_1" data-name="Ebene 1" xmlns="http://www.w3.org/2000/svg" width="100" height="100" viewBox="0 0 100 100">
  <path d="M7.83,69.26c-.05-.05-.19-.21-.35-.35-.32-.28-.44-.57-.16-.97,.1-.15,.06-.39,.12-.58,.08-.27-.36-.47-.03-.83,.17-.18,.03-.65,.03-.99s-.02-.68,0-1.01c.02-.23,.12-.45,.19-.68,.02-.08,.08-.18,.05-.23-.4-.74-.38-1.47,0-2.21,.03-.06-.1-.2-.14-.31-.13-.33-.43-.62-.12-1.03,.1-.13,.09-.47-.02-.6-.51-.65-.22-1.26,.11-1.8,.18-.29,.26-.61,.16-.81-.4-.76-.15-1.55-.24-2.32-.05-.39,.18-.85-.24-1.17-.04-.03,.02-.26,.09-.32,.56-.44,.47-.99,.28-1.56-.03-.08-.03-.2,.01-.26,.37-.51,0-.97-.18-1.36-.17-.37-.24-.58-.07-.99,.23-.54,.25-1.17,.35-1.76,.1-.58-.07-1.14-.26-1.67-.24-.66-.44-1.28-.01-1.96,.11-.18,.02-.49,.02-.75,0-.34-.01-.68,0-1.01,.01-.28-.03-.62,.1-.84,.21-.35-.28-.55-.1-.85,.4-.65-.06-1.29-.01-1.95,.05-.67,.01-1.35,.01-2.03,0-.13,.04-.27,0-.38-.11-.25-.35-.47-.38-.72-.04-.28,.11-.58,.13-.87,.03-.29,0-.59,0-.89s0-.59,0-.89c0-.08-.03-.21,.02-.24,.41-.3,.7-.76,.46-1.18-.25-.43,.08-.72,.06-1.08-.01-.39-.3-.73-.07-1.2,.17-.34,.29-.72,.5-1.06,.04-.06,.07-.17,.04-.23-.24-.62,.11-1.15,.22-1.72,.12-.64,.36-1.21,.55-1.81,.05-.15,.03-.38,.13-.44,.53-.36,.35-.89,.38-1.38,.29-.23,.7-.27,.8-.79,.06-.3,.58-.48,.47-.94-.12-.47,.48-.58,.49-.93,.02-.43,.12-.7,.58-.8,.37-.08,.06-.51,.21-.62,.66-.47,.77-1.46,1.67-1.73,.24-.07,.41-.4,.59-.62,.23-.28,.45-.58,.67-.86,.22-.28,.78-.3,.63-.87-.02-.06,.15-.22,.26-.26,.58-.2,.89-.71,1.33-1.08,.15-.12,.35-.3,.51-.28,.49,.06,.78-.21,1.06-.53,.14-.16,.3-.3,.5-.51,.69,.05,1.35-.09,1.95-.64,.55-.51,1.25-.86,2.05-1.39,.31,0,.84,.05,1.32-.25,.09-.06,.32-.04,.33-.09,.17-.96,.92-.61,1.49-.67,.85-.09,1.7-.19,2.53-.28,.06-.16,.12-.31,.2-.5,.79,.15,1.64-.24,2.4,.27,.72-.13,1.5,.28,2.19-.24,.11-.08,.33-.03,.5-.01,.48,.07,.99-.17,1.45,.17,.51,.38,.88-.37,1.38-.18,.18,.07,.39,.07,.58,.12,.11,.03,.22,.13,.32,.13,.5-.01,.9-.46,1.5-.13,.39,.22,.97,.14,1.46,.13,.39,0,.84,.18,1.18-.23,.07-.08,.39-.09,.48,0,.51,.49,1.13,.12,1.68,.24,.57-.62,1.14-.02,1.67,.09,.32,.07,.53,.17,.88,.04,.67-.25,1.37-.31,1.85,.33,.25-.16,.48-.42,.73-.43,.64-.03,1.23-.52,1.9-.21,.07,.03,.13,.17,.18,.17,.39-.06,.77-.21,1.16-.21,.39,0,.8,.27,1.15,.2,1.24-.26,1.39-.29,2.48,0,.24,.06,.49,.03,.74,.05,.64,.07,1.27-.03,1.94,.2,.49,.17,1.17-.13,1.74-.28,.85-.22,2.53-.22,3.41,0,.31,.08,.66,.09,.98,.07,.22-.02,.44-.22,.66-.22,.22,0,.44,.23,.66,.22,.31-.01,.6-.18,.91-.23,.32-.05,.72,.06,.97-.1,.4-.24,.64-.18,.98,.08,.49,.37,1.09,.28,1.66,.26,.67-.03,1.27,.05,1.85,.45,.34,.24,.78,.39,1.26,.33,.5-.07,1.01-.01,1.52-.01,.43,.29,.66,.9,1.32,.78,.84,.72,1.92,.88,2.91,1.25,.09,.03,.17,.13,.24,.21,.15,.18,.26,.47,.44,.53,.76,.22,1.22,.8,1.74,1.31,.15,.15,.28,.4,.45,.43,1.26,.26,1.83,1.35,2.63,2.16,.43,.43,.71,1.04,1.19,1.39,1.06,.79,1.73,1.81,2.22,3.01,.09,.22,.21,.43,.36,.61,.29,.34,.74,.58,.62,1.14,.42,.29,.59,.69,.49,1.19,.7,.88,.55,2.15,1.38,2.99,.12,.12,.14,.38,.14,.57-.02,.78,.03,1.54,.41,2.24,.05,.1,.1,.22,.1,.34,0,.68-.2,1.44,.06,2.01,.32,.72,.12,1.39,.19,2.07,.07,.67-.09,1.37,.05,2.02,.1,.47-.7,.88-.03,1.32,.01,.49,.03,.95,.22,1.43,.16,.4,.01,.92,.04,1.38,.02,.27,.12,.53,.21,.93-.41,.29-.5,.81-.5,1.42,0,.73-.2,1.45-.22,2.18-.01,.73-.04,1.45,.19,2.19,.16,.52,.13,1.18-.1,1.82-.17,.47,.2,1.12,.3,1.7,.04,.22,.04,.46,.02,.68-.03,.23-.16,.46-.15,.69,.01,.22,.25,.46,.21,.65-.04,.21-.32,.37-.43,.58-.07,.13-.11,.39-.04,.47,.41,.48,.18,1.04,.24,1.55,.09,.89,.37,1.83,.2,2.67-.14,.7-.15,1.38-.19,2.06-.02,.39-.12,.82,.22,1.15-.41,.33-.2,.78-.22,1.17-.04,.61-.04,1.22,.39,1.74,.21,.25,.23,.57-.05,.76-.38,.27-.34,.63-.34,1.01,0,.93,0,1.86,0,2.79,0,.28,.05,.54-.16,.83-.14,.19-.12,.56-.05,.83,.27,1.14,.27,1.14,0,2.23-.12,.5-.06,1.02-.25,1.54-.16,.45-.35,.87-.51,1.31-.16,.43-.08,.94-.27,1.41-.23,.58-.56,1.12-.69,1.75-.12,.57-.38,1.11-.62,1.64-.13,.29-.31,.57-.54,.79-.33,.32-.51,.71-.71,1.1-.18,.35-.39,.69-.63,1.01-.26,.35-.76,.55-.65,1.14,.02,.1-.19,.28-.33,.35-.5,.28-.77,.77-1.14,1.16-.42,.44-.81,.92-1.2,1.39-.65,.78-1.47,1.46-2.31,2.03-.55,.37-.97,.97-1.72,1.05-.64,.07-.99,.85-1.72,.75-.03,0-.08,.02-.1,.05-.68,.96-1.82,.89-2.77,1.28-.95,.39-1.89,.74-2.9,.98-.98,.23-1.95,.49-2.97,.49-.34,0-.78,.29-.99,.15-.34-.21-.64-.17-.95-.15-1.53,.06-3.07,.08-4.58,.28-.64,.09-1.19,.2-1.83,0-.34-.11-.79-.16-1.2,.14-.16,.11-.54-.33-.95-.05-.21,.14-.7-.14-.92,0-.34,.22-.79,.23-.93,.1-.35-.32-.83-.03-1.04-.26-.52-.56-.87,.25-1.35,.06-.54-.22-.92,.18-1.23,.55-.75-.56-.75-.59-1.64-.56-.86,.03-1.73-.16-2.56,.23-.41,.19-.78-.15-1.12-.32-.25-.13-.39-.25-.63-.02-.1,.09-.31,.11-.46,.09-1.11-.1-2.21,.16-3.33-.2-.49-.16-1.15,.21-1.73,.32-.28,.06-.62,.22-.82,.11-.76-.39-1.49-.26-2.26-.1-.23,.05-.49-.11-.74-.13-.56-.06-1.09,.23-1.7,.03-.53-.18-1.17-.07-1.76-.03-.6,.05-1.25-.23-1.8,.24-.62-.13-1.24-.27-1.86-.4-.2-.04-.41-.14-.59-.09-.43,.12-.92,.45-1.27,.21-.45-.32-.89-.11-1.31-.23-.64-.18-1.26-.43-1.89-.63-.14-.04-.34-.11-.42-.05-.65,.48-1.16,.07-1.64-.27-.36-.26-.69-.54-1.16-.58-.18-.01-.37-.13-.53-.25-.82-.62-1.75-.91-2.75-1.02-.15-.02-.33-.1-.41-.21-.26-.39-.38-.95-1.05-.79-.31-.37-.67-.51-1.18-.55-.33-.03-.7-.46-.91-.79-.55-.84-1.19-1.56-1.95-2.22-.71-.62-1.27-1.41-1.9-2.11-.22-.24-.46-.54-.75-.64-.46-.15-.46-.46-.57-.83-.15-.56-.4-1.13-.76-1.58-.41-.53-.81-1.01-.74-1.73-.47-.42-.56-1.03-.76-1.59-.07-.18-.26-.37-.23-.53,.11-.76-.32-1.33-.69-1.87-.22-.34-.36-.62-.35-1.01,.01-.42,.01-.85,0-1.27-.01-.53,.1-1.06-.23-1.55-.08-.11,.06-.37,.13-.73Zm76.46-2.93c-.6-.59-.55-1.32-.47-2.06,.01-.09,.17-.25,.16-.26-.37-.3-.14-.71-.2-1.07-.05-.31,.13-.68-.24-.91,.37-.28,.23-.68,.23-1.03,.01-1.27,0-2.54,0-3.81,0-.25-.11-.61,.02-.74,.53-.58-.07-1.41,.48-1.97,.06-.06,.04-.3-.03-.35-.38-.3-.18-.7-.21-1.06-.1-1.15,.21-2.32-.25-3.45-.09-.22-.1-.55,0-.75,.49-.96,.14-1.97,.22-2.95,.02-.25-.31-.62-.21-.76,.53-.81-.04-1.79,.45-2.61,.14-.23,.12-.69-.15-1.05-.21-.28-.35-.8-.22-1.08,.16-.34,.13-.64,.14-.95,.02-.42,.12-.89-.02-1.26-.15-.4,.36-.57,.13-.99-.18-.33-.07-.81-.11-1.22-.04-.48,.1-.96-.22-1.44-.15-.22-.1-.69,.02-.97,.27-.6,.26-1.13,0-1.73-.2-.46-.28-1.01-.29-1.52-.01-1.03-.45-2.02-.28-3.07,.02-.13-.11-.29-.17-.43-.19-.48-.38-.97-.81-1.31,.26-.95-.92-1.31-.9-2.16-.89-.65-1.32-1.78-2.32-2.31-.44-.23-.72-.56-.87-1.02-.09-.29-.26-.49-.61-.51-.18-.01-.39-.12-.52-.25-.45-.44-.92-.8-1.59-.76-.1,0-.25-.06-.32-.14-.4-.49-1-.66-1.49-1-.59-.41-1.19-.68-1.9-.62-.36,.03-.64-.09-.91-.27-.32-.21-.66-.27-1.04-.25-.51,.02-1.01,0-1.52,0h-2.92c-.51,0-1.02-.03-1.52,0-.48,.03-1-.18-1.45,.18-.44-.28-.86-.21-1.29,.06-.08,.05-.27,.02-.35-.05-.53-.42-1.22-.31-1.67-.14-.5,.19-.97,.2-1.44,.18-1.49-.06-2.97,.15-4.47-.2-.93-.22-1.95-.06-2.94,.18-.59,.15-1.26,.01-1.89,0-.62-.68-1.21,.34-1.83,.03-.17-.09-.38-.13-.57-.14-.57-.03-1.17-.16-1.69-.01-.43,.12-.72,.14-1.14,0-.44-.14-.96-.04-1.44-.01-.23,.01-.58,.2-.67,.11-.33-.34-.71-.2-1.07-.2-1.52-.02-3.04-.05-4.56,0-2.71,.08-5.43-.28-8.09,.27-.17,.35-.24,.85-.48,.94-.59,.23-1.12,.67-1.7,.76-.52,.08-.81,.33-1.15,.62-.31,.26-.65,.47-.98,.7-.2,.13-.49,.21-.59,.39-.43,.84-1.26,1.17-1.98,1.64-.33,.22-1.02,1.17-1.08,1.6-.06,.45-.13,.84-.66,.99-.15,.04-.25,.3-.36,.47-.64,.99-.69,2.27-1.51,3.18-.06,.07,0,.25-.01,.37-.08,.81-.16,1.62-.26,2.43-.02,.18-.17,.35-.24,.53-.14,.37-.34,.73-.26,1.16,.12,.72-.22,1.5,.26,2.18-.46,.58-.02,1,.25,1.46,.06,.09,.06,.28,0,.37-.44,.65-.17,1.37-.25,2.06-.06,.56,.11,1.13-.22,1.69-.17,.28-.17,.83,0,1.1,.3,.48,.22,.96,.21,1.44,0,.6,.17,1.24-.23,1.81-.06,.09-.01,.36,.08,.45,.26,.25,.15,.55,.15,.83,.01,.89,0,1.78,.01,2.66,0,.29,.21,.63,.11,.85-.27,.61,.04,1.28-.33,1.9-.17,.27,.08,.78,.1,1.19,.03,.48,.23,1.12,0,1.41-.43,.55,.18,.84,.11,1.25-.07,.43-.34,.95-.18,1.26,.19,.38,.17,.72,.17,1.07,0,.73,0,1.45-.2,2.19-.14,.53-.08,1.17,.13,1.81,.24,.72,.07,1.58,.07,2.38,0,.73,.1,1.49-.55,1.98,.21,.44,.48,.78,.52,1.15,.05,.42-.09,.86-.16,1.33,.2,.3,.44,.66,.68,1.03-.53,.7-.04,1.38-.02,2.08,.03,1.05,.91,1.78,.88,2.82,.7,.4,.32,.96,.1,1.54,1.05-.08,1.29,.65,1.58,1.31,.12,.29,.13,.8,.3,.86,.79,.26,1.08,1.08,1.82,1.43,1,.47,1.65,1.34,1.74,2.58,1.26-.36,2.17,.24,3.07,.89,.16,.12,.33,.27,.51,.29,.64,.07,1.36-.21,1.82,.51,.02,.04,.16,.02,.25,0,.59-.1,1.11,.18,1.67,.24,.6,.07,1.22-.08,1.8,.25,.15,.09,.49,.08,.6-.03,.33-.34,.71-.18,1.07-.2,.74-.05,1.45,.09,2.18,.21,.54,.09,1.13,.03,1.72-.07,.48-.08,1.01,.19,1.52-.15,.43-.28,.78,.45,1.35,.08,.39-.25,1.06-.07,1.6-.09,.21,0,.46-.07,.63,.01,1.12,.53,2.26,.26,3.33-.06,.35-.1,.69-.22,1.05-.2,.35,.02,.69,.22,1.04,.22,.35,0,.69-.2,1.04-.22,.59-.04,1.18-.02,1.77,0,.65,0,1.29-.02,1.93,.23,.73,.28,1.52,.33,2.25-.14,.32-.21,.64-.13,.86,.18,.21,.3,.5,.29,.78,.19,.73-.24,1.45-.52,2.24-.22,.19,.07,.47,.09,.62,0,.46-.28,.86-.08,1.32-.03,1.3,.13,2.62,.03,3.93,.05,.31,0,.55-.21,.78-.23,.77-.06,1.61-.22,2.27,.29,.63,.49,1.12,.09,1.55-.17,.62-.38,.61-.5,1.04-.29,.29,.15,.57,.26,.78,.02,.64-.74,1.72-.65,2.38-1.33,.09-.09,.31-.08,.47-.07,.67,.04,1.13-.32,1.6-.74,.57-.5,.92-1.27,1.84-1.39,.35-.04,.48-.68,.97-.69,.45-.98,1.4-1.52,2.06-2.32,.05-.06,.08-.14,.08-.22,.02-.81,.61-1.38,.96-2,.46-.8,.7-1.66,1.07-2.48,.13-.28,.17-.61,.26-.91,.1-.3,.15-.64,.34-.87,.3-.36-.3-.55-.09-.85,.07-.1,.16-.19,.19-.3,.12-.55,.36-1.12,.28-1.64-.08-.5-.07-.87,.29-1.21Z"/>
  <path d="M63.92,32.66c.38,.68,.69,1.25,1.37,1.47,.04,.01,.07,.05,.09,.09,.27,.43,.45,1.02,.84,1.25,.47,.27,.69,.62,.95,1.03,.3,.48,.67,.92,1.11,1.52v.87c.16,.16,.28,.29,.4,.4,.9,.76,1.17,1.03,1.38,1.94,.07,.32,.15,.62,.3,.9,.13,.25,.33,.45,.52,.7-.16,.31-.33,.62-.47,.9,.23,.31,.54,.61,.69,.97,.45,1.07,1.06,2.12,.76,3.35-.07,.3-.3,.55-.51,.92,.1,.12,.26,.3,.39,.49,.07,.09,.15,.25,.12,.32-.48,.99,.26,1.98,0,2.96-.08,.3-.1,.67-.28,.89-.37,.44-.44,.92-.5,1.46-.04,.37-.39,.69-.46,1.06-.09,.4,0,.84-.03,1.26,0,.1-.16,.18-.24,.28-.08,.09-.24,.24-.23,.26,.74,.97-.49,1.12-.76,1.86-.12,.33,.08,1.01-.73,1.13-.12,.02-.32,.26-.29,.36,.14,.72-.4,1.04-.78,1.47-.15,.17-.25,.4-.36,.61-.19,.34-.39,.6-.76,.84-.56,.36-.93,1.02-1.37,1.56-.07,.08-.03,.29-.1,.33-.3,.17-.79,.23-.91,.48-.16,.33-.32,.48-.63,.64-.35,.18-.59,.47-1.06,.55-.3,.05-.89,.19-.92,.82-.01,.21-.34,.46-.7,.39-.45-.09-.74,.21-1.11,.38-.88,.41-1.65,1.09-2.7,1.15-.5,.03-.88,.45-1.43,.53-.82,.12-.8,.23-1.61-.11-.16,.21-.31,.57-.58,.71-.38,.21-.71,.47-1.31,.24-.64-.24-1.45-.04-2.19,0-.28,.01-.65,.22-.81,.11-.55-.39-1.13-.2-1.69-.22-.66-.03-1.24-.19-1.8-.58-.33-.23-.72-.76-1.24-.2-.03,.03-.21-.07-.32-.12-1.13-.55-2.3-.98-3.47-1.42-.65-.24-1.27-.61-1.89-.93-.64-.33-1.19-.81-1.77-1.24-.34-.26-.72-.51-.96-.85-.27-.38-.59-.61-.96-.86-.29-.19-.52-.65-.55-1.01-.05-.52-.17-.8-.7-.99-.4-.14-.69-.56-1.08-.77-.41-.22-.12-.69-.37-.86-.26-.18-.48-.32-.7-.58-.43-.52-.56-1.07-.47-1.66-.17-.15-.28-.33-.42-.36-.53-.1-.59-.45-.61-.9-.03-.56-.13-1.12-.25-1.67-.04-.18-.21-.35-.37-.48-.44-.36-.6-.94-.59-1.39,.02-.92-.32-1.78-.31-2.69,0-.3-.19-.6-.23-.91-.05-.33,.11-.79-.06-.98-.26-.3,0-.4,.04-.59,.08-.39-.06-.78,.19-1.2,.15-.25-.16-.74-.17-1.13-.02-.44-.15-.91,.32-1.27,.15-.11,.18-.45,.16-.68-.03-.59,.14-1.09,.36-1.63,.23-.56,.26-1.19,.83-1.56,.05-.03,.08-.14,.08-.21,.04-.65,.31-1.2,.6-1.79,.28-.57,.58-1.13,.95-1.63,.32-.42,.27-1.01,.78-1.34,.41-.26,.6-.72,.75-1.2,.06-.21,.33-.37,.52-.54,1.12-1.04,2.24-2.1,3.39-3.11,.25-.22,.64-.29,.94-.47,.31-.18,.43-.64,.91-.58,.09,.01,.27-.07,.29-.15,.2-.75,.78-.75,1.41-.92,.54-.14,1.25,.04,1.67-.57,.08-.12,.37-.08,.57-.14,.15-.04,.4-.08,.41-.16,.09-.65,.66-.44,1.01-.64,.87-.48,1.88-.3,2.76-.71,.28-.13,.67,0,1-.02,.6-.04,1.2,.08,1.81-.22,.57-.28,1.16,.2,1.75,.3,.11,.02,.26,.19,.3,.16,.74-.59,1.49-.07,2.21,.03,.7,.1,1.37,.35,2.05,.56,.14,.05,.23,.25,.37,.34,.09,.06,.3,.12,.33,.08,.47-.62,.87,.23,1.31,.04,.63,.48,1.5,.6,2.02,1.26,.29,.37,.82,.22,1.16,.61,.48,.55,1.11,.96,1.66,1.46,.35,.32,.66,.28,1.01-.11Zm-18.3,4.39c-.29,.25-.57,.49-.86,.73l-1.16,.51c-.62,.05-1.11,.42-1.37,.9-.14,.25-.26,.31-.47,.42-.97,.52-1.69,1.33-2.35,2.17-.46,.58-.96,1.22-.79,2.08,.01,.06-.03,.17-.08,.21-.5,.49-.61,1.22-1.01,1.73-.55,.7-.69,1.44-.68,2.26,0,.51,.15,1.09-.04,1.5-.34,.71-.2,1.31,.04,1.97,.19,.53,.33,1.08,.27,1.67-.03,.24-.07,.62,.06,.72,.6,.46,.58,1.22,.94,1.78,.29,.46,.45,1.01,.76,1.45,.62,.88,1.34,1.68,2.14,2.41,.31,.29,.76,.55,.86,.9,.19,.64,.71,.69,1.16,.9,.85,.39,1.84,.48,2.6,1.06,.57,.43,1.2,.38,1.83,.5,.47,.09,.93,.23,1.42,.21,.48,.62,.92-.19,1.45-.03,.5,.15,1.08,.03,1.61,.03,.26-.26,.49-.49,.76-.76,.6,0,1.24-.04,1.86,0,.74,.06,1.08-.65,1.7-.82,.11-.03,.13-.43,.19-.66,.4-.06,.85-.02,1.18-.2,.52-.3,.91-.93,1.45-1.08,.84-.23,.69-1.04,1.14-1.46,.3-.28,.24-.93,.88-.89,.49-.98,1.31-1.8,1.39-2.98,.02-.27,.15-.53,.25-.78,.07-.18,.25-.36,.24-.53-.03-.53,.02-1.04-.11-1.59-.11-.45,.28-1,.37-1.52,.21-1.25-.26-2.45-.27-3.7,0-.35-.35-.69-.48-1.06-.41-1.16-.92-2.06-1.61-2.75-.12-.12-.23-.25-.36-.36-.44-.36-.74-.78-.55-1.37-.75-.21-1.3-.56-1.54-1.27-.04-.11-.08-.32-.11-.32-.67,0-1.12-.4-1.58-.79-.79,.13-1.23-.5-1.81-.84-.1-.06-.21-.17-.31-.17-.91,.06-1.65-.71-2.58-.52-.42-.38-.94-.27-1.41-.24-.48,.03-1.01-.22-1.43,.21-.44-.31-.81-.21-1.32-.01-.7,.27-1.51,.23-2.25,.32Z"/>
  <path d="M71.29,33.48c-.42,0-.72,.05-1-.01-.39-.08-.76-.12-1.02-.62-.24-.46-.78-.84-1.28-1.05-.59-.25-.92-.67-1.12-1.18-.31-.81-.75-1.58-.63-2.54,.05-.4-.14-.76,.28-1.09,.21-.17,.27-.55,.38-.84,.41-1.13,1.32-1.87,2.17-2.63,.32-.28,.87-.34,1.33-.43,.47-.09,.94,.02,1.43-.22,.38-.19,.94-.12,1.35,.34,.27,.3,.72,.48,1.12,.62,.46,.16,.82,.34,1.05,.81,.1,.2,.36,.45,.55,.45,.59,.02,.62,.38,.84,.82,.39,.77,.27,1.64,.69,2.38,.05,.08-.08,.29-.15,.42-.36,.74-.81,1.44-1.08,2.21-.37,1.05-1.27,1.56-2.13,1.95-.88,.4-1.85,.84-2.78,.62Z"/>
</svg>