<?xml version="1.0" encoding="UTF-8"?>
<svg id="Ebene_1" data-name="Ebene 1" xmlns="http://www.w3.org/2000/svg" width="35.28mm" height="52.92mm" viewBox="0 0 100 150">
  <path d="M36.84,78.71h1.38c.16-.09,.3-.17,.54-.31,.45-.02,1.06,.09,1.53-.11,.49-.21,.95-.23,1.44-.25,.56-.02,1.16,.11,1.65-.07,.92-.34,1.85-.21,2.78-.25,.89-.04,1.78-.03,2.66-.03,.55,0,1.1-.05,1.6,.29,.12,.08,.33,.04,.49,0,.15-.04,.29-.14,.44-.21q.61,.25,1.23,.06c.09,.02,.19,.03,.28,.05,.96,.18,1.89,.52,2.9,.49,.47-.01,.95,.2,1.42,.32,1.21,.31,2.4,.62,3.58,1.07,1.61,.62,2.94,1.64,4.32,2.62,.82,.58,1.52,1.28,2.22,1.98,1.18,1.94,1.07,3.88,.68,5.03,.1,.58,.17,1.01,.25,1.51,.27,.13,.6,.4,.95,.43,.69,.05,1.27,.32,1.92,.7,.82-.16,1.61,.41,2.54,.38,.59,.34,1.18,.73,1.82,1.04,.66,.33,1.17,.82,1.67,1.34,.46,.48,.82,1.04,1.25,1.53,.49,.57,.39,1.41,1.05,1.81,.09,.9,.35,1.73,.73,2.53v3.49c-.08,.13-.17,.27-.29,.47,.17,1.38-.43,2.62-1.07,3.84-.33,.63-.96,1.05-1.26,1.73-.15,.34-.43,.63-.68,.96-1.32,.82-2.66,1.65-4.07,2.53-.19,.02-.46,.04-.76,.06-.25,.2-.51,.4-.76,.61-.33,.04-.68,.04-.98,.14-.36,.12-.68,.44-1.04,.48-.5,.06-.95,.2-1.42,.33-.52,.15-1.1,.06-1.66,.08-.16,0-.32,.03-.47,.04-.27,.22-.18,.52-.23,.78-.05,.26-.15,.52-.26,.86,.06,.12,.14,.32,.27,.59-.06,.14-.14,.34-.22,.56,.06,.12,.13,.26,.21,.43-.13,.54-.61,1.11,.06,1.61-.53,.93-.33,1.89-.4,2.82-.53,.81-.15,1.73-.45,2.93-.05,.12-.26,.56-.51,1.12v2.07c-.27,.27-.55,.54-.81,.83-.29,.33-.6,.65-.84,1.02-.37,.57-.83,.99-1.39,1.37-.95,.65-1.83,1.4-2.75,2.12-.52,.24-1.11,.43-1.58,.77-.38,.27-.81,.33-1.18,.53-.42,.23-.91,.05-1.27,.28-.41,.26-.83,.27-1.27,.27-.51,0-.89,.47-1.43,.32-.93,.43-1.94,.33-2.92,.37-.61,.02-1.22,0-1.83,0-.46,.12-.88,.45-1.41,.15-.26-.15-.63-.15-.96-.15-1.22-.02-2.44,0-3.36,0-.97-.28-1.63-.54-2.32-.64-.5-.07-.95-.2-1.42-.37-1.13-.39-2.24-.83-3.34-1.27-.5-.2-.94-.55-1.33-.79-.37-.44-.64-.88-1.01-1.18-.66-.54-1.04-1.28-1.5-1.96-.23-.33-.52-.73-.39-1.22-.32-.83-.24-1.74-.43-2.57-.23-.99-.36-2.03-.93-2.96v-1.66c-.43-.95-.69-1.94-.67-3,0-.43,.03-.87-.26-1.28-.14-.19-.1-.54-.09-.81,.02-.61-.08-1.19-.32-1.76-.25-.61-.37-1.25-.35-1.92,0-.26-.11-.52-.19-.85,.03-.07,.11-.21,.17-.35-.1-.37-.14-.78-.33-1.09-.22-.35-.04-.69-.14-1.03-.11-.36-.15-.75-.18-1.13-.03-.39,0-.78,0-1.23-.62-.56-.03-1.49-.57-2.12-.03-.72-.06-1.44-.09-2.17-.09-.18-.19-.38-.32-.62v-3.34c-.08-.16-.17-.35-.34-.68,0-.47,.02-1.08,0-1.69-.03-.76,.14-1.54-.27-2.27-.1-.17-.03-.44-.03-.66,0-1.83-.03-3.66-.02-5.5,0-.49,0-.97,.26-1.45,.17-.31,.08-.76,.11-1.12,.75-2.12,2.47-3.34,4.22-4.59,.92-.05,1.48-.97,2.45-1.14,.89-.15,1.66-.76,2.55-1.07,.87-.31,1.8-.43,2.74-.84Zm26.03,34.8c.38-.18,.72-.34,1.01-.48,.26,.14,.45,.24,.61,.32,.3-.11,.58-.32,.8-.27,.71,.15,1.26-.31,1.9-.43,.41-.08,.82-.24,1.25-.33,.53-.1,1.06-.24,1.58-.39,.47-.13,.89-.41,1.32-.65,.38-.21,.78-.42,1.11-.7,.39-.32,.93-.21,1.33-.6,.57-.58,1.28-1.02,1.79-1.41,.36-.66,.54-1.2,.89-1.6,.43-.48,.51-1.09,.7-1.63,.2-.59,.44-1.21,.38-1.91-.09-1.05-.02-2.11-.02-3.16-.58-.88-.82-1.89-1.14-2.9-.46-.46-.94-.93-1.39-1.42-.5-.54-1.14-.9-1.77-1.19-.54-.25-1.08-.59-1.65-.68-.54-.09-1.05-.3-1.59-.37-.22-.03-.44-.04-.65-.11-1.09-.37-2.2-.66-3.37-.6-.1,0-.21-.04-.34-.07-.1-.09-.22-.2-.41-.37v-1.92c.34-.5,.41-1.01,.17-1.56-.15,.09-.29,.18-.44,.26-.33,.03-.65,.05-.9,.07-.41,.36-.75,.65-.97,.84-.4,.13-.66,.19-.92,.29-.96,.38-1.97,.65-2.98,.8-.81,.12-1.58,.5-2.42,.4-.55,.49-1.3,.14-1.89,.46-.62,.33-1.31,.1-1.96,.18-.16,.02-.37-.05-.49,.03-.76,.51-1.62,.28-2.43,.31-1.39,.05-2.77,0-4.16,0-.38,0-.75,0-1.12,.19-.27,.14-.71,.19-.96,.05-.58-.32-1.18-.24-1.78-.25-1.28-.02-2.55-.03-3.83-.05-.27,0-.6,.04-.81-.08-.42-.25-.85-.24-1.29-.22-.9,.04-1.74-.16-2.55-.51-.15-.06-.31-.14-.46-.14-.84,0-1.58-.39-2.36-.6-.8-.21-1.47-.75-2.29-.83-.45-.28-.7-.88-1.33-.86-.05,.05-.11,.1-.11,.14,0,1.5,0,2.99,0,4.59,.05,.1,.15,.29,.28,.55v2.38c.12,.2,.2,.34,.29,.5,.08,1.19-.11,2.4,.32,3.59,.16,.45,.09,.99,.05,1.49-.04,.57,.28,1.05,.32,1.6,.04,.54-.01,1.07,.23,1.62,.21,.47,.09,1.09,.13,1.64,.01,.16,.06,.33,.15,.46,.17,.25,.15,.52,.18,.8,.05,.54-.13,1.11,.18,1.62,.32,.54-.05,1.23,.38,1.74-.02,.89,.47,1.69,.43,2.57-.02,.62,.16,1.17,.29,1.76,.13,.59,.05,1.22,.08,1.83,0,.1,.04,.22,.1,.31,.25,.34,.22,.73,.23,1.12,0,.33-.11,.72,.02,.99,.39,.79,.25,1.62,.31,2.36,.52,1.16,.51,2.39,.83,3.43-.06,.33-.23,.65-.13,.85,.22,.46,.26,.93,.34,1.42,.08,.47,.31,.92,.52,1.36,.57,1.18,2.11,2.46,3.41,2.92,.51,.18,1,.41,1.52,.58,.52,.17,1.1,.19,1.56,.44,.58,.32,1.17,.25,1.76,.33,.54,.07,1.04,.31,1.6,.3,1.78-.02,3.55,0,5.33,0,.33,0,.73,.07,.98-.07,.63-.37,1.29-.21,1.94-.26,.49-.04,1.05,.05,1.47-.14,.47-.23,.99-.11,1.38-.31,.26-.21,.47-.38,.69-.56h1.53c.21-.18,.39-.42,.63-.52,1.33-.56,2.35-1.58,3.55-2.33,.4-.25,.7-.7,1.01-1.08,.24-.29,.44-.63,.67-.96,.09-.57-.12-1.21,.34-1.73-.06-.57,.31-1.05,.34-1.59,.03-.72,.09-1.45,.01-2.16-.08-.75,.32-1.38,.32-2.1,0-.89,0-1.77,.02-2.66,0-.33-.09-.74,.06-.98,.39-.63,.25-1.29,.29-1.94,.04-.6,0-1.2,0-1.81Zm-8.98-32.8c-.94-.09-2.11,.16-3.22-.33-.19-.08-.44-.01-.66-.01-.44,0-.89,0-1.33-.01-.78,0-1.55-.01-2.33-.01-.83,0-1.67,.05-2.5,.02-.78-.03-1.51,.18-2.26,.3-.86,.13-1.73,.05-2.59,.33-.55,.18-1.21,.03-1.69,.03-.57,.25-1,.56-1.47,.62-1.91,.29-3.57,1.25-5.34,1.93-.3,.11-.58,.31-.83,.52-.47,.39-.9,.82-1.3,1.19-.29,.66-.75,1.2-.45,1.88,.58,.38,1.11,.78,1.69,1.07,.63,.31,1.31,.51,2.04,.79h.86c1.91-.94,3.84-1.67,5.81-2.31,1.19-.39,2.42-.59,3.61-.96,.61-.19,1.28-.12,1.93-.32,.61-.18,1.32-.05,1.99-.05,.67,0,1.33,0,2,0,.76,.48,1.61,.31,2.42,.27,1.12-.05,2.15,.49,3.26,.4,.05,0,.1,.03,.15,.05,1.3,.57,2.71,.77,4.02,1.27,.9,.35,1.9,.54,2.64,1.24,.56-.37,1.27-.25,1.86-.6,.6-.36,1.29-.58,2-.89,.43-.39,.89-.86,.9-1.51-1.17-1.16-2.64-1.83-3.76-2.86-.28-.07-.51-.08-.7-.17-1.85-.82-2.6-1.01-4.53-1.28-.64-.09-1.25-.34-2.22-.61Z" style="fill: #020202;"/>
  <path d="M62.88,113.5c0,.61,.03,1.21,0,1.81-.04,.65,.1,1.31-.29,1.94-.15,.24-.06,.65-.06,.98-.01,.89-.02,1.77-.02,2.66,0,.72-.4,1.35-.32,2.1,.08,.71,.02,1.44-.01,2.16-.03,.54-.4,1.02-.34,1.59-.46,.51-.25,1.16-.34,1.73-.23,.33-.43,.66-.67,.96-.32,.38-.61,.82-1.01,1.08-1.2,.75-2.22,1.77-3.55,2.33-.24,.1-.43,.34-.63,.52h-1.53c-.22,.18-.43,.35-.69,.56-.4,.2-.91,.09-1.38,.31-.42,.2-.97,.1-1.47,.14-.65,.05-1.31-.11-1.94,.26-.26,.15-.65,.07-.98,.07-1.78,0-3.55-.03-5.33,0-.57,0-1.07-.23-1.6-.3-.59-.08-1.19-.01-1.76-.33-.46-.26-1.05-.28-1.56-.44-.52-.17-1.01-.4-1.52-.58-1.31-.45-2.85-1.74-3.41-2.92-.21-.44-.44-.89-.52-1.36-.08-.49-.12-.96-.34-1.42-.09-.2,.07-.51,.13-.85-.33-1.04-.31-2.27-.83-3.43-.07-.74,.07-1.57-.31-2.36-.13-.27-.01-.66-.02-.99,0-.39,.03-.78-.23-1.12-.06-.08-.09-.2-.1-.31-.03-.61,.05-1.24-.08-1.83-.13-.59-.31-1.14-.29-1.76,.03-.88-.46-1.69-.43-2.57-.44-.51-.06-1.21-.38-1.74-.31-.52-.14-1.08-.18-1.62-.02-.27,0-.55-.18-.8-.09-.13-.13-.3-.15-.46-.04-.55,.08-1.16-.13-1.64-.24-.55-.19-1.08-.23-1.62-.04-.55-.36-1.03-.32-1.6,.04-.5,.11-1.04-.05-1.49-.42-1.19-.24-2.4-.32-3.59-.09-.15-.17-.3-.29-.5v-2.38c-.13-.26-.23-.45-.28-.55,0-1.6,0-3.1,0-4.59,0-.04,.07-.08,.11-.14,.64-.03,.88,.58,1.33,.86,.83,.08,1.49,.62,2.29,.83,.78,.2,1.52,.59,2.36,.6,.15,0,.31,.08,.46,.14,.82,.35,1.65,.55,2.55,.51,.43-.02,.87-.04,1.29,.22,.21,.13,.53,.08,.81,.08,1.28,.02,2.55,.03,3.83,.05,.6,0,1.2-.07,1.78,.25,.24,.13,.69,.08,.96-.05,.38-.19,.74-.19,1.12-.19,1.39,0,2.78,.04,4.16,0,.81-.03,1.67,.2,2.43-.31,.12-.08,.33-.01,.49-.03,.65-.08,1.34,.16,1.96-.18,.6-.32,1.35,.03,1.89-.46,.84,.1,1.61-.28,2.42-.4,1.01-.15,2.02-.41,2.98-.8,.25-.1,.52-.17,.92-.29,.22-.19,.56-.48,.97-.84,.25-.02,.57-.05,.9-.07,.14-.09,.29-.17,.44-.26,.23,.55,.17,1.06-.17,1.56v1.92c.18,.16,.3,.27,.41,.37,.13,.03,.24,.08,.34,.07,1.17-.06,2.28,.23,3.37,.6,.2,.07,.43,.08,.65,.11,.54,.08,1.05,.28,1.59,.37,.57,.1,1.11,.44,1.65,.68,.63,.29,1.27,.65,1.77,1.19,.45,.49,.93,.95,1.39,1.42,.32,1.01,.56,2.02,1.14,2.9,0,1.06-.07,2.12,.02,3.16,.06,.7-.18,1.32-.38,1.91-.19,.54-.27,1.15-.7,1.63-.35,.4-.53,.94-.89,1.6-.5,.39-1.21,.83-1.79,1.41-.4,.4-.94,.28-1.33,.6-.33,.28-.73,.49-1.11,.7-.43,.24-.86,.52-1.32,.65-.52,.15-1.05,.28-1.58,.39-.43,.09-.84,.25-1.25,.33-.64,.12-1.19,.58-1.9,.43-.22-.05-.5,.16-.8,.27-.16-.08-.35-.19-.61-.32-.29,.14-.62,.3-1.01,.48Zm.97-10.55v3.19c-.1,.16-.19,.3-.36,.56,0,1.04,0,2.2,0,3.36,0,.22,0,.44,.26,.6,.68,0,1.4-.04,2.12,.01,.78,.06,1.47-.45,2.26-.32,.14,.02,.29-.12,.45-.17,1.33-.46,2.65-.95,3.98-1.68,.59-.61,1.34-1.22,1.86-1.99,.51-.75,.78-1.67,1.1-2.39v-1.75c-.25-.61-.52-1.13-.72-1.71-.4-1.15-1.06-2.1-2.16-2.8-1.01-.65-1.99-1.33-3.25-1.88-.68,0-1.52,.04-2.34-.01-.59-.04-1.14-.38-1.76-.26-.1,.02-.21,.05-.36,.09-.11,.13-.25,.3-.44,.53v2.12c-.4,.34,.03,.69-.01,1.03-.09,.15-.17,.29-.25,.44-.02,.05-.01,.11-.04,.46v2c-.1,.18-.19,.32-.33,.57Z" style="fill: #fff;"/>
  <path d="M53.9,80.7c.97,.27,1.59,.52,2.22,.61,1.93,.27,2.68,.46,4.53,1.28,.2,.09,.42,.1,.7,.17,1.12,1.03,2.59,1.7,3.76,2.86-.01,.65-.47,1.11-.9,1.51-.71,.31-1.4,.53-2,.89-.59,.35-1.3,.23-1.86,.6-.74-.7-1.74-.89-2.64-1.24-1.31-.51-2.73-.71-4.02-1.27-.05-.02-.1-.06-.15-.05-1.11,.09-2.14-.45-3.26-.4-.81,.04-1.66,.21-2.42-.27-.67,0-1.33,0-2,0-.67,0-1.37-.14-1.99,.05-.65,.19-1.32,.13-1.93,.32-1.19,.37-2.42,.57-3.61,.96-1.97,.64-3.9,1.36-5.81,2.31h-.86c-.73-.28-1.41-.48-2.04-.79-.58-.29-1.11-.7-1.69-1.07-.3-.67,.16-1.22,.45-1.88,.4-.36,.83-.79,1.3-1.19,.25-.21,.53-.41,.83-.52,1.77-.67,3.43-1.64,5.34-1.93,.47-.07,.9-.37,1.47-.62,.48,0,1.14,.14,1.69-.03,.86-.28,1.74-.2,2.59-.33,.75-.11,1.48-.33,2.26-.3,.83,.03,1.66-.02,2.5-.02,.78,0,1.55,0,2.33,.01,.44,0,.89,0,1.33,.01,.22,0,.48-.07,.66,.01,1.11,.49,2.28,.24,3.22,.33Z" style="fill: #fff;"/>
  <path d="M63.85,102.95c.14-.24,.22-.39,.33-.57v-2c.03-.35,.02-.41,.04-.46,.07-.15,.16-.29,.25-.44,.04-.34-.39-.69,.01-1.03v-2.12c.19-.23,.33-.4,.44-.53,.15-.04,.26-.07,.36-.09,.62-.13,1.17,.22,1.76,.26,.83,.06,1.66,.01,2.34,.01,1.25,.55,2.23,1.23,3.25,1.88,1.1,.7,1.76,1.65,2.16,2.8,.2,.57,.47,1.1,.72,1.71v1.75c-.32,.72-.59,1.64-1.1,2.39-.52,.77-1.27,1.38-1.86,1.99-1.33,.73-2.65,1.22-3.98,1.68-.15,.05-.31,.2-.45,.17-.79-.13-1.47,.38-2.26,.32-.71-.05-1.44-.01-2.12-.01-.26-.16-.26-.38-.26-.6,0-1.16,0-2.32,0-3.36,.17-.26,.26-.4,.36-.56v-3.19Zm3.3,5.38c.26-.1,.51-.29,.76-.28,.65,.04,1.16-.29,1.68-.56,1.23-.64,2.29-1.5,3.17-2.57,.13-.3,.27-.59,.4-.89,.02-2.1-.36-2.89-2.32-4.82-.53-.27-1.06-.54-1.59-.82-.69-.03-1.38-.04-2.02-.23-.11,.12-.18,.21-.26,.3,.22,.51,.34,1.02-.04,1.43-.06,.62-.02,1.19-.2,1.69-.13,.38-.19,.74-.2,1.11-.01,.94,0,1.87,0,2.71-.15,.29-.25,.49-.27,.54v1.98c.17,.07,.32,.12,.47,.18,.15,.07,.28,.15,.43,.24Z" style="fill: #040404;"/>
  <path d="M67.15,108.33c-.15-.08-.29-.17-.43-.24-.14-.07-.29-.12-.47-.18v-1.98c.03-.05,.12-.24,.27-.54,0-.83-.01-1.77,0-2.71,0-.38,.07-.74,.2-1.11,.18-.5,.14-1.08,.2-1.69,.37-.41,.26-.92,.04-1.43,.08-.09,.15-.17,.26-.3,.64,.19,1.33,.2,2.02,.23,.53,.28,1.07,.55,1.59,.82,1.97,1.93,2.35,2.72,2.33,4.82-.13,.3-.27,.59-.4,.89-.88,1.07-1.94,1.93-3.17,2.57-.53,.27-1.03,.6-1.68,.56-.24-.01-.5,.18-.76,.28Z" style="fill: #fefefe;"/>
</svg>