<?xml version="1.0" encoding="UTF-8"?>
<svg id="Ebene_1" data-name="Ebene 1" xmlns="http://www.w3.org/2000/svg" width="210mm" height="14.7mm" viewBox="0 0 595.28 41.67">
  <path d="M570.94,21.91h-12.33c-.19,.1-.38,.21-.65,.36-.19-.1-.43-.22-.7-.36h-5.26c-.33,.13-.63,.25-.97,.39-.25-.13-.49-.25-.71-.36h-2.15c-.18,.1-.32,.18-.47,.27-.3-.09-.61-.26-.92-.27-1.55-.03-3.11-.04-4.66-.02-.37,0-.74,.13-1.31,.24,0,0-.2-.09-.44-.2-.36,.09-.77,.2-1.14,.3-.2-.12-.34-.21-.48-.3-.1-.01-.21-.04-.32-.04-2.28,0-4.55,0-6.83,0-.39,0-.78-.02-1.16,.04-.32,.05-.62,.19-1.01,.32-.19-.07-.44-.16-.79-.29q-2.35-.11-3.32,.23c-.41-.1-.77-.43-1.24-.29-.36,.11-.71,.24-1.04,.34-.31-.13-.56-.23-.79-.33-.22,.1-.41,.19-.66,.3-.17-.09-.36-.19-.59-.31-.9-.1-1.82-.02-2.68,.32-.25-.13-.45-.23-.65-.33h-2.12c-.28,.13-.53,.24-.78,.36-.34-.12-.64-.23-.94-.34-.16,.09-.3,.17-.45,.26-.04,0-.11,.02-.15,0-.55-.36-1.17-.27-1.77-.27-.43,0-.85,0-1.3,.16-.35,.12-.82-.15-1.24-.15-.31,0-.62,.15-1.21,.3h-1.24c-.11-.07-.25-.16-.51-.31-.27,0-.66-.03-1.04,0-.31,.03-.62,.12-.92,.19-.1-.06-.19-.11-.35-.2-.5,.17-1.07,.6-1.63-.04-.22,.1-.41,.19-.72,.33h-2.07c-.51-.3-1.05-.45-1.67-.15-.63,.3-1.27,.26-1.92-.13-.23,.09-.47,.26-.72,.28-.78,.04-1.55,.03-2.33,0-.26,0-.53-.11-.79-.19-.33-.11-.63-.09-.94,.1-.37,.22-.74,.14-1.09-.12-.51,.41-1.01,.23-1.52-.08-.19,.1-.39,.19-.61,.3-.23-.08-.49-.17-.77-.27-.17,.09-.36,.2-.5,.27-.88,0-1.71-.01-2.55,0-.6,.01-1.22,.2-1.76-.24-.6-.01-1.19-.1-1.8,.07-.89,.26-.93,.23-1.89-.05-.46,.39-.91,.29-1.36-.06-.52,.16-1.03,.32-1.61,.51-.87-.26-1.65-.29-6.2-.19-.16-.09-.35-.2-.59-.34-.16,.07-.35,.16-.68,.32-.89-.11-1.95,.24-3-.29-.89,.56-1.84,.35-2.75,0-.18,.11-.32,.19-.51,.31-.95,0-1.95,0-2.95,0-1,0-2-.02-3-.03-1,0-2-.08-2.99,.03-1.02,.11-1.92-.53-3-.25-.17,.08-.42,.19-.71,.33-.25-.12-.49-.24-.73-.36-.37,.04-.68,.29-1.09,.27-1.28-.03-2.55,.03-3.83,0-.48-.01-.95-.18-1.48-.29-.16,.08-.35,.18-.58,.3-.62-.09-1.31,.17-1.91-.26-.98-.05-1.97-.18-2.9,.25-.17-.1-.31-.18-.5-.29-.84,.44-1.79,.23-2.71,.3-.26-.11-.51-.21-.77-.32-.16,.03-.33,.04-.48,.1-.6,.24-.6,.24-1.23,0-.61,.24-1.23,.41-1.88,.09-.47-.23-.91-.19-1.42-.02-.51,.16-1.08,.14-1.53,.18-.5-.18-.86-.48-1.34-.24-.91,.46-1.81,.27-2.8-.08-.12,.06-.31,.16-.55,.3-.16-.06-.36-.14-.59-.23-.1,.05-.25,.12-.41,.21-.24-.09-.49-.18-.77-.29-.14,.02-.33,0-.45,.08-.52,.32-1.03,.34-1.56,.01-.39-.24-.74-.09-1.08,.14-.57-.32-1.13-.37-1.69,0-.57-.33-1.15-.31-1.76-.16-1.23,.3-1.39,.24-2.89,0-.85-.14-1.74-.2-2.61,.1-.3,.11-.72,.2-.96,.07-.58-.31-1.18-.24-1.78-.24-.83,0-1.66,0-2.56,0-.14,.07-.33,.16-.56,.27-.23-.09-.47-.23-.73-.27-.38-.05-.77-.01-1.12-.01-.18,.11-.32,.19-.48,.29h-2.44c-.43-.29-1.02-.33-1.67-.28-.16,.09-.35,.2-.63,.37-.34-.05-.82-.02-1.2-.19-.62-.29-1.16-.28-1.71,.1-.08,.05-.22,.02-.4,.04-.13-.07-.32-.17-.55-.29-.64-.14-3.31,.01-4.15,.26-.16-.08-.36-.18-.55-.27-.5,0-1,0-1.49,0-.15,.09-.29,.18-.52,.32-.19-.08-.43-.19-.74-.32-.68,.06-1.46-.2-2.17,.22-.84-.49-1.75-.1-2.57-.22-.19,.11-.33,.19-.52,.3-.71-.11-1.5,.19-2.23-.25-.09-.05-.21-.05-.32-.05-1.33,0-2.67,0-4,0-.21,0-.41,.14-.62,.19-.21,.05-.56,.16-.62,.07-.44-.59-1.06,.19-1.51-.24-.09-.09-.33,0-.49-.04-.64-.16-1.15,.42-1.76,.31-.58-.11-1.13-.43-1.76-.27-.21,.05-.41,.14-.73,.25-.66-.25-1.44-.53-2.21-.04-.16-.08-.3-.16-.47-.25-.91,.1-1.86-.15-2.87,.19-.35-.21-.81-.33-1.26,.03-.1-.03-.19-.09-.29-.1-1.27-.05-2.54-.09-3.81-.12-.11,0-.23,.01-.32,.07-.64,.41-1.25,.2-1.87-.06-.2,.09-.39,.17-.64,.28-.16-.09-.34-.2-.58-.33-1.09,.18-2.27-.19-3.41,.34-.17-.09-.36-.18-.65-.33-4.67,.14-9.44-.13-14.21,.13-.1,0-.19,.1-.22,.11-.32-.07-.58-.19-.84-.19-2.11-.03-4.22-.05-6.32-.06-2.83,0-5.66,0-8.49,0-.49,0-1-.06-1.42,.28-.33-.29-.72-.26-1.11-.26-2.66,0-5.33,0-7.99,0-1.05,0-2.11,.01-3.16,0-.72-.01-1.44-.13-1.99,.45-.37-.19-.61-.32-.83-.43h-2.47c-.18,.1-.32,.19-.53,.31-.2-.09-.45-.2-.7-.32h-78.55c-.34,.11-.64,.28-.95,.29-.25,.01-.51-.16-.87-.28h-10.29c-.14,.07-.34,.16-.64,.3-.16-.07-.41-.18-.73-.31-.7,0-1.48,.05-2.26-.02-.58-.05-1.13,.43-1.71,.07-.47,.34-.91-.07-1.37-.05-.5,.03-1,.02-1.5,.02-1.72,0-3.44,0-4.92,0-.6,.15-.96,.25-1.27,.33-.21-.13-.36-.21-.53-.32h-6.85c-.09,.05-.23,.13-.39,.21-.61-.38-1.22-.3-1.83,.05-.67-.38-1.39-.29-2.07-.28-.22,.11-.41,.21-.57,.29-.47-.12-.84-.46-1.3-.18-.14,.09-.25,.14-.43,.04-.51-.28-1.08-.11-1.65-.16-.19,.1-.38,.2-.57,.29h-1.73c-.21-.08-.45-.24-.71-.27-.44-.05-.95-.15-1.32,.02-.81,.38-1.63,.17-2.41,.26-.12-.07-.22-.13-.36-.21-.53,.2-1.11,.45-1.56-.17-.4,.14-.7,.24-1.1,.38h-1.62c-.15-.08-.34-.18-.6-.31-.16,.07-.35,.16-.69,.31-.24,0-.63-.02-1.01,0-.39,.02-.74-.05-1.12-.19-.32-.13-.76-.1-1.11,0-.82,.25-1.61,.25-2.42,.03-.05-.01-.1-.05-.15-.09-.14,.06-.28,.13-.43,.2-.3-.09-.61-.24-.92-.25-.25,0-.51,.16-.82,.26-.71-.41-1.55-.24-2.39-.28-.48,.35-.98,.43-1.51,0-.32,0-.65,0-.99,0-.38,.01-.78-.11-1.13,.12-.26,.17-.55-.15-.87,.09-.33,.25-.73-.04-1.13-.23-.45,.2-.97,.59-1.5,.23-.57-.39-1.04-.14-1.54,.07-.16-.08-.3-.16-.45-.23-.14,.07-.28,.15-.46,.24-.64-.32-1.31-.49-2.02,.03-.18-.08-.37-.17-.66-.31h-2.76c-.58,.36-1.19,.49-1.81,0-.31,.09-.62,.26-.92,.26-.31,0-.62-.17-1.01-.3-.34,.12-.75,.26-1.17,.4-.22-.12-.4-.23-.61-.34-.08,.01-.21,0-.29,.05-.57,.31-1.17,.34-1.74,.08-.49-.22-.94-.23-1.42-.01-.19,.09-.42,.13-.63,.13-1.44,0-2.89,0-4.33-.01-.26,0-.52-.17-.78-.18-.2,0-.4,.2-.59,.19-.32-.02-.62-.15-1.13-.28-.91,0-2.02,0-3.13,0-.37,.06-.67,.4-1.09,.29-.37-.09-.73-.19-1.18-.3-.24,.08-.54,.19-.84,.28-.16-.08-.31-.15-.45-.21-.58,.37-1.14,.37-1.75-.07-.22,.09-.47,.19-.78,.31-.15-.08-.35-.17-.57-.28h-1.44c-.26,.12-.51,.23-.78,.34-.27-.12-.52-.23-.8-.36-.13,.05-.28,.1-.53,.2-.05-.02-.18-.13-.32-.13-.83-.02-1.66,0-2.66,0-.04,.02-.23,.12-.48,.25-.16-.07-.36-.15-.66-.29h-1.15c-.19,.11-.33,.19-.47,.28-.78,0-1.56,0-2.34,0-.22,0-.46,0-.64-.1-.76-.36-1.49-.28-2.19,.17-.3-.11-.55-.21-.91-.35h-1.74c-.21,.09-.46,.19-.69,.29-.18-.1-.33-.19-.49-.28-.44-.05-.59,.43-.96,.54-.21-.17-.43-.34-.64-.51-.32-.13-.51,.15-.77,.23h-1.48c-.15-.09-.29-.17-.53-.3-.18,.08-.42,.26-.67,.27-.72,.04-1.44,.01-2.21,.01-.1-.06-.24-.15-.43-.27-.76,.06-1.6-.17-2.43,.31-.16-.08-.35-.17-.62-.3h-1.4c-.45,.27-.9,.45-1.38,.08-.84,.29-1.7,.3-2.56,.07-.9-.24-1.78-.22-2.75,.01-.87,.21-1.73,.2-2.6-.03-.84-.23-2.08-.18-3.09,.06-.32,.07-.73,.2-.96,.06-.63-.36-1.29-.24-1.94-.26-.44-.01-.89,0-1.33,0-.38,0-.75-.02-1.12,.2-.21,.13-.57,.16-.79,.07-1.17-.51-2.4-.17-3.6-.3-.6-.06-1.22-.01-1.77-.01q-.9,.39-1.75,.06c-.24,.09-.49,.19-.78,.29-.76-.21-1.54-.63-2.34-.08-1-.46-2.06-.19-3.1-.24-.89-.04-1.78-.03-2.66,0-.37,.01-.73,.15-1.21,.26-.09-.05-.28-.15-.47-.25-5.05,0-10.11,0-15.16,0-.15,0-.29,.14-.41,.2-.41-.19-.8-.38-1.17-.55-.59-.02-1.06,.47-1.63,.29-.36-.11-.7-.28-1.05-.43v-1.68c.21-.27,.51-.21,.77-.22,.61,0,1.22,0,1.94,0,.11-.05,.3-.15,.57-.28,.14,.05,.34,.12,.56,.2,.42-.25,.89-.29,1.38-.12,1.08,.39,2.15,.27,3.22-.08,.14,.08,.29,.16,.37,.2,.94,0,1.82,0,2.71,0,.15,0,.29-.13,.39-.18,.11,0,.18-.02,.22,0,.14,.08,.28,.17,.42,.26,.79-.21,1.57-.54,2.36-.01,.37,.07,.65-.49,1.07-.15,.06,.05,.21,.08,.27,.04,.37-.24,.71-.23,1.09-.02,.46,.25,.97,.12,1.43,.11,.17-.09,.31-.17,.45-.25h1.5c.1,.05,.2,.1,.34,.17,.27-.05,.57-.16,.88-.17,.67-.03,1.33-.04,2,0,.6,.04,1.22-.18,1.79,.17,.06,.04,.18-.03,.28-.05,1.09-.24,2.2-.1,3.3-.11,.2,0,.4,.16,.62,.25,.29-.1,.59-.21,.95-.34,.23,.11,.47,.22,.71,.34,1.06-.45,2.13-.38,3.18,0,.15-.1,.3-.18,.47-.29,.61,.08,1.3-.19,1.9,.25,.14-.08,.29-.16,.45-.25h2.06c.43,.17,.89,.51,1.47,.11,.38-.25,.84-.18,1.26,.07,.13,.08,.31,.09,.54,.16,.21-.1,.45-.21,.69-.33h2.42c.27,.13,.47,.22,.62,.3,.46-.15,.83-.51,1.29-.19,.15,.1,.27,.08,.43,.02,.16-.06,.4,.08,.56,.02,1.03-.36,2.08-.08,3.12-.15,.88,.5,1.83,.18,2.68,.29,.22-.13,.36-.22,.48-.3h4.82c.17,.1,.31,.19,.45,.28,.14-.09,.28-.17,.45-.28h3.4c.73,.42,1.57,.47,2.36,0,.15,.08,.25,.13,.41,.21,.14-.05,.32-.16,.51-.17,.66-.02,1.33,0,2.11,0,.09,.05,.29,.15,.55,.29,.2-.09,.44-.21,.68-.32,1.22,0,2.44,0,3.72,0,.16,.08,.35,.19,.59,.32,.16-.02,.38-.04,.59-.08,.1-.02,.18-.13,.29-.17,.38-.13,.78-.17,1.11,.06,.37,.25,.58-.16,.9-.13,.39,.03,.76,.08,1.12,.3,.86-.46,1.81-.22,2.73-.27,.26,.11,.51,.21,.71,.29,.22-.12,.36-.2,.52-.29h3.4c.19,.08,.44,.18,.78,.32,.86-.34,1.82-.54,2.75,.06,.29-.13,.53-.25,.75-.35,1.64,0,3.24,0,4.85,.01,.15,0,.29,.15,.47,.26,.23-.08,.48-.18,.74-.27,.19,.06,.39,.17,.58,.17,.15,0,.3-.16,.45-.17,.44-.02,.89,0,1.25,0,.43,.12,.79,.22,1.11,.31,.21-.13,.35-.21,.59-.36,.67,.03,1.44,.04,2.21,.1,.21,.01,.4,.2,.61,.22,.44,.04,.89,.01,1.29,.01,.55-.38,1.06-.42,1.52,.03,1.01-.16,2.03,.18,2.93-.25,.62,.1,1.21,.2,1.8,.3,.72-.67,1.44-.43,2.16-.02,.28-.12,.53-.22,.81-.34,.12,.04,.28,.1,.42,.14,.47-.05,.96-.05,1.42-.17,.59-.15,1.11,.31,1.73,.08,.5-.17,1.1-.06,1.65-.07,.61,0,1.22,0,1.82,0,.22,.1,.41,.19,.69,.31,.35-.1,.76-.22,1.19-.35,.25,.1,.5,.21,.78,.33,.12-.05,.27-.12,.34-.15,.49,.05,.97,.25,1.31,.11,.86-.36,1.74-.2,2.61-.29,.21,.11,.4,.21,.66,.35,.15-.02,.39,0,.58-.08,.25-.12,.48-.25,.78-.23,.93,.07,1.87-.17,2.79,.18,.11,.04,.28-.08,.43-.13,.41-.13,.75,.03,1.11,.24h2.78c.22-.12,.41-.22,.6-.31,.23,.12,.42,.22,.61,.32,.3-.1,.6-.26,.91-.28,.25-.01,.51,.15,.89,.27h2.35c.16-.09,.3-.18,.49-.29,.27,.09,.57,.2,.91,.32,.76-.27,1.54-.59,2.34-.08,.48-.37,1.05-.22,1.59-.26,.19,.11,.38,.22,.55,.32h3.37c.18-.09,.38-.19,.61-.31,.58,.22,1.15,.46,1.84,.12,.47-.23,1.04-.12,1.6,.04,1.07,.31,2.16,.22,3.42-.14h1.93c.18,.11,.32,.19,.53,.32,.2-.09,.45-.19,.74-.32,.16,.08,.36,.17,.62,.3,.5-.23,1.06-.59,1.56,0h2.52c.18-.1,.32-.19,.46-.26,.04-.02,.11-.01,.19-.02,.17,.08,.37,.16,.63,.28,.15-.08,.34-.18,.56-.29,.58-.08,1.17-.06,1.76,.29,.17-.08,.37-.18,.56-.28,.67,.14,1.35,.61,2-.05,.28,.11,.53,.21,.84,.34,.56,0,1.18-.68,1.84,.01,.59-.28,1.16-.45,1.85-.14,.59,.27,1.29,.18,1.92-.16,.53,.36,1.15,.24,1.47,.26,.58-.13,.97-.36,1.2-.25,.8,.39,1.62,.21,2.4,.26,.18-.1,.32-.19,.52-.3,1.31,.21,2.71-.31,4.09,.3,.51-.19,1.07-.65,1.55,.06,.59-.34,1.1-.53,1.61-.08,.37-.09,.73-.22,1.09-.25,.32-.03,.71-.05,.97,.1,.43,.24,.69-.23,1.08-.13,.31,.08,.66,.02,1.05,.02,.15,.08,.35,.17,.59,.3,.21-.09,.46-.2,.72-.31,1.98,0,3.98-.01,5.98,0,.54,0,1.11-.1,1.6,.27,.13,.1,.41-.02,.97-.26h2.53c.13,.06,.32,.15,.56,.27,.62-.37,1.3-.46,1.96-.02,.57-.22,1.12-.45,1.73-.11,.53,.3,1.06,.18,1.57-.16,1.13,.04,2.31-.23,3.33,.34,.29-.14,.48-.24,.69-.35,1.27,0,2.54-.04,3.82,.01,1.2,.05,2.43-.29,3.6,.25,.2-.08,.4-.17,.61-.26h9.75c.2,.11,.35,.19,.55,.3,.21-.09,.46-.27,.71-.28,1.32-.06,2.65-.12,3.97,.1,.16,.03,.26,.05,.42,0,.25-.09,.54-.16,.8-.13,.76,.08,1.56-.21,2.27,.23,.67-.34,1.39-.2,2.09-.21,.78-.01,1.55,0,2.33,0,.72,0,1.44,0,2.17,0,.78,0,1.55,0,2.35,0,.22,.1,.47,.21,.64,.28,.21,0,.34,.02,.43-.03,.29-.17,.59-.28,.94-.28,2.28,0,4.55,0,6.83,0,.32,0,.63,.12,1.01,.2,.55-.37,1.16-.25,1.81,.1,.18-.09,.37-.18,.58-.29h2.79c.17,.1,.32,.18,.48,.27,.55-.1,1.12-.59,1.65,.05,.29-.12,.54-.22,.88-.36,.24,.08,.55,.18,.9,.29,.41-.16,.88-.29,1.38-.26,.38,.02,.74,0,1.12,.2,.46,.23,.97,.13,1.41-.16,.62,.14,1.21,.44,1.89,.09,.48-.25,1.05-.16,1.6,.04,.34,.12,.81,.19,1.11,.05,.43-.2,.85-.21,1.29-.21,2.33,0,4.66,0,7,0,.47-.24,.89,.39,1.39,.06,.3-.2,.65,.3,1.06-.03,.21-.17,.64-.06,.97-.06,1.72,0,3.44,0,5.16,.01,.56,0,1.11-.01,1.67,0,.33,0,.67-.02,1,.04,.26,.04,.5,.19,.71,.27,.21-.12,.35-.2,.51-.29,.6,0,1.21,0,1.82,0,.22,0,.54-.08,.65,.03,.51,.51,1.1,0,1.66,.21,.48,.19,1.1,.04,1.64,.04,.26-.12,.51-.23,.76-.34,.34,.13,.64,.24,1.02,.39,.2-.06,.46-.15,1.04-.33,.88,0,2.09,0,3.31,0,.33,0,.64,.06,.96,.17,.62,.21,1.27,.17,1.93-.04,.73-.23,1.51-.28,2.28,.17,.16-.07,.36-.16,.66-.3,.16,.06,.41,.16,.7,.28,.12-.05,.27-.11,.44-.18q.76,.22,1.49-.07c.37,.09,.73,.24,1.1,.25,1.11,.04,2.22,.02,3.33,.02,.39,0,.75-.12,1.12-.2,.85-.18,1.72-.17,2.6,.08,.62,.18,1.31,.13,1.9,.17,.72-.43,1.4-.5,2.1-.15,.49,.25,.96,.16,1.41-.14,.14,.08,.28,.16,.51,.28,1.19,0,2.46,0,3.74,.01,.15,0,.29,.14,.34,.17,.39-.09,.71-.22,1.02-.22,1.67-.02,3.33,0,5,0,.18-.1,.37-.2,.53-.28,.25,.11,.44,.2,.7,.31,.16-.08,.35-.18,.56-.28,.44,.25,.97,.08,1.47,.21,.47,.13,.99,.05,1.49,.04,.61-.01,1.22-.04,1.76,.31,.56-.19,1.12-.39,1.75-.6,.15,.07,.34,.17,.56,.28,.69,.06,1.4,.09,2.1-.27,.17,.09,.37,.18,.61,.3,1.04-.15,2.16,.3,3.23-.21,.12,.05,.26,.18,.41,.18,.67,.03,1.33,.03,2,.02,.21,0,.43-.06,.64-.12,.92-.23,.94-.25,1.75-.02,.82,.23,1.62,.3,2.45-.07,1.49,.53,3.13-.06,4.76,.42,1.9-.63,1.97-.64,3.19-.25,.14-.07,.28-.14,.43-.21,.43,.46,.98-.04,1.51,.18,.47,.2,1.09,.05,1.65,.05,.55,0,1.11,0,1.71,0,.16-.08,.36-.18,.59-.3,.8,.06,1.63,.68,2.5,.07,.49,.3,1.04,.26,1.59,.26,2,0,3.99-.03,5.99-.03,4.27,0,8.54,.02,12.82,.02,3.16,0,6.33-.04,9.49,0,.4,0,.79-.5,1.2-.03,.44,0,.89,0,1.33,0,.44,0,.89,.05,1.33,.05,.44,0,.89-.04,1.33-.04,1.78,0,3.55,0,5.33,.01,2.22,0,4.44,0,6.66,.02,.32,0,.64,.12,1,.19,.84-.27,1.74-.38,2.65,.06,.12-.07,.27-.15,.45-.26h11.14c.17,.1,.35,.2,.58,.33,.18-.1,.37-.19,.62-.32h1.99c.2,.09,.44,.2,.71,.32,.19-.1,.38-.21,.63-.35,2.08,.15,4.24-.28,6.52,.27,.05-.03,.24-.12,.45-.23,1.26,0,2.53,0,3.81,.01,.15,0,.29,.14,.35,.18,.32-.08,.58-.2,.84-.21,3.12-.11,3.62-.08,4.56,.22,.32-.15,.62-.29,.95-.44,0,0,.06-.03,.09-.01,1.07,.48,2.18,.09,3.2,.21,.21-.12,.35-.2,.54-.3,.78,.47,1.67,.38,2.55,.31,.81-.07,1.66,.18,2.44-.29,1.09,.52,2.27,.26,3.41,.27,1.14,.01,2.32,.29,3.37-.3q.76,.36,1.63,.02c.16,.08,.34,.19,.58,.32,2.03-.17,4.14,.32,6.2-.28,.15,.09,.29,.17,.45,.27h10.08c.19-.11,.33-.19,.48-.27,.14,.09,.28,.17,.43,.27h2.78c.53-.44,1.03-.39,1.54-.04,.32-.09,.63-.26,.94-.24,.92,.06,1.89-.25,2.77,.25h2.16c.15-.09,.29-.17,.45-.27,.46,.08,.89,.36,1.4,.32,.49-.04,.99,0,1.42,0,.2-.13,.34-.22,.52-.34,.22,.09,.47,.2,.72,.3q.87-.31,1.74,.03c.16-.08,.35-.18,.55-.28,.3,.1,.61,.28,.92,.28,1.55,.02,3.11,0,4.66-.02,.21,0,.41-.12,.61-.19,.49-.17,.96-.14,1.39,.12,.16-.08,.31-.14,.48-.22,.19,.09,.38,.19,.63,.31,.16-.08,.35-.17,.56-.27,.08,.05,.17,.11,.27,.16,.25-.08,.5-.17,.82-.28,.21,.12,.44,.26,.75,.44,.25-.09,.55-.19,.85-.3,.32,.38,.59-.11,.89-.05,.31,.07,.62,.16,.98,.26,.11-.05,.25-.12,.44-.2,.11,.05,.25,.12,.47,.24,.18-.08,.43-.19,.67-.29,.29-.05,.58,.43,.88,.03,.92,.03,1.85-.2,2.77,.2,.41,.18,1,.22,1.31-.28,.31,.14,.5,.23,.79,.36,.46-.04,1.01-.06,1.55-.15,.49-.08,.92,.24,1.39,.14v2.33Z" style="fill: #030303;"/>
</svg>