<?xml version="1.0" encoding="UTF-8"?>
<svg id="Ebene_1" data-name="Ebene 1" xmlns="http://www.w3.org/2000/svg" width="35.28mm" height="52.92mm" viewBox="0 0 100 150">
  <path d="M55.69,63.37c.24,.13,.39,.21,.57,.3h2.7c.53,.47,1.35,.19,1.95,.64h1.9c.6,.24,1.1,.5,1.75,.33,.17-.27,.39-.58,.57-.92,.23-.43,.41-.88,.56-1.36,.14-.45,.54-.82,.73-1.26,.26-.59,.43-1.22,.69-1.98,.18-.21,.47-.55,.73-.85,.05-.15,.09-.25,.12-.35,.36-1.02,.73-2.05,1.09-3.07,.85-1.03,1.27-2.27,1.77-3.47,.21-.49,.58-.92,.79-1.41,.22-.49,.29-1.05,.5-1.54,.19-.45,.48-.85,.83-1.46,.01-.11,.05-.44,.09-.76,.21-.38,.65-.62,.62-1.14,0-.14,.11-.31,.22-.43,.46-.51,.72-1.08,.78-1.77,.02-.26,.18-.51,.3-.75,.31-.63,.69-1.21,.95-1.87,.24-.6,.66-1.13,1-1.69,.56-.28,1.09-.54,1.68-.83,1.57-.32,2.95,.36,4.27,1.08,.86,.63,1.37,1.47,1.79,2.79,.08,.66-.41,1.54-.83,2.41-.24,.49-.72,.9-.8,1.4-.09,.56-.52,.83-.7,1.28-.22,.54-.65,.95-.81,1.56-.15,.56-.55,1.06-.88,1.56-.4,.6-.5,1.32-.83,1.95-.32,.62-.84,1.17-.83,1.94-.56,.74-.59,1.73-1.22,2.47-.33,.39-.39,1-.62,1.49-.44,.94-.94,1.85-1.38,2.79-.14,.3-.32,.56-.49,.84-.42,.69-.98,1.34-.93,2.23,0,.1-.03,.23-.08,.32-.62,1.09-1.02,2.31-1.87,3.35,.57,.29,1.14,.58,1.92,.99,.2,.23,.57,.64,.99,1.1,.14,.34,.06,.78,.23,1.22,.16,.42,.1,.98-.02,1.44-.28,1.17-.65,2.31-.51,3.5-.11,.18-.2,.32-.35,.55,0,.52,.01,1.13,0,1.73-.01,.49,.07,.98-.22,1.45-.13,.21-.07,.54-.11,.81-.07,.54,.03,1.07-.26,1.61-.25,.46-.04,1.05-.28,1.6-.27,.63-.05,1.4-.34,2.07-.01,.03,.06,.09,.08,.14,.24,.56-.3,1-.19,1.58,.09,.47,.03,.96-.19,1.45-.22,.48-.26,1.04-.48,1.55v2.1c-.12,.21-.2,.35-.31,.55,.07,.16,.14,.36,.27,.69-.11,.4-.35,.89-.32,1.45,.03,.55-.36,1.02-.34,1.59,.02,.48,.05,.96-.16,1.46-.2,.48-.13,1.08-.18,1.67-.07,.1-.16,.24-.28,.45v1.7c-.13,.26-.23,.46-.33,.66,0,.21,0,.43,0,.65-.01,.82,0,1.62-.3,2.43-.25,.7,.13,1.55-.36,2.24,.1,.78-.34,1.49-.33,2.26,.01,.72,0,1.44,0,2.07-.24,.49-.44,.88-.67,1.34,.13,1.21-.29,2.41-.69,3.61,0,.61,.01,1.22,0,1.83-.01,.49-.04,.96-.23,1.45-.19,.49-.1,1.09-.14,1.64-.08,.14-.17,.28-.24,.39-.14,.62,.07,1.24-.24,1.83-.31,.58-.12,1.27-.41,1.91-.23,.52-.2,1.16-.34,1.75-.14,.58-.38,1.14-.46,1.84-.61,.61-1.26,1.29-1.94,1.95-.77,.74-1.78,1.05-2.72,1.5-.34,.16-.74,.22-1.07,.4-.58,.32-1.14,.65-1.84,.66-.25,0-.5,.21-.75,.31-.25,.1-.5,.26-.76,.28-.56,.03-1.07,.19-1.6,.34-.52,.15-1.07,.16-1.6,.29-.74,.18-1.54,.07-2.32,.09-.38,.01-.75,0-1.13,.17-.32,.14-.77,.13-1.1,.01-.32-.12-.63-.18-.96-.18-.11,0-.22,0-.33,0-1.2-.08-2.41,.14-3.6-.3-.55-.2-1.18-.02-1.77-.31-.52-.25-1.16-.13-1.76-.35-.49-.18-1.1-.04-1.56-.04-.64-.39-1.29-.44-1.85-.85-.54-.39-1.34-.44-1.93-.84-.54-.36-1.12-.64-1.72-.89-.6-.25-1.12-.67-1.74-1.06-.79-1.13-.95-2.48-.92-3.82-.2-.26-.37-.48-.54-.7-.03-.11-.07-.22-.07-.32-.03-.88,.12-1.77-.33-2.59v-2.2c-.16-.32-.25-.52-.4-.83,0-.61,.04-1.34-.01-2.06-.03-.42-.22-.84-.29-1.26-.07-.48,.06-.98-.24-1.44-.24-.37,0-.87-.27-1.28-.13-.2-.1-.53-.12-.8-.03-.44-.09-.84-.23-1.28-.2-.61-.13-1.31-.17-1.98-.08-.13-.16-.27-.23-.38-.03-.65-.06-1.26-.09-1.86-.49-.52-.11-1.33-.62-1.87,0-.49,.01-.99,0-1.49-.02-.6,.08-1.21-.28-1.78-.1-.16-.06-.43-.07-.65-.03-.71,.06-1.43-.28-2.11-.11-.22,0-.55-.02-.82-.09-.98,.16-1.99-.33-2.92,0-1.11,0-2.22,0-3.33,0-.33,0-.67-.06-.99-.03-.21-.17-.4-.28-.66,.07-.16,.16-.35,.27-.59v-1.47q-.33-.88-.33-5.95c-.09-.2-.19-.39-.32-.67v-3.61c-.09-.23-.26-.48-.26-.74,0-.31,.13-.63,.24-1.06-.04-.08-.13-.28-.3-.62,0-.57,.01-1.29,0-2.01-.01-.49,.1-1-.25-1.44,0-.77,0-1.54-.01-2.31,.45-.59,.13-1.3,.32-1.91,.38-.33,.74-.66,1.12-.96,.43-.35,.92-.56,1.47-.68,.47-.1,.9-.37,1.45-.61h.83c.16-.06,.27-.08,.36-.13,.48-.27,.98-.43,1.52-.56,.7-.17,1.38-.33,2.1-.35,.2,0,.4-.2,.61-.21,.56-.03,1-.46,1.57-.43,.5,.03,.89-.48,1.42-.32,.61-.3,1.25-.38,1.92-.35,.51-.45,1.16-.24,1.74-.39,.16-.04,.29-.15,.48-.26h1.74c.24-.13,.44-.23,.6-.32h10.75Zm-13.7,19.32c-.09,.04-.19,.08-.32,.14v5.52c-.16,.31-.29,.54-.38,.71,.16,.27,.27,.46,.37,.62-.13,.24-.24,.43-.35,.62v1.22c.14,.17,.32,.38,.42,.5h1.66c.15,.1,.28,.19,.49,.32h1.14c.27,.16,.46,.27,.62,.37h2.46c.19,.12,.33,.21,.47,.3h1.83c.13-.09,.27-.18,.41-.27,.36-.04,.72-.08,1.06-.12,.2-.99,.69-1.76,1.11-2.6v-1.11c.11-.16,.2-.29,.31-.45v-.8c.49-.52,.23-1.27,.59-1.85,.13-.2,.06-.54,.06-.81,0-.21-.06-.41-.09-.65h-1.82c-.27-.13-.46-.23-.7-.35h-1.4c-.19-.11-.33-.19-.5-.28-.36-.02-.75,0-1.13-.06-.37-.05-.73-.17-1.09-.26-.15,.07-.29,.14-.3,.14-.56-.1-1.03-.07-1.39-.27-.53-.29-1.07-.26-1.61-.26-.56,0-1-.48-1.58-.35-.11,.02-.22,.02-.33,.03Zm-7.02,43.98c-.51,.15-.22,.69-.46,.98-.06,.07-.05,.18-.04,.13,.1,.61,.19,1.08,.27,1.56,.96,.61,1.93,1.1,2.89,1.61,.94,.5,2.04,.69,3.24,1.06,.47,.05,1.16-.13,1.74,.32,.5,0,.95,.2,1.42,.32,.68,.17,1.39,.08,2.09,.3,.66,.21,1.42,.07,2.14,.08,.17,0,.33,.02,.48,.02,.16,.09,.3,.18,.51,.3,.21-.09,.45-.2,.75-.34,.89,0,1.83-.05,2.76,.01,.95,.06,1.83-.22,2.75-.35,.86-.13,1.67-.42,2.51-.63,.9-.22,1.72-.64,2.6-.87,.9-.24,1.71-.66,2.51-1.13,.27-.54,.54-1.06,.82-1.63-.44-.39-.84-.75-1.17-1.04h-.46c-.01-.05,0-.14-.03-.16-.75-.4-1.5-.8-2.27-1.21h-1.13c-.16-.11-.29-.21-.43-.3-.58-.11-1.23,.15-1.72-.35-.59-.03-1.22,.1-1.73-.35h-4.46c-.27-.23-.52-.44-.63-.53-.53-.17-.88-.29-1.41-.46-.37,0-.92,0-1.47,0-.54,0-1.09-.05-1.55,.03-.65,.57-.66,1.33-.99,1.93-.33,.61-.8,1.14-1.13,1.6-.04,.3-.06,.46-.08,.62-.27,.29-.53,.58-.74,.81h-2.56c-.91-.49-2.08-.51-2.63-1.58,.02-.36-.17-.69-.33-1.03-.15-.32,.2-.78-.36-1.08-.54,.42-1.37,.52-1.66,1.35Zm24.68-38.31c.65-1.19,1.01-2.53,1.81-3.64,.06-.09,.16-.19,.16-.29,0-.59,.3-1.07,.63-1.48,.39-.5,.41-1.13,.74-1.63,.09-.14,.17-.28,.29-.39,.37-.36,.6-.86,.65-1.3,.07-.71,.88-1.03,.79-1.77-.01-.08,.11-.19,.18-.27,.6-.6,.75-1.39,.98-2.15-.4-.28-.59,.22-.88,.21-1,.05-2-.1-2.9,.11-.67,.57-.75,1.28-.8,2.01-.21,.25-.42,.51-.55,.67-.3,1.19-.82,2.14-1.43,3.05-.12,.18-.29,.37-.31,.56-.07,.77-.58,1.28-1.01,1.83-.02,.91-.57,1.64-.73,2.51-.06,.34-.4,.63-.62,.95-.11,.1-.32,.22-.31,.3,.08,.58-.5,.98-.41,1.55-.34,.67-.62,1.39-1.03,2.01-.42,.65-.57,1.39-.88,2.07-.17,.38-.58,.57-.65,.93-.22,1.14-.92,2.06-1.37,3.08-.06,.14,0,.33,0,.49-.23,.27-.44,.52-.66,.77,0,.17,.03,.35-.03,.49-.21,.49-.38,1.03-.71,1.44-.38,.48-.18,1.22-.8,1.57-.08,.04-.14,.19-.14,.28,0,.58-.49,.98-.58,1.49-.11,.58-.39,.99-.74,1.41-.16,.2-.32,.48-.34,.72-.04,.83-.61,1.37-1.02,2.01v.5c-.21,.25-.43,.5-.64,.75-.02,.22-.05,.44-.06,.63-.2,.23-.39,.44-.57,.65-.07,.86-.52,1.52-1.11,2.12,.23,.61-.27,1.05-.28,1.59,0,.32-.23,.47-.38,.7-.24,.36-.42,.75-.63,1.12-.29,.52-.59,1.03-.98,1.71,0,.12-.03,.45-.04,.65-.29,.59-.51,1.08-.76,1.56-.28,.52-.49,1.11-.89,1.53-.41,.44-.24,1.05-.63,1.48-.28,.3-.34,.81-.62,1.12-.47,.51-.47,1.19-.73,1.76-.05,.11,.06,.3,.1,.46,.25,.03,.46,.05,.7,.07,.35,.32,.71,.66,1.05,.97h.6c.25-.24,.53-.51,.78-.75,.09-.74,.61-1.33,.41-2.01,.27-.32,.48-.57,.68-.82-.04-.3,.12-.55,.16-.8,.1-.63,.79-.86,.87-1.54,.08-.61,.46-1.2,.8-1.74,.43-.68,.41-1.59,1.08-2.14,.04-.03,.06-.1,.06-.14-.02-.58,.47-.99,.56-1.49,.11-.64,.56-1.03,.78-1.57,.12-.29,.35-.52,.37-.89,.04-.46,.21-.95,.44-1.36,.29-.52,.7-.96,1.05-1.45,.06-.08,.09-.19,.16-.35v-.65c.35-.55,.71-.98,.92-1.47,.23-.53,.32-1.12,.48-1.71,.29-.31,.59-.63,.91-.96-.07-1.07,.71-1.66,1.32-2.33,.02-.36,.03-.68,.05-.97,.22-.25,.4-.46,.58-.66,0-.91,.81-1.53,.8-2.39,.21-.24,.39-.45,.51-.58,.17-.97,.68-1.68,1.07-2.44,.41-.8,.45-1.79,1.18-2.44,.28-.81,.5-1.66,1.17-2.2v-.92c.65-.6,.91-1.45,1.34-2.2Zm5.29,24.3c-.1,.11-.28,.22-.28,.33-.01,1.02,0,2.04,.02,3.06,0,.31,0,.62,0,.94,0,.57,0,1.14-.01,1.72-.07,1.08,.15,2.19-.21,3.22,.07,.17,.12,.32,.2,.51-.42,.59-.85,1.13-1.57,1.39-.24,.09-.46,.31-.42,.64,.68,.64,1.49,1.04,2.29,1.11,.02-.38,.04-.76,.07-1.14,.02-.22,0-.47,.09-.64,.24-.41,.21-.85,.22-1.29,0-.33-.08-.75,.08-.97,.43-.6,.03-1.31,.39-1.92,.35-.59,.16-1.3,.15-1.95-.02-1,.12-1.96,.49-2.89,.11-.26,.19-.51,.17-.79-.11-1.22,.46-2.37,.38-3.58,.47-.87,.28-1.83,.34-2.75,.1-.19,.2-.38,.32-.6v-1.73c.21-.42,.38-.76,.57-1.12-.26-.42-.38-.92-.14-1.38,.26-.48,.26-.96,.22-1.45-.04-.52,.43-.9,.33-1.43-.05-.26-.02-.56,.04-.83,.07-.31,.21-.6,.29-.82-.13-.28-.22-.48-.29-.63,.23-.5,.44-.95,.66-1.43,0-.31,.05-.65-.01-.97-.12-.59,.34-1.03,.32-1.59-.02-.55,.02-1.11,.04-1.66,.51-.75,.17-1.62,.32-2.29,.25-.68,.45-1.24,.66-1.83,0-.58-.01-1.19,0-1.8,.01-.44,.02-.88,.09-1.31,.09-.48,.26-.94,.38-1.41,.07-.26,.15-.53,.14-.8-.02-.56,.14-1.06,.28-1.6,.15-.58,.06-1.21,.1-1.82,0-.15,.11-.3,.15-.46,.07-.26,.16-.53,.17-.79,0-.39,.03-.76,.23-1.1-.38-.33,.09-.58,.08-.89-.02-.39,0-.78,.04-1.16,.03-.21,.2-.4,.23-.61,.05-.36,.21-.75-.08-1.1-.47,.47-1.17,.18-1.7,.57-.52,.37-1.17,.58-1.71,.83-.11,.33-.16,.6-.28,.84-.12,.24-.41,.44-.45,.68-.11,.79-.6,1.4-.93,2.08-.38,.79-.75,1.58-1.16,2.35-.43,.82-.79,1.68-1.3,2.46-.47,.73-.62,1.63-1.08,2.36-.23,.36-.18,.74-.29,1.1-.78,.4-.82,1.21-1.05,1.91-.18,.21-.36,.42-.54,.61-.03,.24-.05,.45-.08,.65-.22,.27-.43,.52-.63,.76v.53c-.22,.25-.43,.51-.69,.8v1.42c-.42,.33-.9,.71-1.15,.9-.26,.86-.42,1.42-.59,1.99-.18,.2-.36,.41-.54,.62-.02,.33-.04,.66-.06,.99-.16,.17-.37,.3-.45,.49-.38,.88-.99,1.66-1.21,2.62-.09,.4-.32,.81-.58,1.13-.26,.32-.44,.62-.4,1.03-.44,.33-.33,.9-.54,1.34-.21,.45-.64,.74-.77,1.13-.02,.25-.04,.41-.05,.57-.11,.13-.23,.25-.33,.38-.09,.11-.15,.23-.29,.44,.75,.02,1.4,.15,2-.32h3.73c.24-.14,.42-.25,.54-.31h2.11c.18,.1,.37,.21,.55,.32,.32,.04,.66-.07,1.04,.15,.2,.22,.46,.5,.69,.74v.86c.13,.22,.25,.41,.33,.54,0,1.18,0,2.29,.01,3.4,0,.11,.19,.22,.29,.34,.02,.1,.02,.2,0,.3Zm-24.99-28.35c.02-.33-.07-.73,.08-.98,.4-.67,.19-1.4,.34-2.07,.45-1.36,1.38-2.36,2.53-3.24,1.33,0,2.71,0,4.09,0,.21,0,.45,.03,.62,.14,.31,.2,.64,.14,.96,.16,1.2,.06,2.41-.13,3.57,.32,.72-.08,1.39,.28,2.08,.32,.73,.04,1.36,.35,2.08,.48,.21,.29,.56,.5,.63,.97-.16,.3-.35,.63-.5,.98-.08,.19-.08,.42-.11,.63q-.35,.23-.08,.66c.02-.29,.04-.49,.06-.69,.1-.03,.23-.03,.29-.1,.48-.6,.86-1.27,1.06-2.01,.13-.49,.27-.99,.61-1.31,.37-.35,.3-.81,.54-1.17,.24-.36,.47-.74,.71-1.1,.15-.22,.12-.4-.1-.59-.68,.04-1.38-.08-2.08,.25-.45,.21-.96-.06-1.51-.3-2.52,0-5.13,0-7.73,0-.61,0-1.22,0-1.83,0-.59-.43-1.33-.1-1.92-.35-.92-.38-1.84-.24-2.77-.29-.44-.02-.89,0-1.33,0-.58-.59-1.42-.11-2.05-.54-.16-.11-.42-.1-.64-.09-.89,.02-1.7-.37-2.55-.52-.48-.08-.93-.28-1.41-.38-.48-.1-.97-.15-1.47-.22-1.33-.59-2.67-1.19-4.04-1.8-.19,.18-.04,.49-.13,.73-.27,.74-.36,1.43,0,2.21,.19,.42,.05,.98,.07,1.48,.01,.33-.06,.71,.08,.98,.35,.69,.21,1.41,.24,2.12,.04,.94,.01,1.89,.02,2.83,0,.22-.06,.49,.04,.65,.39,.62,.22,1.29,.25,1.94,.04,.72,.03,1.44,.05,2.16,0,.22-.03,.48,.08,.64,.28,.41,.2,.85,.2,1.29,0,.89,0,1.77,0,2.51,.16,.29,.24,.43,.37,.67,0,1.24,0,2.57,0,3.91,0,.28-.09,.61,.04,.82,.4,.68,.24,1.4,.28,2.1,.02,.33-.07,.73,.09,.98,.32,.53,.19,1.08,.24,1.62,.03,.33-.08,.72,.06,.99,.39,.74,.24,1.51,.31,2.27,.02,.27-.07,.62,.07,.81,.45,.63-.01,1.46,.51,2.05,.03,.72,.06,1.44,.1,2.16,0,.16-.02,.36,.06,.48,.4,.56,.23,1.26,.5,1.87,.27,.62-.02,1.42,.39,2.07-.18,.69,.32,1.26,.35,1.92,.02,.65,0,1.29,.26,1.94,.2,.48,.02,1.1,.08,1.65,.06,.54,.33,1.06,.32,1.59-.05,1.33,.37,2.6,.39,3.92,0,.05,.06,.09,.09,.14,.5-.43,.99-.87,1.49-1.3,.45,0,.58-.48,.57-.47,.63-.19,.9-.24,1.14-.34,.3-.13,.56-.33,.86-.45,.24-.1,.56,.05,.73-.22,.63-.89,.79-1.99,1.3-2.95,.52-.99,.85-2.07,1.3-3.22,.11-.12,.29-.33,.52-.59-.31-.43,.15-.68,.28-1.02,.13-.35,.35-.67,.48-1.02,.15-.4,.46-.72,.53-1.18,.05-.35,.21-.68,.37-1.16-.32,.15-.49,.23-.69,.33h-1.79c-.15,.11-.29,.2-.49,.34h-1.17c-.21,.14-.35,.23-.49,.32-1.11,0-2.21,.01-3.23,0-.45-.43-.81-.77-1.22-1.15,.22-.65-.44-1.08-.39-1.71,0-.04-.17-.09-.27-.13-.11-.25-.31-.5-.31-.74,0-.7-.29-1.28-.63-1.84,.03-1.49-.82-2.83-.73-4.21-.14-.25-.22-.39-.29-.5v-2.69c.09-.06,.24-.11,.25-.18,.04-.38,.05-.77,.08-1.15,0-.1,.08-.2,.15-.37,.32-.19,.69-.4,1.15-.67h1.13c.23-.14,.37-.22,.51-.31h2.14c.16-.11,.3-.2,.5-.34h3.51c.21-.13,.35-.22,.49-.32,.55,0,1.11,0,1.66,0,.55,0,1.1-.03,1.62,.02,.42,.44,.79,.84,1.13,1.2v1.88c.11,.16,.21,.3,.32,.46v2.46c.11,.2,.22,.39,.35,.62,0,.46,0,.96,0,1.45,0,.04,.07,.08,.14,.17,.17-.32,.41-.61,.49-.93,.19-.87,.56-1.64,1.14-2.28,.27-.3,.13-.63,.27-.92,.21-.25,.42-.5,.61-.74v-.75c.29-.59,.52-1.08,.75-1.56,.28-.57,.38-1.23,.87-1.7,.03-.03-.05-.19-.11-.38-1.18-.03-2.39-.01-3.6-.03-.19-.11-.37-.22-.57-.34h-1.44c-.24-.14-.42-.25-.54-.32h-1.75c-.2-.11-.39-.22-.59-.33h-.75c-.62-.34-1.25-.59-1.59-1.22-.03-.19,.02-.48-.1-.61-.48-.54-.2-1.01,.12-1.58-.31-.23-.42-.58-.37-.98,.11-.19,.22-.37,.33-.57v-2.11c.14-.23,.25-.41,.29-.5v-1.79Zm23.74-17.94c-.6,0-.98,.03-1.36,0-.76-.06-1.56,.16-2.26-.32-.9,.13-1.72-.34-2.59-.35-3.16-.03-6.33-.03-9.49-.02-.42,0-.84,.13-1.28,.2-.52-.44-1.01-.02-1.62,.15h-2.05c-.81,.46-1.71,.29-2.44,.36-.52,.24-.92,.43-1.33,.62h-1.56c-.85,.34-1.61,.64-2.44,.98-.41,.02-.91,.04-1.37,.07-.42,.21-.82,.4-1.22,.6-.37,.02-.76,.05-.99,.07-.74,.31-1.34,.56-1.96,.81,0,.07-.02,.18-.04,.32,.29,.1,.67,.13,.88,.33,.82,.74,1.94,.66,2.84,1.15,.8-.09,1.48,.31,2.21,.51,.16,.04,.32,.17,.46,.15,.9-.13,1.68,.51,2.59,.41,.23-.03,.49,.18,.72,.28,.56-.45,1.06-.34,1.59,0,.2,0,.43,.02,.65,0,1.17-.1,2.26,.49,3.43,.37,.65,.46,1.39,.27,2.09,.28,2.55,.03,5.1,.02,7.66,.04,.47,0,.95,.11,1.46,.17,.58-.36,1.24-.19,1.89-.11,.15,.02,.33,.16,.42,.11,.62-.36,1.32-.03,2.05-.28,.38-.62,.81-1.3,1.22-2.01,.25-.42,.52-.85,.68-1.31,.4-1.12,.74-2.26,1.16-3.56Zm-13.03,53.25v2.49c.28,.44,.54,.85,.84,1.32,.3-.16,.53-.28,.78-.42h2.47c.15-.1,.29-.2,.49-.34h1.17c.21-.14,.35-.23,.5-.33h2.8c.21-.12,.39-.23,.59-.35h1.89c.08-.31,.08-.68,.27-.9,.42-.49,.04-.9-.03-1.3,.09-.17,.17-.32,.25-.48v-5.09c.13-.19,.22-.33,.29-.45,0-.64,0-1.25,0-1.86,0-.04-.06-.09-.09-.13-.47-.33-.81,.06-1.24,.22h-2.07c-.23,.14-.41,.25-.59,.35h-1.78c-.21,.13-.35,.22-.49,.3h-2.16c-.15,.1-.29,.2-.49,.34h-1.51c-.21,.14-.35,.23-.49,.32h-.82c-.24-.13-.48-.25-.74-.38-.2,.21-.35,.37-.5,.52,.11,.17,.2,.31,.3,.45v5.15c.09,.15,.18,.29,.34,.54Zm12.58-46.61h2.57s0-.08-.01-.12c.52-.12,1.03-.24,1.57-.36,.22-.41,.41-.81,.63-1.18,.78-1.32,1.26-2.79,1.94-4.15,.41-.82,1.08-1.52,1.21-2.48,0-.05,.06-.1,.1-.13,.51-.34,.28-1.07,.74-1.44,.47-.38,.36-1.01,.61-1.5,.24-.48,.36-1.03,.7-1.46,.45-.56,.79-1.2,1.01-1.87,.35-1.05,.8-2.02,1.45-2.91,.22-.31,.46-.66,.51-1.02,.08-.51,.33-.93,.55-1.37,.6-1.23,1.26-2.43,1.79-3.69,.23-.56,.44-1.1,.78-1.61,.33-.49,.47-1.09,.74-1.62,.12-.24,.36-.42,.49-.56,.09-.43,.16-.78,.24-1.14-.62-.24-1.23-.49-1.83-.71-.66-.25-1.06-.96-1.89-.99-.49,1.13-.98,2.27-1.48,3.42-.13,.3-.26,.6-.39,.89-.47,.99-.78,2.03-1.26,3.01-.48,.97-.81,2.02-1.35,2.97-.21,.37-.53,.72-.62,1.12-.15,.66-.54,1.2-.82,1.78-.29,.59-.4,1.23-.71,1.82-.64,1.2-1.29,2.4-1.72,3.71-.15,.46-.19,.98-.63,1.31-.14,.9-.71,1.57-1.17,2.31-.11,.19-.28,.38-.29,.58-.04,.75-.54,1.31-.8,1.97-.14,.36-.47,.67-.52,1.02-.11,.81-.64,1.38-1.02,2.01,.01,.91-.41,1.61-1.11,2.4Zm-18.6,35.09c0-2.39,0-4.72,0-7.06,0-.05,0-.12-.02-.16-.02-.05-.08-.08-.17-.16h-1.61c-.11,.07-.24,.17-.45,.31h-3.17c-.21,.14-.35,.23-.5,.32h-3.48c-.15,.1-.29,.19-.44,.29-.46,.03-.95,.06-1.43,.1,.21,.58,.39,1.08,.62,1.71v1.35c.22,.26,.44,.52,.66,.78v1.87c.3,.48,.62,.98,.99,1.56,0,.22,.02,.54,.04,.87,.18,.17,.34,.32,.55,.52,.34-.1,.69-.2,1.31-.38h2.87c.15-.11,.29-.2,.49-.34h1.51c.21-.14,.35-.23,.55-.36h.94c.26-.43,.51-.84,.73-1.21Zm13.61,2.24c1.5,0,2.93,0,4.37,0,.05,0,.11,0,.16-.02,.05-.02,.08-.07,.12-.11,.3-.8-.24-1.43-.39-2.16h-3.32c-.15,.1-.29,.2-.44,.3h-4.13c-.18,.11-.37,.22-.64,.38h-1.2c-.17,.2-.32,.36-.43,.49-.03,.27-.05,.48-.06,.64-.26,.31-.47,.55-.67,.79,.05,.26,.1,.46,.13,.62,.76,.29,1.27-.5,1.96-.28,.14,.04,.37-.19,.58-.3h3.45c.15-.1,.29-.19,.52-.34Zm-15.98-29.49c.43,.19,.75,.4,1.11,.47,1.07,.21,2.14,.49,3.25,.4,.27-.02,.63-.09,.81,.05,.63,.47,1.46,0,2.05,.51,.72,.03,1.44,.06,2.15,.1,.21,.01,.43,.07,.63,.13q.78,.25,1.99,.03c.22-.63,.46-1.29,.69-1.95,.01-.03-.04-.09-.08-.15-.74-.24-1.52-.04-2.29-.11-.19-.09-.39-.18-.75-.35-1.67,0-3.5,0-5.34,0-.22,0-.48,.06-.65-.04-.79-.46-1.6-.26-2.35-.22-.44,.4-.8,.74-1.23,1.13Zm-.21,18.5c.15-.1,.29-.19,.43-.29,.37-.04,.75-.07,1.05-.1,.18-.19,.29-.31,.39-.43,.05-.39,.16-.77-.13-1.15h-3.3c-.11,.07-.24,.17-.44,.3h-3.18c-.2,.13-.34,.23-.54,.36h-2.49c-.37,.3-.67,.55-.87,.72,0,.43-.08,.72,.24,.91h2.81c.19-.11,.38-.21,.58-.33h5.45Zm40.58-58.08c-.76-1.06-1.77-1.5-2.79-1.93-.53,.17-1.03,.34-1.52,.5v.53c.46,1,1.46,1.34,2.21,1.95h1.64c.18-.19,.33-.35,.46-.49v-.56Zm-12.03,30.21c.13,.08,.21,.14,.35,.22,.81-.39,1.59-.88,2.27-1.52,.06-.05,.02-.21,.02-.33-.5-.27-.98-.61-1.55-.75-.13,.16-.28,.27-.34,.41-.26,.65-.5,1.31-.75,1.96Z" style="fill: #030303;"/>
  <path d="M31.33,99.03v2.69c.07,.12,.15,.26,.29,.5-.09,1.39,.75,2.72,.72,4.21,.34,.57,.64,1.14,.63,1.84,0,.25,.2,.5,.31,.74v2.38c.15,.23,.24,.37,.36,.54,0,.24,0,.52,0,.79,0,.28-.02,.56,.02,.83,.04,.24,.14,.47,.21,.67-.09,.14-.15,.23-.21,.34,.1,.29,.23,.59,.29,.9,.07,.37-.06,.77,.32,1.45-.09-.19-.02-.04,.06,.12v3.07c.12,.19,.21,.33,.31,.49v1.45c.12,.21,.23,.4,.3,.53v1.06c-.49,.43-.99,.87-1.49,1.3-.04-.05-.09-.1-.09-.14-.02-1.32-.44-2.59-.39-3.92,.02-.52-.25-1.05-.32-1.59-.06-.55,.11-1.17-.08-1.65-.27-.65-.24-1.29-.26-1.94-.02-.66-.53-1.23-.35-1.92-.41-.65-.12-1.45-.39-2.07-.27-.62-.1-1.31-.5-1.87-.08-.12-.05-.32-.06-.48-.03-.72-.06-1.44-.1-2.16-.52-.59-.07-1.42-.51-2.05-.13-.19-.04-.54-.07-.81-.07-.76,.08-1.54-.31-2.27-.14-.26-.02-.66-.06-.99-.06-.54,.07-1.09-.24-1.62-.15-.25-.07-.65-.09-.98-.04-.71,.12-1.42-.28-2.1-.12-.21-.04-.54-.04-.82,0-1.33,0-2.66,0-3.91-.13-.24-.21-.38-.37-.67,0-.74,0-1.63,0-2.51,0-.43,.07-.87-.2-1.29-.11-.16-.08-.42-.08-.64-.02-.72,0-1.44-.05-2.16-.03-.65,.14-1.32-.25-1.94-.1-.16-.04-.43-.04-.65,0-.94,.02-1.89-.02-2.83-.03-.71,.12-1.43-.24-2.12-.14-.27-.07-.65-.08-.98-.02-.5,.12-1.06-.07-1.48-.35-.78-.26-1.46,0-2.21,.09-.24-.06-.55,.13-.73,1.37,.61,2.71,1.21,4.04,1.8,.5,.07,.99,.12,1.47,.22,.48,.1,.93,.29,1.41,.38,.86,.15,1.66,.55,2.55,.52,.22,0,.48-.02,.64,.09,.63,.42,1.47-.06,2.05,.54,.44,0,.89-.02,1.33,0,.92,.05,1.85-.09,2.77,.29,.58,.24,1.33-.08,1.92,.35,.61,0,1.22,0,1.83,0,2.61,0,5.22,0,7.73,0,.55,.24,1.06,.5,1.51,.3,.7-.33,1.4-.21,2.08-.25,.22,.19,.25,.37,.1,.59-.24,.36-.47,.74-.71,1.1-.24,.36-.17,.83-.54,1.17-.34,.32-.48,.83-.61,1.31-.2,.74-.57,1.41-1.06,2.01-.05,.07-.19,.07-.29,.1,0,0,.02,.02,.02,.02,.03-.21,.03-.44,.11-.63,.15-.35,.34-.68,.5-.98-.07-.47-.42-.68-.63-.97-.72-.13-1.35-.43-2.08-.48-.69-.04-1.35-.4-2.08-.32-1.16-.46-2.38-.26-3.57-.32-.32-.02-.65,.04-.96-.16-.17-.11-.41-.14-.62-.14-1.38-.01-2.76,0-4.09,0-1.15,.88-2.08,1.87-2.53,3.24-.15,.67,.06,1.4-.34,2.07-.15,.25-.06,.65-.08,.98-.61,.01-1.21,.03-1.82,.05-.22,0-.5-.05-.64,.06-.44,.36-.96,.17-1.42,.28-.52,.13-1,.39-1.57,.32-.15-.02-.34,.03-.46,.12-.34,.27-.74,.16-1.11,.21-.33,.18-.67,.34-1,.53-.32,.18-.63,.39-.96,.59v1.54c-.16,.34-.25,.53-.33,.69,.14,.25,.24,.43,.35,.63v4.07c.14,.25,.24,.44,.35,.62v4.99Z" style="fill: #fefefe;"/>
  <path d="M63.68,66.37c-.42,1.31-.76,2.44-1.16,3.56-.16,.46-.43,.88-.68,1.31-.41,.7-.84,1.39-1.22,2.01-.74,.25-1.43-.08-2.05,.28-.09,.05-.28-.09-.42-.11-.65-.08-1.31-.25-1.89,.11-.51-.06-.98-.16-1.46-.17-2.55-.02-5.11-.01-7.66-.04-.7,0-1.45,.17-2.09-.28-1.17,.12-2.26-.47-3.43-.37-.22,.02-.44,0-.65,0-.53-.34-1.04-.44-1.59,0-.23-.09-.49-.3-.72-.28-.91,.1-1.68-.53-2.59-.41-.14,.02-.3-.1-.46-.15-.73-.2-1.41-.61-2.21-.51-.9-.49-2.03-.41-2.84-1.15-.22-.2-.59-.22-.88-.33,.02-.15,.03-.25,.04-.32,.62-.26,1.22-.51,1.96-.81,.23-.02,.62-.04,.99-.07,.4-.2,.8-.39,1.22-.6,.46-.02,.96-.05,1.37-.07,.83-.33,1.59-.63,2.44-.98h1.56c.41-.19,.8-.37,1.33-.62,.72-.08,1.63,.1,2.44-.36h2.05c.62-.17,1.1-.58,1.62-.15,.44-.07,.86-.2,1.28-.2,3.16,0,6.33,0,9.49,.02,.87,0,1.7,.48,2.59,.35,.7,.48,1.5,.26,2.26,.32,.38,.03,.77,0,1.36,0Z" style="fill: #fff;"/>
  <path d="M64.94,112.36c-.1-.11-.29-.22-.29-.34-.02-1.11-.01-2.22-.01-3.4-.08-.13-.19-.32-.33-.54v-.86c-.23-.24-.49-.52-.69-.74-.38-.22-.72-.11-1.04-.15-.19-.11-.38-.21-.55-.32h-2.11c-.11,.07-.3,.18-.54,.31h-3.73c-.6,.47-1.25,.34-2,.32,.14-.21,.21-.33,.29-.44,.1-.13,.22-.25,.33-.38,.01-.16,.03-.32,.05-.57,.13-.39,.56-.68,.77-1.13,.21-.44,.1-1,.54-1.34-.04-.41,.14-.71,.4-1.03,.27-.32,.49-.73,.58-1.13,.22-.97,.83-1.74,1.21-2.62,.08-.19,.29-.33,.45-.49,.02-.33,.04-.66,.06-.99,.18-.21,.36-.42,.54-.62,.17-.57,.34-1.13,.59-1.99,.25-.2,.73-.57,1.15-.9v-1.42c.25-.3,.47-.55,.69-.8v-.53c.2-.24,.41-.5,.63-.76,.02-.2,.05-.41,.08-.65,.17-.19,.35-.4,.54-.61,.23-.71,.27-1.51,1.05-1.91,.14,.4,.41,.58,.83,.69,1.67,.46,1.78,.54,3.41,1.73,.15,.45,.3,.91,.45,1.39-.2,.25-.4,.5-.66,.81v2.83c-.14,.22-.23,.36-.32,.51v1.46c-.12,.21-.23,.39-.34,.59v3.78c-.11,.17-.2,.31-.28,.42-.04,.46,.04,.96-.15,1.32-.22,.43-.22,.84-.24,1.27-.01,.33,0,.66,0,.98-.12,.2-.23,.39-.35,.58v1.41c-.14,.26-.25,.44-.32,.57v1.96c-.24,.65-.44,1.21-.69,1.89v1.86Z" style="fill: #636363;"/>
  <path d="M64.94,112.36v-1.86c.25-.68,.45-1.23,.69-1.89v-1.96c.07-.13,.18-.32,.32-.57v-1.41c.12-.2,.23-.38,.35-.58,0-.32,0-.65,0-.98,.02-.43,.02-.84,.24-1.27,.19-.36,.11-.85,.15-1.32,.07-.11,.16-.25,.28-.42v-3.78c.11-.19,.22-.38,.34-.59v-1.46c.09-.15,.18-.29,.32-.51v-2.83c.25-.31,.46-.57,.66-.81-.16-.48-.3-.93-.45-1.39-1.64-1.18-1.75-1.26-3.41-1.73-.42-.12-.69-.3-.83-.69,.11-.36,.06-.74,.29-1.1,.46-.73,.61-1.63,1.08-2.36,.51-.79,.88-1.64,1.3-2.46,.4-.77,.78-1.56,1.16-2.35,.33-.68,.82-1.28,.93-2.08,.03-.24,.32-.44,.45-.68,.12-.24,.17-.51,.28-.84,.54-.25,1.18-.45,1.71-.83,.53-.38,1.23-.09,1.7-.57,.29,.35,.12,.74,.08,1.1-.03,.21-.2,.4-.23,.61-.05,.38-.06,.78-.04,1.16,.01,.3-.46,.56-.08,.89-.2,.34-.23,.71-.23,1.1,0,.26-.1,.53-.17,.79-.04,.16-.14,.3-.15,.46-.04,.61,.05,1.25-.1,1.82-.14,.53-.3,1.04-.28,1.6,0,.26-.07,.54-.14,.8-.12,.47-.3,.93-.38,1.41-.08,.43-.08,.87-.09,1.31-.01,.61,0,1.22,0,1.8-.21,.59-.42,1.15-.66,1.83-.15,.67,.18,1.54-.32,2.29-.02,.55-.06,1.11-.04,1.66,.02,.56-.44,1.01-.32,1.59,.06,.32,.01,.66,.01,.97-.22,.48-.43,.92-.66,1.43,.07,.15,.16,.35,.29,.63-.08,.22-.22,.52-.29,.82-.06,.27-.09,.56-.04,.83,.11,.54-.36,.91-.33,1.43,.03,.48,.04,.97-.22,1.45-.25,.45-.12,.95,.14,1.38-.18,.36-.36,.71-.57,1.12v1.73c-.11,.22-.22,.41-.32,.6-.06,.92,.13,1.88-.34,2.75,.07,1.22-.49,2.36-.38,3.58,.02,.28-.07,.53-.17,.79-.37,.92-.51,1.88-.49,2.89,.01,.65,.2,1.36-.15,1.95-.36,.61,.04,1.32-.39,1.92-.16,.22-.07,.64-.08,.97-.01,.44,.02,.88-.22,1.29-.1,.17-.07,.42-.09,.64-.03,.38-.05,.76-.07,1.14-.8-.07-1.61-.48-2.29-1.11-.05-.34,.17-.56,.42-.64,.72-.26,1.15-.8,1.57-1.39-.07-.19-.13-.34-.2-.51,.36-1.03,.14-2.14,.21-3.22,.1-.1,.28-.19,.29-.3,.04-.36,.04-.73,0-1.09-.01-.12-.18-.21-.28-.32,0-.31,0-.62,0-.94,.25-.07,.31-.27,.3-.49-.01-.96-.02-1.93-.04-2.89,.02-.1,.02-.2,0-.3Z" style="fill: #fefefe;"/>
  <path d="M31.33,99.03v-4.99c-.1-.19-.21-.37-.35-.62v-4.07c-.11-.2-.21-.38-.35-.63,.07-.16,.17-.35,.33-.69v-1.54c.32-.2,.64-.4,.96-.59,.33-.19,.67-.36,1-.53,.37-.05,.77,.06,1.11-.21,.11-.09,.31-.14,.46-.12,.57,.07,1.05-.19,1.57-.32,.46-.12,.98,.07,1.42-.28,.14-.11,.42-.06,.64-.06,.61-.02,1.21-.03,1.82-.05v1.79c-.05,.08-.16,.27-.29,.5v2.11c-.11,.19-.22,.38-.33,.57-.05,.4,.06,.75,.37,.98-.32,.57-.6,1.04-.12,1.58,.12,.13,.07,.42,.1,.61,.34,.64,.97,.88,1.59,1.22h.75c.21,.12,.4,.22,.59,.33h1.75c.12,.07,.31,.18,.54,.32h1.44c.19,.11,.38,.22,.57,.34,1.21,.02,2.42,0,3.6,.03,.06,.19,.15,.35,.11,.38-.49,.47-.59,1.13-.87,1.7-.24,.49-.47,.97-.75,1.56v.75c-.2,.23-.4,.49-.61,.74-.14,.29,0,.62-.27,.92-.58,.65-.95,1.42-1.14,2.28-.07,.32-.31,.61-.49,.93-.07-.09-.14-.13-.14-.17,0-.5,0-1,0-1.45-.13-.23-.24-.42-.35-.62v-2.46c-.11-.16-.2-.29-.32-.46v-1.88c-.34-.37-.72-.76-1.13-1.2-.52-.06-1.07-.02-1.62-.02-.55,0-1.11,0-1.66,0-.15,.09-.28,.18-.49,.32h-3.51c-.2,.14-.34,.23-.5,.34h-2.14c-.15,.09-.29,.17-.51,.31h-1.13c-.46,.27-.83,.49-1.15,.67-.07,.17-.14,.27-.15,.37-.03,.38-.04,.77-.08,1.15,0,.07-.16,.12-.25,.18Z" style="fill: #636363;"/>
  <path d="M59.64,88.36c-.43,.74-.69,1.6-1.34,2.2v.92c-.68,.54-.9,1.39-1.17,2.2-.73,.65-.77,1.64-1.18,2.44-.39,.76-.9,1.47-1.07,2.44-.11,.13-.29,.34-.51,.58,.01,.86-.81,1.48-.8,2.39-.18,.2-.36,.41-.58,.66-.01,.29-.03,.61-.05,.97-.6,.66-1.39,1.25-1.32,2.33-.31,.33-.62,.65-.91,.96-.16,.59-.25,1.18-.48,1.71-.21,.49-.57,.92-.92,1.47v.65c-.07,.16-.1,.27-.16,.35-.35,.48-.76,.93-1.05,1.45-.23,.41-.4,.89-.44,1.36-.03,.37-.25,.6-.37,.89-.22,.53-.67,.93-.78,1.57-.08,.5-.58,.91-.56,1.49,0,.05-.03,.11-.06,.14-.67,.56-.65,1.46-1.08,2.14-.34,.54-.73,1.13-.8,1.74-.09,.68-.77,.91-.87,1.54-.04,.24-.2,.49-.16,.8-.21,.25-.42,.5-.68,.82,.2,.68-.32,1.27-.41,2.01-.25,.24-.53,.51-.78,.75h-.6c-.34-.31-.7-.65-1.05-.97-.24-.03-.46-.05-.7-.07-.04-.17-.15-.35-.1-.46,.26-.58,.26-1.25,.73-1.76,.28-.3,.34-.81,.62-1.12,.4-.43,.22-1.04,.63-1.48,.39-.42,.61-1.01,.89-1.53,.25-.48,.48-.97,.76-1.56,.01-.21,.03-.53,.04-.65,.39-.68,.69-1.19,.98-1.71,.21-.37,.39-.77,.63-1.12,.15-.22,.37-.38,.38-.7,.01-.54,.52-.98,.28-1.59,.58-.6,1.03-1.26,1.11-2.12,.18-.21,.36-.41,.57-.65,.02-.19,.04-.41,.06-.63,.21-.25,.43-.5,.64-.75v-.5c.41-.64,.98-1.18,1.02-2.01,.01-.25,.17-.52,.34-.72,.34-.43,.63-.83,.74-1.41,.09-.51,.59-.9,.58-1.49,0-.1,.06-.24,.14-.28,.61-.34,.42-1.09,.8-1.57,.33-.41,.5-.95,.71-1.44,.06-.14,.02-.33,.03-.49,.22-.25,.43-.51,.66-.77,0-.16-.05-.35,0-.49,.45-1.03,1.15-1.94,1.37-3.08,.07-.36,.48-.55,.65-.93,.3-.68,.46-1.42,.88-2.07,.41-.63,.69-1.34,1.03-2.01-.09-.57,.5-.97,.41-1.55-.01-.08,.2-.2,.31-.3,.01,.16,.03,.33,.04,.51,.32,.17,.65,.34,.98,.5h1.99Z" style="fill: #626262;"/>
  <path d="M50.65,119.62c-.16-.25-.25-.39-.34-.54v-5.15c-.1-.15-.19-.29-.3-.45,.15-.15,.3-.31,.5-.52,.26,.14,.5,.26,.74,.38h.82c.14-.09,.28-.18,.49-.32h1.51c.2-.14,.34-.23,.49-.34h2.16c.14-.09,.28-.18,.49-.3h1.78c.18-.11,.36-.22,.59-.35h2.07c.43-.17,.77-.56,1.24-.22,.03,.04,.09,.09,.09,.13,0,.61,0,1.22,0,1.86-.07,.11-.16,.25-.29,.45v5.09c-.08,.16-.16,.3-.25,.48,.07,.4,.45,.81,.03,1.3-.18,.22-.18,.59-.27,.9h-1.89c-.2,.12-.38,.23-.59,.35h-2.8c-.15,.1-.29,.19-.5,.33h-1.17c-.2,.14-.34,.23-.49,.34h-2.47c-.25,.13-.48,.26-.78,.42-.3-.47-.56-.88-.84-1.32v-2.49Z" style="fill: #636363;"/>
  <path d="M63.22,73.01c.69-.79,1.12-1.49,1.11-2.4,.38-.63,.91-1.2,1.02-2.01,.05-.36,.38-.67,.52-1.02,.26-.66,.76-1.21,.8-1.97,.01-.2,.18-.4,.29-.58,.45-.74,1.03-1.41,1.17-2.31,.44-.32,.48-.85,.63-1.31,.43-1.3,1.08-2.5,1.72-3.71,.31-.59,.42-1.23,.71-1.82,.29-.58,.67-1.12,.82-1.78,.09-.4,.41-.75,.62-1.12,.54-.95,.88-2,1.35-2.97,.48-.98,.79-2.03,1.26-3.01,.13-.28,.26-.59,.39-.89,.5-1.14,.99-2.29,1.48-3.42,.83,.03,1.23,.74,1.89,.99,.61,.23,1.21,.47,1.83,.71-.08,.36-.15,.71-.24,1.14-.13,.15-.37,.32-.49,.56-.27,.53-.41,1.14-.74,1.62-.34,.51-.55,1.05-.78,1.61-.53,1.26-1.19,2.47-1.79,3.69-.22,.44-.47,.85-.55,1.37-.06,.36-.29,.71-.51,1.02-.65,.89-1.1,1.86-1.45,2.91-.22,.66-.56,1.3-1.01,1.87-.35,.44-.46,.99-.7,1.46-.25,.49-.13,1.12-.61,1.5-.46,.37-.23,1.1-.74,1.44-.04,.03-.1,.08-.1,.13-.14,.95-.8,1.66-1.21,2.48-.68,1.37-1.16,2.83-1.94,4.15-.22,.37-.41,.77-.63,1.18-.53,.12-1.05,.24-1.57,.36,0,.04,0,.08,.01,.12h-2.57Z" style="fill: #fefefe;"/>
  <path d="M34.97,126.67c.29-.83,1.12-.93,1.66-1.35,.56,.31,.21,.77,.36,1.08,.16,.35,.35,.67,.33,1.03,.55,1.07,1.71,1.08,2.63,1.58h2.56c.21-.23,.47-.52,.74-.81,.02-.16,.04-.32,.08-.62,.33-.46,.8-1,1.13-1.6,.33-.6,.34-1.36,.99-1.93,.45-.08,1-.02,1.55-.03,.55,0,1.11,0,1.47,0,.53,.17,.88,.29,1.41,.46,.1,.09,.36,.3,.63,.53h4.46c.51,.46,1.14,.32,1.73,.35,.5,.5,1.15,.25,1.72,.35,.14,.09,.27,.19,.43,.3h1.13c.77,.41,1.52,.8,2.27,1.21,.03,.02,.02,.1,.03,.16,.06,.38-.11,.67-.41,.84-.57,.31-1.19,.53-1.74,.86-.65,.4-1.48,.38-2.07,.91-.03,.03-.11,.01-.16,.01-1.1,0-2.02,.75-3.13,.75-.14,0-.28,.16-.44,.26h-3.45c-.17,.11-.31,.2-.46,.3h-3.25c-.18-.11-.32-.2-.48-.3h-1.68c-.37-.14-.63-.32-.87-.31-.57,.02-1.06-.14-1.58-.35-.6-.23-1.3-.23-1.86-.51-.63-.32-1.33-.45-1.95-.79-.65-.36-1.4-.55-1.96-.76-.73-.57-1.13-1.27-1.84-1.63Z" style="fill: #636363;"/>
  <path d="M44.63,108.1c-.22,.37-.47,.78-.73,1.21h-.94c-.21,.14-.35,.23-.55,.36h-1.51c-.2,.14-.33,.23-.49,.34h-2.87c-.62,.18-.97,.28-1.31,.38-.21-.2-.37-.35-.55-.52-.01-.32-.03-.65-.04-.87-.37-.58-.69-1.09-.99-1.56v-1.87c-.22-.26-.44-.52-.66-.78v-1.35c-.23-.63-.41-1.13-.62-1.71,.48-.03,.97-.06,1.43-.1,.16-.1,.29-.19,.44-.29h3.48c.15-.1,.29-.19,.5-.32h3.17c.2-.14,.34-.23,.45-.31h1.61c.1,.09,.15,.12,.17,.16,.02,.05,.02,.11,.02,.16,0,2.33,0,4.66,0,7.06Z" style="fill: #636363;"/>
  <path d="M34.93,123.65v-1.06c-.07-.12-.18-.31-.3-.53v-1.45c-.1-.16-.19-.3-.31-.49v-3.07c-.08-.16-.15-.31-.06-.12-.38-.68-.25-1.08-.32-1.45-.06-.31-.19-.6-.29-.9,.07-.1,.12-.2,.21-.34-.06-.2-.17-.43-.21-.67-.04-.27-.02-.55-.02-.83,0-.28,0-.55,0-.79-.11-.17-.2-.31-.36-.54v-2.38c.09,.04,.27,.09,.27,.13-.05,.63,.61,1.06,.39,1.71,.41,.38,.77,.73,1.22,1.15,1.02,.01,2.12,0,3.23,0,.14-.09,.28-.18,.49-.32h1.17c.2-.14,.34-.24,.49-.34h1.79c.2-.09,.37-.18,.69-.33-.16,.48-.32,.81-.37,1.16-.07,.45-.38,.77-.53,1.18-.13,.35-.34,.67-.48,1.02-.13,.35-.59,.59-.28,1.02-.23,.26-.42,.46-.52,.59-.45,1.14-.78,2.23-1.3,3.22-.51,.96-.66,2.05-1.3,2.95-.17,.27-.49,.12-.73,.22-.3,.13-.57,.32-.86,.45-.24,.11-.51,.16-1.14,.34,0,0-.12,.48-.57,.47Z" style="fill: #636363;"/>
  <path d="M34.97,126.67c.71,.35,1.11,1.05,1.84,1.63,.56,.21,1.31,.4,1.96,.76,.62,.35,1.32,.47,1.95,.79,.55,.28,1.26,.27,1.86,.51,.51,.2,1.01,.37,1.58,.35,.25-.01,.5,.17,.87,.31h1.68c.16,.1,.3,.19,.48,.3h3.25c.15-.1,.29-.19,.46-.3h3.45c.16-.1,.3-.26,.44-.26,1.11,0,2.03-.76,3.13-.75,.05,0,.13,.01,.16-.01,.59-.54,1.42-.52,2.07-.91,.55-.33,1.17-.55,1.74-.86,.3-.17,.48-.46,.41-.84h.46c.33,.29,.73,.65,1.17,1.04-.29,.57-.55,1.09-.82,1.63-.8,.47-1.61,.89-2.51,1.13-.88,.24-1.71,.65-2.6,.87-.84,.21-1.65,.5-2.51,.63-.91,.14-1.8,.42-2.75,.35-.94-.06-1.88-.01-2.76-.01-.3,.13-.54,.24-.75,.34-.21-.12-.35-.21-.51-.3-.15,0-.32-.02-.48-.02-.72-.01-1.48,.13-2.14-.08-.71-.22-1.42-.14-2.09-.3-.47-.12-.92-.33-1.42-.32-.58-.45-1.27-.26-1.74-.32-1.2-.38-2.3-.56-3.24-1.06-.95-.51-1.93-1-2.89-1.61-.08-.47-.16-.95-.27-1.56-.01,.05-.01-.07,.04-.13,.24-.29-.05-.82,.46-.98Z" style="fill: #fcfcfc;"/>
  <path d="M53.29,87.66v.8c-.11,.15-.2,.29-.31,.45v1.11c-.41,.84-.91,1.61-1.11,2.6-.34,.04-.71,.08-1.06,.12-.14,.09-.28,.18-.41,.27h-1.83c-.14-.09-.28-.18-.47-.3h-2.46c-.16-.1-.35-.21-.62-.37h-1.14c-.2-.14-.34-.23-.49-.32h-1.66c-.1-.12-.27-.32-.42-.5v-1.22c.11-.19,.21-.38,.35-.62-.1-.17-.21-.35-.37-.62,.09-.17,.22-.4,.38-.71v-5.52c.13-.06,.23-.1,.32-.14v3.8c.31,.17,.59,.33,.93,.52,.27,0,.66-.11,.92,.02,.64,.33,1.41,.16,2,.6,.04,.03,.1,.02,.13,.02h7.33Z" style="fill: #636363;"/>
  <path d="M53.29,87.66h-7.33s-.09,0-.13-.02c-.59-.44-1.36-.27-2-.6-.26-.14-.65-.02-.92-.02-.34-.19-.62-.35-.93-.52v-3.8c.11-.01,.22-.01,.33-.03,.58-.13,1.02,.35,1.58,.35,.54,0,1.08-.03,1.61,.26,.36,.2,.84,.17,1.39,.27,0,0,.15-.07,.3-.14,.36,.09,.72,.21,1.09,.26,.38,.05,.77,.05,1.13,.06,.16,.09,.31,.18,.5,.28h1.4c.24,.12,.44,.22,.7,.35h1.82c.03,.24,.09,.44,.09,.65,0,.27,.07,.61-.06,.81-.36,.57-.1,1.33-.59,1.85Z" style="fill: #fefefe;"/>
  <path d="M59.64,88.36h-1.99c-.33-.17-.66-.34-.98-.5-.01-.19-.03-.35-.04-.51,.21-.32,.56-.61,.62-.95,.15-.86,.71-1.6,.73-2.51,.43-.55,.93-1.06,1.01-1.83,.02-.2,.19-.38,.31-.56,.61-.91,1.13-1.86,1.43-3.05,.13-.16,.34-.42,.55-.67,.05-.73,.13-1.44,.8-2.01,.9-.22,1.9-.06,2.9-.11,.3,0,.48-.49,.88-.21-.22,.76-.38,1.55-.98,2.15-.08,.08-.19,.19-.18,.27,.09,.74-.71,1.06-.79,1.77-.05,.44-.28,.94-.65,1.3-.12,.11-.2,.26-.29,.39-.33,.5-.34,1.13-.74,1.63-.33,.41-.63,.9-.63,1.48,0,.1-.09,.2-.16,.29-.8,1.12-1.16,2.45-1.81,3.64Z" style="fill: #fdfdfd;"/>
  <path d="M58.24,110.33c-.23,.15-.37,.24-.52,.34h-3.45c-.21,.12-.44,.35-.58,.3-.69-.22-1.2,.57-1.96,.28-.03-.16-.08-.37-.13-.62,.21-.24,.41-.49,.67-.79,.01-.15,.04-.37,.06-.64,.11-.12,.25-.29,.43-.49h1.2c.27-.16,.46-.27,.64-.38h4.13c.16-.11,.29-.2,.44-.3h3.32c.15,.73,.68,1.36,.39,2.16-.04,.04-.07,.09-.12,.11-.05,.02-.11,.02-.16,.02-1.44,0-2.87,0-4.37,0Z" style="fill: #616161;"/>
  <path d="M42.26,80.84c.43-.39,.8-.73,1.23-1.13,.75-.04,1.56-.23,2.35,.22,.17,.1,.43,.04,.65,.04,1.83,0,3.66,0,5.34,0,.36,.17,.55,.26,.75,.35,.77,.07,1.55-.13,2.29,.11,.03,.07,.09,.12,.08,.15-.23,.66-.46,1.32-.69,1.95q-1.21,.22-1.99-.03c-.2-.06-.42-.12-.63-.13-.72-.05-1.44-.07-2.15-.1-.59-.51-1.43-.04-2.05-.51-.18-.14-.54-.07-.81-.05-1.11,.09-2.18-.19-3.25-.4-.35-.07-.68-.28-1.11-.47Z" style="fill: #fafafa;"/>
  <path d="M42.05,99.35h-5.45c-.2,.11-.39,.22-.58,.33h-2.81c-.31-.19-.23-.48-.24-.91,.21-.17,.5-.41,.87-.72h2.49c.2-.13,.34-.23,.54-.36h3.18c.2-.13,.33-.23,.44-.3h3.3c.29,.38,.18,.76,.13,1.15-.1,.11-.21,.23-.39,.43-.31,.03-.68,.07-1.05,.1-.14,.09-.28,.19-.43,.29Z" style="fill: #5f5f5f;"/>
  <path d="M82.63,41.26v.56c-.13,.14-.28,.3-.46,.49h-1.64c-.76-.61-1.75-.95-2.21-1.95v-.53c.49-.16,1-.33,1.52-.5,1.03,.44,2.03,.87,2.79,1.93Z" style="fill: #f8f8f8;"/>
  <path d="M70.6,71.47c.24-.65,.48-1.31,.75-1.96,.06-.15,.21-.26,.34-.41,.58,.14,1.05,.48,1.55,.75,0,.13,.03,.28-.02,.33-.68,.63-1.46,1.12-2.27,1.52-.13-.09-.22-.14-.35-.22Z" style="fill: #dfdfdf;"/>
  <path d="M64.93,112.66c.01,.96,.02,1.93,.04,2.89,0,.23-.05,.42-.3,.49,0-1.02-.03-2.04-.02-3.06,0-.11,.18-.22,.28-.33Z" style="fill: #636363;"/>
  <path d="M64.66,116.98c.1,.11,.27,.21,.28,.32,.04,.36,.04,.73,0,1.09-.01,.11-.19,.2-.29,.3,0-.57,0-1.14,.01-1.72Z" style="fill: #636363;"/>
  <path d="M56.29,82c-.02,.2-.03,.4-.06,.69q-.27-.43,.08-.66l-.02-.02Z" style="fill: #fefefe;"/>
</svg>