<?xml version="1.0" encoding="UTF-8"?>
<svg id="Ebene_1" data-name="Ebene 1" xmlns="http://www.w3.org/2000/svg" width="35.28mm" height="52.92mm" viewBox="0 0 100 150">
  <path d="M65.12,46.52h1.73c.3,.33,.64,.7,.98,1.07,.24,.72,.47,1.44,.79,2.41,.07,.44-.17,1.19,.31,1.83,.02,.55,.11,1.11-.24,1.57,.12,.55,.23,1.07,.36,1.66,.09,.03,.25,.14,.39,.12,1.01-.13,1.93,.42,2.93,.38,.55,.5,1.28,.2,1.9,.43,.61,.22,1.22,.42,1.87,.56,.96,.2,1.79,.79,2.63,1.3,.28,.17,.55,.35,.85,.54,.94,1.02,1.42,2.32,1.62,3.65,.22,1.47,.14,2.97-.72,4.35-.54,.36-1.15,.72-1.7,1.15-.49,.38-.99,.64-1.64,.66-.54,.01-1,.46-1.58,.36-.47,.4-1.04,.28-1.59,.31-.54,.03-1.09-.07-1.61,.26-.2,.13-.54,.04-.82,.04-.6,.01-1.2,.02-1.83,.04-.03,.23-.12,.41-.07,.53,.31,.68,.28,1.39,.29,2.1,0,.44,.01,.89,.03,1.33,.03,.54-.07,1.09,.25,1.61,.13,.21,.05,.54,.06,.82,.05,.87-.13,1.76,.29,2.6,.11,.22,0,.55,.04,.82,.08,.43-.05,.87,.23,1.29,.14,.2,.1,.53,.1,.8,.01,1.06,0,2.11,0,3.13,.11,.18,.19,.32,.28,.47,.22,.9-.2,1.89,.38,2.78v3.43c.11,.17,.19,.31,.33,.53,0,.48,0,1.03,0,1.58,0,.6-.04,1.2,.29,1.77,.11,.18-.06,.52-.12,.95,.04,.24,.15,.66,.17,1.07,.03,.83,0,1.67,.02,2.5,.02,.59-.15,1.21,.26,1.77,.11,.15,.03,.43,.03,.65,.02,1.72,.03,3.44,.05,5.16,0,.49-.06,.97,.2,1.46,.14,.26,.08,.65,.08,.98,.01,1.22,0,2.44,.03,3.66,.02,.7-.11,1.41,.25,2.11,.18,.36,.07,.87,.07,1.32,0,2.44,0,4.88,.03,7.32,0,.54-.12,1.11,.23,1.62,.08,.12,.08,.34,.03,.48-.48,1.23-.25,2.51-.29,3.76-.02,.5,0,1,0,1.55-.14,.3-.31,.64-.46,.99-.4,.94-1.15,1.38-2.08,1.71-.7,.25-1.38,.33-2.14,.27-1.1-.31-1.74-1.25-2.51-2.01-.45-.95-1-1.84-1.25-2.86-.44-.48-.06-1.22-.53-1.7,.04-1.11-.49-2.14-.4-3.26,.05-.59,.02-1.17-.23-1.77-.19-.48-.05-1.1-.07-1.65-.02-.65,.18-1.34-.3-1.92-.01-.55-.02-1.11-.04-1.66,0-.22-.03-.44-.08-.65-.02-.1-.11-.19-.16-.29,.07-.15,.14-.29,.21-.44-.09-.31-.19-.62-.25-.93-.05-.26,.06-.56-.25-.83-.27,.01-.59,.03-1,.05-.24,.38-.5,.79-.78,1.24,0,.74,0,1.52,0,2.29,0,.66,.12,1.32-.26,1.94-.1,.17-.05,.43-.06,.65-.01,.56,0,1.11-.03,1.67-.03,.71,.17,1.45-.28,2.1-.02,.78-.04,1.55-.06,2.33,0,.28,.1,.65-.04,.82-.53,.62-.05,1.45-.52,2.05,.07,.15,.13,.29,.2,.44-.37,1.25-.76,2.49-1.51,3.85-.28,.26-.73,.67-1.25,1.16-.4,.19-.89,.42-1.52,.72h-2.47c-.51-.31-1.11-.69-1.75-1.08-.29-.48-.63-.98-.91-1.52-.25-.48-.54-.94-.58-1.52-.03-.54-.38-1.02-.32-1.59,.08-.77-.38-1.47-.32-2.27,.06-.77,.01-1.55,.01-2.33,0-.78,0-1.56,0-2.33,0-.78,0-1.56,0-2.33,.1-.21,.19-.4,.29-.62-.28-.71-.46-1.43-.06-2.2,.12-.22,.07-.54,.07-.81,0-1.17,0-2.33,0-3.55-.11-.04-.25-.15-.39-.15-2-.01-4,0-6,0-.27,0-.54,.02-.83,.04-.03,.23-.12,.41-.07,.53,.25,.57,.3,1.16,.31,1.76,0,.38,0,.76,.21,1.13,.13,.21,.09,.53,.1,.81,.02,.89,.03,1.78,.02,2.67,0,.5,.08,.98,.31,1.42-.08,.17-.15,.31-.2,.43,.07,.28,.2,.53,.2,.79,.02,1.33,.04,2.67,0,4-.02,.53-.22,1.06-.29,1.6-.06,.49,.06,1.01-.31,1.42,.06,.57-.21,1.08-.38,1.59-.15,.45-.47,.85-.71,1.27-1.7,1.08-1.92,1.16-3.33,1.17-.47-.23-.96-.47-1.5-.73-.8-.57-1.26-1.44-1.74-2.52-.02-.26,.05-.74-.11-1.12-.18-.42-.25-.83-.3-1.27-.04-.37-.2-.73-.3-1.09-.12-.42-.22-.84-.35-1.25-.13-.41-.29-.81-.44-1.22-.03,0-.09-.01-.1,0-.13,.24-.24,.49-.38,.75-.01,.08-.04,.19-.04,.3,.08,2.09-.73,3.95-1.52,5.8-.3,.7-.67,1.38-1.06,2.15-.18,.16-.45,.37-.66,.62-.6,.73-1.51,.88-2.31,1.18-.69,.26-1.41-.02-2.07-.26-.51-.18-1.02-.4-1.48-.69-.41-.26-.76-.6-.97-1.1-.25-.61-.6-1.17-.9-1.74-.11-.55-.05-1.08-.28-1.63-.21-.48-.12-1.08-.16-1.65-.07-.13-.16-.27-.25-.44,0-3.25,0-6.53,0-9.81,0-.49-.06-.98,.24-1.44,.13-.2,.07-.54,.07-.81,.01-.94,.02-1.89,.03-2.83,0-.33,0-.64,.18-.96,.13-.22,.14-.54,.11-.8-.14-1.12,.39-2.15,.41-3.25,0-.15,.15-.29,.2-.38,.17-1.25-.13-2.48,.3-3.76-.21-.12-.47-.31-.76-.44-.92-.41-1.72-.97-2.42-1.69-.43-.44-.79-.92-1.02-1.57v-1.05c.26-.65,.56-1.4,.85-2.14-.15-.56-.3-1.14-.49-1.85,.15-.37,.27-.88,.27-1.44,0-.54,.48-.99,.35-1.52,.36-.55,.62-1.12,1.03-1.54,.41-.42,.98-.69,1.58-1.1,.32-.02,.75-.05,1.18-.07,.74-1.21,1.99-1.67,3.16-2.26h1.64c.69,.22,1.38,.39,2.03,.67,.59,.26,1.13,.64,1.68,.96,1.45-.88,2.97-1.41,4.59-1.69,.59-.1,1.18-.18,1.76-.34,.57-.15,1.12-.38,1.74-.6,.15,.07,.35,.16,.54,.25,.31-.09,.62-.21,.93-.26,1.14-.18,2.33,.21,3.43-.33,1.11,0,2.22,0,3.33,0,.67,0,1.33,0,1.97,0,.82-.4,1.6-.78,2.5-1.22,.38-.74,.8-1.57,1.25-2.46,0-.33-.02-.72,0-1.1,.03-.49,0-.96,.23-1.45,.19-.42,.06-.98,.1-1.48,.07-.87-.19-1.76,.27-2.6,.12-.22,.04-.55,.04-.82,0-1.33,0-2.66,0-4.06-.55-.2-1.18-.19-1.71-.49-.52-.3-1.07-.54-1.59-.8-.56-.71-1.02-1.45-1.25-2.3-.08-.31-.18-.71-.06-.97,.41-.82,.36-1.87,1.26-2.31-.57-.88-1.08-1.65-1.61-2.46-.02-.59-.05-1.2-.05-1.8,0-.56,.38-1.67,.69-2.31,.3-.63,.8-1.02,1.38-1.37,.51-.31,.99-.68,1.44-.98,.24-.6,.46-1.16,.64-1.61,.5-.53,.92-.97,1.51-1.19,.51-.19,1.01-.39,1.51-.58,.5-1.05,1.01-2.07,1.46-3.11,.21-.48,.52-.84,.93-1.12,.06-.01,.11-.02,.17-.03,.48-.08,.81,.29,1.32,.46,.56,.9,1.16,1.86,1.82,2.93,.62-1.61,1.55-2.87,2.66-4.08Zm-4.94,66.07c1.3-.15,2.57-.59,4.15-.28,.23,.23,.62,.62,.76,.76,.24,.7,.37,1.06,.52,1.51,0,.51,0,1.12,0,1.73,0,.22-.06,.5,.05,.65,.45,.6,.26,1.28,.3,1.93,.03,.55-.13,1.18,.07,1.65,.32,.77,.21,1.51,.24,2.28,.02,.61,.05,1.22,.08,1.83,.47,.48,.26,1.15,.49,1.72,.24,.58,.13,1.3,.17,1.88,.22,.47,.5,.85,.58,1.26,.17,.94,.73,1.58,1.41,2.17,.08,.07,.19,.09,.4,.18,.33-.13,.73-.28,1.09-.42,.18-.34,.33-.63,.46-.88v-8.43c-.14-.24-.22-.38-.34-.58,0-1.39-.03-2.83,.01-4.27,.02-.57-.23-1.06-.28-1.6-.06-.55-.03-1.11-.09-1.66-.02-.2-.19-.38-.28-.54,.11-.2,.24-.34,.26-.49,.04-.44,.08-.89,.04-1.32-.03-.31-.18-.62-.27-.93,.42-.52,.34-1.02,0-1.48-.09-2.02,.14-4-.21-6.04,.58-.57-.31-1.16-.13-1.79,.08-.14,.15-.29,.16-.31-.14-.79-.26-1.48-.38-2.18,.24-.61,.31-1.24-.02-1.87-.2-.38-.05-.73,.11-1.04-.08-.23-.16-.43-.21-.57,.13-.27,.22-.46,.22-.46-.16-1.05-.28-1.89-.41-2.78,.04-.1,.1-.25,.15-.37-.12-.29-.22-.54-.34-.83,.08-.23,.17-.48,.21-.59-.06-.45-.12-.77-.15-1.09-.04-.55,.08-1.17-.13-1.64-.26-.6-.21-1.19-.25-1.78-.04-.61,0-1.22,0-1.87-.55-.43-.27-.96-.09-1.43-.44-.54-.07-1.26-.53-1.74v-2.33c-.18-.35-.28-.54-.3-.58-.16-1.26,.14-2.39-.38-3.44-.07-.14-.03-.33-.03-.49,0-1.55,0-3.11-.01-4.66,0-.11-.03-.22,0,.03-.19-.65-.28-.96-.34-1.2,.33-.42,.6-.76,.79-1,.41-.02,.63-.04,.86-.04,.67,0,1.34-.07,2,.01,.69,.08,1.3-.09,1.92-.31,.1-.03,.22-.01,.33,0,.99,.03,1.91-.52,2.92-.4,.32-.28,.73-.21,1.1-.3,.36-.09,.7-.3,1.17-.51-.5-.08-.91-.06-1.22-.22-.42-.23-.85-.2-1.28-.23-.38-.02-.77,.09-1.15-.12-.1-.11-.21-.23-.36-.4,.26-.27,.52-.55,.74-.78,.55-.04,1.04-.08,1.47-.11,.16-.2,.26-.33,.38-.48-.05-.14-.11-.29-.16-.42-.47-.04-.91-.05-1.34-.13-.48-.09-.94-.25-1.46-.39-.11-.13-.24-.3-.39-.5,.28-.45,.53-.86,.74-1.21,.56-.17,1.03-.31,1.57-.48,.2,.09,.45,.2,.71,.31,.53-.02,1.08,.04,1.6-.05,.04-.18,.06-.28,.08-.39-.61-.85-1.58-1.13-2.47-1.54-.67-.3-1.43-.18-2.07-.46-.72-.3-1.55-.07-2.22-.51-1.11,.11-2.14-.51-3.26-.37-.11,.01-.25,.04-.33-.02-.65-.44-1.4-.22-2.09-.33-.19-.11-.38-.22-.62-.35h-2.14c-.28-.3-.65-.54-.77-.88-.38-1.02-1.01-1.94-1.29-2.98-.2-.75-.57-1.37-.89-2.01-.43,.49-.37,1.15-.6,1.67-.27,.61-.03,1.35-.53,1.81-.03,1.33-.06,2.6-.09,3.82-.12,.25-.21,.44-.3,.62,.1,.19,.18,.34,.26,.48-.05,.09-.13,.18-.15,.28-.05,.21-.09,.43-.1,.65-.02,.55,.13,1.18-.07,1.65-.39,.92-.23,1.85-.28,2.78-.04,.66,0,1.32,0,1.85-.14,.27-.22,.42-.29,.57-.02,.05,0,.11,0,.17h-.02v2.97c-.1,.17-.19,.32-.33,.56,0,1.46,0,3.01,0,4.56,0,.33,.05,.71-.1,.97-.24,.43-.19,.85-.2,1.29-.03,.94-.04,1.89-.07,2.83-.43,.65-.24,1.39-.27,1.71-.33,1.21-.56,2.04-.79,2.87-.18,.21-.36,.42-.54,.62-.04,.28-.08,.54-.13,.81-.78,.47-1.54,.91-2.27,1.38-.79,.5-1.72,.67-2.54,1.09-.14,.3-.27,.59-.42,.91,0,1.54,0,3.09,0,4.65,0,1.55,.05,3.11,0,4.66-.04,1.54,.15,3.09-.04,4.44-.44,.79-1.15,.42-1.64,.78v1.62c-.29,.28-.55,.54-.77,.75-.67-.24-1.2-.53-1.49-1.11-.16-.35,.12-.78-.25-1.12-.71-.14-1.19,.31-1.73,.69-.04,.52-.08,1.01-.11,1.48-.21,.18-.37,.33-.49,.43h-1.06c-.26-.3-.51-.58-.78-.89,.09-.34,.17-.64,.25-.96-.26-.13-.55-.27-.87-.43-.39,.18-.77,.37-1.11,.53-.33,.76-.32,1.61-1.11,2.09h-.78c-.18-.18-.46-.46-.58-.58-.18-.71,.11-1.23-.3-1.72-.45,.13-.96-.15-1.48,.2,.07,.23,.15,.47,.2,.64-.18,.52-.36,.99-.81,1.28-.08,.05-.18,.08-.27,.11-.24-.13-.48-.26-.81-.44,.15-.6-.11-1.14-.41-1.66-.94-.45-1.55-1.18-1.91-2.24,0-.7,0-1.48,0-2.26,0-.78,.02-1.55,0-2.33-.02-.77,.13-1.5,.29-2.25,.15-.69,.11-1.4,.32-2.1,.2-.66,.04-1.41,.36-2.08,.08-.17,.03-.45-.34-.48-.26,0-.39,.31-.63,.42-.29,.13-.61,.22-.75,.26-.93,.87-1.74,1.63-2.49,2.34-.07,.35-.13,.61-.22,1.02-.34,.28-.77,.64-1.01,.84-.5,1.13-.9,2.03-.88,3.04-.35,.61-.25,1.43-.97,1.86,0,.52-.06,1.03,.02,1.51,.1,.59-.34,1.03-.33,1.59,.02,.72,0,1.44-.02,2.17-.01,.67-.03,1.33-.05,2-.48,.64-.2,1.4-.3,2.1-.09,.6,.09,1.25-.07,1.82-.15,.54-.34,1.07-.27,1.6,.08,.58-.36,1.13-.04,1.72,.07,.12,.04,.35-.03,.48-.46,.81-.19,1.59,.08,2.4-.1,.24-.25,.48-.3,.74-.06,.32-.05,.66-.05,1,0,3.16,0,6.33,0,9.38,.6,1,.53,2.14,1.11,2.82,.51,.36,.86,.61,1.17,.83h1.06c.5-.24,1.1-.34,1.39-.85,.35-.61,.77-1.24,.89-1.91,.21-1.12,.89-2.13,.76-3.33,.28-.31,.35-.69,.28-1.08-.09-.48,.36-.82,.33-1.26-.05-.86,.38-1.58,.58-2.42-.04-.08-.11-.23-.2-.45,.08-.15,.26-.34,.25-.53-.01-1.05,.52-2.02,.42-3.08-.02-.16-.06-.38,.02-.49,.5-.71,.21-1.51,.34-2.33,.07-.13,.17-.32,.29-.55v-1.8c.43-.39,.28-.93,.43-1.52,.19-.21,.45-.5,.62-.69,1.58,0,2.96,0,4.35,0,2.66,0,5.33,0,7.99-.03,.37,0,.74-.11,1.19-.17,.84,.48,1.87,.07,2.69,.2,.54,.19,.95,.34,1.41,.5,.19,.35,.4,.73,.64,1.17v13.68c.14,.28,.23,.48,.31,.65,0,.99-.11,1.95,.03,2.88,.22,1.48,.58,2.94,2.32,3.4,.85-.25,1.47-.76,1.93-1.47,.17-.42,.02-.88,.3-1.28,.18-.25,.22-.61,.29-.93,.08-.37,.1-.76,.18-1.13,.07-.32,.23-.62,.26-.93,.05-.61,.1-1.23,.04-1.83-.06-.63,.33-1.15,.32-1.76-.01-.78,.01-1.55,.03-2.33,0-.27-.04-.6,.09-.81,.31-.52,.11-1.09,.24-1.62,.14-.58,.36-1.14,.32-1.76-.04-.61,0-1.22,0-1.59,.34-1.3,.87-2.25,1.56-3.11Zm-16.19-16.05c-.21-.57-.88-.75-.98-1.35,.09-.25,.2-.5,.25-.76,.05-.26,.04-.54,.07-.92,.39-.35,.81-.71,1.22-1.09,.06-.06,.04-.2,.05-.31-.64-.48-1.35-.9-1.67-1.71,.22-.5,.42-.97,.62-1.45-.78-.25-1.34,.08-1.87,.44-.23,.46-.44,.9-.7,1.43,.52,.45,1.07,.92,1.56,1.34-.27,1.22-.71,2.19-1.55,2.89-.01,.23-.03,.39-.04,.59,.28,.31,.58,.63,.87,.97,.07,.08,.1,.19,.15,.32v1.2c-.3,.63-.57,1.16-.71,1.47-.49,.57-.81,.94-1.08,1.25-.39,.03-.67,.07-.9-.25,0-.23-.11-.58,.02-.77,.4-.62,.27-1.39,.63-2.01,.07-.12-.02-.32-.04-.5-.29-.32-.59-.65-.85-.94-.11-.41-.21-.77-.33-1.19,.59-.82,1.19-1.66,1.84-2.56-.48-.48-1.02-1.03-1.58-1.6,0-.27,0-.55,0-.82-.01-.32,.49-.51,.21-.89-.25-.16-.51-.13-.81-.02-.42,.31-.83,.67-1.07,1.14,.21,.77,.68,1.31,1.17,1.83,.07,.07,.09,.19,.11,.23v1.47c-.49,.68-1.15,1.1-1.56,1.73,.58,.74,1.37,1.25,1.58,2.15,.13,.81,.07,1.56-.19,1.9-.76,.64-1.22,1.03-1.69,1.44-.2-.01-.42-.02-.64-.03-.16-.18-.31-.34-.45-.48v-.91c.16-.18,.36-.38,.51-.61,.17-.26,.28-.56,.41-.84-.4-.37-.56-.81-.71-1.3-.15-.49-.55-.91-.86-1.39,.33-.43,.59-.85,.92-1.2,.41-.44,.83-.85,.93-1.47-.41-.45-.82-.9-1.06-1.16-.25-.68-.41-1.14-.57-1.57h-.42c-.15,.45-.31,.91-.48,1.41v2.25c-.14,.27-.26,.51-.37,.74,.29,.82,.58,1.59,.12,2.41-.12,.22-.09,.54-.09,.81-.01,.61,0,1.22,0,1.63,.17,.38,.26,.57,.34,.73-.14,.31-.25,.55-.36,.79,.19,.54,.36,1.04,.52,1.51,1.35,0,2.62,0,3.9,0,.16,0,.36,.01,.48-.07,.46-.3,.96-.21,1.45-.22,.72,0,1.44,0,2.01,0,.34-.17,.53-.27,.69-.36h2.69c.39-.37,.8-.29,1.2-.11,.26-.13,.5-.24,.75-.37,0-.28,.08-.59-.02-.82-.37-.85-.42-1.66-.07-2.55,.17-.43,.19-.97-.06-1.45-.27-.52-.26-1.08-.04-1.59,.15-.33,.16-.63,.17-.96,.01-1.61,.03-3.22,.03-4.83,0-.09-.09-.18-.17-.32-.19-.01-.4-.04-.62-.03-.27,0-.56-.06-.85,.15-.36,.34-.71,.75-1.11,1.23,.36,.27,.7,.45,.94,.72,.29,.32,.5,.72,.7,1.02-.34,1.15-1.09,1.95-1.86,2.73,.45,.47,.86,.92,1.24,1.31,.12,.87-.14,1.62-.51,2.26-.48,.83-.78,1.83-1.66,2.26-.55,.06-.84-.13-1.01-.48,.2-.59,.45-1.15,.55-1.73,.11-.66,.78-1.08,.7-1.75Zm-9.38,17.2c0,.45-.06,.91,.02,1.34,.09,.49-.3,.82-.31,1.26,0,.22-.07,.5,.03,.65,.35,.5,.25,1.06,.29,1.61,.03,.38-.04,.78,.24,1.1,.03,.88,.35,1.7,.46,2.57,.13,1.01,.28,2.06,.67,3.01,.15,.36,.19,.74,.35,1.07,.18,.37,.17,.75,.28,1.1,.29,.93,.45,1.91,.98,2.76,.27,.43,.54,.81,1.02,.97,.65-.28,.99-.8,1.16-1.38,.2-.67,.45-1.35,.48-2.06,.03-.55,0-1.11,0-1.53,.16-.32,.26-.51,.37-.74-.1-.31-.21-.62-.34-1.04,0-1.71,.03-3.55,0-5.38-.03-1.82,.1-3.65-.07-5.44-.17-.15-.29-.26-.44-.38h-4.29c-.3,.17-.58,.33-.9,.51Zm-13.95-14.54c.11,.24,.26,.58,.42,.94,.49,.5,.92,1.08,1.61,1.46,.23-.23,.41-.42,.5-.51,.21-1.09,.58-2.03,.44-2.95,.33-.6,.57-1.13,.75-1.72,.19-.66,.5-1.29,.9-1.89,.6-.91,1.26-1.77,1.9-2.64,.54-.73,1.19-1.43,2.12-1.88-.17-.18-.32-.33-.45-.47h-2.54c-.32,.16-.61,.31-.89,.46-.47,.98-1.24,1.47-2.33,1.54-.35,.02-.69,.28-.98,.41-.28,.55-.53,1.04-.81,1.58v2.32c.23,.48,.42,.86,.61,1.25-.41,.69-.8,1.35-1.24,2.11ZM52.69,60.68c.42,.45,.84,.9,1.26,1.35v2.05c-.82,.66-1.35,1.54-1.66,2.61,.51,.5,1.03,1,1.43,1.4,.5,.12,.84,.21,1.19,.29,.04-.74-.02-1.42,.15-2.04,.09-.37,.2-.73,.22-1.11,.11-1.53-.16-3.08,.32-4.6,.18-.56,.05-1.21,.03-1.82-.03-.9,.23-1.72,.64-2.59-.06-.5,.14-1.1-.09-1.69-.65,.38-.65,1.07-.97,1.56-.52,.67-1.17,1.16-1.96,1.46-.09,.03-.16,.13-.24,.2-.21,.44-.42,.87-.62,1.29,.37,.47,.16,1,.31,1.63Zm13.13-11.44c-.98,1.33-1.15,3.03-2.24,4.29,.21,.36,.4,.68,.57,.97,.72,.01,1.37,.03,1.98,0,.24-.31,.14-.6,.19-.86,.06-.31,.17-.61,.25-.9-.1-.21-.2-.4-.27-.55,.12-.3,.23-.55,.31-.74-.12-.22-.21-.36-.28-.48-.07-.61,.05-1.22-.18-1.78-.16,.02-.27,.04-.34,.05Zm13.44,13.39c-.51-.13-.87-.2-1.24,.04-.12,.46-.08,.92,0,1.38q1,.18,1.24-.08v-1.34Z" style="fill: #030303;"/>
  <path d="M60.18,112.58c-.68,.87-1.22,1.81-1.56,3.11,0,.37-.03,.98,0,1.59,.04,.62-.18,1.18-.32,1.76-.13,.53,.07,1.09-.24,1.62-.13,.21-.08,.53-.09,.81-.02,.78-.05,1.55-.03,2.33,.01,.61-.38,1.13-.32,1.76,.06,.6,.01,1.22-.04,1.83-.03,.32-.19,.62-.26,.93-.08,.37-.1,.76-.18,1.13-.07,.32-.11,.68-.29,.93-.28,.4-.13,.87-.3,1.28-.46,.71-1.08,1.22-1.93,1.47-1.74-.46-2.1-1.93-2.32-3.4-.14-.92-.03-1.88-.03-2.88-.08-.17-.18-.36-.31-.65v-13.68c-.24-.43-.45-.82-.64-1.17-.46-.16-.87-.31-1.41-.5-.83-.14-1.85,.28-2.69-.2-.45,.07-.82,.17-1.19,.17-2.66,.02-5.33,.02-7.99,.03-1.39,0-2.78,0-4.35,0-.17,.19-.43,.48-.62,.69-.15,.59,0,1.13-.43,1.52v1.8c-.12,.23-.22,.42-.29,.55-.13,.82,.16,1.63-.34,2.33-.08,.11-.03,.33-.02,.49,.1,1.06-.43,2.03-.42,3.08,0,.19-.18,.38-.25,.53,.1,.22,.17,.36,.2,.45-.2,.84-.63,1.56-.58,2.42,.02,.44-.42,.77-.33,1.26,.07,.39,0,.77-.28,1.08,.14,1.19-.54,2.21-.76,3.33-.13,.67-.54,1.3-.89,1.91-.29,.51-.89,.61-1.39,.85h-1.06c-.31-.22-.67-.47-1.17-.83-.58-.68-.51-1.82-1.11-2.82,0-3.05,0-6.21,0-9.38,0-.33,0-.67,.05-1,.05-.26,.2-.5,.3-.74-.27-.81-.54-1.59-.08-2.4,.07-.13,.1-.36,.03-.48-.33-.58,.12-1.13,.04-1.72-.08-.54,.12-1.07,.27-1.6,.16-.57-.01-1.22,.07-1.82,.1-.7-.19-1.46,.3-2.1,.02-.67,.04-1.33,.05-2,.01-.72,.03-1.44,.02-2.17-.01-.56,.43-1,.33-1.59-.08-.48-.02-.99-.02-1.51,.73-.43,.63-1.25,.97-1.86-.03-1.02,.38-1.91,.88-3.04,.24-.2,.67-.56,1.01-.84,.09-.41,.14-.67,.22-1.02,.76-.71,1.57-1.47,2.49-2.34,.14-.05,.45-.13,.75-.26,.24-.11,.37-.42,.63-.42,.37,.03,.42,.31,.34,.48-.32,.67-.16,1.42-.36,2.08-.21,.7-.17,1.41-.32,2.1-.16,.75-.31,1.48-.29,2.25,.02,.78,0,1.55,0,2.33,0,.78,0,1.55,0,2.26,.35,1.06,.96,1.8,1.91,2.24,.3,.53,.56,1.06,.41,1.66,.33,.18,.57,.31,.81,.44,.09-.04,.19-.06,.27-.11,.45-.28,.63-.75,.81-1.28-.05-.17-.13-.41-.2-.64,.52-.35,1.02-.06,1.48-.2,.4,.49,.12,1.02,.3,1.72,.12,.12,.39,.39,.58,.58h.78c.79-.48,.77-1.33,1.11-2.09,.33-.16,.72-.34,1.11-.53,.32,.16,.61,.3,.87,.43-.08,.32-.16,.62-.25,.96,.27,.31,.52,.59,.78,.89h1.06c.12-.11,.29-.25,.49-.43,.04-.47,.07-.96,.11-1.48,.54-.38,1.02-.83,1.73-.69,.38,.34,.09,.77,.25,1.12,.3,.57,.82,.87,1.49,1.11,.22-.21,.49-.47,.77-.75v-1.62c.49-.36,1.2,0,1.64-.78,.2-1.34,0-2.89,.04-4.44,.04-1.55,0-3.11,0-4.66,0-1.55,0-3.11,0-4.65,.15-.32,.28-.61,.42-.91,.82-.42,1.75-.59,2.54-1.09,.73-.47,1.49-.91,2.27-1.38,.04-.26,.08-.53,.13-.81,.18-.2,.36-.41,.54-.62,.23-.83,.46-1.67,.79-2.87,.03-.32-.16-1.06,.27-1.71,.02-.94,.04-1.89,.07-2.83,.01-.43-.04-.86,.2-1.29,.15-.26,.1-.65,.1-.97,0-1.55,0-3.11,0-4.56,.14-.24,.23-.38,.33-.56v-2.97h.02c0-.06-.02-.12,0-.16,.07-.15,.15-.29,.29-.57,0-.53-.03-1.19,0-1.85,.05-.93-.11-1.85,.28-2.78,.2-.48,.05-1.1,.07-1.65,0-.22,.05-.44,.1-.65,.02-.1,.1-.19,.15-.28-.08-.15-.16-.29-.26-.48,.08-.18,.18-.37,.3-.62,.03-1.22,.06-2.49,.09-3.82,.51-.46,.26-1.2,.53-1.81,.23-.52,.17-1.18,.6-1.67,.32,.63,.69,1.26,.89,2.01,.28,1.04,.91,1.96,1.29,2.98,.12,.33,.5,.57,.77,.88h2.14c.23,.13,.42,.24,.62,.35,.69,.1,1.44-.12,2.09,.33,.08,.05,.22,.03,.33,.02,1.12-.14,2.14,.48,3.26,.37,.67,.44,1.5,.2,2.22,.51,.64,.27,1.4,.15,2.07,.46,.89,.41,1.86,.69,2.47,1.54-.02,.11-.04,.21-.08,.39-.52,.09-1.07,.04-1.6,.05-.26-.12-.51-.22-.71-.31-.54,.16-1.01,.3-1.57,.48-.21,.35-.47,.76-.74,1.21,.16,.2,.29,.36,.39,.5,.52,.14,.98,.3,1.46,.39,.43,.08,.87,.09,1.34,.13,.05,.14,.11,.28,.16,.42-.12,.15-.22,.28-.38,.48-.43,.03-.92,.07-1.47,.11-.23,.24-.48,.51-.74,.78,.15,.17,.26,.29,.36,.4,.38,.21,.78,.1,1.15,.12,.44,.03,.86,0,1.28,.23,.31,.17,.72,.14,1.22,.22-.48,.21-.81,.42-1.17,.51-.37,.09-.78,.02-1.1,.3-1.01-.12-1.92,.43-2.92,.4-.11,0-.23-.03-.33,0-.62,.21-1.24,.39-1.92,.31-.66-.08-1.33-.02-2-.01-.22,0-.44,.02-.86,.04-.19,.24-.46,.58-.79,1,.07,.24,.16,.55,.34,1.2-.04-.25,0-.14,0-.03,0,1.55,0,3.11,.01,4.66,0,.17-.03,.36,.03,.49,.51,1.05,.21,2.18,.38,3.44,.02,.04,.12,.23,.3,.58v2.33c.46,.48,.09,1.21,.53,1.74-.18,.47-.46,1,.09,1.43,0,.65-.03,1.26,0,1.87,.04,.6-.02,1.18,.25,1.78,.21,.47,.09,1.09,.13,1.64,.02,.32,.08,.64,.15,1.09-.04,.11-.13,.36-.21,.59,.12,.29,.22,.55,.34,.83-.05,.12-.11,.27-.15,.37,.13,.88,.26,1.73,.41,2.78,0,0-.09,.19-.22,.46,.05,.14,.13,.34,.21,.57-.16,.31-.31,.66-.11,1.04,.33,.64,.27,1.27,.02,1.87,.12,.7,.24,1.38,.38,2.18-.01,.02-.09,.17-.16,.31-.18,.63,.71,1.22,.13,1.79,.35,2.04,.12,4.03,.21,6.04,.33,.46,.41,.97,0,1.48,.1,.31,.25,.61,.27,.93,.04,.44,0,.88-.04,1.32-.01,.15-.15,.29-.26,.49,.09,.17,.26,.35,.28,.54,.06,.55,.03,1.11,.09,1.66,.06,.54,.3,1.03,.28,1.6-.04,1.44-.01,2.89-.01,4.27,.12,.2,.2,.34,.34,.58v8.43c-.13,.25-.29,.54-.46,.88-.36,.14-.76,.3-1.09,.42-.2-.09-.32-.11-.4-.18-.68-.58-1.24-1.23-1.41-2.17-.07-.42-.36-.8-.58-1.26-.04-.58,.07-1.3-.17-1.88-.23-.57-.02-1.25-.49-1.72-.03-.61-.06-1.22-.08-1.83-.02-.76,.08-1.51-.24-2.28-.2-.47-.03-1.1-.07-1.65-.04-.65,.15-1.33-.3-1.93-.11-.15-.05-.43-.05-.65,0-.61,0-1.22,0-1.73-.15-.45-.28-.81-.52-1.51-.15-.15-.54-.54-.76-.76-1.58-.31-2.86,.13-4.15,.28Zm5.14-51.17c.26,.24,.58,.52,.85,.76,.8-.21,1.39-.56,1.8-1.24-.01-.29-.03-.61-.05-.91-.34-.19-.62-.35-.91-.51h-.82c-.29,.17-.57,.33-.89,.51v1.38Zm-4.34,1.87c.39,.62,.93,.71,1.41,.89,.31-.17,.59-.33,.85-.47,.1-.37,.19-.73,.25-.95-.14-.91-.71-1.25-1.41-1.44-.46,.28-.55,.91-1.09,1.14v.84Z" style="fill: #fff;"/>
  <path d="M43.99,96.53c.08,.67-.59,1.1-.7,1.75-.1,.58-.35,1.13-.55,1.73,.16,.35,.46,.54,1.01,.48,.88-.43,1.18-1.43,1.66-2.26,.37-.64,.63-1.39,.51-2.26-.37-.4-.79-.84-1.24-1.31,.77-.78,1.53-1.57,1.86-2.73-.2-.3-.41-.7-.7-1.02-.24-.27-.58-.45-.94-.72,.39-.48,.74-.89,1.11-1.23,.29-.21,.58-.14,.85-.15,.21,0,.43,.02,.62,.03,.07,.14,.17,.23,.17,.32,0,1.61-.02,3.22-.03,4.83,0,.33-.02,.63-.17,.96-.23,.51-.24,1.07,.04,1.59,.25,.48,.24,1.01,.06,1.45-.36,.89-.3,1.69,.07,2.55,.1,.23,.02,.54,.02,.82-.25,.12-.49,.24-.75,.37-.4-.18-.81-.25-1.2,.11h-2.69c-.16,.08-.35,.18-.69,.36-.57,0-1.29,0-2.01,0-.49,0-.99-.08-1.45,.22-.12,.08-.32,.07-.48,.07-1.28,0-2.55,0-3.9,0-.16-.47-.33-.96-.52-1.51,.11-.24,.22-.49,.36-.79-.07-.15-.16-.35-.34-.73,0-.42,0-1.03,0-1.63,0-.27-.03-.59,.09-.81,.46-.82,.17-1.59-.12-2.41,.12-.23,.24-.47,.37-.74v-2.25c.17-.5,.33-.96,.48-1.41h.42c.16,.43,.32,.89,.57,1.57,.24,.27,.65,.71,1.06,1.16-.11,.62-.53,1.04-.93,1.47-.33,.35-.6,.77-.92,1.2,.31,.49,.71,.9,.86,1.39,.15,.49,.31,.92,.71,1.3-.13,.28-.25,.57-.41,.84-.14,.23-.35,.42-.51,.61v.91c.14,.15,.28,.31,.45,.48,.22,.01,.44,.02,.64,.03,.48-.4,.93-.79,1.69-1.44,.26-.34,.31-1.09,.19-1.9-.21-.9-.99-1.41-1.58-2.15,.42-.62,1.07-1.05,1.56-1.73v-1.47s-.04-.16-.11-.23c-.49-.52-.95-1.06-1.17-1.83,.24-.47,.65-.83,1.07-1.14,.3-.11,.56-.14,.81,.02,.28,.38-.22,.57-.21,.89,0,.27,0,.54,0,.82,.56,.57,1.1,1.11,1.58,1.6-.65,.9-1.25,1.75-1.84,2.56,.12,.43,.21,.78,.33,1.19,.26,.28,.55,.61,.85,.94,.02,.18,.1,.39,.04,.5-.36,.62-.23,1.39-.63,2.01-.13,.19-.02,.54-.02,.77,.22,.32,.5,.28,.9,.25,.27-.31,.59-.69,1.08-1.25,.15-.3,.41-.84,.71-1.47v-1.2c-.06-.12-.08-.24-.15-.32-.29-.33-.59-.65-.87-.97,.01-.2,.02-.37,.04-.59,.84-.7,1.28-1.67,1.55-2.89-.49-.42-1.03-.89-1.56-1.34,.26-.53,.47-.96,.7-1.43,.53-.36,1.08-.69,1.87-.44-.2,.48-.41,.95-.62,1.45,.32,.81,1.03,1.23,1.67,1.71-.02,.11,0,.25-.05,.31-.4,.38-.82,.74-1.22,1.09-.02,.38-.02,.65-.07,.92-.05,.26-.17,.51-.25,.76,.1,.6,.77,.77,.98,1.35Z" style="fill: #f9f9f9;"/>
  <path d="M34.62,113.73c.31-.18,.6-.34,.9-.51h4.29c.15,.13,.27,.24,.44,.38,.18,1.79,.04,3.62,.07,5.44,.03,1.83,0,3.66,0,5.38,.14,.42,.24,.73,.34,1.04-.11,.22-.21,.42-.37,.74,0,.42,.02,.98,0,1.53-.03,.71-.28,1.38-.48,2.06-.17,.58-.51,1.1-1.16,1.38-.48-.15-.75-.54-1.02-.97-.53-.85-.69-1.83-.98-2.76-.11-.36-.1-.74-.28-1.1-.16-.33-.2-.71-.35-1.07-.39-.96-.54-2-.67-3.01-.11-.87-.44-1.69-.46-2.57-.29-.32-.22-.72-.24-1.1-.04-.54,.06-1.1-.29-1.61-.11-.15-.04-.43-.03-.65,0-.44,.39-.77,.31-1.26-.08-.43-.02-.88-.02-1.34Z" style="fill: #fefefe;"/>
  <path d="M20.66,99.19c.45-.76,.83-1.41,1.24-2.11-.19-.39-.38-.77-.61-1.25v-2.32c.28-.54,.53-1.03,.81-1.58,.28-.12,.62-.38,.98-.41,1.09-.08,1.86-.56,2.33-1.54,.29-.15,.58-.3,.89-.46h2.54c.13,.13,.28,.29,.45,.47-.93,.44-1.58,1.15-2.12,1.88-.64,.87-1.3,1.73-1.9,2.64-.4,.6-.7,1.24-.9,1.89-.17,.59-.42,1.12-.75,1.72,.14,.92-.22,1.86-.44,2.95-.09,.09-.27,.28-.5,.51-.7-.38-1.13-.96-1.61-1.46-.16-.36-.32-.7-.42-.94Z" style="fill: #fdfdfd;"/>
  <path d="M52.69,60.68c-.15-.63,.05-1.17-.31-1.63,.2-.42,.41-.86,.62-1.29,.08-.07,.15-.17,.24-.2,.8-.3,1.45-.79,1.96-1.46,.32-.5,.33-1.18,.97-1.56,.24,.59,.04,1.19,.09,1.69-.4,.86-.66,1.69-.64,2.59,.02,.61,.14,1.27-.03,1.82-.48,1.52-.21,3.07-.32,4.6-.03,.38-.13,.74-.22,1.11-.16,.63-.11,1.31-.15,2.04-.35-.09-.69-.17-1.19-.29-.4-.4-.92-.9-1.43-1.4,.31-1.07,.84-1.95,1.66-2.61v-2.05c-.42-.45-.84-.9-1.26-1.35Z" style="fill: #f8f8f8;"/>
  <path d="M65.83,49.24c.07-.01,.18-.03,.34-.05,.23,.56,.11,1.17,.18,1.78,.07,.12,.15,.26,.28,.48-.08,.2-.18,.44-.31,.74,.07,.15,.17,.34,.27,.55-.08,.29-.19,.59-.25,.9-.05,.26,.04,.55-.19,.86-.61,.02-1.27,0-1.98,0-.17-.3-.36-.61-.57-.97,1.08-1.25,1.26-2.96,2.24-4.29Z" style="fill: #ededed;"/>
  <path d="M79.26,62.63v1.34q-.24,.26-1.24,.08c-.08-.46-.12-.92,0-1.38,.37-.24,.73-.17,1.24-.04Z" style="fill: #c1c1c1;"/>
  <path d="M65.32,61.41v-1.38c.32-.19,.6-.35,.89-.51h.82c.28,.16,.57,.32,.91,.51,.01,.29,.03,.62,.05,.91-.41,.67-1,1.02-1.8,1.24-.27-.25-.59-.53-.85-.76Z" style="fill: #0d0d0d;"/>
  <path d="M60.98,63.28v-.84c.54-.22,.63-.86,1.09-1.14,.71,.19,1.28,.53,1.41,1.44-.06,.22-.15,.57-.25,.95-.26,.15-.54,.3-.85,.47-.47-.18-1.02-.27-1.41-.89Z" style="fill: #151515;"/>
</svg>