<?xml version="1.0" encoding="UTF-8"?>
<svg id="Ebene_1" data-name="Ebene 1" xmlns="http://www.w3.org/2000/svg" width="35.28mm" height="35.28mm" viewBox="0 0 100 100">
  <path d="M6.37,22.5v-2.73c.37,.07,.59-.15,.67-.44,.07-.29,.02-.61,.02-.92v-1.06c.22-.19,.47-.4,.68-.59v-1.29c.59-1.1,2.04-1.47,2.08-2.89,.86-.86,1.74-1.7,2.57-2.59,.31-.33-.09-1.19,.8-1.12h1c.23-.21,.46-.44,.65-.62,.78-.07,1.52-.14,2.25-.22,.46-.88,1.39-.3,2.01-.67,.14-.08,.16-.36,.23-.55h2.73c.53,0,1.06,.05,1.58-.02,.31-.04,.54-.28,.47-.66h7.5c1.2,0,2.4,.02,3.59-.02,.32-.01,.57-.26,.5-.67,.41-.08,.92,.23,1.24-.23,.39-.57,.95-.45,1.49-.45,.08,.19,.15,.55,.24,.55,1.21,.04,2.41,.04,3.62,0,.08,0,.16-.36,.24-.55h15.68c-.08,.41,.18,.66,.5,.67,1.42,.04,2.85,.02,4.27,.02h4.77c-.08,.39,.16,.63,.47,.66,.52,.06,1.05,.02,1.58,.02h5.45c-.04,.58,.34,.77,.78,.66,.35-.09,.65-.39,.97-.6,.23,.21,.46,.42,.68,.62h3.71c-.08,.39,.16,.63,.47,.66,.52,.06,1.05,.02,1.58,.02,1.12,.48,2.12,1.2,3.28,1.58,.31,.68,1.19,.31,1.62,.89,.29,.39,.57,.97,1.23,.94-.11,1.06,.29,1.78,1.36,2.05,.23,.45,.45,.91,.68,1.36s.45,.91,.68,1.36c-.23,1.13,.81,1.78,1.06,2.72,0,.03,.2,0,.3,0v1.36c0,.75-.04,1.5,.02,2.25,.02,.31,.27,.56,.66,.48v1.36c-.42-.08-.63,.18-.67,.52-.05,.46,.03,.9,.67,.85v7.5c-.19,.08-.55,.15-.55,.24-.04,.98-.04,1.96,0,2.94,0,.09,.36,.16,.55,.24v26.59c-.19,.08-.39,.16-.63,.26v5.62c.24,.1,.44,.18,.63,.26v6.14c-.19,.08-.39,.16-.68,.28,0,1.07-.16,2.22,.04,3.29,.23,1.21-.84,2-.73,3.11,.08,.78-.78,1.2-.76,2.09,.02,.74-.55,1.57-1.07,2.22-.34,.44-.12,.86-.21,1.27-.47-.02-.7,.21-.68,.68-.47-.02-.7,.21-.68,.68-.47-.02-.7,.21-.68,.68-.47-.02-.7,.21-.68,.68-1.06-.11-1.78,.29-2.04,1.36-.31,0-.63-.06-.92,.02-.29,.07-.52,.3-.44,.67h-2.37c-.25,.23-.49,.46-.74,.7h-3.35c-.27,.25-.52,.47-.78,.7h-6.76l-.62,.62h-6.82c-.42,.42-.68,.82-1.42,.67-.3-.11-.54-.82-1.31-.59-.17,.15-.42,.37-.71,.62h-6.08c-.39,.35-.71,.9-1.41,.68-.22-.2-.46-.43-.7-.65h-3.32c-.44,.24-.6,.79-1.34,.64-.21-.15-.56-.4-.95-.68h-8.71c-.2-.2-.36-.36-.63-.63h-6.13l-.62-.62h-2.28c-.24,.5-.61,.68-1.16,.6-.21-.19-.46-.41-.72-.65-1.19-.1-2.42,.11-3.53-.11-.25-.27-.4-.44-.54-.59h-5.12c-.09-.7-.67-.98-1.13-1.36h-1.59c-.27-1.08-.99-1.47-2.04-1.36,.02-.47-.21-.7-.68-.68,.02-.47-.21-.7-.68-.68,.02-.47-.21-.7-.68-.68v-.68c.02-.47-.21-.7-.68-.68,.11-1.06-.29-1.78-1.36-2.05v-.68c0-.21,.08-.47-.01-.63-.46-.8-.73-1.64-.82-2.56,0-.09-.35-.14-.53-.22v-5.79c-.31-.31-.46-.46-.61-.61,.2-.32,.5-.63,.59-.98,.11-.44-.07-.84-.66-.8v-1.36c.19-.08,.38-.16,.63-.26v-12.39c-.21-.23-.43-.48-.63-.7v-16.32c.42-.39,.79-.67,.68-1.18-.08-.34-.26-.59-.68-.51v-2.05c.19-.07,.52-.12,.54-.23,.09-.41-.21-.48-.54-.45v-1.36c.19-.08,.55-.15,.55-.24,.04-1.21,.04-2.41,0-3.62,0-.08-.36-.16-.55-.24v-5.45c.4,.08,.65-.17,.67-.49,.05-.97,.02-1.94,.02-2.92ZM75.55,13.64h-2.02c-.25,.22-.48,.44-.71,.65-.27-.23-.52-.45-.78-.68h-6.77c-.31-.36-.59-.74-1.13-.64-.34,.23-.7,.47-1.01,.68h-1.81c-.22-.19-.47-.41-.76-.66h-1.34c-.21,.19-.45,.42-.71,.66h-1.34c-.25-.23-.49-.46-.71-.66h-3.38c-.27,.23-.5,.43-.71,.61-.3-.24-.55-.45-.69-.57h-5.49l-.54,.54c-.76,.11-1.53,.21-2.29-.07-.28-.38-.62-.64-1.18-.51-.21,.19-.45,.42-.71,.66-.77,0-1.57,.02-2.36-.01-.2,0-.39-.14-.58-.22-.16-.14-.32-.28-.47-.4-.25,.22-.5,.44-.68,.6h-3.42c-.35-.34-.61-.75-1.26-.62-.17,.14-.42,.34-.85,.69h-2.7c-.37,.5-.71,.76-1.27,.63-.21-.19-.45-.42-.71-.65-.75,.07-1.55-.24-2.23,.19-.2,.18-.37,.33-.55,.5h-3.34c-.28,.25-.53,.47-.79,.7h-1.3c-.44,.44-.81,.88-1.25,1.22-.23,.18-.6,.18-.81,.23-.79,1.56-1.55,3.06-2.34,4.61,0,1.08,0,2.22,0,3.35,0,.2-.11,.41-.16,.61-.16,.16-.32,.32-.5,.5v17.04c.2,.22,.43,.46,.67,.71v2.02c-.24,.25-.46,.5-.66,.71v6.11c.25,.28,.47,.53,.66,.76-.04,.86-.22,1.41-.63,2.05v8.84l.55,.55v3.56c-.24,.24-.4,.4-.57,.57-.04,.98-.08,1.97,0,2.8l.64,.64v7.91c.64,1.27,1.26,2.27,2.13,3.15,.95,.96,2.06,1.58,3.29,2.31h1.81l.67,.67h5.45l.63,.63c5.19,0,10.4,0,15.62,0,.09,0,.17,.13,.27,.21,.14,.15,.3,.31,.46,.47,1.37,0,2.73,0,4.09-.01,.08,0,.16-.15,.21-.2,.2-.17,.36-.32,.54-.48h21.05c.28-.25,.52-.47,.79-.7h5.35c.31-.26,.56-.47,.84-.7,1.52,.54,2.64-.88,4.02-.74,1.26-1.25,2.46-2.44,3.67-3.64v-8.17c.24-.26,.46-.5,.67-.72V21.37c-.92-.35-.65-1.52-1.35-2.08,.18-1.18-1.55-1.31-1.39-2.5,.02-.12-.29-.41-.43-.4-.85,.08-1.15-.63-1.6-1.08-.48-.48-1.38-.17-1.66-.97h-3.39c-.25-.24-.5-.47-.75-.7Z" style="fill: #171717;"/>
  <path d="M28.19,49.45c.23-.25,.46-.49,.67-.72,.26-.73-.46-.96-.67-1.44-.39-1.17,.98-1.97,.68-3.12,.34-1.26,1.82-1.06,2.5-1.96,.61-.81,1.42-1.46,2.15-2.19,.35-.65-.23-1.63,.76-2.09v-3.29c.59-.65,.83-1.35,.69-2.43,.3-.24,.8-.55,1.16-.97,.26-.3,.25-.84,.52-1.12,.34-.36,.26-.88,.49-1.16,.71-.86,1.56-1.61,2.3-2.36h.9c.81-.81,1.51-1.52,2.01-2.02h1.79c.26-.24,.5-.46,.76-.7h1.33c.25-.23,.5-.46,.73-.68h6.8c.17,.17,.33,.33,.49,.49,.63,.35,1.31,.11,1.97,.18,1.02,.54,2.11,.97,3.09,1.55,.73,.42,1.35,1.02,2.12,1.44,.76,.41,1.56,1.12,1.9,1.9,.63,1.43,1.8,2.68,1.73,4.38,.4,.4,.8,.8,1.25,1.25v1.96c.23,.27,.44,.52,.7,.82v1.28c.24,.26,.46,.51,.7,.77v1.35c.8,.78,1.61,1.57,2.46,2.39,.17,0,.39,0,.62,0,.39,.98,1.21,1.8,1.02,3.01,.21,.23,.43,.48,.67,.75v14.96c-.2,.22-.43,.46-.65,.7-.13,.5,.11,.82,.44,1.18,.52,.55,.18,1-.38,1.43v2.91c-.11,.48-.09,.63-.16,.68-.77,.68-.92,1.66-1.28,2.54-.08,.19-.01,.45-.01,.69-.98,1.35-2.23,2.39-3.98,3.17h-1.08c-.25,.24-.5,.47-.75,.7h-2.02c-.25,.23-.5,.46-.72,.68h-22.47l-.6-.6h-2.66c-2.01-1.27-2.14-1.32-3.67-1.56-.16-.39-.25-.83-.5-1.15-.42-.53-.91-1.02-1.44-1.44-.55-.44-.15-1.39-.98-1.66v-3.37c-.23-.26-.45-.51-.7-.78v-2.67c-.24-.25-.47-.5-.69-.74,0-4.31,0-8.62,0-12.92Zm17.33-18.73c-1.48,1.67-3.4,2.93-4.38,5.37,0,.34-.03,1.01,0,1.68,.04,.77-.18,1.56,.16,2.29,.69,.29,1.37,.56,2.04,.86,.91,.39,1.26-.87,2.17-.67,.2,.17,.45,.39,.74,.64h1.34c.2-.18,.45-.41,.71-.65h4.1c.33,.38,.68,.87,1.36,.65,.23-.21,.48-.44,.69-.63h3.4c1.03,.78,1.81,.89,2.36,.34v-2.7c-.74-.4-.54-1.37-1.13-1.9-.19-.17-.14-.6-.22-.91-.26-1.05-.58-2.19-1.5-2.73-.88-.51-1.78-1.28-2.94-1-.27-.23-.52-.45-.7-.61h-8.2Zm8.58,26.9c.5-.5,1.07-.83,1.25-1.32,.2-.52,.28-1.04,.78-1.37v-3.92c-1.35-1.35-2.62-2.63-3.64-3.65-1.13-.77-1.65,0-2.39,.44h-1.48c-1.03,1.03-1.82,1.82-2.7,2.69,0,.17,.09,.54-.02,.84-.15,.39-.46,.71-.66,.99v2.15c.84,.7,1.88,1.56,2.76,2.29v8.41c.82,.64,.69,1.93,1.72,2.32h2.66c1.09-.49,.9-1.79,1.7-2.39v-2.01c-.24-.27-.47-.52-.64-.71v-2.75c.77-.43,.64-1.14,.65-2Z" style="fill: #171717;"/>
</svg>