<?xml version="1.0" encoding="UTF-8"?>
<svg id="Ebene_1" data-name="Ebene 1" xmlns="http://www.w3.org/2000/svg" width="35.28mm" height="52.92mm" viewBox="0 0 100 150">
  <path d="M37.53,70.27v5.35c-.19,.2-.38,.4-.57,.61h-1.17c-.37-.19-.57-.47-.65-.89-.14-.69-.36-1.35-.66-2.02,0-.94-.05-1.89,.02-2.83,.05-.59-.32-1.04-.33-1.6,0-.54,.06-1.09-.28-1.6-.11-.17,.05-.51,.11-.97-.02-.11-.12-.41-.14-.72-.04-.61-.03-1.22-.04-1.83,0-.49,.02-.97-.27-1.44-.17-.27,0-.64,.25-.98,0-.5-.01-1.05,0-1.6,.01-.43,.04-.84,.22-1.28,.2-.48,.14-1.08,.21-1.74,.75-1.06,1.57-2.22,2.39-3.38,.44-.23,.87-.46,1.31-.69,.19-.1,.45-.14,.58-.3,.6-.69,1.42-1.02,2.35-1.43h1.02c.72,.31,1.35,.73,1.96,1.68,.24,.56,.59,1.41,.95,2.25,.02,.51-.1,1.08,.1,1.49,.25,.5,.12,1.11,.58,1.54v1.43c.12,.19,.2,.33,.29,.47,.04,.55,.08,1.1,.12,1.65,.47,.43,.09,1.08,.42,1.57,.16,.24,.11,.63,.15,.95,.11,.86-.11,1.75,.31,2.6,.16,.31,0,.77,.05,1.15,.03,.26,.15,.52,.25,.82-.09,.41-.19,.88-.29,1.3,.23,.48,.42,.87,.69,1.42,0,.39,0,.95,0,1.5,0,.5,.06,1.01,0,1.5-.08,.59,.35,1.04,.32,1.59-.02,.5,.03,.98,.35,1.42-.1,.2-.19,.39-.31,.63,.19,.42,.39,.86,.59,1.31-.09,.36-.19,.72-.29,1.09,.14,.2,.27,.38,.43,.62,.47,.05,.96,.02,1.45,.02,.44,0,.89,0,1.3,0,1.02,.25,1.94,.88,3.08,.55,.12-.13,.26-.29,.42-.46v-1.12c.29-.65,.54-1.26,.8-1.86,.24-.56-.08-1.27,.54-1.7-.08-.95,.19-1.83,.65-2.79v-1.3c.21-.42,.39-.76,.57-1.13-.06-.17-.13-.36-.22-.58,.26-.52,.56-1.03,.77-1.59,.19-.5,.28-1.03,.43-1.61-.36-.53-.32-1.23-.15-1.85,.11-.42,.26-.82,.32-1.26,.04-.37,.34-.69,.31-1.09,.43-.46,.26-1.05,.34-1.66,.16-.22,.35-.48,.55-.74,.18-.9,.3-1.83,.95-2.57,.1-.11,.1-.31,.15-.46,.34-1.03,.74-2.04,1.24-3.01,.32-.62,.75-1.22,.8-1.95,.5-.53,.75-1.2,1.08-1.83,.38-.73,.73-1.47,1.35-2.06,.26-.25,.39-.63,.58-.96h2.33c.33,.19,.75,.43,1.08,.61,.09,.15,.15,.2,.15,.25-.03,.71,.2,1.43-.1,2.13-.08,.19-.14,.42-.15,.63-.03,.72,.07,1.46-.07,2.16-.13,.7-.36,1.37-.34,2.1-.41,.71-.22,1.51-.33,2.26-.08,.59-.31,1.14-.35,1.76-.03,.57-.36,1.13-.61,1.83v1.29c-.23,.45-.43,.84-.65,1.27,.06,1.3-.58,2.5-.78,3.92-.53,.56-.9,1.34-1.11,2.21-.05,.21-.18,.43-.15,.63,.11,.69-.15,1.31-.36,1.92-.17,.48-.24,.95-.31,1.44-.06,.43-.31,.84-.3,1.26,.01,.69-.24,1.3-.47,1.89-.39,.96-.58,1.97-.85,2.96-.17,.63-.35,1.25-.56,1.87-.07,.2-.11,.42-.13,.64-.01,.16,.04,.32,.07,.52,.8,.15,1.6,.32,2.32,.7,.73,.38,1.43,.81,2.14,1.21,.22,.62,.95,.72,1.27,1.24,.41,.64,.82,1.28,1.19,1.85,0,1.16-.03,2.21,.01,3.27,.03,.68-.36,1.36-.03,2.04-.14,.47-.27,.94-.42,1.4-.05,.16-.17,.3-.19,.45-.06,.72-.08,1.43-.12,2.15-.46,.65-.15,1.41-.31,2.21-.25,.71-.44,1.55-.58,2.4-.1,.59,.13,1.24-.32,1.76,.21,1.07-.48,2.03-.37,3.08,.06,.57-.4,1.01-.36,1.59,.04,.54,.07,1.08-.21,1.62-.16,.32-.09,.76-.11,1.14-.04,.65,.07,1.31-.28,1.94-.12,.21-.03,.54-.04,.82-.02,.49,.09,.99-.25,1.44-.11,.15-.09,.43-.07,.64,.09,1.06-.46,2.04-.34,3.09-.42,.82-.31,1.71-.38,2.58-.03,.43-.2,.84-.31,1.26-.31,1.2-.45,2.45-.96,3.61-.15,.35-.24,.72-.4,1.07-.13,.3-.32,.57-.48,.86-1.19,.98-2.45,1.84-3.89,2.39-1.09,.91-2.53,.95-3.75,1.54-.18,.09-.43,.07-.65,.07-2.55,0-5.1,0-7.61,0-.19-.11-.33-.19-.48-.28-.49-.02-.99-.05-1.15-.05-1.2-.34-2.11-.54-2.97-.85-.92-.33-1.83-.71-2.7-1.15-.83-.42-1.6-.94-2.62-1.55,.11,.1,.02,.03-.05-.05-.53-.56-1.12-1.08-1.57-1.7-.45-.62-.56-1.41-.74-2.14-.04-.15-.17-.29-.22-.38-.18-1.18,.2-2.37-.37-3.47,0-.6,.05-1.22-.01-1.82-.11-1.09,.2-2.22-.31-3.26-.01-.89-.01-1.78-.05-2.66-.01-.26-.12-.52-.2-.82,.05-.08,.12-.23,.23-.43-.29-.45-.35-.98-.35-1.54,0-.7,.15-1.43-.26-2.1-.1-.16-.03-.43-.03-.66,0-.94,0-1.89,0-2.74-.13-.23-.22-.38-.33-.57,.06-.16,.14-.37,.22-.59-.04-.06-.1-.16-.15-.25-.27-.5,.05-1.11-.28-1.61-.3-.46-.09-.98-.13-1.46-.05-.6,.03-1.2-.3-1.77-.12-.21-.06-.54-.06-.82,0-.94,0-1.89,0-2.91-.07-.13-.18-.32-.34-.62v-1.17c-.21-.26-.38-.48-.55-.69-.28-.63,.21-1.15,.25-1.8-.08-.16-.18-.35-.31-.6v-2.37c.14-.41,.26-.77,.46-1.33,.65-.61,1.47-1.36,2.64-2.46,1.54-.87,3.69-1.63,5.82-2.35q.05-1.16-.24-1.81c-.11-.91,.12-1.88-.34-2.76-.07-.13-.02-.33-.03-.49-.03-.6,.05-1.2-.29-1.77-.13-.21,0-.55-.06-.82-.05-.31-.16-.62-.36-.91v-3.81c-.55-.49-.06-1.32-.63-1.82v-3.78c-.1-.16-.19-.3-.28-.44,.06-.09,.12-.18,.18-.27-.32-.48-.32-.97-.05-1.39-.08-.26-.18-.46-.19-.66-.02-.61,0-1.21-.02-1.82,0-.1,0-.34-.29-.19v1.51c-.17,.29-.28,.47-.38,.65,.1,.18,.18,.33,.26,.47-.07,.17-.15,.36-.22,.52,.02,.09,.01,.15,.04,.19,.08,.14,.18,.28,.27,.42v3.12c.12,.21,.22,.4,.34,.6v2.78c.26,.28,.35,.59,.36,.92Zm25.32,42.67c.08-.17,.23-.36,.25-.56,.06-.61,.12-1.22,.07-1.82-.06-.69,.45-1.24,.36-1.93-.11-.83,.45-1.58,.32-2.42,.37-.54,.37-1.16,.31-1.75-.07-.64,.42-1.12,.34-1.76-.11-.94,.31-1.83,.39-2.76,.03-.4,.41-.79,.29-1.25-.13-.49,.29-.82,.29-1.26,0-.33,.01-.67,.04-1,.03-.38,.02-.79,.15-1.13,.13-.33,.18-.65,.15-.97-.05-.37,.26-.67,.2-1.05-.22,0-.41-.05-.55,0-1.2,.51-2.46,.88-3.72,1.17-.9,.21-1.78,.57-2.73,.49-.22-.02-.49-.05-.65,.05-.56,.37-1.18,.24-1.78,.26-.72,.02-1.44,0-2.16,.02-.49,.01-.97-.05-1.45,.23-.24,.14-.67,.1-.96-.01-.32-.13-.62-.21-.95-.22-.83,0-1.67-.09-2.5,0-.91,.09-1.72-.35-2.59-.32-1.27,.04-2.48-.48-3.75-.39-.05,0-.12,0-.16-.02-.59-.44-1.3-.16-1.96-.32-.86-.43-1.79-.72-2.79-.64-.59-.53-1.35-.52-1.99-.79-.68-.29-1.36-.53-2.09-.78-.11,.41-.05,.7,.15,1,.24,.37,.16,.73-.12,1.06,.45,1.01,.69,2.06,.6,3.19-.03,.44-.12,.93,.03,1.32,.22,.58,.31,1.16,.32,1.77,.44,.51,.12,1.19,.41,1.8,.76,.19,1.01,.87,1.22,1.56-.02,.27,.09,.55,.04,.61-.48,.36-.78,.58-1.1,.82,.25,.77,.48,1.49,.71,2.2-.12,.23-.24,.47-.37,.73,.13,.27,.25,.52,.37,.77,0,.25-.02,.53,0,.81,.08,.87-.16,1.77,.33,2.59,0,.72,0,1.44,.02,2.16,.03,.71-.14,1.43,.27,2.11,.1,.16,.04,.43,.04,.66,.01,.61,0,1.22,.04,1.83,.02,.26,.13,.52,.2,.8-.05,.11-.13,.25-.25,.49,.46,.45,.31,1.08,.35,1.68,.04,.6-.07,1.27,.14,1.8,.22,.55,.11,1.09,.23,1.57,.27,.53,.52,1.02,.74,1.46,1.19,.65,2.27,1.38,3.48,1.91,.55,.24,1.04,.62,1.69,.56,.58,.41,1.31,.19,1.89,.45,.62,.27,1.27,.28,1.89,.47,.66,.21,1.43,.1,2.15,.1,1.5,0,3-.07,4.49-.03,.63,.02,1.15-.38,1.76-.33,.3,.03,.5-.21,.75-.29,1.39-.49,2.71-1.14,4.24-1.94,.18-.18,.54-.53,.89-.88-.35-.37-.66-.69-.94-.99,.12-.29,.23-.54,.32-.76,.44-.46,.85-.91,1.27-1.35v-1.17c-.53-.43-1.04-.85-1.53-1.25-.95,.01-1.18-.7-1.44-1.36,.04-.32-.12-.68,.16-.93,1.13-.38,2.11,.21,3.12,.49,.13-.19,.31-.33,.31-.46-.04-1.06,.54-2.03,.39-3.09,.23-.72,.24-1.5,.59-2.19,.04-.09,0-.21,0-.32-.07-.14-.15-.28-.25-.49Zm-4.69-33.63c-.85,1.33-.93,2.83-1.34,4.22,.21,.64-.21,1.18-.34,1.75-.23,1-.36,2.04-.99,2.95,.21,.89-.5,1.65-.36,2.46-.24,.51-.45,.95-.65,1.37,.15,.09,.24,.19,.33,.19,.83,.01,1.66,0,2.51,0,.17-.17,.33-.33,.49-.48v-2.79c.23-.47,.42-.86,.61-1.24-.08-.15-.15-.3-.26-.53,.41-.53,.3-1.35,.95-1.76,.03-.57-.09-1.13,.11-1.55,.42-.91,.24-1.84,.32-2.74,.18-.36,.44-.69,.51-1.05,.18-.9,.42-1.79,.7-2.66,.03-.1,.08-.21,.09-.31,0-.44,0-.89,0-1.28,.24-.3,.45-.56,.71-.88-.28-.8,.08-1.59,.32-2.36,.15-.47,.29-.93,.34-1.42,.05-.48,.22-.95,.31-1.43,.02-.1-.04-.21-.07-.38-.28-.08-.61-.12-.9-.26-.31-.15-.59-.28-.99-.12-.24,.62-.48,1.28-.74,1.93-.28,.71-.28,1.49-.6,2.19-.11,.23-.01,.56-.08,.82-.21,.73-.21,1.52-.46,2.22-.35,.99-.58,1.98-.53,3.13Zm-18.1,4.99c-.2,.04-.36,.05-.5,.1-.96,.37-1.9,.79-2.87,1.11-.67,.22-1.3,.44-1.88,.9-.56,.44-1.17,.8-1.63,1.38v.99c.3,.26,.55,.64,.88,.73,.44,.13,.8,.29,1.15,.59,.15,.13,.41,.12,.61,.19,.81,.3,1.69,.39,2.48,.72,.71,.29,1.48,.31,2.18,.58,.19,.07,.44,.06,.65-.23,.12-.81-.8-1.7-.08-2.51-.11-.42-.13-.82-.32-1.12-.22-.34,.15-.67-.14-1.03-.25-.3-.05-.83-.29-1.25-.18-.3-.15-.72-.23-1.14Zm8.83-.38c0,.49-.12,.89,.03,1.12,.29,.47,.26,.95,.27,1.44,0,.17-.05,.37,.03,.49,.43,.65,.22,1.39,.32,2.06,.12,.21,.23,.4,.3,.52v2.12c.16,.28,.34,.6,.5,.88,.81,.11,1.46-.18,2.13-.44,.02-.39-.06-.81,.08-1.14,.21-.52,.37-1.02,.33-1.58-.01-.15,.09-.3,.15-.45,.3-.87,.63-1.75,.47-2.55,.25-.74,.46-1.35,.67-1.99-.53-.16-.99-.3-1.57-.48-.5,0-1.15,.14-1.7-.04-.68-.22-1.25,.1-2,.04Zm14.23,2.86c-.66-.2-1.03-.28-1.38-.42-.27-.11-.52-.15-.76-.03-.57,.61-.29,1.5-.74,2.15-.11,.16-.06,.43-.08,.65-.08,.76-.3,1.48-.53,2.2-.07,.22-.16,.4,.09,.61,.56-.04,1.15,.05,1.75-.15,1.34-.43,2.65-.95,3.95-1.5,.14-.06,.27-.16,.4-.23v-1.21c-.71-1.16-1.95-1.41-2.69-2.06Z" style="fill: #020202;"/>
  <path d="M37.53,70.27c0-.34-.09-.65-.36-.92v-2.78c-.11-.2-.22-.39-.34-.6v-3.12c-.1-.14-.19-.28-.27-.42-.03-.04-.02-.1-.04-.19,.07-.16,.15-.35,.22-.52-.08-.15-.16-.29-.26-.47,.11-.18,.21-.36,.38-.65v-1.51c.3-.15,.29,.09,.29,.19,.02,.61,0,1.21,.02,1.82,0,.21,.11,.41,.19,.66-.28,.42-.27,.91,.05,1.39-.06,.09-.13,.19-.18,.27,.09,.14,.18,.28,.28,.44v3.78c.56,.5,.08,1.34,.63,1.82v1.49c-.21-.06-.29-.2-.32-.42-.02-.1-.18-.17-.28-.25Z" style="fill: #929292;"/>
  <path d="M62.84,112.94c.11,.2,.18,.35,.25,.49,0,.11,.04,.24,0,.32-.35,.69-.36,1.47-.59,2.19,.15,1.06-.44,2.04-.39,3.09,0,.13-.17,.27-.31,.46-1.01-.28-1.98-.87-3.12-.49-.28,.25-.12,.61-.16,.93,.26,.67,.49,1.37,1.44,1.36,.49,.4,1,.82,1.53,1.25v1.17c-.42,.44-.83,.88-1.27,1.35-.09,.22-.2,.47-.32,.76,.29,.3,.59,.62,.94,.99-.35,.35-.7,.7-.89,.88-1.53,.8-2.85,1.45-4.24,1.94-.25,.09-.45,.32-.75,.29-.61-.05-1.13,.35-1.76,.33-1.5-.04-3,.02-4.49,.03-.72,0-1.49,.11-2.15-.1-.62-.2-1.28-.2-1.89-.47-.58-.26-1.32-.04-1.89-.45-.65,.06-1.14-.32-1.69-.56-1.2-.52-2.29-1.26-3.48-1.91-.23-.44-.47-.93-.74-1.46-.12-.48,0-1.02-.23-1.57-.22-.53-.1-1.19-.14-1.8-.04-.6,.11-1.23-.35-1.68,.12-.24,.2-.39,.25-.49-.07-.28-.19-.54-.2-.8-.04-.61-.02-1.22-.04-1.83,0-.22,.06-.49-.04-.66-.41-.67-.25-1.4-.27-2.11-.03-.72-.02-1.44-.02-2.16-.49-.81-.25-1.72-.33-2.59-.03-.28,0-.55,0-.81-.12-.26-.24-.5-.37-.77,.13-.26,.25-.5,.37-.73-.23-.72-.46-1.43-.71-2.2,.33-.24,.62-.46,1.1-.82,.05-.06-.06-.34-.04-.61-.22-.69-.46-1.37-1.22-1.56-.29-.61,.03-1.29-.41-1.8-.02-.61-.1-1.18-.32-1.77-.15-.39-.07-.88-.03-1.32,.09-1.12-.15-2.17-.6-3.19,.28-.33,.36-.69,.12-1.06-.2-.3-.26-.59-.15-1,.73,.24,1.41,.49,2.09,.78,.64,.27,1.4,.25,1.99,.79,1-.07,1.93,.22,2.79,.64,.67,.15,1.37-.13,1.96,.32,.04,.03,.11,.02,.16,.02,1.27-.09,2.48,.43,3.75,.39,.87-.03,1.69,.41,2.59,.32,.82-.08,1.66,0,2.5,0,.33,0,.63,.09,.95,.22,.28,.11,.71,.15,.96,.01,.48-.28,.96-.22,1.45-.23,.72-.02,1.44,0,2.16-.02,.6-.02,1.21,.11,1.78-.26,.16-.1,.43-.07,.65-.05,.96,.09,1.84-.28,2.73-.49,1.27-.29,2.52-.66,3.72-1.17,.14-.06,.32,0,.55,0,.07,.38-.24,.69-.2,1.05,.04,.32-.02,.64-.15,.97-.13,.34-.12,.75-.15,1.13-.03,.33-.04,.66-.04,1,0,.44-.42,.77-.29,1.26,.12,.46-.26,.84-.29,1.25-.08,.93-.5,1.82-.39,2.76,.07,.64-.41,1.13-.34,1.76,.06,.59,.07,1.22-.31,1.75,.13,.84-.43,1.59-.32,2.42,.09,.68-.42,1.24-.36,1.93,.05,.6-.01,1.22-.07,1.82-.02,.2-.17,.39-.25,.56Zm-8.57-6.4c.38-.29,.96-.31,1.17-.83v-1.01c-.28-.26-.57-.52-.81-.74-.55-.03-1.05-.06-1.57-.09-.41-.19-.85-.4-1.28-.6-.45,.31-1.1,.33-1.27,1.03,.25,.37,.52,.78,.8,1.2,.85,.52,1.7,1.12,2.96,1.04Zm-12.95,13.71c-.37,.89-.75,1.78-1.16,2.76v1.03c.29,.38,.54,.74,1.03,.86,1.22-.7,1.83-1.83,2.26-2.99v-.9c-.31-.28-.59-.54-.83-.76h-1.3Zm-4.07-17.45c1.24-.15,1.52-1.22,2.11-1.97,.46-.57,.59-1.28,.42-2.19-.08-.09-.26-.29-.4-.43-.57,.03-1,.05-1.31,.06-.99,.7-.72,1.95-1.55,2.51-.02,.62-.08,1.16,.03,1.64,.32,.17,.56,.29,.7,.37Zm18.96,.58c.36,.53,.87,.7,1.38,.85,.7-.37,1-.99,1.23-1.68v-2.43c-.32-.34-.55-.73-.99-.84-1.16,.47-1.2,1.61-1.61,2.55v1.56Zm-20.37,3.71v2.9c.32,.46,.37,1.02,.98,1.28,.28-.03,.65-.06,.97-.1q.66-1.09,.66-2.01c-.18-.36-.39-.69-.51-1.05-.12-.35-.14-.73-.19-1.07-.78-.41-.78-.4-1.45-.4-.14,.13-.3,.28-.47,.44Zm4.52-3.14h-2.04c-.18,.19-.33,.35-.51,.55,.02,.41,.04,.84,.05,1.11,.77,.7,1.54,1.07,2.26,1.27h1.57c.18-.2,.32-.36,.5-.57-.17-.34-.28-.73-.51-1-.42-.5-.92-.95-1.33-1.36Zm22.18,1.07c.07-.08,.29-.26,.44-.48,.21-.31,.36-.66,.51-.94-.03-.39,.1-.74-.26-1.02h-1.4c-.99,.53-2.07,.87-2.67,1.93,.01,.19,.02,.4,.03,.55,.38,.55,.92,.67,1.31,.83,.65-.28,1.2-.51,2.04-.87Zm-20.11,10.57c.42,.49,.4,1.09,1,1.34,.14-.01,.35-.03,.59-.06,.27-.55,.54-1.09,.79-1.58v-1.99c-.35-.33-.74-.71-1.12-1.07-.28,.02-.5,.03-.76,.05-.29,.25-.58,.5-.69,.6-.24,1.11,.48,1.83,.19,2.71Zm11.58-4.34c1.19-.36,1.79-1.16,2.45-1.87v-1.73c-.54-.01-.83-.59-1.57-.33-.23,.38-.87,.63-1.06,1.24-.19,.58-.99,.76-.95,1.56,.34,.34,.73,.73,1.13,1.13Zm-5.24,10.83c-.47-1.07-1.32-1.77-2.15-2.5h-.91c-.28,.27-.59,.57-.86,.83v.61c.64,.72,1.3,1.45,1.99,2.22,.38,0,.82,.13,1.34-.13,.18-.3,.39-.67,.6-1.03Zm-.78-6.88c-.87,.47-1.87,.69-2.45,1.6v.98c.16,.17,.3,.33,.39,.42h2.08c.58-.48,1.11-.95,1.49-1.51,0-.23,0-.39,0-.56-.27-.56-.84-.66-1.5-.93Zm13.17-5.5c-.31-.74-.6-1.44-.92-2.21-.38-.19-.81-.41-1.16-.58-.68,.09-.95,.52-1.25,.93v.8c.38,.78,.81,1.48,1.56,1.93h.97c.27-.3,.53-.58,.79-.86Zm-20.19,9.29c.43-.22,.81-.41,1.17-.59v-1.03c-.41-.39-.8-.77-1.15-1.1h-2.04c-.17,.19-.32,.35-.45,.48v.72c.43,.32,.85,.66,1.3,.95,.31,.2,.67,.34,1.16,.58Z" style="fill: #fff;"/>
  <path d="M58.16,79.3c-.05-1.15,.18-2.14,.53-3.13,.25-.71,.25-1.49,.46-2.22,.07-.26-.02-.58,.08-.82,.33-.7,.32-1.48,.6-2.19,.26-.65,.5-1.31,.74-1.93,.4-.16,.68-.03,.99,.12,.28,.14,.61,.18,.9,.26,.03,.16,.09,.28,.07,.38-.1,.48-.26,.94-.31,1.43-.05,.5-.19,.95-.34,1.42-.24,.77-.6,1.55-.32,2.36-.26,.32-.47,.58-.71,.88,0,.4,0,.84,0,1.28,0,.11-.05,.21-.09,.31-.28,.88-.52,1.76-.7,2.66-.07,.36-.33,.69-.51,1.05-.08,.9,.1,1.83-.32,2.74-.19,.42-.08,.98-.11,1.55-.65,.41-.54,1.23-.95,1.76,.11,.23,.18,.38,.26,.53-.19,.38-.38,.77-.61,1.24v2.79c-.16,.16-.31,.31-.49,.48-.85,0-1.68,0-2.51,0-.09,0-.18-.1-.33-.19,.2-.43,.41-.86,.65-1.37-.14-.82,.57-1.57,.36-2.46,.63-.91,.77-1.95,.99-2.95,.13-.57,.55-1.11,.34-1.75,.41-1.39,.49-2.89,1.34-4.22Z" style="fill: #fcfcfc;"/>
  <path d="M40.05,84.29c.07,.41,.05,.83,.23,1.14,.24,.42,.04,.95,.29,1.25,.3,.36-.07,.69,.14,1.03,.19,.3,.21,.71,.32,1.12-.72,.81,.21,1.7,.08,2.51-.21,.3-.46,.3-.65,.23-.71-.27-1.47-.29-2.18-.58-.79-.32-1.67-.42-2.48-.72-.2-.07-.46-.06-.61-.19-.34-.3-.71-.46-1.15-.59-.33-.1-.59-.48-.88-.73v-.99c.46-.58,1.07-.94,1.63-1.38,.58-.46,1.21-.68,1.88-.9,.97-.32,1.91-.74,2.87-1.11,.14-.05,.29-.06,.5-.1Z" style="fill: #fdfdfd;"/>
  <path d="M48.89,83.91c.76,.06,1.33-.26,2-.04,.55,.18,1.2,.04,1.7,.04,.58,.18,1.04,.32,1.57,.48-.22,.65-.42,1.25-.67,1.99,.16,.8-.17,1.67-.47,2.55-.05,.15-.16,.31-.15,.45,.04,.56-.11,1.06-.33,1.58-.14,.33-.06,.75-.08,1.14-.67,.26-1.32,.54-2.13,.44-.16-.27-.34-.59-.5-.88v-2.12c-.07-.13-.18-.31-.3-.52-.1-.67,.11-1.41-.32-2.06-.08-.12-.03-.32-.03-.49,0-.49,.02-.97-.27-1.44-.15-.24-.03-.63-.03-1.12Z" style="fill: #fcfcfc;"/>
  <path d="M63.11,86.76c.74,.65,1.98,.9,2.69,2.06v1.21c-.13,.08-.25,.17-.4,.23-1.3,.55-2.6,1.07-3.95,1.5-.6,.19-1.19,.1-1.75,.15-.25-.21-.16-.38-.09-.61,.23-.72,.46-1.44,.53-2.2,.02-.22-.03-.49,.08-.65,.44-.65,.17-1.53,.74-2.15,.25-.12,.49-.08,.76,.03,.35,.14,.72,.22,1.38,.42Z" style="fill: #fbfbfb;"/>
  <path d="M54.27,106.54c-1.27,.08-2.12-.52-2.96-1.04-.28-.42-.55-.83-.8-1.2,.17-.7,.82-.72,1.27-1.03,.43,.2,.87,.41,1.28,.6,.52,.03,1.02,.06,1.57,.09,.25,.23,.53,.48,.81,.74v1.01c-.21,.53-.79,.54-1.17,.83Z" style="fill: #0a0a0a;"/>
  <path d="M41.32,120.25h1.3c.25,.22,.53,.48,.83,.76v.9c-.44,1.15-1.05,2.29-2.26,2.99-.49-.12-.74-.48-1.03-.86v-1.03c.41-.98,.79-1.87,1.16-2.76Z" style="fill: #0a0a0a;"/>
  <path d="M37.26,102.8c-.15-.08-.39-.2-.7-.37-.11-.48-.05-1.02-.03-1.64,.83-.55,.56-1.81,1.55-2.51,.3-.01,.73-.04,1.31-.06,.14,.15,.32,.34,.4,.43,.17,.91,.04,1.61-.42,2.19-.59,.75-.88,1.82-2.11,1.97Z" style="fill: #090909;"/>
  <path d="M56.22,103.38v-1.56c.4-.94,.45-2.08,1.61-2.55,.45,.11,.68,.5,.99,.84v2.43c-.22,.69-.53,1.31-1.23,1.68-.51-.14-1.02-.31-1.38-.85Z" style="fill: #0c0c0c;"/>
  <path d="M35.84,107.09c.17-.16,.33-.31,.47-.44,.66,0,.67,0,1.45,.4,.06,.34,.08,.72,.19,1.07,.12,.36,.33,.69,.51,1.05q0,.92-.66,2.01c-.32,.03-.69,.07-.97,.1-.61-.26-.66-.82-.98-1.28v-2.9Z" style="fill: #0b0b0b;"/>
  <path d="M40.36,103.95c.41,.41,.9,.85,1.33,1.36,.23,.28,.34,.66,.51,1-.18,.2-.32,.36-.5,.57h-1.57c-.72-.2-1.49-.57-2.26-1.27-.01-.27-.03-.7-.05-1.11,.18-.19,.33-.35,.51-.55h2.04Z" style="fill: #0a0a0a;"/>
  <path d="M62.54,105.02c-.85,.36-1.39,.59-2.04,.87-.39-.16-.92-.28-1.31-.83,0-.15-.02-.36-.03-.55,.6-1.06,1.68-1.4,2.67-1.93h1.4c.36,.28,.23,.63,.26,1.02-.15,.28-.31,.63-.51,.94-.15,.23-.37,.41-.44,.48Z" style="fill: #0c0c0c;"/>
  <path d="M42.43,115.6c.29-.89-.43-1.61-.19-2.71,.12-.1,.41-.35,.69-.6,.26-.02,.47-.03,.76-.05,.38,.36,.77,.74,1.12,1.07v1.99c-.25,.5-.51,1.03-.79,1.58-.24,.02-.45,.04-.59,.06-.6-.25-.58-.85-1-1.34Z" style="fill: #0c0c0c;"/>
  <path d="M54.01,111.26c-.41-.41-.79-.79-1.13-1.13-.04-.8,.76-.98,.95-1.56,.2-.61,.83-.85,1.06-1.24,.74-.26,1.04,.32,1.57,.33v1.73c-.66,.71-1.26,1.52-2.45,1.87Z" style="fill: #0a0a0a;"/>
  <path d="M48.77,122.09c-.21,.36-.43,.73-.6,1.03-.51,.26-.95,.12-1.34,.13-.69-.77-1.34-1.5-1.99-2.22v-.61c.27-.26,.58-.56,.86-.83h.91c.83,.73,1.68,1.43,2.15,2.5Z" style="fill: #0a0a0a;"/>
  <path d="M47.99,115.2c.67,.28,1.24,.37,1.5,.93,0,.17,0,.33,0,.56-.38,.56-.91,1.03-1.49,1.51h-2.08c-.09-.09-.23-.25-.39-.42v-.98c.58-.92,1.58-1.13,2.45-1.6Z" style="fill: #0e0e0e;"/>
  <path d="M61.16,109.7c-.26,.28-.52,.56-.79,.86h-.97c-.75-.45-1.18-1.16-1.56-1.93v-.8c.3-.41,.57-.84,1.25-.93,.35,.17,.78,.39,1.16,.58,.32,.77,.61,1.47,.92,2.21Z" style="fill: #0c0c0c;"/>
  <path d="M40.97,119c-.49-.24-.84-.37-1.16-.58-.45-.29-.87-.63-1.3-.95v-.72c.13-.14,.27-.29,.45-.48h2.04c.35,.34,.74,.71,1.15,1.1v1.03c-.37,.19-.75,.38-1.17,.59Z" style="fill: #090909;"/>
</svg>