<?xml version="1.0" encoding="UTF-8"?>
<svg id="Ebene_1" data-name="Ebene 1" xmlns="http://www.w3.org/2000/svg" width="35.28mm" height="52.92mm" viewBox="0 0 100 150">
  <path d="M63.17,14.96c.28,.16,.72,.31,1.02,.6,.31,.3,.78,.34,1.02,.8,.18,.35,.67,.53,.98,.84,.94,.93,2.02,1.67,3.09,2.43,.68,.48,1.31,.98,1.91,1.55,1.08,1.02,2.19,2,3.5,2.76h13.44c.24-.1,.43-.19,.63-.28,.47,.18,.92,.42,1.44,.26,.31,.29,.59,.55,.87,.81-.39,.55-.29,1.06,.02,1.53q-.31,.89,.02,1.74c.1,.51-.45,.9-.28,1.43,.55,1.73,.2,3.51,.27,5.26,.07,1.72,.02,3.44,.03,5.16,0,4.22,0,8.44,.02,12.66,0,.32,.11,.64,.17,.95-.05,.29-.26,.69-.14,.91,.45,.82,.24,1.59-.02,2.35,.09,.16,.17,.31,.3,.53-.42,.59-.29,1.32-.3,2.01,.08,.43,.49,.79,.2,1.26-.37,.57-.18,1.14,0,1.68-.07,.13-.13,.22-.21,.37,.2,.47,.29,.99,.29,1.55,0,5.72,.03,11.44,.05,17.15,0,.54-.11,1.11,.29,1.62-.09,.24-.18,.49-.31,.84,.32,.64,.3,1.4,.3,2.17,0,6.27,.02,12.55,.06,18.82,0,.65-.16,1.33,.15,1.97,.05,.1-.1,.28-.11,.42-.02,.44-.16,.95,.02,1.3,.25,.49-.22,.83-.06,1.24,.08,.2,.18,.4,.3,.67v10.01c.12,.22,.2,.36,.32,.57-.09,.2-.2,.45-.3,.69,0,2.39,.03,4.78-.03,7.16-.01,.47,.35,.87,.09,1.39-.18,.37-.09,.86-.12,1.17-.36,.8-1.17,.52-1.57,.99-4.59,0-9.14,0-13.7,0-.65,0-1.32-.13-1.94,.25-.21,.12-.54,.03-.82,.03-15.05,.02-30.09,.03-45.14,.06-.82,0-1.65-.14-2.44,.24-.23,.11-.55,.02-.83,.02-1.33,0-2.67,.02-4,0-.6,0-1.2,.11-1.78-.23-.2-.12-.6-.12-.81,0-.63,.35-1.29,.25-1.94,.26-1.5,0-3,.01-4.5-.01-.71-.01-1.41,.07-2.12-.23-.42-.18-.98-.03-1.39-.03-.38-.23-.66-.39-.92-.55-.19-.77,.15-1.59-.4-2.19,.13-.24,.21-.38,.28-.5-.1-.45-.24-.86-.26-1.29-.04-.72,.03-1.45-.02-2.16-.07-.92,.22-1.87-.2-2.79-.1-.23,.18-.6,.18-.91,.03-2.33,.04-4.66,.02-7,0-.31-.16-.62-.27-1.05,.04-.08,.14-.28,.27-.55v-6.72c.33-.53,.46-1.04,.02-1.56v-5.1c.12-.29,.23-.53,.31-.73-.13-.22-.22-.36-.33-.54,.13-1.05-.17-2.17,.24-3.28-.2-.29-.36-.69-.09-1.02,.23-.29-.16-.5,0-.73,.18-.24,.17-.51,.18-.79,.02-.3-.16-.52-.24-.78-.08-.25-.13-.59-.02-.81,.19-.39,.04-.69-.01-1.05-.04-.25,.1-.52,.18-.84-.04-.07-.11-.22-.2-.39,.05-.14,.1-.29,.17-.51-.16-.45-.33-.97,.12-1.45-.05-.64,.18-1.32-.25-1.92,.08-.15,.16-.29,.24-.45-.09-.25-.18-.5-.3-.83,.08-.26,.18-.57,.3-.97v-1.57c-.07-.37-.47-.74-.24-1.08,.24-.36,.01-.69,.13-1.04,.14-.4,.11-.87,.13-1.3,.01-.39-.01-.78-.01-1.17,0-.5,0-1,0-1.5-.09-.19-.18-.39-.27-.58,.11-.32,.22-.63,.32-.91-.14-.34-.25-.64-.39-.99,.12-.24,.23-.48,.36-.73v-2.15c-.09-.15-.18-.3-.28-.47,.04-.48,.57-.97,.09-1.49,.07-.37,.23-.74,.2-1.09-.08-.87,.21-1.77-.22-2.61,.11-.41,.25-.8,.24-1.25-.04-1.11-.01-2.22,0-3.33,0-3.78,.01-7.55,0-11.33,0-.45,.02-.88,.32-1.32-.08-.17-.25-.36-.25-.56,0-1.2-.24-2.42,.16-3.61,.08-.25,.06-.54,.06-.82,0-.94,0-1.89,0-2.76-.12-.26-.21-.46-.28-.62,.11-.25,.2-.45,.28-.64-.1-.47-.49-.91-.1-1.41,.04-.05,0-.19-.03-.28-.2-.48-.14-.97-.12-1.45,.09-.16,.17-.31,.28-.52v-8.05q.64-.83,2.35-1.65h5.02c.21-.12,.35-.2,.56-.31,.21,.08,.46,.17,.77,.28,.16-.07,.35-.17,.57-.27,.48,0,.98,0,1.48,0,.1,.05,.2,.1,.36,.18,.14-.05,.33-.17,.52-.18,.55-.03,1.11,0,1.76,0,.11,.06,.31,.15,.58,.29,.19-.05,.45-.11,.71-.18,.16-.04,.33-.15,.47-.12,.47,.11,.91,.09,1.38,.02,.47-.07,.99-.11,1.47,.11,.08,.04,.21,.07,.28,.03,.69-.33,1.42-.13,2.18-.23,.73-.59,1.5-1.2,2.27-1.83,.72-.59,1.43-1.21,2.15-1.8,.3-.24,.61-.47,.93-.66,.62-.37,1.13-.87,1.68-1.32,1.26-1.05,2.53-2.09,3.88-3.03,.14-.09,.28-.18,.4-.29,.97-.98,2.15-1.69,3.22-2.55,1.24-.99,2.54-1.9,3.83-2.82,.62-.44,1.27-.85,1.87-1.32,.87-.68,1.88-1.12,2.89-1.66h.85c.22,.18,.44,.47,.73,.58,.55,.21,.87,.68,1.32,.98,.45,.3,.97,.51,1.41,.82,.89,.64,1.76,1.31,2.63,1.98,1.04,.79,2.06,1.62,3.18,2.32,.31,.19,.53,.52,.99,.98Zm25.98,35.35c-.4-.57-.32-1.14-.32-1.68,0-3.11,0-6.22-.01-9.33,0-3.22,0-6.44-.04-9.66,0-.99,.05-1.99-.05-2.92-.18-.17-.3-.28-.42-.39-1.73,0-3.45-.02-5.17,.01-.37,0-.73,.18-1.18,.29h-12.2c-.24,.12-.43,.22-.59,.31-.72-.28-1.38-.4-2.11-.11-.57,.23-1.22,.26-1.78,.03-.56-.23-1.03-.28-1.58,0-.23,.12-.53,.14-.8,.14-2.5,0-4.99-.03-7.49-.02-3.83,0-7.66,.02-11.49,.03-.17,0-.37-.06-.49,.01-.72,.42-1.51,.25-2.27,.26-1.89,.03-3.78,.01-5.66,.01-3.5,0-6.99,0-10.46,0-.55,.59-1.05,.25-1.6,.04H10.95c-.14,.29-.27,.58-.34,.73,.07,.44,.17,.76,.17,1.08,0,.43,.12,.89-.19,1.28,.29,.44,.2,.94,.2,1.43,0,.78,0,1.55,.01,2.33,0,.44,.02,.86-.21,1.29-.14,.26-.16,.71-.03,.96,.26,.48,.23,.96,.23,1.45,0,3,0,6,0,9,0,1.72,0,3.44,0,5.16,0,.26-.11,.52-.18,.84,.44,.71,.13,1.5-.09,2.2,.13,.23,.2,.37,.27,.48v2.81c-.12,.24-.21,.44-.28,.6,.11,.26,.2,.46,.3,.67v3.08c-.12,.26-.22,.45-.25,.52,.11,.45,.26,.77,.24,1.08-.03,.64,.16,1.3-.19,1.91,.25,.28,.22,.62,.2,.95-.02,.38-.02,.78-.14,1.13-.13,.36,.28,.58,.14,.91-.08,.2-.14,.41-.19,.55,.07,.36,.18,.67,.18,.99,.01,2,0,4,0,6,0,1.28,.02,2.55,.03,3.83,0,1.22,.04,2.44-.02,3.66-.06,1.26,.23,2.54-.28,3.78,.09,.19,.18,.38,.3,.63-.1,.43,.07,.93-.2,1.41-.11,.2-.06,.52-.03,.78,.03,.26,.18,.52,.19,.78,.03,.89,.04,1.78,.03,2.67,0,.32-.02,.67-.15,.97-.16,.39-.23,.73,0,1.1,.19,.31,.17,.62,0,.94-.04,.08-.08,.2-.05,.28,.4,1.3,.11,2.64,.15,3.95,.01,.3-.16,.62-.25,.9,.07,.12,.17,.22,.17,.32,.05,1.88,.09,3.76,.13,5.59-.32,.43-.48,.94-.3,1.3,.44,.87,.24,1.68,0,2.44,.12,.23,.19,.37,.28,.54v8.45c-.1,.17-.18,.32-.29,.51v1.81c.07,.12,.14,.27,.22,.42q-.28,.83,0,1.68c-.08,.15-.16,.3-.23,.44,.04,1.55-.04,3.09,0,4.69,.57,.08,1.06,.04,1.55,.04,.5,0,1,0,1.5-.01,.49,0,.99,0,1.4,0,.65-.63,.64-.63,.87-1.27,.11-.31,.24-.61,.4-.9,.67-1.25,1.37-2.49,2.04-3.74,.44-.83,.89-1.64,1.51-2.28,.03-.23,0-.44,.09-.55,.61-.72,.97-1.58,1.34-2.43,.11-.25,.21-.54,.41-.71,.81-.72,1.09-1.78,1.77-2.59,.23-.28,.33-.66,.45-.92-.49-.65-.91-1.22-1.34-1.8,.03-.69-.09-1.41,.13-2,.32-.84,.08-1.48-.3-2.16-.35-.27-.59-.7-1.1-.67-3.03,1.99-2,1.53-5.01,2.32-.32-.13-.67-.27-1.06-.43-.56-.57-1.17-1.15-1.73-1.76-.22-.24-.33-.56-.51-.83-.89-1.32-.97-2.77-.58-4.25,.22-.83,.6-1.63,.79-2.46,.2-.88,.55-1.64,1.04-2.37,.49-.74,.83-1.67,1.04-2.72,.05-.26,.19-.5,.32-.81,0-.15,.02-.38,0-.6-.12-.9,.11-1.75,.4-2.57,.11-.31,.21-.6,.25-.94,.05-.37,.25-.71,.35-1.08,.05-.21,.03-.43,.04-.6,.32-.5,.86-.85,.48-1.57-1.3-.83-2.51-1.83-3.2-3.28v-2.03c.62-1.41,1.51-2.59,2.5-3.69,.58-.64,.93-1.51,1.8-1.87,.36-.92,1.21-1.21,2.01-1.6-.52-.43-1.16-.11-1.74-.35-.58-.24-1.26-.33-1.87-.53-.57-.18-1.09-.51-1.63-.77-.59-.51-1.1-1.07-1.36-1.84v-2.48c.36-.38,.7-.74,.99-1.04,.74-.51,1.59-.65,2.2-1.19-.08-.35-.14-.65-.21-.96-.09-.37-.2-.73-.3-1.08v-1.39c.17-.63,.27-.99,.37-1.35-.21-.19-.38-.33-.51-.45-.43-.05-.81-.1-1.16-.15-.26-.29-.49-.53-.71-.78,.09-.33,.26-.65,.26-.95,0-.72,.36-1.25,.79-1.75,.4-.46,.81-.92,1.28-1.3,1.38-1.11,2.87-1.99,4.69-2.16,.32-.03,.62-.17,1.06-.3,.48,0,1.09-.02,1.7,0,.59,.03,1.11,.54,1.74,.23,.64-.52,1.17-1.15,1.85-1.64,.67-.49,1.55-.58,2.11-1.24,.45-.02,.89-.04,1.33-.06,.18-.16,.34-.3,.52-.47v-1.99c.19-.83,.78-1.45,1.12-2.18,.36-.76,1.02-1.28,1.45-1.98,.79-.38,1.32-1.14,2.2-1.42,.77-.25,1.5-.64,2.19-.95h3.05c.56,.29,1.09,.57,1.55,.81,.15,.5,.27,.91,.38,1.3-.57,.78-1.36,1.3-1.85,2.04,.51,.32,.98,.6,1.42,.91,.48,.34,.94,.72,1.34,1.03-.09,.39-.2,.71-.21,1.03-.02,.38-.23,.6-.55,.83-.85-.05-1.62,.58-2.49,.38-.31,.23-.56,.57-.85,.6-1.12,.14-1.83,.94-2.71,1.5,.11,.17,.19,.3,.28,.43,.84,1.08,1.65,2.18,2.18,3.47,.05,.12,.22,.18,.33,.26,.92-1.46,1.83-2.89,2.73-4.33,.35-.56,.6-1.19,1.03-1.68,.95-1.08,1.43-2.46,2.39-3.53,.19-.79,.8-1.3,1.29-1.89,.25-.29,.51-.58,.72-.9,.21-.31,.71-.35,.74-.81,.57-.6,1.07-1.28,1.81-1.62,.52-.82,1-1.61,1.52-2.38,.18-.27,.43-.58,.71-.68,.62-.21,.88-.84,1.48-1.09,.46,0,.96,0,1.46,0,.05,0,.09,.05,.21,.12,.1,.11,.24,.27,.37,.41,.04,.36,.07,.68,.1,.98,.63,.29,1.27-.06,1.96,.31,.18,.31,.41,.73,.61,1.07v1.41c-.19,.42-.38,.81-.58,1.24,.3,.22,.61,.44,.91,.65,.05,.22,.08,.44,.15,.65,.06,.2,.15,.39,.15,.41-.45,1.66-1.64,2.53-2.63,3.56-.92,.44-1.53,1.26-2.27,1.91-.78,.69-1.57,1.37-2.24,1.95-.34,.7-.55,1.28-.87,1.78-.35,.55-.56,1.18-.95,1.72-.34,.47-.45,1.1-.71,1.64-.28,.59-.64,1.15-.91,1.75-.25,.54-.75,.96-.77,1.6-.41,.45-.65,1-.92,1.54-.28,.58-.75,1.09-.96,1.69-.2,.58-.46,1.09-.82,1.59-.37,.53-.6,1.16-.91,1.73-.29,.53-.61,1.04-.96,1.62,.07,.26,.16,.57,.33,1.17,0,.25,0,.8,0,1.36,0,.5,.02,1,.02,1.5,.43,.43,.2,1.06,.41,1.52,.51,.21,1.01,.04,1.49,.35,.32,.21,.84,.06,1.25,.33,.41,.27,.88,.44,1.37,.67,.36-.42,.8-.81,1.14-1.33,.58-.87,1.35-1.6,2.36-1.93,.42,0,.81-.09,1.34,.18,.23,.22,.59,.57,.86,.82,.14,.91,.66,1.59,.27,2.58-.5,.84-.58,2.15-1.52,2.91v1.6c.7,.71,.6,1.83,1.41,2.77,.74-1.45,1.82-2.49,2.98-3.36,1.21-.91,2.62-1.54,3.94-2.3v-1.21c-.21-.54-.37-.94-.51-1.32-.8-.03-1.57-.09-2.15,.22-.4-.11-.66-.24-.92-.24-1.02,0-1.8-.41-2.39-1.23v-.78c.23-.56,.47-1.06,.65-1.57,.19-.55,.56-1.09,.2-1.68-.97,.4-1.92,.8-2.9,1.2h-1.09c-.9-.56-1.13-1.5-1.56-2.38,0-.4-.02-.84,0-1.29,.03-.73,.24-1.38,.77-1.93,.34-.35,.61-.77,.91-1.16,.48-.44,1.27-.42,1.67-1.11v-2.13c.4-.95,.81-1.9,1.21-2.85-.98-.58-1.74-1.42-2.22-2.5,.02-.29,.04-.56,.05-.77,1.38-.99,2.9-.82,4.42-.88,.42-.45,1.05-.16,1.53-.36,.59-.24,1.17-.28,1.77-.3,.54-.02,1.11,.06,1.56-.3,.53,.39,1.12,.21,1.64,.34,.57,.14,1.11,.54,1.68,.58,.64,.04,.89,.66,1.52,.73,.16-.18,.33-.38,.45-.53,.07-.4,0-.75,.22-1.04,.23-.11,.47-.23,.69-.34,.27,.15,.5,.28,.74,.42,.09,.56,.13,1.09-.16,1.62-.19,.34-.17,.74,.04,1.19,.65,.11,1.38-.04,1.95,.07,.47,.31,.64,.63,.55,1.13-.16,.15-.37,.33-.52,.47-.51,.04-.94,.08-1.42,.12,.04,.22,.05,.38,.1,.52,.28,.77,.59,1.53,.54,2.37,0,.09,.1,.18,.17,.29,.31,.04,.63,.07,.63,.07,2.07,.64,3.17,1.88,3.84,3.67v2.35c-.32,.43-.41,.93-.76,1.32-.32,.35-.49,.84-.6,1.04-1.02,.9-1.9,1.54-2.97,1.92-.51,.09-1.07-.05-1.66,.13,.13,.46,.21,.89,.37,1.27,.23,.55,.53,1.07,.83,1.67,1.16-.57,2.28-1.12,3.41-1.68,.26-.02,.55,0,.82-.06,.37-.08,.73-.23,1.1-.3,.43-.08,.86,0,1.29-.23,.33-.18,.74-.14,1.12,.02,.2,.09,.41,.17,.62,.17,1.2,0,2.23,.56,3.23,1.1,1.15,.62,1.53,1.81,1.87,3.03v1.27c-.15,.32-.29,.62-.43,.92-.15,.29-.53,.42-.53,.81,.06,.09,.11,.19,.19,.27,1.55,1.5,2.92,3.13,4.03,4.99,.67,1.13,1.23,2.31,1.69,3.53,.12,.33,.11,.71,.21,1.43,.25-.83,.21-1.33,.2-1.82-.01-3.94-.03-7.89-.05-11.83,0-.65,.09-1.3-.23-1.95-.15-.29-.1-.75,.13-1.11,.11-.17,.11-.42,.15-.59-.12-.24-.21-.44-.31-.64v-1.44c.12-.24,.21-.43,.28-.56,0-.63-.42-1.11-.29-1.68,.07-.31,.25-.66,.16-.91-.11-.33-.16-.63-.17-.96,0-1.06,0-2.11,0-3.17-.02-3.72-.03-7.44-.06-11.16,0-.43,.02-.86-.18-1.29-.21-.45-.12-.97,.23-1.5Zm-40.62,60.46c-.97,.98-1.83,1.74-2.87,2.26-.14,.07-.26,.21-.37,.33-.56,.64-1.31,.98-2.03,1.38-1.25,.7-2.59,1.17-3.95,1.54-1.6,.43-2.91,.79-4.18,.7-.5-.04-1,.03-1.5-.03-.48-.05-.95-.24-1.43-.29-.5-.05-.96-.23-1.43-.3-.56-.08-1.05-.31-1.55-.51-.89-.36-1.76-.75-2.65-1.13-.08,.3-.1,.58-.21,.82-.35,.73-.81,1.4-1.13,2.15-.26,.6-.65,1.14-.96,1.71-.21,.38-.35,.81-.59,1.17-.25,.37-.16,.85-.49,1.21-.37,.4-.78,.85-.93,1.35-.16,.55-.52,.94-.76,1.42-.96,1.91-2.2,3.64-3.37,5.49,.05,.17,.11,.36,.16,.52,.7,.16,1.22-.32,1.85-.24,.66,.08,1.33,.02,2,.02,1.72,0,3.44,0,5.09,0,.55-.36,.8-.85,1.1-1.32,.3-.46,.83-.78,1.08-1.25,.25-.46,.63-.77,.93-1.16,.33-.43,.65-.89,1-1.31,.77-.93,1.52-1.88,2.24-2.84,.59-.79,1.25-1.55,2.26-1.81,1.27,.62,1.35,.7,1.88,1.75,.37,.73,.75,1.46,1.1,2.2,.37,.79,.94,1.47,1.17,2.33,.78,1,1.25,2.16,1.68,3.34h11.18c.31-.29,.96-.11,.95-.79-.49-.51-1.06-.98-1.47-1.57-1.01-1.43-1.95-2.91-3.14-4.14-.02-.29,0-.53-.07-.72-.39-.96-.27-1.87,0-2.86,.24-.88,.54-1.78,.42-2.75-.04-.3,.15-.62,.24-.92-.08-.15-.16-.3-.25-.46,.09-.29,.19-.6,.27-.86-.11-.2-.19-.35-.29-.53,.16-.92-.25-1.8-.37-2.72-.04-.35-.32-.67-.59-1.19ZM33.15,24.57c.5,.02,.93,.06,1.37,.04,.87-.03,1.75,.1,2.61-.26,.46-.19,.96,.06,1.39,.25h4.03c.2-.1,.39-.2,.61-.32h23.65c.33-.16,.53-.25,.62-.29,.68,0,1.23,0,1.79,0,.19,0,.43,.05,.55-.27-.51-.39-1.04-.78-1.55-1.19-.77-.62-1.49-1.3-2.3-1.86-1.22-.85-2.4-1.75-3.41-2.85-.07-.08-.19-.11-.26-.15-.24-.04-.45-.07-.59-.1-.38-.37-.66-.74-1.03-.97-1.14-.7-1.99-1.74-2.8-2.42-.6-.35-1.01-.53-1.35-.79-.65-.5-1.2-1.11-1.88-1.6-.68-.5-1.57-.84-1.93-1.73-.01-.04-.09-.05-.17-.08-.13,.01-.29,.02-.48,.04-.97,.97-2.05,1.82-3.17,2.61-1.3,.92-2.65,1.77-3.79,2.9-.19,.19-.45,.31-.67,.47-.81,.56-1.67,1.06-2.42,1.7-.75,.64-1.68,1.06-2.28,1.89-.12,.17-.35,.25-.53,.38-1.15,.83-2.36,1.59-3.41,2.55-.24,.22-.58,.32-.8,.55-.53,.53-1.36,.71-1.77,1.52Zm28.81,91.7c-.28,.64-.64,1.22-.76,1.84-.09,.44-.22,.84-.41,1.24-.35,.74-.49,1.56-.95,2.25,.04,.94-.55,1.65-.92,2.43-1,2.05-2.02,4.1-3.04,6.17,.47,.12,.9,.15,1.31-.08,.31-.17,.64-.16,.94,.03,.51,.32,.95,0,1.45-.18h4.73c.61-.51,.99-1.11,1.15-1.81,.07-.29,.24-.48,.37-.71,.54-.94,1.13-1.86,1.41-2.95,.56-.72,1.12-1.46,1.68-2.18h1.33c.35,.2,.63,.36,.91,.52,.63,.99,1.39,1.85,2.37,2.5,.18,.12,.4,.25,.49,.43,.37,.78,1.1,1.23,1.64,1.85,.26,.29,.61,.54,.76,.87,.29,.64,.82,1.02,1.27,1.49,3.92,0,7.8,0,11.69,0,.27,0,.56,.06,.76-.21v-1.81c-.23-.33-.49-.62-.65-.96-.25-.56-.56-1.06-.95-1.53-.41-.5-.77-1.06-1.07-1.64-.28-.54-.69-.98-.97-1.51-.32-.61-.91-.96-1.32-1.47-.37-.47-.58-1.07-1.12-1.41-.03-.02-.08-.02-.13-.03-.28,.37,.16,.59,.18,.81v1.28c-.31,1.3-1.01,1.86-1.95,2.1-.44-.13-.86-.23-1.26-.4-.4-.16-.77-.39-1.14-.58-.41,.36-.78,.69-1.15,1.01h-.83c-.26-.13-.54-.2-.75-.37-.39-.3-.73-.65-1.08-.97-.59,.27-1.13,.51-1.6,.72q-1.29-.58-2.18-1.59c0-.49,0-.99-.33-1.41,0-1,0-2,.01-2.99,0-.44-.1-.9,.27-1.26-.06-.36,.21-.77-.16-1.08-.75,.14-1.4,.58-2.17,.69-.2,.03-.4,.18-.58,.29-.44,.26-.97,.22-1.4,.4-.48,.19-.95,.25-1.44,.29-.33,.02-.63,.05-.96,.16-.74,.25-1.51,.21-2.27-.02-.36-.11-.74-.13-1.17-.2Zm11.17-23.46c.61,.5,.77,1.25,1.21,1.79,.74,.9,1.37,1.84,1.89,2.87,.17,.33,.56,.5,.6,.96,.04,.42,.22,.84,.32,1.25,.2,.78,.4,1.56,.61,2.34-.1,.24-.2,.48-.27,.65,.14,.3,.23,.49,.3,.66-.1,.19-.23,.33-.25,.49-.06,.49-.07,.99-.1,1.48-.16,.35-.33,.69-.48,1.04-.22,.55-.19,1.17-.46,1.72-.09,.18-.04,.44-.05,.65-.21,.28-.42,.54-.6,.77-.3,1.53-.9,2.94-1.19,4.44-.36,.51-.15,1.18-.48,1.73-.15,.25-.05,.65-.06,.98,0,.16,.04,.38-.04,.48-.35,.44-.23,.95-.25,1.44-.02,.55-.05,1.1,.05,1.62,.15,.16,.26,.28,.36,.39,.34-.19,.17-.52,.36-.85,.29-.3,.67-.7,1-1.05h.59q.95,.79,1.5,2.59h.37c.18-.5,.37-1,.56-1.5,.24-.12,.48-.24,.72-.36,.29,.15,.58,.3,.88,.45,.27,.48,.53,.96,.78,1.39,.34,.16,.64,.29,.95,.44,.21-.24,.38-.44,.53-.61-.36-1-.42-2-1.01-2.79,0-1.88,0-3.71,0-5.54,0-.44-.02-.92,.15-1.3,.17-.38,.19-.73,.2-1.12,0-.21,.02-.45,.12-.63,.39-.73,.33-1.62,.72-2.31,.41-.73,.43-1.56,.79-2.31,.35-.72,.31-1.59,.65-2.35,.15-.33,.04-.77,.09-1.15,.02-.15,.14-.29,.19-.4-.08-.23-.23-.45-.2-.64,.13-1.18-.43-2.26-.4-3.43,0-.15-.08-.31-.14-.46-.64-1.84-1.11-3.75-2.06-5.48-.25-1.09-.85-2-1.46-2.91-.82-1.22-1.66-2.44-2.53-3.63-.21-.29-.44-.67-.91-.63-1.11,1.01-2.05,2.28-2.65,3.53-.45,.94-.56,1.97-.86,2.95-.06,.21,.11,.49,.17,.74-.35,.44-.18,.96-.22,1.59Zm-34.35,7.34c-1.1-1.11-2.12-2.18-2.96-3.43-.82-1.22-1.78-2.36-2.33-3.83v-1.94c.14-.29,.24-.62,.45-.87,.24-.28,.56-.49,.89-.76v-.91c.33-1.03,.86-1.63,1.65-1.97,.02-.2,.03-.36,.05-.57,.26-.37,.54-.78,.8-1.16,.26-.14,.51-.27,.78-.41h2.42c1.31,.78,2.96,2.06,3.55,2.75,.07,.08,.18,.15,.22,.25,.36,.85,1.1,1.35,1.8,2.12,.02-.41,.11-.7,.02-.93-.31-.81-.22-1.74-.81-2.45-.81-.29-1.71-.37-2.38-1.03-.15-.15-.38-.2-.58-.31-1.22-.66-2.37-1.38-3.03-2.69-.14-.27-.44-.54-.73-.65-.75-.28-1.53-.47-2.29-.69-.17,.35-.38,.63-.43,.94-.13,.81-.6,1.39-1.16,1.95-.83,.83-1.84,1.38-2.88,1.88-.34,.16-.71,.26-1.04,.44-.33,.18-.63,.42-.9,.61-.33,1.5,.57,2.79,.6,4.25,.39,.47,.84,.96,.98,1.63v1.68c-.17,.22-.44,.42-.49,.66-.2,.94-.8,1.66-1.24,2.46-.45,.82-.97,1.59-1.54,2.33-.76,.99-1.51,1.99-2.02,3.08,.14,.54,.62,.25,.87,.45,.68,.65,1.36,1.31,1.97,1.9,.18,.39,.31,.69,.45,.98q.07,1.64-.57,3.86c0,.98-.54,1.76-.96,2.59-.06,.12-.04,.29-.06,.43,.5,.19,.99,.3,1.41,.54,.83,.46,1.76,.55,2.64,.83,.41,.13,.87,.1,1.31,.14,.33,.03,.64,0,.97,.17,.45,.24,1.02,.24,1.44,.05,.65-.31,1.31-.13,1.94-.3,1.29-.41,2.56-.88,3.81-1.4,.02-.1,.04-.21,.08-.37-.41-.09-.85-.12-1.23-.29-.97-.42-1.88-.99-2.5-1.84-.93-1.28-2.01-2.47-2.55-4.06v-1.36c1.15-1.68,2.21-3.33,3.6-4.75Zm18.61-31.14h1.31c.16,.18,.3,.35,.42,.48,.14,1.46-.67,2.67-.72,3.97-.23,.27-.42,.48-.58,.67,.01,.14,.02,.24,.04,.36,.4,.27,.86,.09,1.29,.14,.38,.04,.78,.05,1.16,0,.43-.05,.84-.17,1.3-.27,.34,.2,.71,.42,1.02,.61,.24,.7,.46,1.31,.8,1.89,.32,.55,.47,1.21,.7,1.81v1.45c-.48,.53-.92,1.01-1.34,1.48,.02,.35,.04,.62,.06,.94,.42,.27,.82,.53,1.2,.78,.77,0,1.5,.07,2.21-.02,1.14-.15,2.22-.48,3.1-1.33,.72-.69,1.23-1.52,1.79-2.3-.12-.56-.63-.58-.96-.84-.39-.3-.71-.69-1.03-1.01-.02-.23,0-.42-.06-.56-.35-.8-.71-1.59-1.03-2.4-.34-.87-.45-1.79-.83-2.63-.17-.38-.12-.74,.02-1.13,.28-.15,.56-.31,.83-.45,.74,.03,1.47-.08,2.03,.28,.5-.17,.91-.31,1.3-.44,.67-.68,1.44-1.26,1.73-2.31v-1.93c-.21-.37-.43-.74-.68-1.16-.69-.27-1.39-.55-1.98-.78h-2.11c-.63,.39-1.24,.76-1.79,1.11-.54,.93-.76,2.02-1.77,2.57-.18-.03-.34-.06-.49-.09-.05-.01-.08-.07-.13-.12-.19-.77-.08-1.51,.24-2.2-.08-.18-.15-.33-.21-.47,.3-.32,.24-.73,.23-1.11,0-.35,.18-.62,.28-.93,.11-.36,.02-.77,.02-1.22-.21-.36-.45-.78-.68-1.2h-5.95c-.34-.13-.52-.43-.82-.25-.85,.93-1.03,2.14-1.46,3.25,.09,.24,.19,.5,.3,.79-.15,.49-.31,1.01-.48,1.56-.52,.28-1.04,.56-1.57,.85,.03,.03,.06,.07,.1,.1-.48,.38-.96,.75-1.22,.96-.19,.6-.28,.91-.39,1.26,.22,.43,.46,.91,.71,1.39,1.36-.57,2.82-.82,4.12-1.56Zm12.46,35.71c-.06-.26-.05-.54-.18-.67-.41-.41-.49-.96-.75-1.44-.29-.53-.61-1.04-.9-1.56-.1-.19-.13-.41-.22-.61-.25-.54-.34-1.14-.66-1.66-.39-.64-.8-1.29-.81-2.09-.47-.96-.55-1.99-.53-3.05,0-.42-.12-.84-.19-1.26,.33-.72,.1-1.51,.2-2.19,.13-.25,.22-.44,.3-.59-.13-.25-.22-.45-.27-.54,.42-1.12,.8-2.13,1.2-3.14,.1-.24,.11-.41-.13-.61-.68,0-1.39,0-2.11,0-.67-.01-1.74-.37-2.29-.75-.4-.28-.79-.59-1.19-.88-.08-.05-.21-.03-.36-.05-.24,.26-.51,.54-.68,.71-.19,.49-.3,.85-.46,1.19-.19,.39-.43,.75-.62,1.07-.05,.65,.04,1.31-.17,1.85-.19,.49-.24,.96-.25,1.45-.02,1.39,0,2.77,0,4.09,.47,.66,.41,1.28,.18,1.78,.08,.38,.18,.65,.17,.91,0,.77,.16,1.51,.31,2.26,.08,.39,.3,.71,.34,1.08,.05,.44,.03,.89,.04,1.33,0,.11-.03,.25,.02,.33,.5,.76,.21,1.62,.34,2.45,.47,.47,.24,1.13,.34,1.68,1.05,.83,2.05,1.25,3.01,1.12,.7-.09,1.43-.16,2.08-.37,.67-.22,1.37-.37,2.04-.53,.85-.2,1.54-.54,2.2-1.31Zm-21.35-15.15c.38,.99,.69,1.75,.97,2.51,.28,.76,.36,1.58,.65,2.35,.28,.76,.44,1.56,.68,2.41-.12,.94,.43,2.65,.72,3.24,.39,.79,.55,1.65,.78,2.65,.26,.26,.62,.61,.9,.9h.99c.33-.16,.67-.32,.99-.48,.8-.81,1.57-1.6,2.29-2.34,0-.33,.06-.57-.01-.77-.22-.57-.41-1.15-.32-1.76,.09-.63-.36-1.14-.31-1.77,.04-.49-.05-.97-.28-1.44-.12-.24,.06-.62,.13-1.08q-.25-.72-.17-6.09c.21-.41,.4-.8,.6-1.2,.05-.71-.06-1.44,.32-2.1,.02-.04-.08-.16-.15-.28-.3,.27-.59,.52-.88,.78-.25,.84-.32,1.67-.53,2.45-.2,.78-.04,1.65-.04,2.51-.64,.5-.14,1.28-.5,1.88-.11,.08-.24,.18-.36,.26-.66-.34-.87-.97-1.14-1.61,.05-.13,.12-.27,.13-.31-.07-.52-.06-.95-.19-1.35-.15-.46-.41-.89-.64-1.35,.2-.88-.34-1.56-.69-2.42v-1.66c-.22-.28-.39-.5-.57-.73-.17-.45,0-.98-.36-1.42-.14-.17-.1-.55-.03-.81,.11-.42,.23-.88,.49-1.19,.51-.61,.57-1.41,.96-2.05,.24-.4,.22-.83,.09-1.31-.09-.1-.2-.23-.29-.33-.31,.16-.55,.28-.7,.35-.84,1.05-1.6,2.05-2.06,3.24h-1.32c-.87-.82-2.05-1.23-3.26-1.61h-1.66c-.29,.15-.59,.29-.92,.46-.01,.2-.03,.41-.05,.71,.48,.11,.82,.48,1.36,.49,.74,.01,1.31,.5,1.89,.8,.12,.25,.22,.45,.33,.67-.12,.26-.25,.54-.38,.82-.53,.08-1.04,.16-1.48-.12-.59-.36-1.34,.02-1.9-.46-.03-.03-.11,0-.12,0-.45,.15-.86,.28-1.27,.42,.08,.1,.13,.22,.22,.27,1.08,.64,2.17,1.28,3.26,1.9,.47,.27,.99,.47,1.47,.72,.88,.46,1.52,1.17,1.63,2.14,.06,.51,.28,.94,.4,1.41,.15,.59,.32,1.16,.32,1.68Zm-18.08-25c-.65,.45-1.14,.79-1.65,1.14-.22-.07-.42-.14-.61-.2-.01-.22-.02-.39-.03-.53,.28-.43,.48-.9,.81-1.25,.36-.39,.83-.67,1.3-1.03-.16-.41-.29-.76-.45-1.1-.19-.39-.48-.69-.87-.91-.64,.69-1.28,1.3-2.06,1.73-1.43,.78-2.9,1.27-4.52,.56-.4-.17-.8-.34-1.21-.5-.07-.03-.17-.02-.22-.03-.14,.43-.28,.84-.41,1.25v1.64c.43,1.02,.84,2.02,1.26,3.03-.28,.4-.56,.8-.83,1.19-.81,.22-1.47-.4-2.27-.31-.76,.09-1.55,.02-2.25,.02-.46,.35-1.04,.38-1.27,.97v.81c.09,.15,.21,.34,.3,.53,.27,.59,.71,.88,1.34,1.09,.52,.17,1.09,.17,1.57,.41,.59,.3,1.19,.14,1.79,.21,.27,.03,.55,0,.83,0,.58,.55,1.14,1.08,1.59,1.52,.76,.38,1.34,.81,2.07,.9,.18,.02,.33,.28,.45,.39,.11,.49,.1,.91,.26,1.35,.17,.44,.09,.98,.1,1.47,.01,.44,.02,.89,0,1.33-.03,.46-.11,.92-.17,1.45,1.45,.51,2.93,.9,4.15,1.82,.09,.25-.04,.58,.3,.72,.1-.01,.22,0,.31-.05,.34-.18,.68-.36,1-.56,1.24-.81,2.51-1.6,2.99-3.14,.04-.13,0-.29,0-.5h-1.59c-.39-.23-.67-.4-1.01-.61,0-.49,.15-1.05-.03-1.47-.43-1.03-.16-2.06-.26-3.06,1.01-.62,1.43-1.72,2.16-2.29,.2-.56,.34-.97,.51-1.43v-2.9c-.21-.37-.39-.7-.62-1.1-.76-.32-1.56-.65-2.27-.95-.29-.52-.5-.96-.51-1.64Zm-13.39,44.08c1.24-.39,2.03-1.06,2.77-1.8,.51-.51,1.03-1,1.52-1.53,.48-.52,.93-1.07,1.35-1.65,.78-1.05,1.31-2.3,2.33-3.07,.29-.69,.61-1.26,1.09-1.73,.27-.27,.5-.58,.7-.91,.89-1.43,1.77-2.88,2.64-4.31,.02-.29,.03-.56,.05-.81-.35-.22-.67-.42-.92-.58-.23-.66,.04-1.3-.28-1.91-.99-.1-1.64,.77-2.63,.95-.24-.22-.51-.47-.77-.71,.31-1.16,.31-1.18,.07-1.83-1.26,.71-2.32,1.7-3.21,2.82-.82,1.03-1.53,2.13-2.41,3.12-.46,.52-.8,1.16-1.12,1.79-.27,.54-.58,1.05-.92,1.55-.54,.82-.99,1.7-1.47,2.55-.02,.75-.57,1.29-.79,1.97-.24,.72-.57,1.41-.91,2.24,.22,1.42,.72,2.81,1.88,3.85h1.02Zm19.52-14.79c.45,.49,.95,.84,1.18,1.31,.64,1.27,1.66,2.18,2.61,3.18,.3,.32,.54,.69,.82,1.03,.62,.77,1.22,1.56,1.89,2.29,.98,1.06,2.02,2.05,3.02,3.1,.39,.41,.87,.65,1.46,.92,.35-.03,.78-.06,1.16-.09,.53-.68,.99-1.29,1.49-1.93-.05-.18-.07-.4-.16-.59-.15-.35-.48-.68-.49-1.03-.01-1.06-.74-1.81-1.04-2.8,.19-1.18-.43-2.3-.41-3.4-1.1-1.26-2.17-2.38-3.1-3.6-.44-.57-.84-1.17-1.38-1.63-.6-.52-.87-1.27-1.44-1.8-.73-.68-1.43-1.39-2.11-2.06-.51-.15-.97-.28-1.5-.43,.1,.3,.2,.49,.23,.68,.03,.27,0,.54,0,.71-.47,.81-1.38,.57-1.9,1.07,.2,.39,.39,.78,.59,1.16-.02,.17-.03,.33-.05,.57-.28,.19-.58,.43-.91,.61-.32,.17-.67,.26-1.06,.41,.38,.8,.73,1.54,1.1,2.32Zm14.54,16.09c-.09,.5,.13,1.03,.42,1.48,.38,.58,.14,1.31,.57,1.87,.11,.14,.05,.43,.05,.65,0,1.61,0,3.21,0,4.73-.14,.27-.24,.47-.33,.64v2.57c.24,1.07,1.17,1.56,1.5,2.45,.33,.9,1.31,1.34,1.66,2.35,.19-.27,.38-.46,.48-.69,.18-.39,.2-.9,.47-1.2,.64-.73,.84-1.64,1.23-2.47,.34-.74,.65-1.49,.98-2.24-.13-.49,.38-.79,.36-1.23-.02-.51,.48-.72,.61-1.12,.03-.29,.05-.56,.08-.83,.19-.44,.8-.67,.59-1.33-.27-.21-.56-.45-.8-.64-.7-1.33-1.32-2.6-1.16-4.01-.14-.27-.24-.46-.31-.61v-3.42c.3-.49,.6-1.01,.92-1.54-.14-.52-.29-1.07-.44-1.64-1.03,.78-2.03,1.54-2.99,2.28-.64,0-1.2,.05-1.74-.01-.53-.06-1.04-.23-1.49-.33-.36,.46-.65,.86-.97,1.23-.31,.37-.74,.64-1.03,1.04,.27,.37,.5,.67,.71,.99,.21,.32,.4,.65,.64,1.04Zm35.17-7.58c-.39,1.08-.52,1.99-.79,2.87-.48,1.54-.85,3.13-1.47,4.62-.43,1.02-.45,2.11-.81,3.14-.17,.5-.05,1.1-.06,1.65,0,.39,0,.77,0,1.16,.61,.61,1.2,1.19,1.78,1.78,1.28,1.29,2.64,2.52,3.71,4.01,.29,.4,.55,.81,.85,1.2,.14,.18,.34,.26,.61,0v-3.64c-.29-.37-.29-.86-.19-1.35,.03-.15,.16-.33,.11-.42-.32-.58-.06-1.2-.17-1.77,.37-.53,.41-1.04,.01-1.55v-1.48c.08-.16,.16-.31,.24-.45-.06-.1-.16-.19-.16-.29-.06-3.88-.11-7.75-.17-11.68-.05-.09-.13-.24-.25-.45,.08-.21,.23-.45,.26-.71,.03-.32,.11-.66-.11-.96-.11-.01-.21-.03-.33-.04-.44,.87-.89,1.75-1.45,2.86-.43,.4-1.03,.97-1.59,1.5Zm-52.71-24.16c.3-.07,.56-.15,.81-.19,.78-.13,1.47,.39,2.26,.33,.2-.02,.4,.14,.61,.2,1.04,.3,2.07,.63,3.08,1.19,.28-.19,.53-.36,.79-.54-.39-.42-.26-.88-.28-1.26,.32-.85,.84-1.45,1.67-1.87-.09-.35-.19-.71-.27-.99-.21-1.2,.11-2.38-.37-3.49-.1-.23-.1-.58,0-.82,.28-.71,.26-1.5,.64-2.17,.43-.75,.85-1.51,1.31-2.33v-.37c-.57-.58-1.13-1.12-1.65-1.69-.54-.59-1.03-1.22-1.59-1.9-.16,.28-.29,.52-.41,.75-.6,1.11-1.28,2.17-2.25,3.01-.2,.18-.59,.25-.66,.45-.24,.69-.86,.77-1.48,.97,.1,.42,.19,.77,.37,1.49,.09,.9-.04,2.15-.49,3.34-.53,1.41-1.47,2.54-2.53,3.56,.03,.7,.07,1.35,.09,1.94,.13,.15,.2,.24,.36,.41Zm19.05-33.59c-1.05,.47-1.85,1.15-2.5,1.97-.5,.63-.87,1.37-1.32,2.05-.67,1-1.29,2.03-2.04,2.97-.81,1.02-1.6,2.09-2.2,3.25-.47,.9-1.05,1.68-1.77,2.37-.45,.43-.76,.93-.99,1.55,.09,1.01,.47,1.99,1.04,2.85,.56,.86,1.08,1.77,1.99,2.43,.29-.16,.54-.35,.58-.6,.08-.46,.35-.78,.56-1.16,.7-1.24,1.27-2.54,2.07-3.73,.03-.05,.09-.09,.09-.14-.03-.49,.28-.81,.53-1.18,.23-.35,.27-.83,.5-1.18,.86-1.28,1.39-2.72,2.44-4.52,.5-.47,1.43-1.27,2.27-2.15,.97-1.01,2.03-1.86,3.31-2.4,.44-.18,.7-.52,.94-.89,.04-.07-.01-.2-.02-.31-.51-.42-.92,.14-1.48,.16-.07-.39-.72-.14-.79-.77,.54-.96,1.37-1.85,1.68-3.08-.21-.04-.36-.07-.49-.09-.28,.23-.54,.44-.76,.62h-.57c-.15-.14-.31-.29-.51-.47-.02-.47-.03-.95-.05-1.57-.69,.5-1.17,1.01-1.6,1.57,.7,.3,1.23,.76,1.6,1.34v1.63c-1.48,1.67-2.07,2.18-3.14,2.77-.32-.2-.64-.4-.72-.81,.56-.83,1.53-1.29,1.97-2.33-.27-.07-.47-.12-.6-.15Zm20.32,67.1c.37-.53,.15-1.06,.43-1.53,.33-.55,.54-1.18,.74-1.8,.27-.82,.59-1.64,.7-2.49,.12-.91,.61-1.77,.36-2.64q.33-.72-.18-.96c-.27,.31-.6,.61-.81,.98-.25,.45-.58,.78-1.02,1.04-.28,.16-.53,.39-.79,.59-1.29,1-2.57,2.01-4.15,2.54-1.29,.44-2.54,1.01-3.96,.86-.16-.02-.33,.01-.5,0-.87-.05-1.74,.1-2.6-.27-.35-.15-.87-.14-1.42,.13-.03,.02-.15,.13-.23,.21,0,.3-.02,.52,0,.74,.02,.16,.08,.31,.12,.47,.07,.26,.19,.53,.19,.79-.02,.61,.21,1.18,.28,1.76,.12,.94,.52,1.65,1.33,2.17h4.78c.19-.11,.33-.19,.5-.3,.41-.03,.84-.05,1.14-.07,1.77-.78,3.41-1.5,5.09-2.23Zm1.46-11.86c.24-.76-.13-1.17-.23-1.64-.04-.22-.09-.41-.22-.6-.49-.72-.98-1.46-1.43-2.2-.1-.17-.07-.43-.1-.6-.34-.37-.63-.7-.92-1.02-.02-.68-.19-1.32-.29-1.96-.26-1.61,.22-3.85,1.05-5.39,.38-.72,.85-1.4,1.34-2.05,.38-.51,.73-1.06,1.32-1.4,.19-.11,.48-.26,.42-.66-.57-.37-1.17-.76-1.77-1.13-.17-.11-.37-.16-.63-.26-.27,1-1.16,1.39-1.55,1.95-.67,1.16-1.29,2.13-1.8,3.15-.53,1.07-.95,2.19-1.48,3.43,0,1.25,0,2.64,0,4.02,0,.61-.06,1.24,.08,1.82,.11,.48,.22,.95,.33,1.43,.1,.47,.41,.89,.63,1.33,.1,.2,.27,.39,.28,.59,.01,.69,.28,1.28,.64,1.84-.07,.78,.88,1.15,.79,1.94,.31,.3,.45,.77,1.02,.89,1.15-.94,1.4-2.58,2.51-3.47Zm-52.69-23.18c-.1,.08-.27,.21-.43,.36-.98,.97-1.94,1.97-2.95,2.92-1.14,1.07-1.89,2.37-2.46,3.7,.21,.83,.7,1.36,1.28,1.78,.62,.44,1.26,.94,1.97,1.16,1.04,.33,1.92,.98,2.99,1.3,.69-.4,1.39-.82,2.05-1.21h1.79c.35,.3,.64,.55,.78,.67,.14,.47,.05,.79,.35,.95,.28,.07,.55,.09,.72-.18v-2.97c-.51-.64-1.35-.53-1.9-.98-.51-.42-1.11-.66-1.72-.92-.62-.26-1.33-.54-1.68-1.18v-.87c.33-.38,.65-.76,1.01-1.18,0-.41,.02-.85,0-1.29-.03-.43,.1-.88-.14-1.33-.6-.05-.83-.9-1.66-.72Zm10.01-23c-1.55,.32-2.71,.79-3.99,1.59-.3,.29-.78,.76-1.22,1.19v.7c.46,.62,1.21,.52,1.64,.84h2.1c.29,.21,.6,.37,.51,.82-.17,.1-.36,.2-.59,.33,.19,.2,.38,.39,.57,.58,1.5-.35,2.76-1.16,4.06-1.71h.84c.33,.27,.63,.51,.81,.65,.06,.53,0,.9,.14,1.17,.31,.6,.35,1.15-.06,1.7,.06,.74-.36,1.36-.48,2.04-.64,.65-1.25,1.28-1.97,2.01,.39,.04,.65,.06,.8,.07,.75-.41,1.03-1.19,1.77-1.41,.47-.61,.95-1.21,1.52-1.94,0-.63-.04-1.41,.01-2.18,.06-.8-.41-1.48-.4-2.27-.16-.21-.35-.41-.5-.65-.29-.46-.55-.94-.85-1.39-.7-1.05-1.72-1.69-2.93-2.14h-1.78Zm55.76,43.04c0-1,0-1.89,0-2.78,0-.27,.02-.59-.11-.81-.25-.42-.2-.85-.24-1.29-.04-.49-.38-.9-.34-1.43,.05-.67-.32-1.25-.56-1.85-.18-.45-.6-.82-.7-1.28-.11-.47-.39-.77-.63-1.14-.27-.41-.46-.88-.78-1.24-.76-.86-1.23-1.97-2.3-2.65-.84,.28-1.71,.57-2.65,.87,.33,.45,.63,.9,.96,1.33,.17,.22,.41,.38,.56,.61,.87,1.38,1.79,2.74,2.59,4.17,.08,.14,.16,.29,.21,.44,.41,1.29,.94,2.55,1.41,3.82,.15,.41,.27,.83,.46,1.22,.24,.5,.06,1.09,.43,1.57,.14,.18,.05,.54,.07,.82,0,.11,0,.23,.03,.33,.14,.38,.29,.76,.45,1.17,.67-.47,.64-1.3,1.15-1.89Zm-9.57-14.82c.54-.33,.93-.63,1.38-.83,.82-.36,1.58-.74,1.99-1.6,.08-.16,.34-.24,.49-.33v-1.68c-.37-.39-.71-.74-.99-1.03-.64-.29-1.18-.53-1.68-.76h-3.12c-1.61,.54-3,1-4.44,1.48,.3,.38,.62,.68,1.07,.91,.87,.44,1.74,.92,2.53,1.5,.97,.72,1.85,1.55,2.77,2.35Zm-41.25-30.54c1.55-1.06,3.04-1.32,4.59-1.91-.39-.2-.63-.41-.86-.41-.6,.02-1.06-.23-1.55-.6v-1.2c.29-.42,.49-.84,.81-1.12,.32-.28,.83-.36,.79-.96-.94-.51-1.78,.47-2.72,.14-.73,.5-1.58,.88-2.13,1.51-.6,.69-1.24,1.38-1.67,2.22-.4,.78-.42,1.65-.72,2.44,.47,.3,.93,.15,1.32,.22,.41,.19,.8,.36,1.22,.55,.4-.38,.8-.76,.93-.88Zm-1.09,72.6c-1.46,2.25-3.35,4.14-5.01,6.28,.21,.04,.36,.09,.52,.09,2.49,0,4.97,0,7.46-.02,.09,0,.18-.11,.27-.16-.09-.7-.2-1-.63-1.63-.68-.99-1.1-2.12-1.66-3.18-.01-.62-.41-.98-.94-1.39Zm-9.44-12.14c.02-.64,.39-1.08,.59-1.58,.17-.45,.35-.91,.42-1.39,.08-.54,.03-1.09,.35-1.51-.27-.69-.6-1.24-1.12-1.68-.5-.42-.96-.88-1.74-1-.66,.8-1.36,1.64-2.04,2.49-.06,.07-.02,.21-.03,.31,.86,.51,1.57,1.17,1.95,2.15,0,1.02,0,2.07,0,3.12,0,.08,.12,.17,.18,.24,.06,0,.12,.02,.17,0,.54-.21,.84-.68,1.28-1.15Zm16-7.61c-.72-.86-1.41-1.69-2.19-2.62-.26,.31-.49,.55-.68,.82-.6,.85-1.18,1.7-1.75,2.52v1.11c1.02,1.45,1.83,2.97,3.34,3.97,.17-.02,.37-.04,.64-.06,0-.29,.08-.55-.02-.7-.26-.39-.31-.81-.33-1.25,0-.21-.04-.45-.14-.62-.39-.68-.1-1.29,.2-1.86,.25-.48,.62-.89,.93-1.31Zm32.36,25.72c-.4-.72-.71-1.37-1.44-1.65-.14-.05-.29-.19-.36-.33-.3-.53-.7-.94-1.19-1.32-.46-.36-.79-.89-1.18-1.33-.14-.16-.3-.33-.66-.25-.78,1.56-1.59,3.19-2.41,4.83,1.18,.17,4.7,.19,7.26,.05Zm-28.86-22.68c-.41-.38-.81-.76-1.22-1.12-.07-.06-.2-.05-.35-.09-.14,.2-.28,.41-.43,.62-.16,.21-.43,.35-.43,.66,.2,.56,.41,1.12,.63,1.74,0,.32-.02,.71,0,1.09,.02,.37-.14,.77,.14,1.11,.45-.3,.92-.58,1.34-.91,.38-.31,.73-.68,1.06-1.04,.35-.39,.85-.65,1.07-1.16-.65-.32-1.23-.6-1.8-.89Zm-11.31-44.25c.43-1.12,.71-2,.49-2.87-.13-.08-.17-.13-.22-.13-.16,0-.36-.04-.49,.03-.72,.45-1.59,.64-2.22,1.16,.25,1.16,.5,2.26,.75,3.43,.69-.52,1.23-1.12,1.69-1.62Zm-16.88-2.08c.4-.62,.79-1.3,1.44-1.74,.63-.43,1.32-.79,1.9-1.28,.6-.51,1.5-.39,2.06-1.13-.26-.03-.49-.13-.63-.06-.57,.28-1.16,.29-1.74,.31-.41,.21-.8,.57-1.19,.58-.6,.01-.84,.52-1.28,.68-.51,.18-.79,.59-1.15,.92-.36,.34-.58,.78-.69,1.3,.43,.14,.83,.27,1.29,.42Zm.51,31.72c.82-.56,1.28-1.37,1.69-2.2,.41-.2,.83-.37,.87-.97-.18-.15-.38-.32-.55-.47h-.92c-.18,.34-.36,.67-.51,.95-.02,.34-.03,.61-.04,.73-.29,.58-.5,1.01-.7,1.42,.07,.21,.12,.37,.17,.53Z" style="fill: #030303;"/>
  <path d="M89.15,50.31c-.36,.53-.44,1.04-.23,1.5,.2,.44,.18,.86,.18,1.29,.02,3.72,.04,7.44,.06,11.16,0,1.06,0,2.11,0,3.17,0,.33,.05,.64,.17,.96,.09,.26-.09,.61-.16,.91-.14,.57,.28,1.05,.29,1.68-.07,.13-.16,.33-.28,.56v1.44c.1,.2,.19,.4,.31,.64-.04,.18-.04,.42-.15,.59-.23,.36-.28,.82-.13,1.11,.33,.65,.23,1.3,.23,1.95,.03,3.94,.04,7.89,.05,11.83,0,.49,.05,.99-.2,1.82-.1-.71-.09-1.1-.21-1.43-.46-1.22-1.02-2.4-1.69-3.53-1.11-1.86-2.49-3.49-4.03-4.99-.08-.07-.12-.17-.19-.27,0-.39,.38-.52,.53-.81,.15-.29,.28-.59,.43-.92v-1.27c-.34-1.21-.72-2.41-1.87-3.03-1-.54-2.02-1.11-3.23-1.1-.21,0-.43-.09-.62-.17-.38-.16-.79-.21-1.12-.02-.42,.24-.86,.15-1.29,.23-.37,.07-.73,.23-1.1,.3-.27,.06-.55,.04-.82,.06-1.13,.56-2.26,1.11-3.41,1.68-.3-.6-.6-1.12-.83-1.67-.16-.39-.24-.81-.37-1.27,.58-.18,1.14-.04,1.66-.13,1.07-.37,1.95-1.02,2.97-1.92,.11-.2,.28-.69,.6-1.04,.35-.39,.44-.89,.76-1.32v-2.35c-.67-1.79-1.77-3.02-3.84-3.67,0,0-.32-.04-.63-.07-.07-.11-.18-.21-.17-.29,.04-.84-.26-1.6-.54-2.37-.05-.14-.06-.3-.1-.52,.48-.04,.91-.08,1.42-.12,.16-.14,.36-.32,.52-.47,.1-.5-.08-.81-.55-1.13-.57-.11-1.3,.04-1.95-.07-.21-.45-.23-.85-.04-1.19,.29-.52,.25-1.05,.16-1.62-.24-.13-.48-.27-.74-.42-.22,.11-.46,.23-.69,.34-.21,.3-.14,.64-.22,1.04-.13,.15-.3,.35-.45,.53-.63-.07-.89-.69-1.52-.73-.57-.04-1.11-.44-1.68-.58-.52-.13-1.11,.04-1.64-.34-.45,.37-1.01,.29-1.56,.3-.6,.02-1.18,.06-1.77,.3-.48,.2-1.12-.09-1.53,.36-1.52,.06-3.04-.1-4.42,.88-.01,.21-.03,.48-.05,.77,.48,1.08,1.24,1.92,2.22,2.5-.4,.95-.81,1.91-1.21,2.85v2.13c-.4,.69-1.18,.67-1.67,1.11-.3,.39-.57,.81-.91,1.16-.53,.55-.73,1.2-.77,1.93-.02,.44,0,.89,0,1.29,.44,.87,.66,1.82,1.56,2.38h1.09c.97-.4,1.93-.8,2.9-1.2,.36,.59,0,1.13-.2,1.68-.18,.51-.42,1.01-.65,1.57v.78c.59,.81,1.37,1.23,2.39,1.23,.26,0,.52,.13,.92,.24,.58-.31,1.35-.26,2.15-.22,.15,.38,.3,.78,.51,1.32v1.21c-1.32,.75-2.73,1.39-3.94,2.3-1.16,.87-2.24,1.91-2.98,3.36-.81-.94-.72-2.06-1.41-2.77v-1.6c.94-.77,1.02-2.07,1.52-2.91,.39-.99-.13-1.68-.27-2.58-.26-.25-.62-.6-.86-.82-.53-.27-.92-.18-1.34-.18-1.01,.33-1.78,1.05-2.36,1.93-.35,.52-.78,.91-1.14,1.33-.49-.24-.97-.4-1.37-.67-.4-.27-.93-.12-1.25-.33-.47-.31-.98-.13-1.49-.35-.21-.46,.02-1.09-.41-1.52,0-.5-.02-1-.02-1.5,0-.56,0-1.11,0-1.36-.17-.61-.26-.92-.33-1.17,.35-.58,.67-1.09,.96-1.62,.31-.57,.54-1.2,.91-1.73,.35-.5,.61-1.01,.82-1.59,.21-.6,.68-1.11,.96-1.69,.26-.54,.5-1.09,.92-1.54,.02-.65,.52-1.07,.77-1.6,.28-.6,.63-1.16,.91-1.75,.26-.54,.37-1.16,.71-1.64,.39-.54,.6-1.16,.95-1.72,.32-.5,.53-1.08,.87-1.78,.66-.58,1.45-1.26,2.24-1.95,.74-.66,1.35-1.47,2.27-1.91,.99-1.03,2.18-1.9,2.63-3.56,0-.02-.1-.21-.15-.41-.06-.21-.1-.43-.15-.65-.3-.21-.6-.43-.91-.65,.2-.44,.39-.83,.58-1.24v-1.41c-.19-.34-.43-.76-.61-1.07-.69-.37-1.33-.02-1.96-.31-.03-.3-.06-.62-.1-.98-.13-.14-.27-.31-.37-.41-.11-.07-.16-.12-.21-.12-.5,0-1,0-1.46,0-.6,.25-.86,.88-1.48,1.09-.28,.1-.53,.41-.71,.68-.52,.77-1.01,1.57-1.52,2.38-.74,.34-1.24,1.02-1.81,1.62-.04,.46-.54,.5-.74,.81-.21,.32-.47,.6-.72,.9-.49,.59-1.1,1.1-1.29,1.89-.96,1.06-1.44,2.45-2.39,3.53-.43,.48-.68,1.12-1.03,1.68-.9,1.43-1.8,2.86-2.73,4.33-.11-.08-.29-.15-.33-.26-.53-1.28-1.34-2.38-2.18-3.47-.09-.12-.17-.26-.28-.43,.89-.56,1.59-1.36,2.71-1.5,.29-.04,.54-.37,.85-.6,.87,.2,1.65-.43,2.49-.38,.32-.23,.53-.45,.55-.83,.02-.32,.13-.63,.21-1.03-.4-.31-.85-.68-1.34-1.03-.44-.31-.92-.59-1.42-.91,.49-.74,1.28-1.27,1.85-2.04-.11-.39-.24-.8-.38-1.3-.46-.24-.99-.52-1.55-.81h-3.05c-.69,.31-1.42,.7-2.19,.95-.88,.28-1.41,1.03-2.2,1.42-.43,.7-1.09,1.22-1.45,1.98-.35,.73-.93,1.35-1.12,2.18v1.99c-.18,.16-.35,.31-.52,.47-.44,.02-.88,.04-1.33,.06-.56,.65-1.44,.75-2.11,1.24-.68,.5-1.21,1.12-1.85,1.64-.63,.31-1.16-.2-1.74-.23-.61-.03-1.22,0-1.7,0-.43,.13-.74,.27-1.06,.3-1.82,.17-3.31,1.05-4.69,2.16-.47,.38-.89,.84-1.28,1.3-.43,.5-.8,1.03-.79,1.75,0,.31-.16,.62-.26,.95,.22,.25,.45,.49,.71,.78,.35,.04,.73,.09,1.16,.15,.13,.11,.29,.26,.51,.45-.1,.36-.2,.72-.37,1.35v1.39c.1,.35,.21,.72,.3,1.08,.08,.3,.14,.61,.21,.96-.61,.54-1.46,.69-2.2,1.19-.29,.3-.63,.66-.99,1.04v2.48c.26,.77,.77,1.34,1.36,1.84,.54,.26,1.07,.59,1.63,.77,.62,.2,1.29,.3,1.87,.53,.58,.24,1.23-.08,1.74,.35-.79,.39-1.65,.69-2.01,1.6-.87,.36-1.22,1.23-1.8,1.87-.99,1.1-1.88,2.28-2.5,3.69v2.03c.69,1.45,1.9,2.45,3.2,3.28,.38,.72-.17,1.07-.48,1.57,0,.16,.02,.39-.04,.6-.1,.37-.3,.71-.35,1.08-.04,.33-.15,.63-.25,.94-.28,.83-.52,1.67-.4,2.57,.03,.22,0,.44,0,.6-.13,.31-.27,.55-.32,.81-.2,1.04-.54,1.98-1.04,2.72-.48,.73-.83,1.49-1.04,2.37-.19,.83-.57,1.63-.79,2.46-.39,1.48-.31,2.92,.58,4.25,.18,.27,.3,.59,.51,.83,.56,.61,1.16,1.19,1.73,1.76,.39,.16,.74,.3,1.06,.43,3.01-.79,1.98-.33,5.01-2.32,.51-.03,.75,.4,1.1,.67,.39,.68,.62,1.32,.3,2.16-.22,.59-.1,1.31-.13,2,.43,.57,.86,1.15,1.34,1.8-.12,.26-.22,.64-.45,.92-.67,.81-.96,1.87-1.77,2.59-.19,.17-.3,.46-.41,.71-.37,.85-.73,1.71-1.34,2.43-.09,.11-.06,.32-.09,.55-.62,.64-1.07,1.45-1.51,2.28-.66,1.26-1.36,2.49-2.04,3.74-.16,.29-.29,.59-.4,.9-.23,.64-.23,.64-.87,1.27-.41,0-.91,0-1.4,0-.5,0-1,.01-1.5,.01-.49,0-.98,.04-1.55-.04-.03-1.6,.04-3.14,0-4.69,.07-.14,.15-.28,.23-.44q-.27-.85,0-1.68c-.08-.15-.16-.3-.22-.42v-1.81c.11-.19,.19-.33,.29-.51v-8.45c-.08-.16-.16-.31-.28-.54,.24-.76,.45-1.57,0-2.44-.19-.36-.03-.87,.3-1.3-.04-1.83-.08-3.71-.13-5.59,0-.1-.1-.19-.17-.32,.08-.29,.26-.6,.25-.9-.04-1.32,.24-2.65-.15-3.95-.03-.08,0-.2,.05-.28,.16-.32,.19-.63,0-.94-.23-.37-.16-.71,0-1.1,.12-.29,.14-.64,.15-.97,.01-.89,0-1.78-.03-2.67,0-.26-.16-.52-.19-.78-.03-.26-.08-.58,.03-.78,.27-.48,.1-.98,.2-1.41-.12-.25-.21-.45-.3-.63,.51-1.24,.22-2.52,.28-3.78,.06-1.22,.02-2.44,.02-3.66,0-1.28-.02-2.55-.03-3.83,0-2,0-4,0-6,0-.32-.11-.63-.18-.99,.05-.14,.11-.35,.19-.55,.13-.33-.28-.54-.14-.91,.13-.35,.12-.75,.14-1.13,.02-.33,.05-.67-.2-.95,.35-.61,.16-1.27,.19-1.91,.01-.31-.14-.63-.24-1.08,.03-.07,.13-.26,.25-.52v-3.08c-.1-.22-.18-.41-.3-.67,.07-.16,.17-.35,.28-.6v-2.81c-.06-.11-.14-.26-.27-.48,.22-.7,.53-1.49,.09-2.2,.07-.32,.18-.58,.18-.84,.02-1.72,0-3.44,0-5.16,0-3,0-6,0-9,0-.49,.03-.97-.23-1.45-.14-.25-.11-.7,.03-.96,.23-.43,.21-.85,.21-1.29,0-.78-.02-1.56-.01-2.33,0-.49,.09-.98-.2-1.43,.31-.39,.19-.85,.19-1.28,0-.32-.09-.64-.17-1.08,.07-.15,.21-.44,.34-.73h12.48c.54,.22,1.05,.55,1.6-.04,3.47,0,6.96,0,10.46,0,1.89,0,3.78,.02,5.66-.01,.76-.01,1.55,.16,2.27-.26,.12-.07,.33-.01,.49-.01,3.83-.01,7.66-.03,11.49-.03,2.5,0,4.99,.02,7.49,.02,.27,0,.57-.02,.8-.14,.54-.28,1.02-.23,1.58,0,.56,.23,1.21,.2,1.78-.03,.72-.29,1.39-.17,2.11,.11,.16-.09,.36-.19,.59-.31h12.2c.45-.12,.81-.29,1.18-.29,1.72-.03,3.44-.01,5.17-.01,.12,.11,.24,.22,.42,.39,.1,.94,.04,1.93,.05,2.92,.03,3.22,.03,6.44,.04,9.66,0,3.11,0,6.22,.01,9.33,0,.55-.08,1.11,.32,1.68Z" style="fill: #fff;"/>
  <path d="M48.53,110.77c.27,.53,.55,.85,.59,1.19,.12,.92,.53,1.8,.37,2.72,.1,.18,.18,.32,.29,.53-.08,.26-.18,.56-.27,.86,.09,.16,.17,.31,.25,.46-.09,.31-.28,.63-.24,.92,.11,.96-.19,1.87-.42,2.75-.26,.99-.38,1.9,0,2.86,.08,.2,.05,.44,.07,.72,1.18,1.23,2.13,2.71,3.14,4.14,.41,.58,.98,1.05,1.47,1.57,.01,.67-.64,.5-.95,.79h-11.18c-.43-1.18-.9-2.34-1.68-3.34-.23-.86-.8-1.54-1.17-2.33-.35-.74-.73-1.47-1.1-2.2-.53-1.06-.61-1.13-1.88-1.75-1.01,.26-1.67,1.02-2.26,1.81-.73,.96-1.47,1.92-2.24,2.84-.35,.42-.66,.87-1,1.31-.3,.39-.68,.69-.93,1.16-.25,.47-.78,.79-1.08,1.25-.31,.46-.55,.95-1.1,1.32-1.65,0-3.37,0-5.09,0-.67,0-1.34,.06-2-.02-.63-.08-1.15,.4-1.85,.24-.05-.16-.11-.35-.16-.52,1.17-1.85,2.41-3.58,3.37-5.49,.24-.48,.6-.87,.76-1.42,.15-.5,.56-.95,.93-1.35,.33-.36,.24-.83,.49-1.21,.24-.36,.38-.78,.59-1.17,.31-.58,.71-1.12,.96-1.71,.32-.75,.78-1.42,1.13-2.15,.11-.24,.14-.52,.21-.82,.89,.38,1.76,.78,2.65,1.13,.5,.2,.99,.43,1.55,.51,.47,.07,.93,.26,1.43,.3,.48,.05,.95,.23,1.43,.29,.49,.05,1-.01,1.5,.03,1.27,.1,2.59-.26,4.18-.7,1.36-.37,2.7-.84,3.95-1.54,.72-.41,1.47-.75,2.03-1.38,.11-.12,.23-.26,.37-.33,1.04-.52,1.9-1.28,2.87-2.26Z" style="fill: #fff;"/>
  <path d="M33.15,24.57c.41-.8,1.24-.99,1.77-1.52,.23-.22,.57-.33,.8-.55,1.06-.96,2.26-1.72,3.41-2.55,.18-.13,.41-.21,.53-.38,.6-.83,1.53-1.25,2.28-1.89,.75-.63,1.61-1.14,2.42-1.7,.22-.15,.48-.28,.67-.47,1.14-1.14,2.49-1.99,3.79-2.9,1.12-.79,2.21-1.64,3.17-2.61,.18-.01,.34-.03,.48-.04,.08,.04,.16,.05,.17,.08,.36,.89,1.25,1.23,1.93,1.73,.68,.49,1.23,1.1,1.88,1.6,.34,.26,.75,.45,1.35,.79,.8,.68,1.65,1.72,2.8,2.42,.37,.23,.65,.6,1.03,.97,.14,.02,.35,.06,.59,.1,.07,.04,.19,.07,.26,.15,1.01,1.1,2.19,2,3.41,2.85,.81,.56,1.53,1.24,2.3,1.86,.51,.41,1.04,.8,1.55,1.19-.12,.33-.35,.27-.55,.27-.55,.01-1.11,0-1.79,0-.09,.04-.29,.14-.62,.29h-23.65c-.22,.11-.41,.21-.61,.32h-4.03c-.42-.19-.93-.44-1.39-.25-.86,.36-1.74,.23-2.61,.26-.43,.01-.87-.02-1.37-.04Z" style="fill: #fefefe;"/>
  <path d="M61.96,116.27c.42,.07,.81,.09,1.17,.2,.76,.23,1.53,.27,2.27,.02,.33-.11,.64-.14,.96-.16,.49-.04,.95-.09,1.44-.29,.43-.17,.96-.13,1.4-.4,.19-.11,.38-.26,.58-.29,.76-.11,1.41-.55,2.17-.69,.37,.32,.11,.72,.16,1.08-.37,.36-.27,.82-.27,1.26,0,1,0,2-.01,2.99,.32,.42,.32,.92,.33,1.41q.89,1,2.18,1.59c.47-.21,1.01-.45,1.6-.72,.35,.32,.69,.67,1.08,.97,.21,.16,.49,.24,.75,.37h.83c.37-.32,.74-.65,1.15-1.01,.38,.19,.75,.42,1.14,.58,.4,.16,.83,.26,1.26,.4,.94-.24,1.64-.8,1.95-2.1v-1.28c-.02-.22-.46-.44-.18-.81,.04,0,.09,0,.13,.03,.54,.34,.74,.94,1.12,1.41,.41,.52,1,.86,1.32,1.47,.28,.53,.69,.97,.97,1.51,.3,.58,.66,1.13,1.07,1.64,.39,.48,.7,.97,.95,1.53,.15,.34,.42,.63,.65,.96v1.81c-.2,.28-.49,.21-.76,.21-3.89,0-7.77,0-11.69,0-.45-.46-.98-.85-1.27-1.49-.15-.34-.5-.58-.76-.87-.55-.62-1.27-1.07-1.64-1.85-.09-.18-.31-.31-.49-.43-.98-.65-1.73-1.51-2.37-2.5-.28-.16-.56-.32-.91-.52h-1.33c-.56,.72-1.12,1.46-1.68,2.18-.27,1.09-.86,2.01-1.41,2.95-.13,.23-.3,.42-.37,.71-.17,.71-.55,1.31-1.15,1.81h-4.73c-.5,.18-.94,.5-1.45,.18-.3-.19-.63-.2-.94-.03-.42,.23-.84,.19-1.31,.08,1.02-2.07,2.04-4.11,3.04-6.17,.38-.78,.97-1.49,.92-2.43,.46-.69,.59-1.52,.95-2.25,.19-.39,.32-.79,.41-1.24,.12-.62,.48-1.2,.76-1.84Z" style="fill: #fff;"/>
  <path d="M73.13,92.8c.03-.64-.13-1.15,.22-1.59-.06-.25-.24-.53-.17-.74,.3-.98,.41-2.01,.86-2.95,.59-1.24,1.53-2.51,2.65-3.53,.47-.03,.69,.34,.91,.63,.87,1.19,1.7,2.41,2.53,3.63,.61,.9,1.21,1.82,1.46,2.91,.95,1.73,1.42,3.64,2.06,5.48,.05,.15,.14,.31,.14,.46-.04,1.16,.53,2.25,.4,3.43-.02,.2,.13,.41,.2,.64-.05,.1-.17,.25-.19,.4-.05,.38,.06,.82-.09,1.15-.34,.76-.3,1.62-.65,2.35-.36,.74-.38,1.57-.79,2.31-.39,.69-.33,1.58-.72,2.31-.1,.18-.11,.42-.12,.63,0,.39-.03,.74-.2,1.12-.17,.38-.15,.86-.15,1.3-.01,1.83,0,3.66,0,5.54,.59,.79,.65,1.8,1.01,2.79-.15,.17-.32,.37-.53,.61-.32-.15-.61-.28-.95-.44-.24-.43-.51-.91-.78-1.39-.3-.15-.59-.3-.88-.45-.24,.12-.48,.24-.72,.36-.19,.5-.37,1.01-.56,1.5h-.37q-.56-1.8-1.5-2.59h-.59c-.33,.35-.71,.75-1,1.05-.19,.34-.02,.66-.36,.85-.1-.11-.21-.23-.36-.39-.1-.52-.06-1.07-.05-1.62,.01-.49-.1-1,.25-1.44,.08-.11,.04-.32,.04-.48,.02-.33-.09-.74,.06-.98,.33-.55,.12-1.21,.48-1.73,.29-1.49,.89-2.9,1.19-4.44,.18-.23,.38-.49,.6-.77,.01-.21-.04-.46,.05-.65,.27-.55,.24-1.17,.46-1.72,.14-.35,.32-.69,.48-1.04,.03-.49,.04-.99,.1-1.48,.02-.15,.15-.29,.25-.49-.08-.17-.17-.37-.3-.66,.07-.16,.17-.41,.27-.65-.2-.78-.4-1.56-.61-2.34-.11-.42-.29-.83-.32-1.25-.04-.45-.43-.63-.6-.96-.52-1.03-1.16-1.98-1.89-2.87-.44-.54-.6-1.29-1.21-1.79Z" style="fill: #fff;"/>
  <path d="M38.78,100.14c-1.39,1.42-2.46,3.07-3.6,4.75v1.36c.54,1.59,1.63,2.78,2.55,4.06,.62,.85,1.53,1.42,2.5,1.84,.38,.17,.82,.2,1.23,.29-.03,.17-.06,.27-.08,.37-1.25,.53-2.52,1-3.81,1.4-.63,.17-1.29,0-1.94,.3-.42,.2-.99,.2-1.44-.05-.32-.17-.64-.14-.97-.17-.44-.04-.9-.02-1.31-.14-.88-.27-1.81-.37-2.64-.83-.42-.23-.91-.35-1.41-.54,.02-.14,0-.3,.06-.43,.42-.83,.95-1.61,.96-2.59q.64-2.22,.57-3.86c-.14-.3-.27-.6-.45-.98-.61-.59-1.29-1.24-1.97-1.9-.26-.2-.74,.09-.87-.45,.51-1.09,1.26-2.09,2.02-3.08,.57-.74,1.1-1.51,1.54-2.33,.44-.8,1.05-1.52,1.24-2.46,.05-.24,.32-.44,.49-.66v-1.68c-.14-.66-.58-1.15-.98-1.63-.04-1.46-.93-2.75-.6-4.25,.27-.18,.57-.43,.9-.61,.33-.18,.7-.28,1.04-.44,1.04-.5,2.05-1.05,2.88-1.88,.56-.55,1.02-1.13,1.16-1.95,.05-.31,.27-.59,.43-.94,.77,.22,1.55,.41,2.29,.69,.29,.11,.6,.37,.73,.65,.66,1.31,1.81,2.03,3.03,2.69,.19,.11,.43,.16,.58,.31,.66,.65,1.56,.74,2.38,1.03,.59,.71,.51,1.64,.81,2.45,.09,.23,0,.53-.02,.93-.7-.76-1.45-1.27-1.8-2.12-.04-.1-.14-.17-.22-.25-.59-.69-2.24-1.97-3.55-2.75h-2.42c-.27,.14-.52,.27-.78,.41-.26,.38-.54,.79-.8,1.16-.02,.2-.03,.37-.05,.57-.79,.34-1.32,.94-1.65,1.97v.91c-.32,.27-.65,.48-.89,.76-.2,.25-.3,.58-.45,.87v1.94c.55,1.47,1.51,2.6,2.33,3.83,.84,1.25,1.86,2.32,2.96,3.43Z" style="fill: #fff;"/>
  <path d="M57.39,69c-1.29,.74-2.76,.99-4.12,1.56-.24-.48-.49-.97-.71-1.39,.11-.35,.21-.66,.39-1.26,.26-.2,.74-.58,1.22-.96-.03-.03-.06-.07-.1-.1,.53-.28,1.05-.57,1.57-.85,.17-.56,.33-1.07,.48-1.56-.11-.29-.21-.54-.3-.79,.43-1.11,.61-2.32,1.46-3.25,.3-.18,.48,.12,.82,.25h5.95c.24,.42,.48,.84,.68,1.2,0,.45,.08,.86-.02,1.22-.09,.31-.29,.58-.28,.93,.01,.38,.07,.78-.23,1.11,.07,.15,.13,.29,.21,.47-.32,.69-.43,1.43-.24,2.2,.05,.04,.08,.1,.13,.12,.16,.04,.32,.06,.49,.09,1.01-.55,1.23-1.64,1.77-2.57,.56-.34,1.16-.72,1.79-1.11h2.11c.59,.23,1.29,.51,1.98,.78,.25,.42,.46,.8,.68,1.16v1.93c-.29,1.05-1.06,1.63-1.73,2.31-.39,.13-.8,.27-1.3,.44-.56-.37-1.29-.25-2.03-.28-.26,.14-.55,.3-.83,.45-.14,.38-.19,.75-.02,1.13,.37,.84,.49,1.76,.83,2.63,.32,.81,.67,1.61,1.03,2.4,.06,.14,.04,.33,.06,.56,.32,.32,.64,.7,1.03,1.01,.33,.26,.85,.28,.96,.84-.56,.78-1.07,1.61-1.79,2.3-.88,.85-1.96,1.18-3.1,1.33-.71,.09-1.44,.02-2.21,.02-.38-.25-.79-.51-1.2-.78-.02-.33-.04-.6-.06-.94,.42-.47,.86-.95,1.34-1.48v-1.45c-.22-.6-.37-1.25-.7-1.81-.34-.58-.55-1.18-.8-1.89-.31-.18-.68-.41-1.02-.61-.46,.1-.87,.22-1.3,.27-.38,.04-.78,.04-1.16,0-.43-.04-.89,.13-1.29-.14-.01-.12-.02-.23-.04-.36,.17-.19,.35-.4,.58-.67,.04-1.3,.86-2.52,.72-3.97-.12-.13-.26-.29-.42-.48h-1.31Zm9.77-1.27c.48,.54,.89,.01,1.52-.12h2.89c.42-.29,.77-.55,.87-.99-.21-.64-.82-.7-1.26-.97h-1.79c-1.78,.92-2.09,1.13-2.27,1.6,.01,.15,.02,.31,.03,.47Zm-8.27-2.46c.85,.14,1.33-.43,2.12-.66h1.27c.19-.18,.35-.33,.53-.5-.01-.32-.02-.65-.05-.97,0-.04-.07-.08-.15-.16-.5,0-1.06-.08-1.57,.02-.51,.1-.99,.41-1.49,.59-.43,.16-.74,.46-1.01,.8-.06,.07-.04,.2-.1,.49,.12,.1,.33,.27,.44,.37Z" style="fill: #fff;"/>
  <path d="M69.85,104.71c-.66,.77-1.35,1.11-2.2,1.31-.67,.16-1.37,.31-2.04,.53-.65,.21-1.38,.27-2.08,.37-.96,.13-1.96-.29-3.01-1.12-.1-.55,.13-1.21-.34-1.68-.12-.83,.16-1.69-.34-2.45-.05-.08-.02-.22-.02-.33-.01-.44,0-.89-.04-1.33-.04-.37-.27-.69-.34-1.08-.15-.75-.31-1.49-.31-2.26,0-.26-.1-.53-.17-.91,.22-.5,.28-1.12-.18-1.78,0-1.32-.02-2.71,0-4.09,0-.49,.06-.96,.25-1.45,.21-.54,.12-1.2,.17-1.85,.19-.32,.43-.68,.62-1.07,.17-.34,.28-.7,.46-1.19,.17-.18,.43-.46,.68-.71,.15,.02,.28,0,.36,.05,.4,.28,.79,.59,1.19,.88,.55,.39,1.62,.74,2.29,.75,.72,.01,1.44,0,2.11,0,.24,.21,.23,.37,.13,.61-.4,1-.78,2.02-1.2,3.14,.05,.1,.14,.29,.27,.54-.08,.15-.17,.34-.3,.59-.1,.68,.13,1.47-.2,2.19,.07,.42,.19,.84,.19,1.26-.02,1.05,.06,2.08,.53,3.05,0,.8,.42,1.45,.81,2.09,.32,.52,.41,1.12,.66,1.66,.09,.2,.12,.42,.22,.61,.29,.53,.61,1.04,.9,1.56,.26,.47,.33,1.03,.75,1.44,.13,.13,.12,.41,.18,.67Z" style="fill: #fff;"/>
  <path d="M48.5,89.56c0-.52-.17-1.09-.32-1.68-.12-.47-.34-.9-.4-1.41-.12-.97-.76-1.68-1.63-2.14-.48-.25-.99-.45-1.47-.72-1.1-.62-2.18-1.26-3.26-1.9-.09-.05-.14-.17-.22-.27,.42-.14,.82-.27,1.27-.42,.01,0,.09-.02,.12,0,.55,.48,1.31,.09,1.9,.46,.45,.28,.96,.2,1.48,.12,.13-.27,.26-.56,.38-.82-.11-.22-.21-.42-.33-.67-.58-.3-1.15-.79-1.89-.8-.55,0-.88-.38-1.36-.49,.02-.3,.04-.51,.05-.71,.34-.17,.63-.31,.92-.46h1.66c1.21,.38,2.39,.79,3.26,1.61h1.32c.46-1.19,1.21-2.19,2.06-3.24,.14-.07,.38-.19,.7-.35,.09,.1,.2,.23,.29,.33,.13,.48,.16,.92-.09,1.31-.4,.65-.46,1.44-.96,2.05-.26,.32-.38,.78-.49,1.19-.07,.26-.11,.64,.03,.81,.37,.44,.19,.97,.36,1.42,.18,.23,.35,.45,.57,.73v1.66c.34,.86,.89,1.55,.69,2.42,.22,.46,.49,.89,.64,1.35,.13,.39,.12,.83,.19,1.35-.01,.03-.08,.18-.13,.31,.27,.64,.48,1.27,1.14,1.61,.11-.08,.24-.18,.36-.26,.36-.6-.13-1.38,.5-1.88,0-.86-.16-1.73,.04-2.51,.21-.78,.28-1.61,.53-2.45,.29-.26,.58-.51,.88-.78,.07,.12,.17,.24,.15,.28-.39,.66-.28,1.39-.32,2.1-.2,.39-.39,.79-.6,1.2q-.08,5.36,.17,6.09c-.07,.46-.24,.84-.13,1.08,.23,.47,.32,.95,.28,1.44-.05,.62,.4,1.13,.31,1.77-.09,.61,.1,1.19,.32,1.76,.07,.19,.01,.44,.01,.77-.72,.73-1.49,1.52-2.29,2.34-.32,.16-.66,.32-.99,.48h-.99c-.29-.29-.64-.64-.9-.9-.23-1-.39-1.86-.78-2.65-.29-.59-.83-2.3-.72-3.24-.23-.85-.39-1.66-.68-2.41-.29-.77-.37-1.59-.65-2.35-.28-.77-.59-1.52-.97-2.51Z" style="fill: #fefefe;"/>
  <path d="M30.42,64.55c.01,.68,.22,1.12,.51,1.64,.71,.3,1.5,.63,2.27,.95,.22,.39,.41,.73,.62,1.1v2.9c-.16,.46-.31,.87-.51,1.43-.73,.57-1.15,1.67-2.16,2.29,.1,1-.17,2.03,.26,3.06,.18,.42,.03,.98,.03,1.47,.34,.2,.62,.37,1.01,.61h1.59c0,.21,.04,.37,0,.5-.48,1.54-1.74,2.33-2.99,3.14-.32,.21-.66,.39-1,.56-.09,.05-.21,.03-.31,.05-.34-.13-.21-.47-.3-.71-1.23-.92-2.7-1.31-4.15-1.82,.07-.53,.14-.99,.17-1.45,.03-.44,.02-.89,0-1.33-.01-.5,.06-1.03-.1-1.47-.16-.43-.15-.86-.26-1.35-.12-.11-.27-.36-.45-.39-.73-.09-1.31-.53-2.07-.9-.46-.43-1.02-.97-1.59-1.52-.29,0-.56,.02-.83,0-.59-.06-1.2,.09-1.79-.21-.48-.24-1.04-.24-1.57-.41-.63-.21-1.07-.5-1.34-1.09-.09-.2-.21-.38-.3-.53v-.81c.23-.6,.8-.63,1.27-.97,.7,0,1.48,.07,2.25-.02,.8-.09,1.46,.54,2.27,.31,.27-.39,.55-.79,.83-1.19-.42-1.01-.84-2.01-1.26-3.03,0-.53,0-1.09,0-1.64,.14-.41,.27-.82,.41-1.25,.06,0,.15,0,.22,.03,.4,.16,.81,.32,1.21,.5,1.62,.7,3.1,.22,4.52-.56,.78-.43,1.41-1.04,2.06-1.73,.39,.22,.68,.52,.87,.91,.16,.34,.29,.69,.45,1.1-.47,.36-.94,.65-1.3,1.03-.33,.35-.54,.81-.81,1.25,0,.14,.02,.3,.03,.53,.19,.06,.39,.13,.61,.2,.51-.35,1-.69,1.65-1.14Zm1.18,3.12c-.14,0-.31-.04-.47-.02-.21,.03-.42,.08-.63,.15-.67,.21-1.34,.42-2,.66-.83,.3-1.65,.55-2.55,.49-.44-.03-.88,.02-1.33,.04-.28,.3-.54,.57-.79,.84,.27,.82,.51,1.59,.76,2.34,.56,.7,1.11,1.38,1.58,1.98,.53,.18,.94,.33,1.34,.47h1.31c.57-.28,1.1-.55,1.7-.85,.4-.45,.9-.9,1.26-1.45,.64-.97,.65-2.15,.87-3.22-.14-.62-.48-1.1-1.06-1.42Zm-10.83,3.17c-.28-.54-.86-.63-1.35-.85h-1.63q-1.04,.52-1.28,1.09,1.29,.56,3.13,.58c.33,0,.65-.04,.98-.07,.04,0,.08-.07,.15-.14v-.6Zm5.71-4.26c-.46-.95-1.31-.95-1.92-1.24-.77,0-1.48,0-2.19,0-.04,0-.08,.07-.17,.18-.02,.13-.05,.34-.09,.56,.17,.16,.33,.31,.54,.52,.89-.07,1.75,.24,2.6,.58,.28,.11,.64,.07,.96,.07,.08,0,.16-.13,.25-.2,.01-.16,.02-.32,.03-.47Z" style="fill: #fefefe;"/>
  <path d="M17.03,108.63h-1.02c-1.16-1.04-1.65-2.44-1.88-3.85,.34-.83,.67-1.52,.91-2.24,.23-.67,.77-1.21,.79-1.97,.49-.85,.93-1.73,1.47-2.55,.33-.51,.64-1.01,.92-1.55,.32-.63,.66-1.27,1.12-1.79,.88-.99,1.6-2.09,2.41-3.12,.89-1.12,1.95-2.1,3.21-2.82,.24,.65,.24,.67-.07,1.83,.26,.24,.53,.49,.77,.71,.98-.18,1.63-1.05,2.63-.95,.32,.61,.05,1.24,.28,1.91,.25,.16,.57,.36,.92,.58-.01,.25-.03,.53-.05,.81-.87,1.43-1.75,2.87-2.64,4.31-.2,.32-.43,.64-.7,.91-.48,.47-.8,1.04-1.09,1.73-1.02,.77-1.54,2.01-2.33,3.07-.43,.57-.87,1.13-1.35,1.65-.49,.53-1.02,1.02-1.52,1.53-.74,.75-1.53,1.42-2.77,1.8Z" style="fill: #fff;"/>
  <path d="M36.56,93.84c-.37-.78-.72-1.52-1.1-2.32,.39-.15,.74-.24,1.06-.41,.33-.17,.63-.42,.91-.61,.02-.24,.04-.4,.05-.57-.2-.39-.39-.78-.59-1.16,.52-.5,1.43-.26,1.9-1.07,0-.17,.02-.45,0-.71-.02-.2-.12-.38-.23-.68,.54,.15,.99,.29,1.5,.43,.68,.67,1.38,1.38,2.11,2.06,.57,.53,.83,1.28,1.44,1.8,.54,.46,.94,1.06,1.38,1.63,.94,1.22,2.01,2.34,3.1,3.6-.02,1.1,.6,2.22,.41,3.4,.3,.99,1.02,1.74,1.04,2.8,0,.34,.33,.68,.49,1.03,.09,.2,.11,.42,.16,.59-.5,.65-.96,1.25-1.49,1.93-.37,.03-.81,.06-1.16,.09-.58-.27-1.06-.5-1.46-.92-.99-1.04-2.04-2.04-3.02-3.1-.67-.72-1.26-1.52-1.89-2.29-.28-.34-.52-.71-.82-1.03-.95-1-1.97-1.91-2.61-3.18-.24-.48-.73-.82-1.18-1.31Z" style="fill: #fff;"/>
  <path d="M51.1,109.93c-.24-.39-.43-.73-.64-1.04-.21-.32-.44-.62-.71-.99,.29-.41,.72-.68,1.03-1.04,.32-.37,.61-.77,.97-1.23,.45,.1,.97,.27,1.49,.33,.55,.06,1.11,.01,1.74,.01,.97-.74,1.97-1.5,2.99-2.28,.15,.57,.3,1.13,.44,1.64-.32,.53-.63,1.04-.92,1.54v3.42c.07,.14,.17,.34,.31,.61-.16,1.41,.46,2.69,1.16,4.01,.24,.19,.54,.43,.8,.64,.21,.66-.4,.89-.59,1.33-.02,.27-.05,.54-.08,.83-.14,.4-.64,.61-.61,1.12,.02,.45-.49,.75-.36,1.23-.32,.75-.63,1.5-.98,2.24-.39,.83-.59,1.74-1.23,2.47-.27,.3-.29,.81-.47,1.2-.11,.23-.29,.43-.48,.69-.35-1.01-1.32-1.45-1.66-2.35-.33-.89-1.27-1.38-1.5-2.45v-2.57c.09-.17,.19-.37,.33-.64,0-1.52,0-3.13,0-4.73,0-.22,.06-.51-.05-.65-.43-.56-.19-1.29-.57-1.87-.29-.45-.51-.98-.42-1.48Z" style="fill: #fff;"/>
  <path d="M86.26,102.35c.56-.53,1.16-1.1,1.59-1.5,.56-1.11,1.01-1.99,1.45-2.86,.12,.01,.22,.03,.33,.04,.22,.3,.14,.64,.11,.96-.03,.26-.18,.5-.26,.71,.12,.21,.2,.35,.25,.45,.05,3.93,.1,7.81,.17,11.68,0,.1,.11,.19,.16,.29-.08,.14-.15,.29-.24,.45v1.48c.4,.51,.36,1.02-.01,1.55,.11,.57-.15,1.19,.17,1.77,.05,.09-.08,.28-.11,.42-.09,.5-.09,.98,.19,1.35v3.64c-.27,.25-.47,.17-.61,0-.3-.39-.56-.8-.85-1.2-1.07-1.49-2.42-2.72-3.71-4.01-.59-.59-1.18-1.17-1.78-1.78,0-.39,0-.78,0-1.16,0-.55-.11-1.15,.06-1.65,.35-1.03,.38-2.12,.81-3.14,.63-1.49,1-3.07,1.47-4.62,.27-.88,.4-1.79,.79-2.87Z" style="fill: #fefefe;"/>
  <path d="M33.56,78.19c-.15-.18-.22-.26-.36-.41-.03-.58-.06-1.24-.09-1.94,1.06-1.02,2.01-2.15,2.53-3.56,.45-1.19,.58-2.44,.49-3.34-.18-.71-.27-1.07-.37-1.49,.62-.2,1.24-.28,1.48-.97,.07-.2,.45-.28,.66-.45,.97-.83,1.65-1.89,2.25-3.01,.13-.23,.26-.47,.41-.75,.56,.68,1.06,1.31,1.59,1.9,.52,.57,1.08,1.11,1.65,1.69v.37c-.46,.82-.88,1.58-1.31,2.33-.38,.67-.36,1.47-.64,2.17-.09,.24-.09,.58,0,.82,.49,1.11,.16,2.29,.37,3.49,.08,.28,.17,.64,.27,.99-.83,.42-1.35,1.03-1.67,1.87,.02,.38-.11,.84,.28,1.26-.26,.18-.52,.36-.79,.54-1-.56-2.04-.89-3.08-1.19-.21-.06-.41-.21-.61-.2-.78,.06-1.47-.46-2.26-.33-.26,.04-.51,.12-.81,.19Z" style="fill: #fff;"/>
  <path d="M52.61,44.6c.13,.03,.33,.08,.6,.15-.44,1.03-1.41,1.5-1.97,2.33,.08,.41,.4,.61,.72,.81,1.08-.59,1.66-1.1,3.14-2.77v-1.63c-.37-.59-.9-1.05-1.6-1.34,.43-.57,.92-1.07,1.6-1.57,.02,.61,.04,1.1,.05,1.57,.2,.18,.36,.33,.51,.47h.57c.23-.18,.48-.39,.76-.62,.13,.02,.28,.05,.49,.09-.31,1.23-1.14,2.12-1.68,3.08,.07,.63,.72,.37,.79,.77,.56-.02,.97-.57,1.48-.16,.01,.1,.07,.24,.02,.31-.24,.37-.51,.71-.94,.89-1.29,.54-2.35,1.39-3.31,2.4-.85,.88-1.77,1.68-2.27,2.15-1.05,1.8-1.58,3.25-2.44,4.52-.23,.35-.27,.83-.5,1.18-.24,.37-.55,.69-.53,1.18,0,.05-.05,.09-.09,.14-.8,1.18-1.37,2.49-2.07,3.73-.22,.38-.48,.71-.56,1.16-.04,.25-.29,.44-.58,.6-.91-.65-1.43-1.57-1.99-2.43-.57-.87-.95-1.84-1.04-2.85,.23-.63,.54-1.13,.99-1.55,.72-.69,1.3-1.46,1.77-2.37,.6-1.15,1.38-2.23,2.2-3.25,.76-.95,1.37-1.97,2.04-2.97,.45-.68,.82-1.42,1.32-2.05,.65-.82,1.45-1.5,2.5-1.97Z" style="fill: #fefefe;"/>
  <path d="M72.93,111.7c-1.68,.74-3.32,1.46-5.09,2.23-.3,.02-.74,.05-1.14,.07-.17,.1-.32,.19-.5,.3h-4.78c-.81-.52-1.21-1.22-1.33-2.17-.08-.59-.3-1.15-.28-1.76,0-.26-.12-.53-.19-.79-.04-.16-.11-.31-.12-.47-.02-.22,0-.44,0-.74,.09-.08,.21-.19,.23-.21,.55-.26,1.07-.28,1.42-.13,.86,.37,1.74,.21,2.6,.27,.17,0,.33-.02,.5,0,1.41,.15,2.67-.42,3.96-.86,1.58-.53,2.86-1.54,4.15-2.54,.26-.2,.51-.43,.79-.59,.44-.26,.77-.59,1.02-1.04,.21-.37,.54-.67,.81-.98q.51,.24,.18,.96c.25,.87-.24,1.73-.36,2.64-.11,.85-.43,1.67-.7,2.49-.2,.62-.41,1.25-.74,1.8-.28,.46-.06,1-.43,1.53Z" style="fill: #fff;"/>
  <path d="M74.39,99.84c-1.11,.89-1.36,2.53-2.51,3.47-.58-.12-.72-.59-1.02-.89,.08-.79-.86-1.16-.79-1.94-.36-.56-.62-1.15-.64-1.84,0-.2-.18-.39-.28-.59-.22-.44-.53-.86-.63-1.33-.11-.48-.21-.95-.33-1.43-.14-.58-.08-1.21-.08-1.82,0-1.39,0-2.77,0-4.02,.53-1.24,.95-2.36,1.48-3.43,.51-1.02,1.13-1.99,1.8-3.15,.39-.56,1.29-.95,1.55-1.95,.25,.1,.46,.15,.63,.26,.6,.37,1.2,.76,1.77,1.13,.06,.4-.23,.55-.42,.66-.59,.34-.94,.89-1.32,1.4-.49,.65-.96,1.33-1.34,2.05-.83,1.54-1.31,3.78-1.05,5.39,.1,.64,.27,1.28,.29,1.96,.29,.32,.58,.65,.92,1.02,.02,.17,0,.43,.1,.6,.45,.75,.93,1.48,1.43,2.2,.13,.19,.18,.38,.22,.6,.09,.47,.46,.88,.23,1.64Z" style="fill: #fefefe;"/>
  <path d="M21.7,76.66c.83-.18,1.06,.67,1.66,.72,.23,.45,.11,.9,.14,1.33,.03,.44,0,.88,0,1.29-.36,.42-.68,.8-1.01,1.18v.87c.35,.65,1.07,.92,1.68,1.18,.61,.26,1.2,.5,1.72,.92,.55,.45,1.39,.34,1.9,.98v2.97c-.17,.27-.44,.25-.72,.18-.3-.16-.21-.48-.35-.95-.14-.12-.43-.37-.78-.67h-1.79c-.66,.39-1.36,.8-2.05,1.21-1.07-.32-1.95-.97-2.99-1.3-.71-.22-1.35-.72-1.97-1.16-.58-.42-1.07-.95-1.28-1.78,.57-1.32,1.32-2.63,2.46-3.7,1.01-.94,1.97-1.95,2.95-2.92,.15-.15,.33-.28,.43-.36Z" style="fill: #fefefe;"/>
  <path d="M31.71,53.65h1.78c1.21,.46,2.23,1.1,2.93,2.14,.3,.45,.56,.93,.85,1.39,.15,.23,.34,.44,.5,.65-.02,.8,.45,1.48,.4,2.27-.05,.77-.01,1.55-.01,2.18-.57,.73-1.04,1.34-1.52,1.94-.74,.22-1.02,1-1.77,1.41-.15-.01-.41-.04-.8-.07,.72-.73,1.33-1.36,1.97-2.01,.12-.68,.54-1.3,.48-2.04,.41-.55,.37-1.1,.06-1.7-.14-.27-.09-.65-.14-1.17-.18-.14-.48-.39-.81-.65h-.84c-1.3,.55-2.56,1.36-4.06,1.71-.19-.2-.37-.38-.57-.58,.23-.13,.42-.24,.59-.33,.09-.45-.23-.61-.51-.82h-2.1c-.43-.32-1.19-.22-1.64-.84v-.7c.44-.43,.92-.9,1.22-1.19,1.28-.8,2.44-1.27,3.99-1.59Zm.96,4.28c.52-.09,.99-.26,1.28-.68,.18-.25,.24-.59,.34-.88,.52-.17,.86-.49,1.11-.96-.17-.15-.33-.3-.51-.46h-1.13c-.86,.55-1.21,1.4-1.53,2.24,.16,.27,.29,.5,.43,.74Z" style="fill: #fbfbfb;"/>
  <path d="M87.47,96.69c-.51,.59-.49,1.43-1.15,1.89-.16-.4-.31-.78-.45-1.17-.04-.1-.02-.22-.03-.33-.02-.28,.07-.63-.07-.82-.36-.48-.19-1.07-.43-1.57-.19-.39-.31-.81-.46-1.22-.47-1.27-1-2.52-1.41-3.82-.05-.15-.13-.3-.21-.44-.8-1.43-1.72-2.79-2.59-4.17-.15-.23-.39-.39-.56-.61-.33-.43-.63-.87-.96-1.33,.94-.31,1.81-.6,2.65-.87,1.07,.68,1.54,1.79,2.3,2.65,.32,.36,.52,.83,.78,1.24,.24,.36,.52,.67,.63,1.14,.11,.46,.52,.83,.7,1.28,.24,.6,.61,1.17,.56,1.85-.04,.53,.3,.94,.34,1.43,.03,.44-.01,.87,.24,1.29,.13,.21,.11,.53,.11,.81,.01,.89,0,1.78,0,2.78Z" style="fill: #fcfcfc;"/>
  <path d="M77.89,81.87c-.93-.79-1.8-1.63-2.77-2.35-.78-.58-1.65-1.06-2.53-1.5-.46-.23-.77-.53-1.07-.91,1.44-.48,2.83-.94,4.44-1.48h3.12c.5,.23,1.05,.47,1.68,.76,.28,.29,.62,.65,.99,1.03v1.68c-.15,.09-.41,.17-.49,.33-.42,.86-1.18,1.25-1.99,1.6-.45,.19-.84,.5-1.38,.83Z" style="fill: #fefefe;"/>
  <path d="M36.64,51.33c-.13,.12-.53,.5-.93,.88-.42-.19-.81-.36-1.22-.55-.4-.07-.86,.09-1.32-.22,.31-.79,.32-1.65,.72-2.44,.43-.84,1.07-1.54,1.67-2.22,.56-.64,1.41-1.02,2.13-1.51,.95,.32,1.79-.65,2.72-.14,.04,.61-.47,.69-.79,.96-.32,.28-.52,.7-.81,1.12v1.2c.49,.36,.95,.61,1.55,.6,.23,0,.47,.21,.86,.41-1.55,.59-3.04,.85-4.59,1.91Z" style="fill: #fcfcfc;"/>
  <path d="M35.55,123.93c.53,.41,.93,.77,.94,1.39,.56,1.06,.98,2.19,1.66,3.18,.43,.63,.55,.92,.63,1.63-.09,.06-.18,.16-.27,.16-2.49,.01-4.97,.02-7.46,.02-.16,0-.31-.05-.52-.09,1.66-2.14,3.55-4.03,5.01-6.28Z" style="fill: #fcfcfc;"/>
  <path d="M26.11,111.79c-.44,.47-.74,.95-1.28,1.15-.05,.02-.11,0-.17,0-.06-.08-.18-.16-.18-.24-.01-1.05,0-2.09,0-3.12-.37-.99-1.08-1.64-1.95-2.15,0-.11-.02-.25,.03-.31,.68-.85,1.38-1.68,2.04-2.49,.78,.12,1.24,.58,1.74,1,.52,.44,.85,.99,1.12,1.68-.32,.42-.27,.97-.35,1.51-.07,.47-.24,.94-.42,1.39-.2,.5-.56,.94-.59,1.58Z" style="fill: #fcfcfc;"/>
  <path d="M42.11,104.18c-.3,.42-.67,.83-.93,1.31-.3,.57-.6,1.18-.2,1.86,.1,.18,.13,.41,.14,.62,.02,.44,.07,.86,.33,1.25,.1,.15,.02,.41,.02,.7-.27,.03-.47,.05-.64,.06-1.5-1-2.32-2.52-3.34-3.97v-1.11c.57-.82,1.15-1.68,1.75-2.52,.19-.27,.42-.51,.68-.82,.78,.93,1.48,1.76,2.19,2.62Z" style="fill: #fbfbfb;"/>
  <path d="M74.46,129.9c-2.56,.15-6.08,.12-7.26-.05,.82-1.64,1.63-3.27,2.41-4.83,.37-.08,.52,.09,.66,.25,.39,.45,.72,.98,1.18,1.33,.49,.38,.89,.78,1.19,1.32,.08,.14,.22,.27,.36,.33,.74,.28,1.04,.93,1.44,1.65Z" style="fill: #fbfbfb;"/>
  <path d="M45.6,107.22c.57,.28,1.16,.57,1.8,.89-.23,.51-.72,.77-1.07,1.16-.33,.37-.67,.73-1.06,1.04-.42,.34-.89,.61-1.34,.91-.27-.34-.11-.74-.14-1.11-.03-.38,0-.77,0-1.09-.22-.62-.43-1.17-.63-1.74,0-.31,.27-.45,.43-.66,.15-.21,.3-.42,.43-.62,.15,.04,.28,.03,.35,.09,.41,.36,.81,.74,1.22,1.12Z" style="fill: #f7f7f7;"/>
  <path d="M34.29,62.97c-.46,.5-1,1.1-1.69,1.62-.26-1.17-.5-2.27-.75-3.43,.63-.52,1.5-.72,2.22-1.16,.12-.08,.32-.03,.49-.03,.04,0,.09,.05,.22,.13,.22,.88-.06,1.76-.49,2.87Z" style="fill: #f6f6f6;"/>
  <path d="M17.41,60.89c-.46-.15-.86-.28-1.29-.42,.11-.52,.33-.96,.69-1.3,.36-.33,.64-.74,1.15-.92,.44-.16,.68-.67,1.28-.68,.39,0,.78-.37,1.19-.58,.58-.01,1.18-.03,1.74-.31,.14-.07,.38,.03,.63,.06-.56,.74-1.47,.62-2.06,1.13-.58,.49-1.27,.84-1.9,1.28-.64,.45-1.03,1.12-1.44,1.74Z" style="fill: #eee;"/>
  <path d="M17.93,92.61c-.05-.16-.1-.31-.17-.53,.2-.41,.42-.84,.7-1.42,0-.12,.02-.39,.04-.73,.15-.28,.33-.61,.51-.95h.92c.17,.14,.37,.31,.55,.47-.03,.6-.46,.77-.87,.97-.41,.83-.87,1.64-1.69,2.2Z" style="fill: #ddd;"/>
  <path d="M67.16,67.73c-.01-.16-.02-.33-.03-.47,.18-.47,.48-.68,2.27-1.6h1.79c.44,.27,1.05,.33,1.26,.97-.1,.44-.45,.7-.87,.99h-2.89c-.62,.13-1.03,.66-1.52,.12Z" style="fill: #101010;"/>
  <path d="M58.89,65.27c-.12-.1-.32-.27-.44-.37,.05-.29,.04-.42,.1-.49,.27-.34,.58-.64,1.01-.8,.5-.18,.97-.49,1.49-.59,.52-.1,1.07-.02,1.57-.02,.08,.08,.15,.12,.15,.16,.02,.32,.03,.64,.05,.97-.18,.17-.34,.32-.53,.5h-1.27c-.79,.23-1.27,.79-2.12,.66Z" style="fill: #0d0d0d;"/>
  <path d="M31.6,67.67c.58,.32,.92,.81,1.06,1.42-.22,1.08-.23,2.25-.87,3.22-.36,.55-.86,1-1.26,1.45-.6,.3-1.14,.57-1.7,.85h-1.31c-.4-.14-.81-.28-1.34-.47-.48-.6-1.02-1.28-1.58-1.98-.24-.75-.49-1.52-.76-2.34,.25-.26,.51-.54,.79-.84,.45-.02,.89-.07,1.33-.04,.9,.06,1.73-.19,2.55-.49,.66-.24,1.33-.45,2-.66,.2-.07,.42-.12,.63-.15,.16-.02,.33,0,.47,.02Zm-.81,1.62c-1.17,.34-2.2,.63-3.32,.96-.53,.08-1.19-.07-1.87,.11,.28,.83,.58,1.64,1.32,2.13,.49,.32,1.03,.64,1.71,.39,.41-.28,.86-.59,1.36-.93,.27-.53,.56-1.1,.8-1.57v-1.09Z" style="fill: #070707;"/>
  <path d="M20.77,70.84v.6c-.07,.07-.11,.14-.15,.14-.33,.03-.65,.07-.98,.07q-1.83-.01-3.13-.58,.24-.56,1.28-1.09h1.63c.49,.23,1.07,.31,1.35,.85Z" style="fill: #151515;"/>
  <path d="M26.48,66.58c0,.15-.02,.31-.03,.47-.09,.08-.17,.2-.25,.2-.32,0-.67,.05-.96-.07-.85-.35-1.71-.65-2.6-.58-.21-.2-.37-.35-.54-.52,.03-.22,.07-.43,.09-.56,.1-.1,.14-.18,.17-.18,.71,0,1.42,0,2.19,0,.61,.29,1.46,.29,1.92,1.24Z" style="fill: #101010;"/>
  <path d="M32.67,57.94c-.14-.24-.27-.47-.43-.74,.32-.84,.67-1.68,1.53-2.24h1.13c.18,.16,.34,.31,.51,.46-.25,.47-.59,.79-1.11,.96-.11,.28-.16,.62-.34,.88-.29,.42-.77,.59-1.28,.68Z" style="fill: #181818;"/>
  <path d="M30.79,69.29v1.09c-.24,.47-.53,1.04-.8,1.57-.5,.34-.95,.65-1.36,.93-.68,.25-1.22-.07-1.71-.39-.74-.49-1.05-1.3-1.32-2.13,.68-.19,1.34-.03,1.87-.11,1.13-.33,2.15-.62,3.32-.96Z" style="fill: #f9f9f9;"/>
</svg>