<?xml version="1.0" encoding="UTF-8"?>
<svg id="Ebene_1" data-name="Ebene 1" xmlns="http://www.w3.org/2000/svg" width="35.28mm" height="52.92mm" viewBox="0 0 100 150">
  <path d="M39.78,55.67c.13-.13,.29-.28,.47-.45-.38-.67-.47-1.31-.34-2.16,.17-.16,.46-.42,.7-.65,.84-.08,1.6-.07,2.35-.32,.66-.22,1.41,.04,2.11-.31,.32-.16,.76-.03,1.15-.07,.76-.07,1.54,.11,2.27-.29,.17-.1,.44-.03,.66-.03,.72,0,1.44,0,2.06,0,.25-.14,.39-.22,.58-.33h4.17c.23,.19,.48,.41,.71,.6,.61,1.04,.62,2.22,1.01,3.37,.42,.01,.85,.05,1.29,.03,.4-.02,.78,.37,1.22,.03,.14-.11,.43-.03,.65-.03,2.94-.02,5.89-.04,8.83-.05,.28,0,.55,.03,.94,.05,.33,.19,.75,.43,1.11,.64,.06,.2,.11,.3,.12,.41,.07,.59-.11,1.23,.28,1.77,.02,.77,.06,1.55,.05,2.32,0,.41,.1,.76,.3,1.07,.11,1.28-.14,2.57,.34,3.81-.08,.18-.16,.38-.27,.64,.08,.15,.17,.35,.33,.65,0,.16,0,.44,0,.71,.02,.49-.09,.98,.22,1.45,.13,.2,.07,.54,.07,.81,0,1.5,0,3,0,4.41,.14,.23,.22,.37,.35,.59,0,.53,0,1.14,0,1.75,0,.72-.12,1.48,.08,2.15,.21,.71,.21,1.4,.22,2.11,.02,1.16,0,2.33,0,3.36,.16,.27,.25,.41,.36,.59,0,1.52,0,3.07,0,4.63,0,.11-.03,.23,.01,.33,.55,1.44,.22,2.95,.37,4.53,.06,.15,.16,.4,.25,.64-.08,.16-.16,.31-.21,.4,.08,.24,.21,.44,.21,.65,.03,1.22,.02,2.44,.04,3.66,.01,.6-.11,1.21,.25,1.78,.13,.21,.07,.54,.08,.82,.01,.67,0,1.33,.02,2,0,.38-.02,.75,.19,1.13,.11,.2,.06,.55-.03,.78-.16,.38-.2,.71-.01,1.1,.11,.23,.13,.53,.13,.8,.01,1.39,0,2.78,0,4.2-.23,.46-.47,.95-.74,1.49-.23,.13-.52,.3-.84,.48-3.19,0-6.41,0-9.63,0-1.83,0-3.66,.01-5.5,.02-.27,0-.59-.03-.8,.1-.42,.26-.86,.18-1.29,.18-2.66,.02-5.33,.04-7.92,.06-.21,.11-.36,.19-.56,.3h-6.7c-.16,.08-.26,.14-.45,.23-.12-.05-.3-.19-.49-.19-1.16-.02-2.33-.01-3.48-.01-.16,.09-.3,.17-.5,.28-.16-.06-.36-.14-.72-.27-.65,.1-1.48-.21-2.27,.24-.21,.12-.55,.03-.82,.03-1.05,0-2.11,0-3.16-.01-.44,0-.86,0-1.29-.21-.53-.27-1.06,.09-1.55,.24-.16-.13-.3-.22-.42-.34-.16-.15-.3-.33-.49-.55,.22-.97-.35-1.88-.32-2.88,.02-.94-.03-1.89-.04-2.83,0-1,0-2,0-2.99-.11-.43-.3-.81-.3-1.28,.02-3,0-5.99-.03-8.99,0-.71,.11-1.44-.14-2.13-.14-.4,.3-.71,.12-1.08-.18-.35-.32-.7-.25-1.1,.07-.43,.15-.85,.23-1.3-.07-.12-.14-.26-.26-.48v-11c-.13-.28-.22-.48-.34-.74v-19.01c.36-.73,.96-1,1.58-1.27,.8-.08,1.64,.07,2.43-.32,.28-.13,.66-.03,.99-.07,.65-.07,1.34,.15,1.93-.29,.67-.01,1.33,0,2-.04,.65-.04,1.32,.12,1.95-.26,.21-.13,.54-.04,.82-.05,1.16-.02,2.32-.04,3.57-.06Zm7.93,15.37c.86,.28,1.46,.69,1.91,1.26,.44,.56,.88,1.13,1.2,1.76,.5,.97,.9,1.98,1.32,2.98,.15,.35,.33,.73,.3,1.09-.06,.81,.34,1.48,.56,2.2,.05,.15,.17,.31,.15,.46-.06,.59,.21,1.06,.48,1.5,.62,.3,1.21,.59,1.78,.86,.58,.55,1.14,1.09,1.67,1.59,.38,1.13,.6,2.26,1.21,3.25,.68,.14,1.35,.44,2.07,.38,.78-.07,1.48,.39,2.27,.31,.9-.09,1.73,.2,2.55,.53,.3,.12,.62,.21,.93,.31,.63,.53,1.34,.99,1.88,1.6,.5,.57,.85,1.27,1.19,1.95,.37,.73,.79,1.47,.93,2.26,.14,.8,.61,1.57,.3,2.51-.43,1.01-.9,2.11-1.28,2.99-.47,.51-.77,.84-.97,1.07-1.16,.56-2.18,1.11-3.24,1.56-1.05,.44-2.12,.84-3.21,1.15-1.3,.36-2.58,.9-3.84,.8-.38,.13-.64,.22-.89,.32-.5,.2-1.08,.25-1.41,.79,.49,.6,.06,1.42,.52,2.04,.11,.15,.08,.43,.06,.64-.07,.63,.38,1.13,.42,1.73,0,.12,.22,.23,.31,.31,.41-.07,.77-.17,1.13-.17,1.61-.03,3.22-.04,4.83-.04,3.17,0,6.33,.02,9.5,.03,.27,0,.56,.06,.81-.24-.09-.27-.22-.57-.27-.88-.05-.33-.02-.66-.02-1-.01-1.39-.03-2.78-.05-4.16,0-.28,.09-.62-.03-.82-.38-.63-.24-1.29-.27-1.94-.04-.89-.03-1.78-.04-2.66-.46-.71-.23-1.51-.28-2.26-.06-.83-.04-1.66-.05-2.5,0-.22,.08-.51-.03-.65-.44-.61-.21-1.29-.27-1.94-.03-.33,0-.67,0-.96-.13-.28-.24-.52-.32-.71,.12-.23,.2-.37,.3-.56-.37-.69-.3-1.47-.3-2.23-.01-1.66,0-3.32,0-4.91-.14-.21-.23-.35-.35-.54,0-.89,.03-1.84,0-2.78-.04-.93,.11-1.84-.21-2.78-.29-.85,.06-1.85-.33-2.69,.08-.14,.13-.24,.22-.39-.09-.21-.24-.45-.28-.71-.05-.32-.02-.66-.02-1-.02-1.89-.03-3.77-.05-5.66,0-.28,.07-.6-.04-.82-.4-.74-.24-1.51-.27-2.28-.02-.44,.13-.95-.05-1.32-.34-.7-.23-1.4-.25-2.11,0-.33,.02-.67-.02-1-.05-.37,.15-.78-.19-1.13-1.63,0-3.29,0-4.95,0-.11,0-.25-.03-.33,.02-.6,.41-1.29,.24-1.94,.27-.61,.03-1.22,0-1.83,0-.88,0-1.76,.02-2.69,.04-.17,.99-.04,1.93-.12,2.91-.44,.26-.86,.51-1.29,.76-.57,0-1.18-.16-1.66,.04-.77,.31-1.51,.23-2.28,.24-1.83,.01-3.66,0-5.44,0-.62,.59-1.19,.2-1.72,.05-.19,.11-.33,.19-.49,.29h-1.35c-.53-.18-.94-.32-1.3-.45-.61-.36-.83-.94-1.13-1.55v-1.01c-.2-.37-.36-.66-.51-.95h-2.5c-.71,.44-1.5,.26-2.26,.28-.72,.02-1.44,0-2.16,.01-.78,.01-1.55,.04-2.33,.06-.65,.44-1.4,.24-2.1,.31-.76,.08-1.48,.4-2.27,.3-.14-.02-.3,.09-.46,.15,0,.47-.14,.97,.03,1.33,.26,.54,.22,1.07,.23,1.62,.02,1.22,.05,2.44,.02,3.66,0,.46,.11,.86,.28,1.27-.08,.2-.17,.4-.28,.66,.07,.16,.16,.35,.3,.64v9.8c.63,.48,.21,1.05,.05,1.61,.22,.35,.27,.72,.28,1.11,0,2.94,.03,5.89,.05,8.83,0,.33-.11,.72,.03,.99,.37,.75,.23,1.52,.24,2.28,.02,3.28,0,6.55,0,9.74,.13,.23,.22,.38,.34,.6,0,1.98,.01,4.03-.01,6.08,0,.37-.18,.73-.23,.92v1.99c.2,.15,.37,.27,.49,.36,1.68-.56,3.36-.1,5.06-.41,.11-.66,0-1.32,0-1.75-.13-.53-.25-.84-.29-1.15-.12-1.03,.08-2.08-.29-3.1-.18-.49-.13-1.11-.05-1.65,.09-.6-.36-1.03-.33-1.6,.05-.77,.01-1.55,.01-2.24-.25-.54-.46-.98-.68-1.42,.03-.28-.02-.61,.11-.82,.29-.48,.15-.97,.19-1.46-.47-.82-.25-1.72-.31-2.59-.02-.32-.12-.63-.2-1.01,.29-.4,.24-.86-.14-1.4,0-.58,0-1.24,0-1.91,0-.44,.11-.93-.03-1.32-.37-1.03-.22-2.07-.25-3.11-.03-.94,0-1.88,0-2.69-.17-.32-.27-.52-.34-.64,0-.47,0-.86,0-1.25,0-.39,0-.78-.01-1.17,0-.33,0-.67,0-1,0-.39,.06-.78,.01-1.16-.05-.39,.26-.7,.25-.78-.15-.45-.2-.61-.22-.68,.45-1.13,.49-2.32,1.17-3.39,.29-.27,.66-.6,.89-.81,.65-.16,1.12-.28,1.64-.4,.54,.28,1.12,.61,1.72,.86,.43,.18,.77,.46,1.02,.82,.66,.94,1.43,1.81,1.85,2.91,.12,.31,.23,.64,.44,.88,.46,.5,.59,1.21,1.01,1.68,.49,.53,.49,1.21,.84,1.76,.21,.32,.36,.68,.52,1.02,.13,.29,.23,.59,.34,.89,.05,0,.1-.02,.15-.03v-2.46c.18-.36,.28-.55,.36-.72v-2.98c.42-1.65,.84-2.89,1.51-4.02,.53-.56,1.08-1.11,1.92-1.33h1.43Zm5.95,33.94c.81-.47,1.62-.77,2.48-.93,.64-.12,1.26-.32,1.85-.61,.34-.17,.71-.33,1.07-.37,.84-.09,1.58-.44,2.32-.77,.55-.25,1.09-.49,1.66-.68,.72-.25,1.45-.48,2.11-.89,.84-.52,1.75-.95,2.28-1.84,.11-.18,.12-.44-.29-.48-.26,.19-.55,.44-.88,.63-.33,.19-.69,.33-1.03,.49-.35,.17-.69,.34-1.07,.53h-4.72c-1.23-.67-2.33-1.38-3.15-2.46-.06-.08-.05-.2-.08-.35,.16-.18,.34-.38,.53-.58,1.03,.13,1.58,1.02,2.44,1.32,.47,.13,.94,.26,1.37,.37h1.8c.28-.2,.5-.36,.45-.74-.17-.23-.37-.49-.53-.7-.14-.31,.03-.63-.34-.88-.29,.07-.65,.17-1.3,.33h-1.65c-.18-.19-.33-.35-.46-.49v-.96c.37-.52,.78-.88,1.33-1.03,.57-.16,1.11-.43,1.7-.55,.58-.12,1.04-.56,1.67-.66,.36-.06,.69-.3,1.09-.31,.21,0,.42-.11,.62-.2,.17-.07,.32-.17,.53-.28-1.76-.81-3.14-1.13-4.81-1.17-.44,0-.93,.07-1.31-.1-.49-.22-.97-.18-1.46-.21-.39-.02-.77,0-1.06,0-.72-.38-.98-1.01-1.32-1.63v-1.02c-.31-.51-.6-.91-.81-1.35-.24-.51-.5-.98-.9-1.22-.47-.15-.84-.27-1.39-.45-1.58,0-3.35,0-5.13,0-.33,0-.72-.04-.97,.11-.56,.35-1.22,.04-1.77,.35-.57,.33-1.2,.12-1.81,.24-.47,.33-.98,.4-1.52,.14-.44-.58-.87-1.15-1.34-1.77-.02-.26-.05-.59-.08-.82-.38-.77-.78-1.43-1.04-2.15-.26-.73-.72-1.33-1.03-2.02-.02-.05-.08-.09-.09-.14-.18-1-.87-1.75-1.35-2.59-.42-.75-.87-1.55-1.71-2.01h-.67c-.14,.23-.34,.44-.41,.69-.18,.62-.23,1.3-.47,1.89-.29,.72-.28,1.42-.01,2.08,.26,.64,0,1.17-.14,1.71,.09,.29,.22,.54,.25,.8,.04,.44-.08,.92,.05,1.32,.16,.49,.1,.92,.01,1.38-.02,.11-.04,.24,0,.33,.38,.83,.26,1.73,.32,2.52,.13,.27,.23,.46,.34,.69v3.15c.45,1.06,.27,2.17,.29,3.26,0,.33-.04,.71,.1,.98,.31,.58,.25,1.18,.27,1.78,.02,.5,0,1,0,1.51,.08,.14,.22,.28,.23,.43,.05,.49,.08,.99,.07,1.49-.01,.51,.43,.89,.33,1.43-.06,.32-.03,.67,.03,.99,.06,.36,.19,.72,.28,1.02-.1,.17-.15,.26-.21,.36,.31,.44,.24,.94,.25,1.43,.02,.72,.03,1.44,.04,2.16,.45,.71,.27,1.5,.31,2.26,.03,.61,0,1.21,0,1.81,.18,.2,.33,.35,.45,.48,2.28,0,4.49,0,6.71,0,.27,0,.57-.01,.79-.13,.32-.17,.64-.13,.97-.14,.67-.02,1.33-.03,2-.03,.72,0,1.44,.02,2.16-.02,.65-.03,1.3,.05,1.97-.13,.67-.19,1.42-.12,2.13-.17,.27-.02,.56,.05,.76-.21,.01-.11,.03-.22,.03-.33,0-1.04,0-2.07-.31-3.09-.09-.31-.18-.62-.3-.92-.23-.62,.14-1.17,.43-1.84Zm-3.81-25.54c.17-1.14-.4-2.18-.7-3.27-.33-1.18-1.06-2.14-1.78-3.09h-1.04c-.2,.41-.41,.79-.58,1.19-.15,.35-.21,.74-.39,1.07-.29,.54-.04,1.22-.48,1.71-.03,.03-.02,.11-.02,.16,0,.44-.01,.89-.02,1.33,0,.06,0,.11,0,.17-.06,.76,.18,1.56-.3,2.26,.02,.59-.16,1.2,.14,1.72h1.24c.55-.51,1.29-.16,1.9-.44,.68-.31,1.41-.12,2.12-.2,.16-.02,.31-.05,.57-.09,.02-.44,0-.87-.01-1.29-.2-.4-.41-.79-.63-1.23Zm5.16-26.38c-.96,0-1.89,0-2.83,0-.22,0-.48-.06-.66,.03-.84,.42-1.73,.2-2.6,.26-.61,.04-1.22,.04-1.82,.06-.37,.38-.78,.2-1.19,.09-.45,.31-.97,.18-1.45,.19-.88,.01-1.72,.16-2.53,.48,.13,.4,.27,.8,.39,1.17,4.31,0,8.57,0,12.83,0,.09,0,.19-.09,.33-.15v-1.23c-.17-.33-.32-.62-.46-.89Zm.37,4.69c-4.1,0-8.15,0-12.2,0-.09,0-.19,.1-.3,.16-.16,.78,0,1.48,.5,2.12,.3,0,.58,.04,.85,0,.32-.05,.63-.27,.93-.26,1.31,.07,2.65-.27,3.93,.24,.14,.06,.37,.07,.49,0,.67-.43,1.39-.26,2.1-.27,1.22-.02,2.43-.03,3.65-.04,.15-.28,.27-.52,.4-.76-.12-.4-.24-.8-.36-1.18Zm12.42,37.74c.05-.31-.18-.52-.38-.66-.29-.19-.08-.71-.62-.75-.26,.18-.55,.56-.87,.58-.47,.04-.79,.4-1.24,.39-.38,0-.6,.22-.75,.47,.25,.74,.49,1.45,.73,2.16h.7c.7-.85,1.81-1.23,2.43-2.19Z" style="fill: #030303;"/>
  <path d="M47.71,71.03h-1.43c-.84,.22-1.38,.77-1.92,1.33-.67,1.13-1.09,2.37-1.51,4.02v2.98c-.08,.16-.18,.36-.36,.72v2.46c-.05,0-.1,.02-.15,.03-.11-.3-.21-.6-.34-.89-.16-.35-.31-.7-.52-1.02-.35-.55-.36-1.23-.84-1.76-.43-.47-.56-1.18-1.01-1.68-.21-.23-.32-.57-.44-.88-.42-1.09-1.19-1.97-1.85-2.91-.25-.35-.59-.64-1.02-.82-.6-.25-1.17-.58-1.72-.86-.52,.13-.99,.24-1.64,.4-.23,.21-.6,.54-.89,.81-.68,1.07-.72,2.26-1.17,3.39,.02,.07,.07,.23,.22,.68,.02,.07-.3,.38-.25,.78,.05,.38,0,.78-.01,1.16,0,.33,0,.67,0,1,0,.39,0,.78,.01,1.17,0,.39,0,.78,0,1.25,.07,.13,.17,.32,.34,.64,0,.81-.03,1.75,0,2.69,.04,1.04-.12,2.08,.25,3.11,.14,.39,.03,.88,.03,1.32,0,.67,0,1.33,0,1.91,.38,.54,.43,1,.14,1.4,.08,.37,.17,.69,.2,1.01,.07,.87-.16,1.77,.31,2.59-.04,.49,.1,.98-.19,1.46-.13,.21-.07,.53-.11,.82,.21,.44,.42,.89,.68,1.42,0,.68,.03,1.46-.01,2.24-.03,.57,.42,1,.33,1.6-.08,.54-.13,1.16,.05,1.65,.38,1.03,.17,2.07,.29,3.1,.04,.32,.15,.63,.29,1.15-.01,.43,.1,1.09,0,1.75-1.7,.31-3.38-.14-5.06,.41-.12-.09-.29-.22-.49-.36v-1.99c.05-.19,.22-.56,.23-.92,.03-2.05,.01-4.1,.01-6.08-.12-.22-.21-.36-.34-.6,0-3.19,0-6.46,0-9.74,0-.76,.13-1.53-.24-2.28-.13-.27-.02-.66-.03-.99-.02-2.94-.04-5.89-.05-8.83,0-.4-.05-.76-.28-1.11,.15-.55,.58-1.13-.05-1.61v-9.8c-.14-.29-.23-.49-.3-.64,.11-.26,.19-.46,.28-.66-.17-.41-.29-.82-.28-1.27,.02-1.22,0-2.44-.02-3.66,0-.54,.03-1.07-.23-1.62-.17-.36-.03-.86-.03-1.33,.16-.06,.32-.16,.46-.15,.79,.1,1.51-.22,2.27-.3,.7-.07,1.45,.14,2.1-.31,.78-.02,1.55-.05,2.33-.06,.72-.01,1.44,.01,2.16-.01,.76-.03,1.55,.15,2.26-.28h2.5c.16,.29,.31,.58,.51,.95v1.01c.3,.61,.52,1.19,1.13,1.55,.36,.12,.77,.26,1.3,.45h1.35c.16-.09,.3-.18,.49-.29,.53,.15,1.1,.53,1.72-.05,1.78,0,3.61,0,5.44,0,.76,0,1.51,.07,2.28-.24,.48-.19,1.1-.04,1.66-.04,.43-.25,.85-.5,1.29-.76,.07-.98-.05-1.92,.12-2.91,.94-.01,1.81-.03,2.69-.04,.61,0,1.22,.03,1.83,0,.65-.03,1.34,.14,1.94-.27,.08-.05,.22-.02,.33-.02,1.66,0,3.32,0,4.95,0,.33,.36,.14,.77,.19,1.13,.04,.33,0,.67,.02,1,.02,.71-.09,1.41,.25,2.11,.17,.36,.03,.87,.05,1.32,.03,.76-.13,1.54,.27,2.28,.12,.22,.04,.54,.04,.82,.02,1.89,.03,3.77,.05,5.66,0,.33-.03,.67,.02,1,.04,.26,.19,.5,.28,.71-.09,.16-.14,.25-.22,.39,.39,.85,.04,1.84,.33,2.69,.32,.94,.17,1.86,.21,2.78,.04,.94,0,1.89,0,2.78,.12,.19,.21,.33,.35,.54,0,1.59,0,3.25,0,4.91,0,.76-.06,1.54,.3,2.23-.1,.18-.18,.33-.3,.56,.09,.19,.19,.43,.32,.71,0,.29-.03,.63,0,.96,.06,.65-.16,1.33,.27,1.94,.11,.15,.02,.43,.03,.65,.01,.83,0,1.67,.05,2.5,.05,.76-.18,1.55,.28,2.26,.01,.89,0,1.78,.04,2.66,.03,.65-.12,1.32,.27,1.94,.12,.2,.03,.54,.03,.82,.02,1.39,.03,2.78,.05,4.16,0,.33-.03,.67,.02,1,.05,.31,.18,.61,.27,.88-.25,.3-.55,.24-.81,.24-3.17,0-6.33-.03-9.5-.03-1.61,0-3.22,.01-4.83,.04-.37,0-.73,.11-1.13,.17-.09-.08-.3-.19-.31-.31-.03-.61-.49-1.1-.42-1.73,.02-.21,.05-.49-.06-.64-.46-.62-.03-1.44-.52-2.04,.33-.54,.91-.6,1.41-.79,.25-.1,.51-.18,.89-.32,1.26,.1,2.54-.44,3.84-.8,1.09-.3,2.17-.71,3.21-1.15,1.06-.45,2.07-.99,3.24-1.56,.21-.23,.51-.55,.97-1.07,.37-.87,.84-1.98,1.28-2.99,.31-.94-.16-1.71-.3-2.51-.14-.78-.56-1.53-.93-2.26-.34-.68-.69-1.39-1.19-1.95-.54-.61-1.25-1.08-1.88-1.6-.31-.1-.62-.19-.93-.31-.82-.32-1.65-.62-2.55-.53-.79,.08-1.49-.38-2.27-.31-.73,.06-1.39-.24-2.07-.38-.61-.99-.82-2.12-1.21-3.25-.53-.51-1.09-1.04-1.67-1.59-.57-.28-1.16-.56-1.78-.86-.27-.44-.54-.91-.48-1.5,.01-.15-.11-.3-.15-.46-.21-.73-.62-1.39-.56-2.2,.03-.36-.15-.74-.3-1.09-.42-1-.83-2.02-1.32-2.98-.32-.63-.77-1.2-1.2-1.76-.45-.57-1.05-.98-1.91-1.26Zm9.15,3.33c1.07,2.39,2.28,4.51,4.61,5.68,.35-.18,.64-.33,.96-.49,.11-.68,.82-.8,1.27-1.25,.25-.49,.48-1.06,.81-1.55,.55-.83,.81-1.76,1.14-2.67,.14-.38,.14-.75,.15-1.11-.26-.5-.51-.98-.77-1.48-.27-.15-.56-.3-.78-.43h-1.93c-.35,.41-.69,.81-1.01,1.18-.52-.31-1.03-.61-1.5-.9-.67,.05-1.28-.04-1.74,.04-.5,.42-.88,.73-1.22,1.02v1.97Z" style="fill: #fff;"/>
  <path d="M53.66,104.97c-.29,.67-.66,1.21-.43,1.84,.11,.31,.21,.61,.3,.92,.3,1.02,.31,2.05,.31,3.09,0,.11-.02,.22-.03,.33-.2,.26-.49,.2-.76,.21-.71,.05-1.46-.02-2.13,.17-.67,.19-1.31,.1-1.97,.13-.72,.04-1.44,.01-2.16,.02-.67,0-1.33,.01-2,.03-.33,0-.65-.03-.97,.14-.22,.12-.53,.13-.79,.13-2.22,0-4.44,0-6.71,0-.12-.13-.27-.28-.45-.48,0-.59,.03-1.2,0-1.81-.04-.76,.14-1.56-.31-2.26-.01-.72-.02-1.44-.04-2.16-.01-.49,.07-1-.25-1.43,.06-.1,.11-.2,.21-.36-.08-.3-.22-.66-.28-1.02-.05-.33-.09-.67-.03-.99,.1-.54-.34-.92-.33-1.43,.01-.5-.02-.99-.07-1.49-.01-.15-.15-.29-.23-.43,0-.51,.02-1.01,0-1.51-.02-.6,.04-1.2-.27-1.78-.14-.27-.09-.65-.1-.98-.03-1.09,.16-2.21-.29-3.26v-3.15c-.11-.23-.21-.42-.34-.69-.06-.79,.05-1.69-.32-2.52-.04-.09-.03-.22,0-.33,.09-.46,.15-.89-.01-1.38-.13-.4,0-.88-.05-1.32-.03-.26-.15-.51-.25-.8,.14-.53,.39-1.06,.14-1.71-.26-.66-.28-1.36,.01-2.08,.24-.6,.29-1.27,.47-1.89,.07-.25,.27-.46,.41-.69h.67c.84,.46,1.29,1.26,1.71,2.01,.48,.84,1.16,1.59,1.35,2.59,0,.05,.06,.09,.09,.14,.3,.69,.77,1.3,1.03,2.02,.26,.72,.66,1.38,1.04,2.15,.02,.23,.05,.56,.08,.82,.47,.62,.9,1.19,1.34,1.77,.54,.27,1.05,.2,1.52-.14,.61-.12,1.24,.08,1.81-.24,.54-.31,1.2,0,1.77-.35,.25-.16,.64-.11,.97-.11,1.78,0,3.55,0,5.13,0,.55,.18,.91,.29,1.39,.45,.4,.23,.65,.71,.9,1.22,.21,.44,.5,.85,.81,1.35v1.02c.35,.62,.6,1.25,1.32,1.63,.29,0,.68-.02,1.06,0,.49,.02,.97,0,1.46,.21,.38,.17,.87,.09,1.31,.1,1.67,.03,3.05,.35,4.81,1.17-.21,.11-.36,.21-.53,.28-.2,.08-.41,.19-.62,.2-.4,.02-.73,.26-1.09,.31-.62,.1-1.09,.54-1.67,.66-.6,.12-1.13,.38-1.7,.55-.55,.16-.96,.52-1.33,1.03v.96c.13,.14,.28,.3,.46,.49h1.65c.65-.17,1.01-.26,1.3-.33,.37,.25,.2,.57,.34,.88,.15,.2,.35,.46,.53,.7,.06,.38-.17,.54-.45,.74h-1.8c-.43-.12-.9-.24-1.37-.37-.86-.3-1.41-1.19-2.44-1.32-.18,.2-.36,.4-.53,.58,.03,.15,.02,.27,.08,.35,.81,1.08,1.92,1.79,3.15,2.46h4.72c.38-.19,.72-.36,1.07-.53,.34-.17,.71-.3,1.03-.49,.32-.19,.62-.44,.88-.63,.41,.05,.39,.31,.29,.48-.54,.88-1.45,1.31-2.28,1.84-.66,.41-1.39,.64-2.11,.89-.57,.2-1.11,.44-1.66,.68-.74,.33-1.48,.69-2.32,.77-.37,.04-.74,.2-1.07,.37-.59,.3-1.2,.49-1.85,.61-.86,.17-1.67,.47-2.48,.93Zm-7.57-12.12c.12-.24,.26-.53,.42-.81,.18-.31,.39-.61,.48-.75-.09-.72-.15-1.26-.22-1.83-.23-.33-.47-.69-.73-1.06h-2.55c-1.24,.51-2.27,1.12-2.9,2.09-.29,.57-.53,1.06-.72,1.44v1.04c.46,.39,.96,.81,1.73,1.47-.05-.02,.25,.11,.51,.22h.98c1.28-.37,2.07-1.15,2.99-1.82Zm1.75-3.34c.62,.76,1.22,1.23,2.02,1.51h2.71c1.43-.62,2.3-1.55,2.25-3.06-.23-.42-.42-.75-.62-1.11-.71-.28-1.41-.55-2.12-.83-1.03-.26-1.95,.28-2.93,.37-.3,.03-.59,.27-.87,.41-.16,.31-.31,.6-.45,.86v1.85Zm-.87,7.5c.18-.2,.37-.39,.52-.56v-.86c-.28-.4-.53-.76-1.04-.88-.5,.24-.85,.66-1.19,1.1-.06,.07-.05,.21-.08,.39,.28,.27,.59,.57,.84,.82h.96Zm5.53-3.74c-.38,.45-1.05,.34-1.35,1.02,0,.12-.02,.34-.03,.53,.35,.36,.59,.84,1.23,.86,.27-.29,.57-.59,.83-.88-.02-.35-.03-.62-.04-.93-.18-.17-.37-.35-.65-.61Z" style="fill: #fff;"/>
  <path d="M49.85,79.43c.23,.44,.43,.83,.63,1.23,0,.42,.04,.85,.01,1.29-.25,.04-.41,.07-.57,.09-.71,.08-1.44-.11-2.12,.2-.6,.28-1.35-.07-1.9,.44h-1.24c-.3-.52-.12-1.13-.14-1.72,.49-.7,.24-1.5,.3-2.26,0-.06,0-.11,0-.17,0-.44,0-.89,.02-1.33,0-.06-.01-.13,.02-.16,.44-.49,.19-1.17,.48-1.71,.18-.33,.24-.72,.39-1.07,.17-.4,.38-.78,.58-1.19h1.04c.73,.95,1.45,1.91,1.78,3.09,.31,1.09,.87,2.13,.7,3.27Z" style="fill: #fdfdfd;"/>
  <path d="M55.01,53.05c.14,.27,.29,.56,.46,.89v1.23c-.14,.07-.23,.15-.33,.15-4.26,0-8.51,0-12.83,0-.12-.37-.26-.77-.39-1.17,.81-.32,1.65-.47,2.53-.48,.48,0,1,.13,1.45-.19,.41,.1,.82,.29,1.19-.09,.61-.02,1.22-.02,1.82-.06,.87-.05,1.76,.17,2.6-.26,.18-.09,.44-.03,.66-.03,.94,0,1.88,0,2.83,0Z" style="fill: #f9f9f9;"/>
  <path d="M55.38,57.74c.11,.38,.24,.78,.36,1.18-.12,.24-.25,.48-.4,.76-1.22,.01-2.43,.03-3.65,.04-.71,0-1.44-.16-2.1,.27-.12,.08-.35,.06-.49,0-1.29-.52-2.62-.18-3.93-.24-.3-.02-.61,.2-.93,.26-.27,.05-.55,0-.85,0-.5-.64-.66-1.34-.5-2.12,.12-.06,.21-.16,.3-.16,4.05,0,8.1,0,12.2,0Z" style="fill: #fbfbfb;"/>
  <path d="M67.8,95.47c-.62,.97-1.73,1.34-2.43,2.19h-.7c-.24-.72-.48-1.42-.73-2.16,.15-.25,.37-.47,.75-.47,.45,0,.77-.36,1.24-.39,.32-.02,.61-.4,.87-.58,.54,.03,.34,.56,.62,.75,.21,.14,.43,.36,.38,.66Z" style="fill: #f1f1f1;"/>
  <path d="M56.86,74.36v-1.97c.34-.28,.72-.6,1.22-1.02,.46-.08,1.06,.01,1.74-.04,.47,.28,.99,.59,1.5,.9,.32-.37,.66-.77,1.01-1.18h1.93c.22,.12,.51,.28,.78,.43,.26,.5,.51,.98,.77,1.48,0,.36-.01,.73-.15,1.11-.34,.91-.59,1.85-1.14,2.67-.33,.5-.56,1.06-.81,1.55-.46,.45-1.16,.57-1.27,1.25-.32,.16-.61,.31-.96,.49-2.33-1.17-3.54-3.29-4.61-5.68Zm1.97-1.27c.23,2.06,1.31,3.47,2.46,4.86,1.37-1.12,2.42-3.39,2.52-4.79-.14-.13-.3-.27-.46-.42-.36,.3-.67,.58-.89,1-.19,.37-.55,.66-.8,.95h-.92c-.38-.54-.75-1.07-1.15-1.64-.19,.01-.4,.02-.77,.04Z" style="fill: #060606;"/>
  <path d="M46.09,92.85c-.92,.67-1.71,1.45-2.99,1.82h-.98c-.25-.11-.55-.24-.51-.22-.77-.65-1.28-1.08-1.73-1.47v-1.04c.19-.39,.43-.87,.72-1.44,.63-.97,1.66-1.58,2.9-2.09h2.55c.25,.37,.5,.73,.73,1.06,.07,.57,.13,1.1,.22,1.83-.09,.14-.3,.44-.48,.75-.16,.28-.3,.58-.42,.81Zm-1.51-3.18c-.78,.06-1.41,.47-1.95,1.02-.42,.43-.8,.88-1.16,1.28,.02,.26,.04,.42,.05,.56,.31,.33,.56,.71,.99,.82,1.41-.37,1.78-.67,3-2.39,.01-.62-.44-.94-.93-1.29Z" style="fill: #080808;"/>
  <path d="M47.85,89.52v-1.85c.14-.27,.29-.56,.45-.86,.28-.14,.56-.38,.87-.41,.98-.09,1.9-.63,2.93-.37,.71,.27,1.41,.55,2.12,.83,.2,.36,.39,.69,.62,1.11,.05,1.51-.82,2.44-2.25,3.06h-2.71c-.8-.28-1.4-.75-2.02-1.51Zm2.17-2.14c-.26,.33-.72,.23-.85,.67v.84c.3,.26,.62,.55,.89,.8h2.44c.18-.19,.45-.46,.63-.63v-.93c-.23-.25-.5-.53-.7-.75h-2.41Z" style="fill: #0a0a0a;"/>
  <path d="M46.98,97.02h-.96c-.25-.25-.56-.55-.84-.82,.03-.18,.02-.31,.08-.39,.34-.43,.69-.86,1.19-1.1,.51,.12,.76,.48,1.04,.88v.86c-.16,.17-.34,.37-.52,.56Z" style="fill: #191919;"/>
  <path d="M52.51,93.28c.28,.26,.47,.44,.65,.61,.01,.31,.03,.59,.04,.93-.27,.28-.56,.59-.83,.88-.64-.02-.88-.49-1.23-.86,.01-.2,.02-.41,.03-.53,.29-.68,.97-.58,1.35-1.02Z" style="fill: #1a1a1a;"/>
  <path d="M58.83,73.09c.37-.02,.58-.03,.77-.04,.4,.57,.77,1.1,1.15,1.64h.92c.25-.29,.61-.58,.8-.95,.21-.42,.53-.7,.89-1,.16,.15,.32,.29,.46,.42-.1,1.41-1.16,3.68-2.52,4.79-1.14-1.39-2.23-2.81-2.46-4.86Z" style="fill: #f6f6f6;"/>
  <path d="M44.58,89.68c.49,.36,.94,.67,.93,1.29-1.21,1.72-1.58,2.01-3,2.39-.43-.11-.68-.48-.99-.82-.01-.14-.03-.3-.05-.56,.36-.4,.75-.85,1.16-1.28,.54-.56,1.17-.96,1.95-1.02Z" style="fill: #f8f8f8;"/>
  <path d="M50.01,87.38h2.41c.2,.22,.46,.5,.7,.75v.93c-.17,.18-.44,.45-.63,.63h-2.44c-.27-.24-.59-.53-.89-.8v-.84c.13-.44,.59-.34,.85-.67Z" style="fill: #f7f7f7;"/>
</svg>