<?xml version="1.0" encoding="UTF-8"?>
<svg id="Ebene_1" data-name="Ebene 1" xmlns="http://www.w3.org/2000/svg" width="35.28mm" height="52.92mm" viewBox="0 0 100 150">
  <path d="M52.98,30.83c.59,.12,1.01,.2,1.46,.29,1.12,.89,1.37,2.33,2.17,3.58,0,.84-.08,1.79,.02,2.72,.09,.81,.37,1.59,.27,2.39,.3,.31,.39-.06,.56-.09,.16-.03,.35-.09,.43-.21,.31-.44,.85-.5,1.26-.78h1.8c.27,.14,.51,.27,.84,.44,.32,.52,.7,1.12,1.06,1.69,.18,.82-.05,1.54-.2,2.3-.16,.79-.58,1.41-.82,2.14-.79,.59-1.72,1.05-2.06,2.07-.61,.47-1.01,1.14-1.75,1.49-.63,.3-1.15,.82-1.77,1.28,.04,.3,0,.6,.12,.81,.25,.42,.19,.85,.23,1.29,.03,.44,.47,.75,.36,1.24-.09,.39,.11,.74,.22,1.11,.15,.51,.08,1.08,.1,1.65,.4-.17,.53-.51,.61-.81,.08-.32,.16-.62,.34-.91,.2-.32,.32-.69,.46-1.01,.17-.1,.31-.19,.47-.29,.03-1.09,.55-1.96,1.38-2.66-.04-.97,.41-1.71,1.01-2.38,.04-.33,.07-.65,.12-1.04,.24-.18,.5-.37,.82-.6,.25-.58,.63-1.17,.81-1.88,.17-.68,.62-1.28,1.18-1.71,.08-.86,.7-1.38,1.07-2.04,.35-.61,.71-1.22,1.04-1.79-.27-.91-.92-1.58-1.02-2.47-.79-.92-.87-2.23-1.69-3.15-.11-.12-.26-.28-.25-.41,.04-.77-.68-1.25-.72-1.99-.01-.21-.15-.4-.29-.76v-1.4c-.23-.65-.42-1.22-.67-1.92,0-.57,.06-1.29-.02-2-.08-.74,.31-1.39,.31-2.1,0-.68,.27-1.28,.52-1.88,.27-.65,.6-1.3,1.09-1.83,.07-.08,.08-.2,.13-.32,.27-.16,.56-.32,.89-.51h2.07c.49,.33,.94,.64,1.38,.94,.48,.69,1.02,1.33,1.38,2.06,.36,.73,.65,1.49,.99,2.24,.04,0,.1,.03,.11,.02,.25-.22,.49-.45,.77-.71-.07-1.01,.64-1.72,1.17-2.44,.64-.87,1.39-1.71,2.48-2.13,.44-.17,.81-.55,1.35-.94h2.37c.78,.38,1.39,1.08,2.1,1.64,.74,1.39,.59,2.88,.49,4.41-.17,.35-.37,.75-.61,1.23v1.42c-.67,.61-.83,1.51-1.16,2.29-.37,.87-.8,1.66-1.39,2.38-.06,.07-.06,.2-.09,.31,.43,.55,.86,.19,1.21-.03,.34,.11,.6,.29,.85,.26,.64-.08,1.18,.17,1.75,.37,1.25,.44,2.44,.99,3.36,2,.22,.25,.49,.46,.68,.73,.19,.27,.3,.58,.47,.94v1.29c-.17,.43-.34,.88-.52,1.34-.29,.39-.92,.44-1,1.03-.64,.42-1.29,.82-2.04,1-.74,.18-1.48,.33-2.21,.55-.1,.03-.21,.08-.31,.08-1.05,.02-2.14-.11-3.15,.1-1.04,.22-2.07,.25-3.11,.26-1.72,.02-3.44,0-5.16,0-.74,.62-1.17,1.45-1.61,2.26-1.19,2.15-2.37,4.3-3.45,6.51-.21,.42-.62,.82-.36,1.44,.09,.02,.27,.11,.39,.06,.4-.17,.79-.38,1.21-.6h.99c.88-.54,1.87-.81,2.87-1.07,.53-.36,.8-.88,.92-1.5,.87-1.13,1.5-2.45,2.65-3.35,.22-.17,.38-.4,.51-.54,.82-.42,1.55-.79,2.2-1.12,.52-.11,.94-.19,1.43-.29,.4,.34,.99,.12,1.82,.29,.21,.21,.6,.6,.92,.92,0,.62,.02,1.06,0,1.5-.02,.36-.1,.71-.15,1.06,.41,.19,.74,0,1.11-.24h2.42c.9,.33,1.63,.8,1.83,1.78-.08,.45-.16,.92-.25,1.46-.87,.66-1.78,1.35-2.66,2.02-.56,.04-1.05,.07-1.7,.12,.89,.88,1.66,1.65,2.43,2.41v1.6c-.62,1.15-1.73,1.2-2.89,1.45-.03-.01-.22-.14-.41-.15-1.35-.01-2.53-.59-3.75-1.04-.46-.17-.91-.35-1.35-.55-1.07-.48-2.68-1.65-3.59-2.6-.38-.4-.75-.81-1.07-1.15-.57-.02-.75,.42-1.19,.61h-1.12c-.62,.67-1.56,.6-2.37,.9-.76,.28-1.52,.64-2.31,.5-.47,.33-.81,.66-1.01,1.16-.2,.5-.56,.94-.89,1.48v.58c-.2,.42-.41,.86-.61,1.29,.28,.5,.83,.53,1.25,.77,.23,.13,.51,.22,.77,.25,.99,.13,1.7,.71,2.35,1.4,.07,.08,.14,.17,.21,.25v1.83c-.48,.81-.32,1.83-.86,2.62-.4,.59-.41,1.34-.86,1.93-.42,.56-.68,1.25-1.07,1.98-.39,.36-.76,.94-1.41,1.21-.16,.45-.33,.9-.47,1.31,.03,.17,.04,.28,.09,.38,.05,.1,.13,.18,.2,.27,.36,.42,.68,.87,.72,1.45,.04,.61,.68,.85,.81,1.42,.12,.52,.39,1.01,.55,1.53,.06,.2,.03,.44,.04,.68,.2,.25,.4,.51,.6,.77,0,1.11,.24,2.18,.73,3.15,.24,.47,.24,.95,.35,1.41,.18,.23,.36,.44,.53,.65-.06,.11-.11,.2-.12,.22,.14,1.24,.58,2.35,.88,3.48,.18,.7,.27,1.38,.36,2.09,.08,.58,.37,1.12,.63,1.84v1.35c.24,.91,.54,1.69,.61,2.48,.04,.47,.38,.8,.37,1.25,0,.44-.09,.92,.04,1.32,.47,1.46,.25,2.95,.32,4.43,.03,.54-.13,1.11,.26,1.61,.08,.11,.03,.32,.04,.49,.04,.76,.02,1.51,.27,2.28,.2,.6,.05,1.32,.07,1.98,.01,.27,.1,.53,.17,.93-.1,.47-.24,1.08-.38,1.7,.53,.72-.23,1.7,.5,2.28-.06,.48-.35,.76-.33,1.18,.01,.36-.15,.73-.24,1.08,.09,.15,.17,.29,.24,.42,0,.07,.02,.15,0,.18-.5,.52-.06,1.34-.63,1.88v2.21c-.26,1.03-.68,1.73-.68,2.59,0,.63-.3,1.26-.46,1.89-.09,.37-.18,.74-.29,1.21-.26,.41-.57,.92-.87,1.4-.02,.44-.05,.83-.07,1.33-.51,.47-1.09,1-1.79,1.64-.85,.44-1.84,1-2.92,1.38-.82,.29-1.46,.95-2.28,1.28-.3,.12-.59,.29-.97,.47h-1.26c-.44,.21-.88,.43-1.39,.68h-1.99c-.15,.07-.34,.16-.66,.31-1.48,0-3.09-.02-4.7,.01-.52,.01-.89-.41-1.43-.33-.48,.07-.97,0-1.44-.25-.31-.16-.76-.07-1.22-.1-.92-.56-1.98-.97-3.08-1.32-.46-.15-.89-.41-1.33-.61-.55-.25-1.09-.51-1.65-.77-.45-.37-.91-.76-1.44-1.2-.05-.28-.33-.55-.44-.94-.19-.67-.51-1.33-.91-1.89-.39-.54-.74-1.13-.94-1.73-.27-.85-.73-1.59-1.07-2.39-.33-.8-.78-1.58-.7-2.5-.35-1.08-.49-2.22-.97-3.22-.11-.84,.11-1.69-.37-2.45-.05-.08-.04-.22-.04-.33-.02-.54,.12-1.11-.28-1.59v-2.34c-.1-.21-.2-.4-.37-.74,0-.74,0-1.62,0-2.51,0-.44,.05-.88-.24-1.28-.09-.12-.04-.33-.09-.48-.14-.39,.32-.66,.16-1.08-.13-.34-.15-.76-.12-1.13,.03-.37,.19-.73,.3-1.07-.12-.28-.23-.53-.37-.83,.07-.23,.15-.48,.25-.78-.04-.09-.11-.23-.2-.43,.09-.21,.19-.46,.33-.79-.08-.25-.18-.55-.3-.9,.08-.32,.22-.68,.24-1.05,.05-.83,.03-1.66,.05-2.5,0-.44-.07-.88,.23-1.28,.09-.12,.09-.32,.08-.48-.06-1.11,.28-2.15,.56-3.21,.14-.53,.11-1.09,.16-1.64,.45-.99,.46-2.11,.91-3.1-.06-1.08,.67-1.93,.83-2.98,.17-1.05,.71-2.04,1.19-3.35,0,.04,.02-.23,.04-.51,.17-.39,.67-.6,.66-1.11-.01-.45,.5-.76,.35-1.25,.31-.52,.61-1.04,.96-1.62,0-.14,.02-.37,.04-.71,.27-.53,.6-1.16,.96-1.87v-.71c-.06-.13-.09-.24-.16-.32-1.11-1.22-2.01-2.59-2.8-4.03-.52-.95-.88-1.99-1.35-3.06v-1.1c.17-.15,.31-.4,.49-.43,.92-.14,1.61-.67,2.23-1.31,.17-.03,.35-.03,.48-.1,1.2-.65,2.57-.88,3.78-1.51,.14-.07,.31-.12,.46-.15,.53-.12,1.05-.29,1.59-.33,.78-.06,1.48-.36,2.35-.68h1.27c.25-.14,.44-.25,.66-.37,1.71,0,3.43,0,5.15,0,.33,0,.67-.01,1,.05,.32,.06,.62,.2,1,.33,.6-.25,1.27-.47,1.88-.28,.33-.23,.32-.46,.3-.67-.07-.92,.05-1.85-.28-2.77-.18-.49-.03-1.1-.03-1.42-.32-.98-.57-1.75-.82-2.52-.41-.56-1.03-.22-1.64-.43-.74-.57-1.73-.88-2.7-1.22-.42-.15-.79-.37-1.18-.56-.14-.07-.24-.26-.38-.32-1.71-.61-2.71-2.07-3.91-3.27-.6-.6-1.08-1.37-1.22-2.51,.15-.48,.38-1.19,.61-1.9,.5-.68,1.3-.82,2.01-1,.73-.19,1.53-.11,2.23-.15,.78,.47,1.48,.89,2.18,1.31,.06-.12,.14-.21,.14-.31,0-2,0-4,0-5.96,.31-.5,.66-.93,.87-1.43,.27-.66,.68-1.11,1.34-1.36,.31-.12,.58-.3,.84-.44Zm-9.37,61.22c.3-.79,.6-1.43,.67-2.14,.55-.59,.51-1.44,.97-2.12v-1.38c.26-.57,.49-1.06,.72-1.55,.09-.2,.28-.4,.26-.59-.06-.54,.2-.98,.4-1.41,.39-.8,.64-1.62,.6-2.45,.29-.61,.61-1.13,.8-1.7,.26-.77,.79-1.46,.86-2.28,.05-.61,.33-1.14,.38-1.75,.06-.66,.65-1.12,.98-1.68,.13-.24,.25-.48,.35-.67v-.71c.21-.29,.41-.55,.6-.8,.02-.31,.03-.58,.05-.83,.34-.59,.61-1.17,.78-1.82,.16-.6,.54-1.13,.87-1.81-.94,0-1.77-.01-2.59-.01-2.33,0-4.66,0-6.99,0-.28,0-.61,.09-.82-.03-.68-.39-1.4-.26-2.11-.3-.33-.02-.63-.13-.94-.21-1-.25-2-.47-3-.74-.25-.07-.55-.11-.79,.12,.69,.85,1.01,1.96,1.86,2.7,.29,1.09,1.37,1.7,1.7,2.76,.17,.74-.25,1.39-.37,2.09-.14,.84-.61,1.62-.96,2.48v.54c-.35,.7-.67,1.33-.96,1.9-.01,.3-.02,.52-.03,.75-.21,.31-.48,.6-.63,.95-.18,.39-.22,.84-.38,1.25-.35,.9-.33,1.94-1.01,2.7,.17,.74-.27,1.3-.41,1.93-.15,.68-.5,1.31-.6,2.02-.1,.64-.38,1.24-.61,1.94-.01,.74,.08,1.58-.36,2.34,.17,.54-.32,.92-.32,1.42,0,.5-.02,1-.02,1.5,0,.56,0,1.11,0,1.65-.11,.2-.27,.39-.29,.55-.15,1.41,.2,2.81-.32,4.14-.04,.1-.05,.25,0,.33,.39,.55,.26,1.18,.27,1.77,.03,1.17,0,2.33,0,3.5,0,.55-.11,1.16,.08,1.65,.23,.6,.24,1.17,.25,1.77,0,.28,0,.56,0,.83,0,.28,.02,.55,.2,.79,.16,.22-.2,.44,.02,.72,.26,.34,.08,.73-.12,1.05,.12,.26,.2,.54,.36,.76,.23,.3,.15,.63,.23,.95,.06,.25,.16,.49,.22,.7-.08,.14-.13,.24-.2,.35,.1,.29,.25,.59,.3,.91,.05,.32,.01,.66,.01,.98,.19,.23,.37,.45,.55,.67-.06,.14-.13,.28-.2,.42,.23,.71,.3,1.5,.97,1.97v1.18c.35,.61,.62,1.2,.73,1.86,.78,.81,1.06,1.9,1.57,2.75,.02,.33,.03,.55,.04,.74,.29,.43,.57,.83,.86,1.26,.59,.22,1.19,.53,1.82,.65,.72,.13,1.24,.74,1.99,.72,.87,.46,1.85,.61,2.79,.86,.73,.19,1.49,.38,2.24,.41,1.77,.06,3.55-.02,5.33,.05,.8,.03,1.48-.39,2.26-.39,.3,0,.59-.25,.9-.37,.25-.1,.51-.16,.77-.24,.89-.25,1.83-.39,2.55-1.03,.46-.41,1.19-.31,1.57-.86,.05-.07,.19-.1,.3-.12,.91-.18,1.6-.69,2.11-1.32,.31-.63,.58-1.16,.87-1.76v-1.05c.23-.31,.43-.58,.44-.6,.55-1.95,.48-3.73,1.22-5.47v-1.56c.43-.53,.25-1.17,.27-1.76,.03-.78,.05-1.55,.02-2.33-.02-.56,.1-1.08,.31-1.53-.13-.25-.22-.44-.3-.6,.13-.3,.24-.54,.33-.74-.13-.21-.21-.36-.34-.57,0-.43-.05-.93,.01-1.42,.07-.58-.35-1.03-.35-1.54,.12-.3,.21-.55,.31-.8-.4-.42-.28-.94-.32-1.42-.05-.6,.15-1.24-.15-1.8-.3-.55-.05-1.22-.46-1.72-.05-.07,0-.22,0-.32,.11-.31,.22-.62,.35-1-.73-.84-.24-1.9-.46-2.84-.2-.41-.4-.8-.56-1.13-.03-.72,.15-1.41-.36-2.03v-1.66c-.25-.5-.45-.9-.67-1.33,0-.23,.04-.52-.01-.79-.06-.31-.24-.61-.3-.92-.06-.32-.02-.66-.04-1,0-.1-.1-.2-.12-.3-.15-.57-.48-1.1-.52-1.7-.04-.65-.58-1.2-.35-1.9,.02-.05,0-.12-.02-.16-.51-.8-.55-1.75-.84-2.62-.46-1.38-.94-2.76-1.38-4.15-.17-.52-.35-1.02-.59-1.51-.26-.54-.44-1.11-.72-1.64-.33-.62-.73-1.21-1.12-1.84,.27-.38,.48-.78,.78-1.09,.32-.33,.57-.68,.71-1.09,.17-.49,.51-.85,.86-1.2,.31-.32,.51-.72,.79-1.05,.63-.74,.73-1.69,1.18-2.49,.06-.11-.03-.31-.06-.51-.47,.21-.89,.52-1.34,.57-1.05,.11-1.95,.66-3,.83-.3,.68-.49,1.38-.89,1.94-.45,.64-.82,1.32-1.01,2.04-.2,.72-.85,1.14-1,1.98,0,.15-.02,.43-.03,.71-.21,.25-.42,.51-.43,.52-.54,.99-.48,1.85-.87,2.59-.38,.72-.48,1.57-.97,2.25-.04,.87-.62,1.48-1.05,2.15,.09,.2,.16,.35,.23,.49-.17,.56-.35,1.12-.52,1.68-.02,.05,0,.11,0,.17-.03,.25,.08,.33,.53,.31,.22-.23,.48-.51,.72-.76,.06-.31,.11-.58,.17-.85,.38-.35,.75-.68,1.06-.95,.31-.04,.53-.08,.88-.13,.52-.6,1.11-1.27,1.61-1.85,.66-.07,1.14-.18,1.67,.02,.3,.42,.6,.86,.67,1.5-.72,.7-1.44,1.39-2.16,2.08-.12,.11-.24,.27-.39,.31-.64,.17-.97,.71-1.41,1.12-.45,.41-.87,.85-1.35,1.22-.49,.37-.65,1.01-1.17,1.34-.32,.2-.61,.46-.91,.7-.17,.14-.42,.25-.48,.43-.17,.51-.62,.77-.93,1.14-.42,.51-.81,1.03-1.14,1.45-.08,.63,.1,1.16-.24,1.59-.37,.47-.07,1.06-.39,1.58-.23,.38-.03,.98-.43,1.35-.06,.34,.11,.68-.09,.99-.18,.21-.37,.41-.57,.64v1.4c-.22,.46-.4,.85-.53,1.11,.06,.44,.21,.8,.11,1.07-.13,.37-.23,.72-.29,1.1-.13,.74-.38,1.46-.58,2.21,.06,.12,.14,.27,.16,.32-.09,.39-.2,.7-.23,1.02-.04,.32,.06,.66-.18,.95-.16,.19-.16,.4,.11,.62,.38-.02,.88,.08,1.24-.1,.49-.24,.96-.22,1.45-.23,.83-.02,1.66,0,2.52,0,.64-.8,1.32,.12,1.92-.04,.26-.13,.46-.23,.56-.28h1.75c.28,.12,.52,.22,.6,.25,.44-.11,.77-.31,.95-.22,.62,.32,1.34,.12,1.91,.39,.59,.28,1.24,.03,1.76,.34,.62,.37,1.31,.1,1.92,.3,.5,.26,.98,.51,1.44,.74,.27,.75,.87,1.35,.76,2.19,.42,.72,.25,1.51,.27,2.27,.02,.89,0,1.78,0,2.67,0,.28,.08,.62-.05,.82-.26,.42-.22,.84-.24,1.28-.04,1.04,.1,2.1-.34,3.1,.14,.79-.33,1.48-.4,2.26-.07,.74-.4,1.46-.63,2.18-.08,.26-.22,.5-.31,.75-.39,1.14-.83,1.72-1.68,2.33-.54,.39-1.14,.62-1.73,.88-.81,.35-1.73,.27-2.5,.73-.13,.08-.33,.04-.49,.04-.61-.03-1.18,.21-1.76,.29-.6,.09-1.18,.19-1.67,.4-.39-.13-.69-.26-1.01-.32-.4-.08-.76,.06-1.11,.29h-2.17c-.13-.07-.27-.15-.49-.28h-1.78c-2.01-.53-3.69-1.18-5.55-1.43-.54-.56-1.11-1.15-1.65-1.71-.04-.18-.05-.29-.09-.39-.33-.86-.69-1.72-1-2.58-.31-.87-.54-1.77-.88-2.62-.35-.87-.41-1.8-.66-2.68-.21-.73-.22-1.51-.46-2.23,.09-1.28-.51-2.49-.37-3.77,.01-.11,.02-.24-.02-.33-.5-1-.26-2.05-.27-3.05,.78-.77,.8-.78,2.97-1.27,1.03-.55,2.17-.16,3.14-.36,.61-.3,.65-.84,.83-1.26,.02-.47-.01-.92,.08-1.35,.08-.36,.34-.68,.29-1.09-.06-.45,.1-.86,.36-1.29-.09-.16-.3-.35-.29-.53,.04-.76-.32-1.37-.7-2.01v-1.39c-.14-.32-.34-.57-.34-.82,0-.68-.35-1.24-.52-1.86-.03-.1-.14-.19-.15-.29-.05-.43,.03-.92-.14-1.29-.21-.44-.17-.86-.22-1.29-.03-.27,.1-.61-.02-.82-.43-.78-.26-1.62-.32-2.27-.21-.61-.37-1.07-.51-1.49,.07-.33,.17-.64,.2-.96,.04-.39-.01-.77-.23-1.04,.09-.35,.16-.67,.22-.9-.14-.27-.24-.47-.31-.62,.17-.41,.36-.74,.3-1.15-.09-.63,.36-1.13,.47-1.72,.03-.19,.27-.34,.36-.45,.48-.05,.88-.17,1.16,.22,.18,.69-.12,1.46,.34,2.1,.01,.94,0,1.89,.05,2.83,.02,.43-.03,.85,.2,1.28,.25,.46,.05,1.09,.45,1.52-.12,.24-.22,.43-.18,.35-.37,1.02,.08,1.67,.17,2.37,.08,.63,.37,1.23,.56,1.84-.06,.13-.13,.28-.2,.41,.12,.33,.25,.63,.33,.94,.08,.34-.14,.73,.21,1.12,.28-.47,.54-.88,.79-1.29v-1.38Zm17.69,20.67c.17-.51,.35-1.02,.53-1.57-.51-.45-.1-1.14-.31-1.66-.11-.04-.17-.08-.2-.07-.77,.25-1.57,.43-2.3,.77-.85,.4-1.78,.46-2.65,.78-.54,.2-1.21,.07-1.81,.1-.27,.01-.6-.05-.81,.08-.42,.26-.85,.2-1.29,.21-1,.02-2,.02-3,.04-.6,.01-1.2-.06-1.78,.25-.25,.13-.69,.08-.96-.05-.54-.28-1.13-.3-1.6-.11-.5,.2-.97,.16-1.45,.23-.1,.01-.2,.06-.23,.07-.28,.41-.53,.76-.79,1.14-.02,.14-.05,.3-.05,.47,0,.67,.04,1.33-.02,2-.05,.65-.25,1.28-.31,1.93-.05,.6-.01,1.22-.01,1.72-.16,.3-.26,.49-.34,.64v1.74c-.1,.18-.2,.37-.36,.65,.24,.92-.11,1.86-.36,2.78,.17,.17,.27,.33,.42,.38,.51,.19,1.02,.44,1.55,.47,.99,.05,1.92,.48,2.93,.39,.2-.02,.41,.13,.62,.19,.16,.04,.32,.06,.48,.08,.26-.1,.51-.2,.74-.29q1.43,.34,2.41-.02c.57,.04,1.2-.13,1.74,.26,.09-.06,.18-.15,.28-.17,.7-.12,1.39-.26,2.08-.37,1.04-.17,1.98-.52,2.94-.95,.99-.44,1.79-1.06,2.48-1.98,.03-.38,.07-.81,.09-1.09,.34-.86,.62-1.57,.97-2.45,0-.32-.03-.82,.01-1.31,.02-.25,.2-.49,.29-.69-.12-.21-.2-.35-.29-.5,.51-1.33,.22-2.73,.36-4.09Zm7.25-87.24c-.17-.67-.48-1.12-.65-1.65-.27-.82-.7-1.6-1.11-2.37-.19-.36-.56-.52-1.05-.42-.23,.25-.49,.53-.64,.69-.18,.51-.31,.87-.48,1.37,0,1.11,0,2.38,0,3.66,0,.27-.04,.6,.08,.8,.35,.58,.05,1.33,.55,1.85,.12,1.22,.63,2.29,1.19,3.36,.51,.97,1.06,1.92,1.48,2.92,.45,1.05,1.19,1.93,1.52,2.98h1.89c.82-.49,1.72-.27,2.59-.3,.61-.02,1.22-.04,1.82-.05,.79-.52,1.58-.21,2.46,.11,.57-.72,1.57-.05,2.25-.67,.89,.06,1.67-.57,2.54-.38,.34-.48,.65-.92,.95-1.35-.04-.19-.07-.35-.09-.48-.87-.51-1.72-1.01-2.53-1.49-.54-.03-1.04-.05-1.5-.08-.22-.11-.42-.2-.54-.26h-2.1c-.38,.21-.77,.41-1.22,.66-.73-.32-1.36,.63-2.28,.19-.24-.18-.62-.42-.73-.78-.1-.6,.29-.9,.44-1.3,.71-.44,1.01-1.27,1.66-1.77,.26-.2,.57-.43,.68-.72,.18-.47,.59-.61,.92-.88,.08-.07,.13-.17,.21-.27,.02-.26,.05-.53,.07-.85,.79-1.15,.83-2.65,1.63-3.84,.03-.04,.02-.11,.03-.16,.13-1.03,.56-2.02,.26-3.17-.12-.2-.29-.48-.45-.74-.15-.02-.26-.06-.36-.04-1.15,.22-2.02,1.01-2.89,1.41-.34,.43-.59,.72-.81,1.03-.25,.36-.59,.71-.67,1.11-.13,.67-.49,1.21-.75,1.81-.41,.96-.8,1.92-.69,3.01,.04,.33,0,.67,0,.85-.23,.7-.41,1.26-.6,1.82,.39,.55,.25,1.16,.22,1.95-.18,.17-.46,.43-.69,.64h-1.41c-.17-.19-.32-.35-.49-.52,.05-1.05-.38-2.03-.32-3.09,.06-1.05-.04-2.1-.07-3.14-.1-.16-.18-.3-.28-.46-.02-.37-.03-.76-.05-.99Zm-17.06,19.25c-1.37-1.31-2.61-2.66-4.25-3.66h-1.44c-.28,.38-.95,.25-1.12,.84,.18,.33,.42,.65,.54,1.01,.15,.46,.47,.8,.83,1,.8,.44,1.32,1.17,2,1.69,.61,.3,1.22,.56,1.77,.9,.61,.38,1.31,.5,1.95,.81,1.1,.52,2.23,.94,3.31,.75,.57-.18,.98-.32,1.57-.51,.34-.36,.79-.84,1.25-1.32,.44-.47,1.03-.76,1.37-1.36,.31-.55,.83-.97,1.28-1.48,.02-.73,.09-1.49,.04-2.16-.27-.31-.46-.52-.84-.47-.34,.29-.71,.61-1.01,.87-.31,.07-.52,.11-.68,.15-.38,.86-1.09,1.31-1.64,1.89h-.72c-.26-.28-.53-.55-.67-.71-.17-.57-.29-.98-.41-1.39,.46-.53,.21-1.04-.01-1.54,.09-.22,.17-.42,.25-.61,0-.06,.02-.12,0-.16-.07-.15-.16-.29-.28-.49v-2.42c-.42-.42-.33-.94-.37-1.41-.28-.54-.56-1.06-.82-1.57q-.6,.09-1,.46c-.16,.57-.39,1.09-.43,1.61-.07,.94-.18,1.92,.03,2.82,.22,.93,.18,1.85,.27,2.77,.02,.16,.02,.33,.03,.47,.21,.28,.41,.55,.52,.69,.1,.68,.18,1.22,.27,1.84-.07,.13-.2,.37-.34,.62-.16,.03-.32,.08-.48,.09-.22,.02-.44,0-.79,0Zm-11.27,16.32c-.61,.33-1.14,.56-1.73,.74-.86,.26-1.74,.54-2.49,1.12,.47,.15,.93,.3,1.52,.49,.65,0,1.43,0,2.2,0,.22,0,.49-.07,.65,.03,.72,.44,1.51,.24,2.27,.29,.33,.02,.66,0,.88,0,.36,.12,.62,.27,.88,.27,.31,0,.62-.15,.94-.24,.51,.35,1.02,.37,1.6-.07,1.14,0,2.36,0,3.58,0,.61,0,1.23,.06,1.83-.01,.64-.08,1.26-.29,1.92-.45,.33-.49,.66-.99,1.03-1.53-.16-.38,.18-.85-.25-1.31-.53,0-1.14,0-1.74-.03-.59-.04-1.18,.06-1.79-.17-.54-.21-1.19-.16-1.79-.16-.83,0-1.66,.03-2.49,.06-.16,0-.36-.02-.48,.07-.4,.29-.84,.23-1.28,.23-.66,0-1.33,0-1.9,0-1.09,.56-2.15,.76-3.34,.67Zm3.44,48.21c.44,.15,.84,.38,1.25,.41,.94,.06,1.88,.02,2.77,.02,.23-.12,.43-.21,.54-.27h1.74c.26,.11,.5,.21,.7,.3,.22-.13,.37-.21,.57-.33,.5,0,1.05-.04,1.6,0,1.44,.13,2.81-.48,4.19-.36,.31-.23,.58-.43,.81-.61,.41-.07,.78-.05,1.16-.23,.35-.18,.79-.18,1.25-.28-.17-.19-.28-.31-.45-.51-1.16,.1-2.28-.57-3.51-.38-.05,0-.12,0-.16-.03-.59-.44-1.28-.28-1.93-.29-1.66-.03-3.32-.02-4.98,0-1.6,.01-3.2,.05-4.84,.07-.26,.28-.52,.56-.72,.78v1.72Zm38.41-61.17c-.54,0-1.08-.11-1.53,.02-1.03,.31-2.03,.74-3.08,1-.29,.07-.53,.38-.78,.57-.29,.02-.56,.03-.83,.05-.27,.22-.53,.43-.8,.64h-.93c-.34-.27-.65-.49-.75-.92,.93-.9,1.72-2.01,3.02-2.15,.46-.71,.83-1.31,1.25-1.96-.02-.14-.06-.34-.1-.58h-1.02c-.54,.28-1.08,.55-1.66,.84-.73,.75-1.5,1.54-2.08,2.49-.56,.91-1.26,1.75-1.49,2.79,.5,.69,1.33,.91,1.67,1.64,.93,.46,1.71,1.21,2.71,1.5,.46,.13,.76,.42,1.14,.64,1.22,.18,2.42,.7,3.71,.3-.03-.09-.04-.21-.1-.26-.56-.43-1.14-.85-1.74-1.3-1.14,.05-2.11-.77-3.29-.75-.17-.16-.33-.31-.5-.48,.05-.33,.1-.65,.16-.97,0-.05,.07-.08,.15-.17,.8,.21,1.54-.33,2.37-.3,.89,.04,1.67-.55,2.42-.38,.5-.3,.86-.55,1.25-.74,.46-.22,.85-.5,1.2-.86,.06-.06,.08-.17,.13-.28-.17-.13-.35-.27-.49-.37ZM39.58,116.76c0-.55,.01-1.05,0-1.55-.04-1.16-.06-2.31,.34-3.42,.03-.08-.06-.19-.12-.37-.5-.08-1.06,0-1.6-.06-.38-.14-.73-.53-1.19-.15-.02,.1-.04,.21-.07,.31-.16,.53,.31,.93,.3,1.43,0,.55,.02,1.11,.05,1.66,0,.11,.04,.21,.08,.31,.32,.75,.49,1.55,.67,2.34,.19,.84,.52,1.65,.61,2.53,.02,.21,.19,.49,.57,.49v-2.89c.14-.24,.22-.38,.37-.63Zm.98-9.22c-1.28-.39-2.34,.39-3.47,.24-.04,0-.09,.05-.19,.11-.08,.13-.2,.31-.29,.45,.24,.77,.91,.78,1.44,1.07,.59,0,1.19,0,1.79,0,.1,0,.2-.06,.3-.1,.16-.34,.32-.67,.43-.9v-.87Zm18.21-46.48c-.16,.17-.35,.37-.52,.55,0,.3-.11,.59,.23,.76,.79-.26,1.59-.52,2.52-.83-.83-.18-1.43-.64-2.23-.47Z" style="fill: #030303;"/>
  <path d="M43.61,92.05v1.38c-.25,.41-.51,.83-.79,1.29-.35-.39-.12-.78-.21-1.12-.08-.31-.21-.61-.33-.94,.06-.13,.13-.28,.2-.41-.2-.62-.48-1.22-.56-1.84-.09-.7-.55-1.35-.17-2.37-.04,.08,.06-.11,.18-.35-.39-.43-.19-1.06-.45-1.52-.24-.43-.18-.86-.2-1.28-.05-.94-.04-1.89-.05-2.83-.46-.64-.16-1.4-.34-2.1-.28-.39-.67-.27-1.16-.22-.09,.11-.33,.26-.36,.45-.1,.59-.56,1.09-.47,1.72,.06,.42-.13,.74-.3,1.15,.08,.15,.18,.35,.31,.62-.06,.24-.14,.55-.22,.9,.21,.27,.27,.65,.23,1.04-.04,.32-.13,.63-.2,.96,.14,.42,.3,.88,.51,1.49,.06,.65-.11,1.49,.32,2.27,.12,.21-.01,.55,.02,.82,.05,.43,0,.85,.22,1.29,.18,.37,.09,.86,.14,1.29,.01,.1,.12,.19,.15,.29,.17,.62,.52,1.18,.52,1.86,0,.25,.2,.5,.34,.82v1.39c.38,.64,.74,1.25,.7,2.01,0,.18,.2,.37,.29,.53-.26,.43-.42,.84-.36,1.29,.06,.41-.21,.73-.29,1.09-.09,.43-.06,.88-.08,1.35-.18,.42-.22,.96-.83,1.26-.96,.2-2.11-.19-3.14,.36-2.17,.49-2.19,.5-2.97,1.27,0,1-.24,2.05,.27,3.05,.05,.09,.03,.22,.02,.33-.14,1.28,.45,2.49,.37,3.77,.24,.73,.25,1.5,.46,2.23,.25,.89,.31,1.81,.66,2.68,.34,.85,.57,1.75,.88,2.62,.31,.87,.67,1.72,1,2.58,.04,.1,.05,.21,.09,.39,.53,.55,1.11,1.15,1.65,1.71,1.86,.25,3.53,.89,5.55,1.43h1.78c.22,.12,.37,.21,.49,.28h2.17c.35-.23,.72-.36,1.11-.29,.31,.06,.62,.19,1.01,.32,.49-.2,1.07-.31,1.67-.4,.58-.08,1.15-.32,1.76-.29,.16,0,.37,.04,.49-.04,.77-.47,1.69-.38,2.5-.73,.6-.26,1.2-.5,1.73-.88,.85-.61,1.29-1.19,1.68-2.33,.09-.26,.22-.5,.31-.75,.23-.72,.57-1.44,.63-2.18,.07-.77,.53-1.46,.4-2.26,.44-1,.3-2.06,.34-3.1,.02-.44-.02-.86,.24-1.28,.13-.2,.04-.54,.05-.82,0-.89,.02-1.78,0-2.67-.02-.76,.15-1.55-.27-2.27,.11-.84-.49-1.44-.76-2.19-.46-.23-.94-.48-1.44-.74-.61-.2-1.3,.07-1.92-.3-.52-.31-1.17-.06-1.76-.34-.57-.27-1.29-.07-1.91-.39-.18-.09-.51,.11-.95,.22-.08-.03-.33-.14-.6-.25h-1.75c-.1,.05-.3,.15-.56,.28-.6,.16-1.28-.75-1.92,.04-.86,0-1.69-.01-2.52,0-.49,.01-.96,0-1.45,.23-.36,.18-.86,.08-1.24,.1-.26-.22-.27-.43-.11-.62,.24-.29,.14-.63,.18-.95,.04-.32,.14-.63,.23-1.02-.03-.05-.1-.2-.16-.32,.2-.75,.45-1.47,.58-2.21,.07-.39,.17-.74,.29-1.1,.09-.27-.06-.62-.11-1.07,.12-.26,.31-.65,.53-1.11v-1.4c.2-.23,.38-.44,.57-.64,.2-.31,.04-.65,.09-.99,.4-.36,.19-.97,.43-1.35,.32-.52,.03-1.11,.39-1.58,.34-.43,.16-.96,.24-1.59,.33-.42,.72-.95,1.14-1.45,.31-.38,.75-.64,.93-1.14,.06-.18,.31-.29,.48-.43,.3-.24,.59-.5,.91-.7,.53-.33,.69-.97,1.17-1.34,.48-.37,.9-.81,1.35-1.22,.44-.4,.78-.95,1.41-1.12,.15-.04,.27-.19,.39-.31,.72-.69,1.44-1.39,2.16-2.08-.08-.63-.37-1.07-.67-1.5-.52-.2-1.01-.09-1.67-.02-.5,.58-1.08,1.24-1.61,1.85-.36,.05-.57,.08-.88,.13-.3,.27-.67,.61-1.06,.95-.05,.27-.1,.54-.17,.85-.24,.25-.51,.53-.72,.76-.45,.02-.56-.06-.53-.31,0-.05,0-.11,0-.17,.17-.56,.35-1.12,.52-1.68-.07-.14-.13-.29-.23-.49,.43-.66,1.01-1.28,1.05-2.15,.49-.68,.59-1.53,.97-2.25,.39-.74,.33-1.59,.87-2.59,0-.01,.22-.27,.43-.52,.01-.28,.03-.56,.03-.71,.15-.84,.8-1.26,1-1.98,.2-.72,.56-1.4,1.01-2.04,.4-.56,.59-1.26,.89-1.94,1.04-.17,1.94-.72,3-.83,.45-.04,.87-.36,1.34-.57,.03,.2,.13,.4,.06,.51-.45,.8-.55,1.76-1.18,2.49-.28,.32-.47,.73-.79,1.05-.35,.35-.69,.71-.86,1.2-.14,.41-.4,.77-.71,1.09-.3,.31-.51,.7-.78,1.09,.39,.63,.79,1.21,1.12,1.84,.28,.52,.46,1.1,.72,1.64,.24,.49,.42,.98,.59,1.51,.44,1.39,.92,2.77,1.38,4.15,.29,.87,.33,1.82,.84,2.62,.03,.04,.04,.12,.02,.16-.24,.7,.31,1.25,.35,1.9,.04,.6,.36,1.13,.52,1.7,.03,.1,.12,.2,.12,.3,.02,.33-.02,.67,.04,1,.05,.32,.23,.61,.3,.92,.05,.27,.01,.55,.01,.79,.22,.44,.42,.83,.67,1.33v1.66c.51,.63,.33,1.31,.36,2.03,.17,.33,.36,.72,.56,1.13,.22,.94-.27,1.99,.46,2.84-.13,.38-.24,.69-.35,1,0,.1-.05,.25,0,.32,.41,.51,.16,1.18,.46,1.72,.3,.56,.09,1.2,.15,1.8,.04,.49-.08,1,.32,1.42-.1,.25-.2,.5-.31,.8,0,.51,.42,.96,.35,1.54-.06,.49-.01,1-.01,1.42,.13,.21,.21,.36,.34,.57-.09,.2-.2,.44-.33,.74,.08,.16,.18,.35,.3,.6-.21,.45-.33,.97-.31,1.53,.03,.78,.01,1.55-.02,2.33-.02,.6,.15,1.23-.27,1.76v1.56c-.74,1.74-.67,3.52-1.22,5.47-.01,.02-.21,.29-.44,.6v1.05c-.29,.6-.56,1.13-.87,1.76-.51,.63-1.2,1.14-2.11,1.32-.11,.02-.25,.05-.3,.12-.38,.55-1.11,.45-1.57,.86-.72,.64-1.66,.79-2.55,1.03-.26,.07-.52,.14-.77,.24-.31,.12-.6,.37-.9,.37-.78,0-1.46,.42-2.26,.39-1.77-.07-3.55,.02-5.33-.05-.75-.03-1.51-.21-2.24-.41-.94-.25-1.91-.4-2.79-.86-.75,.02-1.28-.59-1.99-.72-.63-.12-1.23-.43-1.82-.65-.29-.42-.57-.83-.86-1.26-.01-.19-.02-.41-.04-.74-.52-.85-.79-1.94-1.57-2.75-.11-.65-.38-1.25-.73-1.86v-1.18c-.67-.47-.74-1.26-.97-1.97,.07-.15,.14-.29,.2-.42-.19-.22-.36-.44-.55-.67,0-.32,.04-.65-.01-.98-.05-.31-.2-.61-.3-.91,.06-.11,.12-.21,.2-.35-.07-.21-.16-.45-.22-.7-.07-.32,0-.65-.23-.95-.16-.21-.24-.49-.36-.76,.2-.32,.38-.71,.12-1.05-.23-.29,.14-.51-.02-.72-.18-.24-.2-.51-.2-.79,0-.28,0-.56,0-.83,0-.6-.02-1.17-.25-1.77-.19-.49-.08-1.1-.08-1.65,0-1.17,.03-2.33,0-3.5-.01-.59,.11-1.22-.27-1.77-.05-.07-.04-.23,0-.33,.52-1.34,.17-2.73,.32-4.14,.02-.16,.18-.35,.29-.55,0-.54,0-1.1,0-1.65,0-.5,.02-1,.02-1.5,0-.5,.49-.89,.32-1.42,.43-.76,.35-1.6,.36-2.34,.23-.7,.51-1.3,.61-1.94,.11-.71,.45-1.34,.6-2.02,.14-.63,.59-1.2,.41-1.93,.69-.75,.66-1.79,1.01-2.7,.16-.4,.2-.85,.38-1.25,.15-.34,.42-.64,.63-.95,.01-.23,.02-.46,.03-.75,.29-.57,.61-1.21,.96-1.9v-.54c.35-.86,.81-1.64,.96-2.48,.12-.69,.54-1.34,.37-2.09-.34-1.06-1.41-1.67-1.7-2.76-.85-.74-1.17-1.85-1.86-2.7,.24-.23,.55-.18,.79-.12,.99,.26,2,.49,3,.74,.31,.08,.61,.19,.94,.21,.71,.03,1.43-.09,2.11,.3,.21,.12,.54,.03,.82,.03,2.33,0,4.66,0,6.99,0,.82,0,1.65,0,2.59,.01-.34,.67-.72,1.21-.87,1.81-.17,.65-.45,1.22-.78,1.82-.01,.25-.03,.53-.05,.83-.18,.25-.38,.51-.6,.8v.71c-.1,.19-.22,.44-.35,.67-.32,.57-.92,1.03-.98,1.68-.06,.61-.33,1.15-.38,1.75-.07,.82-.6,1.51-.86,2.28-.19,.56-.51,1.09-.8,1.7,.04,.83-.21,1.65-.6,2.45-.21,.43-.47,.87-.4,1.41,.02,.18-.17,.39-.26,.59-.23,.49-.46,.99-.72,1.55v1.38c-.46,.68-.42,1.53-.97,2.12-.07,.71-.38,1.35-.67,2.14Z" style="fill: #fff;"/>
  <path d="M61.3,112.72c-.14,1.36,.15,2.76-.36,4.09,.09,.15,.17,.29,.29,.5-.09,.2-.26,.44-.29,.69-.05,.49-.01,1-.01,1.31-.35,.89-.63,1.6-.97,2.45-.02,.28-.06,.71-.09,1.09-.69,.91-1.49,1.54-2.48,1.98-.95,.42-1.89,.78-2.94,.95-.69,.11-1.39,.26-2.08,.37-.1,.02-.19,.11-.28,.17-.55-.39-1.17-.22-1.74-.26q-.97,.37-2.41,.02c-.23,.09-.48,.19-.74,.29-.16-.03-.33-.04-.48-.08-.21-.06-.42-.21-.62-.19-1.01,.09-1.94-.34-2.93-.39-.52-.03-1.04-.29-1.55-.47-.14-.05-.24-.22-.42-.38,.25-.92,.6-1.86,.36-2.78,.15-.28,.26-.47,.36-.65v-1.74c.08-.15,.18-.34,.34-.64,0-.5-.04-1.12,.01-1.72,.06-.65,.25-1.28,.31-1.93,.06-.66,.01-1.33,.02-2,0-.16,.04-.33,.05-.47,.26-.37,.51-.73,.79-1.14,.03,0,.12-.06,.23-.07,.48-.07,.96-.03,1.45-.23,.47-.19,1.06-.17,1.6,.11,.27,.14,.71,.18,.96,.05,.58-.31,1.18-.23,1.78-.25,1-.02,2-.03,3-.04,.44,0,.87,.05,1.29-.21,.21-.13,.54-.07,.81-.08,.61-.03,1.27,.11,1.81-.1,.87-.33,1.8-.38,2.65-.78,.72-.35,1.53-.53,2.3-.77,.04-.01,.09,.03,.2,.07,.21,.52-.19,1.21,.31,1.66-.19,.55-.36,1.06-.53,1.57Z" style="fill: #fff;"/>
  <path d="M68.55,25.48c.01,.23,.03,.62,.05,.99,.1,.16,.18,.3,.28,.46,.03,1.03,.12,2.09,.07,3.14-.06,1.06,.37,2.05,.32,3.09,.16,.17,.31,.33,.49,.52h1.41c.23-.21,.51-.47,.69-.64,.03-.79,.17-1.4-.22-1.95,.19-.56,.37-1.12,.6-1.82,0-.19,.03-.52,0-.85-.12-1.09,.28-2.04,.69-3.01,.25-.6,.61-1.14,.75-1.81,.08-.4,.42-.76,.67-1.11,.22-.31,.47-.6,.81-1.03,.87-.4,1.74-1.19,2.89-1.41,.1-.02,.22,.02,.36,.04,.16,.26,.33,.54,.45,.74,.3,1.14-.14,2.14-.26,3.17,0,.05,0,.12-.03,.16-.8,1.19-.84,2.69-1.63,3.84-.03,.32-.05,.59-.07,.85-.07,.1-.13,.21-.21,.27-.33,.26-.74,.41-.92,.88-.11,.29-.42,.52-.68,.72-.65,.5-.95,1.33-1.66,1.77-.15,.4-.54,.71-.44,1.3,.11,.36,.49,.59,.73,.78,.92,.44,1.55-.51,2.28-.19,.45-.24,.84-.45,1.22-.66h2.1c.12,.06,.32,.15,.54,.26,.46,.02,.96,.05,1.5,.08,.81,.48,1.66,.98,2.53,1.49,.03,.13,.06,.29,.09,.48-.3,.43-.61,.87-.95,1.35-.88-.2-1.66,.44-2.54,.38-.68,.62-1.68-.06-2.25,.67-.89-.32-1.67-.63-2.46-.11-.61,.02-1.22,.03-1.82,.05-.87,.03-1.77-.19-2.59,.3h-1.89c-.33-1.05-1.07-1.93-1.52-2.98-.43-1-.98-1.95-1.48-2.92-.56-1.06-1.07-2.14-1.19-3.36-.5-.52-.2-1.27-.55-1.85-.13-.21-.08-.53-.08-.8,0-1.27,0-2.55,0-3.66,.18-.5,.3-.86,.48-1.37,.15-.16,.41-.44,.64-.69,.49-.1,.86,.06,1.05,.42,.41,.77,.84,1.54,1.11,2.37,.17,.53,.48,.98,.65,1.65Z" style="fill: #fefefe;"/>
  <path d="M51.49,44.73c.35,0,.57,.01,.79,0,.16-.01,.32-.06,.48-.09,.14-.25,.27-.49,.34-.62-.09-.63-.17-1.16-.27-1.84-.11-.14-.31-.4-.52-.69,0-.14-.02-.31-.03-.47-.09-.92-.05-1.84-.27-2.77-.21-.89-.1-1.88-.03-2.82,.04-.53,.27-1.04,.43-1.61q.39-.36,1-.46c.26,.5,.54,1.03,.82,1.57,.04,.47-.05,.99,.37,1.41v2.42c.12,.2,.21,.34,.28,.49,.02,.04,0,.11,0,.16-.08,.2-.16,.4-.25,.61,.22,.5,.48,1.01,.01,1.54,.12,.41,.24,.81,.41,1.39,.14,.15,.41,.43,.67,.71h.72c.55-.58,1.27-1.03,1.64-1.89,.16-.03,.37-.08,.68-.15,.3-.26,.67-.58,1.01-.87,.38-.05,.57,.15,.84,.47,.06,.66-.02,1.43-.04,2.16-.45,.51-.97,.94-1.28,1.48-.34,.6-.93,.9-1.37,1.36-.46,.48-.91,.97-1.25,1.32-.59,.19-1,.33-1.57,.51-1.09,.19-2.22-.23-3.31-.75-.64-.3-1.34-.43-1.95-.81-.56-.34-1.17-.6-1.77-.9-.68-.52-1.21-1.25-2-1.69-.36-.2-.68-.54-.83-1-.12-.36-.36-.68-.54-1.01,.16-.59,.84-.46,1.12-.84h1.44c1.64,1,2.88,2.35,4.25,3.66Z" style="fill: #fdfdfd;"/>
  <path d="M40.21,61.05c1.2,.09,2.26-.11,3.34-.67,.58,0,1.24,0,1.9,0,.44,0,.88,.05,1.28-.23,.12-.08,.32-.06,.48-.07,.83-.03,1.66-.07,2.49-.06,.6,0,1.25-.04,1.79,.16,.61,.23,1.19,.14,1.79,.17,.6,.04,1.21,.02,1.74,.03,.43,.46,.09,.92,.25,1.31-.36,.54-.7,1.04-1.03,1.53-.66,.16-1.28,.37-1.92,.45-.6,.08-1.22,.01-1.83,.01-1.22,0-2.44,0-3.58,0-.59,.44-1.09,.42-1.6,.07-.31,.09-.62,.23-.94,.24-.25,0-.51-.15-.88-.27-.22,0-.55,.02-.88,0-.76-.05-1.55,.15-2.27-.29-.16-.1-.43-.03-.65-.03-.78,0-1.55,0-2.2,0-.59-.19-1.05-.34-1.52-.49,.75-.58,1.63-.85,2.49-1.12,.59-.18,1.12-.42,1.73-.74Z" style="fill: #fdfdfd;"/>
  <path d="M43.65,109.26v-1.72c.2-.22,.46-.49,.72-.78,1.63-.02,3.23-.06,4.84-.07,1.66-.01,3.32-.02,4.98,0,.65,.01,1.34-.14,1.93,.29,.04,.03,.11,.03,.16,.03,1.23-.18,2.35,.48,3.51,.38,.17,.19,.28,.31,.45,.51-.46,.09-.9,.1-1.25,.28-.37,.19-.74,.17-1.16,.23-.24,.18-.5,.38-.81,.61-1.39-.13-2.75,.49-4.19,.36-.55-.05-1.11,0-1.6,0-.2,.12-.34,.2-.57,.33-.19-.08-.44-.19-.7-.3h-1.74c-.12,.06-.31,.16-.54,.27-.89,0-1.84,.04-2.77-.02-.41-.03-.81-.26-1.25-.41Z" style="fill: #fbfbfb;"/>
  <path d="M82.06,48.09c.14,.11,.31,.24,.49,.37-.05,.11-.07,.22-.13,.28-.34,.36-.74,.64-1.2,.86-.39,.19-.75,.44-1.25,.74-.76-.17-1.54,.42-2.42,.38-.83-.04-1.57,.5-2.37,.3-.08,.09-.14,.13-.15,.17-.06,.32-.11,.64-.16,.97,.18,.17,.33,.32,.5,.48,1.17-.02,2.14,.8,3.29,.75,.6,.45,1.18,.87,1.74,1.3,.06,.05,.07,.17,.1,.26-1.28,.4-2.48-.11-3.71-.3-.38-.22-.68-.5-1.14-.64-1-.29-1.78-1.04-2.71-1.5-.34-.73-1.17-.96-1.67-1.64,.24-1.04,.94-1.88,1.49-2.79,.58-.95,1.34-1.74,2.08-2.49,.58-.29,1.12-.56,1.66-.84h1.02c.04,.24,.08,.44,.1,.58-.42,.66-.8,1.25-1.25,1.96-1.3,.14-2.08,1.25-3.02,2.15,.1,.43,.41,.65,.75,.92h.93c.27-.21,.53-.42,.8-.64,.26-.02,.54-.03,.83-.05,.26-.19,.49-.5,.78-.57,1.06-.26,2.05-.69,3.08-1,.46-.14,.99-.02,1.53-.02Z" style="fill: #f9f9f9;"/>
  <path d="M39.58,116.76c-.14,.25-.23,.39-.37,.63v2.89c-.39,0-.55-.27-.57-.49-.09-.88-.41-1.68-.61-2.53-.18-.79-.36-1.59-.67-2.34-.04-.1-.07-.21-.08-.31-.02-.55-.05-1.11-.05-1.66,0-.5-.46-.9-.3-1.43,.03-.1,.05-.21,.07-.31,.46-.38,.81,0,1.19,.15,.55,.06,1.1-.02,1.6,.06,.06,.18,.15,.3,.12,.37-.4,1.11-.38,2.26-.34,3.42,.02,.5,0,1,0,1.55Z" style="fill: #f5f5f5;"/>
  <path d="M40.56,107.53v.87c-.11,.23-.27,.57-.43,.9-.1,.03-.2,.1-.3,.1-.6,0-1.21,0-1.79,0-.53-.29-1.2-.3-1.44-1.07,.09-.14,.2-.32,.29-.45,.1-.06,.15-.12,.19-.11,1.14,.14,2.2-.63,3.47-.24Z" style="fill: #e8e8e8;"/>
  <path d="M58.78,61.05c.8-.16,1.4,.3,2.23,.47-.93,.31-1.73,.57-2.52,.83-.34-.16-.23-.45-.23-.76,.17-.18,.36-.38,.52-.55Z" style="fill: #ddd;"/>
</svg>