<?xml version="1.0" encoding="UTF-8"?>
<svg id="Ebene_2" data-name="Ebene 2" xmlns="http://www.w3.org/2000/svg" width="30mm" height="30mm" viewBox="-9 -4 100 100">
  <g id="Ebene_1-2" data-name="Ebene 1">
    <g id="Head">
      <path d="M72.73,62.13h-.88c-.03,.12-.07,.25-.13,.47-.45,.06-.93,.05-1.41,.21-.43,.14-.84,.27-1.26,.46-.3,.13-.69,.07-1.06,.1-.13,.38-.26,.76-.4,1.14-.11,.02-.22,.05-.35,.08v.7c-.47,.51-.5,1.2-.8,1.73-.31,.55-.67,1.12-.86,1.69-.2,.61-.67,1-.87,1.56-.21,.59-.49,1.15-.72,1.68-.15,.04-.26,.07-.37,.1v.57c-.13,.04-.26,.07-.45,.12-.03,.61-.37,1.1-.75,1.58-.28,.35-.47,.77-.73,1.13-.26,.38-.56,.73-.84,1.09-.26,.33-.45,.77-.78,.98-.4,.25-.33,.91-.9,.94-.07,.5-.49,.7-.84,.95-.33,.23-.53,.58-.88,.82-.47,.32-.73,.9-1.25,1.23-.71,.45-1.34,1.01-2.02,1.51-.34,.25-.69,.47-1.12,.77h-.38c-.04,.09-.08,.2-.16,.42-.32,.12-.72,.27-1.11,.42-.02,.11-.05,.22-.07,.33-.22,.02-.41,.04-.62,.07-.02,.11-.05,.22-.07,.33-.91,.56-1.92,.97-2.81,1.6-.54,.38-1.18,.62-1.78,.91-.37,.18-.73,.4-1.12,.46-.44,.07-.78,.24-1.12,.49-.5,.37-1.12,.22-1.7,.25-.05,.15-.1,.28-.17,.48-.89-.12-1.67,.25-2.5,.71h-1.36c-.18,.17-.35,.33-.51,.48-.5,0-.98-.03-1.45,0-.61,.05-1.23-.14-1.85,.17-.54,.27-1.25-.18-1.79,.31-.77-.1-1.57,.22-2.31-.22-.06-.04-.15-.02-.23-.02-1.45-.1-2.89-.2-4.41-.3-.07-.08-.21-.22-.37-.39h-1.51c-.07-.18-.17-.41-.17-.43-.89-.16-1.53-.27-2.27-.4-.01-.04-.05-.18-.1-.36h-.67v-.04s-.1,.02-.12,0c-.41-.63-1.19-.64-1.77-.97-1.18-.66-2.22-1.54-3.41-2.18-.34-.18-.88-.25-.99-.81-.02-.1-.43-.08-.61-.19-.13-.07-.17-.35-.3-.4-.69-.27-1.27-.71-1.74-1.23-.74-.83-1.94-1.19-2.4-2.31-.42-.06-.5-.58-.91-.67v-.47c-.85-.49-1.19-1.38-1.7-2.14-.53-.78-1.02-1.56-1.43-2.41-.15-.3-.32-.64-.58-.83-.43-.32-.37-.74-.38-1.19-.13-.03-.24-.05-.38-.08-.12-.72-1.04-1.14-.79-2.04-.13-.04-.23-.08-.43-.15-.05-.8-.59-1.49-.9-2.28-.45-1.19-.71-2.43-1.14-3.61-.49-1.35-.41-2.67-.43-4.02-.02-1.76,.02-3.52-.02-5.28-.01-.82,.13-1.59,.43-2.34,.2-.5,.02-1.03,.24-1.58,.22-.52,.39-1.13,.49-1.71,.1-.57,.31-1.08,.47-1.61,.16-.55,.23-1.1,.65-1.54,.11-.12,.09-.36,.12-.54,.02-.11,.68-1.26,.79-1.36,.03-.02,.08-.03,.1-.05,.3-.68,.59-1.35,.9-2.06,.09-.03,.23-.08,.37-.13v-.53c.97-.68,1.12-2.11,2.36-2.59,.34-.78,.68-1.12,1.66-1.65,.22-.56,.56-1.1,.11-1.72-.1-.13-.04-.38-.05-.58,0-1.72,0-3.44,0-5.16,0-.62,.38-1.17,.25-1.82-.12-.62,.15-1.19,.39-1.75,.03-.07,.08-.14,.07-.21-.12-1.11,.32-2.08,.71-3.07,.07-.17,0-.4,0-.67,.15-.11,.34-.26,.48-.36v-.84c.13-.04,.27-.09,.41-.14,.02-.07,.08-.14,.07-.21-.05-.36,.02-.75,.26-.96,.41-.37,.37-.98,.9-1.33,.4-.27,.52-.95,.8-1.43,.08-.13,.32-.16,.44-.28,.35-.38,.7-.75,1.2-1.17-.01-.56,.05-1.23-.22-1.91-.23-.59-.48-1.23-.46-1.83,.03-1.26-.22-2.49-.26-3.74-.04-1.24-.08-2.48,.02-3.72,.06-.73,.31-1.46,.85-2.07,.13-.01,.32-.03,.5-.04,.04-.15,.07-.26,.11-.41h1.08c.03,.08,.08,.22,.12,.36,.46,.16,1.06,.11,1.23,.75,.99,.36,1.51,1.38,2.48,1.77,.34,.14,.26,.72,.75,.75,.21,.02,.42,.14,.77,.27,0-.73,0-1.36,0-1.98,0-.66,0-1.3,.22-1.95,.19-.57,.19-1.2,.27-1.76,.26-.61,.87-.63,1.33-.87,.23,.35,.63,.15,.95,.22,.65,.66,1.26,1.38,1.88,2.07,.5,.55,1.01,1.19,1.72,1.5,.38,.17,.54,.58,1.04,.66,.33,.05,.67,.45,1.07,.56,.09,.58,.68,.46,1.02,.7,.35,.25,.82,.33,1.22,.51,.24,.11,.45,.27,.77,.46,.15,0,.42,.02,.67,.04,.04,.15,.07,.26,.1,.37,.07,.03,.14,.09,.2,.08,.67-.04,1.26,.17,1.85,.47,.36,.18,.78,.23,1.28,.37,.06,.06,.21,.21,.36,.36,.56,0,1.15-.07,1.61,.41,1.18,.21,2.27,.88,3.51,.78,.62-.05,.98,.64,1.6,.49,.25,.38,.65,.19,.97,.25,.14,.14,.28,.28,.48,.48,.81-.26,1.46,.35,2.21,.57,.74,.21,1.41,.66,2.27,1.09h.51c.26,.52,.68,.76,1.25,.74,.17,.58,.79,.59,1.22,.94,.25-.2,.61-.37,.79-.66,.22-.33,.59-.41,.82-.71,.21-.27,.53-.46,.89-.77h.28c.52-.41,.98-.83,1.49-1.17,.46-.3,.98-.52,1.48-.77,.16-.78,1.1-.36,1.36-.9,.77-.25,1.35,.21,2.01,.5,.15,.38,.32,.83,.58,1.48,0,.21,0,.64,0,1.08,0,.42,.03,.83-.23,1.23-.16,.24-.21,.56-.24,.85-.04,.31,0,.63,0,.93-.16,.16-.3,.3-.48,.48-.03,.64,.14,1.38-.48,1.92,.46,.36,1.02-.03,1.56,.29,.4,.24,.98,.35,1.54,.34,.5,0,1.05,.16,1.5,.4,.51,.28,1.02,.28,1.52,.29,.14,.14,.24,.32,.37,.36,.97,.29,1.83,.82,2.7,1.31,.12,.07,.31,0,.54,0,.2,.24,.42,.51,.6,.72h.52c.18,.18,.3,.35,.46,.47,.66,.53,1.35,1.05,1.55,1.95,.04,.21,.05,.44,.02,.65-.04,.3-.14,.58-.23,.91-.13,.11-.31,.26-.68,.56h-.85c-.05,.19-.08,.3-.13,.5-.4,0-.83-.03-1.26,0-.45,.04-.9,.13-1.34,.24-.4,.09-.78,.25-1.18,.34-.41,.09-.84,.13-1.41,.21-.05,.07-.18,.26-.26,.38-.31,.02-.5,.04-.68,.05-.03,.12-.08,.21-.06,.26,.29,.72,.72,1.42,.83,2.16,.09,.6,.67,.9,.64,1.56-.02,.48,.33,.97,.5,1.45,.15,.42,.2,.9,.44,1.25,.29,.44,.16,.9,.24,1.34,.15,.15,.29,.29,.37,.37,.13,.54,.24,1.02,.36,1.54,.15,.08,.35,.18,.52,.27,.2-.05,.4-.15,.61-.15,.56-.02,1.13-.07,1.68,.01,.47,.07,.9,.32,1.36,.46,1.32,.4,2.59,.93,3.73,1.7,1.03,.7,1.97,1.54,2.54,2.68,.2,.4,.74,.59,.68,1.14,.47,.26,.38,.8,.59,1.2,.53,.99,.49,1.01,.52,2.06,.39,.38,.48,.85,.47,1.37-.02,.52-.02,1.04,0,1.56,.02,.52-.07,1-.49,1.38,.12,1.3-.32,2.43-1.05,3.51-.23,.34-.4,.79-.62,1.17-.57,.99-1.39,1.77-2.12,2.63-.47,0-.25,.76-.64,.69-.5-.08-.23,.51-.62,.54-.3,.02-.56,.35-.87,.49-.41,.19-.58,.66-1.13,.72-.44,.05-.85,.44-1.27,.68-.23,.13-.45,.27-.79,.48Zm-47.66,22.8c.71,.01,1.37-.06,1.99,.23,.34,.16,.7,.23,1.09,.28,.53,.06,1.13,.06,1.56,.25,.83,.38,1.67,.08,2.51,.31,.81,.23,1.73,.1,2.6,.12,.28,0,.59,.08,.83-.02,1.25-.51,2.58-.58,3.9-.76,.13-.13,.28-.28,.42-.42h1.1c1.07-.67,2.13-1.1,3.29-1.27,.05-.14,.1-.28,.14-.41h.75c.4-.44,.97-.55,1.46-.81,.44-.24,1.06-.14,1.38-.76,.22-.44,.92-.39,1.39-.65,.46-.26,.82-.67,1.29-.87,.52-.22,.97-.49,1.26-1h.33c.52-.54,.92-1.07,1.43-1.46,.54-.41,.98-.88,1.41-1.39,.42-.5,.93-.91,1.45-1.4,0-.11,.02-.3,.01-.22,.32-.41,.48-.63,.64-.84,.31-.39,.63-.77,.93-1.18,.29-.39,.63-.78,.8-1.23,.16-.43,.62-.65,.65-1.16,.01-.23,.26-.45,.4-.66,.21-.31,.59-.61,.62-.94,.08-1.02,.77-1.7,1.23-2.5,.36-.62,.77-1.21,1.24-1.94v-.87c.15-.04,.26-.07,.34-.09,.19-.58,.38-1.14,.57-1.73-.2-.21-.41-.43-.62-.66-1.09,.29-1.75-.73-2.69-.72-.06-.19-.1-.32-.12-.39-.26-.06-.5-.05-.62-.16-.71-.61-1.39-1.24-1.89-2.06-.2-.33-.29-.61-.3-.96,0-.07-.06-.13-.09-.2-.08,0-.15-.01-.25-.02-.36-1.08-1.08-2.07-.84-3.28-.21-.18-.36-.31-.49-.42v-3.39c.41-.38,.46-.86,.49-1.37,.03-.44,.05-1.01,.31-1.29,.41-.44,.34-1.12,.87-1.46-.12-.64,.6-.81,.77-1.34,.19-.58,.7-1.13,1.21-1.48,.28-.19,.36-.56,.78-.66,.33-.08,.56-.55,.86-.8,.29-.24,.71-.23,.97-.64,.15-.25,.65-.27,.96-.44,.14-.07,.2-.27,.33-.47,.22,0,.49,0,.48,0,.57-.28,.91-.44,1.33-.64-.04-.21-.03-.53-.15-.79-.5-1.09-.46-2.34-1.07-3.4,.09-.54-.36-.91-.45-1.37-.08-.46-.1-.99-.45-1.25-.5-.37-.12-.99-.53-1.36-.23-.21-.34-.57-.49-.87-.17-.33-.49-.69-.44-.99,.08-.52-.72-.26-.53-.74-.46-.32-.48-.98-.88-1.28-.41-.31-.56-.72-.82-1.06,.53-.36,1.11-.6,1.44-1.02,.42-.53,1.09-.23,1.55-.7,.34-.34,1.04-.33,1.72-.51,.04-.06,.15-.23,.21-.31,.53-.03,.95-.05,1.44-.07-.37-.25-.65-.44-.99-.67h-1.2c-.11-.14-.26-.33-.39-.49h-5.76c-.15-.13-.26-.24-.32-.29v-2.53c.15-.04,.26-.07,.4-.1,.12-.77-.1-1.57,.16-2.33-.09-.09-.18-.16-.26-.24-.06,.06-.11,.15-.18,.17-.18,.05-.37,.06-.43,.07-.36,.38-.65,.68-.94,.98-.32,.34-.65,.69-.95,1.05-.3,.35-.57,.72-.9,1.16-.35-.19-.75-.17-1.06-.63-.2-.3-.77-.34-1.12-.47-.05-.19-.08-.29-.11-.39-.22-.02-.41-.04-.59-.06-.04-.14-.06-.25-.1-.38-1-.12-1.63-.99-2.57-1.29-.95-.3-1.86-.73-2.92-1.16-.83,.17-1.61-.63-2.59-.6-.32,.01-.71-.07-.96-.26-.51-.39-1.07-.37-1.6-.37-.18-.18-.32-.32-.47-.47-1.19,.18-2.07-.89-3.31-.74-.11-.19-.2-.37-.28-.5h-.77c-.17-.17-.31-.31-.45-.45-.24,0-.48,0-.72,0-.34-.24-.69-.47-.86-.59-.62-.15-1.13-.15-1.48-.39-.51-.34-1.12-.38-1.62-.77-.48-.38-1.12-.55-1.7-.79-.48-.2-.83-.66-1.4-.68,.06-.67-.61-.23-.85-.56-.22-.3-.67-.44-1.07-.67-.03-.08-.07-.22-.1-.3h-.74c.27,1.12,.4,2.2,.33,3.29,0,.04-.02,.1,0,.12,.46,.43,.07,1.01,.26,1.45,.22,.53,.22,1.05,.22,1.59,0,.48,0,.96,0,1.44,0,.07-.06,.13-.09,.19h-.87c-.26-.37-.46-.82-.81-1.1-.32-.25-.61-.56-.96-.8-.32-.22-.52-.63-.77-.96h-.41c-.91-1.07-2.12-1.64-3.2-2.37-.12,.12-.2,.2-.31,.31-.23,2.25,.53,4.46,.45,6.72,0,.03,.04,.06,.06,.09,.15,.06,.31,.13,.68,.28-.33,.15-.48,.18-.56,.26-.12,.13-.24,.29-.27,.45-.07,.43-.51,.54-.71,.88-.2,.34-.44,.73-.87,.97-.31,.17-.67,.54-.7,.86-.05,.57-.71,.68-.74,1.14-.03,.57-.66,.86-.6,1.44-.53,.35-.41,1.03-.74,1.5-.18,.25-.46,.54-.36,.92,.11,.42-.13,.77-.29,1.08-.14,.27-.19,.5-.19,.76,0,.4,0,.79,0,1.13-.35,.46-.49,.91-.49,1.43,.02,1.88,.02,3.76,0,5.64,0,.52,.08,.99,.49,1.36v2.28c-.2,.35-.32,.64-.52,.86-.21,.23-.2,.68-.65,.67,.12,.45-.41,.32-.53,.6-.12,.27-.43,.47-.7,.75v.32c-1.17,.89-1.75,2.27-2.87,3.26,0,.04,.07,.28-.01,.35-.43,.36-.48,.96-.84,1.33-.43,.44-.44,1.02-.72,1.51-.69,1.2-.94,2.57-1.3,3.9-.13,.47-.17,.97-.25,1.46-.08,.49-.07,1.01-.26,1.45-.27,.65-.21,1.29-.22,1.95,0,.64-.04,1.28,0,1.92,.07,.89-.18,1.78,.21,2.67,.35,.81,.39,1.74,.72,2.58,.2,.52,.22,1.11,.3,1.52,.26,.73,.69,1.22,.75,1.88,.63,.38,.25,1.3,.89,1.67,.02,.68,.93,.95,.72,1.68,.22,.07,.35,.11,.48,.16v.51c.18,.17,.53,.1,.52,.5,0,.21,.15,.42,.19,.63,.05,.29,.61,.06,.49,.5,.42,.36,.46,1.04,.85,1.3,.52,.34,.61,.9,.98,1.28,.41,.43,.96,.79,1.23,1.3,.15,.29,.39,.29,.58,.52v.39c.65,.5,1.07,1.14,1.78,1.38,.27,.84,1.17,.82,1.75,1.24,.63,.45,1.35,.79,2.04,1.14,.66,.33,1.44,.42,2,.97,1.3-.14,2.33,.92,3.63,.73,.16,.19,.28,.35,.38,.47Zm47.1-42.74c-.64-.21-1.02-.39-1.42-.45-1.06-.17-2.09,.16-3.14,.23-.27,.4-.74,.13-1.07,.3-.43,.22-.87,.42-1.28,.66-.55,.33-1.09,.67-1.61,1.04-.62,.44-.86,1.24-1.57,1.6-.08,.04-.09,.19-.15,.28-.39,.6-.78,1.2-1.2,1.85,.1,.57-.08,1.14-.51,1.67,.21,1.16-.36,2.43,.51,3.56-.03,.46,0,.95,.24,1.41,.24,.46,.42,.95,.69,1.39,.26,.42,.65,.76,.91,1.19,.28,.46,.95,.5,1.11,1.11,.26,.01,.53,.03,.92,.05,.08,.12,.2,.33,.28,.45,.96,0,1.8,0,2.64,0,.96,.01,1.72-.46,2.55-.98h.63c.24-.24,.47-.47,.69-.69,.41-.11,.77-.29,1.11-.5,.51-.31,1.05-.6,1.51-.97,.32-.26,.53-.64,.78-.98,.1-.14,.16-.32,.28-.44,.31-.31,.79-.53,.85-.96,.08-.5,.5-.73,.65-1.16,.31-.85,.65-1.64,.75-2.58,.12-1.16,.23-1.14-.05-2.09-.13-.43-.22-.87-.33-1.33-.11-.04-.25-.09-.39-.14v-.47c-.53-.65-1.05-1.27-1.54-1.87h-.57c-.02-.12-.05-.23-.08-.37-.22-.07-.53-.08-.7-.24-.52-.51-1.12-.64-1.52-.59Z"/>
      <path d="M29.12,27.52c2.77,.54,5.5,.3,8.28-.02,.54-.56,1.31-.38,2.13-.42,.07-.11,.18-.27,.24-.35,1.21-.26,2.24-.64,3.23-1.18,.67-.36,1.35-.66,1.89-1.22,.49,.05,.68-.42,1.04-.61,.37-.19,.67-.5,1.03-.7,.39-.21,.8-.39,1.22-.53,.49-.17,.99-.36,1.5-.42,.76-.09,1.34,.26,1.68,.95,.34,.69,.64,1.42,.97,2.12,.22,.47,.59,.9,.69,1.39,.1,.52,.39,1,.3,1.58-.04,.23,.25,.52,.45,.88,.02,.56-.14,1.3,.49,1.84-.05,.81-.04,1.61,.41,2.34,.04,.06,.05,.14,.06,.22,.18,1.3,.43,5.61,.21,6.73-.14,.71-.12,1.49-.57,2.16-.19,.28-.12,.74-.17,1.11-.13,.04-.24,.06-.39,.1v.78c-.31,.74-.74,1.26-.7,1.75,.06,.72-.69,1.04-.61,1.69-.39,.22-.44,.65-.48,.99-.06,.47-.84,.45-.63,1.04-.39,.17-.51,.56-.74,.87-.24,.34-.34,.77-.79,1.01-.34,.17-.47,.71-.8,.94-.53,.38-.85,.89-1.16,1.43h-.48c-.23,.42-.46,.84-.67,1.23,.23,.23,.37,.37,.54,.54v2.42c-.92,1.35-2.25,2.14-4.01,2.37-.36,.35-.88,.41-1.43,.4-1.28-.02-2.56,0-3.84,0-.81,0-1.63,.07-2.42-.23-.82-.32-1.68-.26-2.58-.24-.13,.28-.26,.58-.41,.89-.12,.04-.26,.09-.4,.14v.44c-.64,.46-1.26,.91-1.74,1.25-.51,.22-.88,.38-1.41,.6h-3.04c-.48-.18-.88-.29-1.24-.47-.37-.18-.67-.53-1.05-.63-.43-.11-.48-.57-.88-.73-.34-.14-.72-.48-.78-.96-.45-.02-.46-.63-.9-.66,0-.16,0-.32,0-.48-.06-.04-.13-.12-.19-.12-1.24,0-2.48,0-3.72,0q-.7,0-1.5-.48c-.26,0-.54-.02-.82,0-.94,.09-1.8-.17-2.64-.57-.33-.16-.74-.15-1.16-.22-.11-.11-.25-.25-.29-.29-.51-.14-.93-.2-1.3-.37-.34-.16-.65-.41-.92-.66-.29-.26-.52-.58-.87-.98v-2.12c.1-.02,.2-.05,.39-.1,.03-.17,.06-.39,.1-.6,.14-.14,.29-.28,.43-.43,.02-.94,.12-1.26,.59-2.03,.06-.09,.15-.21,.14-.3-.1-.63,.4-1.04,.55-1.58,.06-.21,.16-.41,.29-.73,.01,0,.15-.05,.33-.1v-.57c.17-.06,.31-.11,.49-.17v-.61c.31-.5,.59-.94,.91-1.46,.04-.01,.17-.06,.31-.11v-.49c.52-.14,.56-.62,.81-1.01,1.08-.63,1.81-1.75,2.79-2.7,0-1.3-.02-2.7,.02-4.09,.01-.41-.21-.73-.26-1.1-.06-.45-.19-.89-.23-1.34-.04-.44,0-.88,0-1.32,0-.84,.01-1.68,0-2.52,0-.43,.03-.83,.24-1.22,.37-.72,.21-1.52,.25-2.31,.13-.03,.24-.05,.45-.09-.24-1.07,.72-1.8,.8-2.81,.15-.04,.26-.06,.36-.09,.27-1.58,1.69-2.32,2.49-3.52h.85c.38,.36,.72,.8,1.1,1.2,.34,.36,.57,.86,.86,1.29,.42,.63,.92,1.13,1.51,1.57,.19,.14,.28,.42,.46,.58,.16,.15,.47,.19,.55,.36,.2,.39,.59,.15,.83,.32,.03,.12,.06,.23,.09,.36,.57,.07,1.01,.42,1.5,.7,.42,.23,1.05,.12,1.4,.51Zm15.29,24.63c.44-.34,.82-.54,1.07-.84,.39-.46,.68-1,1.03-1.48,.31-.43,.76-.79,.97-1.26,.24-.54,.66-.92,1-1.36,.32-.42,.62-.85,.79-1.35,.65-.12,.53-.82,.84-1.21,.34-.42,.58-1.03,.75-1.59,.33-1.1,.63-2.22,.93-3.33,.23-.86,.52-1.78,.25-2.62-.19-.58-.18-1.17-.4-1.75-.23-.59-.19-1.28-.28-1.93-.01-.11-.05-.22-.1-.32-.31-.59-.41-1.22-.39-1.88,0-.21-.17-.42-.19-.63-.11-1.1-.82-1.98-1.12-3.02-.17-.59-.47-1.14-.72-1.72-.68,.52-1.29,1.03-1.94,1.49-.71,.5-1.43,.97-2.17,1.42-.76,.46-1.7,.57-2.38,1.21-.88-.1-1.52,.59-2.34,.73-.36,.06-.69,.26-1.23,.47h-1.8c-.09,.13-.23,.33-.34,.47h-5.57c-.88-.79-1.96-.32-2.91-.51-.15-.15-.29-.29-.43-.43-1.03,.06-1.86-.54-2.75-.89-.42-.16-.75-.62-1.23-.8-.81-.31-1.24-1.14-2.03-1.46-.07-.03-.05-.24-.12-.3-.54-.43-1.06-.86-1.54-1.42-.05,.97-1.01,1.57-.85,2.56-.16,.17-.32,.34-.48,.5-.03,.63,.05,1.23-.21,1.84-.16,.37,0,.87-.03,1.31-.17,2.17,.36,4.31,.24,6.44,.18,.18,.33,.33,.4,.4,.09,.45,.08,.87,.26,1.19,.28,.5,.35,1,.3,1.55-.37,.45-.83,.85-1.08,1.36-.26,.52-.77,.7-1.13,1.05-.4,.38-.57,.99-1.14,1.2v.5c-.89,.2-1.1,1.1-1.65,1.66,0,0,.05,.05,.07,.07h.57c.06-.17,.11-.31,.16-.45,.26,0,.57,.09,.73-.02,.87-.58,1.89-.67,2.84-.97,.29-.09,.56-.21,.87-.21,1.64,0,3.28,0,4.92,0,.22,0,.45,.07,.66,.14,.63,.22,1.25,.46,1.86,.68,.05,.13,.1,.26,.15,.38h.52c.06,.15,.12,.29,.18,.44h.77c.17-.17,.31-.31,.4-.39,1.47-.28,2.83-.81,4.31-.8,1.48,0,2.81,.57,4.23,.82,.05,.14,.09,.28,.14,.41h1.16c.15,.19,.36,.47,.54,.71,.23,.01,.38,.02,.52,.03,.06,.17,.11,.31,.16,.45h.39c.94,.68,1.83,1.27,2.65,1.95,.32,.27,.71,.48,.95,.83,.09,.13,.01,.37,.01,.69Zm-16.39,1.82c.91,.46,1.61,1.01,2.38,1.16,1.77,.34,3.37,1.39,5.32,1.23,.12,.15,.26,.34,.42,.53,1.05-.17,2.04,.13,3.04,.17,1.48,.06,2.98,.18,4.47-.29v-.72c-.21-.32-.4-.6-.58-.89-.66,.15-.06-.71-.62-.76-.23-.02-.44-.46-.62-.74-.2-.32-.61-.38-.81-.72-.16-.27-.48-.52-.78-.6-.45-.12-.59-.42-.68-.64-1.07-.62-2.03-1.19-3.13-1.83h-.61c-.11-.15-.26-.33-.3-.38-.56-.14-.96-.32-1.36-.32-1.73,0-3.47-.18-5.15,.58-.64,.29-1.46,.31-2.15-.05-1.15-.59-2.42-.54-3.63-.8-.65-.14-1.2,.25-1.82,.25-.85,0-1.2,.12-2.25,.65-.1,.05-.22,.07-.33,.06-.29-.02-.49,.09-.74,.26-.64,.44-1.35,.79-2.02,1.19-.36,.21-.68,.48-1.03,.69-.53,.33-.93,.8-1.36,1.24-.22,.23-.67,.07-.75,.58-.04,.24-.52,.4-.79,.6-.05,.03-.06,.11-.07,.11,.09,.21,.16,.38,.21,.49,.48,.2,.93,.39,1.35,.56,1.01,.18,2,.35,3.02,.3,.2-.01,.47,.27,.61,.21,1.11-.48,2.26-.09,3.39-.22,.68-.08,1.42-.04,2.04-.29,.6-.25,1.22-.32,1.81-.55,.59-.23,1.13-.56,1.79-.62,.16-.01,.3-.35,.38-.45h1.35Zm2.23,5.42c-.45-.55-.98-.9-1.64-.89-.04-.2-.06-.3-.09-.43h-1.54c-.06,.16-.11,.3-.17,.44-.28,.01-.55,.03-.78,.04-.18,.18-.32,.32-.46,.46-.56-.02-1.14-.06-1.56,.45,.76,.78,.92,.88,1.66,1.13,.04,.12,.07,.23,.1,.33h2.44c.16-.15,.33-.31,.5-.48h.35c.42-.38,.77-.69,1.18-1.06Z"/>
      <path d="M69.29,51.97c-.14,.19-.32,.43-.57,.76h-.92c-.18-.26-.37-.54-.6-.88,0-.56-.03-1.2,0-1.83,.04-.58-.13-1.05-.51-1.48-.27,.07-.54,.13-.88,.21-.57,.57-1.19,1.19-1.83,1.83h-.8c-.1-.14-.26-.37-.52-.73v-.83s.07,.02,.1,.03c.15-.5,.3-.99,.45-1.52,.09-.04,.34-.09,.34-.15,0-.39,.32-.53,.53-.74,.2-.21,.64-.33,.67-.54,.07-.57,.51-.2,.74-.37,.7-.5,1.54-.71,2.35-.98,.27-.09,.52-.13,.78-.14,.72-.01,1.44,.03,2.16-.01,.87-.05,1.55,.31,2.17,.85,.37,.32,.75,.63,1.16,.97,.11,.97,.73,2.04-.3,2.96h-1.32c-.01-.21-.02-.4-.03-.53-.81-.72-1.76-1.01-2.87-1.15v.98c0,.56,.04,1.12-.01,1.68-.05,.53-.19,1.04-.31,1.61Z"/>
      <path d="M36.77,43.35c-.4,.16-.88,.35-1.38,.55-.51-.07-.87-.59-1.44-.52-.06-.32-.4-.4-.54-.6-.2-.27-.31-.73-.25-1.07,.2-1.1,.39-2.24,1.71-2.63,.1-.03,.19-.13,.31-.21h1.02c.03,.13,.05,.24,.09,.43,.15,0,.34,.02,.53,.03,.56,.54,.7,1.3,.84,2,.14,.73-.31,1.36-.89,2.01Z"/>
      <path d="M28.55,39.91c.08,1.24,.14,2.46-1.44,3.02-.87-.01-1.95,.21-2.55-.77-.12-.52-.29-.96-.29-1.4,0-.44,.18-.87,.28-1.28,.17-.15,.34-.31,.65-.59,2.32-.64,2.2-.29,3.35,1.03Z"/>
    </g>
  </g>
</svg>
