<?xml version="1.0" encoding="UTF-8"?>
<svg id="Ebene_2" data-name="Ebene 2" xmlns="http://www.w3.org/2000/svg" width="30" height="30" viewBox="-37 -9 100 100">
  <g id="Ebene_1-2" data-name="Ebene 1">
    <g id="Integral">
      <path d="M15.8,78.67c-.16,.09-.39,.15-.47,.29-.35,.55-.9,.85-1.4,1.23-.49,.36-.96,.72-1.59,.79-.1,.01-.19,.14-.29,.15-1.32,.11-2.64,.21-3.94,.16-.53-.26-1.18-.41-1.54-.82-.43-.5-1.05-.67-1.48-1.12-.43-.44-.79-.99-1.42-1.2v-.52c-.54-.2-.54-.97-1.21-1.14v-.81c-.15-.03-.26-.05-.46-.09,.21-.84-.91-1.25-.74-2.14-.67-.5-.35-1.47-.95-2.01,.08-.86-.5-1.69-.23-2.53,.27-.84,.19-1.69,.22-2.41,.32-.69,.59-1.26,.96-2.03,0,0,0-.23,0-.41,.29-.61,1-.75,1.31-1.37h1c.04-.14,.08-.25,.14-.45,.42-.08,.89-.19,1.26,.12,.5-.09,.95-.16,1.38-.24,.69,.65,1.28,1.29,1.48,2.19,.11,.03,.22,.06,.31,.08,.26,.82,.79,1.52,1.04,2.34,.35,1.13,.69,2.27,1.1,3.38,.27,.74,.41,1.48,.3,2.31,.72,.12,.26,1.24,1.17,1.29v-5.25c-.09-.07-.28-.21-.44-.34,.18-2.16-.38-4.23-.24-6.32,0-.13-.26-.28-.4-.42-.23-1.12,.32-2.36-.53-3.44,0-.38,0-.82,0-1.26,0-.42,.04-.83-.22-1.23-.17-.27-.21-.64-.25-.97-.04-.35,0-.72,0-.99-.42-.77-.73-1.47-.73-2.31,0-.61-.02-1.27-.26-1.8-.2-.43-.22-.83-.19-1.24,.05-.67-.22-1.3-.23-1.94-.01-.67-.28-1.25-.42-1.87-.17-.76-.1-1.58-.07-2.37,.02-.57-.14-1.05-.49-1.57,0-.42-.09-.9-.2-1.38-.11-.49-.18-.95-.45-1.38-.09-.15-.07-.38-.07-.57,0-.76,0-1.52,0-2.31-.3-.46-.59-.97-.47-1.57,.1-.53-.13-.98-.25-1.46-.38-1.55-.53-3.12-.48-4.72,.04-1.44,0-2.88,.01-4.32,.02-1.16-.04-2.3-.47-3.41-.09-.24-.12-.63,0-.82,.35-.52,.14-1.07,.22-1.59,.39-2.32,.17-4.65,.25-6.98,.02-.51,.17-1.05,.4-1.5,.26-.51,.36-1,.28-1.51l.5-.5c0-.16,.03-.36,0-.54-.19-.91,.39-1.55,.85-2.16,.3-.39,.63-.75,.9-1.18,.27-.42,.63-.77,1.03-1.25,.66,.2,1.18-.53,1.92-.54,.14,0,.28-.26,.42-.4,.84-.09,1.68-.19,2.52-.28,.71-.08,1.33,.22,1.8,.41,.59-.09,1.04-.16,1.35-.21,.55,.39,.97,.74,1.44,.98,.73,.38,1.24,.92,1.76,1.56,.46,.56,.94,1.12,1.38,1.7,.53,.71,.62,1.58,.93,2.37,.14,.35-.14,.78,.16,1.13,.26,.3-.12,.81,.32,1.07,.04,.02,0,.15,0,.23,0,.54,.04,1.05,.2,1.59,.13,.43,.23,1.01-.14,1.47-.08,.1-.07,.31-.05,.45,.15,.92-.2,1.74-.51,2.55-.21,.55-.56,1.04-.74,1.67h-.54c-.3,.31-.57,.61-.86,.88-.26,.24-.54,.45-.97,.8h-.9c-.04-.14-.06-.25-.1-.4h-1.02c-.3-.94-1.08-.71-1.73-.76,.1-.49-.59-.36-.6-.85,0-.32-.39-.64-.67-1.06v-.55c-.19-.22-.36-.42-.59-.69,.17-.27,.32-.52,.57-.93-.03,.11,0,.03,0-.04,0-.96,0-1.92,0-2.88,0-1.29-.11-2.59,.35-3.83-.29-.28-.51-.5-.71-.69-.64-.03-.98,.38-1.31,.77-.27,.32-.59,.65-.68,1.03-.1,.39-.77,.43-.52,.97q-.72,1.4-.72,3.14c-.14,.1-.34,.24-.47,.34v6.34c.15,.16,.32,.33,.47,.5,0,.77,.05,1.53-.01,2.29-.14,1.78,.25,3.53,.27,5.3,0,.35,.24,.69,.41,1.03,.13,.81-.18,1.72,.53,2.41,.06,.62-.03,1.22,.21,1.84,.2,.5,.11,1.12,.24,1.69,.22,1.01,.23,2.08,.27,3.13,.02,.55,.04,1.08,.48,1.49,.05,.71-.16,1.48,.41,2.1,.09,.09,.08,.29,.08,.44-.01,1.41,.49,2.79,.16,4.22,.21,.05,.32,.08,.53,.13,0,.41,.02,.87,.03,1.34,.02,.73-.14,1.49,.47,2.09-.03,.54,.36,1,.27,1.58-.08,.52-.09,1.09,.22,1.58,.27,.42,.15,.9,.26,1.34,.28,1.12,.03,2.29,.26,3.37,.29,1.38,.09,2.74,.2,4.11,.04,.49,.15,.98,.24,1.46,.09,.49-.22,1.01,.22,1.48,.12,.13,.02,.46,.02,.7,0,1.08-.16,2.19,.04,3.23,.24,1.26,.16,2.5,.19,3.75,.03,1.24-.02,2.48,.02,3.72,.04,1.16-.38,2.14-1.03,3.06-.12,.18-.16,.41-.27,.7Z"/>
    </g>
  </g>
</svg>
