<?xml version="1.0" encoding="UTF-8"?>
<svg id="Ebene_1" data-name="Ebene 1" xmlns="http://www.w3.org/2000/svg" width="100" height="100" viewBox="0 0 100 100">
  <path d="M73.48,63.59c-.15,.14-.31,.28-.63,.58-.08,.82-.03,1.79-.01,2.72,.23,.26,.45,.5,.75,.85-.18,.34-.37,.7-.71,1.34v7.48c-.54,.9-1.02,1.7-1.54,2.57h-8.77c-.27,.27-.43,.43-.64,.64-.21-.17-.43-.35-.72-.58h-3.26c-.28,.21-.62,.45-.9,.66-.29-.1-.51-.14-.67-.25-.18-.12-.31-.31-.44-.45h-9.98c-.16-.16-.31-.31-.47-.47-.08-.06-.17-.18-.25-.18-5.74,0-11.47,0-17.17,0-.35-.35-.66-.66-.98-.98v-8.59c-.16-.17-.31-.33-.46-.49-.07-.19-.2-.37-.2-.57-.02-.77,0-1.54,0-2.3,.17-.17,.33-.33,.48-.48,.06-.09,.17-.17,.17-.26,0-10.6,0-21.19,0-31.72,.27-.31,.48-.55,.78-.89-.19-.34-.39-.7-.72-1.3v-3.07c.18-.26,.41-.6,.67-.98-.26-.46-.5-.91-.82-1.49,.23-.3,.48-.63,.76-1v-2.58c.31-.31,.63-.63,.97-.97h5.92c.25-.23,.49-.45,.75-.68h2.63c.23,.21,.46,.42,.7,.63,.16-.16,.31-.31,.47-.47,.62-.32,1.28-.11,2.02-.18,.19,.14,.44,.33,.81,.61h1.38c.19-.19,.35-.35,.53-.53h2.79c.23,.23,.38,.38,.57,.57h7.3c.19-.18,.43-.39,.67-.61,.23,.2,.46,.41,.68,.61,.24-.22,.48-.43,.71-.63,.66,.04,1.39-.22,1.84,.6h5.38c.11-.09,.36-.29,.69-.55h1.3c.16,.13,.4,.34,.69,.59h1.3c.19-.18,.43-.39,.69-.63h2.71c.41,.43,.92,.86,1.3,1.39,.36,.49,.57,1.09,.95,1.83V63.59Zm-34.24,6.29c1.61,1.32,3.37,.23,4.8,.77,.27,.2,.48,.35,.66,.49,.27-.27,.43-.43,.58-.58,.23,.21,.47,.42,.69,.62,.24-.22,.48-.43,.67-.6h1.96c.3,.25,.54,.46,.69,.58h1.81c.57-.33,.92-.53,1.27-.73,.35,.3,.59,.5,.85,.73,.71,.04,1.46,.21,2.17-.11,.17-.17,.33-.33,.5-.5,.76,0,1.53-.01,2.3,0,.19,0,.38,.14,.57,.2,.16,.15,.32,.29,.43,.39,.35-.25,.68-.48,.96-.68,.48,.27,.81,.45,1.15,.64,.16-.16,.31-.31,.59-.59h2.75c.16-1.12,1.29-1.87,.79-2.99-.23-.29-.43-.53-.53-.65v-4.68c.22-.22,.37-.37,.52-.52v-4.14c-.24-.24-.39-.39-.55-.55-.01-.21-.02-.43-.03-.66,.22-.23,.44-.47,.66-.71v-5.28c-.23-.25-.45-.49-.64-.69v-1.3c.25-.29,.46-.53,.6-.69v-3.34c-.2-.2-.36-.36-.51-.51-.15-.75-.34-1.51,.47-2.02v-12.78c-.17-.11-.25-.21-.34-.22-2.64,0-5.28,0-7.82,0-.32,.26-.54,.44-.76,.62-.21-.21-.37-.37-.54-.54h-7.37c-.33,.24-.53,.39-.72,.53-.27-.27-.43-.43-.59-.59h-9.27c-.23,.21-.47,.44-.71,.65-.66,.27-.9-.42-1.54-.66-.25,1.07,.07,2.18-.15,3.07-.29,.28-.45,.43-.6,.57v5.9c.29,.38,.53,.71,.8,1.07-.32,.44-.56,.78-.9,1.24,.17,.56,.36,1.22,.57,1.92-.09,.09-.25,.25-.4,.4v27.35c.88,.76,1.17-.26,1.72-.42h2.41Z"/>
</svg>