<?xml version="1.0" encoding="UTF-8"?>
<svg id="Ebene_1" data-name="Ebene 1" xmlns="http://www.w3.org/2000/svg" width="100" height="100" viewBox="0 0 100 100">
  <path d="M35.82,68.34c-.01-.22-.03-.43-.04-.71-.43-.2-.88-.42-1.32-.62v-.7c-.47-.47-.88-1.01-1.42-1.38-.6-.42-.45-1.17-.91-1.63-.37-.37-.87-.79-.94-1.25-.1-.66-1.01-.93-.71-1.7-.66-.4-.64-1.04-.7-1.71-.04-.48-.66-.98-.58-1.37,.22-.99-.94-1.42-.74-2.39,.15-.74,.03-1.54,.03-2.31v-5.48c.26-.26,.42-.42,.58-.58,.03-.21,.08-.42,.08-.63,.01-.55-.08-1.12,.03-1.65,.1-.49,.5-.91,.62-1.39,.12-.5-.12-1.09,.44-1.48,.46-.32,.07-1.11,.71-1.36,.26-1.28,1.54-1.96,1.88-3.2,.11-.39,.3-.76,.44-1.08,2.53-2.53,5.03-5.03,7.53-7.53,.89,.16,1.4-1.07,2.36-.67,.69-.53,1.47-.78,2.34-.75,.46-1.02,1.67-.2,2.27-.93,.57-.7,1.83,.17,2.26-.96h1.97c.25-.23,.48-.45,.73-.68h5.29c.16-.16,.31-.31,.47-.47,.19-.06,.39-.18,.58-.18,.99-.02,1.98,0,2.93,0,.19,.19,.35,.35,.6,.6,.19-.15,.4-.3,.72-.54h1.97c.13,.11,.37,.31,.63,.51,.31-.2,.63-.41,1.08-.69,.34,.25,.67,.5,1.04,.79h1.92c.54,.55,1.08,1.09,1.64,1.66v6.62c-.52,.27-1.06,.55-1.85,.96h-6.43c-.35-.11-.56-.87-1.29-.6-.2,.18-.44,.4-.68,.62-.23-.2-.46-.41-.69-.62-.16,.16-.31,.31-.47,.47-.09,.06-.17,.16-.26,.16-1.98,0-3.96,0-5.87,0-.22,.22-.37,.37-.6,.6h-3.08c-.45,.29-.8,.52-1.16,.73-.27,.15-.63,.18-.82,.39-.37,.39-.82,.17-1.21,.3-.48,.15-.91,.55-1.39,.62-1.02,.14-1.22,1.6-2.4,1.41-.54,.77-1.69,1.11-1.64,2.3-.98,.72-1.33,1.87-1.95,2.83,.53,1-.78,1.47-.7,2.38,.02,.22-.4,.48-.63,.74v4.63c-.15,.14-.31,.29-.47,.45-.38,.72-.15,1.49-.16,2.19,.22,.27,.64,.58,.6,.76-.3,1.16,.85,1.91,.76,3.05-.04,.49,.46,1.15,.79,1.62,.67,.94,1.55,1.69,2.12,2.77,.49,.93,1.5,1.6,2.28,2.37,.15,.15,.35,.38,.5,.36,1.08-.11,1.2,1.26,2.1,1.33,.91,.07,1.15,.94,1.78,1.34h1.95c.25,.23,.49,.45,.74,.68h3.24c.27,.23,.49,.41,.72,.6,.2-.2,.36-.36,.56-.56h4.76c.22,.22,.37,.37,.56,.56,.22-.19,.45-.38,.69-.59,.22,.2,.45,.41,.69,.63h7.94c.31,.31,.62,.62,.96,.97v5.3c-.25,.49-1.12,.72-.47,1.68h-9.1c-.27,.27-.43,.43-.63,.63h-6.69c-.34-.1-.54-.86-1.28-.6-.2,.18-.44,.4-.7,.63h-1.96c-.23-.21-.47-.43-.72-.66h-1.94c-.25-.22-.48-.42-.71-.62-.18,.18-.34,.34-.49,.49-.08,.01-.2,.07-.23,.03-.63-.62-1.25-1.24-1.62-1.61-.86-.41-1.41-.67-1.96-.94-.46-.22-.95-.39-1.37-.68-.53-.36-.94-.99-1.5-1.17-.65-.21-1.23-.45-1.56-1-.35-.57-1-.31-1.38-.69-.47-.47-.94-.94-1.4-1.4Z"/>
</svg>