<?xml version="1.0" encoding="UTF-8"?>
<svg id="Ebene_1" data-name="Ebene 1" xmlns="http://www.w3.org/2000/svg" width="100" height="100" viewBox="0 0 100 100">
  <g id="Ebene_1-2" data-name="Ebene 1-2">
    <g id="Joscco_4" data-name="Joscco 4">
      <path d="M37.54,57.65c.08,.02,.15,.02,.26,.04,.2,.43,.15,1.02,.62,1.36v.52c.42,.57,1.06,.93,1.4,1.6,.42-.13,.48,.43,.82,.5,.43,.77,1.03,1.37,1.8,1.8,.41,.22,.52,.76,.97,.96-.02,.39,.55,.25,.55,.59,0,.42,.43,.22,.58,.49,.11,.21,.47,.31,.73,.4,.65,.22,1.09,.72,1.43,1.08,.51,.17,.89,.29,1.26,.42,0,.02-.02,.05-.02,.08,.56,0,1.11-.03,1.67,0,.49,.04,.99,.15,1.54,.25,.42,.45,1.06,.25,1.66,.32,.02,.1,.04,.19,.07,.32,.49,.08,.96,.05,1.36-.34h1.13c.04-.1,.07-.21,.12-.33,.64-.08,1.3-.09,1.93-.25,.46-.12,.99-.16,1.28-.7,.12-.21,.49-.38,.75-.37,.81,.02,1.34-.48,1.92-.9,.03-.02,.02-.11,.04-.2h.74c.55-.42,1.04-.81,1.67-1.3h.96l.3-.3v-.58c.1-.03,.21-.07,.35-.12v-.39c.5-.23,.97-.44,1.38-.63,.22,.07,.41,.13,.62,.2,.21,.56,.79,.85,1.16,1.34v.35c.45,.2,.62,.67,.96,.99,.35,.32,.6,.73,.91,1.13v.35c.09,.02,.18,.04,.27,.05,.15,.51,.29,.7,.76,1.13,.12,.11,.19,.29,.27,.44,.19,.32,.36,.65,.52,.93-.19,.39-.35,.76-.54,1.11-.28,.53-.56,1.06-.88,1.58-.14,.22-.35,.44-.7,.32-.15,.15-.27,.36-.45,.45-.22,.12-.06,.49-.42,.51-.12,0-.22,.31-.36,.53-.39-.08-.67,.17-1.02,.33-.3,.14-.62,.33-.94,.39-.41,.07-.72,.23-1.03,.56h-.79c-.04,.11-.06,.19-.09,.29-.21,.1-.51,.16-.64,.34-.13,.19-.34,.29-.44,.45-.34,.54-.86,.82-1.47,1.17-.47,.05-1.11-.15-1.6,.38-.55-.06-1.05,.05-1.45,.52h-.64c-.34,.17-.62,.32-.87,.44-.12,.19-.23,.35-.32,.51h-1.46c-.19-.11-.42-.22-.66-.36-.02,.09-.04,.17-.08,.32-.41,.08-.86,0-1.32,.04-.32,.24-.66,.48-1.01,.73-.49,0-1.03,0-1.54,0-.2,0-.42,.07-.6-.12-.07-.08-.29-.05-.42-.02-.17,.03-.32,.13-.49,.15-.35,.04-.69,.02-1.04,.17-.43,.19-1.18-.08-1.66-.41-.22-.15-.44-.29-.76-.49-.58-.02-1.3,.09-1.94-.34-.13-.08-.43,.08-.68,.13-.18-.06-.39-.14-.7-.25-.09-.09-.27-.27-.45-.45h-1.26c-1.36-1.28-1.41-1.13-3.02-1.12-.29-.32-.61-.67-.99-1.09-.02,0-.16-.02-.33-.04-.02-.08-.03-.16-.05-.28-.35-.15-.86-.08-.99-.62-.69-.29-1.2-.82-1.8-1.25-.12-.08-.33,0-.36-.3-.03-.29-.37-.33-.64-.33-.36-.33-.66-.71-1.2-1.09-.12-.24-.26-.67-.72-.93-.25-.15-.39-.46-.56-.72-.16-.24-.29-.5-.46-.73-.16-.22-.52-.24-.58-.57-.37,.06-.35-.32-.42-.47-.35-.76-.78-1.48-1.26-2.16-.08-.11-.06-.29-.08-.44-.45-.13-.69-.5-.89-1v-1.23c-.1-.03-.21-.06-.34-.1v-.73c-.12-.23-.35-.15-.44-.44-.27-.85-.71-1.62-.74-2.58-.02-.56-.25-1.16-.51-1.72-.25-.56-.27-1.14-.1-1.73,.06-.19,.16-.48,.08-.59-.25-.34-.15-.7-.16-1.05-.02-.86,0-1.73,0-2.59,0-.53-.1-1.08,.3-1.54,.08-.09,.06-.29,.06-.43,0-.59,0-1.17,0-1.76,0-.66,.16-1.27,.32-1.9,.07-.27-.02-.58-.05-.86-.02-.21-.13-.43-.08-.61,.25-.73,.32-1.53,.69-2.21,.34-.62,.62-1.25,.59-1.97,.39-.32,.03-.81,.31-1.17,.23-.29,.39-.64,.63-1.06v-1.08c.12-.02,.2-.04,.32-.07v-.39c.16-.13,.32-.2,.4-.32,.25-.39,.44-.82,.74-1.16,.35-.41,.32-.99,.74-1.37,.32-.3,.69-.59,.93-.97,.16-.26,.45-.45,.42-.85-.02-.2,.25-.45,.43-.64,.4-.44,.9-.79,1.04-1.42,.49-.17,.58-.67,.83-1.03,.05-.06,.05-.16,.08-.29h.35c.43-.39,.8-.72,1.26-1.14,0,0,.02-.15,.02-.23,.17-.16,.3-.28,.52-.49h.45c.49-.54,1.16-.76,1.63-1.3h.49c.02-.17,.02-.32,.04-.47,.03-.03,.06-.09,.11-.12,.43-.15,.82-.45,1.31-.41,.15-.38,.61-.24,.82-.47,.18-.19,.36-.39,.53-.59,.05-.06,.09-.19,.13-.19,.46,0,.76-.27,1.08-.55,.08-.08,.29-.02,.42-.03,.03-.13,.05-.22,.08-.33,.45,.06,.88-.54,1.35-.03,.19-.19,.37-.37,.55-.55h1.49c.1-.11,.21-.22,.29-.29,.47-.09,.93-.12,1.33-.27,.76-.31,1.53-.41,2.31-.35,.04-.15,.06-.23,.08-.32,.05-.02,.11-.06,.15-.06,1.11,0,2.22-.05,3.33,.02,.56,.03,1.04-.25,1.59-.21,.27-.32,.62-.13,.87-.17,.8,.5,1.86,.4,2.41,1.3,.47-.07,.96,.12,1.4-.19,.07-.05,.28-.02,.34,.04,.27,.28,.59,.06,.93,.16,.02,.07,.05,.17,.08,.28,.93,.09,1.57,.42,1.9,.98h.68c.77,.55,1.65,.79,2.38,1.3,.71,.49,1.46,.93,2.22,1.4v.35c.42,.25,.82,.5,1.29,.78,.02,.05,.05,.15,.09,.25h.37c.25,.3,.49,.59,.72,.89,.23,.3,.45,.62,.69,.96,0,.08,0,.2,.02,.29,.32,.19,.62,.38,.96,.59-.15,.42-.32,.84-.51,1.36-.19,.19-.46,.45-.72,.72-.21,.22-.39,.45-.66,.77,0,.02-.02,.16-.04,.32-.08,.02-.17,.04-.3,.06v.59c-.35,.32-.66,.61-.83,.76-.35,.9-.7,1.57-1.33,2.14-.09,0-.23,.02-.38,.02-.11,.11-.22,.22-.32,.32-.39,0-.8,.08-1.17-.02-.46-.12-.91-.35-1.33-.58-.41-.22-.78-.51-1.16-.78-.31-.22-.57-.56-.92-.69-.35-.14-.53-.62-1-.49-.22-.47-.72-.6-1.11-.91h-1.77c-.31-.21-.57-.39-.71-.49-1.01-.15-1.88-.28-2.88-.42-.12,.06-.34,.18-.62,.32-.72,.03-1.47,.32-2.27,.21-.05,0-.11,.04-.16,.05-.26,.1-.52,.25-.8,.3-.3,.05-.62,.02-1.03,.02-.05-.09-.15-.25-.21-.36-.62-.04-.9,.32-1.29,.7h-.66c-.51,.43-1.07,.65-1.63,.82-.13,.25-.25,.44-.35,.66-.12,.29-.3,.49-.62,.59-.79,.25-1.49,.67-2.07,1.29h-.52c-.36,.22-.47,.67-.86,.83v.3c-.26,.35-.49,.66-.72,.97-.39,.57-.97,1.02-1.17,1.72-.03,.1-.15,.22-.25,.25-.59,.25-.77,.81-1.01,1.33-.17,.36-.38,.71-.59,1.1,.58,.43,.08,.89-.08,1.24-.23,.49-.42,1-.62,1.5-.1,.24-.14,.57-.52,.61-.02,.14-.03,.29-.05,.43-.11,.11-.22,.22-.34,.34,0,.08-.02,.17,0,.26,.02,1.03-.32,2.04-.19,3.07,0,.08-.02,.18-.05,.25-.1,.21-.26,.4-.3,.61-.05,.33-.02,.67-.02,1,.35,.32,.39,.72,.37,1.16-.05,.99,.15,1.93,.48,2.85,.09,.25,.07,.53,.11,.86l-.08,.02Z" style="fill: #010101;"/>
    </g>
  </g>
</svg>