<?xml version="1.0" encoding="UTF-8"?>
<svg id="Ebene_1" data-name="Ebene 1" xmlns="http://www.w3.org/2000/svg" width="100" height="100" viewBox="0 0 100 100">
  <g id="smiley">
    <path d="M41.34,18.43h2.64c.25-.23,.49-.45,.73-.68h1.3c.25-.23,.49-.45,.74-.68h5.93c.18-.18,.33-.33,.57-.57h1.48c.16,.16,.32,.32,.53,.53h5.75c1.11,.57,1.95,1.47,3.21,1.38l2.18,1.14c.41,.7,1.27,.71,1.84,1.17v.75c.36,.12,.74,.25,1.13,.38,.94,.94,1.87,1.88,2.81,2.81,.62,.62,1.26,1.24,1.86,1.88,.12,.13,.06,.44,.18,.58,1.17,1.35,1.88,2.96,2.64,4.54,.31,.65,.48,1.44,.97,1.9,.71,.67-.04,1.71,.87,2.35,.51,.36-.16,1.53,.74,1.98,.04,.65,.07,1.3,.11,2.04,.15,.17,.36,.42,.61,.69v3.91c.23,.25,.45,.49,.68,.73v5.96c-.15,.15-.31,.31-.62,.61-.12,2.13,.03,4.43-.08,6.72-.16,.16-.31,.31-.55,.55v1.73c-.73,1.06-.87,2.35-2.1,2.88,.49,1.14-.72,1.78-.63,2.76-1.24,.91-1.64,2.46-2.78,3.51-2.36,2.16-4.56,4.5-6.83,6.77h-.67c-.85,.86-1.71,1.72-2.39,2.42-1.68,.81-3.14,1.54-4.63,2.21-.27,.12-.64,.02-.93,.02-.43,.43-.82,.82-1.27,1.27-.21-.17-.43-.34-.7-.55-.2,.17-.43,.36-.69,.59h-2.59c-.25,.23-.49,.45-.73,.68h-3.29c-.24-.22-.47-.43-.69-.63-.26,.23-.51,.44-.85,.74-.34-.19-.7-.39-1.3-.72h-1.57c-.44-.28-.83-.73-1.13-.68-.86,.14-1.36-.6-2.06-.67-.67-.07-1.3-.05-1.71-.7-.87,.32-1.16-1.01-2.03-.71-.54-.66-1.37-.78-2.07-1.16-.16,.16-.31,.31-.56,.56-1.07-1.5-2.64-2.31-4.28-2.99-.79-.33-1.48-.76-2.08-1.4-.97-1.06-1.96-2.11-3.05-3.04-1-.86-1.76-1.93-2.1-3.11-.27-.92-1.39-1.11-1.39-2.08,0-.66-.95-.94-.67-1.71,.27-.75-.75-1-.69-1.72,.02-.25-.31-.53-.58-.95v-1.76c-.22-.27-.43-.52-.68-.83v-1.88c-.23-.26-.44-.5-.68-.77v-11.25c.2-.21,.42-.45,.65-.69v-3.95c.23-.25,.45-.49,.66-.71,0-.24,0-.47,0-.69,0-.22-.05-.57,.05-.62,.99-.5,.37-1.6,.9-2.3,.87-1.16,1.09-2.74,2.36-3.65,.13-1.27,1.18-2.16,1.41-3.39,1.25-1.25,2.5-2.5,3.75-3.75,.39-.39,.79-.76,1.18-1.14,1.18,.24,1.3-1.47,2.43-1.33,.81-.85,1.8-1.56,2.84-1.92,1.08-.38,2.01-1.01,3.06-1.42,1.08-.41,1.58-1.74,2.85-1.95Zm34.18,33.47v-6.61c-.22-.24-.45-.48-.68-.72v-3.69c-.29-.59-.47-.96-.65-1.33-.31-.65-.69-1.22-.73-2.04-.03-.64-.64-1.26-.97-1.89-.33-.63-.64-1.28-.95-1.92-.22-.46-.44-.92-.66-1.38-.26-.55-.53-1.1-.89-1.85-.69-.69-1.55-1.55-2.42-2.42v-.6c-.8-.8-1.58-1.58-2.12-2.12-2.1-1.05-3.92-1.97-5.98-3h-4.62c-.69-.34-1.05-.53-1.39-.7-.34,.31-.58,.53-.84,.77-1.95,0-3.94,0-5.92,0-.08,0-.16,.13-.24,.21-.16,.15-.32,.3-.48,.46h-3.06c-.74,.38-1.31,.63-1.83,.95-.53,.33-.79,.93-1.55,1.09-.55,.12-.97,.81-1.47,1.23-.07,.06-.23-.01-.31,.04-.8,.46-1.72,.7-2.44,1.31-.06,.05-.21,0-.32,0-.1,0-.21,.03-.48,.08-1.22,1.22-2.54,2.55-3.9,3.91-.14,.01-.35,.03-.57,.04-.44,.46-.22,1.29-.93,1.6-.78,.35-.63,1.29-1.13,1.87-.37,.43-.73,1.09-.81,1.61-.14,.92-.92,1.18-1.33,1.78-.04,.74-.08,1.48-.11,2.1-.27,.27-.43,.43-.59,.59v2.63c-.23,.25-.45,.49-.68,.74v1.94c-.24,.26-.45,.5-.65,.72-.1,.82,.12,1.5,.7,2.12v7.82c.2,.2,.5,.37,.49,.51-.15,1.12,.83,1.9,.83,2.99,0,.46,.49,.9,.6,1.39,.12,.51,0,1,.42,1.5,.45,.52,.68,1.25,.92,1.92,.31,.89,1.18,1.25,1.69,1.95,.43,.59,.55,1.32,1.15,1.86,1.23,1.09,2.35,2.31,3.28,3.24,1.93,.74,3.36,1.78,5,2.35,.44,.65,1.45,.4,1.84,1.16,.9-.17,1.37,.9,2.38,.73,.6-.1,1.19,.7,2.03,.65,.55-.04,.95,.69,1.71,.64,1.74-.1,3.5-.03,5.12-.03,.28-.28,.43-.43,.7-.7h3.05c.89-.47,1.43-.77,1.98-1.05,.64-.31,1.27-.68,1.95-.88,.69-.21,.92-1.06,1.49-1.18,.83-.17,1.27-.73,1.83-1.21,.47-.41,1.19-.33,1.62-.92,.45-.62,1.06-1.12,1.62-1.65,.48-.45,.99-.86,1.17-1.02,.21-.72,.3-1.02,.38-1.28,.3-.02,.51-.04,.87-.06,.48-.58,1.1-1.19,1.56-1.9,.45-.68,.58-1.59,1.15-2.15,.57-.55,.79-1.23,1.13-1.87,.38-.72,.68-1.48,1.06-2.21,.38-.73,.81-1.44,1.3-2.31,.07-1.65-.04-3.5,.05-5.18,.32-.32,.48-.48,.63-.63Z"/>
    <path d="M61.69,52.89c-.52-.91-.92-1.63-1.42-2.49v-1.79c-.22-.24-.44-.48-.65-.71,.32-.32,.63-.63,.96-.96h1.35c1.28,1.31,2.59,2.65,3.86,3.95h2.05c.48,.46,.96,.91,1.3,1.24,.45,.14,.75,.23,1.04,.31v2.17c-.26,.21-.61,.48-1.12,.88h-1.7c-.27,.23-.51,.43-.79,.66-.21-.18-.44-.38-.7-.61-.75,.78-1.51,1.57-2.3,2.4,0,.03,.04,.16,0,.25-.21,.47-.49,.91-.65,1.39-.3,.92-1.5,1.26-1.46,2.38-1.17,1.17-2.34,2.34-3.24,3.24-.88,.42-1.41,.77-1.99,.92-.61,.16-.94,.94-1.71,.69-.65-.21-.9,.48-1.38,.66-.57,.21-1.14,.46-1.72,.7-.26-.23-.5-.44-.79-.68h-2.63c-.2,.19-.44,.41-.62,.58-.73-.42-1.45-.83-2.21-1.26h-3.03c-1.28-1.32-3.05-1.94-5.09-2.98-1.55-1.55-3.42-3.42-5.3-5.31v-1.97c-.81-.48-.68-1.51-1.3-2.14-.22-.22-.03-.83-.03-1.34-.34-.09-.64-.16-.91-.23-.28,.26-.52,.48-.75,.7h-1.32c-.28-.55-.57-1.1-.86-1.68,.19-.34,.44-.77,.85-1.5,.5-.23,1.34-.61,2.19-1,.05-.17,.08-.37,.16-.56,.08-.19,.2-.36,.31-.55h.68c.83-.86,1.67-1.73,2.51-2.6h2.91c.4,.78,.18,1.55,.18,2.29-.86,.86-1.72,1.72-2.59,2.59,.21,.23,.42,.46,.64,.7v1.76c.28,.54,.45,.91,.67,1.27,.48,.79,.68,1.73,1.43,2.4,.79,.7,.95,1.88,1.88,2.54,.52,.37,1.22,.3,1.63,.91,.36,.54,.87,.98,1.26,1.4,1.09-.13,1.38,.75,2.12,1.3h1.95l.63,.63h1.91c.26,.23,.51,.44,.79,.68h1.3c.2-.19,.44-.41,.67-.62,.65-.21,.98,.25,1.28,.57,.68-.4,1.38-.69,1.9-1.17,.49-.44,1.03-.67,1.61-.94,.64-.31,.9-1.23,1.85-1.18,.22,.01,.48-.42,.7-.67,.42-.47,.27-1.27,.94-1.6,.67-.32,.5-1.18,.96-1.58,.52-.46,.3-1.22,.89-1.66,.23-.18,.05-.83,.18-1.22,.13-.38,.43-.7,.74-1.19Z"/>
    <path d="M46.28,46.26h-1.99c-.62-.31-1.25-.64-1.91-.97v-2.63c.94-.31,1.66-1.26,3.1-.99,.36,.5,.87,1.19,1.46,2.02-.23,.6-.8,1.39-.67,2.57Z"/>
    <path d="M55.63,47.26c-.3,.3-.62,.6-1.04,1.01-.41-.05-1.08,.07-1.39-.21-.43-.39-.95-.4-1.35-.6-.31-.7-.59-1.35-.87-1.98,.51-1.23,1.84-1.23,2.69-1.88,1.35,.23,1.13,1.72,1.96,2.34v1.33Z"/>
  </g>
</svg>