<?xml version="1.0" encoding="UTF-8"?>
<svg id="Ebene_1" data-name="Ebene 1" xmlns="http://www.w3.org/2000/svg" width="100" height="100" viewBox="0 0 100 100">
  <path d="M58.92,21.49h4.66c.23,.21,.47,.43,.71,.65,.33,0,.66,0,.99,0,3.32,1.91,3.7,2.45,5.92,5.63v1.95c.23,.25,.45,.49,.67,.72v3.29c-.23,.26-.45,.5-.62,.68-.22,2.85-2.11,4.31-4.39,5.59h-2.56c-1.03-.7-1.77-1.72-2.35-3.38v-5.49c.72-.83,.88-2.09,1.98-2.67-.53-.59-1.12-.24-1.75-.38-.56,.59-1.12,1.28-1.78,1.86-.58,.52-.4,1.46-1.13,1.86,.49,1.08-.7,1.71-.7,2.71,0,.92-.84,1.65-.67,2.72,.12,.8-1.04,1.4-.62,2.37-.57,.57-.8,1.25-.66,2.06-.22,.23-.44,.47-.67,.72v1.31c-.16,.16-.31,.31-.62,.62-.02,.37-.05,.89-.08,1.39-.23,.26-.44,.5-.62,.72,0,1.04,0,2.04,0,3.03-.39,.72-.79,1.45-1.29,2.38v2.38c-.23,.26-.44,.5-.68,.78v1.27c-.23,.25-.45,.49-.68,.73v1.97l-.59,.59v2.24c-.39,.86-.6,1.22-.72,1.61-.09,.3,.04,.84-.12,.92-1.06,.57-.06,2.03-1.15,2.53,.23,.85-1,1.18-.72,2.02,.26,.78-.64,1.05-.69,1.72-.06,.71-.62,1.24-.73,2.04-.11,.84-.57,1.79-1.37,2.4-.26,.2-.46,.65-.71,.67-1.11,.05-1.46,1.27-2.38,1.48-.49,.11-.7,.5-1.07,.63-.39,.14-.86,.03-1.28,.03-.27,.25-.51,.47-.75,.7-.65,0-1.32,0-1.98,0-.16-.16-.31-.31-.59-.59h-2.24c-.85-.39-1.26-.52-1.59-.75-.68-.48-1.62-.54-2.13-1.25-.42-.58-.93-1.21-1.03-1.88-.13-.93-.92-1.18-1.35-1.82v-1.27c-.23-.25-.45-.49-.69-.74v-3.97c.15-.14,.31-.29,.58-.54v-2.68c1.05-1.05,1.99-1.99,2.97-2.97,.94,.09,1.74-.47,2.62-.81,.26,.22,.51,.43,.8,.68h1.28c.51,1,1.02,1.99,1.66,3.23v4.38c-.78,1.21-1.87,3.51-1.89,4.07,0,.08,.15,.16,.25,.26,.23-.2,.46-.41,.71-.63h1.3c.74-1.35,1.3-2.8,2.14-4.08,.43-.65-.22-1.59,.67-2.06,.13-.07,.23-.41,.17-.57-.31-.96,.88-1.45,.7-2.39-.08-.41-.11-1.12,.1-1.24,.97-.56,.14-1.74,.91-2.31,.54-.41,.2-1.02,.32-1.59,.17-.19,.39-.43,.63-.7v-1.94c.16-.17,.31-.33,.64-.69,.12-.74-.03-1.73,.05-2.69,.16-.16,.31-.31,.59-.59v-2.65l1.34-1.34v-1.9c.23-.27,.43-.51,.68-.8v-1.91c.23-.25,.45-.49,.68-.75v-1.95c.23-.25,.45-.49,.68-.74v-1.25c.24-.28,.67-.62,.61-.77-.4-1.1,.64-1.75,.76-2.71,.11-.87,.46-1.81,1.22-2.46-.27-.78,.77-1.03,.7-1.69-.07-.71,.33-1.16,.62-1.74,.46-.93,.71-1.96,1.5-2.69,.7-.64,1.21-1.47,2.29-1.7,.45-.09,.73-.9,1.2-1.08,.51-.19,1.02-.28,1.34-.76Z"/>
</svg>