<?xml version="1.0" encoding="UTF-8"?>
<svg id="Ebene_1" data-name="Ebene 1" xmlns="http://www.w3.org/2000/svg" width="100" height="100" viewBox="0 0 100 100">
  <g id="C2">
    <path d="M69.52,27.06v1.85c.13,.51,.96,.68,.47,1.63-.01,.01-.23,.25-.46,.51v1.28c-.23,.25-.45,.49-.68,.74v1.06c-.38,.75-.67,1.29-.95,1.85-.21,.01-.43,.02-.83,.04-.51,.54-1.07,1.22-1.72,1.81-.28,.26-.74,.32-1.11,.49-.19,.09-.4,.36-.51,.32-1.08-.43-1.67,.92-2.72,.72-.33-.06-.73,.32-1.35,.61h-3.71c-.21-.2-.45-.42-.69-.65h-1.97c-.16-.16-.31-.31-.61-.61-.37-.03-.9-.06-1.42-.1-.39-.39-.78-.78-1.24-1.24-.35-.02-.78-.04-1.26-.06-.62-.69-1.28-1.42-1.93-2.14-.08,.1-.16,.2-.23,.3-.83-.4-1.65-.81-2.58-1.27-.38,.16-.92,.38-1.45,.6-.86,.86-1.72,1.72-2.58,2.58-.54,.55-1.38,1.03-1.53,1.67-.17,.76-.71,1.05-1.04,1.57-.38,.61-.69,1.26-1.03,1.89-.14,.27-.19,.7-.4,.81-.88,.45-.83,1.46-1.38,2.11-.39,.45-.88,.55-1.5,.59v2.87c-.27,.27-.43,.43-.7,.7v4.64c-.27,.27-.43,.43-.59,.59v2.8c.23,.23,.39,.39,.57,.57v5.93c.8,.48,.57,1.61,1.35,2.1-.2,1.48,.93,2.49,1.35,3.75,.23,.71,.55,.83,1.69,1.23,1.48,1.48,2.97,2.97,4.26,4.26,1.15,.58,2.06,1.04,3.21,1.63h1.68c.25,.23,.49,.45,.76,.68h1.94c.25,.23,.49,.45,.72,.66h4.63c.16-.16,.32-.32,.58-.58,.41-.03,.93-.08,1.45-.13,.39-.39,.72-.88,1.18-1.15,.7-.4,1.58-.53,2.23-.99,.8-.57,1.43-1.37,2.15-2.1v-1.29c.46-.48,.91-.95,1.33-1.39v-5.31c-.72-.72-1.42-1.42-2.17-2.17-.45-.3-1.01-.08-1.54-.12-.43-.04-.87,0-1.24,0-.76,.76-1.46,1.46-2.27,2.27-.02,.31-.05,.73-.09,1.41-.49,.43-1.13,.99-1.87,1.63-.78,.03-1.14-.58-1.42-1.34-.14-.38-.41-.72-.63-1.09v-2.34c.62-1.21,1.14-2.21,1.65-3.21h.66c1.11-1.11,2.2-2.2,3.3-3.3h4.63c.23,.22,.47,.44,.71,.66h1.67c.55,.26,1.1,.53,1.82,.87,.25,.25,.67,.61,1.02,1.03,.4,.48,1.09,.74,1.1,1.53,0,.54,.79,.72,.66,1.38-.11,.57,0,1.1,.62,1.36v6.73c-.16,.18-.37,.42-.61,.69v1.93c-.23,.25-.45,.49-.68,.73v1.09c-.28,.54-.47,.91-.66,1.28-.33,.64-.56,1.35-1.01,1.89-.48,.58-.96,1.09-1.19,1.84-.08,.25-.86,.22-1.06,.5-.72,1.02-1.98,1.2-2.85,2.03-.77,.73-2.02,.95-2.94,1.63-.64-.16-.91,.46-1.44,.74-1.32-.68-2.33,.81-3.65,.62-.25-.22-.49-.43-.76-.66-.21,.19-.45,.4-.69,.62h-5.27c-.23-.21-.47-.43-.69-.63-.24,.21-.47,.4-.69,.59-.19-.19-.35-.35-.56-.56h-1.83c-.89-.93-2.22-.66-3.16-1.36-.3-.22-.89-.03-1.22-.23-1.32-.81-2.82-1.25-4.09-2.11-.6-.41-1.17-.84-1.81-1.21-.66-.38-1.47-.95-1.56-1.96-.02-.18-.19-.4-.36-.5-.96-.61-1.04-1.82-1.85-2.57-1.25-1.16-1.19-1.22-1.76-3.23-.08-.29-.23-.57-.37-.84-.27-.55-.56-1.1-.94-1.84v-1.07c-.23-.25-.45-.49-.68-.74v-1.28c-.24-.26-.45-.5-.68-.75v-3.93c-.18-.18-.34-.34-.57-.57v-8.01c.08-.1,.28-.35,.61-.77v-3.9c.27-.27,.43-.43,.62-.62v-1.8c.47-.83,.89-1.55,1.36-2.39v-1.65c.49-.85,.94-1.55,1.31-2.28,.42-.82,.52-1.81,1.27-2.45-.04-1.03,.89-1.41,1.39-2.08-.2-1.11,1.16-1.27,1.3-2.11,.16-.99,.99-1.38,1.54-2.01,.65-.75,1.39-1.42,2.1-2.12,.62-.62,1.25-1.25,1.81-1.81,.91-.42,1.75-.79,2.53-1.15v-1.4c-.17-.17-.32-.32-.48-.48-.06-.2-.16-.39-.16-.59-.01-1.99,0-3.98,0-5.96,.47-.68,.53-1.62,1.24-2.13,.56-.4,1.21-.69,1.82-1.02,.23,.23,.47,.47,.7,.7,.07,.19,.2,.38,.2,.58,.02,1.43,0,2.87,0,4.28-.18,.18-.33,.33-.6,.6,.14,.19,.29,.4,.58,.78v1.92c.58,.57,1.16,.23,1.55,.31,.8-.46,1.52-.87,2.27-1.3h1.71c.18-.14,.43-.33,.79-.61h1.82c.27-.22,.52-.43,.83-.68h8.59c.17,.15,.41,.36,.67,.58,.9-.2,1.6,.31,2.33,.71,.81,.44,1.63,.96,2.46,1.25,.92,.33,1.58,.94,1.94,1.59,.42,.76,.87,1.43,1.57,2.12Zm-9.66,8.28c.49-.74,1.59-.55,2.09-1.31,.83,.17,1.08-.6,1.58-.97-.07-.97,1.16-1.62,.66-2.7-.46-.96-1.68-.86-2.3-1.63h-2.64c-.24-.23-.48-.45-.72-.67q-.67,.12-1.42,.69h-3.2q-.8,.59-2.1,.73c-.83,1.18-2.25,1.56-3.52,2.23,1.33,1.08,2.39,1.56,3.75,1.73,.39,.39,.78,.78,1.25,1.25,.66,0,1.47-.18,1.96,.64h4.62Z"/>
  </g>
</svg>