<?xml version="1.0" encoding="UTF-8"?>
<svg id="Ebene_1" data-name="Ebene 1" xmlns="http://www.w3.org/2000/svg" width="100" height="100" viewBox="0 0 100 100">
  <path d="M43.38,59.05c-.44,.07-.65,.1-.97,.15-1.03-1.12-2.47-1.98-2.8-3.89,1.56-1.56,3.35-3.34,5.15-5.15-.14-1.12-1.16-1.53-1.74-2.25-.24-.01-.45-.03-.67-.04-.54-.7-.46-1.95-1.79-1.97-.17,0-.49-.3-.47-.33,.38-.83-.89-.99-.65-1.84,.17-.55,.78-.88,1.21-1.35,.36-.4,.76-.77,1.08-1.09h.92c.78,.79,1.47,1.48,1.92,1.94,.66,.03,.88,.04,1.15,.05,.2,.43,.42,.88,.62,1.32h.7c.08-.08,.23-.16,.23-.24,.01-1.53,0-3.07,0-4.52,.72-.73,.89-1.53,.7-2.46h3.77c.25,.25,.49,.49,.72,.72,.07,.08,.18,.16,.19,.25,.03,.22,0,.44,0,.66v4.56c-.24,.28-.43,.51-.62,.73,.11,.11,.2,.27,.27,.26,.88-.09,2.8-.96,2.92-1.59,.22-1.15,.88-1.59,1.88-1.84,.18-.05,.32-.3,.5-.48,.23,.2,.46,.4,.71,.62h.72c.12,.36,.25,.74,.38,1.12,.39,.39,.78,.78,1.19,1.19v1.45c-.51,.35-1.11,.75-2.1,1.43-.82,.8-2,1.96-3.18,3.13-.06,.06,0,.21,0,.38,.19,.75,.93,1.12,1.43,1.67,.42,.46,.79,1.08,1.59,.95,.38,.5,1.1,.75,.99,1.6-.03,.21,.41,.48,.62,.7v1.84c-.83,.89-1.58,1.69-2.35,2.52-.97-.21-1.54-.71-1.68-1.77-.69-.67-1.3-1.61-2.45-1.78-.09-.33-.16-.63-.24-.94-.38-.39-.76-.22-1.24,0,.25,.3,.44,.53,.69,.83,0,1.9,0,3.88,0,5.86,0,.08-.12,.17-.27,.37h-2.44c-.67,.39-1.02,.6-1.39,.82-.41-.38-.73-.67-1.15-1.06v-6.18c-.39-.1-.69-.17-.95-.23-.65,.51-.98,1.12-1.29,1.83-.27,.63-.92,1.19-1.78,.94v1.12Z"/>
</svg>