<?xml version="1.0" encoding="UTF-8"?>
<svg id="Ebene_1" data-name="Ebene 1" xmlns="http://www.w3.org/2000/svg" width="100" height="100" viewBox="0 0 100 100">
  <g id="Ebene_1-2" data-name="Ebene 1-2">
    <g id="Zero">
      <path d="M69.56,63.55l-.4,.4c0,.67-.06,1.37,.02,2.06,.08,.82-.28,1.58-.21,2.39,0,.06-.03,.12-.07,.16-.37,.6-.35,1.27-.32,1.9l-.39,.39v1.21c-.4,.16-.32,.63-.55,.91-.26,.3-.4,.61-.46,1-.06,.35-.29,.66-.45,1.02-.33,.48-.68,1-1.03,1.51-.22,.35-.32,.77-.75,.97-.07,.03-.09,.21-.12,.33-.13,.45-.44,.67-.91,.67-.16,.3-.26,.74-.5,.85-.3,.12-.28,.57-.66,.52-.67,.62-1.37,1.21-1.91,1.95-.7-.02-1.27,.32-1.83,.63-.58,.31-1.11,.7-1.77,.58-.3,.21-.57,.39-.88,.59-.81,.02-1.73-.16-2.49,.57-.76,.15-1.65-.23-2.37,.41h-1.58c-.12-.12-.26-.26-.41-.39-.69,0-1.38,0-2.07,0-.99,.02-1.95-.06-2.9-.37-.43-.14-.94,0-1.39-.21-.3-.14-.63-.21-.92-.4h-.95c-.47-.3-1.02-.44-1.34-.91-.53,.03-.81-.51-1.38-.52-.44,0-.91-.35-1.31-.6-.86-.54-1.51-1.31-2.23-2.02,.06-.38-.53-.3-.48-.67-.16-.02-.31-.03-.49-.05-.02-.17-.03-.33-.05-.48-.43-.16-.72-.52-.86-.89-.29-.71-.58-1.41-.92-2.09-.12-.25-.17-.53-.26-.82-.04,0-.13-.02-.26-.06v-.84c-.15-.12-.27-.23-.37-.31-.19-.82-.26-1.63-.57-2.38-.05-.12-.09-.24-.09-.35,0-.49,.02-.99,0-1.48-.03-.44-.07-.88-.2-1.3-.24-.76-.16-1.52-.2-2.29,0-.27-.08-.56-.2-.81-.26-.55-.18-1.13-.19-1.7-.02-1.29-.28-2.57-.21-3.87,.07-1.32,.15-2.65-.02-3.94-.16-1.2-.12-2.39-.15-3.58-.02-1.22,0-2.44-.02-3.65,0-.5,.07-1-.16-1.51-.26-.54,.24-1.1,.17-1.69,.31-.21,.19-.53,.2-.81,0-1.35,.04-2.7-.02-4.05-.02-.63,.16-1.19,.22-1.79,.06-.55,.13-1.1,.35-1.63,.03-.08,.02-.19,.02-.29,.02-.72-.11-1.47,.4-2.11,.02-.02,0-.07,0-.1-.14-.85,.28-1.65,.21-2.4,.26-.53,.48-1,.76-1.61-.04-.71,.36-1.46,.79-2.16,.4-.67,.73-1.35,.86-2.25,.12-.16,.34-.38,.71-.63,.39-1.16,1.38-2.14,2.11-3.35,.12-.02,.33-.02,.47-.12,.45-.35,.88-.74,1.32-1.1,.14-.12,.33-.17,.47-.29,.34-.28,.76-.4,1.06-.8,.3-.38,.86-.55,1.32-.81,.02-.07,.03-.16,.05-.25,.18-.02,.34-.04,.49-.06,.05-.12,.09-.24,.15-.4,1.22,.28,2.16-.4,3.39-.96,.43-.06,1.18,.21,1.76-.38,.45,0,.93,.08,1.37-.02,1.45-.33,2.91-.1,4.36-.19,.36-.02,.71-.18,1.07-.27,.21-.06,.42-.11,.58-.15,.4,.3,.75,.58,1.07,.82,.5-.37,1.05-.1,1.53-.21,.76,.69,1.93,.56,2.62,1.38h1.16c.44,.34,.86,.67,1.11,.86,.58,.25,.96,.42,1.36,.58,.16,.57,.77,.74,1.22,.91,.35,.37,.62,.64,.93,.98h.53c.31,.51,.7,.92,1.02,1.37,.43,.58,.64,1.27,1.09,1.84,.14,.18,.24,.55,.37,.56,.47,.04,0,.65,.41,.61,.34-.03,.11,.54,.52,.44,.04,0,.29,.36,.26,.54-.06,.6,.46,.94,.57,1.45,.02,.08,.13,.14,.19,.2,.08,.77,.16,1.53,.25,2.29,0,.03-.02,.07,0,.1,.64,1.04,.3,2.19,.4,3.29,.03,.37-.16,.77,.18,1.12,.08,.08,.07,.36,0,.48-.3,.44-.18,.94-.18,1.41-.02,1.91-.02,3.82,0,5.73,0,.77-.11,1.5-.37,2.22-.07,.17-.03,.39-.03,.58v8.39c0,.25,.07,.49,.14,.72,.11,.4,.18,.89-.07,1.32-.05,.07-.08,.18-.07,.26,.14,1.14-.21,2.25-.21,3.37,0,.47-.03,.96-.21,1.39-.26,.67-.14,1.33-.17,2-.02,.39,0,.78,0,1.14h.02Zm-24.44,12.92c.63,.07,1.23-.08,1.81,.21,.3,.15,.66,.18,.94,.35,.4,.24,.63-.21,.99-.16,.4,.06,.8,.08,1.21,.17,.59,.13,1.24,.05,1.87,.02,.44-.02,.85-.2,1.3-.22,.4-.02,.77-.34,1.17-.49,.31-.12,.6-.3,.98-.28,.3,0,.64-.05,.79-.47,.07-.19,.37-.33,.6-.42s.49-.09,.72-.12c.12-.67,.88-.78,1.11-1.33h.44c.18-.2,.51-.39,.56-.63,.07-.35,.56-.3,.51-.67,.61-.11,.63-.7,.89-1.09,.11-.16,.12-.39,.16-.53,.15-.06,.24-.08,.32-.12,0-.28-.11-.62,.02-.8,.44-.65,.49-1.45,.88-2.11,.34-.57,.57-1.19,.49-1.87-.08-.71,.35-1.37,.2-2.09,.4-.4,.15-.95,.35-1.43,.2-.48,.06-1.1,.04-1.66,0-.43,.07-.81,.4-1.12v-8.68c0-.34,.02-.67,.14-1.02,.13-.38,.21-.85,.24-1.28,.07-1.13-.14-2.26,.21-3.37v-5.83c0-.36-.13-.63-.36-.91-.25,.26-.49,.42-.62,.65-.3,.51-.53,1.06-.98,1.46-.43,.4-.82,.83-1.25,1.21-.56,.49-1.02,1.02-1.34,1.7-.13,.27-.28,.6-.52,.75-.86,.53-1.46,1.28-1.85,2.2-.14,.32-.35,.58-.79,.6-.44,.02-.76,.41-.94,.7-.18,.27-.42,.48-.6,.73-.18,.26-.41,.49-.54,.77-.16,.33-.35,.59-.68,.79h-.59c-.24,.44-.48,.86-.73,1.32-.39-.06-.37,.44-.63,.63-.26,.2-.42,.52-.67,.73s-.57,.35-.85,.53c-.23,.48-.47,.97-.69,1.44-.26,.11-.48,.2-.72,.3,.02,.51-.79,.6-.62,1.27-.33,.31-.65,.71-1.05,.98-.34,.23-.67,.49-.91,.79-.24,.3-.53,.57-.68,.98-.1,.27-.33,.66-.72,.77v.39c-.84,.47-1.48,1.08-2.07,1.85-.21,.28-.41,.58-.73,.78-.25,.16-.48,.39-.6,.72-.09,.25-.48,.38-.72,.58-.09,.07-.21,.19-.21,.3-.05,.51-.45,.81-.69,1.2-.19,.32-.61,.35-.78,.74-.15,.34-.53,.58-.81,.87-.48-.18-.61,.26-.93,.5,.08,.3,.16,.64,.25,.97,.09,.35,.2,.71,.29,1.05,.1,.02,.19,.04,.3,.07v.86c.15,.06,.31,.07,.36,.16,.42,.68,.81,1.37,1.22,2.06,.16,.26,.29,.55,.48,.79,.22,.28,.53,.5,.76,.78,.19,.23,.6,.22,.63,.61,.42-.11,.59,.31,.91,.41,.79,.25,1.58,.47,2.35,.7,.02,.1,.04,.18,.07,.27h-.04Zm-9.01-16.76c.11,0,.16,0,.16,0,.66-1.24,1.68-2.16,2.7-3.09,.53-.11,.81-.56,.93-.98,.21-.72,.74-1.18,1.2-1.63,.55-.55,.89-1.31,1.59-1.71,.09-.58,.58-.88,.9-1.31,.33-.45,.63-.93,.97-1.37,.31-.4,.77-.62,1.05-1.02,.11-.16,.21-.31,.44-.63,0,.05,.02-.13,.04-.27,.16-.04,.24-.07,.35-.09v-.63c.1-.1,.16-.13,.19-.19,.12-.27,.67,.13,.61-.4,.37-.04,.32-.35,.44-.59,.14-.29,.42-.6,.78-.51,.34-.34,.63-.63,.95-.95,0-.1,0-.33,.04-.34,.4-.07,.52-.48,.64-.72,.15-.29,.44-.3,.58-.53,.16-.26,.28-.54,.43-.81,.14-.26,.21-.56,.61-.64,.25-.05,.44-.32,.68-.5v-.35c.37-.22,.97-.78,.95-1.05-.02-.46,.39-.55,.58-.8,.21-.25,.54-.44,.86-.53,.4-.11,.44-.49,.67-.72,.36-.38,.81-.66,1.14-1.08,.43-.54,1.01-.96,1.26-1.66,.06-.16,.28-.26,.42-.38,.08-.07,.17-.13,.23-.22,.22-.3,.41-.63,.65-.91,.26-.3,.53-.59,.84-.83,.3-.23,.53-.53,.71-.81,.35-.56,1.03-.72,1.36-1.31,0-.79-.3-1.36-.94-2.31-.49-.72-1-1.39-1.65-2.02v-.63c-.44-.05-.58-.43-.87-.63h-.4c-.04-.11-.07-.22-.12-.32-.33-.11-.64-.21-.92-.31-.03-.15-.05-.24-.07-.36-.7,.12-1.1-.28-1.44-.78-.07,0-.14-.02-.2,0-.61,.21-1.18,.29-1.82,.02-.48-.2-1.05-.18-1.59-.21-.2,0-.4,.17-.61,.17-.24,0-.47-.14-.71-.17-.11-.02-.22,.09-.34,.12-.12,.03-.29,.11-.36,.06-.48-.33-1-.12-1.37-.18-1.19,.53-2.27,.94-3.4,1-.66,.31-1.26,.6-1.87,.89,0,.03,.02,.07,.03,.11h-.56c-.88,.88-1.65,1.74-2.22,2.71-.11,.03-.19,.07-.27,.09v.5c-.62-.21-.44,.67-.87,.66-.26,.78-.52,1.54-.77,2.28-.12,.04-.23,.08-.34,.12v.63c-.17,.44-.35,.72-.38,1.01-.04,.57-.26,1.08-.39,1.62-.09,.39-.28,.76-.24,1.2,.06,.56,.12,1.16-.32,1.64-.06,.06-.05,.18-.06,.27-.07,1.19-.14,2.38-.2,3.57-.02,.38,.02,.74-.19,1.11-.21,.39-.23,.84-.21,1.29,.02,.76,.02,1.51,0,2.27-.03,.95,.21,1.93-.39,2.8-.03,.04,0,.13,0,.2-.02,1,.09,2-.2,2.98v7.63c.13,.23,.24,.4,.32,.54v.02Z" style="fill: #010101;"/>
    </g>
  </g>
</svg>