<?xml version="1.0" encoding="UTF-8"?>
<svg id="Ebene_1" data-name="Ebene 1" xmlns="http://www.w3.org/2000/svg" width="100" height="100" viewBox="0 0 100 100">
  <g id="donut">
    <path d="M81.48,36.91v1.82c.18,.21,.39,.45,.64,.75v2.57c.23,.25,.45,.49,.68,.75v1.95c.23,.25,.45,.49,.66,.71v9.94c-.17,.17-.32,.32-.48,.48-.32,.62-.11,1.28-.18,2.04-.17,.25-.5,.56-.63,.93-.16,.49,.19,1.11-.36,1.51-.43,.32-.25,.78-.34,1.19-.09,.39-.32,.75-.62,1.42v1.29c-.76,1.57-1.32,2.9-2.03,4.14-.66,1.16-1.74,2.08-1.97,3.49-.97,1.26-2.49,2.08-3.01,3.72h-.64c-.71,.71-1.41,1.41-2.12,2.12-.39,.39-.77,1.09-1.17,1.11-1.06,.05-1.32,1.26-2.1,1.34-.72,.08-.99,.89-1.71,.73-.94,.64-2.18,.86-2.96,1.57-.75,.69-1.71,.01-2.37,.83-.4,.5-1.25,.65-1.92,.9-.29,.11-.69-.04-.95,.1-.65,.32-1.25,.74-1.99,1.2h-10.53c-.16-.13-.4-.34-.69-.59h-1.91c-.25-.23-.49-.45-.75-.68h-1.29c-.25-.23-.49-.45-.74-.68h-1.25c-.28-.24-.5-.56-.78-.63-2.22-.6-4.54-1.69-6.1-2.89-.24-.19-.52-.38-.81-.43-.63-.11-.94-.78-1.68-.82-.41-.02-.73-.93-1.19-1.05-.68-.18-1.22-.46-1.57-1-.4-.63-1.18-.36-1.66-.89-.39-.44-.39-.96-.67-1.4-.06-.09-.15-.17-.23-.23-2.17-1.69-3.01-4.23-4.23-6.53-.43-.82-.84-1.65-1.33-2.62v-1.59c-.13-.17-.32-.42-.65-.87v-2.55l-.7-.7v-5.97l-.61-.61v-9.29c.17-.19,.39-.43,.63-.69v-1.94c.23-.25,.45-.49,.68-.74v-1.94c.24-.26,.45-.5,.63-.7,.03-.5-.09-1.02,.11-1.35,.88-1.39,1.5-2.93,2.32-4.34,.31-.53,.29-1.24,.92-1.61,.49-.29,.51-.89,.75-1.33,.47-.83,1.53-1.25,1.87-2.22,.38-1.1,1.38-1.65,2.08-2.45,.66-.74,1.4-1.41,2.1-2.12,1.34-.16,1.87-1.38,2.77-2.11,1.33,.03,1.66-1.29,2.68-1.94h1.67c1.19-.69,2.17-1.55,3.57-1.39,.23-.21,.47-.42,.73-.66h1.28c.25-.23,.49-.45,.74-.68h3.26c.26-.24,.5-.45,.85-.77,.41,.22,.84,.45,1.25,.68,.16-.16,.31-.31,.49-.49h2.79c.23,.23,.38,.38,.57,.57h4.59c.25,.23,.49,.45,.75,.68h2.61c.17,.16,.32,.31,.51,.48,.68,.38,1.46,.08,2.2,.21,.39,.39,.71,.95,1.18,1.14,2.08,.85,3.99,2.07,6.29,3.02,.92,.92,2.01,2.01,3.11,3.11h.66c.73,.77,1.44,1.5,1.94,2.5,.47,.94,1.64,1.5,2.22,2.41,.32,.51,.46,1.21,1.01,1.54,.57,.35,.26,1.08,.7,1.37,.61,.4,.25,1.3,.93,1.62,.17,1.26,.62,2.39,1.5,3.58Zm-7.9-4.8c-1.22-.6-1.29-1.99-2.2-2.78-1-.86-1.88-1.86-2.66-2.64-.48-.18-.83-.22-1.05-.4-.5-.43-.94-.94-1.42-1.39-.54-.5-1.45-.43-1.83-1.18-.34-.67-1.11-.56-1.64-.87-.85-.5-1.74-1.24-2.89-1-.51-.81-1.27-.65-2.03-.53-.42,.47-.88,.83-1,1.59-.08,.54-.8,.98-1.23,1.46,.26,1.12-.91,.62-1.24,1.08-.48,.66-1.17,.38-1.79,.37-.31-.31-.62-.62-1-1,.08-.25,.14-.56,.29-.83,.57-1.09,1.2-2.15,1.73-3.26,.1-.2-.15-.57-.23-.83h-1.39c-.25-.23-.49-.45-.69-.63h-1.96c-.29,.25-.53,.46-.73,.63-.86,.14-1.5-.21-2.18-.7-.79,.41-1.6,.83-2.62,1.36h-3.04c-1.23,1.14-2.05,1.61-3.5,2-1.2,.33-2.23,1.02-3.33,1.54-.75,.36-1.19,1.48-1.94,1.7-1.07,.32-1.5,1.2-2.25,1.77-.78,.59-.75,1.72-1.62,2.33-.89,.62-1.62,1.48-2.41,2.24-.66,1.09-.37,2.46-1.13,3.47,1.81,.5,2.59,2.2,3.83,3.14v2.76c-.59,.3-1.14,.57-1.7,.85-.88-1.13-2.41-1.54-3.5-2.55-.06-.06-.22-.03-.32,0-.09,.03-.17,.11-.38,.25v2.69l-.7,.7v7.79c0,.66,.14,1.37-.03,1.98-.27,.92,.85,1.23,.71,2.06-.16,.91,.75,1.46,.85,2.29,1.19,.84,1.35,2.33,2.11,3.44h.65c.31,.79,.67,1.55,1.49,2.03h1.22c.73,.73,1.47,1.4,2.13,2.15,.51,.58,1.38,.46,1.9,1.1,.17,.21,.83,.03,1.22,.03,.27,.23,.5,.43,.7,.61,.26-.21,.48-.39,.67-.54,.31,.25,.56,.44,.75,.59h1.8c.21,.18,.45,.39,.75,.64h1.24c.25,.23,.49,.45,.74,.68,.59,.09,1.16,.05,1.8,.41,1.78,1,3.68,1.79,5.45,2.84,.33,.2,.85,.07,1.31,.1,.21,.18,.48,.3,1.05,.45v-6.13c.42-.4,.74-.7,.99-.94h1.34c.36,.35,.67,.66,.98,.96v1.98c.23,.25,.45,.49,.66,.71,0,1.02-.01,2.01,.01,3.01,0,.19,.17,.37,.28,.58h2.01c.37-.27,.73-.58,1.31-.71,.55-.12,.96-.83,1.38-1.23,.58-.13,1.18,.21,1.61-.33,.41-.52,1.28-.27,1.6-.94,.37-.78,1.41-.53,1.82-1.18,.56-.88,1.72-.81,2.34-1.57,1.07,.48,1.71-.81,2.71-.67,.2,.03,.41-.06,.62-.1,.78-.78,1.56-1.56,2.34-2.34,1.81-.5,2.58-2.2,3.9-3.2v-1.36c.44-.44,.83-.83,1.22-1.22,.05-.52,.11-1.04,.15-1.48,.24-.24,.39-.39,.58-.58,0-2.4,0-4.83,0-7.25,0-.08-.13-.16-.2-.25-.62-.37-.92,.2-1.38,.41-.55,.25-1.21,.3-1.79-.23-.35-.32-.86-.46-1.22-.64v-1.23c.99-1.56,2.6-1.95,3.93-2.74v-1.98c-.23-.25-.45-.49-.5-.55-.32-.7-.04-1.2-.4-1.76-.61-.94-1.22-1.93-1.23-3.14,0-.07-.36-.14-.55-.2-.11,0-.25-.02-.31,.04-1.1,1.08-2.19,2.18-3.29,3.28-.77,0-1.54-.01-2.31,.01-.19,0-.38,.14-.57,.22-.16,.13-.31,.27-.47,.4-.31-.31-.62-.62-.95-.95v-1.39c.98-.7,1.56-2,3.13-2.42,.39-.39,.98-.9,1.46-1.5,.53-.67,1.26-1.01,2.08-1.41Zm-17.87,48.14c.9-.47,1.7-1.2,2.54-1.25,.92-.05,1.47-.89,2.36-.75,.43-1.09,1.54-.46,2.28-.9,1.13-.67,2.41-1.15,3.53-1.81,1.19-.7,2.08-1.91,3.11-2.9,.08-.08,.16-.16,.23-.23,.3-.08,.6-.15,.89-.23,.16-.38,.25-.8,.48-1.12,.3-.41,.7-.73,1.12-1.15-.62-.44-1.18-.19-1.69-.28-.25,.23-.49,.45-.73,.68h-1.14c-.75,.45-1.51,.69-1.97,1.21-.6,.68-1.65,.61-2.08,1.38-.43,.76-1.37,.54-1.85,1.15-.95,1.21-2.6,1.25-3.7,2.27h-1.87l-.53,.53h-6.8c-1.06-.34-1.45-.59-1.82-.56-1,.08-1.63-1.18-2.71-.7-.04,.02-.14-.15-.24-.21-1.78-1.01-3.65-1.84-5.45-2.8-.18-.1-.36-.2-.54-.29-.64-.06-1.3,.15-1.91-.17-.16-.16-.31-.31-.47-.47-.96-.11-1.94,.08-2.75-.07-.29-.31-.45-.47-.59-.62h-1.98c-.25-.23-.52-.65-.74-.63-.91,.09-1.37-1.22-2.38-.71-.07,.04-.2-.04-.3-.07-.86-.86-1.69-1.74-2.59-2.55-.15-.13-.58,.05-1.12,.12,.81,.83,1.78,1.4,2.04,2.21,.26,.82,.77,1.27,1.28,1.78s.87,1.31,1.82,1.18c.78,.78,1.49,1.64,2.36,2.31,.8,.62,1.97,.75,2.68,1.45,1.08,1.07,2.64,1.21,3.68,2.18h1.68c.84,.46,1.64,.91,2.4,1.33h1.74c.23,.21,.46,.43,.71,.66h3.9c.36,.28,.69,.53,1.04,.8,.43-.29,.76-.51,1.08-.73,.51,.82,1.28,.63,1.97,.5,.29-.23,.54-.42,.73-.57h2.3Z"/>
    <path d="M44.64,55.04h-1.29c-.56-.56-1.05-1.19-1.67-1.63-.76-.54-.64-1.54-1.36-2.12-.53-.43-.78-1.2-1.23-1.96v-5.18c.16-.18,.37-.42,.61-.7v-2.56c.29-.47,.92-.73,.68-1.41,1.17-1.17,2.34-2.34,3.57-3.56,.45-.06,1.02-.02,1.48-.21,.36-.15,.58-.63,1.1-.54,.59,.1,1.07-.09,1.38-.58h2.83l.57,.57h2.59c.46,.29,.72,.92,1.3,.72,1.04,1.04,2.05,2.05,2.85,2.86,.77,1.5,1.42,2.77,2.2,4.29v5.02c-.84,1-1.12,2.37-1.92,3.46-.21,.28-.03,.85-.03,1.29-1.41,1.49-3.83,1.54-4.79,3.55h-3.26c-.42,.29-.76,.52-1.21,.83-.33-.23-.67-.46-1.1-.76h-1.85c-.48-.46-.95-.91-1.43-1.36Zm.72-3.96c.11,0,.24-.04,.33,0,.47,.21,.9,.55,1.39,.63,.53,.09,.99,.11,1.47,.5,.48,.39,1.27,.44,1.75-.13,.53-.63,1.26-.1,1.81-.45,.62-.62,1.17-1.36,1.89-1.84,.88-.59,.85-1.72,1.63-2.34v-4.5c-.25-.45-.56-.8-.63-1.18-.11-.64-.69-.97-.81-1.67-.18-1.05-1.63-.81-2.22-1.56-.24,.21-.48,.42-.65,.57h-1.96c-.32-.26-.56-.46-.61-.5-1.23-.67-1.82,.35-2.57,.62-.72,.25-1.38,1.07-1.75,1.8-.36,.7-1.14,1.38-.7,2.37-.21,.23-.43,.47-.66,.73v3.29c.21,.23,.43,.47,.66,.72v1.3c.56,.56,1.1,1.1,1.65,1.65Z"/>
    <path d="M33.09,36.38c.38-.72,.66-1.26,.97-1.85h1.35c.24,.23,.56,.52,.85,.8,.37,.65-.21,1.61,.76,2.07v3.24c.21,.26,.41,.51,.67,.83v2.64c-.2,.22-.49,.53-.85,.92h-2.18c-.48-.42-.13-1.01-.25-1.55-.2-.22-.42-.45-.65-.7v-2.61c-.22-.24-.45-.48-.67-.72v-3.07Z"/>
    <path d="M53.78,32.84c.22-.45,.43-.91,.71-1.49,.39-.28,1.15-.19,1.49-.83,.66,.19,.92-.49,1.39-.63,.59-.17,1.24,.09,1.8-.51,.28-.3,1.2,0,1.47-.31,.55-.61,1.15-.52,2.04-.55,.4,.56,.9,1.26,1.49,2.07-.17,.4-.45,1.06-.74,1.72-.45,.19-.92,.38-1.97,.82-.11,0-.85,.05-1.57,.09-.17,.17-.33,.33-.55,.55h-4.88c-.12-.17-.43-.59-.67-.93Z"/>
    <path d="M46.44,31.04c-.44,1.39-1.7,1.27-2.32,2.03-.77-.4-1.55-.81-2.34-1.22-.72-.38-1.6-.56-2.15-1.13-.55-.57-1.23-.78-1.86-1.13-.82-.45-.57-1.6-1.36-2.06,.77-.93,1.88-1.24,2.83-1.75,.35,.33,.59,.55,.84,.78h1.3c.86,.86,1.58,2,2.61,2.49,1.03,.49,1.68,1.2,2.45,2Z"/>
    <path d="M40.79,64.34h-3.52c-.23-.25-.59-.64-.84-.92-.15-1.01,.61-1.25,.99-1.74,.97,.17,1.18-.84,2.21-1.26h1.82c.28-.43,.64-.98,.89-1.37h2.35c.26,.25,.57,.54,.94,.89v2.14c-.89,.42-1.86,.66-2.52,1.25-.71,.64-1.86-.18-2.31,.99Z"/>
    <path d="M30.89,54.05c-.24,.57-.44,1.04-.68,1.61-.37,.02-.79,.05-1.15,.07-.16-.04-.28-.05-.36-.1-.09-.05-.16-.15-.24-.23-.45-.48-1.22-.92-1.27-1.44-.07-.72-.72-1-.78-1.7-.1-1.35-1.11-2.57-.76-4.17,.39-.36,.78-.72,1.16-1.07,.75,.31,1.44,.53,2.06,.88,.36,.2,.87,.65,.84,.93-.09,.77,.78,1,.74,1.72-.07,1.16,1.21,2.09,.43,3.5Z"/>
    <path d="M56.96,61.36v-1.38c.28-.25,.61-.54,1.02-.9,.92-.49,1.63,.54,2.66,.67,.73,.79,1.55,1.68,2.37,2.56,.45,.2,1.24-.21,1.27,.69,.01,.36,.37,.7,.5,.93-.74,.8-1.47,1.59-2.21,2.38-.65-.65-1.17-1.54-1.93-1.82-.76-.29-1.27-.73-1.8-1.24-.63-.61-1.25-1.24-1.88-1.88Z"/>
    <path d="M68.45,51.08h2.5c.65,.34,1.27,.66,1.91,.99v1.3c-1.07,1.52-3.32,1.35-4.25,3.01-1.14,0-2.23,0-3.31,0-.08,0-.16-.12-.32-.24v-2.24c.28-.07,.57-.14,1.02-.25,.72-.75,1.55-1.62,2.46-2.57Z"/>
  </g>
</svg>