<?xml version="1.0" encoding="UTF-8"?>
<svg id="Ebene_1" data-name="Ebene 1" xmlns="http://www.w3.org/2000/svg" width="100" height="100" viewBox="0 0 100 100">
  <g id="Ebene_1-2" data-name="Ebene 1-2">
    <g id="Integral">
      <path d="M54.29,92.5c-.18,.1-.44,.17-.53,.32-.39,.61-1.01,.95-1.57,1.38-.55,.4-1.07,.8-1.78,.88-.11,.01-.21,.16-.32,.17-1.48,.12-2.95,.23-4.4,.18-.59-.29-1.32-.46-1.72-.92-.48-.56-1.17-.75-1.65-1.25-.48-.49-.88-1.11-1.59-1.34v-.58c-.6-.22-.6-1.08-1.35-1.27v-.91c-.17-.03-.29-.06-.51-.1,.23-.94-1.02-1.4-.83-2.39-.75-.56-.39-1.64-1.06-2.25,.09-.96-.56-1.89-.26-2.83,.3-.94,.21-1.89,.25-2.69,.36-.77,.66-1.41,1.07-2.27v-.46c.32-.68,1.12-.84,1.46-1.53h1.12c.04-.16,.09-.28,.16-.5,.47-.09,1-.21,1.41,.13,.56-.1,1.06-.18,1.54-.27,.77,.73,1.43,1.44,1.65,2.45,.12,.03,.25,.07,.35,.09,.29,.92,.88,1.7,1.16,2.62,.39,1.26,.77,2.54,1.23,3.78,.3,.83,.46,1.65,.34,2.58,.8,.13,.29,1.39,1.31,1.44v-5.87c-.1-.08-.31-.23-.49-.38,.2-2.41-.42-4.73-.27-7.07,0-.15-.29-.31-.45-.47-.26-1.25,.36-2.64-.59-3.85v-1.41c0-.47,.04-.93-.25-1.38-.19-.3-.23-.72-.28-1.08-.04-.39,0-.8,0-1.11-.47-.86-.82-1.64-.82-2.58,0-.68-.02-1.42-.29-2.01-.22-.48-.25-.93-.21-1.39,.06-.75-.25-1.45-.26-2.17-.01-.75-.31-1.4-.47-2.09-.19-.85-.11-1.77-.08-2.65,.02-.64-.16-1.17-.55-1.76,0-.47-.1-1.01-.22-1.54-.12-.55-.2-1.06-.5-1.54-.1-.17-.08-.42-.08-.64v-2.58c-.34-.51-.66-1.08-.53-1.76,.11-.59-.15-1.1-.28-1.63-.42-1.73-.59-3.49-.54-5.28,.04-1.61,0-3.22,.01-4.83,.02-1.3-.04-2.57-.53-3.81-.1-.27-.13-.7,0-.92,.39-.58,.16-1.2,.25-1.78,.44-2.59,.19-5.2,.28-7.8,.02-.57,.19-1.17,.45-1.68,.29-.57,.4-1.12,.31-1.69l.56-.56c0-.18,.03-.4,0-.6-.21-1.02,.44-1.73,.95-2.41,.34-.44,.7-.84,1.01-1.32,.3-.47,.7-.86,1.15-1.4,.74,.22,1.32-.59,2.15-.6,.16,0,.31-.29,.47-.45,.94-.1,1.88-.21,2.82-.31,.79-.09,1.49,.25,2.01,.46,.66-.1,1.16-.18,1.51-.23,.61,.44,1.08,.83,1.61,1.1,.82,.42,1.39,1.03,1.97,1.74,.51,.63,1.05,1.25,1.54,1.9,.59,.79,.69,1.77,1.04,2.65,.16,.39-.16,.87,.18,1.26,.29,.34-.13,.91,.36,1.2,.04,.02,0,.17,0,.26,0,.6,.04,1.17,.22,1.78,.15,.48,.26,1.13-.16,1.64-.09,.11-.08,.35-.06,.5,.17,1.03-.22,1.95-.57,2.85-.23,.61-.63,1.16-.83,1.87h-.6c-.34,.35-.64,.68-.96,.98-.29,.27-.6,.5-1.08,.89h-1.01c-.04-.16-.07-.28-.11-.45h-1.14c-.34-1.05-1.21-.79-1.93-.85,.11-.55-.66-.4-.67-.95,0-.36-.44-.72-.75-1.19v-.61c-.21-.25-.4-.47-.66-.77,.19-.3,.36-.58,.64-1.04-.03,.12,0,.03,0-.04v-3.22c0-1.44-.12-2.9,.39-4.28-.32-.31-.57-.56-.79-.77-.72-.03-1.1,.42-1.46,.86-.3,.36-.66,.73-.76,1.15-.11,.44-.86,.48-.58,1.08-.54,1.04-.8,2.21-.8,3.51-.16,.11-.38,.27-.53,.38v7.09c.17,.18,.36,.37,.53,.56,0,.86,.06,1.71-.01,2.56-.16,1.99,.28,3.95,.3,5.93,0,.39,.27,.77,.46,1.15,.15,.91-.2,1.92,.59,2.69,.07,.69-.03,1.36,.23,2.06,.22,.56,.12,1.25,.27,1.89,.25,1.13,.26,2.33,.3,3.5,.02,.61,.04,1.21,.54,1.67,.06,.79-.18,1.65,.46,2.35,.1,.1,.09,.32,.09,.49-.01,1.58,.55,3.12,.18,4.72,.23,.06,.36,.09,.59,.15,0,.46,.02,.97,.03,1.5,.02,.82-.16,1.67,.53,2.34-.03,.6,.4,1.12,.3,1.77-.09,.58-.1,1.22,.25,1.77,.3,.47,.17,1.01,.29,1.5,.31,1.25,.03,2.56,.29,3.77,.32,1.54,.1,3.06,.22,4.59,.04,.55,.17,1.1,.27,1.63,.1,.55-.25,1.13,.25,1.65,.13,.15,.02,.51,.02,.78,0,1.21-.18,2.45,.04,3.61,.27,1.41,.18,2.79,.21,4.19,.03,1.39-.02,2.77,.02,4.16,.04,1.3-.42,2.39-1.15,3.42-.13,.2-.18,.46-.3,.78h-.01Z" style="fill: #010101;"/>
    </g>
  </g>
</svg>