<?xml version="1.0" encoding="UTF-8"?>
<svg id="Ebene_2" data-name="Ebene 2" xmlns="http://www.w3.org/2000/svg" width="24.31mm" height="28.29mm" viewBox="0 -10 68.91 100">
  <g id="Ebene_1-2" data-name="Ebene 1">
    <g id="Joscco_1">
      <path d="M1.23,32.24v-3.81c.18-.13,.39-.28,.66-.47,.04-.43,.37-.88,.32-1.45-.05-.57,.26-1.08,.47-1.6,.2-.48,.21-1.01,.43-1.5,.15-.33,.03-.78,.15-1.13,.42-.94,.84-1.88,1.26-2.83,.06,0,.14-.01,.27-.02v-1.1c.48-.44,.94-.72,1.19-1.13,.57-.95,1.05-1.96,1.54-2.96,.13-.26,.18-.57,.35-1.12,.12-.11,.43-.42,.76-.69,.29-.24,.59-.54,.93-.63,.45-.12,.33-.73,.87-.78,.24-.02,.43-.47,.65-.73,.25-.3,.69-.35,.81-.85,.08-.34,.61-.48,.65-.91,.98-.58,2.1-.93,2.86-1.85,.05-.06,.1-.18,.12-.18,.63,.21,.84-.75,1.32-.54,.37-.32,.72-.53,.94-.84,.21-.31,.48-.56,.76-.77,.32-.25,.72-.39,1.03-.69,.3-.28,.68-.48,1.11-.77h.39c.05-.13,.09-.27,.16-.45h2.24c.06-.17,.11-.31,.17-.48h1.35c.39-.27,.74-.5,1.11-.76,.58,.09,1.23-.18,1.8,.26,.43-.2,.86-.41,1.5-.71h1.25c.12-.16,.26-.35,.41-.56,1.08,.28,2.05-.18,3.06-.18,1.04,0,2.08-.02,3.12,0,.66,.01,1.29,.16,1.76,.68,.59,.15,1.25-.17,1.82,.29,.46-.39,1.02-.23,1.58-.26,.13,.14,.26,.28,.41,.45,1.21,0,2.26,.47,3.23,1.23h1.18c.05,.13,.1,.27,.16,.45,.17,.02,.36,.03,.59,.05,.03,.1,.06,.2,.11,.39,.35,.13,.75,.29,1.16,.45,.05,.63,.68,.27,.97,.56,.3,.3,.75,.44,1.18,.67,0,.04,.03,.15,.06,.3h1.05c.2,.26,.36,.51,.55,.72,.39,.44,.89,.66,1.48,.73,.52,.07,.92,.25,1.23,.81,.34,.61,.76,1.28,1.27,1.73,.48,.43,.77,1.04,1.44,1.35,.53,.25,.84,.98,1.32,1.6v.36c.16,.08,.42,.13,.46,.24,.25,.82,.99,1.25,1.45,1.9,.27,.37,.63,.66,.86,1.08,.21,.39,.72,.61,.66,1.17,.72,.12,.36,.9,.75,1.23,.48,.4,.47,1,.66,1.53,.17,.49,.42,.95,.47,1.49,.01,.14,.07,.3,.15,.41,.61,.84,1.01,1.74,1.06,2.81,.01,.31,.27,.6,.46,1v.84c.14,.14,.28,.28,.42,.41,.02,.04,.06,.07,.06,.1,.1,.96,.19,1.92,.29,2.89,.14,.14,.28,.28,.43,.43v4.07c.17,.17,.33,.34,.49,.52v1.6c.18,.32,.32,.58,.47,.84-.19,.6-.52,1.16-.49,1.84,.04,.67,0,1.34,0,1.99-.18,.05-.29,.07-.39,.1-.03,.07-.08,.14-.08,.2,0,1-.02,2,0,3,.01,.41-.18,.87,.22,1.23,.08,.07,.07,.35-.01,.45-.6,.83,.14,1.85-.42,2.68,.46,.9,.04,1.87,.23,2.78-.27,.31-.57,.54-.55,1.01,0,.23-.35,.47-.64,.84-.15,1.13-.55,2.37-1,3.61-.24,.66-.51,1.32-.77,1.96-.19,.46-.1,.91-.24,1.35-.12,.03-.23,.05-.39,.09v.96c-.76,.76-.69,2-1.72,2.47v.37c-.43,.37-.81,.7-1.19,1.02v.71c-1.78,1.1-2.49,3.17-4.1,4.42v.54c-.18,.01-.37,.03-.56,.04-.12,.15-.23,.33-.38,.47-.31,.29-.72,.51-.96,.85-.9,1.31-1.18,1.46-2.59,2.11-.51,.24-1.03,.49-1.36,1.06-.27,.47-.77,.81-1.23,1.27-1.25-.22-2.37,.37-3.5,.89-.51,.24-1.01,.34-1.33,.32-1.09,.42-1.98,.77-3.09,1.19-.2,0-.64,0-1.08,0-.31,0-.58,.05-.88,.19-.23,.11-.55,.25-.84,.27-.48,.05-.96,.01-1.44,.01-.43,.22-.86,.45-1.38,.72-.49,0-1.09,.04-1.68-.01-.53-.05-1.04-.19-1.68-.32-.08-.07-.25-.24-.42-.4h-3.82c-.15-.15-.29-.29-.45-.45h-2.44c-.11-.17-.23-.38-.3-.49h-1.34c-.32-.21-.64-.42-1.05-.7h-1.28c-.99-.48-1.73-1.05-2.53-1.17-.82-.12-1.38-.6-2.01-.97-.38-.22-.71-.26-1.11-.3-.03-.1-.07-.2-.11-.33-.73-.23-1.31-.7-1.81-1.34h-.45c-.45-.53-1.03-.95-1.53-1.44-.13-.12-.32-.18-.5-.24-.11-.03-.24,0-.46,0-.45-.59-.93-1.22-1.46-1.92,.04,0-.04,0-.15,0-.04-.13-.09-.27-.15-.45h-1.07c-.05-.25-.05-.49-.15-.69-.08-.17-.38-.29-.38-.43,0-.66-.84-.92-.76-1.62,0-.07-.35-.14-.43-.27-.42-.7-.93-1.39-1.15-2.15-.15-.5-.4-.92-.67-1.28-.47-.63-.64-1.29-.61-2.03-.29-.5-.77-.85-1.05-1.35-.34-.6-.03-1.24-.18-1.89-.08-.03-.18-.06-.35-.11-.51-1.41-1.27-2.81-1.33-4.43-.39-.36-.52-.84-.45-1.35,.12-.99-.2-1.93-.29-3-.11-.09-.3-.23-.44-.34,0-.52,0-.96,0-1.4,0-.42,0-.84-.23-1.23-.13-.22-.21-.48-.24-.74-.04-.31,.02-.64-.02-.96-.09-.77,.25-1.57-.23-2.31-.05-.08-.05-.27,0-.35,.49-.77,.19-1.62,.21-2.42,.02-.78,.2-1.58-.12-2.34,.38-.8-.07-1.69,.35-2.53,.32-.65,.24-1.48,.75-2.17Zm22.94,32.09c.91,.11,1.79,.21,2.58,.3,.56,.3,1.05,.57,1.66,.9h1.53c.36,.22,.74,.43,1.13,.45,.79,.04,1.51,.17,2.07,.82,.43-.19,.8-.36,1.18-.53,1.42-.11,2.86-.22,4.32-.33,.02-.1,.04-.21,.06-.31,.45-.17,.89-.35,1.56-.6h1.83c.54-.42,1.03-.8,1.58-1.23h1.35c.17-.2,.26-.35,.4-.44,.47-.3,1.07-.48,1.39-.89,.37-.47,.84-.72,1.31-.94,.32-.15,.59-.27,.84-.56,.27-.32,.77-.48,.95-.83,.37-.74,.98-1.26,1.45-1.89,.65-.89,1.3-1.78,1.99-2.74v-.7c.47-.92,.93-1.59,1.14-2.33,.13-.45,.75-.66,.52-1.23,.36-.69,.21-1.45,.24-2.17,.15-.15,.29-.29,.49-.49-.13-1.35,.07-2.74,.23-4.14,.02-.18,.11-.36,.13-.54,.05-.66,.08-1.33,.11-2,0-.03-.04-.06-.11-.16-.09-.08-.24-.22-.29-.27-.12-.67-.26-1.23-.31-1.8-.05-.64,.11-1.31-.05-1.91-.14-.54-.13-1.06-.22-1.59-.09-.52-.18-1.05-.29-1.56-.17-.78-.42-1.54-.41-2.34,0-.48,0-.96,0-1.27-.54-.99-.98-1.88-1.68-2.59v-.95s-.07,.02-.11,.04c-.25-.74-.49-1.47-.76-2.29,0,0-.11-.02-.22-.05-.57-1.78-1.45-3.41-2.52-5.04v-.56c-.78-.54-1.54-1.03-2.26-1.58-.65-.5-1.22-1.1-1.86-1.59-.62-.48-1.45-.62-2.01-1.26-.16-.19-.55-.19-.84-.25-.52-.11-1.14-.04-1.54-.32-.5-.35-1.04-.59-1.57-.89-.16,.08-.34,.24-.5,.23-1.5-.15-2.97,.27-4.46,.25-.36,0-.72,.02-1.08,0-.56-.03-1.07,.04-1.5,.47h-2.68c-.21,.24-.44,.51-.63,.74h-1.03c-.34,.3-.66,.58-1.06,.93-.94,.2-2.07,.23-2.84,1.21-.25,.33-.8,.48-.94,.83-.16,.4-.7,.41-.67,.88h-1.23c-.48,.51-1.09,.93-1.06,1.8-.5,.26-.62,.95-1.22,1.22-.6,.27-.5,1.17-1.18,1.4-.03,.38,.05,.75-.32,1.08-.36,.32-.77,.75-.85,1.19-.15,.82-.71,1.26-1.25,1.84v2.19c-.53,.11-.62,.52-.71,.91-.06,.26,.04,.61-.1,.79-.5,.66-.28,1.42-.42,2.12-.07,.35,.4,.53,.1,.92-.18,.23-.07,.68-.09,1.01-.16,.06-.3,.11-.36,.13-.32,.95-.39,1.88-.32,2.82,.03,.45,.19,.89,.22,1.34,.04,.52,0,1.04,0,1.56v3.06c.74,.15,.65,.71,.76,1.16,.13,.5,.34,.99,.43,1.5,.08,.49,.06,.97,.2,1.47,.13,.45-.16,1.03-.23,1.41,.3,.44,.53,.74,.72,1.07,.19,.32,.35,.66,.51,.99,.17,.33,.34,.66,.48,1,.25,.62,.52,1.23,.68,1.87,.09,.34,.23,.52,.47,.77,.3,.31,.76,.6,.79,1.2,.05,1.04,.71,1.83,1.39,2.52,.33,.34,.62,.71,.97,1.04,.36,.34,.65,.76,.99,1.12,.45,.48,.85,1.08,1.4,1.37,.61,.31,1.07,.74,1.61,1.25Z"/>
    </g>
  </g>
</svg>
