<?xml version="1.0" encoding="UTF-8"?>
<svg id="Ebene_2" data-name="Ebene 2" xmlns="http://www.w3.org/2000/svg" width="30mm" height="30mm" viewBox="-16 -11 100 100">
  <g id="Ebene_1-2" data-name="Ebene 1">
    <g id="Joscco_0">
      <path d="M42.09,0c.69,.12,1.18,.28,1.66,.28,.44,0,.87-.18,1.11-.23,.85,.7,1.73,1.21,1.49,2.35,.18,.04,.28,.06,.44,.09,.14,.32-.02,.82,.6,.97,.27,.07,.63,.56,.63,.86,0,.9,.67,1.42,1,2.12,.51,1.11,1.22,2.13,1.44,3.36,.03,.14,.09,.29,.18,.4,.54,.61,.81,1.37,.98,2.11,.15,.66,.83,1.18,.48,1.91,.55,.82,1.15,1.57,1.57,2.4,.41,.82,.64,1.73,.96,2.6,.11,.03,.22,.05,.36,.09-.07,.83,.76,1.35,.75,2.19,0,.17,.13,.34,.23,.5,.33,.54,.75,1.05,.72,1.74,0,.07,0,.16,.04,.22,.76,1.2,1.03,2.61,1.7,3.86,.04,.07,.11,.11,.17,.18v1.41c1.07,1.08,1.1,2.47,1.25,3.93,.08,.06,.23,.18,.44,.34-.1,.9,.19,1.7,.7,2.55,.1,.71-.23,1.63,.49,2.33,0,.11,0,.23,0,.35,.01,.92-.08,1.83,.45,2.7,.27,.43,.32,1.01,.28,1.57-.04,.53-.05,1.07,.21,1.59,.24,.48,.27,1.02,.26,1.57-.02,1.48,0,2.96,0,4.49,.13,.1,.28,.23,.49,.39-.03,.29,.04,.67-.12,.86-.41,.51-.36,1.08-.37,1.66,0,.68-.03,1.36,0,2.04,.03,.57-.13,1.05-.49,1.56,0,.61-.07,1.3,.02,1.96,.08,.58-.09,1.15-.31,1.56-.34,.62-.47,1.33-1.01,1.89-.46,.47-.87,1.19-.65,1.76-.48,1.07-.88,1.94-1.28,2.82-.42,.72-1.33,1.05-1.58,1.97-.55,.18-.83,.7-1.27,1.01-.56,.4-.9,.95-1.25,1.51-.16,0-.32,0-.48,0-.2,.47-.46,.86-1,1.01-.24,.07-.49,.23-.66,.42-.83,.94-1.8,1.67-2.93,2.21-.1,.05-.12,.26-.18,.42h-1.95c-.21,.26-.44,.53-.62,.74h-.83c-.14,.14-.29,.29-.45,.45-.09,0-.21,.04-.31,.02-.64-.11-1.24,.07-1.81,.28-.29,.11-.56,.2-.87,.21-.68,.02-.88,.11-1.6,.72-.33-.1-.71,.05-1.16-.15-.43-.19-1.04-.18-1.5-.02-1.05,.35-2.1,.12-3.14,.13-.23-.41-.46,.25-.77,0-.24-.19-.63-.2-.96-.27-.3-.06-.61-.08-.9-.15-.36-.09-.7-.23-1.02-.34-.03-.14-.05-.24-.08-.36h-1.78c-.19-.24-.42-.52-.59-.74h-1.47c-.26-.3-.79-.24-.96-.83-.1-.34-.7-.54-1.08-.81-.63-.15-1.15-.52-1.61-.99-.63-.64-1.23-1.32-2.02-1.78-.19-.11-.42-.15-.7-.25-.1-.27-.23-.61-.39-1.05,.01,0-.09-.04-.27-.11-.12-.74-.72-1.23-1.29-1.84v-.31c-.82-1.06-1.79-1.98-1.69-3.43-.66-.83-1.06-1.81-1.63-2.7-.59-.91-.84-2.04-1.24-3.08-.04-.1-.03-.24-.1-.32-.24-.28-.23-.66-.1-.88,.52-.91-.14-1.48-.52-2.45v-1.9c.7-.43,1.15-1.15,1.81-1.77,1.12,.27,1.99-.76,3.13-.73l.93-.93h.89c.32-.22,.6-.42,.91-.64v-.4c.22-.19,.43-.36,.64-.54,.26,.13,.62,.31,1.03,.52,.01,.1,.03,.29,.03,.27,.47,.59,.86,1.03,1.19,1.51,.26,.37,.5,.71,.54,1.23,.03,.41,.57,.76,.68,1.26,.05,.25,.22,.47,.45,.92v1.05c.14,.04,.25,.07,.37,.1,.35,1.11,1.26,1.94,1.72,2.97,.47,1.05,1.12,2.01,1.5,3.11,.3,.26,.59,.53,.84,.74,.27,.13,.53,.2,.73,.36,.13,.1,.14,.41,.27,.46,.75,.28,1.18,.96,1.82,1.36,.21,.13,.49,.15,.82,.23,.57-.52,1.18,.43,1.89,.02,.11,.2,.21,.38,.27,.49,.46,.07,.78,.18,1.1-.08,.42-.34,.91-.34,1.42-.33,.92,.02,1.84,0,2.66,0,.55-.43,1.04-.81,1.54-1.2,.38,0,.78,0,1.18,0,.4-.4,.79-.79,1.19-1.19h.47c.18-.51,.74-.7,.91-1.29,.12-.4,.19-1.07,.86-1.18,.04-1.1,.67-1.96,1.22-3.13v-.62c.19-.37,.32-.6,.51-.96,.1-1.13,.2-2.41,.33-3.83,.06-.05,.25-.2,.4-.31-.03-1.03,.12-2.01-.42-2.91-.12-.21-.06-.54-.07-.81,0-.6,0-1.2,0-1.79-.23-.44-.45-.87-.72-1.37v-2.81c-.14-.13-.29-.26-.41-.37-.03-.11-.07-.18-.07-.25-.13-1.28-.15-2.59-.73-3.78-.07-.14-.22-.23-.43-.44-.06-1.19-.48-2.42-1.23-3.67,.23-1.04-.92-1.87-.72-3-.17-.17-.31-.31-.47-.47-.01-.25-.02-.52-.03-.63-.7-.72-1.24-1.34-1.21-2.29-.14-.14-.28-.28-.46-.46,.03-.59-.16-1.12-.43-1.7-.37-.82-.83-1.58-1.22-2.37-.18-.36-.23-.79-.31-1.1-.22-.44-.4-.81-.58-1.17-.08-.02-.19-.04-.31-.06v-.78c-.26-.22-.53-.44-.74-.62v-.62c-.13-.05-.27-.09-.44-.15v-.64c-.53-.9-1.33-1.06-2.27-.96-.28,.27-.9,.23-.91,.85-.65,.33-1.34,.58-1.8,1.28h-1.64c-.34,.53-.98,.48-1.46,.75-.49,.28-.94,.63-1.39,.94h-1.31c-.19,.23-.42,.5-.59,.69-.92,.17-1.47,.7-2,1.25h-.48c-.15,.15-.29,.29-.47,.47h-1.6c-.45,.59-.84,1.09-1.27,1.65h-2.07c-.63,.42-1.27,.67-1.46,1.43-.54,.17-1.19,.23-1.65,.55-.5,.35-1.2,.35-1.51,.93-1.28,.05-2.22,.47-2.65,1.19h-.55c-.19,.23-.42,.51-.61,.73h-.57c-.57,.27-1.02,.55-1.51,.7-.5,.15-1.05,.16-1.57,.26-.25,.05-.69,.12-.71,.24-.11,.63-.72,.43-1.05,.69-.31,.24-.73,.34-1.11,.5-.12,.05-.8,.7-.94,.92h-.5c-.21-.22-.43-.44-.63-.66-.66-.75-.94-1.72-1.16-2.63-.26-1.08-.76-2.01-1.22-3.16v-1.21c-.03-.07-.04-.11-.07-.14-.14-.18-.37-.34-.42-.54-.14-.67-.22-1.36-.31-1.97,.55-.47,1.04-.86,1.49-1.28,.44-.42,.93-.67,1.59-.6,.04-.13,.09-.27,.16-.46,.64,.11,.98-.63,1.62-.62,.49,0,.68-.44,1.05-.61,.51-.23,1-.47,1.5-.72,.24-.12,.46-.26,.86-.48h.38c.71-.59,1.36-.87,1.98-1.23,.61-.36,1.44-.43,1.76-1.17h.55c.05-.14,.1-.28,.16-.46h1.05c.04-.14,.07-.25,.12-.45,.21-.02,.47-.04,.79-.07,.61-.5,1.27-1.05,1.95-1.6,.93-.26,1.87-.63,2.87-.79,.24-.04,1.02-.69,1.31-.97,.18-.17,.38-.38,.6-.44,.55-.14,1.12-.2,1.69-.29,.13-.22,.26-.44,.27-.46,.72-.29,1.28-.43,1.73-.73,.6-.4,1.26-.64,1.89-.94,.13-.06,.27-.12,.52-.23h.91c.19-.23,.42-.5,.63-.74h1c.49-.4,.93-.87,1.46-1.17,.55-.31,1.13-.6,1.83-.52,.4,.05,.81-.09,1.31-.16,0,0,.09,.08,.17,.15,.17-.2,.34-.4,.61-.72,0,0,.02-.2,.03-.25,.25-.24,.41-.41,.69-.67,.7-.2,1.61-.35,2.39-1.18,.8-.05,1.68-.35,2.36-1.22h.44c.12-.17,.25-.37,.38-.55Z"/>
    </g>
  </g>
</svg>
