<?xml version="1.0" encoding="UTF-8"?>
<svg id="Ebene_1" data-name="Ebene 1" xmlns="http://www.w3.org/2000/svg" width="100" height="100" viewBox="0 0 100 100">
  <path d="M42.36,46.59c-.5-.37-.76-1.11-1.57-1-.14-.15-.33-.27-.41-.45-.37-.84-.51-1.81-1.26-2.46,.01-1.02-.88-1.41-1.39-2.08-.11-.14-.02-.43-.01-.65-.86-.86-1.72-1.72-2.58-2.58,.2-1.25-1.62-1.47-1.4-2.73-.39-.39-.79-.77-1.17-1.17-.29-.31-.61-.62-.81-.99-.39-.71-.62-1.54-1.09-2.19-.44-.61-1.11-1.05-1.13-1.07-.5-1.03-.68-1.4-1.03-2.12,0-1.45,0-3.29,0-5.14,.23-.23,.47-.47,.89-.89,.76-.11,1.74,.02,2.7-.05,.16-.16,.31-.31,.47-.47,.2-.06,.39-.17,.59-.17,6.95,0,13.9,0,20.77,0,.29,.24,.52,.43,.74,.62,.2-.2,.35-.35,.57-.57h9.98c.13,.1,.37,.3,.67,.54,.2-.17,.42-.35,.68-.57,.92-.03,1.89-.07,2.91,.03v6.22c-.07,.1-.27,.34-.52,.67-.05,.42-.1,.94-.16,1.42-.85,.85-1.13-.23-1.84-.48-.25,.13-.61,.32-1.25,.66h-1.86c-.2-.2-.35-.35-.55-.55h-2.01c-.16,.14-.4,.34-.69,.59h-1.3c-.19-.18-.43-.4-.69-.63h-3.29c-.15,.14-.31,.29-.47,.45-.19,.07-.38,.19-.57,.2-.77,.02-1.54,0-2.29,0l-.6-.6c-.19,.14-.39,.29-.78,.58h-9.86c-.62,.53-.02,.61,.11,.81,.46,.7,1.29,1.07,1.56,2.01,.19,.66,.98,1.14,1.23,1.8,.17,.45,.43,.73,.71,1.03,.61,.64,1.5,1.15,1.8,1.91,.34,.86,.93,1.4,1.45,2.06,.17,.21,.12,.59,.17,.86,.38,.1,.68,.18,.98,.26,.58,1.22,.96,2.56,2.11,3.43,.54,.41,.61,1.14,.98,1.56,.52,.58,.33,1.52,1.12,1.88,.67,.31,.61,1.07,.92,1.6,.47,.79,.85,1.63,1.4,2.7,.41,.41,.97,1.12,1.68,1.63,.76,.55,.63,1.55,1.36,2.13,.55,.43,1.22,.82,1.33,1.76,.09,.8,1.43,1.03,1.28,2.11q2.53,2.53,3.35,4.69c.8,.76,1.68,1.6,2.4,2.28,.4,.96,.6,1.8,1.06,2.45,.5,.7,1.26,1.21,1.53,1.47,.47,1.14,.67,1.84,1.03,2.44,.28,.46,.76,.79,1.19,1.22v4.68c-.22,.24-.52,.55-.87,.93h-26.81c-.93,.26-1.33,1.35-2.31,.77-.25-.2-.49-.4-.9-.73h-9.25c-.14-.2-.26-.28-.26-.37,0-2.2,0-4.4,0-6.58,.59-.31,1.14-.59,1.88-.96h9.7c.23,.21,.47,.42,.7,.64,.16-.16,.31-.31,.55-.55,.87-.3,1.85,.06,2.68-.12,.34,.28,.56,.46,.78,.64,.21-.21,.36-.36,.57-.57h5.33c.15,.12,.39,.33,.69,.58h1.3c.4-.17,.59-.95,1.51-.45,.04,.04,.28,.26,.52,.48,.74-.1,1.52,.26,2.22-.24-.27-.78-1.41-1.03-1.24-2.1-.62-.61-1.25-1.22-1.87-1.85-.67-.68-1.27-1.36-1.71-2.27-.34-.71-.96-1.33-1.37-2.08-.4-.74-1.35-1.23-1.62-1.98-.29-.82-.93-1.18-1.4-1.74-.57-.67-1.24-1.26-1.94-1.96-.02-.35-.04-.77-.06-1.26-.24-.76-1.45-.97-1.31-2.04-.61-.63-1.23-1.25-1.82-1.9-.12-.14-.1-.39-.17-.59-.21-.58-.56-1.1-.84-1.63-.38-.75-1.19-1.28-1.81-1.9v-1.33Z"/>
</svg>