<?xml version="1.0" encoding="UTF-8"?>
<svg id="Ebene_1" data-name="Ebene 1" xmlns="http://www.w3.org/2000/svg" width="100" height="100" viewBox="0 0 100 100">
  <path d="M23.16,42.11c2.19-.43,3.53-2.06,5.61-2.08,.95-1.41,2.7-1.77,4.13-2.57,1.2-.67,2.4-1.23,3.39-2.23,.65-.66,1.72-.82,2.29-1.7,1.07,.06,1.94-.57,2.91-.9,.54-1.01,2-.06,2.49-1.19h1.31c.48-.46,.95-.91,1.43-1.37h1.29c.55-.46,.2-1.05,.32-1.58-.21-.23-.43-.47-.66-.73v-6.6c.21-.23,.44-.47,.66-.71,0-.33,0-.66,0-.99,.44-.92,.9-1.84,1.31-2.77,.08-.18,.01-.44,.01-.47,1.33-1.33,2.57-2.57,4.01-4.01-.18,0,.04,0,.27-.01,.23-.21,.47-.44,.71-.66h1.29c.25-.23,.49-.45,.69-.64h5.06c1.13,.58,2.05,1.05,3.22,1.65,.72,.72,1.65,1.65,2.59,2.59,.02,.21-.05,.54,.06,.62,.72,.55,.54,1.63,1.3,2.11v4.62c-.17,.17-.33,.33-.48,.48-.32,.62-.1,1.28-.18,2.03-.4,.5-.91,1.05-1.3,1.67-.33,.51-.52,1.1-.96,2.09-1.16,1.11-2.65,2.55-4.15,3.99-1.2-.05-1.41,1.69-2.74,1.4,.01,.72,.61,.88,.9,1.26,.27,.35,.81,.59,.88,.95,.11,.58,.31,1.01,.75,1.36,.76,.61,.67,1.83,1.64,2.3,.21,.8,.68,1.51,1.07,2.2,.45,.8,.81,1.67,1.46,2.41,.66,.75,1.06,1.75,1.42,2.7,.33,.86,.95,1.55,1.1,2.54,.12,.87,.74,1.67,1.27,2.77,0,.11,0,.55,0,.99,.16,.16,.31,.31,.47,.47,.06,.19,.18,.39,.18,.58,.02,.77,0,1.54,0,2.26l.59,.59v10.76c-.15,.15-.31,.31-.52,.52v3.09c-.58,1.11-1.23,2-1.45,3.2-.22,1.16-.98,2.23-1.53,3.33-.38,.75-.61,1.61-1.4,2.06-.82,.47-.87,1.44-1.41,2.07-.58,.67-1.24,1.26-1.86,1.88-.94-.13-1.22,.8-1.85,1.15-.54,.3-1.25,.35-1.58,.96-.36,.65-1.2,.4-1.61,.93-.42,.54-1.02,.19-1.59,.32-.19,.18-.43,.39-.69,.63h-1.94c-.25,.23-.49,.45-.72,.66h-3.31c-.17-.17-.32-.32-.58-.58-1.28-.2-2.71,.05-3.81-.09-1.52-.78-2.79-1.44-4.28-2.2-1.21-1.21-2.61-2.61-4.22-4.22-.06-.19-.28-.65-.51-1.11-.29-.56-.45-1.21-1.01-1.55-.64-.39-.32-1.23-.92-1.63-.46-.3-.23-.95-.66-1.4-.38-.39-.47-1.12-.94-1.63v-1.88l-.57-.57v-6.61c.35-.63,.76-1.35,1.25-2.24v-.97c.32-.55,.57-.99,1.03-1.79,.46-.48,1.22-1.27,1.6-1.66,1.76-.89,3.03-1.54,4.58-2.32h5.05c.16,.13,.4,.34,.69,.59h1.17c1.73,1.01,2.08,2.93,3.1,4.37,.21,.29,.03,.86,.03,1.3,.16,.16,.32,.32,.63,.63,.08,.8,.04,1.77,0,2.72-.17,.17-.32,.32-.57,.57-.03,.65-.07,1.39-.1,2-.37,.42-.66,.75-.91,1.03h-1.38c-.32-.32-.64-.64-.97-.97v-1.96c-.23-.25-.45-.49-.68-.73v-1.01c-.62-1.43-1.27-2.52-2.38-3.27h-1.28c-.17,.17-.33,.33-.56,.56-.43,.04-.96,.1-1.45,.15-.33,.32-.65,.63-.96,.93v.75c-.37,.13-.75,.26-1.13,.39-.06,.08-.18,.17-.18,.25,0,2.42,0,4.85,0,7.13,1.35,1.76,1.55,4.07,3.32,5.36v.79c.36,.13,.75,.26,1.21,.41,.06,.26,.12,.57,.19,.88,1.45,.71,2.92,1.44,4.66,2.3h1.56c.28,.23,.5,.41,.72,.58l.52-.52c2.66-.11,2.9-.18,4.73-1.41h1.36c.91-.92,1.77-1.94,2.79-2.78,.94-.78,.8-2.32,2.13-2.67-.27-1.27,.48-2.15,.96-3.01,.36-.64,.32-1.21,.4-1.81,.23-.25,.45-.49,.63-.69v-12.6l-.57-.57v-1.73c-.67-1.08-1.02-2.18-1.6-3.13-.91-1.5-1.56-3.12-2.4-4.65-.66-1.21-1.24-2.39-2.23-3.39-.65-.66-.83-1.71-1.66-2.28,.03-1.11-1.19-1.46-1.46-2.38-.3-1.01-1.14-1.49-1.92-2.23-.38,.26-.72,.49-1.17,.79h-1.17c-.48,.46-.95,.91-1.42,1.35h-1.67c-1.03,.51-2.13,.94-2.91,2.02h-2.86c-.09,.41-.15,.71-.22,1.04-.42,.49-1.01,.15-1.55,.26-.22,.2-.46,.42-.7,.65-1.15-.27-1.98,.53-2.91,.95-.65,.3-1.24,.94-1.89,.99-.8,.05-1.37,.46-2.05,.69-.49,.17-1.09,.03-1.69,.03-.21,.19-.46,.4-.74,.64h-1.26c-.48,.46-.95,.91-1.42,1.35h-1.02c-.67,.23-1.22,.69-2.03,.73-.66,.03-1.25,.58-2.04,.68-.65,.08-1.25,.74-2.28,.54-.36-.45-.84-1.04-1.5-1.85v-1.14c.18-.18,.44-.66,.79-.76,.89-.23,1.53-.74,1.96-1.48h1.63c.52-.66,1.14-1.43,1.56-1.96Zm31.13-22.28c0,1.99,0,3.98,.01,5.96,0,.08,.15,.15,.27,.27h1.44c.46-.46,.8-1.11,1.25-1.18,.87-.14,1.44-.83,2.25-.98,.08-.31,.16-.61,.28-1.06,.54-.5,1.19-1.09,1.77-1.63v-1.99c-.58-.61-1.11-1.17-1.61-1.7h-4.02c-1.16,.34-.7,1.83-1.64,2.31Z"/>
</svg>