<?xml version="1.0" encoding="UTF-8"?>
<svg id="Ebene_2" data-name="Ebene 2" xmlns="http://www.w3.org/2000/svg" width="22mm" height="27.52mm" viewBox="1 -11 60 100">
  <g id="Ebene_1-2" data-name="Ebene 1">
    <g id="Joscco_3">
      <path d="M39.39,77.09c-.04,.19-.06,.3-.09,.47-.43-.12-.86,.13-1.25-.23-.13-.12-.56-.14-.68-.02-.47,.47-1.15,0-1.64,.43-.12,.11-.55-.13-.9-.23-.25,.13-.55,.28-.97,.5-1.29,.07-2.63-.34-4.14-.64-.57,.11-1.3,.32-2.05,.39-.73,.06-1.38-.34-1.97-.72-.84-.55-1.74-.74-2.72-.7-.5-.4-1.06-.58-1.71-.47-.46-.7-1.49-.44-1.89-1.2h-1.01c-.42-.53-1.07-.89-1.36-1.55-.35-.17-.71-.36-1.24-.62h-.75c-.25-.26-.65-.34-.77-.72-.49,.03-.44-.46-.66-.69-.23-.24-.54-.4-.81-.59-.28-.2-.56-.4-.83-.59-.27-.19-.71-.34-.78-.59-.15-.54-.63-.62-.95-.91-.41-.37-.89-.62-1.18-1.15-.19-.36-.57-.62-.96-.78-.23-.54-.42-1.11-.71-1.62-.28-.49-.44-1.11-1.07-1.34-.15-.68-.84-.91-1.1-1.48-.34-.61-.68-1.23-1.02-1.84-.08-.13-.31-.26-.28-.35,.17-.74-.54-1.07-.73-1.87v-.75c-.13-.12-.41-.28-.4-.39,.08-.55-.48-.77-.57-1.22-.16-.8-.36-1.59-.19-2.45-.61-.27-.57-.89-.74-1.37-.16-.45-.15-.97-.23-1.46-.18-1.11-.39-2.23-.29-3.37,.06-.71,.01-1.44,.01-2.23-.15-.11-.34-.26-.45-.34-.11-.52,.16-1-.27-1.33,.49-1.3,.11-2.66,.27-4.03,.73-1.17,.46-2.45,.31-3.89,.25-.19,0-.69,.17-1.04,.21-.46,.2-.9,.21-1.35,0-.44,0-.88,0-1.32v-1.31c.15-.15,.29-.29,.43-.43,.1-.53,.11-1.08,.31-1.56,.22-.49,.19-.97,.22-1.47,.01-.18,.05-.39,.15-.53,.53-.7,.57-1.61,1.03-2.34,.05-.08,0-.24,0-.45,.23-.18,.5-.41,.73-.58v-.6c.14-.05,.28-.1,.47-.16-.06-.49,.16-.92,.36-1.37,.29-.64,.63-1.26,.85-1.93,.03-.09,.13-.15,.21-.22,.69-.6,.96-1.38,1.01-2.33,.2-.16,.41-.39,.68-.55,.48-.28,.89-.62,1.05-1.16,.11-.37,.49-.47,.66-.79,.18-.34,.39-.65,.84-.74,.15-.03,.21-.38,.36-.54,.09-.1,.26-.12,.4-.19,.02-.02,.07-.05,.07-.08,0-.32,0-.64,0-.86,1.03-.85,2.01-1.65,3.14-2.57-.03,0,.16,0,.28,0,.33-.41,.61-.77,.91-1.11,.31-.35,.74-.48,1.18-.63,.52-.18,1-.51,1.44-.84,.09-.07,.05-.33,.33-.35,.25-.02,.52-.1,.74-.24,.42-.27,.8-.59,1.25-.93h.84c.92-.75,2.15-1.05,2.65-2.18,1.12-.04,2.19,.14,3.21-.24,.14-.14,.27-.29,.44-.47h.86c.88-.42,1.62-.76,2.59-1.22,.6,0,1.48-.03,2.36,0,.8,.04,1.6,.16,2.36,.24,.36-.25,.68-.46,1.06-.72,.57-.03,1.21-.07,1.78,.39,.13,.1,.37,.08,.56,.08,.76,0,1.52,0,2.28,0,.26,0,.54-.09,.78,.16,.1,.1,.45,.12,.54,.03,.5-.49,1-.18,1.37,.07,.48,.31,1.03,.16,1.51,.43,.2,.11,.49,.06,.74,.24,.22,.17,.56,.22,.85,.25,.48,.04,.96,.01,1.56,.01,.08,.13,.2,.33,.29,.48,.83,0,1.57-.11,2.26,.03,.63,.14,1.2,.55,1.84,.87,0,.03,.03,.14,.06,.29,.14-.09,.25-.16,.42-.27,.49,.28,1.01,.57,1.72,.97h1.04c.57,.76,1.81,.58,2.13,1.68,.16,.01,.35,.03,.57,.04,.03,.1,.06,.2,.08,.28,.41,.27,.81,.55,1.22,.8,.22,.13,.46,.28,.7,.33,1.07,.19,1.61,.9,1.94,1.82-.27,.51-.61,.95-.72,1.44-.11,.51-.22,1-.63,1.29-.49,.35-.21,1.12-.84,1.3v.68c-.25,.37-.56,.66-.66,1.01-.12,.42-.61,.47-.7,.89-.07,.36-.27,.69-.45,1.15-.05,0-.24,.02-.44,.04-.8,.57-1.19,1.42-1.44,2.36-.11,.03-.22,.06-.38,.1,.06,.51-.19,.79-.68,1-.32,.14-.72,.22-.88,.08-.4-.35-.84-.09-1.22-.27-1.22-.54-2.2-1.58-3.62-1.63-.06-.17-.11-.31-.17-.48h-1.04c-.06-.18-.11-.32-.16-.46h-.52c-.21-.23-.43-.46-.63-.66-.11-.03-.19-.07-.26-.06-.48,.07-.9-.1-1.32-.29-.6-.28-1.19-.61-1.81-.83-.36-.13-.77-.08-1.29-.12-.04-.12-.13-.36-.14-.4-4-.15-5.51-.1-6.16,.19-.04,0-.1,.02-.12,0-.27-.32-.64-.22-.98-.24-.56,1.01-1.91,.73-2.56,1.59-.95,.31-1.86,.73-2.82,.86-.04,.19-.06,.3-.09,.44-.64-.03-1.27-.04-1.75,.49-1.04-.15-1.74,.35-2.28,1.21-.27,.43-.66,.77-1,1.16h-1.28c-.14,.19-.3,.41-.57,.77,0-.01-.02,.18-.05,.4-.11,.02-.28,0-.32,.05-.6,1.01-1.9,1.5-2.07,2.83-.37,.12-.73,.24-1.07,.36-.15,.23-.32,.48-.57,.86v.88c-.54,.61-1.07,1.18-1.56,1.79-.18,.22-.29,.52-.37,.8-.11,.4-.08,.86-.27,1.21-.23,.42-.25,.95-.71,1.28-.36,.26-.7,1.59-.7,2.21,0,.54,.06,1.08-.24,1.58-.09,.15-.25,.44-.21,.48,.48,.45,0,1.08,.32,1.56,.1,.15,.13,.36,.13,.54,.01,1.07,0,2.15,0,3.18-.18,.18-.33,.33-.47,.47v1.2c.15,.16,.32,.33,.47,.5v1.81c0,.16,.01,.32,0,.48-.2,1.88,.11,1.63,.62,2.91,.15,.37,.74,.42,.59,.94,.7,.56,.44,1.61,1.12,2.18-.1,.9,.88,1.41,.82,2.31-.01,.15,.2,.31,.28,.48,.1,.2,.16,.41,.33,.85,.21,.15,.62,.44,1.02,.74,.13,.09,.23,.22,.34,.34,1.02,1.14,.91,1.23,3.14,2.21,.3,.59,.99,.34,1.41,.66,.43,.32,.8,.77,1.27,.99,.53,.24,1.04,.63,1.71,.52,.39-.06,.79-.01,1.23-.01,.14,.22,.27,.45,.45,.73h2.2c.03,.15,.05,.26,.08,.38,.02,.02,.06,.07,.07,.07,.73-.25,1.4,.63,2.22,.06,.32-.22,.93-.04,1.5-.04,.11,.14,.25,.33,.37,.5,1.15-.39,2.13-1.17,3.39-.96,.25,.23,.44,.58,.88,.46,.93-1.29,2.3-1.25,3.51-1.19,.62-.27,1.11-.44,1.56-.7,.47-.27,.94-.46,1.51-.52,.04-.11,.09-.25,.09-.27,.57-.31,1.06-.58,1.64-.9h1.39c.62-.98,1.59-1.58,2.68-2.01,.34-.13,.7-.25,1.03-.42,.14-.07,.21-.26,.33-.44,.14-.02,.33-.04,.53-.06,.05-.14,.11-.27,.18-.45h1.23c.18-.18,.33-.33,.45-.45,.56,.24,1.06,.56,1.6,1.15,.02,.25,.03,.67,.38,1.08,.44,.51,.62,1.25,1.01,2.12,.42,.35,.78,1.04,1.03,1.82,.11,.34,.52,.58,.85,.93,.27,.93,.57,1.97,.85,2.92-.64,1.12-1.72,1.7-2.35,2.69h-.55c-.01,.19-.02,.37-.04,.58-.59,.24-1.12,.66-1.49,1.12-.39,.48-.83,.66-1.35,.75-.03,.15-.05,.26-.06,.26-.74,.34-1.44,.6-2.08,.96-.84,.47-1.68,.95-2.54,1.39-.35,.18-.66,.17-.76,.19-.64,.36-1.08,.66-1.56,.86-.71,.31-1.44,.59-2.17,.83-.71,.23-1.31,.7-2.07,.81-.16,.02-.28,.27-.4,.4h-.98c-.39,.49-1.36,.29-1.35,1.31-.51-.2-.92-.36-1.35-.52-.42,.5-1.13,.36-1.7,.45Z"/>
    </g>
  </g>
</svg>
