<?xml version="1.0" encoding="UTF-8"?>
<svg id="Ebene_1" data-name="Ebene 1" xmlns="http://www.w3.org/2000/svg" width="100" height="100" viewBox="0 0 100 100">
  <path d="M33.56,79.14c-.75-.38-1.3-.66-1.85-.94-.46-.23-.91-.46-1.37-.7v-6.69c.28-.25,.61-.54,.95-.84,.28,.18,.61,.39,1.06,.67,.33-.25,.66-.5,1.01-.75,.12,.12,.27,.28,.57,.6,.81,.08,1.77,.03,2.71,0,.27-.23,.51-.45,.73-.65,.94,.11,1.66,1.09,2.69,.56,.16-.16,.31-.31,.51-.51,.22,.19,.45,.37,.72,.6h12.52c.25,.23,.49,.45,.74,.68h1.3c.23-.21,.46-.42,.7-.64,.38,.38,.7,.89,1.37,.58,.08-.08,.22-.15,.22-.23,.01-4.41,0-8.82,0-13.22,.24-.26,.46-.5,.69-.75v-1.96c-.23-.24-.45-.48-.63-.67-.22-.71,.36-1,.63-1.37v-1.83c-.14-.18-.33-.43-.65-.86V29.69c-.81-.51-1.59-.22-2.33-.27-.66-.04-1.32,0-1.97,0-.24,.22-.47,.43-.7,.64-.17-.17-.33-.33-.56-.56h-3.44c-.26,.22-.51,.42-.86,.71-.35-.21-.7-.43-1.16-.71h-2.66c-.23,.23-.39,.39-.57,.57h-5.31c-.2-.19-.44-.41-.68-.63-.23,.21-.47,.43-.68,.63h-5.96c-.33-.33-.64-.64-.97-.97v-6.03c.27-.23,.6-.52,1.05-.9h1.13c.26-.23,.51-.43,.8-.68h6.54c.25-.23,.49-.45,.75-.68h14.53c.25-.23,.48-.45,.7-.65,.68-.22,1,.31,1.37,.66h7.19c.63,.59,1.19,1.12,1.73,1.62v13.95c.16,.16,.32,.32,.49,.49,.32,.71,.15,1.46,.11,2.2-.16,.16-.31,.31-.54,.54v4.03c.08,.1,.27,.35,.54,.69v11.24c-.12,.14-.32,.39-.58,.7v1.3c.16,.18,.37,.42,.61,.69v15.88c-.19,.21-.41,.45-.64,.7v3.31c-.31,.3-.63,.61-.98,.96h-1.25c-.26,.23-.5,.44-.76,.68h-8.59c-.22-.2-.46-.43-.69-.65h-3.29c-.25,.23-.49,.45-.83,.76-.34-.17-.7-.35-1.41-.69h-3.82c-.16,.16-.32,.32-.54,.54-.21-.17-.43-.35-.72-.58h-4.53c-.26-.23-.5-.44-.76-.67-.22,.2-.45,.41-.69,.63h-3.71Z"/>
</svg>