<?xml version="1.0" encoding="UTF-8"?>
<svg id="Ebene_1" data-name="Ebene 1" xmlns="http://www.w3.org/2000/svg" width="100" height="100" viewBox="0 0 100 100">
  <path d="M49.42,41.93c-1.61,.62-2.24,2-3.62,2.81,.03,0-.18,.02-.47,.05-.2,.41-.42,.85-.64,1.29-.23,.01-.45,.02-.41,.02-1.36,1.36-2.58,2.58-3.8,3.8,.4,.4,.86,.87,1.4,1.4,.23,.05,.53,.11,.84,.18,.44,.66,.44,1.75,1.46,1.89,.65,.09,.93,.52,1.3,.88,1.42,1.39,2.81,2.82,4.24,4.2,.2,.2,.56,.23,1.02,.4,1.97,1.96,4.08,4.06,6.19,6.17,2.68,1.22,4.08,3.87,6.03,5.35,2.28,1.05,3.26,3.04,5.05,4.26h.51c.56,.41,.24,1.01,.31,1.41-2.61,2.61-5.17,5.18-7.74,7.74-1.29-1.29-2.67-2.72-4.11-4.09-.76-.72-1.3-1.78-2.53-1.89-.69-.79-1.77-1.29-1.65-2.52h-.87c-.95-.95-1.84-1.94-2.84-2.81-.97-.84-1.65-1.94-2.91-2.55-1.13-.55-1.96-1.69-2.95-2.58-.18,0-.39-.02-.61-.03-.54-.7-.48-1.88-1.78-2-.44-.04-.84-.63-1.22-1.01-1.18-1.16-2.35-2.34-3.52-3.51-.55-.55-1.15-1.05-1.62-1.65-.43-.56-1.34-.23-1.61-.93-.33-.87-1.63-.43-1.85-1.5-.14-.68-.61-1.29-.93-1.93-.22,0-.44-.02-.82-.04-.29-.32-.6-.8-1.04-1.11-.52-.37-.41-.95-.65-1.38-.33-.09-.63-.17-.91-.24-.49-1.01-.98-2.01-1.55-3.17,1.24-1.24,2.56-2.56,3.89-3.89,.08-.24,.18-.53,.27-.8h.82c.65-.67,1.42-1.33,2.01-2.11,.81-1.07,2.21-1.27,3.05-2.31,.83-1.03,1.85-1.89,2.79-2.83,.94-.94,1.9-1.85,2.8-2.82,.59-.64,1.54-.66,2.1-1.38,.54-.69,1.23-1.26,1.86-1.89,.62-.62,1.25-1.25,1.87-1.87,.22-.01,.43-.03,.71-.04,.2-.43,.42-.88,.62-1.32h.7c.39-.39,.74-.83,1.18-1.15,.32-.23,.76-.29,1.13-.42v-.72c.51-.55,1.34-.54,1.85-1.17,.69-.86,1.54-1.58,2.32-2.36,.7-.7,1.38-1.44,2.12-2.1,.62-.56,1-1.5,2.06-1.41,.69-.69,1.37-1.38,2-1.99,.38,.11,.64,.1,.76,.23,2.28,2.25,4.54,4.52,6.8,6.78v1.33c-.47,.8-1.41,.91-2.05,1.43-.77,.62-1.42,1.39-2.12,2.09-.62,.62-1.23,1.27-1.89,1.86-.21,.19-.56,.23-1.1,.43-.5,.51-1.2,1.22-1.89,1.93-.7,.71-1.51,1.33-2.08,2.13-.61,.86-1.68,.9-2.34,1.61-.6,.65-1.24,1.26-1.87,1.88-.7,.7-1.41,1.41-2.11,2.11-.7,.7-1.31,1.64-1.97,1.9Z"/>
</svg>