<?xml version="1.0" encoding="UTF-8"?>
<svg id="Ebene_1" data-name="Ebene 1" xmlns="http://www.w3.org/2000/svg" width="100" height="100" viewBox="0 0 100 100">
  <g id="o">
    <path d="M72.22,36.33c.16,.16,.31,.31,.58,.59v1.99c.27,.27,.43,.43,.7,.7v2.65c.27,.27,.43,.43,.7,.7v3.32c.27,.27,.43,.43,.59,.59v10.1c-.23,.23-.39,.39-.57,.57v5.26c-.23,.25-.45,.49-.68,.74-.08,.6,.11,1.22-.43,1.81-.46,.5-.9,1.3-.83,1.92,.09,.89-.71,1.28-.75,2.05-.1,1.81-1.61,3.07-2.01,4.8-.11,.46-.68,.86-1.13,1.17-.68,.46-.63,1.32-1.17,1.84h-.65c-.79,.79-1.64,1.51-2.33,2.36-.77,.94-1.99,1.18-2.84,2.05-.68,.69-1.92,.7-2.73,1.46-.7,.07-1.62-.09-2.13,.29-.62,.46-1.18,.44-1.85,.46-.22,.2-.46,.42-.73,.65h-9.25c-.15-.14-.31-.28-.68-.63-.73-.13-1.71,.06-2.69-.06-.14-.14-.29-.29-.53-.53-1.66,.04-2.95-1.12-4.43-1.81-.65-.3-1.45-.43-1.84-1.16-.35-.65-1.24-.28-1.63-.92-.12-.2-.56-.2-.99-.33-.65-.7-1.68-1.38-2.08-2.33-.42-.99-1.2-1.47-1.78-2.18-.25-.02-.46-.04-.67-.06-.86-1.74-1.76-3.47-2.57-5.24-.42-.93-1.19-1.73-1.06-2.89,.02-.23-.37-.5-.61-.8v-3.23c-.23-.25-.45-.49-.68-.73v-4.64c-.15-.15-.31-.3-.46-.44-.07-.21-.2-.4-.2-.6-.01-3.64,0-7.28,0-10.89,.18-.18,.34-.34,.61-.61v-2.65c.27-.27,.43-.43,.58-.59,.4-1-.02-2.07,.41-3.14,.69-1.72,1.35-3.43,2.35-5.04q-.68-1.86-1.92-3.18v-1.42c-.45-.34-.97-.74-1.37-1.05v-1.62c-1.5-.8-1.51-2.66-2.61-3.93v-1.84c-.23-.26-.44-.51-.68-.79v-2.63c.49-.26,1.02-.53,1.63-.85,.32,.17,.75,.4,1.56,.83-.19-.18,.04-.07,.09,.1,.49,1.69,1.6,3.08,2.23,4.71,.14,.37,.53,.66,.44,1.14,1.1,.75,1.33,2.17,2.32,3.03,.28,.24,.33,.73,.49,1.12,.49,.33,1.03,.14,1.56,.12,.31-.31,.62-.63,.94-.94v-.67c.78-.52,1.14-1.51,2.28-1.72,.74-.14,1.04-1.39,2.09-1.32,.65-.75,1.63-.85,2.45-1.28,.73-.38,1.44-.82,2.29-1.31h1.79c.25-.23,.49-.45,.74-.68h1.95c.26-.23,.5-.45,.69-.63h8.65c.35,.51,.8,.75,1.4,.64,.51-.09,.75,.31,1.11,.54,.42,.27,.93,.41,1.76,.75h2.18c.8,.76,2,.87,2.6,1.84,1.04,.16,1.62,.97,2.3,1.64,.79,.77,1.53,1.6,2.35,2.33,.66,.58,.52,1.61,1.38,2.11,.64,.38,1.11,1.06,1.72,1.67v1.7c.71,1.34,1.34,2.53,2.05,3.86v1.12Zm-17.56,39.45c.92-1.07,2.42-.96,3.26-1.95,1.27,.23,1.46-1.64,2.73-1.4,.32-.64,.63-1.28,.96-1.92,.14-.27,.24-.61,.46-.8,.86-.71,1.1-1.75,1.51-2.69,.21-.47,.88-.72,.68-1.37-.23-.75,.48-1.13,.68-1.71,.17-.48,.44-.92,.65-1.35,0-.36,0-.69,0-1.02,.22-.24,.44-.48,.67-.72v-1.95c.23-.25,.45-.49,.68-.74v-1.94l.57-.57v-6.78c-.16-.16-.32-.32-.59-.59v-3.89c-.33-.43-.52-.68-.66-.86v-1.81c-.19-.21-.45-.42-.61-.69-.18-.3,.15-.86-.53-.95-.58,1.1-1.9,1.25-2.75,2.09-.87,.86-2.24,1-3.26,1.85h-1.8c-.33,.26-.58,.46-.85,.68h-2.54c-.22,.22-.38,.38-.52,.52h-2.82c-.24-.24-.39-.39-.55-.55-.43,.27-.7,.88-1.34,.63-.25-.23-.49-.46-.74-.68h-3.49c-1.58-.54-2.51-1.48-3.86-1.42-.39-.39-.78-.78-1.19-1.19h-1.95c-.41-.35-.73-.86-1.38-.68-1.15-1.45-2.76-2.24-4.36-3.06-.24-.12-.32-.29-.48-.06-.23,.23-.47,.47-.7,.7q-.14,2.14-1.42,4.09c0,4.04,0,8.12,0,12.2,0,.19,.12,.39,.19,.59,.15,.15,.31,.3,.46,.45v3.31c.23,.24,.45,.48,.68,.73v1.25c.24,.3,.66,.6,.61,.79-.28,1.15,.98,1.92,.7,3.04,.71,.91,.98,2.12,1.97,2.84,.11,.08-.08,.51,.04,.63,.37,.4,.59,.81,.73,1.37,.12,.46,.72,.79,1.11,1.18,.55,.55,1,1.35,1.66,1.58,.88,.3,1.43,.89,2.04,1.47,.85-.24,1.17,.97,2.02,.73,.51,.75,1.27,.73,2.02,.67,.25,.23,.49,.45,.69,.63h7.93c.28-.24,.52-.45,.74-.64h1.93Zm-1.98-36.47c.29,0,.65,.09,.94-.02,.67-.25,1.41-.47,1.92-.93,.5-.45,1.3-.23,1.63-.9,.36-.74,1.34-.58,1.79-1.18,.01-.22,.03-.44,.06-.95,.36-.25,.9-.62,1.33-.92v-1.89c.33-.61,.53-.97,.72-1.31-.3-.34-.51-.59-.76-.86v-1.23c-.45-.74-1.27-1.09-1.45-2.11-.18-1.03-1.64-.86-2.26-1.64h-1.94c-.26-.24-.5-.45-.69-.63h-6.6c-.29,.25-.54,.46-.82,.69-1.46-.54-2.57,.83-3.96,.74-1.16,.89-2.56,1.28-4.27,2.28-1,1-2.41,2.41-3.81,3.81,.93,1.67,2.81,2.03,4.36,3.05h1.16c.48,.46,.95,.91,1.4,1.33,.98,.08,5.13,1.46,5.92,1.96h4.57c.25,.23,.49,.45,.77,.69Z"/>
  </g>
</svg>