<?xml version="1.0" encoding="UTF-8"?>
<svg id="Ebene_1" data-name="Ebene 1" xmlns="http://www.w3.org/2000/svg" width="100" height="100" viewBox="0 0 100 100">
  <path d="M62.92,19.16c.24,.22,.47,.43,.7,.64l.56-.56h11.34c.37,.33,.7,.61,.9,.79-.48,1.31-1.21,2.35-2.27,3.11-.21,.01-.43,.03-.71,.05-.13,.36-.26,.74-.4,1.13-.38,.13-.77,.27-1.14,.4v.72c-1.08,1.2-2.34,2.19-3.09,3.7-.4,.81-1.25,1.43-2.22,1.62-.01,.27-.02,.49-.03,.66l-1.66,1.66h-1.29c-.84-.45-.99-1.37-1.41-2.08-.41-.7-.47-1.67-1.57-1.91-.39,.22-.83,.47-1.4,.78-.31-.24-.64-.5-.97-.76h-1.29c-.17,.17-.32,.32-.59,.59-.19-.14-.39-.29-.78-.58h-13.18c-.27-.27-.43-.43-.61-.61h-4.32c.91,2.02,2.01,3.82,2.8,5.77,.97,.48,.05,1.66,.9,2.31,.49,.38,.57,1.28,.9,1.91,.34,.65,.67,1.24,.72,2.05,.04,.51,.44,1.18,.8,1.61,.49,.58,.36,1.5,1.12,1.88-.29,1.8,1.57,2.95,1.45,4.72-.02,.24,.47,.48,.52,.76,.09,.54,.03,1.1,.03,1.65-.61,1.08-1.39,2.06-1.38,3.43,0,.39-.55,.79-.69,1.36-.11,.43-.66,.8-.63,1.38-.86,.46-.41,1.38-.72,2.02-.32,.65-1.06,1.22-1.08,1.85-.02,.85-1.08,1.16-.79,2.02-.75,.39-.51,1.39-1.16,1.84-.12,2.04-1.67,3.51-2.18,5.4-.08,.28-.41,.5-.62,.74,.15,.1,.32,.31,.49,.32,.87,.03,1.73,.02,2.47,.02,.28-.28,.44-.44,.6-.59,.33,.22,.65,.44,1.08,.73,.35-.27,.68-.52,1.08-.83,.59-.21,.84,.45,1.29,.69,.33,0,.66,0,1.11,0,.26-.18,.59-.42,1.06-.75,.3,.17,.65,.37,1.2,.69h3.91l.57-.57h4.65c.19,.17,.43,.38,.69,.62h3.28c.38-.47,.94-.75,1.09-1.52,.1-.52,.41-1.34,.82-1.58,.66-.4,.05-1.43,.96-1.53,.2,.05,.47,.02,.6,.15,1.27,1.23,2.52,2.48,3.76,3.74,.52,.52,1.19,.95,1.2,1.83,0,.08,.35,.15,.53,.25,.27,.14,.57,.27,.8,.46,.74,.62,.77,1.72,1.63,2.33,.8,.57,1.43,1.38,2.13,2.08,.7,.7,1.39,1.39,2.09,2.09-.33,.33-.64,.64-.98,.98h-5.93c-.25,.23-.49,.45-.73,.68h-3.95c-.24-.23-.48-.45-.82-.77-.34,.16-.7,.34-1.43,.69h-1.73c-.08-.06-.33-.26-.63-.49-.68-.14-1.44-.34-1.98,.53h-21.91c-.17-.15-.42-.36-.69-.61h-1.3c-.21,.19-.45,.42-.69,.64h-1.96c-.24-.22-.47-.43-.7-.64-.17,.17-.33,.33-.56,.56h-6.79c-.47-.58-.18-1.26-.24-1.89-.05-.55,0-1.1,0-1.66,.22-.24,.44-.48,.66-.72,0-.33,0-.66,0-1.02,.21-.44,.48-.88,.65-1.36,.21-.58,.9-.96,.68-1.71-.19-.65,.53-.87,.68-1.38,.14-.48,.53-.91,.62-1.39,.13-.73,.95-1.15,.72-2.05-.17-.64,.89-.94,.67-1.69,.85-.46,.33-1.54,.75-1.98,.77-.79,.45-1.63,.58-2.77,.33-.22,.88-.59,1.23-.83,.06-1.05-.09-1.86,.72-2.33-.38-.88,1.06-1.14,.68-2.05-.31-.74,.76-1,.67-1.71-.04-.31-.05-.69,.08-.95,.32-.65,.73-1.25,1.19-2v-2.48c-.39-.69-.8-1.41-1.29-2.26v-2.26c-.66-1.27-1.23-2.37-1.93-3.73v-1.45c-.52-.99-1.06-1.77-1.34-2.64-.15-.47-.65-.69-.67-1.04-.04-.78,0-1.52-.7-2.04,.14-.89-1.18-1.38-.66-2.38-.38-.63-.86-1.22-.67-2.05,.02-.08-.07-.19-.12-.28-.39-.61-1.04-1.2-1.1-1.84-.07-.73-.9-1.05-.73-1.69,.24-.89-.62-1.31-.71-2.05-.03-.28-.29-.54-.57-1.03v-3.41c.95-.34,1.95,.04,2.98-.21,.16-.15,.4-.37,.61-.57h1.3c.27,.24,.52,.45,.85,.75,.41-.21,.84-.43,1.26-.65,.16,.16,.31,.31,.47,.47h8.77c.23-.23,.39-.39,.56-.56,.23,.21,.46,.42,.7,.64h21.84Z"/>
</svg>