<?xml version="1.0" encoding="UTF-8"?>
<svg id="Ebene_2" data-name="Ebene 2" xmlns="http://www.w3.org/2000/svg" width="25.73mm" height="25.82mm" viewBox="0 -13 72.95 100">
  <g id="Ebene_1-2" data-name="Ebene 1">
    <g id="KO">
      <path d="M21.71,71.94c-.04-.06-.07-.09-.08-.13-.01-.08-.02-.15-.03-.28h-.85c-.12,.11-.29,.27-.45,.43-.69,0-1.37,.01-2.05,0-.26,0-.55,.1-.78-.17-.07-.09-.34-.12-.44-.05-.54,.38-1.14,.19-1.71,.22-.77,.04-1.55-.06-2.3,.24-.77,.3-1.6,.27-2.42,.25-.36,0-.72,0-1.05-.09-.38-.13-.84-.18-1.13-.42-.26-.22-.59-.41-.74-.8-.13-.36-.71-.39-.81-.85h-.52c-.2-.54-.97-.55-1.13-1.17-.57-.16-.71-.75-1.06-1.12-.39-.4-.87-.69-1.21-1.14-.32-.43-.74-.79-.98-1.26-.23-.43-.89-.59-.77-1.22-.57-.21-.67-.9-1.18-1.14,0-.43,.05-.83-.01-1.22-.09-.6,.34-1,.54-1.46,.2-.45,.75-.57,1.28-.62,.4-.03,.78-.28,1.22-.23,.43,.05,.88,.01,1.36,.01,.69,.45,1.42,.92,2.14,1.38,.53-.33,1.12-.12,1.68-.2,.44,.48,1.01,.65,1.62,.73,.26,.04,.51-.04,.78,.16,.66,.49,1.34,.44,1.99-.17,1.12,.11,2.31-.16,3.61,.2,.21-.09,.57-.34,.96-.41,.76-.14,1.53-.19,2.3-.25,.65-.05,1.3,.04,1.95-.22,.37-.15,.86-.03,1.24-.03,.19,.19,.33,.33,.44,.44h3.22c.04-.15,.07-.25,.11-.4h1.98c.29,.15,.59,.31,.9,.47,.39-.14,.76-.3,1.16-.4,.6-.15,1.2-.28,1.78,.11,.43,.29,.95,.29,1.48,.24,.04-.13,.09-.27,.16-.45h7.94c.27-.48,.52-.9,.88-1.53,.04-.5-.18-1.32,.46-1.96,.05-.62,.03-1.23,.36-1.87,.32-.64,.51-1.45,.36-2.2,.43-.4,.49-.88,.51-1.4,0-.33,.09-.69,.24-.97,.26-.5,.63-.95,.44-1.54,.23-.06,.34-.09,.52-.14-.04-.59,0-1.2,.48-1.74-.21-1.25,.91-2.29,.71-3.58,.15-.15,.3-.3,.36-.36,.18-.58,.33-1.08,.48-1.58,.02,0,.04,.02,.06,.02,.1-.56,.28-1.12,.28-1.68,0-.55,.06-1.1,.28-1.57,.38-.78,.64-1.58,.83-2.42,.06-.26,.1-.53,.17-.9,.06-.05,.22-.18,.38-.32v-1.02c.18-.18,.33-.33,.47-.47,.12-.64,.23-1.27,.38-2.06,.06-.04,.25-.19,.42-.32-.16-.82,.31-1.45,.42-2.14,.14-.83,.64-1.5,.79-2.33,.13-.78,.6-1.5,.92-2.25,.05-.1,.13-.19,.24-.34-.03-.66,.08-1.35,.36-2.05,.25-.62,.22-1.34,.36-2.01,.13-.62,.29-1.24,.49-1.84,.07-.21,.29-.36,.46-.56v-.73c-.23-.07-.48-.13-.71-.22-.21-.08-.4-.2-.67-.34-1.33-.19-2.71,.4-4.12,.23-.65,.42-1.37,.16-2.01,.25-.62-.5-1.35-.54-2.03-.72-.47-.12-.97-.14-1.6-.23-.11,.1-.3,.28-.52,.48-.35-.09-.71-.25-1.08-.24-.32,0-.64,.19-.86,.26-.37-.22-.66-.34-.88-.53-.31-.27-.56-.3-.93-.08-.27,.16-.65,.14-1.03,.21-.57-.14-1.21-.29-2.03-.49-.02-.02-.15-.22-.24-.34-.52,0-.92,0-1.32,0-.26,.23-.44,.59-.98,.45-.03-.06-.09-.18-.17-.36-.12-.06-.32-.16-.54-.28-.08,.06-.2,.14-.27,.18-.67-.27-1.29-.51-1.95-.77-.25,.19-.48,.39-.74,.53-.26,.14-.55,.21-.83,.31-.36-.89-1.06-.8-1.65-.78-.34,.19-.6,.33-.88,.49-.57-.23-1.15-.47-1.8-.74-.56,.61-1.29,.64-2.02,.23-.44-.25-.89-.19-1.35-.23-1.28-.13-2.56-.25-3.82-.63-.49-.15-1.07-.01-1.6,.03-.26,.02-.52,.12-.83,.19-.21-.48-.83-.5-.98-1.03h-.51c-.04-.13-.09-.27-.15-.45h-1.09c-.26-.38-.5-.77-.8-1.13-.32-.38-.71-.67-1.21-.85-.44-.16-.85-.37-1.07-.91-.19-.48-.63-.87-.99-1.26-.36-.38-.54-.81-.59-1.32-.37-.37-.74-.74-1.11-1.11-.06-.73-.61-1.26-.82-1.95-.2-.65-.52-1.26-.44-1.88,.27-.5,.5-.92,.73-1.36,.31-.02,.58-.03,.76-.04,.38-.26,.69-.47,1-.68,.53,.19,1.02,.45,1.49,.72,.35,.2,.39,.67,.82,.86,.27,.12,.49,.31,.83,.33,.32,.02,.62,.23,1,.38,.03-.02,.14-.09,.26-.17,.48,.2,.95,.39,1.47,.6,.01,.05,.04,.16,.08,.31h1.85c.43,.29,.75,.51,1.06,.72,1,.21,1.89-.06,2.71-.69,.05,.15,.1,.29,.14,.42,.94,.23,1.9,.3,2.87,.34,1.01,.04,1.83-.41,2.7-.87,.09,.25,.13,.39,.2,.57,.45,.09,1.01,.38,1.39,.23,.59-.23,1.15-.15,1.72-.19,.16-.01,.32,0,.34,0,.71-.35,1.31-.64,1.92-.93,.38,.41,.9,.47,1.46,.46,.68-.02,1.36-.02,2.04,0,.33,.01,.68-.11,1.02,.17,.17,.14,.58,.15,.8,.04,.79-.37,1.62-.19,2.43-.22,1.03-.03,2.06,0,3.09,0,.04-.17,.07-.28,.09-.39,.07-.03,.13-.09,.2-.09,.48,0,.96,0,1.44,0,.35-.01,.7,0,.98,.25,.29,.25,.63,.24,.98,.24,1.12,0,2.24,0,3.36,0,.26,0,.55,.11,.77-.17,.07-.09,.32-.1,.44-.05,.94,.39,1.89,.27,2.85,.11,.26-.04,.54,.11,.81,.11,.8,.02,1.6,0,2.4,0,.81,0,1.6-.03,2.36,.4,.28,.16,.68,.08,1,.1,.21-.21,.38-.38,.59-.59-.24-.59,.66-.8,.51-1.41,.42-.69,1.14-.99,1.88-1.38h.78c.35,.22,.66,.38,.92,.6,.16,.14,.28,.36,.34,.57,.23,.86,1.01,1.4,1.27,2.23,.13,.4,.43,.63,.68,.92,.25,.28,.49,.58,.76,.89,.42,.17,.91,.36,1.4,.56,.01,.01,.07,.03,.07,.06,.03,.61,.78,.62,.94,1.13,.6-.24,.76,.74,1.42,.43,.22,.27,.44,.55,.62,.78h.52c.17,.36,.32,.7,.59,1.27v.79c-.12,.12-.26,.26-.42,.42v.65c-.06,.09-.1,.17-.15,.22-.56,.51-1.07,1.1-1.9,1.22-.23,.03-.41,.36-.65,.45-.59,.22-.97,.84-1.74,.77-.26-.02-.74,.37-.83,.66-.15,.49-.82,.43-.85,.95-.53,.07-.75,.54-1.08,.86-.36,.35-.64,.79-1,1.14-.31,.3-.64,.55-.72,1.01-.02,.1-.14,.19-.23,.26-.6,.46-.86,1.15-1.2,1.78-.16,.29-.27,.64-.5,.86-.29,.28-.18,.58-.23,.98-.66,.27-.57,1.15-1.16,1.64v1.01s-.08-.02-.11-.03c-.26,.61-.53,1.21-.79,1.82-.08,0-.16,.01-.28,.03v.79c-.18,.16-.33,.29-.44,.38-.04,.12-.09,.2-.08,.27,.06,.87-.17,1.64-.71,2.35-.36,.47-.59,1.02-.74,1.61-.08,.32-.26,.61-.45,1.06v1.34c-.17,.1-.38,.22-.51,.3,.03,.73,.03,1.3-.4,1.78-.35,.4-.35,.92-.29,1.52-.12,.07-.3,.17-.35,.21-.15,.58-.14,1.13-.42,1.41-.43,.45,0,.99-.36,1.43-.26,.32-.31,.82-.57,1.21v1c-.18,.18-.33,.33-.44,.44-.04,1.42-.8,2.59-1.24,3.86,0,.4,.03,.8,0,1.19-.04,.37-.15,.73-.23,1.1-.03,.15,0,.34-.09,.44-.53,.6-.36,1.32-.4,2.14-.11,.07-.32,.19-.45,.27v1.13c-.16,.13-.35,.27-.43,.33-.13,1.02-.25,1.9-.37,2.83-.36,.33-.43,.8-.43,1.32,.01,1.23,0,2.47,0,3.67,1.13,.76,2.23,1.49,3.36,2.24,0,.02,.03,.13,.05,.25h.5c.12,.19,.21,.4,.36,.56,.15,.15,.36,.23,.52,.37,.07,.06,.07,.26,.14,.28,1.21,.4,1.89,1.65,3.14,1.97,.4,.8,1.27,.96,1.93,1.38,.27,.17,.54,.25,.58,.62,0,.07,.25,.12,.39,.17,.07,.36,.14,.73,.24,1.25-.06,.17-.19,.51-.32,.85-.52-.06-.24,.64-.66,.72-.75,0-1.51,.03-2.26-.01-.45-.02-.95-.05-1.32-.26-.38-.22-.74-.21-1.12-.21-1.08,0-2.16-.06-3.24,0-2.54,.15-5.05-.34-7.58-.27-.47,.01-.94-.22-1.42-.32-.34-.07-.71-.2-1.01-.12-.29,.08-.54,.22-.87,.22-1.28-.02-2.58,.12-3.83-.06-.73-.1-1.39-.26-2.09,.04-.13,.06-.39,.08-.46,0-.37-.4-.82-.22-1.23-.22-2-.02-4,0-6-.02-.41,0-.81,.07-1.25-.19-.26-.15-.78,.13-1.18,.23-.21,.05-.47,.25-.63,.19-.9-.37-1.85-.14-2.74-.25Z"/>
    </g>
  </g>
</svg>
