<?xml version="1.0" encoding="UTF-8"?>
<svg id="Ebene_2" data-name="Ebene 2" xmlns="http://www.w3.org/2000/svg" width="140.45mm" height="5.78mm" viewBox="0 0 398.13 16.38">
  <g id="Ebene_1-2" data-name="Ebene 1">
    <g id="Name">
      <path d="M348.95,13.07c-.54,.77-.92,1.65-1.99,1.64-.85-.98-.93-1.68-.68-3,.12-.67,.42-1.33,.3-2.05-.06-.36-.1-.75,.2-1.12,.13-.16,.02-.51,.02-.89-.27,.31-.44,.52-.7,.82,0-.02,0,.14,0,.34-.26,.21-.53,.44-.8,.67,.05,.04,.1,.07,.14,.11-.19,.4-.34,.82-.57,1.19-.24,.38-.59,.7-.85,1.07-.24,.34-.25,.78-.73,1.02-.36,.18-.54,.72-.8,1.08h-2.06c-.37-.74-1.14-1.32-.79-2.22-.21-.21-.35-.35-.52-.52,.22-1.47-.88-2.7-.72-4.17-.17-.01-.25-.02-.41-.03-.02,.18-.06,.36-.06,.53,.02,1.04-.2,2.07-.59,2.99-.2,.47,.1,1-.35,1.43-.37,.35-.3,.93-.24,1.4-.73,.56-.91,1.63-2.04,1.79-.63-.1-.17-1.13-.86-1.23,.01-.79-.16-1.55,.41-2.17,.05-.05,.07-.14,.06-.21-.08-1.02,.1-2.02,.24-3.02,.06-.45,.03-.89,.22-1.35,.22-.51,.25-1.11,.39-1.85,.02-.02,.21-.17,.36-.28,0-.55,0-1.03,0-1.51,.37-.33,.47-.76,.49-1.24,.02-.33,.17-.64,.27-1.03,.69,.12,1.31-.45,2.02-.21,.65,.22,.77,.99,1.26,1.24,.04,.3,.07,.48,.09,.65,.16,0,.24,.01,.32,.02,.04,.07,.09,.13,.1,.2,.09,.45,.13,.9,.26,1.34,.09,.31,.37,.57,.45,.89,.08,.34,.02,.71,.02,1.09,.12,.03,.22,.06,.4,.11,.31,.5-.09,1.14,.25,1.74,.28,.5,.23,1.17,.33,1.79,.24-.1,.42-.18,.57-.24,.17-.41,.38-.77,.46-1.16,.12-.58,.82-.73,.87-1.32,.05-.57,.4-1.08,.75-1.34,.72-.54,.78-1.55,1.58-1.97,.05-.02,.04-.14,.07-.21,.45-1.24,1.22-2.52,2.07-3.36,.35,.08,.78,.17,1.14,.24,.28,.49,.52,.91,.87,1.51,0,.41,.03,1.05,0,1.68-.04,.57-.03,1.19-.27,1.68-.23,.47-.2,.9-.2,1.36,0,1.09-.42,2.15-.25,3.26,.01,.08,.04,.19,0,.23-.74,.79-.38,1.78-.48,2.58Z"/>
      <path d="M48.45,12.22c-.12,.12-.26,.26-.42,.42v.66c-.36,.49-.71,.95-1.09,1.47-.56-.08-1.13-.16-1.65-.23-.27-.73-.88-1.08-1.32-1.62-.02-.15-.04-.34-.07-.56-.1-.02-.21-.05-.38-.08,0-.82-.81-1.38-.79-2.25-.39-.3-.78-.6-1.2-.93v-.57c-.66-.85-1.21-1.54-1.92-2.45,0,.72,.06,1.19-.02,1.65-.07,.39-.38,.74-.44,1.13-.08,.55-.02,1.12-.02,1.67-.15,.15-.29,.29-.45,.45v1.72c-.3,.72-.54,1.3-.83,2-.32,.09-.74,.22-1.21,.36-.31-.41-.58-.78-.86-1.16,0-.67-.03-1.35,.01-2.02,.02-.41,.15-.81,.23-1.22,.09-.44-.14-.9,.21-1.36,.21-.29-.12-.85,.27-1.2-.07-1.05,.1-2.06,.48-3.04-.2-1.37,.52-2.49,1-3.65,.31-.21,.63-.41,.98-.64,.43,.19,.87,.38,1.31,.58,0,.59,.72,.72,.84,1.33,.08,.43,.73,.72,.88,1.16,.19,.56,.99,.75,.81,1.47,.66,.11,.53,.83,.91,1.17,.36,.33,.65,.74,.92,1.15,.29,.43,.54,.9,.83,1.39,.53-1.41,.99-2.49,.89-5.22,.13-.11,.28-.24,.45-.39v-1.04c.52-.17,.62-.61,.79-.99,.34-.16,.68-.32,1.04-.5,.14,.06,.34,.14,.58,.24,.01,.16,.02,.35,.04,.57,.13,.05,.27,.1,.41,.14q.12,2-.42,2.96c0,.59,.09,1.24-.02,1.86-.22,1.27-.17,2.57-.61,3.82-.19,.54-.1,1.17-.13,1.78Z"/>
      <path d="M18.33,1.73h.82c.03-.15,.05-.26,.08-.4,.27-.13,.78,0,.8-.54,.49,.03,.57-.51,1.17-.73,.66,0,1.57,0,2.49,0,.59,0,.59,0,1.39,.47h1.19c1.14,1.12,2.09,2.42,3.01,3.81-.03,.46,0,.98,.33,1.46,.32,.46,.09,1,.15,1.49-.5,.43-.02,1.13-.46,1.62-.14,.15-.02,.54-.02,.62-.38,.76-.74,1.34-.96,1.96-.22,.62-.78,1-.96,1.51-.53,.49-1.02,.93-1.46,1.34-.69,.25-1.35,.49-2.28,.83h-3.14c-1.19-.61-2.28-1.17-3.38-1.74-.02-.18-.04-.37-.07-.59-.1-.02-.21-.05-.3-.07-.27-.45-.54-.9-.87-1.47,.03-.85,.08-1.86-.56-2.69,.2-.39,.35-.69,.56-1.1,0-.34-.09-.84,.03-1.29,.11-.42,.25-.85,.41-1.26,.16-.42,.38-.81,.51-1.23,.14-.44,.59-.66,.7-1.01,.16-.49,.83-.42,.84-.99Zm.49,4.14c-.16,.75-.24,1.43-.45,2.07-.14,.43-.15,.8-.02,1.22,.18,.61,.31,1.23,.5,2.02,.43,.23,.99,.53,1.55,.83,.02,.06,.05,.17,.09,.27h2.75c.9-.24,1.46-.8,1.94-1.35,.52-.6,.81-1.41,1.23-2.18,0-.26-.06-.59,0-.89,.29-1.37,.31-1.4,.06-2.11-.28-.81-.4-.76-1.14-1.68-.46-.57-.91-.68-1.52-.67-.07,0-.15-.03-.22-.05-.14-.14-.28-.28-.43-.43h-.89c-.55,.43-1.07,.83-1.59,1.23h-.72c.12,.51-.53,.4-.59,.85-.04,.34-.39,.63-.55,.86Z"/>
      <path d="M141.68,2.25c.17-.04,.27-.07,.38-.09,.02-.3,.03-.57,.05-.87h1.43c.14,.41,.43,.86,.44,1.31,.01,.72,.18,1.46-.18,2.2-.19,.39-.03,.94-.03,1.38-.17,.17-.31,.31-.48,.48,0,.09,0,.21,0,.33,.05,1.28-.2,2.5-.64,3.7-.14,.39-.08,.85-.12,1.29-.13,.13-.27,.27-.43,.43v1.02c-.24,.44-.42,.77-.7,1.28-.11,.07-.42,.28-.72,.48-.26-.08-.5-.16-.75-.23-.94-.28-.93-.28-1.45-1.21-.08-.14-.26-.21-.44-.35v-.58c-.5-.81-1.21-1.44-1.29-2.38-.15-.03-.26-.06-.39-.09v-.65c-.27-.39-.68-.73-.69-1.08-.02-.51-.76-.31-.62-.82-.19,.26-.37,.52-.63,.88-.08,.62,.21,1.46-.52,2.11,.31,1.36-.42,2.56-.75,3.85-.63,.63-1.33,.01-2,.06-.37-.75-.51-1.48-.12-2.29,.15-.32,.03-.78,.03-1.16,.44-.43,.52-.95,.48-1.51-.09-1.36,.16-2.65,.61-3.94,.21-.61,.11-1.32,.15-2.03,.11-.11,.25-.25,.44-.44V1.8c.14-.03,.25-.05,.41-.08,.04-.11,.08-.24,.14-.42h2.01c.12,.24,.24,.51,.4,.83,.36,.09,.63,.37,.76,.8,.1,.32,.34,.62,.35,.93,.02,.97,.78,1.52,1.22,2.28v.83c.15,.03,.25,.05,.36,.07,.32,.78,.65,1.56,.97,2.35h.6c-.04-.64-.02-1.26,.46-1.75v-1.47c.17-.13,.35-.28,.56-.44-.36-1.29,.41-2.31,.74-3.48Z"/>
      <path d="M173.76,2.11c0,.72,.16,1.53-.05,2.22-.21,.71-.13,1.38-.21,2.11-.12,.11-.27,.24-.44,.39v1.96c-.43,.42-.44,.91-.52,1.41-.2,1.11-.47,2.2-.72,3.3-.08,.34-.39,.63-.59,.96h-1.45c-.07-.07-.14-.17-.23-.25-.53-.44-1.32-.52-1.61-1.33-.23-.65-.73-1.21-1.07-1.84-.21-.39-.39-.8-.66-1.17-.23-.32-.21-.8-.6-1.07-.07-.05-.01-.3-.01-.46-.23-.23-.46-.46-.72-.72,.06-.44,0-.9-.47-1.19,.19-.56-.52-.63-.6-1.22-.46,2.99-.88,5.82-1.4,8.72-.51,.52-1.08,1.11-2.07,.4-.27-.35-.27-.89-.26-1.43,.01-1.2-.04-2.4,.02-3.6,.05-1.04,.19-2.08,.31-3.2,.07-.07,.21-.21,.41-.41-.06-.76,.11-1.52,.33-2.3,.22-.78,.53-1.47,1-2.13h2.15c.07,.15,.15,.31,.22,.47h.33c.02,.18,.04,.36,.06,.64,.09,.03,.32,.03,.34,.1,.26,.92,1.12,1.49,1.35,2.44,.09,.39,.5,.73,.69,1.14,.19,.4,.64,.7,.47,1.24,.58,.88,1.15,1.75,1.75,2.66,.21-.67,.43-1.23,.56-1.8,.09-.37,.09-.78,.08-1.16,0-.54,.03-1.07,.24-1.58,.16-.39,.22-.79,.27-1.21,.07-.58,.33-1.13,.52-1.7,.07-.21,.16-.42,.25-.68,.43-.19,.93-.42,1.48-.67,.03,.6,.6,.57,.84,.94Z"/>
      <path d="M93.71,1.76h1.66c1.03,1.34,.61,2.79,.34,4.26h2.9c.37,.2,.6,.32,.78,.41,.43-.07,.83-.13,1.37-.22,.08-.1,.26-.32,.52-.65v-1.31c.18-.18,.33-.33,.47-.47v-.94c1.52-1.75,1.23-1.5,2.84-.81,.16,.32-.12,.79,.28,1.06,.04,.03,.01,.15,0,.23-.08,.53-.17,1.05-.24,1.58-.07,.53,.08,1.05-.22,1.59-.38,.69-.29,1.54-.47,2.32-.15,.66-.13,1.35-.5,1.96-.11,.17-.02,.46-.02,.71-.15,.06-.29,.11-.49,.18,.1,.89-.2,1.69-.88,2.5-.27,.13-.68,.46-1.28,.19-.46-.86-.64-1.79-.34-2.81,.17-.56,.3-1.14-.21-1.64h-2.94c-.12-.16-.26-.36-.36-.49h-1.55c-.41,1.65-.52,3.39-1.4,4.98-.42,.16-.91,.35-1.39,.54-.2-.1-.39-.2-.6-.31-.18-.49-.5-1-.55-1.53-.09-.92-.09-1.84,.32-2.73,.17-.37,.12-.84,.19-1.37,.1-.07,.3-.2,.37-.25,.05-.67-.04-1.25,.17-1.67,.24-.47-.11-1.02,.34-1.44,.14-.13,.05-.54,.02-.82-.1-.79,.24-1.49,.49-2.2,.1-.28,.22-.55,.35-.86Z"/>
      <path d="M254.27,9.94c-.37,1.31-.81,2.56-.57,3.78-.24,.39-.38,.72-.62,.95-.23,.22-.57,.34-.87,.52-.27-.19-.55-.38-.9-.62v-.43c-.18-.18-.32-.32-.52-.52,0-.1-.04-.27,0-.4,.33-.88,.52-1.82,.65-2.71,.18-1.21,.72-2.36,.56-3.63-.04-.31,.15-.65,.22-.98,.17-.85,.29-1.71,.49-2.56,.13-.54,.23-1.18,.59-1.53,.4-.4,.73-1.03,1.45-1.05,.09,0,.17-.15,.28-.25,.41,.14,.77,.44,1.29,.17,.35-.18,.93-.28,1.23-.11,.51,.28,.99,.12,1.47,.21,1.01,.83,2.43,1.24,2.8,2.73,0,.84-.05,1.68,.01,2.51,.06,.82-.22,1.48-.85,1.92-.54,.38-.91,.95-1.46,1.22-.31,.64,.1,1.16,.14,1.72,.64,.3,.62,1.02,.91,1.53,.46,.8,.95,1.67,.41,2.73-.02,0-.13,.03-.27,.06-.04,.11-.08,.25-.14,.42h-1.01c-.5-.23-.53-.91-1.09-1.08,.02-.59-.3-1.01-.71-1.39v-.77c-.13-.04-.26-.07-.47-.13,.04-.83-.3-1.57-.72-2.31h-2.31Zm.36-3.1c.24,.45,.66,.54,.95,.4,.52-.27,1.05-.19,1.56-.22,.8-.64,2.02-.75,2.31-1.96-.11-.33-.5-.45-.52-.88-.02-.26-.39-.51-.63-.79-.97,.29-1.92-.46-2.9-.15-.04,.48,.07,1-.14,1.31-.35,.53-.37,1.06-.39,1.64,0,.21-.15,.41-.24,.65Z"/>
      <path d="M199.43,2.52c.21-.05,.31-.08,.47-.12v-.68c.25-.33,.43-.57,.67-.9h.93c.24,.14,.5,.29,.72,.43,.05,.11,.09,.18,.1,.25,.04,.26-.1,.55,.16,.78,.07,.06,.11,.25,.07,.32-.53,.83,.07,1.84-.45,2.7-.14,.23,0,.63-.02,.95-.04,.77,.15,1.56-.23,2.3-.08,.16-.09,.44,0,.58,.51,.8-.13,1.8,.47,2.56,.28,.19,.56,.38,.91,.61h1.21c.52-.28,.95-.51,1.38-.73,.44-.23,.53-.76,.98-1.04,.37-.23,.52-.8,.8-1.29-.32-.78,.47-1.4,.51-2.22,.04-.8,.41-1.59,.56-2.39,.14-.78,.35-1.53,.78-2.37,.08-.04,.35-.17,.61-.3,.78,.19,1.3,.64,1.62,1.51,0,.64-.01,1.44,0,2.23,.02,.74-.27,1.4-.48,2.08-.11,.35-.23,.71-.38,1.2-.03,.03-.17,.17-.32,.32v.8c-.45,.75-.72,1.51-1.24,2-.56,.52-.82,1.2-1.32,1.75-.55,.61-1.34,.76-1.91,1.34-.52,0-1.07,0-1.63,0-.52,0-1.05-.08-1.55,.16-.5-.35-1.08-.06-1.58-.18-.29-.36-.53-.76-.87-1.04-.34-.28-.45-.72-.88-.97-.31-.18-.41-.76-.55-1.18-.14-.42-.14-.91-.34-1.29-.25-.47-.06-.93-.15-1.38-.04-.22-.15-.43-.16-.65-.02-.46-.07-.93,.04-1.36,.23-.91,.63-1.78,.61-2.74,0-.14,.06-.3,.14-.42,.34-.47,.37-1,.32-1.6Z"/>
      <path d="M65.47,6.85l.53,.53c0,.38-.05,.78,.02,1.17,.06,.32,.33,.6,.37,.92,.11,.91,.48,1.79,.36,2.47,.23,.69,.39,1.15,.55,1.64-.25,.18-.44,.32-.58,.42v.58c-.36,.19-.72,.37-1.09,.56-.39-.21-.81-.44-1.3-.7v-.86c-.19-.05-.3-.08-.45-.12v-1.39c-.22-.37-.37-.63-.57-.96-.35,.05-.74-.16-.98,.15-.59-.05-1.12-.12-1.64-.15-.52-.02-1.03,0-1.53,0-.19,.19-.36,.36-.53,.53-.35,1.3-.92,2.45-2.22,3.08-.55,.27-.54,.29-1.35-.02-.24-.46-.55-.89-.12-1.45,.13-.18,.02-.54,.02-.74,.42-.54,.8-1.03,1.2-1.54v-.96c.13-.04,.27-.09,.44-.15,.12-.49,.23-1.01,.37-1.58,.04-.01,.14-.04,.19-.05,.4-.7,.79-1.37,1.17-2.04,.34-.58,.8-1.12,.71-1.86,.81-.88,1.36-2,2.39-2.71v-.46c.43-.22,.85-.43,1.29-.65,.4,.16,.8,.28,1.16,.46,.4,.2,.44,.76,.91,.93,.14,.05,.23,.39,.24,.6,.08,1.46,.76,2.85,.44,4.37Zm-2.83-1.75c-.29,.15-.51,.25-.77,.38v.54c-.16,.04-.26,.06-.45,.1v.85c-.19,.04-.3,.06-.47,.1,.02,.23,.03,.45,.04,.61,.56,.17,1.11-.19,1.52,.27,.34-.21,.55-.53,.29-.87-.2-.27-.14-.52-.15-.78-.02-.39,0-.78,0-1.21Z"/>
      <path d="M114.86,4.14c.1-.01,.18-.02,.3-.04v-.43c.14-.36,.67-.16,.54-.62-.01-.04,.14-.1,.16-.17,.35-1.25,1.32-1.94,2.41-2.58h.66c.56,.52,.68,1.44,1.48,1.68,.07,.35,.11,.65,.19,.94,.15,.54,.46,1.05,.37,1.65-.02,.12-.05,.27,0,.35,.59,.86,.43,1.84,.49,2.8,.03,.53,.28,1.02,.24,1.58-.04,.53,.1,1.06,.18,1.58,.16,.97,.05,1.98,.05,2.97l-1.3,1.3h-.98c-.23-.26-.49-.55-.82-.92-.25-.98-.29-2.15-.82-3.3-.53,.24-.9,.41-1.38,.64h-1.33c-.04-.13-.09-.27-.15-.44h-.55c-.49,.68-.73,1.53-1.28,2.2-.27,.33-.4,.7-.54,1.1-.16,.45-.49,.84-.71,1.22h-1.07c-.18-.19-.37-.4-.61-.65,.03-.21,0-.5,.1-.73,.17-.41,.22-.89,.64-1.17-.13-.53,.35-.84,.44-1.25,.13-.56,.56-.92,.71-1.39,.15-.48,.27-1.01,.39-1.52,.18-.75,.74-1.28,1.02-1.97,.38-.92,.76-1.84,1.17-2.83Zm3.11,1.2h-.53c-.35,1.02-.93,1.96-1.31,3,.67,.39,1.2-.31,1.81-.14,.08,.02,.23-.19,.35-.29,.13-.89,.05-1.75-.32-2.57Z"/>
      <path d="M316.31,1.29h1.01c.26,.25,.43,.42,.69,.67v3.86c.59,0,1.14-.03,1.69,0,.45,.03,.91-.15,1.36,.2,.19,.15,.74,.14,.91-.02,.46-.44,.78-.04,1.25,.07,.03-.57,.27-1.05,.36-1.62,.15-.99,.13-2.04,.68-2.95,.1-.16,.2-.32,.34-.56,.51,.11,1.01,.22,1.34,.29,.29,.28,.46,.45,.7,.68v2.58c-.16,.16-.3,.3-.46,.46,0,.66-.01,1.34,0,2.02,.01,.51,.04,1.03-.34,1.42-.38,.39,.12,.96-.33,1.31-.11,1.14-.72,2.19-.52,3.35-.6,.81-1.24,1.51-2.21,1.65-.25-.26-.43-.46-.69-.73,0-.48,0-1.08,0-1.67,0-.35,.06-.66,.23-.99,.37-.71,.37-1.52,.53-2.28-.38-.13-.69-.23-1.09-.37-.67,.78-1.54,.5-2.38,.25-1.13-.34-1.13-.36-2.05,.33-.15,1.62-.82,3.18-.44,4.83-.48,.36-.91,.68-1.38,1.03-.32-.16-.67-.33-.95-.46-.21-.29-.38-.54-.63-.89,0-.23-.14-.69,.03-.91,.34-.44,.09-.96,.41-1.41,.26-.38-.19-1.01,.28-1.44,.06-.06,0-.23,.01-.35,.07-.5-.15-1.01,.16-1.49,.25-.39-.12-.94,.31-1.32,.06-.05,.02-.23,0-.35-.12-1.37,.37-2.66,.51-4,.05-.44,.46-.85,.67-1.21Z"/>
      <path d="M182.01,1.31c.07-.02,.21-.07,.36-.13,.02-.18,.04-.37,.05-.49,.29-.2,.54-.37,.9-.61,.27,.08,.65-.04,1.1,.14,.45,.18,1.06,.04,1.59-.06,.35-.07,.63-.06,.98,.02,.51,.12,1.07,.05,1.6,.05,.06,0,.11-.11,.17-.16q.77,.47,1.71,.5c.25,.25,.51,.51,.78,.78,.05,.37,.14,.76-.3,1.08h-1.85c-.87,.62-1.69,.7-2.46,.36-.65,.08-1.21,.15-1.78,.22-.12,1.15-.23,2.3-.35,3.5h1.1c.18,.18,.32,.32,.49,.49h2.18c.17,.22,.37,.46,.6,.74v1.55c-.33,.22-.64,.42-1.04,.69-.23-.14-.48-.3-.77-.48-.93-.1-1.92-.21-2.84-.31-.5,1.09-.84,2.14-.55,3.27,.18,.11,.37,.33,.56,.32,1.18-.07,2.33,.13,3.62,.33,.27,.12,.68,.31,1.08,.49,.02-.04,.05-.08,.07-.12,.25,.3,.51,.61,.88,1.05-.06,.25-.17,.68-.28,1.08-1.34,.13-2.64,.56-3.89,.26-1.3-.31-2.58-.08-3.93-.23-.29-.33-.63-.71-1.01-1.14v-4.53c.14-.03,.25-.06,.36-.08,.03-.07,.09-.13,.09-.2,0-.56-.03-1.12,.01-1.68,.04-.61,.18-1.21,.22-1.82,.04-.6-.12-1.23,.04-1.79,.28-1,.24-2.04,.54-3.08Z"/>
      <path d="M286.99,15.2h-.61c-.03,.12-.05,.23-.08,.38-.58,.23-1.19,.48-1.99,.8h-2.93c-.04-.13-.09-.27-.15-.45h-1c-.31-.32-.59-.6-.85-.9-.19-.22-.35-.48-.52-.72-.22-.31-.45-.61-.74-.99,.09-.5,.2-1.06,.29-1.55,.75-.81,1.39-.19,2.08,.12,.23,.65,.81,1.02,1.49,1.38,.48,0,1.04,.03,1.6-.01,.41-.03,.86-.07,1.2-.27,.26-.15,.61-.36,.62-.81,0-.41,.51-.82,0-1.24-.04-.04-.02-.15-.02-.13-.86-.56-1.74-1.02-2.47-1.64-.41-.35-.93-.54-1.24-1.12-.45-.83-1.09-1.78-1.08-2.54,.01-1.12,.06-2.2,.7-3.2,.17-.26,.33-.56,.56-.71,.85-.52,1.74-1,2.64-1.44,.24-.12,.68-.13,.86,.01,.51,.41,1.07,.36,1.54,.37,.88,.58,2,.7,2.35,2.02v.72c-.21,.37-.6,.52-.91,.36-.55-.3-1.13-.15-1.67-.25-.04-.15-.07-.26-.11-.41h-2.25c-.16,.32-.35,.68-.58,1.12v1.57c.36,.47,.7,.93,1.03,1.36h.56c.03,.1,.07,.21,.13,.39,.19,.3,.87,.08,.92,.69,.5-.06,.67,.44,1.04,.61,.18,.08,.28,.34,.39,.53,.24,.42,.46,.85,.73,1.33-.06,.82,.08,1.7-.21,2.59-.26,.8-1.14,1.13-1.28,2.03Z"/>
      <path d="M390.95,11.25v.51c-.12,.03-.22,.05-.42,.1-.01,.25-.03,.54-.05,.8,.08,.07,.11,.12,.13,.11,.92-.12,1.83,.62,2.72,.11,.34-.2,.55,.17,.66,.06,.25-.25,.52-.15,.78-.17,.28-.02,.61-.1,.83,.02,.5,.28,.94,.66,1.36,.97v1.29c-.19,.11-.4,.21-.58,.34-.58,.43-1.15,.76-1.88,.33-.12-.07-.3-.07-.45-.07-.5,0-.98,0-1.47,.21-.44,.2-1.01-.17-1.47,.22-.1,.08-.34,.1-.45,.04-.62-.34-1.35-.2-1.96-.48-.64-.3-1.38-.44-1.81-1.08v-1.69c.37-.59,.72-1.2,1.13-1.77,.17-.23,.46-.37,.77-.62,0-.1,.02-.29,.03-.51,.13-.05,.27-.09,.44-.16,.01-.26,.03-.52,.04-.73,.76-.57,1.08-1.43,1.65-2.06,.55-.61,1.05-1.25,1.54-1.9,.52-.7,1.08-1.37,1.68-2.14h-1.87c-.15-.21-.29-.4-.4-.54h-2.02c-.37-.26-.74-.53-1.08-.77-.09-1.14,.86-1.06,1.47-1.42,.11,.08,.23,.16,.25,.17,.68-.03,1.18-.76,1.85-.15,1.08-.15,2.2,.29,3.27-.22,.13-.06,.39-.08,.46,0,.36,.41,.82,.15,1.24,.24,.24,.24,.5,.5,.79,.79v1.28c-.31,.46-.56,1.09-1.02,1.42-.44,.32-.57,.99-1.21,1.06-.05,0-.1,.11-.13,.17-.16,.36-.31,.67-.69,.92-.3,.2-.33,.86-.63,1-.43,.21-.55,.6-.79,.89-.79,.97-1.48,2.02-2.22,3.03-.1,.13-.27,.21-.49,.37Z"/>
      <path d="M218.64,6.45c0-.64,.07-1.29-.02-1.91-.19-1.36,1.27-3.46,2.88-3.96,.6-.18,1.12-.54,1.83-.55,1.23-.02,2.29,.42,3.29,.78,.23,.32,.4,.56,.63,.87v1.07c-.24,.24-.41,.4-.67,.65h-.93c-.02-.09-.05-.2-.09-.33-.03-.03-.09-.11-.15-.11-.84,0-1.68,0-2.52,0-.43,.46-.86,.93-1.38,1.48v.78c.53,.33,.95,.81,1.53,1.12,1.14,.6,1.76,.97,2.69,2.4,.09,.13,.22,.23,.22,.22,.22,.83,.44,1.51,.59,2.2,.16,.74-.15,1.45-.31,2.35-.62,.47-1.38,1.04-2.21,1.67h-1.22c-.04,.14-.07,.25-.11,.41-.53,.39-.82-.32-1.26-.38-.4,0-.81-.08-1.19,.02-.84,.2-1.44-.45-2.2-.53-.22-.03-.41-.44-.6-.68-.14-.18-.26-.38-.45-.65v-1.65c.19-.1,.39-.2,.51-.26,.7,.17,1.35,.32,2.08,.5,.08,.08,.22,.22,.36,.36h2.58c.25-.25,.42-.41,.66-.66v-1.07c-.58-1.16-1.88-1.5-2.78-2.33-.59,.08-.45-.68-.96-.82-.32-.09-.53-.61-.8-.95Z"/>
      <path d="M297.96,13.98h-.7c-.24-.28-.5-.57-.85-.97,0-.02,.04-.3-.07-.38-.36-.26-.4-.64-.5-1.01-.29-1.1-.78-2.15-.66-3.33,.05-.51,.09-.99,.48-1.37,.02-.91,.16-.88,.47-1.96,.42-1.47,1.58-2.25,2.56-3.22,.47,.03,.48-.4,.68-.66,.18-.22,.5-.32,.89-.55,.55-.07,1.27,.1,1.97-.36,.36-.24,1.01-.19,1.5-.1,1.45,.29,2.84,.76,3.88,1.93,.41,.46,.65,.94,.53,1.56-.17,.17-.34,.34-.54,.54h-1.25c-.26-.17-.61-.4-1.02-.68h-3.87c-.49,.29-.9,.54-1.39,.84-.09,.27-.26,.6-.71,.65-.1,.47-.8,1.7-1.27,2.23v2.2c.38,.52,.72,1.14,1.21,1.61,.42,.41,.86,.8,1.33,1.31h2.91c.1-.1,.24-.24,.4-.41h1.5c.08,.08,.17,.17,.29,.29v1.24c-.27,.54-.96,.69-1.29,1.32-.55-.03-1.16-.02-1.66,.46h-2.69c-.11-.14-.25-.32-.38-.48-.75,.11-1.26-.2-1.75-.7Z"/>
      <path d="M240.75,8.88c-.83,.09-1.56,.36-2.35,.32-.72-.04-1.48-.16-2.16,.29-.11,1.05-.21,2.12-.33,3.31,.55-.13,1.09,.24,1.58-.24,.08-.08,.39-.08,.46,0,.36,.42,.91,.03,1.21,.27,.41,.33,.84,.09,1.22,.26,.33,.17,.66,.33,1.04,.52v.7c-.16,.23-.35,.5-.57,.84,0,0-.06,.03-.14,.04-.33,.08-.7-.15-1.02,.17-.1,.1-.37,.08-.55,.03-1.02-.26-1.01-.26-1.98,.03-.36,.11-.74,.26-1.1,.22-.47-.05-.93-.25-1.39-.39-.15-.04-.3-.06-.41-.09-.28-.29-.54-.58-.96-1.02,0-.03-.06-.33-.12-.63-.04-.18-.19-.44-.11-.53,.37-.46,.21-.98,.21-1.47,0-1,.05-1.99,.48-2.92,.03-.07,0-.16,0-.24,.08-1.17,.08-2.34,.26-3.5,.21-1.36,.15-2.81,1.15-4.13,.28-.04,.72-.16,1.17-.17,1-.03,2.03-.17,2.99,.03,1.06,.23,2.1,.12,3.22,.21,.14,.16,.31,.38,.55,.67v.57c-.35,.28-.71,.56-1.13,.9-.7,0-1.49,.03-2.29-.01-.73-.04-1.45-.17-2.25-.26-.25,1.2-.69,2.34-.51,3.68,.7-.08,1.4-.32,2.03-.2,.65,.12,1.33,.2,2.02,.5-.13,.72,.22,1.51-.23,2.23Z"/>
      <path d="M2.13,1.91c.11-.27,.25-.61,.4-.96,.86-.3,1.68-.75,2.54-.86,1.18-.15,2.39-.04,3.59-.04,.61,.48,1.22,.18,1.84,0,.11-.03,.24,0,.36,0,.27,.2,.54,.4,.88,.65V2.76c-.21,.19-.38,.35-.67,.62h-2.15c.03,1.12-.36,2.15-.29,3.25,.04,.6-.07,1.23-.24,1.81-.11,.37-.24,.71-.22,1.11,.02,.4,0,.8,0,1.2-.14,.14-.28,.28-.45,.45v.67c-.6,.62-.76,1.6-1.64,1.92-.77,.27-1.45,.87-2.39,.65-.04-.1-.08-.24-.15-.42h-.82c-1.57-.64-2.04-1.89-2.47-3.16-.27-.8-.36-1.59-.04-2.45,.14-.37,.39-.56,.64-.94,.46,.08,.97,.16,1.34,.22,.26,.38,.43,.63,.68,.98-.05,1.05,.2,2.13,1.08,2.91,.49,.04,.74-.07,.86-.51,.36-1.32,.81-2.62,.71-4.02-.02-.35,0-.69,.24-.98,.24-.29,.25-.63,.24-.98-.01-.68,0-1.36,0-2.09H3.04c-.28-.33-.53-.63-.91-1.08Z"/>
      <path d="M79.82,13.35c-.2,.59-.4,1.19-.61,1.79h-1.35c-.24-.46-.69-.81-.93-1.35-.15-.33-.21-.69-.09-.89,.57-.93,.43-1.94,.45-2.94,0-.23,0-.47,0-.67l.48-.48c0-.45-.07-.95,.02-1.4,.1-.49,.29-.95,.22-1.46,.49-.29,.08-.87,.44-1.27,.2-.22,.04-.76,.04-1.09-1.11-.66-2.28-.77-3.4-.64-.3-.23-.55-.41-.9-.68-.06-.38-.11-.91,.38-1.47,.01,0,.17-.1,.34-.17,.43-.18,.84-.64,1.32-.1,.53-.1,1.09,.18,1.61-.17,.17-.11,.45-.07,.69-.07,.92,0,1.84-.01,2.76,0,.3,0,.58-.05,.9,.16,.25,.17,.69,.1,1.04,.07,.75-.07,1.17-.04,1.78,.15,.25,.08,.53,.09,.86,.15,.53,.52,1.16,1.08,.48,2.01-.22,.1-.52,.18-.76,.34-.59,.4-1.12,.62-1.9,.34-.59-.22-1.32-.04-2.01-.04-.09,.09-.27,.19-.29,.32-.11,.72-.16,1.45-.26,2.17-.05,.41-.16,.81-.24,1.22-.12,.64-.28,1.27-.27,1.94,0,.3-.26,.6-.42,.94-.03,.53,.06,1.17-.14,1.69-.22,.56,.02,1.1-.23,1.59Z"/>
      <path d="M382.31,.61v1.7c-.26,.18-.54,.37-.9,.61h-3.46c-.5,.41-.47,.96-.43,1.49,.06,.74-.15,1.43-.34,2.13-.17,.63-.14,1.32-.21,2.11-.08,.06-.27,.2-.4,.29-.12,1.31-.23,2.51-.34,3.8-.06,.06-.2,.2-.37,.37v.63c-.22,.31-.42,.59-.66,.93h-1.23c-.45-.63-.99-1.33-.75-2.15,.15-.5,.13-.98,.21-1.47,.11-.66,.23-1.32,.42-1.98,.15-.53,.37-1.07,.31-1.68-.04-.48,0-1.06,.25-1.43,.35-.51-.01-1.08,.25-1.46,.35-.51,.08-.99,.26-1.59-.52,.11-1-.19-1.37,.25-.52-.42-1.14-.12-1.74-.25-.03-.09-.06-.19-.1-.34-.26-.1-.57-.22-.89-.34v-.85c.17-.14,.34-.29,.72-.6,1.1-.39,2.51-.23,3.91-.25,.96-.01,1.92,.02,2.87,0,.69-.02,1.37,.08,2.07-.2,.57-.23,1.21,.04,1.9,.28Z"/>
      <path d="M359.52,2.09c.45-.31,.53-.96,1.32-1.01,.12,.04,.44,.14,.78,.25,.3,.91,1.16,1.75,.55,2.89-.23,.44-.36,.95-.24,1.45,.12,.5-.23,.88-.26,1.34-.04,.45,.04,.87-.18,1.36-.28,.64-.31,1.43-.26,2.15,.07,1.07-.45,2-.53,3.03-.02,.28-.37,.54-.68,.97-.33,.06-.84,.15-1.33,.23-.29-.42-.52-.77-.82-1.2-.07-.59-.1-1.27,.46-1.87,0-.4,.03-.84,0-1.28-.06-.78,.18-1.5,.4-2.23,.04-.14,.08-.29,.08-.44,0-.52-.11-1.07,.04-1.54,.17-.52,.05-1.1,.32-1.53,.28-.46-.07-.99,.34-1.44,.18-.2,.03-.69,.03-1.14Z"/>
      <path d="M272.06,9.89c-.34-.1-.79,.13-1.26-.19-.25-.17-.79,.1-1.31,.19-.32-.21-.72-.49-1.14-.77v-1.49c.27-.18,.53-.35,.88-.58h3.51c.26,.19,.5,.37,.82,.61v1.64c-.42,.16-.87,.34-1.5,.58Z"/>
    </g>
  </g>
</svg>