<?xml version="1.0" encoding="UTF-8"?>
<svg id="Ebene_2" data-name="Ebene 2" xmlns="http://www.w3.org/2000/svg" width="17.82mm" height="29.64mm" viewBox="0 -8 50.52 100">
  <g id="Ebene_1-2" data-name="Ebene 1">
    <g id="Zero">
      <path d="M49.02,58.48c-.18,.18-.33,.33-.48,.48,0,.82-.07,1.67,.02,2.5,.1,1-.34,1.92-.26,2.9,0,.07-.04,.14-.08,.2-.45,.73-.42,1.54-.39,2.31-.17,.17-.32,.32-.47,.47v1.47c-.49,.19-.39,.77-.67,1.11-.31,.36-.48,.74-.56,1.22-.07,.42-.35,.8-.55,1.24-.4,.58-.83,1.21-1.25,1.84-.27,.42-.39,.94-.91,1.18-.09,.04-.11,.26-.15,.4-.16,.55-.54,.82-1.11,.82-.2,.36-.32,.9-.61,1.03-.36,.15-.34,.69-.8,.63-.81,.75-1.66,1.47-2.32,2.37-.85-.03-1.54,.39-2.22,.76-.7,.38-1.35,.85-2.15,.71-.37,.25-.69,.47-1.07,.72-.98,.03-2.1-.19-3.03,.69-.92,.18-2-.28-2.88,.5h-1.92c-.15-.15-.32-.31-.5-.47-.84,0-1.68-.01-2.52,0-1.2,.02-2.37-.07-3.53-.45-.52-.17-1.14-.01-1.69-.26-.37-.17-.77-.26-1.12-.49h-1.15c-.57-.37-1.24-.53-1.63-1.1-.64,.04-.99-.62-1.68-.63-.54,0-1.1-.42-1.59-.73-1.04-.66-1.84-1.59-2.71-2.45,.07-.46-.64-.37-.58-.82-.19-.02-.38-.04-.59-.06-.02-.21-.04-.4-.06-.58-.52-.19-.87-.63-1.05-1.08-.35-.86-.71-1.71-1.12-2.54-.15-.3-.21-.64-.32-1-.05-.01-.16-.03-.32-.07v-1.02c-.18-.15-.33-.28-.45-.38-.23-1-.32-1.98-.69-2.89-.06-.14-.11-.29-.11-.43-.01-.6,.03-1.2-.01-1.8-.04-.53-.09-1.07-.24-1.58-.29-.92-.2-1.85-.24-2.78-.01-.33-.1-.68-.24-.98-.32-.67-.22-1.37-.23-2.07-.02-1.57-.34-3.12-.26-4.7,.08-1.6,.18-3.22-.03-4.79-.2-1.46-.15-2.9-.18-4.35-.03-1.48,.01-2.96-.02-4.44-.01-.61,.09-1.21-.2-1.83-.31-.66,.29-1.34,.21-2.05,.38-.25,.23-.64,.24-.98,.01-1.64,.05-3.28-.02-4.92-.03-.76,.2-1.45,.27-2.18,.07-.67,.16-1.34,.43-1.98,.04-.1,.03-.23,.03-.35,.02-.88-.13-1.79,.48-2.56,.02-.02,0-.08,0-.12-.17-1.03,.34-2,.25-2.92,.31-.65,.58-1.22,.92-1.96-.05-.86,.44-1.77,.96-2.63,.49-.82,.89-1.64,1.04-2.73,.15-.19,.41-.46,.86-.76,.47-1.41,1.68-2.6,2.56-4.07,.14-.03,.4-.02,.57-.15,.55-.42,1.07-.9,1.61-1.34,.17-.14,.4-.21,.57-.35,.41-.34,.92-.49,1.29-.97,.36-.46,1.05-.67,1.6-.99,.02-.09,.04-.2,.06-.3,.22-.02,.41-.05,.59-.07,.06-.15,.11-.29,.18-.49,1.48,.34,2.63-.48,4.12-1.17,.52-.07,1.43,.26,2.14-.46,.55,0,1.13,.1,1.67-.02,1.76-.4,3.54-.12,5.3-.23,.44-.03,.86-.22,1.3-.33,.26-.07,.51-.13,.71-.18,.49,.37,.91,.7,1.3,1,.61-.45,1.27-.12,1.86-.26,.92,.84,2.34,.68,3.18,1.68h1.41c.53,.41,1.04,.81,1.35,1.04,.7,.3,1.17,.51,1.65,.71,.2,.69,.93,.9,1.48,1.11,.43,.45,.75,.78,1.13,1.19h.64c.38,.62,.85,1.12,1.24,1.66,.52,.71,.78,1.54,1.32,2.23,.17,.22,.29,.67,.45,.68,.57,.05-.01,.79,.5,.74,.41-.04,.13,.66,.63,.53,.05-.01,.35,.44,.32,.66-.07,.73,.56,1.14,.69,1.76,.02,.1,.16,.17,.23,.24,.1,.94,.2,1.86,.3,2.78,0,.04-.02,.09,0,.12,.78,1.26,.37,2.66,.49,4,.04,.45-.2,.94,.22,1.36,.1,.1,.09,.44,0,.58-.37,.54-.22,1.14-.22,1.71-.02,2.32-.02,4.64,0,6.96,0,.93-.13,1.82-.45,2.7-.08,.21-.04,.47-.04,.7,0,3.4,0,6.8,0,10.2,0,.3,.09,.59,.17,.88,.13,.49,.22,1.08-.09,1.6-.06,.09-.1,.22-.08,.32,.17,1.38-.26,2.73-.26,4.1,0,.57-.04,1.17-.25,1.69-.32,.81-.17,1.62-.21,2.43-.02,.47,0,.95,0,1.38Zm-29.7,15.7c.76,.08,1.5-.1,2.2,.25,.36,.18,.8,.22,1.14,.43,.49,.29,.77-.26,1.2-.2,.49,.07,.97,.1,1.47,.21,.72,.16,1.51,.06,2.27,.03,.53-.02,1.03-.24,1.58-.27,.48-.03,.93-.41,1.42-.6,.38-.15,.73-.36,1.19-.34,.37,.01,.78-.06,.96-.57,.08-.23,.45-.4,.73-.51s.59-.11,.88-.15c.14-.82,1.07-.95,1.35-1.62h.53c.22-.24,.62-.47,.68-.76,.08-.43,.68-.36,.62-.81,.74-.13,.77-.85,1.08-1.33,.13-.2,.15-.47,.2-.65,.18-.07,.29-.1,.39-.14,0-.34-.13-.75,.02-.97,.53-.79,.59-1.76,1.07-2.56,.41-.69,.69-1.44,.59-2.27-.1-.86,.42-1.67,.24-2.54,.49-.48,.18-1.16,.43-1.74,.24-.58,.07-1.34,.05-2.02-.01-.52,.08-.99,.48-1.36,0-3.52,0-7.04,0-10.55,0-.41,.02-.81,.17-1.24,.16-.46,.25-1.03,.29-1.56,.09-1.37-.17-2.75,.25-4.1,0-2.36,0-4.72,0-7.08,0-.44-.16-.77-.44-1.11-.3,.31-.59,.51-.75,.79-.36,.62-.65,1.29-1.19,1.78-.52,.48-1,1.01-1.52,1.47-.68,.6-1.24,1.24-1.63,2.06-.16,.33-.34,.73-.63,.91-1.05,.65-1.77,1.55-2.25,2.67-.17,.39-.42,.71-.96,.73-.53,.02-.92,.5-1.14,.85-.22,.33-.51,.58-.73,.89-.22,.31-.5,.59-.66,.93-.19,.4-.42,.72-.83,.96h-.72c-.29,.53-.58,1.05-.89,1.61-.47-.07-.45,.53-.76,.76-.32,.24-.51,.63-.82,.89-.31,.26-.69,.43-1.03,.64-.28,.58-.57,1.18-.84,1.75-.31,.13-.58,.24-.87,.36,.02,.62-.96,.73-.75,1.54-.4,.38-.79,.86-1.28,1.19-.41,.28-.81,.6-1.11,.96-.29,.36-.65,.69-.83,1.19-.12,.33-.4,.8-.87,.94v.47c-1.02,.57-1.8,1.31-2.51,2.25-.26,.34-.5,.7-.89,.95-.3,.19-.58,.47-.73,.88-.11,.3-.58,.46-.88,.7-.11,.09-.25,.23-.26,.36-.06,.62-.55,.98-.84,1.46-.23,.39-.74,.43-.95,.9-.18,.41-.64,.7-.99,1.06-.58-.22-.74,.32-1.13,.61,.1,.37,.19,.78,.3,1.18,.11,.43,.24,.86,.35,1.28,.12,.02,.23,.05,.37,.08v1.05c.18,.07,.38,.09,.44,.19,.51,.83,.99,1.67,1.48,2.5,.19,.32,.35,.67,.58,.96,.27,.34,.64,.61,.92,.95,.23,.28,.73,.27,.76,.74,.51-.13,.72,.38,1.11,.5,.96,.3,1.92,.57,2.86,.85,.03,.12,.05,.22,.08,.33Zm-10.95-20.38c.13,0,.2,.01,.2,0,.8-1.51,2.04-2.63,3.28-3.76,.65-.13,.98-.68,1.13-1.19,.25-.87,.9-1.43,1.46-1.98,.67-.67,1.08-1.59,1.93-2.08,.11-.71,.71-1.07,1.09-1.59,.4-.55,.76-1.13,1.18-1.67,.38-.48,.93-.75,1.28-1.24,.13-.19,.26-.38,.54-.77,0,.06,.03-.16,.05-.33,.19-.05,.29-.08,.42-.11v-.77c.12-.12,.2-.16,.23-.23,.14-.33,.82,.16,.74-.49,.45-.05,.39-.42,.53-.72,.17-.35,.51-.73,.95-.62,.41-.41,.77-.77,1.15-1.15,.01-.12,0-.4,.05-.41,.49-.09,.63-.58,.78-.88,.18-.35,.54-.37,.7-.64,.19-.32,.34-.66,.52-.98,.17-.32,.26-.68,.74-.78,.3-.06,.54-.39,.83-.61v-.43c.45-.27,1.18-.95,1.16-1.28-.03-.56,.47-.67,.71-.97,.25-.3,.66-.53,1.04-.64,.49-.13,.54-.59,.81-.88,.44-.46,.98-.8,1.38-1.31,.52-.66,1.23-1.17,1.53-2.02,.07-.19,.34-.31,.51-.46,.1-.09,.21-.16,.28-.27,.27-.37,.5-.76,.79-1.11,.31-.37,.64-.72,1.02-1.01,.36-.28,.64-.65,.86-.99,.43-.68,1.25-.87,1.65-1.59,0-.96-.36-1.65-1.14-2.81-.59-.87-1.21-1.69-2.01-2.45v-.76c-.53-.06-.71-.52-1.06-.77h-.49c-.05-.13-.09-.27-.14-.39-.4-.13-.78-.26-1.12-.38-.04-.18-.06-.29-.09-.44-.85,.15-1.34-.34-1.75-.95-.08,0-.17-.02-.24,0-.74,.26-1.43,.35-2.21,.03-.58-.24-1.28-.22-1.93-.26-.24-.01-.49,.21-.74,.21-.29,0-.57-.17-.86-.21-.13-.02-.27,.11-.41,.15-.15,.04-.35,.13-.44,.07-.58-.4-1.21-.15-1.67-.22-1.44,.64-2.76,1.14-4.13,1.22-.8,.38-1.53,.73-2.27,1.08,.01,.04,.03,.09,.04,.13h-.68c-1.07,1.07-2,2.11-2.7,3.29-.13,.04-.23,.08-.33,.11v.61c-.75-.26-.53,.81-1.06,.8-.32,.95-.63,1.87-.94,2.77-.15,.05-.28,.1-.41,.14v.77c-.21,.54-.43,.88-.46,1.23-.05,.69-.32,1.31-.47,1.97-.11,.47-.34,.92-.29,1.46,.07,.68,.15,1.41-.39,1.99-.07,.07-.06,.22-.07,.33-.08,1.45-.17,2.89-.24,4.34-.02,.46,.02,.9-.23,1.35-.26,.47-.28,1.02-.26,1.57,.03,.92,.03,1.84,0,2.76-.04,1.15,.25,2.35-.47,3.4-.04,.05,0,.16,0,.24-.02,1.21,.11,2.43-.24,3.62v9.27c.16,.28,.29,.49,.39,.66Z"/>
    </g>
  </g>
</svg>
