<?xml version="1.0" encoding="UTF-8"?>
<svg id="Ebene_1" data-name="Ebene 1" xmlns="http://www.w3.org/2000/svg" width="99.83mm" height="120.74mm" viewBox="0 0 282.98 342.25">
  <path d="M254.94,252.19c.12,.16,.24,.31,.34,.45,.11,.44-.33,.53-.46,.8,.03,.37-.29,.81,.26,1.02l-.19,1.98c.12,.17,.22,.33,.35,.51-.11,.11-.24,.23-.39,.38l-.07,.77c.1,.14,.22,.29,.33,.44-.13,.12-.27,.25-.41,.38,.41,.29,.32,.68,.27,1.13-.1,.1-.22,.24-.36,.38,.08,.19,.17,.4,.31,.69-.13,.15-.29,.34-.49,.57l-.11,1.11c.11,.14,.23,.3,.35,.45l-.15,1.56c.09,.11,.17,.21,.25,.31,.02,.12,.08,.24,.07,.36-.07,.85-.16,1.69-.23,2.48-.18,.17-.32,.31-.51,.49,.1,.22,.2,.44,.39,.87l-.47,4.94,.33,.4-.37,3.88c.12,.16,.23,.32,.36,.49l-.37,3.9c-.13,.12-.27,.25-.41,.38,.08,.1,.17,.2,.31,.38-.01,.37-.03,.81-.05,1.23,.11,.16,.2,.3,.29,.44l-.37,.3-.11,1.16c.1,.17,.22,.38,.38,.67-.17,.19-.33,.37-.52,.6l-.14,1.51c.11,.15,.23,.3,.35,.46l-.07,.75c.12,.17,.24,.32,.4,.54-.12,.19-.26,.39-.49,.76l-.14,1.43c.05,.07,.15,.23,.28,.42-.1,.1-.23,.23-.38,.38l-.07,.77c.09,.13,.21,.28,.33,.44l-.11,1.16c-.14,.13-.29,.25-.42,.37l-.07,.77c.13,.17,.24,.33,.36,.49l-.26,2.71,.31,.37c-.11,.11-.22,.23-.37,.39l-.21,2.18-3,2.47-2.6-.25-.37,.3-3.86-.37c-.77,.18-1.19,.27-1.54,.35-.27-.23-.46-.39-.7-.6-.22,.13-.43,.25-.69,.4l-1.1-.11c-.16,.12-.31,.24-.45,.34-.42,.09-.56-.25-.84-.53-.22,.09-.44,.18-.91,.37l-3.73-.36c-.18,.15-.28,.23-.41,.34l-2.65-.25c-.25,.15-.47,.27-.75,.43-.19-.17-.38-.33-.59-.53l-.73-.07c-.15,.11-.3,.23-.47,.35l-2.72-.26c-.11,.09-.21,.17-.31,.26-.05,.03-.11,.08-.16,.08-1.37-.13-2.74-.26-4.11-.39-.06,0-.12,.01-.18,.02l-.38,.31-3.52-.34c-.18,.15-.28,.23-.39,.32l-1.65-.16c-.12-.15-.21-.25-.3-.36-.15,.11-.29,.22-.45,.33l-.76-.07c-.16,.12-.31,.24-.47,.36l-3.88-.37c-.17,.13-.33,.24-.47,.34l-.66-.06c-.16-.13-.35-.29-.6-.51-.18,.09-.4,.19-.73,.35l-3.77-.36c-.17,.12-.32,.23-.5,.36l-2.31-.22c-.16,.12-.31,.24-.47,.36-.12-.14-.25-.28-.36-.41l-.79-.08c-.11,.09-.21,.18-.31,.26-.53,.22-.91-.11-1.31-.36-.1,.08-.2,.17-.33,.27l-2.31-.22c-.17,.12-.32,.23-.5,.36l-3.08-.3c-.12,.09-.22,.16-.36,.27-.01,.01-.07,.09-.11,.09-1.7-.16-3.39-.32-5.09-.48-.1,.08-.2,.17-.38,.31l-1.96-.19c-.18,.15-.28,.23-.43,.35l-4.23-.41c-.18,.11-.34,.21-.61,.38l-4.65-.45c-.18,.15-.28,.23-.4,.33l-3.88-.37c-.17,.12-.32,.23-.5,.36l-3.88-.37c-.16,.12-.31,.24-.47,.36l-4.69-.45c-.1,.08-.2,.17-.36,.3-1.05,.07-2.13-.22-3.23-.22-.1,.08-.2,.17-.35,.29l-2.66-.26c-.18,.11-.34,.21-.56,.35l-3.04-.29c-.17,.12-.33,.22-.53,.36l-1.16-.11c-.1-.1-.23-.24-.37-.4l-1.16-.11c-.14,.11-.29,.22-.45,.35l-3.12-.3c-.1,.09-.21,.17-.4,.33-.88,0-1.83-.21-2.78-.21-.17,.12-.32,.23-.46,.32l-.64-.06c-.18-.14-.37-.3-.64-.51-.18,.09-.4,.2-.71,.36l-3.01-.29c-.16,.12-.32,.23-.49,.36l-4.66-.45c-.11,.08-.21,.16-.32,.24-.05,.04-.11,.12-.15,.11-1.57-.14-3.13-.3-4.69-.45-.11,.09-.21,.17-.38,.32-.63,.05-1.33-.15-2.02-.12-.17,.12-.33,.23-.46,.32l-.63-.06c-.19-.15-.38-.3-.62-.49-.25,.11-.53,.23-.89,.39-.15-.13-.34-.29-.53-.46-.07,.06-.17,.13-.36,.27,.03-.03-.02,.05-.07,.05-1.04-.09-2.09-.2-3.12-.29-.11,.09-.21,.18-.35,.29-.54,.15-1.1-.14-1.55-.07-.29-.23-.48-.38-.8-.63-.28,.35-.52,.65-.69,.87l-2.48-.24c-.31,.13-.5,.51-.89,.33-.13-.14-.26-.29-.38-.42l-.77-.07c-.17,.13-.32,.24-.49,.36l-4.27-.41c-.12,.1-.22,.18-.4,.33l-5.48-.53c-.18,.15-.28,.23-.45,.38l-1.96-.19c-.18,.15-.28,.23-.4,.33l-3.48-.33c-.23,.14-.44,.27-.54,.34-.47,.03-.51-.31-.72-.43l-1.17-.11c-.11,.09-.21,.17-.42,.35-.99-.09-2.08-.2-3.14-.3-.14,.12-.24,.2-.42,.35l-5.48-.53c-.18,.15-.28,.23-.41,.34l-3.97-.38c-.23,.24-.49,.53-.77,.83-.14-.19-.22-.29-.37-.5-.48-.09-1.06-.12-1.63-.16-.11,.09-.21,.17-.39,.32l-1.53-.15c-.26,.18-.42,.28-.64,.43-.19-.14-.39-.29-.68-.51l-1.47-.14c-.11,.08-.26,.19-.44,.32l-2.7-.26c-.16,.12-.31,.24-.47,.36l-2.33-.22c-.16,.12-.31,.24-.44,.33-.43,.09-.57-.27-.86-.52-.21,.09-.43,.18-.88,.37l-3.75-.36c-.18,.15-.28,.23-.4,.33l-4.27-.41c-.17,.12-.32,.23-.5,.36l-1.91-.18c-.22,.14-.43,.27-.67,.43-.22-.21-.4-.38-.65-.6-.19,.07-.42,.16-.86,.32l-4.04-.39c-.18,.11-.34,.21-.56,.35l-2.59-.25c-.27,.15-.48,.27-.77,.42-.18-.15-.37-.31-.56-.48-.07,.05-.17,.12-.27,.19-.05,.04-.11,.12-.15,.11-.91-.08-1.83-.17-2.72-.26-.16,.12-.31,.23-.45,.34-.09-.11-.18-.22-.3-.36l-3.12-.3c-.32,.16-.71,.37-1.17,.24-.46-.21-.52-.93-1.19-.9-.39-.5-.8-1.01-1.23-1.56l.03-.33c-.12-.16-.24-.31-.41-.53,.11-.19,.24-.4,.43-.71-.02-.04-.1-.17-.26-.42l.37-3.87c-.15-.18-.23-.28-.33-.4l.37-3.87c-.12-.17-.23-.32-.36-.5l.6-6.23c-.12-.16-.24-.31-.36-.47,.07-.78,.15-1.56,.23-2.34-.08-.1-.17-.2-.25-.3-.03-.05-.1-.11-.1-.16,.16-1.69,.32-3.39,.48-5.06-.1-.13-.19-.23-.27-.33-.21-.56,.09-.95,.43-1.33,.1-.31-.19-.46-.26-.68-.07-.23,.05-.52,0-.76-.05-.23-.23-.43-.4-.71,.18-.2,.35-.38,.53-.58l.07-.74c-.12-.16-.24-.31-.36-.48l.68-7.03c-.1-.12-.18-.22-.3-.37l.12-1.21s.17-.19,.34-.36c-.08-.12-.17-.26-.29-.44l.11-1.11c-.12-.17-.23-.32-.36-.49l.49-5.05c-.08-.11-.16-.22-.27-.35-.22-.41,.09-.85-.02-1.25,.19-.17,.33-.3,.53-.48-.08-.21-.17-.44-.33-.86l.16-1.66c-.14-.28-.26-.49-.4-.77,.16-.22,.33-.47,.56-.8-.1-.18-.22-.39-.37-.65l.07-.72c.14-.12,.28-.25,.42-.38l.07-.77c-.12-.17-.24-.32-.35-.46l.1-1c-.17-.51-.65-1.02-.04-1.53,.31-.26,.2-.59,.29-.91-.1-.14-.21-.3-.34-.49l.11-1.16c.13-.23,.6-.3,.35-.88-.02-.02-.13-.17-.25-.34l.19-1.93c-.12-.17-.24-.32-.34-.47l.06-.61c.17-.25,.34-.5,.52-.76-.13-.19-.23-.35-.33-.51,.13-.17,.26-.36,.45-.61-.12-.2-.24-.41-.39-.66l.26-2.68c-.12-.16-.24-.31-.35-.46-.11-.42,.32-.52,.44-.74l.08-.79c-.1-.12-.18-.22-.33-.4l.3-3.13c-.15-.18-.23-.28-.34-.41l.26-2.72s.43-.69,.45-.77c-.11-.15-.23-.3-.35-.46l.11-1.16c-.12-.16-.24-.31-.36-.47l.74-7.68c-.25-.63-.46-1.14-.67-1.66,.16-.16,.29-.29,.44-.45l.27-2.81c-.12-.15-.21-.25-.3-.37l.3-3.11c-.12-.16-.24-.31-.36-.47l.49-5.09c-.08-.1-.17-.2-.34-.4,0-.48,.08-1.05,.15-1.61,.11-.09,.21-.17,.31-.26,.19-.43,.31-.85-.18-1.28l.38-3.94c-.15-.18-.23-.28-.33-.4l.48-4.99c-.1-.36-.52-.53-.32-.94,.13-.11,.27-.24,.42-.37,.04-.38,.07-.78,.11-1.17-.08-.1-.17-.2-.31-.38l.11-1.15c-.17-.24-.27-.39-.37-.53,.13-.1,.23-.19,.36-.3l.35-3.6-.3-.37,.22-2.31c-.12-.17-.23-.32-.36-.5l.07-.76c.16-.16,.33-.34,.53-.54-.17-.27-.3-.48-.44-.71l.64-6.62-.3-.37,.1-1.06c-.14-.27-.26-.48-.42-.78,.12-.16,.27-.35,.49-.63l.1-1.09c-.08-.12-.2-.27-.32-.44l.56-5.84c-.12-.16-.24-.31-.36-.47l.22-2.33c.14-.13,.28-.26,.41-.38l-.3-.36,.22-2.27c-.11-.18-.21-.34-.39-.61l.52-5.44c-.15-.18-.23-.28-.31-.38,.13-.26,.55-.36,.43-.77-.11-.15-.23-.31-.34-.45l.11-1.16c.15-.14,.3-.27,.5-.45-.08-.21-.17-.44-.34-.85l.16-1.72c-.11-.18-.22-.34-.39-.6l.37-3.87-.33-.4,.83-8.58c-.12-.16-.24-.32-.36-.49l.07-.77c.14-.12,.28-.25,.42-.38,.19-.39-.2-.57-.31-.86,.03-.33,.06-.65,.1-1.04-.1-.17-.22-.38-.39-.68,.16-.21,.34-.45,.55-.73-.11-.25-.23-.53-.36-.83,.19-.3,.38-.61,.55-.89-.17-.22-.29-.38-.41-.54l.22-2.33-.26-.31c-.03-.05-.09-.11-.08-.16,.15-1.63,.31-3.26,.46-4.9,0-.06-.01-.12-.02-.18l-.31-.38,.6-6.27-.34-.41,.48-5.04c-.12-.17-.23-.32-.36-.51l.07-.76c.15-.16,.32-.34,.4-.43,.12-.46-.21-.56-.3-.83l.3-3.09-.35-.42c.06-.6,.13-1.31,.19-2.02,.06-.65,.12-1.29,.18-1.9l-.35-.42,.6-6.27-.37-.45,.64-6.66-.33-.39,.11-1.15c-.12-.16-.24-.32-.36-.48-.11-.4,.27-.53,.46-.75l.11-1.16c-.13-.17-.24-.33-.36-.5l.41-4.24c-.13-.2-.24-.35-.39-.58,.14-.19,.29-.39,.48-.65l.15-1.57-.3-.37,.41-4.28c-.12-.16-.24-.31-.36-.47l.49-5.09c-.08-.1-.17-.2-.23-.27-.05-.08-.12-.14-.12-.19,.17-1.83,.35-3.65,.52-5.45-.1-.12-.19-.23-.33-.4l.53-5.48-.34-.42,.15-1.54c.37-.35,.55-.89,.97-1.29,.4-.37,1.03-.19,1.28-.71l2.38,.23c.16-.12,.32-.24,.48-.36l1.54,.15c.16-.12,.31-.24,.48-.36l1.94,.19c.11-.09,.21-.17,.31-.26,.05-.03,.11-.09,.16-.08,2.55,.24,5.09,.49,7.64,.73,.06,0,.12-.01,.18-.02,.1-.08,.2-.17,.38-.31l1.17,.11,.46-.38,2.35,.23,.4-.33,1.93,.19c.16-.12,.32-.24,.48-.36l5.09,.49c.09-.08,.18-.17,.2-.19,.14-.1,.2-.17,.25-.16,1.43,.13,2.87,.27,4.29,.41,.12-.1,.22-.18,.32-.26,.38-.15,.76,.01,1.21,0,.16-.09,.38-.21,.68-.38,.21,.16,.45,.34,.77,.57,.18-.1,.39-.21,.68-.36l1.1,.11c.11,.12,.24,.26,.33,.37,.4-.17,.8-.34,1.39-.59l2.61,.25,.42-.35,1.84,.18c.43-.27,.84-.42,1.33-.3,.11,.12,.24,.25,.39,.42l1.16,.11c.13-.1,.28-.22,.44-.34l2.33,.22c.13,.14,.25,.28,.38,.42,.11-.09,.22-.25,.31-.25,.82,.05,1.54-.47,2.4-.29,.76,.16,1.56,.17,2.39,.25,.13-.09,.29-.19,.47-.32,.11,.11,.23,.24,.38,.39l1.16,.11c.13-.1,.29-.22,.45-.34l2.72,.26c.16-.12,.31-.24,.44-.34l1.16,.11c.15,.15,.27,.27,.53,.54,.24-.33,.47-.65,.74-1.01,.33,.28,.52,.44,.76,.64l.72,.07c.14-.11,.29-.22,.45-.35l1.95,.19c.1-.09,.21-.17,.31-.25,.05-.03,.11-.1,.16-.09,1.17,.11,2.34,.22,3.5,.33,.29-.42,.69-.33,1.1-.29,.18,.14,.37,.3,.64,.51,.18-.09,.4-.2,.71-.36l1.44,.14c.16-.12,.32-.23,.49-.36l1.57,.15c.18-.16,.37-.34,.59-.55l.23-2.39-.3-.37,.15-1.54c-.12-.16-.24-.31-.36-.47l.11-1.17c-.08-.1-.17-.2-.31-.37l.12-1.23c-.68-.35-.21-.97-.47-1.43-.23-.4-.25-.93-.44-1.71l.35-3.61c.51-.76,1.55-.61,2.24-1.14,.16-.12,.5,0,.75,.01,.19,.18,.37,.34,.49,.45,.59,.08,.67-.51,1.07-.65l1.64,.16c.18-.15,.28-.23,.42-.35l2.28,.22c.18-.12,.33-.22,.54-.36l1.1,.11c.17-.12,.32-.23,.51-.36l1.13,.11c.16-.12,.32-.24,.48-.36l2.33,.22c.16-.12,.31-.24,.47-.36l.75,.07c.17-.13,.33-.24,.47-.34,1.13,.11,2.24,.22,3.35,.32,.06,0,.12-.01,.18-.02,.25-.21,.51-.42,.83-.69l2.35,.23,.39-.32,2.33,.22c.16-.12,.31-.24,.47-.36l2.74,.26c.1-.08,.19-.17,.26-.22,.09-.06,.15-.13,.2-.12,.91,.08,1.82,.17,2.71,.26l.4-.33,1.96,.19,.42-.34,1.69,.16c.11,.03,.17,.52,.73,.38,.16-.2,.41-.51,.55-.69,.49,.05,.75,.07,1.01,.1,.08,.1,.17,.2,.26,.32,.39,.25,.85,.16,1.29,.2,.25-.21,.51-.42,.8-.66l1.55,.15c.14,.12,.33,.28,.55,.45,.51-.21,1.02-.43,1.61-.67l1.45,.14c.13,.14,.26,.28,.38,.41l.36-.3,2.27,.22c.18-.11,.34-.21,.61-.39l4.26,.41,.4-.33c.12,.13,.25,.26,.39,.4l.76,.07c.14-.11,.3-.23,.45-.34l1.16,.11c.13,.14,.26,.28,.38,.41,.12-.1,.22-.18,.36-.3l2.83,.27c.25,.45,0,.9,.02,1.46-.25,.2-.55,.44-.87,.7l-.04,.42c-.51,.42-.96,.79-1.27,1.04l-.1,1.05c-.74,.61-1.49,1.23-2.15,1.78-.07,.45,.1,.53,.37,.66,.33,.16,.57,.5,.91,.83l1.16,.11c.17,.28,.38,.61,.53,.87l1.35,.13c.05,.22,.06,.49,.18,.68,.23,.36,.54,.67,.81,1,.17-.14,.27-.23,.36-.3,.34,.35,.69,.7,.98,1.01-.08,.24-.08,.4-.16,.47-.44,.39-.9,.76-1.38,1.15l-.65-.06c-.86,.71-1.66,1.37-2.42,2,1.14,.4,3.02,1.72,4.2,2.51l1.17,.11c.09-.06,.25-.17,.44-.3l1.93,.19c.16,.14,.34,.31,.46,.42,.16,.02,.25,.05,.29,.02,.3-.22,.6-.46,.9-.68l.3,.37,2.77,.27c.06-.04,.22-.14,.44-.28l1.83,.18c.26-.15,.47-.27,.76-.43,.19,.16,.37,.33,.6,.52l.72,.07c.15-.11,.3-.23,.52-.4,.28,.17,.59,.37,.88,.55,.43-.09,.65-.44,1.01-.67l2.75,.26c.08,.09,.22,.22,.34,.35,.43-.19,.87-.39,1.36-.61,1.04,.1,2.15,.21,3.26,.31,.06,0,.13,0,.19,0,.1-.08,.2-.17,.38-.31l1.57,.15,.42-.35,1.95,.19c.14,.11,.33,.26,.59,.47,.19-.1,.41-.22,.7-.37l2.25,.22c.16-.12,.32-.24,.48-.36l2.35,.23c.09-.08,.19-.17,.38-.34,.49-.02,1.06,.12,1.6,.12,.11,.13,.19,.23,.28,.33,.04,.02,.11,.08,.13,.06,.11-.07,.21-.16,.38-.31l1.96,.19,.41-.34,3.87,.37c.17-.12,.32-.23,.51-.36l.74,.07c.16-.12,.31-.24,.46-.35,.41-.09,.57,.22,.74,.44l.79,.08c.18-.13,.33-.24,.5-.36l2.31,.22,.37-.3,1.84,.18c.27-.15,.49-.26,.78-.42,.18,.15,.37,.3,.61,.51l.71,.07c.19-.12,.4-.25,.65-.41,.22,.21,.4,.38,.58,.54,.39,.19,.56-.23,.79-.29l1.2,.11,.38,.47c.22-.3,.44-.6,.58-.78l1.76,.17c.22-.14,.42-.28,.66-.44,.24,.22,.42,.38,.58,.53l1.54,.15c.18-.13,.34-.24,.47-.34l2.24,.22c.12-.08,.26-.24,.43-.28,.24-.05,.51,.03,.76-.02,.17-.03,.33-.18,.52-.29,.1,.11,.23,.24,.37,.38l1.55,.15c.14-.11,.3-.23,.45-.34l1.55,.15c.14,.15,.27,.3,.45,.5,.21-.08,.44-.17,.86-.33l1.71,.16c.18-.11,.34-.22,.61-.39l2.3,.22c.18-.15,.28-.23,.4-.33l3.49,.34c.16-.12,.32-.24,.49-.36l2.32,.22c.16-.12,.32-.24,.47-.36,.42-.11,.52,.31,.74,.44,.42,.17,.61-.19,.77-.26,.54-.13,.59,.37,1.03,.47,.12-.06,.34-.18,.64-.33l1.82,.18c.66,.81,1.32,1.61,2.02,2.46l-.37,3.82c.1,.12,.18,.22,.32,.39l-.45,4.7c.15,.18,.23,.28,.34,.41l-.12,1.25c-.14,.12-.24,.2-.37,.3,.1,.14,.2,.29,.32,.46l-.22,2.31c.12,.16,.24,.31,.36,.47l-.22,2.34c-.15,.14-.3,.27-.5,.45,.08,.21,.17,.44,.33,.86l-.39,4.06c.11,.18,.21,.34,.35,.55l-.55,5.74c.15,.26,.27,.48,.4,.71-.18,.27-.36,.52-.57,.83,.12,.2,.25,.4,.4,.63l-.33,3.47c.12,.17,.24,.32,.33,.44,.09,.44-.3,.56-.45,.79-.02,.41-.2,.82,.3,1.15l-.42,4.34c.15,.18,.23,.28,.33,.4l-.79,8.19c.12,.16,.24,.32,.36,.49l-.37,3.89c.12,.16,.24,.32,.36,.47,.11,.42-.31,.52-.52,.86,.07,.17,.16,.4,.35,.87l-.32,3.33c.15,.18,.23,.28,.34,.41-.12,.12-.24,.24-.39,.39l-.22,2.33c.09,.12,.21,.28,.33,.44l-.15,1.54c.12,.16,.24,.31,.4,.53-.11,.18-.23,.39-.35,.6-.31,.44-.22,.98-.3,1.48-.07,.45-.09,.9-.13,1.32,.12,.14,.2,.24,.35,.42l-.64,6.66c.15,.18,.23,.28,.34,.41-.12,.12-.24,.24-.38,.38,.1,.14,.21,.28,.32,.44l-.22,2.33c.12,.16,.24,.31,.41,.53-.11,.19-.23,.39-.54,.92l-.07,.77-.09,.92c.12,.15,.2,.25,.32,.39l-.25,2.62c.15,.28,.26,.49,.39,.74-.17,.25-.34,.5-.56,.83,.11,.18,.24,.39,.39,.64l-.45,4.64c.12,.16,.24,.31,.35,.45,.11,.44-.32,.53-.51,.89,.07,.16,.16,.39,.35,.84l-.59,6.09,.33,.41-.3,3.09c.12,.17,.23,.32,.36,.5l-.11,1.16c-.12,.11-.27,.24-.42,.37l-.07,.77c.12,.16,.24,.31,.36,.47l-.64,6.64c.09,.11,.18,.21,.32,.39l-.52,5.45c.18,.26,.28,.42,.42,.63-.18,.25-.35,.49-.59,.82,.1,.18,.22,.39,.37,.67l-.26,2.65c.12,.16,.24,.31,.36,.47-.1,.08-.2,.16-.32,.26-.24,.39-.16,.85-.2,1.29l.31,.38-.23,2.35c.15,.18,.23,.28,.32,.39-.06,.08-.11,.17-.18,.25-.04,.05-.1,.08-.17,.15l-.15,1.58c.08,.11,.2,.27,.32,.44l-.49,5.06c.12,.16,.24,.31,.36,.47l-.38,3.9c-.15,.14-.29,.26-.5,.45,.08,.21,.17,.44,.33,.87l-.24,2.48c.11,.18,.21,.34,.35,.56l-.3,3.12c-.08,.08-.21,.21-.36,.35,.1,.25,.37,.45,.3,.82-.04,.21,.39,.34,.28,.79-.08,.09-.25,.27-.48,.51,.07,.19,.16,.42,.33,.84l-.27,2.82c.24,.46,.44,.85,.3,1.36-.11,.1-.24,.24-.41,.4l-.11,1.16c.09,.12,.2,.27,.33,.44l-.11,1.16c-.14,.12-.28,.25-.42,.38l-.11,1.17c.09,.11,.17,.21,.32,.39l-.15,1.57c.15,.18,.23,.28,.35,.42l-.16,1.65c-.12,.1-.22,.18-.36,.29,.09,.14,.19,.28,.31,.46l-.11,1.16c-.14,.22-.56,.33-.45,.75,.12,.15,.23,.31,.36,.47l-.22,2.33c.09,.11,.17,.21,.26,.31,.03,.05,.09,.11,.08,.16-.21,2.28-.44,4.57-.65,6.85,0,.06,.01,.12,.02,.18,.08,.1,.17,.2,.29,.35l-.52,5.41c.12,.18,.22,.33,.33,.51,0,.41,.17,.91-.47,1.1,.14,.2,.25,.34,.37,.5l-.11,1.16c-.14,.13-.29,.25-.42,.37l-.07,.77c.13,.17,.24,.33,.36,.49l-.3,3.1c.1,.12,.18,.22,.33,.4l-.68,7.05c.15,.18,.23,.28,.34,.41l-.14,1.48c.15,.25,.27,.46,.43,.74-.18,.19-.34,.38-.53,.59l-.11,1.12c.12,.15,.24,.31,.36,.47l-.49,5.06c.13,.17,.24,.33,.34,.47l-.06,.66c-.13,.16-.29,.35-.51,.61,.09,.18,.19,.4,.39,.81l-.18,1.83c.15,.18,.23,.28,.32,.39-.14,.12-.27,.25-.42,.38l-.11,1.16ZM114.55,35.33c0,.5-.2,.99-.07,1.44l.28,.34c0,.12,0,.25-.02,.37-.05,.51-.1,1.01-.15,1.52,.41,.38,.28,.9,.34,1.37,0,.07,.2,.11,.3,.16l-.21,2.15c.12,.16,.24,.31,.35,.46-.06,.6-.11,1.19-.17,1.77,0,.06,0,.13,0,.2,.61,.31,.1,.96,.42,1.39,.43,.58-.06,1.25,.11,1.86,.32,.17,.66,.28,.89,.56,.16-.1,.34-.31,.48-.28,.77,.14,1.44-.56,2.24-.22,.1,.04,.31-.18,.52-.31l2.26,.22c.36-.41,.97-.28,1.35-.66,.12-.12,.5,.03,.74,.05,.17-.13,.33-.24,.45-.34l1.54,.15c.18,.16,.3,.36,.46,.41,.75,.21,1.44-.54,2.23-.18,.06,.03,.21-.11,.32-.18,.05-.03,.1-.08,.23-.19l1.45,.14c.57-.25,.97-.42,1.44-.62l1.45,.14c.17-.12,.32-.24,.48-.36l1.15,.11c.12-.1,.21-.24,.32-.26,.48-.08,.96-.05,1.43-.32,.27-.15,.78-.03,.98,.44,.15-.11,.3-.21,.46-.33l1.14,.11c.16-.12,.32-.24,.48-.36l1.15,.11c.17-.12,.32-.24,.48-.36l1.14,.11,.4-.33,1.59,.15c.41-.52,.84-.36,1.23-.22,.17,.16,.31,.28,.38,.35,.4,.11,.55-.27,.75-.27,.37,.01,.61-.14,.84-.36l1.94,.19c.17-.12,.32-.24,.48-.36l.73,.07c.19-.13,.34-.24,.51-.36l1.52,.15,.41-.34,1.67,.16c.24-.59,.68-.25,1.04-.29,.18,.16,.36,.33,.56,.51,.53-.23,1.03-.44,1.52-.65,.11,.11,.23,.23,.3,.3,.46-.19,.85-.35,1.38-.57l2.18,.21c.16-.12,.32-.23,.49-.36l.75,.07c.16-.12,.32-.24,.47-.36l2.2,.21c.74-.29,1.36-.54,1.98-.79-.4-.6-1.03-.87-1.82-1.34-.25-.31-.66-.82-1.08-1.36l.05-.55c.06,0,.15,.04,.19,.01,.32-.22,.25-.69,.64-.89,.27-.14,.44-.39,.55-.73,.11-.32,.54-.52,.82-.77l.15-1.57c-.26-.17-.52-.32-.77-.49-.25-.18-.3-.6-.69-.62-.07-.14-.11-.34-.22-.4-.14-.08-.34-.05-.52-.07-.25,.04-.29-.24-.45-.31-1.04-.48-1.86-1.18-2.41-2.15,.45-.47,.69-1.08,1.24-1.44,.54-.36,1.02-.82,1.52-1.24l.65,.06c.45-.18,.79-.32,1.18-.48-.08-.08-.15-.18-.24-.22-.8-.32-1.48-.84-2.14-1.38-.24-.2-.37-.55-.77-.49-.21-.4-.61-.38-.96-.52-.57-.22-1.11-.55-1.46-1.1,.14-.36-.14-.58-.29-.83,.49-.5,1.23-.75,1.4-1.53l1.61-1.33c-.08-.1-.12-.19-.17-.2-1.17-.12-2.34-.23-3.53-.34-.14,.11-.29,.22-.45,.34l-1.16-.11c-.16,.12-.32,.24-.47,.36l-6.4-.62c-.19,.22-.44,.51-.65,.75l-5.16-.5-.41,.34-1.57-.15c-.18,.14-.28,.23-.4,.33l-3.49-.34c-.16,.12-.32,.23-.49,.36l-1.13-.11c-.28,.15-.48,.5-.78,.36-.25-.22-.43-.39-.62-.57-.28,.16-.49,.29-.73,.43l-1.1-.11-.4,.33-1.8-.17c-.44,.19-.66,.29-.87,.38-.19-.2-.32-.33-.47-.49l-.77-.07c-.13,.1-.28,.22-.44,.34l-.77-.07c-.16,.12-.31,.24-.47,.36l-2.92-.28c-.15,.19-.38,.49-.6,.78-.19-.23-.27-.33-.34-.41-.71-.45-1.32,.45-2.02,.13-.15,.11-.3,.23-.47,.35l-1.14-.11c-.16,.12-.31,.23-.46,.34-.13-.14-.26-.29-.36-.4l-1.16-.11c-.19,.13-.34,.24-.44,.31l-1.16-.11c-.16-.15-.28-.27-.39-.37l-.76,.63c-.48,.11-.93-.18-1.39,.05-.07,.07-.17,.15-.26,.24-.13-.14-.26-.28-.38-.41l-.41,.34c-.68-.07-1.45-.15-2.22-.21-.11,0-.22,.09-.34,.15-.04,.45-.1,.9-.12,1.36,0,.11,.06,.23,.09,.35,.08,.1,.16,.21,.24,.31l-.07,.76c.12,.17,.24,.32,.36,.48l-.1,1.03c.24,.56,.44,1.01,.67,1.53l-.1,.99c.14,.23,.24,.39,.35,.57l-.1,1.09,.35,.43-.11,1.18c.14,.17,.23,.27,.31,.37l-.09,.98c-.02,.18-.09,.37-.03,.52,.04,.12,.23,.2,.35,.3Zm143.56,19.52c-.66-.67-.06-1.42-.34-2.06-.09-.23-.18-.45-.25-.64,.23-.24,.39-.42,.6-.65-.15-.24-.28-.45-.41-.65,.1-.08,.2-.17,.3-.25,.04-.05,.1-.09,.11-.15,.06-.52,.1-1.03,.15-1.51-.12-.15-.2-.25-.35-.42l.22-2.3c-.17-.27-.27-.43-.39-.61l.65-6.73c-1.13-.11-2.22-.21-3.26-.31-.19,.13-.34,.23-.48,.33-.28-.55-.74-.47-.96-.44-.43,.18-.65,.27-.87,.35-.28-.27-.42-.62-.84-.53-.14,.1-.29,.22-.45,.34l-1.15-.11c-.17,.12-.32,.24-.48,.36l-3.1-.3c-.12,.1-.22,.18-.4,.33l-2.35-.23c-.18,.15-.28,.23-.45,.38l-3.52-.34c-.18,.15-.28,.23-.4,.33l-.81-.08c-.18-.18-.33-.52-.74-.43-.14,.1-.29,.22-.45,.34l-3.5-.34c-.17,.12-.32,.24-.49,.36l-1.14-.11c-.12,.1-.22,.18-.4,.33l-3.87-.37c-.27,.17-.43,.27-.6,.39l-5.02-.48c-.15,.12-.25,.2-.35,.29-.96,.02-1.92-.25-2.82-.2-.17,.14-.27,.22-.38,.31l-3.12-.3c-.16,.12-.31,.24-.48,.36l-.71-.07c-.26,.15-.47,.27-.65,.37-.27-.18-.45-.31-.59-.41-.25,.11-.47,.21-.66,.29-.25-.22-.44-.38-.58-.5l-.68-.06c-.14,.11-.3,.22-.46,.35-.43,.02-.88-.21-1.29,0-.13,.1-.23,.17-.34,.26l-2.26-.22c-.27,.15-.48,.27-.69,.39-.25-.21-.44-.37-.63-.53-.43-.15-.8,.12-1.2,.2l-.27-.32c-.15,.11-.3,.22-.45,.33l-2.72-.26c-.16,.12-.31,.24-.47,.36l-4.66-.45c-.18,.13-.33,.24-.5,.36l-3.09-.3-.4,.33-1.96-.19-.4,.33c-.42-.02-.86-.04-1.24-.06-.16,.13-.26,.22-.38,.31-.12-.14-.25-.27-.38-.42l-1.16-.11c-.16,.12-.31,.24-.47,.36l-1.53-.15c-.17,.12-.31,.22-.44,.31-.16-.16-.29-.29-.36-.36l-2.37-.23-.37,.3-4.27-.41c-.17,.12-.32,.23-.5,.36l-1.12-.11c-.29,.15-.48,.5-.86,.32-.14-.15-.26-.3-.37-.42l-1.36-.13c-.18,.22-.43,.52-.57,.69l-1.31-.13-.32-.39c-.34,.28-.68,.56-1.01,.84-.02,.02,.01,.09,.04,.26,.54,.36,1.12,.82,1.77,1.15,.79,.4,1.22,1.1,1.76,1.72,.51,.59,.99,1.2,1.45,1.76-.05,.34-.09,.59-.13,.87-.51,.25-1.01,.49-1.56,.76l-.93-.09c-.61,.25-1.06,.43-1.51,.61-.33-.03-.65-.06-.98-.09-.21,.13-.42,.26-.67,.42-.21-.2-.39-.36-.74-.68-.21,.3-.45,.62-.61,.84-.4-.02-.66-.03-.85-.04-.44,.25-.65,.78-1.2,.65-.18-.17-.36-.33-.59-.55-.24,.16-.46,.42-.65,.4-.39-.05-.58,.22-.89,.36l-1.8-.17c-.32,.16-.54,.27-.71,.35-.36-.17-.46-.6-.77-.54-.35,.29-.65,.54-.88,.72l-2.08-.2c-.16,.12-.31,.24-.47,.36l-2.11-.2c-.18,.22-.43,.51-.6,.72l-2.32-.22c-.39,.44-.94,.25-1.41,.36-.06,.01-.1,.08-.15,.12-.05,.04-.1,.08-.16,.13l-1.14-.11c-.29,.15-.48,.5-.78,.36-.25-.23-.43-.39-.59-.53-.36,.16-.64,.27-.9,.38-.28-.2-.52-.38-.7-.51-.37,.31-.67,.55-.88,.72l-.92-.09c-.26,.09-.37,.43-.83,.3-.09-.08-.27-.25-.43-.4l-.76-.07c-.19,.13-.34,.24-.51,.36l-1.09-.11c-.21,.14-.37,.24-.54,.35l-3.44-.33c-.37,.24-.58,.61-1,.66q-.77-.51-1.46-.12l-1.49-.14c-.19,.13-.34,.24-.51,.36l-1.38-.13c-.6,.25-1.05,.43-1.5,.62l-2.95-.28c-.14,.11-.3,.22-.46,.35l-1.15-.11c-.16,.12-.31,.24-.46,.35l-.77-.07c-.14-.15-.27-.3-.37-.41l-.77-.07c-.19,.13-.35,.24-.52,.36l-1.87-.18c-.22,.14-.37,.24-.55,.35l-1.49-.14c-.15,.12-.25,.2-.35,.29-.97,.02-1.92-.24-2.82-.2-.17,.14-.28,.23-.33,.27-.55-.64-1.11-1.28-1.64-1.89,.01-.29,.13-.7,.02-.78-.52-.39-.09-.99-.4-1.42-.38-.53-.03-1.13-.05-1.69,0-.05-.42-1.87-.45-1.95-.05-.17-.1-.35-.14-.5,.18-.17,.33-.29,.5-.45,.02-.54-.54-1.01-.3-1.6-.61-.46-.1-1.1-.27-1.64-.16-.18-.32-.37-.48-.55-.16,.11-.31,.21-.4,.28-.23-.18-.43-.32-.62-.47-.22,.15-.38,.26-.64,.43l-2.7-.26-.38,.31c-1.09-.05-2.18-.24-3.2-.26-.19,.16-.29,.25-.38,.33-.13-.15-.26-.29-.37-.42l-.78-.08c-.32,.2-.52,.56-.91,.62-.09-.11-.17-.21-.25-.3l-2.33-.22c-.55,.23-.94,.4-1.34,.57-.1-.11-.23-.25-.33-.37l-1.55-.15c-.18,.13-.34,.24-.51,.36l-1.91-.18-.36,.3-1.49-.14c-.36-.24-.56-.37-.76-.49-.22,.16-.37,.27-.54,.4l-.75-.07c-.16,.12-.32,.24-.48,.36l-4.28-.41c-.17,.12-.32,.24-.44,.33l-2.73-.26c-.16-.16-.29-.3-.28-.29-.55-.33-.69,.19-1.48,.18,.08,0-.3-.03-.64-.06l-.36,.3c-.69,0-1.39-.18-2.02-.13l-.39,.32c-1.29-.12-2.6-.25-3.9-.37-.05,0-.1,.07-.15,.11-.1,.08-.2,.15-.28,.21-.19-.17-.37-.33-.56-.49-.28,.16-.5,.28-.67,.38l-1.43-.14c-.32-.22-.51-.37-.79-.56-.3,.33-.56,.62-.76,.83l-4.04-.39c-.16,.12-.31,.24-.46,.35l-1.55-.15c-.14-.15-.26-.28-.35-.37-.25,.13-.47,.24-.65,.33-.27-.21-.46-.36-.64-.51-.4-.04-.8-.13-1.09,.28l-2.25-.22c-.51,.24-.96,.44-1.43,.66l-1.88-.18c-.14-.15-.26-.27-.4-.41-.24,.31-.53,.32-.88,.32-.29,0-.57,.18-.99,.32l-2.73-.26c-.44,.16-.66,.25-.87,.33-.18-.2-.31-.35-.44-.49-.15,.11-.3,.23-.46,.35l-2.31-.22c-.18,.13-.33,.24-.5,.36l-4.66-.45c-.13,.1-.23,.19-.4,.33l-1.26-.12c-.36,.48-.7,.93-1,1.32l-.53,5.48,.34,.41-.4,4.12c.19,.47,.28,.7,.36,.92-.28,.27-.62,.42-.53,.83,.1,.14,.22,.29,.34,.45l-.34,3.49c.12,.17,.24,.32,.33,.44l-.11,1.1c-.21,.27-.36,.46-.49,.62,.16,.3,.27,.52,.41,.8l-.35,3.61c.16,.42,.25,.65,.33,.86-.2,.18-.35,.31-.5,.45l-.07,.77c.11,.15,.23,.3,.35,.47l-.3,3.1c.13,.17,.24,.33,.35,.48-.04,.26,0,.63-.14,.75-.55,.45-.4,1.03-.44,1.53,.13,.2,.23,.36,.34,.54l-.22,2.27,.3,.37-.08,.79c-.12,.11-.26,.24-.41,.37l-.11,1.13c.14,.23,.27,.44,.39,.63-.22,.32-.39,.57-.57,.83,.13,.24,.25,.45,.4,.72l-.16,1.71c.16,.37,.26,.59,.35,.8-.24,.3-.61,.43-.52,.87,.09,.12,.21,.28,.33,.44l-.6,6.25c.12,.16,.24,.31,.36,.47l-.26,2.71c.13,.18,.24,.33,.31,.44,.24,.67-.42,.94-.51,1.47,.09,.13,.19,.29,.37,.55l-.41,4.27c.15,.18,.23,.28,.31,.38-.03,1.1-.26,2.18-.24,3.21,.15,.18,.23,.28,.31,.37-.15,.13-.29,.26-.42,.37l-.11,1.18,.32,.39-.56,5.84c.16,.25,.25,.39,.34,.52-.15,.12-.25,.2-.34,.28l-.12,1.27,.3,.37-.3,3.11c.12,.16,.24,.31,.36,.47l-.07,.77c-.14,.13-.28,.26-.41,.38,.09,.11,.18,.22,.32,.39l-.21,2.21c.2,.41,.3,.63,.4,.85-.19,.19-.33,.32-.48,.48,.09,.13,.2,.28,.31,.44l-.37,3.86c.09,.26,.43,.37,.3,.83-.08,.09-.25,.27-.4,.43l-.26,2.73,.33,.4-.18,1.92c.16,.25,.24,.38,.33,.52-.15,.12-.25,.21-.41,.34,.07,.39-.18,.82,0,1.27l.26,.32c-.12,1.29-.25,2.59-.37,3.9,0,.05,.07,.1,.11,.16,.08,.1,.16,.2,.24,.31l-.6,6.24c.12,.17,.24,.32,.36,.48l-.33,3.47c.12,.18,.21,.32,.31,.46l-.36,.29-.16,1.66c.46,.32,.26,.73,.25,1.12,.1,.14,.22,.3,.33,.45-.13,.12-.28,.25-.41,.37l-.26,2.73c.12,.17,.24,.32,.2,.27,.37,.97-.7,1.37-.39,2.1,.13,.2,.23,.35,.27,.42l-.12,1.21-.36,.3c.11,.15,.21,.29,.33,.46-.04,.43-.09,.89-.12,1.35,0,.11,.06,.23,.09,.35,.08,.11,.16,.21,.24,.32l-.34,3.49c.13,.17,.24,.33,.35,.48-.04,.26,0,.63-.14,.75-.55,.44-.4,1.03-.44,1.53,.13,.2,.23,.36,.34,.54l-.48,5.01,.32,.38c-.12,1.27-.25,2.57-.37,3.88,0,.05,.06,.11,.09,.16,.08,.1,.17,.2,.25,.31l-.26,2.73c.12,.16,.23,.31,.34,.45-.15,.14-.29,.27-.39,.36l-.3,3.15c.48,.37,.32,.81,.24,1.08-.23,.33-.37,.53-.5,.72,.16,.22,.27,.38,.39,.54-.02,.95-.2,1.91-.22,2.77,.17,.2,.25,.3,.34,.41l-.49,5.08c.12,.16,.24,.31,.25,.33,.24,.58-.24,.65-.34,.87l-.11,1.19c.1,.13,.19,.23,.33,.4l-.3,3.13c.15,.18,.23,.28,.38,.46l-.34,3.52c.15,.18,.23,.28,.32,.39l-.11,1.17c-.15,.16-.32,.34-.53,.56,.16,.25,.29,.46,.43,.68l-.64,6.62c.09,.11,.18,.21,.32,.39l-.27,2.77c.52,.41,.36,.84,.23,1.25-.13,.14-.23,.25-.33,.36,.14,.16,.22,.27,.31,.38l-.15,1.56c-.18,.22-.56,.35-.46,.75,.12,.16,.24,.32,.36,.48l-.26,2.72c.1,.12,.18,.22,.32,.39l-.21,2.22c.2,.41,.3,.63,.41,.85-.19,.19-.32,.32-.46,.46l-.16,1.64,.31,.38c-.21,2.2-.43,4.41-.63,6.63,0,.05,.07,.1,.14,.22,.04,.05,.13,.14,.21,.24l-.3,3.13c.12,.16,.24,.32,.25,.33,.24,.59-.25,.64-.34,.85l-.11,1.18c.14,.21,.24,.36,.29,.44l-.15,1.56c-.16,.17-.26,.29-.36,.39,.14,.17,.22,.27,.25,.31,.14,.51-.17,.95,.09,1.44,.05,.06,.14,.15,.22,.24l-.45,4.7c.12,.16,.22,.31,.33,.45-.12,.1-.22,.18-.36,.3l-.23,2.43c.09,.12,.18,.22,.32,.39l-.15,1.57c.15,.18,.23,.28,.33,.4-.21,.21-.53,.36-.44,.76,.1,.14,.22,.29,.34,.45l-.3,3.11c.12,.17,.24,.32,.36,.48l-.67,7.02c.1,.12,.18,.22,.33,.4l-.45,4.7c.15,.18,.23,.28,.37,.45l-.36,3.73c.19,.47,.28,.7,.36,.91-.28,.27-.62,.42-.53,.83,.1,.14,.22,.29,.34,.45l-.45,4.67c.12,.17,.24,.32,.36,.49l-.71,7.41c.8,.73-.03,1.25-.18,1.79,.56,.68,1.1,1.33,1.77,2.15l1.43,.14c.13,.17,.21,.28,.28,.37l1.18,.11c.16-.12,.32-.24,.48-.36l4.65,.45c.18-.13,.34-.24,.51-.36l1.8,.17c.34-.16,.56-.26,.74-.35,.34,.2,.45,.6,.9,.51,.11-.08,.27-.2,.45-.33,1.01,.1,2.05,.2,3.1,.29,.05,0,.1-.07,.25-.17,.01-.01,.11-.1,.2-.18l3.92,.38c.16-.12,.32-.24,.48-.36l3.89,.37c.12-.1,.22-.18,.4-.33l3.13,.3c.18-.15,.28-.23,.38-.31,.23,.15,.47,.32,.7,.47,.22-.17,.38-.28,.55-.41l3.49,.34c.16-.12,.32-.24,.48-.36l5.06,.49c.17-.12,.32-.24,.48-.36l3.47,.33c.19-.13,.34-.24,.51-.36l1.01,.1c.35-.16,.57-.26,.79-.36,.19,.19,.32,.33,.48,.49l1.94,.19c.12-.09,.28-.21,.44-.33l1.54,.15c.16-.12,.31-.23,.46-.34,.13,.14,.26,.28,.36,.39l1.57,.15c.12-.1,.22-.18,.4-.33l1.6,.15c.32-.49,.74-.31,1.15-.3,.22,.16,.35,.54,.79,.45,.12-.09,.27-.2,.44-.33l3.11,.3c.16-.12,.31-.24,.47-.36l3.88,.37c.17-.13,.33-.24,.49-.36l4.27,.41c.12-.1,.22-.18,.4-.33l4.38,.42c0-.06,0-.11-.01-.17,.36-.07,.72-.13,1.03-.19,.15,.14,.23,.24,.34,.3,.15,.1,.32,.18,.47,.26,.19-.15,.35-.26,.51-.39,.64,.06,1.29,.13,1.94,.18,.05,0,.1-.07,.19-.15,.06-.05,.17-.12,.28-.21l2.7,.26c.17-.13,.33-.24,.46-.34,.5-.02,.88,.18,1.16,.47l1.51,.14c.22-.14,.38-.24,.56-.35l2.27,.22c.15-.12,.25-.21,.38-.31,1.67,.16,3.36,.32,5.05,.48,.05,0,.11-.06,.16-.09,.1-.08,.2-.17,.3-.25l2.34,.23c.16-.12,.31-.24,.45-.34l.77,.07c.14,.15,.27,.27,.38,.39,.18-.12,.34-.23,.51-.35l3.81,.37c.23-.14,.38-.24,.56-.35l2.66,.26c.15-.12,.25-.21,.37-.3l.79,.08c.11,.13,.24,.27,.36,.41,.15-.12,.3-.23,.46-.36l2.65,.25c.28-.15,.49-.27,.67-.37,.32,.23,.57,.41,.78,.57,.29-.16,.51-.28,.69-.38l1.06,.1c.24-.14,.44-.47,.85-.3,.11,.12,.23,.26,.36,.41l1.16,.11c.16-.12,.31-.24,.48-.36l3.87,.37c.18-.13,.34-.24,.51-.36l3.87,.37c.13-.11,.23-.19,.41-.34l3.47,.33c.28-.17,.44-.27,.62-.38l4.61,.44c.15-.13,.26-.21,.38-.31,1.28,.12,2.59,.25,3.89,.37,.05,0,.1-.07,.22-.14,.04-.04,.14-.12,.23-.21l3.09,.3c.25-.15,.46-.27,.64-.38,.33,.22,.58,.39,.82,.56,.25-.13,.47-.25,.75-.39l3,.29c.14-.12,.24-.2,.35-.28,.06,0,.12-.03,.18-.02,1.37,.13,2.74,.26,4.11,.39,.05,0,.11-.05,.16-.08,.1-.08,.2-.17,.31-.26l4.61,.44c.5-.23,.94-.43,1.37-.62,.13,.13,.26,.27,.34,.36l2.36,.23c.13-.11,.23-.19,.41-.34l2.74,.26c.18-.15,.28-.23,.38-.31,.06,0,.12-.02,.18-.02,1.37,.13,2.74,.26,4.11,.39,.05,0,.11-.05,.16-.08,.1-.08,.2-.17,.32-.26,.77,.07,1.55,.15,2.33,.22,.05,0,.1-.07,.16-.11,.1-.08,.2-.15,.3-.23,.13,.14,.26,.29,.36,.4l1.96,.19c.12-.1,.22-.18,.4-.33l3.52,.34c.18-.15,.28-.23,.46-.38l2.35,.23,.42-.34c.22,.02,.48,.03,.73,.07,.31,.06,.65-.04,1.27,.46-.17-.1,.04,.02,.23,.13,.22-.17,.37-.28,.53-.41l3.89,.37c.17-.12,.32-.24,.49-.36l3.49,.34c.12-.1,.22-.18,.4-.33l2.2,.21c.43-.19,.65-.29,.84-.38,.32,.22,.44,.61,.88,.52,.12-.09,.27-.2,.44-.33l2.69,.26c.23-.15,.44-.28,.63-.4,.32,.22,.57,.39,.83,.57,.23-.13,.45-.25,.71-.4l2.6,.25c.22-.14,.38-.24,.56-.35l3.45,.33,.38-.32c1.4,.13,2.83,.27,4.27,.41,.05,0,.11-.06,.16-.09l.31-.25,3.91,.38c.16-.12,.31-.24,.47-.36l3.51,.34c.27-.27,.7-.41,.67-.89-.12-.15-.23-.31-.35-.46l.41-4.29c-.12-.16-.24-.32-.33-.44l.22-2.34c.16-.16,.3-.29,.39-.38l.15-1.58-.34-.41,.41-4.31-.35-.42c.03-.28,.04-.61,.09-.93,.06-.38-.02-.78,.26-1.09,.12-.21,.24-.42,.35-.6-.17-.22-.28-.37-.41-.53l.34-3.5c-.12-.17-.24-.32-.36-.48l.56-5.85c-.47-.36-.32-.8-.21-1.21,.15-.16,.28-.29,.34-.35l.12-1.2-.32-.39c.21-2.18,.42-4.39,.63-6.61,0-.05-.05-.11-.08-.16-.08-.1-.17-.2-.26-.32,.14-1.49,.28-2.99,.44-4.49,.01-.11,.1-.22,.15-.32,.1-.09,.19-.17,.37-.33-.29-.26-.58-.52-.91-.81,.21-.29,.35-.48,.53-.73-.06-.09-.16-.23-.27-.41l.08-.78c.19-.18,.52-.33,.44-.75-.1-.14-.22-.29-.34-.45l.22-2.32c-.13-.17-.24-.33-.33-.44l.07-.7c.21-.27,.36-.47,.49-.63-.16-.3-.27-.52-.41-.79l.2-2.05c-.16-.43-.25-.66-.33-.87,.2-.18,.35-.31,.5-.45l.07-.77c-.11-.15-.23-.3-.33-.44,.15-.14,.29-.27,.29-.27,.34-.54-.16-.68-.2-1.18l.39-4.06-.34-.42,.49-5.09c-.15-.18-.23-.28-.34-.41,.21-2.19,.42-4.41,.63-6.62,0-.05-.06-.11-.09-.16-.08-.1-.17-.2-.25-.3l.6-6.26c-.12-.16-.24-.31-.25-.33-.24-.58,.24-.65,.34-.87l.07-.78c-.13-.2-.24-.36-.36-.53l.37-3.86-.3-.37c.12-.12,.25-.24,.4-.39l.07-.77c-.1-.13-.22-.29-.34-.44l.26-2.73c.15-.13,.29-.26,.42-.37,.2-.41-.22-.58-.32-.94l.13-1.36c-.16-.33-.26-.54-.33-.68,.13-.42,.61-.48,.49-.94-.09-.12-.2-.27-.32-.44,.04-.55,.07-1.13,.16-1.6,.2-.16,.31-.23,.4-.31-.12-.16-.24-.31-.36-.48l.18-1.92c-.13-.18-.24-.34-.31-.44l.11-1.16c.17-.18,.3-.31,.39-.4,.17-.53-.09-.91-.26-1.31,.03-.33,.06-.65,.09-.98,.15-.27,.58-.36,.47-.79-.11-.15-.23-.3-.35-.46l.15-1.54c-.12-.16-.22-.31-.33-.46,.53-.26,.47-.73,.45-1.05-.15-.33-.26-.55-.34-.74,.22-.26,.38-.44,.51-.6,0-.43,.16-.81,0-1.19-.08-.1-.17-.2-.26-.31l.37-3.9c-.12-.16-.24-.32-.35-.46l.11-1.12c.19-.22,.36-.4,.53-.6-.16-.28-.28-.5-.43-.75l.22-2.26c-.11-.13-.19-.23-.29-.35l.18-1.87c.24-.37,.37-.58,.49-.77-.16-.22-.28-.37-.4-.54l.37-3.89c-.12-.16-.24-.31-.35-.46l.11-1.16c.15-.14,.28-.26,.41-.38-.1-.12-.18-.22-.33-.4l.45-4.7c-.15-.18-.23-.28-.33-.39l.12-1.26c.15-.12,.25-.2,.37-.3-.23-.29-.45-.59-.67-.88,.14-.13,.28-.26,.39-.36l.26-2.75-.33-.4,.53-5.48c-.15-.18-.23-.28-.28-.34-.29-.69,.37-1.05,.49-1.57-.13-.18-.25-.33-.37-.49l.45-4.68c-.12-.16-.24-.31-.25-.33-.24-.58,.23-.64,.34-.87l.07-.77c-.13-.2-.24-.35-.36-.53l.45-4.64c-.11-.14-.2-.24-.34-.41l.34-3.52c-.15-.18-.23-.28-.32-.39l.79-8.18c-.14-.23-.27-.44-.39-.62,.22-.36,.4-.67,.68-1.12-.33-.24-.63-.46-.93-.68,.24-.2,.34-.28,.44-.37l.23-2.44c-.12-.15-.21-.25-.3-.37l.23-2.35c.12-.11,.27-.24,.42-.37l.07-.77c-.12-.16-.24-.31-.36-.47l.15-1.53c-.13-.18-.24-.33-.32-.45-.12-.47,.37-.53,.4-.64l.12-1.3c-.12-.14-.2-.24-.34-.42l.13-1.34c-.18-.51-.27-.73-.34-.94,.21-.18,.35-.31,.5-.44l.19-1.94c-.12-.16-.24-.31-.36-.47l.64-6.63-.32-.39,.45-4.7c-.15-.18-.23-.28-.33-.4,.04-.54-.1-1.1,.43-1.57,.2-.17,.19-.59,.07-.88-.1-.13-.19-.23-.28-.34l.15-1.54c-.16-.28-.5-.48-.32-.85,.15-.14,.3-.27,.42-.37l.07-.77c-.13-.18-.24-.34-.36-.51l.52-5.44c-.11-.13-.19-.23-.28-.33,.26-.34,.47-.7,.44-1.18-.1-.14-.21-.29-.35-.47,.19-1.93,.37-3.88,.56-5.84,0-.05-.07-.1-.17-.25-.02-.02-.1-.11-.19-.2l.33-3.48c-.15-.25-.27-.46-.41-.68,.21-.25,.37-.43,.53-.62,.13-.46-.06-.86-.31-1.31l.55-5.75c-.12-.14-.2-.25-.32-.39,.08-.87,.17-1.78,.25-2.69,0-.05-.05-.11-.28-.54,.06,.17-.02-.06-.09-.26,.21-.18,.35-.31,.49-.44l.11-1.12c-.15-.26-.27-.47-.4-.69,.21-.25,.37-.43,.53-.62l.14-1.49Z" style="fill: #030303;"/>
  <path d="M258.11,54.86c-.06,.58-.1,1.04-.14,1.49-.16,.19-.32,.37-.53,.62,.13,.22,.25,.43,.4,.69l-.11,1.12c-.14,.12-.28,.25-.49,.44,.07,.2,.15,.43,.09,.26,.23,.43,.29,.49,.28,.54-.08,.91-.17,1.82-.25,2.69,.12,.14,.2,.24,.32,.39l-.55,5.75c.25,.45,.43,.84,.31,1.31-.16,.19-.32,.37-.53,.62,.13,.22,.26,.43,.41,.68l-.33,3.48c.08,.09,.17,.18,.19,.2,.1,.14,.17,.2,.17,.25-.18,1.96-.37,3.91-.56,5.84,.13,.18,.25,.34,.35,.47,.03,.48-.19,.84-.44,1.18,.09,.1,.17,.21,.28,.33l-.52,5.44c.12,.17,.23,.32,.36,.51l-.07,.77c-.12,.11-.26,.24-.42,.37-.18,.38,.17,.57,.32,.85l-.15,1.54c.09,.11,.18,.21,.28,.34,.12,.29,.12,.71-.07,.88-.54,.46-.4,1.03-.43,1.57,.1,.12,.18,.22,.33,.4l-.45,4.7,.32,.39-.64,6.63c.12,.16,.24,.31,.36,.47l-.19,1.94c-.15,.13-.29,.26-.5,.44,.07,.21,.16,.43,.34,.94l-.13,1.34c.15,.18,.23,.28,.34,.42l-.12,1.3c-.03,.12-.52,.18-.4,.64,.08,.12,.19,.27,.32,.45l-.15,1.53c.12,.16,.24,.31,.36,.47l-.07,.77c-.15,.13-.29,.26-.42,.37l-.23,2.35c.09,.11,.18,.22,.3,.37l-.23,2.44c-.1,.09-.2,.17-.44,.37,.3,.22,.6,.44,.93,.68-.28,.46-.46,.76-.68,1.12,.12,.19,.24,.4,.39,.62l-.79,8.18c.1,.12,.18,.22,.32,.39l-.34,3.52c.15,.18,.23,.28,.34,.41l-.45,4.64c.12,.17,.22,.33,.36,.53l-.07,.77c-.11,.22-.59,.29-.34,.87,.01,.02,.13,.17,.25,.33l-.45,4.68c.12,.16,.24,.32,.37,.49-.12,.52-.77,.88-.49,1.57,.05,.06,.13,.16,.28,.34l-.53,5.48,.33,.4-.26,2.75c-.11,.1-.25,.23-.39,.36,.22,.29,.45,.58,.67,.88-.12,.1-.22,.18-.37,.3l-.12,1.26c.1,.12,.18,.22,.33,.39l-.45,4.7c.15,.18,.23,.28,.33,.4-.13,.12-.26,.25-.41,.38l-.11,1.16c.11,.15,.23,.3,.35,.46l-.37,3.89c.12,.17,.24,.32,.4,.54-.12,.19-.25,.39-.49,.77l-.18,1.87c.1,.12,.18,.22,.29,.35l-.22,2.26c.15,.26,.27,.47,.43,.75-.17,.19-.33,.37-.53,.6l-.11,1.12c.11,.15,.23,.3,.35,.46l-.37,3.9c.09,.11,.17,.21,.26,.31,.16,.38-.01,.76,0,1.19-.13,.16-.29,.34-.51,.6,.09,.19,.19,.41,.34,.74,.02,.32,.08,.78-.45,1.05,.11,.15,.22,.3,.33,.46l-.15,1.54c.12,.16,.24,.31,.35,.46,.11,.43-.32,.52-.47,.79-.03,.33-.06,.65-.09,.98,.16,.4,.42,.78,.26,1.31-.09,.09-.22,.23-.39,.4l-.11,1.16c.07,.11,.19,.26,.31,.44l-.18,1.92c.12,.16,.24,.31,.36,.48-.1,.08-.2,.15-.4,.31-.09,.48-.12,1.05-.16,1.6,.12,.17,.24,.33,.32,.44,.12,.46-.37,.53-.49,.94,.07,.14,.17,.36,.33,.68l-.13,1.36c.1,.36,.52,.53,.32,.94-.13,.11-.27,.24-.42,.37l-.26,2.73c.12,.16,.24,.31,.34,.44l-.07,.77c-.15,.14-.27,.27-.4,.39l.3,.37-.37,3.86c.12,.17,.22,.33,.36,.53l-.07,.78c-.1,.22-.59,.28-.34,.87,.01,.01,.13,.17,.25,.33l-.6,6.26c.08,.1,.17,.2,.25,.3,.03,.05,.1,.11,.09,.16-.21,2.22-.42,4.43-.63,6.62,.11,.13,.19,.23,.34,.41l-.49,5.09,.34,.42-.39,4.06c.04,.5,.54,.64,.2,1.18,0,0-.14,.13-.29,.27,.11,.14,.22,.29,.33,.44l-.07,.77c-.15,.14-.29,.26-.5,.45,.08,.21,.17,.44,.33,.87l-.2,2.05c.14,.27,.26,.49,.41,.79-.13,.16-.27,.35-.49,.63l-.07,.7c.09,.12,.2,.27,.33,.44l-.22,2.32c.12,.16,.24,.32,.34,.45,.09,.42-.24,.57-.44,.75l-.08,.78c.12,.17,.21,.32,.27,.41-.18,.25-.32,.44-.53,.73,.33,.3,.62,.55,.91,.81-.18,.16-.27,.25-.37,.33-.05,.11-.14,.21-.15,.32-.15,1.5-.29,3-.44,4.49,.09,.11,.18,.21,.26,.32,.03,.05,.09,.11,.08,.16-.21,2.21-.42,4.43-.63,6.61l.32,.39-.12,1.2c-.06,.06-.19,.19-.34,.35-.11,.4-.26,.85,.21,1.21l-.56,5.85c.12,.16,.24,.32,.36,.48l-.34,3.5c.12,.16,.24,.31,.41,.53-.11,.18-.23,.39-.35,.6-.28,.31-.21,.71-.26,1.09-.05,.32-.07,.64-.09,.93l.35,.42-.41,4.31,.34,.41-.15,1.58c-.09,.09-.23,.22-.39,.38l-.22,2.34c.09,.13,.21,.28,.33,.44l-.41,4.29c.12,.16,.24,.31,.35,.46,.03,.48-.4,.62-.67,.89l-3.51-.34c-.16,.12-.31,.24-.47,.36l-3.91-.38c-.1,.09-.21,.17-.31,.25-.05,.03-.11,.1-.16,.09-1.43-.13-2.86-.27-4.27-.41l-.38,.32-3.45-.33c-.18,.11-.34,.21-.56,.35l-2.6-.25c-.26,.15-.48,.27-.71,.4-.26-.18-.51-.35-.83-.57-.2,.12-.4,.25-.63,.4l-2.69-.26c-.16,.12-.32,.24-.44,.33-.44,.09-.56-.3-.88-.52-.2,.09-.42,.19-.84,.38l-2.2-.21c-.18,.15-.28,.23-.4,.33l-3.49-.34c-.16,.12-.32,.24-.49,.36l-3.89-.37c-.16,.12-.32,.24-.53,.41-.18-.1-.39-.22-.23-.13-.62-.51-.96-.41-1.27-.46-.25-.05-.51-.05-.73-.07l-.42,.34-2.35-.23c-.18,.15-.28,.23-.46,.38l-3.52-.34c-.18,.15-.28,.23-.4,.33l-1.96-.19c-.1-.11-.23-.26-.36-.4-.09,.07-.2,.15-.3,.23-.05,.04-.11,.11-.16,.11-.78-.07-1.56-.14-2.33-.22-.12,.1-.22,.18-.32,.26-.05,.03-.11,.09-.16,.08-1.37-.13-2.74-.26-4.11-.39-.06,0-.12,.01-.18,.02-.1,.08-.2,.17-.38,.31l-2.74-.26c-.18,.15-.28,.23-.41,.34l-2.36-.23c-.09-.09-.22-.22-.34-.36-.43,.2-.87,.39-1.37,.62l-4.61-.44c-.11,.09-.21,.17-.31,.26-.05,.03-.11,.08-.16,.08-1.37-.13-2.74-.26-4.11-.39-.06,0-.12,.01-.18,.02-.1,.08-.2,.17-.35,.28l-3-.29c-.28,.15-.5,.26-.75,.39-.24-.16-.49-.33-.82-.56-.18,.11-.39,.23-.64,.38l-3.09-.3c-.09,.08-.19,.17-.23,.21-.12,.08-.17,.15-.22,.14-1.3-.12-2.61-.25-3.89-.37-.12,.1-.22,.18-.38,.31l-4.61-.44c-.18,.11-.34,.21-.62,.38l-3.47-.33c-.18,.15-.28,.23-.41,.34l-3.87-.37c-.17,.12-.32,.23-.51,.36l-3.87-.37c-.16,.12-.31,.24-.48,.36l-1.16-.11c-.13-.15-.26-.29-.36-.41-.41-.17-.61,.16-.85,.3l-1.06-.1c-.18,.1-.4,.22-.69,.38-.22-.16-.46-.33-.78-.57-.18,.1-.39,.21-.67,.37l-2.65-.25c-.16,.12-.31,.24-.46,.36-.13-.14-.25-.29-.36-.41l-.79-.08c-.11,.09-.22,.18-.37,.3l-2.66-.26c-.18,.11-.34,.21-.56,.35l-3.81-.37c-.17,.12-.33,.22-.51,.35-.11-.11-.23-.24-.38-.39l-.77-.07c-.14,.1-.29,.22-.45,.34l-2.34-.23c-.1,.08-.2,.17-.3,.25-.05,.03-.11,.1-.16,.09-1.69-.16-3.39-.32-5.05-.48-.13,.11-.23,.19-.38,.31l-2.27-.22c-.18,.11-.34,.21-.56,.35l-1.51-.14c-.29-.29-.66-.49-1.16-.47-.14,.1-.29,.21-.46,.34l-2.7-.26c-.11,.08-.22,.16-.28,.21-.09,.07-.15,.15-.19,.15-.65-.05-1.3-.12-1.94-.18-.17,.12-.32,.24-.51,.39-.15-.08-.32-.16-.47-.26-.1-.07-.19-.17-.34-.3-.31,.06-.67,.12-1.03,.19,0,.06,0,.11,.01,.17l-4.38-.42c-.18,.15-.28,.23-.4,.33l-4.27-.41c-.16,.12-.32,.23-.49,.36l-3.88-.37c-.16,.12-.32,.24-.47,.36l-3.11-.3c-.16,.12-.32,.24-.44,.33-.44,.09-.56-.3-.79-.45-.41-.02-.82-.2-1.15,.3l-1.6-.15c-.18,.15-.28,.23-.4,.33l-1.57-.15c-.1-.11-.23-.25-.36-.39-.15,.11-.3,.22-.46,.34l-1.54-.15c-.17,.12-.32,.24-.44,.33l-1.94-.19c-.16-.16-.29-.3-.48-.49-.22,.1-.44,.2-.79,.36l-1.01-.1c-.17,.12-.33,.23-.51,.36l-3.47-.33c-.16,.12-.32,.24-.48,.36l-5.06-.49c-.16,.12-.31,.24-.48,.36l-3.49-.34c-.17,.12-.32,.24-.55,.41-.23-.15-.47-.32-.7-.47-.1,.08-.2,.17-.38,.31l-3.13-.3c-.18,.15-.28,.23-.4,.33l-3.89-.37c-.16,.12-.32,.24-.48,.36l-3.92-.38c-.09,.08-.18,.17-.2,.18-.14,.1-.2,.17-.25,.17-1.04-.09-2.08-.2-3.1-.29-.18,.13-.34,.25-.45,.33-.45,.09-.56-.31-.9-.51-.19,.09-.41,.19-.74,.35l-1.8-.17c-.17,.12-.32,.23-.51,.36l-4.65-.45c-.16,.12-.32,.24-.48,.36l-1.18-.11c-.07-.09-.15-.2-.28-.37l-1.43-.14c-.67-.81-1.21-1.47-1.77-2.15,.15-.54,.98-1.06,.18-1.79l.71-7.41c-.12-.16-.24-.32-.36-.49l.45-4.67c-.12-.16-.24-.32-.34-.45-.09-.42,.25-.57,.53-.83-.09-.22-.18-.44-.36-.91l.36-3.73c-.15-.18-.23-.28-.37-.45l.45-4.7c-.15-.18-.23-.28-.33-.4l.67-7.02c-.12-.16-.24-.32-.36-.48l.3-3.11c-.12-.16-.24-.31-.34-.45-.09-.4,.23-.55,.44-.76-.1-.13-.19-.23-.33-.4l.15-1.57c-.15-.18-.23-.28-.32-.39l.23-2.43c.15-.12,.25-.2,.36-.3-.11-.15-.21-.29-.33-.45l.45-4.7c-.08-.09-.17-.18-.22-.24-.26-.49,.05-.94-.09-1.44-.03-.04-.11-.14-.25-.31,.1-.1,.2-.22,.36-.39l.15-1.56c-.05-.08-.15-.23-.29-.44l.11-1.18c.08-.2,.57-.26,.34-.85,0-.01-.12-.16-.25-.33l.3-3.13c-.08-.09-.17-.19-.21-.24-.07-.11-.14-.17-.14-.22,.21-2.22,.42-4.43,.63-6.63l-.31-.38,.16-1.64c.14-.14,.27-.27,.46-.46-.1-.22-.21-.44-.41-.85l.21-2.22c-.15-.18-.23-.28-.32-.39l.26-2.72c-.12-.16-.24-.31-.36-.48-.1-.41,.28-.53,.46-.75l.15-1.56c-.09-.11-.18-.21-.31-.38,.1-.11,.2-.22,.33-.36,.13-.4,.29-.84-.23-1.25l.27-2.77c-.15-.18-.23-.28-.32-.39l.64-6.62c-.14-.22-.27-.43-.43-.68,.21-.22,.38-.4,.53-.56l.11-1.17c-.09-.11-.18-.22-.32-.39l.34-3.52c-.15-.18-.23-.28-.38-.46l.3-3.13c-.15-.18-.23-.28-.33-.4l.11-1.19c.1-.22,.59-.28,.34-.87-.01-.01-.13-.17-.25-.33l.49-5.08c-.08-.1-.17-.2-.34-.41,.02-.87,.2-1.83,.22-2.77-.12-.17-.23-.32-.39-.54,.13-.19,.27-.39,.5-.72,.08-.27,.24-.71-.24-1.08l.3-3.15c.1-.1,.24-.23,.39-.36-.11-.14-.22-.29-.34-.45l.26-2.73c-.09-.1-.17-.21-.25-.31-.03-.05-.09-.11-.09-.16,.12-1.3,.25-2.6,.37-3.88l-.32-.38,.48-5.01c-.11-.18-.21-.34-.34-.54,.04-.5-.12-1.09,.44-1.53,.15-.12,.1-.49,.14-.75-.12-.16-.23-.31-.35-.48l.34-3.49c-.08-.11-.16-.21-.24-.32-.03-.11-.1-.23-.09-.35,.03-.46,.08-.91,.12-1.35-.12-.16-.23-.31-.33-.46l.36-.3,.12-1.21c-.04-.06-.14-.22-.27-.42-.31-.73,.76-1.14,.39-2.1,.04,.05-.07-.1-.2-.27l.26-2.73c.13-.12,.27-.25,.41-.37-.12-.16-.23-.31-.33-.45,.01-.4,.21-.81-.25-1.12l.16-1.66,.36-.29c-.09-.14-.19-.28-.31-.46l.33-3.47c-.12-.16-.24-.32-.36-.48l.6-6.24c-.08-.11-.16-.21-.24-.31-.04-.05-.11-.11-.11-.16,.12-1.3,.25-2.61,.37-3.9-.1-.12-.18-.22-.26-.32-.18-.45,.07-.88,0-1.27,.16-.13,.26-.22,.41-.34-.08-.13-.17-.27-.33-.52l.18-1.92-.33-.4,.26-2.73c.15-.16,.32-.34,.4-.43,.12-.46-.21-.56-.3-.83l.37-3.86c-.12-.17-.22-.31-.31-.44,.16-.15,.29-.29,.48-.48-.1-.22-.21-.44-.4-.85l.21-2.21c-.15-.18-.23-.28-.32-.39,.13-.12,.27-.25,.41-.38l.07-.77c-.12-.15-.24-.31-.36-.47l.3-3.11-.3-.37,.12-1.27c.1-.08,.2-.16,.34-.28-.09-.13-.18-.27-.34-.52l.56-5.84-.32-.39,.11-1.18c.12-.11,.27-.24,.42-.37-.08-.1-.16-.2-.31-.37-.01-1.03,.22-2.11,.24-3.21-.08-.1-.17-.2-.31-.38l.41-4.27c-.18-.26-.28-.42-.37-.55,.09-.53,.75-.8,.51-1.47-.07-.1-.19-.26-.31-.44l.26-2.71c-.12-.16-.24-.31-.36-.47l.6-6.25c-.12-.16-.24-.31-.33-.44-.09-.44,.28-.57,.52-.87-.09-.2-.19-.43-.35-.8l.16-1.71c-.15-.27-.27-.48-.4-.72,.18-.26,.35-.51,.57-.83-.12-.19-.25-.4-.39-.63l.11-1.13c.15-.14,.29-.26,.41-.37l.08-.79-.3-.37,.22-2.27c-.11-.18-.21-.34-.34-.54,.04-.5-.12-1.09,.44-1.53,.15-.12,.1-.49,.14-.75-.12-.16-.23-.31-.35-.48l.3-3.1c-.12-.16-.24-.32-.35-.47l.07-.77c.15-.14,.3-.27,.5-.45-.08-.21-.17-.44-.33-.86l.35-3.61c-.14-.28-.26-.5-.41-.8,.13-.16,.28-.35,.49-.62l.11-1.1c-.09-.12-.2-.27-.33-.44l.34-3.49c-.12-.16-.24-.32-.34-.45-.09-.42,.25-.57,.53-.83-.09-.22-.18-.44-.36-.92l.4-4.12-.34-.41,.53-5.48c.3-.4,.64-.84,1-1.32l1.26,.12c.18-.15,.28-.23,.4-.33l4.66,.45c.17-.12,.32-.23,.5-.36l2.31,.22c.16-.12,.31-.24,.46-.35,.13,.14,.26,.29,.44,.49,.21-.08,.44-.16,.87-.33l2.73,.26c.42-.15,.71-.32,.99-.32,.34,0,.64-.01,.88-.32,.13,.14,.26,.27,.4,.41l1.88,.18c.47-.22,.92-.42,1.43-.66l2.25,.22c.29-.41,.68-.32,1.09-.28,.18,.14,.37,.3,.64,.51,.18-.09,.4-.2,.65-.33,.09,.09,.21,.22,.35,.37l1.55,.15c.15-.11,.3-.23,.46-.35l4.04,.39c.2-.22,.46-.51,.76-.83,.28,.2,.48,.34,.79,.56l1.43,.14c.17-.1,.38-.22,.67-.38,.19,.17,.37,.33,.56,.49,.07-.06,.17-.13,.28-.21,.05-.04,.11-.11,.15-.11,1.3,.12,2.61,.25,3.9,.37l.39-.32c.64-.04,1.34,.14,2.02,.13l.36-.3c.34,.03,.72,.07,.64,.06,.79,0,.93-.51,1.48-.18,0,0,.12,.13,.28,.29l2.73,.26c.12-.09,.28-.21,.44-.33l4.28,.41c.16-.12,.31-.24,.48-.36l.75,.07c.17-.13,.32-.24,.54-.4,.19,.12,.39,.26,.76,.49l1.49,.14,.36-.3,1.91,.18c.17-.12,.32-.23,.51-.36l1.55,.15c.11,.12,.24,.26,.33,.37,.4-.17,.8-.34,1.34-.57l2.33,.22c.08,.09,.16,.19,.25,.3,.39-.06,.59-.42,.91-.62l.78,.08c.11,.12,.24,.27,.37,.42,.09-.08,.19-.17,.38-.33,1.02,.02,2.1,.21,3.2,.26l.38-.31,2.7,.26c.26-.18,.42-.28,.64-.43,.19,.15,.39,.29,.62,.47,.1-.07,.24-.17,.4-.28,.16,.18,.32,.37,.48,.55,.16,.54-.34,1.18,.27,1.64-.24,.6,.32,1.06,.3,1.6-.17,.15-.31,.28-.5,.45,.04,.15,.09,.33,.14,.5,.03,.08,.45,1.9,.45,1.95,.02,.57-.33,1.16,.05,1.69,.31,.43-.13,1.03,.4,1.42,.12,.09,0,.49-.02,.78,.53,.61,1.09,1.25,1.64,1.89,.05-.04,.15-.12,.33-.27,.9-.04,1.85,.22,2.82,.2,.1-.08,.2-.17,.35-.29l1.49,.14c.18-.11,.34-.22,.55-.35l1.87,.18c.17-.12,.33-.23,.52-.36l.77,.07c.1,.11,.23,.25,.37,.41l.77,.07c.15-.11,.3-.23,.46-.35l1.15,.11c.17-.12,.32-.24,.46-.35l2.95,.28c.45-.19,.91-.37,1.5-.62l1.38,.13c.17-.12,.33-.23,.51-.36l1.49,.14q.69-.38,1.46,.12c.43-.04,.63-.42,1-.66l3.44,.33c.18-.12,.33-.22,.54-.35l1.09,.11c.17-.12,.33-.23,.51-.36l.76,.07c.16,.15,.34,.32,.43,.4,.46,.12,.56-.21,.83-.3l.92,.09c.21-.17,.5-.42,.88-.72,.17,.13,.42,.31,.7,.51,.26-.11,.54-.23,.9-.38,.16,.14,.34,.31,.59,.53,.3,.14,.5-.21,.78-.36l1.14,.11c.06-.05,.11-.09,.16-.13,.05-.04,.1-.11,.15-.12,.47-.11,1.02,.08,1.41-.36l2.32,.22c.17-.21,.42-.5,.6-.72l2.11,.2c.16-.12,.31-.24,.47-.36l2.08,.2c.23-.19,.52-.43,.88-.72,.31-.06,.41,.36,.77,.54,.18-.09,.39-.19,.71-.35l1.8,.17c.31-.14,.5-.41,.89-.36,.18,.03,.4-.24,.65-.4,.23,.21,.41,.38,.59,.55,.56,.13,.77-.4,1.2-.65,.19,0,.45,.02,.85,.04,.16-.22,.39-.55,.61-.84,.35,.32,.53,.49,.74,.68,.26-.16,.47-.29,.67-.42,.33,.03,.65,.06,.98,.09,.45-.18,.9-.37,1.51-.61l.93,.09c.55-.27,1.05-.51,1.56-.76,.04-.28,.08-.53,.13-.87-.46-.56-.95-1.17-1.45-1.76-.54-.62-.97-1.33-1.76-1.72-.65-.33-1.23-.79-1.77-1.15-.03-.17-.06-.25-.04-.26,.33-.29,.68-.56,1.01-.84l.32,.39,1.31,.13c.14-.17,.39-.47,.57-.69l1.36,.13c.11,.12,.24,.27,.37,.42,.38,.18,.57-.17,.86-.32l1.12,.11c.18-.13,.33-.24,.5-.36l4.27,.41,.37-.3,2.37,.23c.07,.07,.2,.2,.36,.36,.13-.09,.27-.19,.44-.31l1.53,.15c.16-.12,.31-.24,.47-.36l1.16,.11c.13,.14,.25,.28,.38,.42,.11-.09,.21-.18,.38-.31,.38,.02,.82,.04,1.24,.06l.4-.33,1.96,.19,.4-.33,3.09,.3c.17-.12,.32-.23,.5-.36l4.66,.45c.16-.12,.31-.24,.47-.36l2.72,.26c.16-.12,.3-.23,.45-.33l.27,.32c.39-.08,.76-.35,1.2-.2,.19,.16,.38,.32,.63,.53,.21-.12,.42-.24,.69-.39l2.26,.22c.11-.08,.22-.16,.34-.26,.41-.2,.86,.03,1.29,0,.16-.12,.32-.24,.46-.35l.68,.06c.14,.12,.33,.28,.58,.5,.19-.08,.41-.18,.66-.29,.14,.1,.33,.23,.59,.41,.18-.1,.39-.22,.65-.37l.71,.07c.16-.12,.32-.24,.48-.36l3.12,.3c.11-.09,.21-.17,.38-.31,.9-.05,1.86,.22,2.82,.2,.1-.09,.21-.17,.35-.29l5.02,.48c.18-.11,.33-.22,.6-.39l3.87,.37c.18-.15,.28-.23,.4-.33l1.14,.11c.16-.12,.32-.24,.49-.36l3.5,.34c.16-.12,.31-.24,.45-.34,.42-.09,.57,.25,.74,.43l.81,.08c.12-.1,.22-.18,.4-.33l3.52,.34c.18-.15,.28-.23,.45-.38l2.35,.23c.18-.15,.28-.23,.4-.33l3.1,.3c.16-.12,.32-.24,.48-.36l1.15,.11c.16-.12,.31-.24,.45-.34,.42-.09,.56,.26,.84,.53,.21-.09,.44-.18,.87-.35,.23-.03,.68-.11,.96,.44,.15-.1,.29-.2,.48-.33,1.04,.1,2.13,.2,3.26,.31l-.65,6.73c.11,.18,.21,.34,.39,.61l-.22,2.3c.15,.18,.23,.28,.35,.42-.05,.48-.09,.99-.15,1.51,0,.05-.07,.1-.11,.15-.1,.08-.2,.17-.3,.25,.13,.2,.25,.41,.41,.65-.21,.22-.37,.4-.6,.65,.07,.19,.16,.42,.25,.64,.28,.64-.32,1.39,.34,2.06Zm-16.77,47.02c-.12-.16-.24-.31-.36-.46l.15-1.53c-.12-.17-.22-.31-.32-.46,.12-.1,.22-.19,.37-.3l.11-1.11c-.16-.37-.26-.59-.35-.8,.2-.19,.34-.32,.5-.47l.07-.77c-.1-.13-.22-.29-.34-.44l.56-5.86c-.12-.16-.24-.31-.36-.47l.67-6.96c-.15-.27-.27-.49-.37-.66,.23-.32,.41-.57,.59-.82-.14-.21-.25-.37-.42-.63l.37-3.88c-.15-.18-.23-.28-.32-.39l.23-2.35c.12-.11,.27-.24,.42-.37l.07-.77c-.12-.16-.24-.31-.36-.47l.53-5.46c-.09-.11-.18-.21-.32-.39l.41-4.31c-.15-.18-.23-.28-.31-.38-.27-.64,.36-1.01,.48-1.56-.1-.14-.22-.3-.39-.55l.15-1.55c-.15-.17-.23-.27-.31-.37l.11-1.13c-.43-.54-.83-1.05-1.22-1.54l-3.14-.3c-.17,.13-.33,.24-.49,.36l-1.92-.18c-.12,.1-.22,.18-.4,.33l-1.91-.18c-.27,.17-.43,.27-.61,.39l-3.45-.33c-.15,.12-.25,.21-.37,.3l-.79-.08c-.11-.12-.23-.26-.37-.41l-.77-.07c-.15,.11-.3,.23-.47,.36l-1.92-.18c-.17,.13-.33,.24-.49,.36l-1.92-.18c-.12,.1-.22,.19-.4,.33l-3.92-.38-.45,.38-1.57-.15-.39,.32c-.12-.13-.25-.27-.38-.41l-1.16-.11c-.15,.12-.31,.24-.47,.36l-1.53-.15c-.17,.13-.33,.24-.46,.34-.5,.02-.88-.18-1.16-.47l-1.15-.11c-.29,.24-.54,.45-.82,.68-1.41-.14-2.84-.27-4.27-.41-.05,0-.11,.06-.16,.09l-.3,.25-3.91-.38c-.16,.12-.31,.24-.45,.34l-.77-.07c-.14-.15-.27-.27-.32-.33-.52,.08-.65,.72-1.26,.58-.11-.12-.24-.26-.38-.41-.14,.1-.29,.22-.44,.33l-3.11-.3c-.15,.12-.3,.23-.44,.33-.14-.15-.27-.29-.33-.35-.76-.28-1.27,.21-1.85,.37-.09,.03-.19,.05-.27,.08l-.27-.32c-.13-.02-.25-.04-.39-.06-.15,.11-.3,.23-.46,.35l-4.29-.41c-.16,.12-.31,.24-.47,.36l-1.52-.15c-.17,.12-.32,.22-.44,.3-.15-.14-.27-.25-.38-.36-.15,.12-.25,.2-.43,.35l-1.96-.19c-.18,.15-.28,.23-.39,.32-.13-.14-.25-.28-.38-.42l-.77-.07c-.16,.12-.32,.24-.48,.36l-3.12-.3c-.23,.28-.51,.34-.87,.32-.27-.02-.54,.14-.74,.2-.24-.16-.45-.29-.64-.42-.22,.16-.37,.28-.54,.4l-2.71-.26c-.16,.12-.32,.24-.47,.36-.42,.11-.53-.3-.75-.45l-1.37-.13c-.17,.21-.42,.52-.53,.66-.91,.15-1.28-.7-2.02-.52-.13,.1-.28,.21-.46,.34-1.02-.1-2.06-.2-3.1-.29-.05,0-.1,.07-.15,.11-.1,.08-.2,.16-.31,.24l-3.11-.3c-.17,.12-.32,.24-.44,.33l-1.55-.15c-.15-.15-.27-.27-.34-.34-.52,.21-.97,.4-1.42,.58-.72-.07-1.43-.14-2.15-.21-.28,.11-.46,.5-.86,.31-.13-.14-.25-.28-.37-.41-.16,.12-.31,.23-.48,.35l-1.05-.1c-.31,.16-.52,.27-.7,.36-.27-.21-.46-.36-.58-.46l-1.18-.11-.37,.3-1.91-.18c-.23,.14-.44,.27-.69,.43-.21-.2-.39-.36-.56-.52-.16,.11-.31,.23-.43,.31l-1.09-.11c-.28-.21-.47-.36-.77-.6-.28,.34-.53,.64-.72,.87-.48-.05-.8-.07-1.12-.11-.12-.02-.22-.09-.34-.14l-.25-.31-1.95-.19c-.15,.12-.31,.24-.47,.36l-2.22-.21c-.55,.24-1,.44-1.52,.67l-2.48-.24c-.37,.16-.59,.26-.81,.35-.19-.2-.32-.33-.46-.48-.14,.1-.29,.21-.44,.33l-.77-.07c-.13-.15-.26-.29-.37-.42l-.77-.07c-.18,.13-.33,.24-.5,.36l-2.31-.22-.4,.33-1.57-.15c-.18,.15-.28,.23-.4,.33-.12-.12-.24-.25-.38-.39-.42-.04-.86-.21-1.3-.04-.11,.09-.21,.18-.31,.26l-1.56-.15c-.16,.12-.31,.24-.47,.36l-2.26-.22c-.28,.15-.49,.27-.68,.37-.26-.19-.44-.32-.56-.41-.45,.19-.85,.35-1.27,.52q-.51-.49-1.18-.08l-.29-.35-1.65-.16c-.11,.09-.21,.17-.39,.32l-3.5-.34c-.47,.28-.69,.79-1.25,.66-.13-.14-.26-.29-.38-.43l-.77-.07c-.16,.12-.32,.24-.48,.36l-1.54-.15c-.12,.1-.22,.18-.37,.3l-1.65-.16c-.09-.11-.18-.22-.26-.32-.21,.09-.42,.19-.63,.27-.23,.09-.46,.17-.82,.31l-1.02-.1c-.12-.13-.25-.27-.34-.37-.46,.19-.89,.37-1.27,.52-.49-.32-.95-.61-1.4-.9-.37,.29-.67,.53-.99,.77l-3.49-.34c-.17,.12-.32,.24-.49,.36l-2.69-.26c-.19,.13-.35,.24-.52,.36l-1-.1c-.36,.16-.58,.26-.73,.33-.39-.16-.46-.62-.91-.51-.13,.1-.28,.21-.45,.34l-3.5-.34c-.16,.12-.31,.24-.47,.36l-1.92-.18c-.16,.12-.31,.22-.45,.32l-.3-.36-2.03-.2-.36,.3c-.41-.02-.85-.04-1.24-.06-.16,.13-.26,.22-.39,.32-1.14-.11-2.31-.22-3.48-.33-.05,0-.11,.06-.16,.09-.1,.08-.2,.17-.31,.25l-5.08-.49c-.16,.12-.31,.24-.47,.36l-1.09-.11c-.27,.15-.48,.27-.66,.37-.33-.23-.57-.4-.94-.66-.26,.32-.51,.62-.73,.89l-1.76-.17c-.18,.15-.28,.23-.38,.31l-2.35-.23c-.2,.17-.4,.34-.6,.51-.06,.29-.12,.6-.17,.85-.16,.13-.26,.21-.41,.34,.1,.53-.23,1.1-.06,1.6,.14,.17,.22,.28,.3,.38l-.34,3.5c.12,.17,.24,.32,.33,.44l-.22,2.33c-.15,.15-.27,.27-.39,.39,.11,.13,.19,.23,.34,.41l-.19,1.96,.33,.4-.41,4.24c.12,.32,.51,.5,.33,.89-.14,.13-.29,.26-.43,.38-.19,.39,.2,.57,.33,.89l-.21,2.2c.16,.3,.27,.52,.36,.7-.19,.25-.33,.43-.4,.53,.12,.31,.21,.53,.29,.74-.2,.18-.34,.31-.49,.44,.11,.15,.22,.3,.33,.44l-.07,.76c-.15,.14-.28,.26-.4,.38,.1,.12,.18,.22,.33,.4l-.17,1.8c.19,.43,.29,.65,.36,.81-.17,.38-.62,.46-.51,.91,.1,.13,.22,.29,.34,.45l-.26,2.72c.12,.16,.24,.31,.36,.47l-.6,6.23c.13,.17,.24,.33,.36,.49l-.56,5.84,.3,.37-.18,1.91c-.22,.31-.36,.51-.55,.79,.33,.3,.61,.57,.89,.83-.22,.2-.35,.32-.48,.44,.12,.16,.23,.32,.31,.43l-.1,1.09c-.21,.28-.36,.47-.51,.67,.15,.22,.25,.38,.43,.64l-.34,3.49,.32,.39c-.14,.12-.27,.25-.41,.37,.11,.15,.23,.3,.35,.46l-.64,6.62c.13,.18,.24,.33,.36,.5l-.37,3.88,.33,.4-.15,1.57c.15,.18,.23,.28,.33,.4-.12,.12-.25,.24-.4,.39l-.07,.77c.1,.13,.22,.29,.34,.44l-.45,4.68c.12,.16,.24,.31,.34,.44l-.11,1.16c-.15,.14-.27,.27-.38,.38,.12,.19,.23,.34,.35,.52l-.33,3.46,.34,.42-.26,2.74c.15,.18,.23,.28,.32,.39-.14,.12-.28,.25-.42,.38l-.19,1.94c.12,.16,.23,.3,.31,.42-.17,.21-.33,.4-.47,.57,.16,.29,.27,.51,.42,.78l-.21,2.23c.12,.14,.2,.24,.3,.37l-.08,.8c-.12,.22-.55,.31-.44,.75,.11,.14,.23,.29,.34,.45l-.19,1.94c-.14,.13-.28,.26-.41,.38,.09,.11,.18,.22,.32,.39l-.15,1.57,.37,.45-.38,3.92c.15,.18,.23,.28,.33,.4l-.19,1.97c-.11,.1-.25,.23-.4,.37l-.07,.77c.11,.14,.23,.3,.35,.45l-.11,1.11c.15,.25,.27,.46,.41,.68-.21,.24-.37,.43-.55,.64,0,.23-.07,.51,.02,.74,.08,.23,.35,.38,.24,.74-.1,.09-.23,.23-.39,.38,.09,.13,.2,.28,.32,.44l-.07,.75c-.17,.18-.34,.36-.49,.52,.25,.64,.48,1.2,.7,1.75-.17,.22-.33,.42-.43,.55l-.1,1c.16,.41,.25,.64,.32,.81-.22,.34-.63,.44-.52,.86,.12,.15,.23,.31,.36,.47l-.19,1.93c.12,.17,.24,.32,.36,.49l-.67,7.02c.1,.12,.18,.22,.33,.4l-.45,4.66c.17,.27,.27,.43,.32,.49l-.18,1.82c-.24,.38-.37,.58-.5,.78,.28,.36,.52,.67,.75,.96-.15,.13-.29,.26-.39,.36l-.34,3.53c.1,.12,.18,.22,.33,.4l-.21,2.2c.19,.43,.29,.65,.39,.87-.19,.19-.33,.32-.53,.51,.07,.38-.19,.81,0,1.24,.09,.11,.18,.21,.26,.32l-.54,5.62c.11,.68,.73,.81,.66,1.42-.13,.15-.29,.34-.41,.49l-.25,2.6c.16,.36,.26,.59,.33,.74-.17,.38-.62,.46-.51,.91,.1,.13,.22,.29,.34,.45l-.37,3.9c.12,.16,.24,.31,.35,.45,.11,.43-.32,.53-.44,.75l-.11,1.19c.1,.12,.19,.23,.33,.4l-.26,2.74c.15,.18,.23,.28,.37,.45l-.6,6.27c.15,.18,.23,.28,.34,.41-.16,1.67-.32,3.36-.48,5.05,0,.05,.06,.11,.09,.16,.08,.1,.17,.2,.25,.31l-.38,3.91c.12,.16,.24,.31,.36,.47l-.19,1.94c.18,.21,.34,.42,.52,.63,2.27,.22,4.55,.44,6.83,.65,.11,.01,.23-.05,.38-.09,.07-.07,.17-.16,.26-.24l3.52,.34c.16-.12,.32-.24,.48-.36l3.87,.37c.19-.13,.34-.24,.51-.36l1.4,.14c.34-.16,.56-.26,.78-.36,.19,.19,.32,.33,.47,.48,.41,.07,.85,.21,1.29,.06,.11-.09,.21-.17,.32-.26l2.33,.22c.16-.12,.32-.24,.55-.42,.21,.15,.45,.32,.69,.48,.15-.1,.3-.21,.47-.33l3.47,.33c.13-.11,.23-.19,.41-.34l4.12,.4c.47-.19,.69-.28,.9-.36,.18,.2,.31,.34,.44,.49,.15-.11,.3-.22,.46-.34l.75,.07c.17-.12,.32-.24,.45-.33,.78-.19,1.2,.81,1.91,.53,.21-.13,.37-.24,.54-.35l3.06,.29c.15-.12,.25-.2,.35-.29,.97-.02,1.92,.25,2.82,.2,.17-.14,.27-.22,.38-.31l1.94,.19c.16-.12,.31-.23,.45-.34,.13,.14,.26,.28,.37,.4,.43,.2,.58-.25,.77-.28l1.21,.12c.17,.16,.28,.27,.39,.37,.16-.13,.26-.21,.38-.31l1.93,.19c.16-.12,.32-.24,.48-.36l.74,.07c.19,.18,.37,.35,.58,.54,.27-.16,.48-.29,.72-.43l2.31,.22c.65-.17,1.16-.79,1.92-.59,.28,.13,.36,.58,.81,.46,.13-.1,.29-.22,.45-.34l1.16,.11c.13,.15,.26,.29,.37,.42l1.18,.11c.11-.09,.21-.18,.39-.32l1.57,.15c.18-.15,.28-.23,.45-.38l2.35,.23c.18-.15,.28-.23,.41-.33,.12,.12,.24,.25,.38,.38,.42,.04,.86,.21,1.29,.05,.12-.1,.22-.18,.32-.26l1.91,.18c.24-.15,.45-.28,.66-.41,.24,.19,.43,.34,.6,.47,.16-.11,.32-.21,.49-.33l1.85,.18c.23-.14,.39-.24,.61-.38,.2,.16,.38,.32,.62,.52l.72,.07c.13-.1,.29-.22,.45-.34l3.9,.37c.16-.12,.31-.24,.47-.36l1.13,.11c.17-.12,.31-.22,.44-.3,.16,.16,.3,.29,.53,.52,.37-.35,.84-.49,1.36-.38,.27,.14,.36,.58,.79,.47,.14-.11,.3-.23,.45-.35l.76,.07c.16-.12,.31-.22,.42-.31,.21,.17,.4,.33,.57,.46,.3-.16,.51-.27,.79-.42l3.4,.33c.14-.12,.24-.2,.39-.32,1.05,.1,2.14,.21,3.14,.3,.21-.17,.31-.25,.42-.35l4.65,.45c.26-.09,.37-.43,.77-.32,.18,.13,.43,.3,.7,.49,.23-.13,.44-.25,.69-.4l1.87,.18c.13-.11,.23-.19,.41-.34l3.13,.3c.18-.15,.28-.23,.4-.33l3.84,.37c.33-.12,.51-.51,.9-.33,.13,.14,.25,.28,.38,.42,.15-.12,.31-.23,.47-.35l5.06,.49c.12-.1,.22-.18,.4-.33l1.96,.19c.18-.15,.28-.23,.38-.31q.53,.36,1.31,.36c.1-.08,.2-.17,.31-.26l3.9,.37c.33-.44,.96-.28,1.33-.66,.05-.05,.24,.04,.34,.06,.14,.15,.28,.28,.36,.37l1.16,.11c.21-.14,.37-.24,.55-.35l4.23,.41c.15-.12,.25-.2,.35-.29,.31,.02,.64-.06,.91,.15,.09,.11,.17,.21,.26,.31,.15-.11,.3-.23,.47-.35l1.49,.14c.26-.15,.47-.27,.65-.37,.33,.23,.58,.4,.8,.55,.27-.14,.49-.25,.77-.4l2.61,.25c.15-.12,.25-.2,.38-.32,1.27,.12,2.57,.25,3.87,.37,.05,0,.11-.06,.16-.09,.1-.08,.2-.17,.31-.25l2.73,.26c.16-.12,.31-.24,.47-.36l1.53,.15c.16-.12,.31-.22,.44-.31,.15,.15,.29,.29,.36,.37l1.14,.11c.47-.23,.85-.42,1.24-.61,.02-.01,.08,.06,.13,.09,.08,.1,.17,.2,.25,.3,.38,.19,.58-.16,.83-.29,.13,.14,.26,.28,.36,.39l1.16,.11c.2-.13,.35-.24,.53-.36l2.68,.26c.14-.11,.24-.2,.37-.3l1.13,.11c.17-.12,.32-.23,.5-.36l.77,.07c.11,.12,.24,.27,.37,.42l.77,.07c.16-.12,.31-.24,.47-.36l2.71,.26c.18-.13,.33-.24,.5-.36l3.88,.37,.4-.33,3.87,.37c.27-.17,.43-.27,.61-.38l4.23,.41,.37-.3,1.15,.11c.16-.12,.31-.24,.47-.36l.35,.03c.53-.42,1.04-.83,1.32-1.06,.34-.55,.53-.85,.72-1.15-.13-.3-.25-.57-.34-.79,.09-.4,.59-.45,.47-.92-.08-.11-.18-.26-.3-.43-.02-.68,.18-1.38,.12-2.02-.14-.17-.23-.27-.31-.38l.15-1.54c.18-.19,.34-.37,.54-.57-.16-.27-.29-.48-.4-.66l.07-.69c.21-.27,.36-.46,.49-.63-.16-.3-.27-.52-.41-.79l.39-4.01c-.16-.43-.25-.65-.33-.86,.2-.18,.35-.31,.5-.45l.05-.53c-.1-.68-.73-.8-.66-1.36,.13-.19,.26-.37,.38-.54-.11-.17-.21-.33-.24-.39l.12-1.21,.38-.31c.08-.82,.16-1.66,.24-2.51,0-.12-.05-.24-.07-.36l-.25-.31,.19-1.95c.15-.13,.29-.26,.42-.37,.19-.41-.22-.58-.32-.93l.21-2.16c-.16-.32-.27-.54-.36-.73,.37-.4,.6-.76,.56-1.37-.2-.19-.49-.46-.76-.73,.22-.19,.36-.32,.51-.45l.07-.74c.15-.14,.27-.27,.38-.38-.12-.19-.23-.34-.35-.52l.09-.97c-.16-.38-.26-.61-.35-.82,.2-.19,.34-.32,.5-.46l.19-1.95c-.1-.14-.22-.29-.34-.45l.15-1.55c-.12-.16-.23-.3-.31-.42,.17-.21,.33-.4,.46-.56-.14-.29-.23-.49-.33-.68,.13-.1,.23-.19,.32-.26l.08-.88c-.13-.15-.21-.26-.3-.37l.11-1.17c.13-.12,.28-.25,.42-.37l.07-.77c-.12-.16-.24-.32-.36-.48l.3-3.09c-.13-.18-.24-.34-.32-.45-.12-.47,.38-.53,.39-.57l.12-1.22c-.16-.4-.25-.62-.32-.79,.2-.35,.63-.45,.52-.87-.12-.15-.23-.31-.35-.46l.37-3.89c-.12-.16-.24-.32-.36-.48l.75-7.78c-.13-.19-.24-.34-.31-.44l.11-1.16c.15-.16,.27-.28,.37-.39-.12-.15-.21-.25-.32-.39,.09-.94,.18-1.91,.28-2.88,.01-.12,.09-.23-.04,.09,.35-.6,.47-.81,.51-.88-.12-.61-.72-.76-.67-1.32,.13-.17,.26-.36,.38-.53-.1-.16-.21-.32-.32-.5l.56-5.8c-.12-.15-.2-.25-.32-.39,.27-2.83,.55-5.7,.82-8.57,0-.05-.05-.11-.08-.16-.08-.1-.17-.2-.25-.3,.14-.13,.28-.26,.45-.41,.03-.53-.61-.99-.38-1.35,.32-.41,.47-.6,.6-.76-.15-.3-.27-.52-.41-.81l.48-4.96c-.12-.15-.2-.25-.3-.37l.48-5.03c-.13-.32-.51-.5-.35-.85,.2-.21,.36-.39,.52-.56-.15-.35-.28-.63-.39-.89,.15-.22,.28-.41,.41-.59-.08-.1-.17-.2-.25-.3-.59-.75,.57-.95,.49-1.57-.1-.14-.22-.29-.34-.45l.3-3.11c-.12-.16-.24-.31-.36-.47l.45-4.67c-.13-.17-.24-.33-.33-.45-.05-.35,.23-.46,.35-.67,.14-.25,.14-.59,.18-.79-.17-.27-.27-.43-.31-.49l.19-1.99c.15-.12,.25-.21,.37-.3l.08-.79c-.1-.13-.21-.28-.34-.44l.37-3.9c-.12-.16-.24-.31-.35-.45l.19-1.94c.15-.14,.27-.26,.4-.39-.1-.12-.18-.22-.33-.4l.16-1.64c-.06,0-.11,0-.17,.01-.06-.36-.13-.72-.18-.99,.18-.37,.62-.46,.51-.9-.1-.13-.22-.29-.33-.44,.14-.12,.28-.25,.41-.37,.19-.41-.22-.58-.29-.81l.29-3.05c.22-.28,.36-.48,.51-.67-.15-.22-.25-.38-.43-.64l.24-2.49c-.18-.5-.27-.73-.34-.93,.2-.18,.35-.31,.5-.44l.07-.77Z" style="fill: #fff;"/>
  <path d="M114.23,34.51l.09-.98c-.08-.1-.17-.2-.31-.37l.11-1.18-.35-.43,.1-1.09c-.11-.18-.21-.34-.35-.57l.1-.99c-.23-.52-.42-.97-.67-1.53l.1-1.03c-.12-.16-.24-.32-.36-.48l.07-.76c-.08-.11-.16-.21-.24-.31-.03-.11-.09-.23-.09-.35,.03-.46,.08-.91,.12-1.36,.12-.06,.24-.16,.34-.15,.77,.06,1.54,.14,2.22,.21l.41-.34c.12,.13,.25,.27,.38,.41,.09-.08,.19-.17,.26-.24,.47-.23,.91,.06,1.39-.05l.76-.63c.11,.11,.23,.22,.39,.37l1.16,.11c.1-.07,.26-.18,.44-.31l1.16,.11c.1,.12,.23,.26,.36,.4,.15-.11,.3-.22,.46-.34l1.14,.11c.17-.12,.32-.24,.47-.35,.7,.33,1.31-.57,2.02-.13,.07,.09,.15,.19,.34,.41,.23-.3,.46-.59,.6-.78l2.92,.28c.16-.12,.31-.24,.47-.36l.77,.07c.16-.12,.31-.24,.44-.34l.77,.07c.15,.16,.28,.3,.47,.49,.21-.09,.44-.19,.87-.38l1.8,.17,.4-.33,1.1,.11c.25-.14,.46-.27,.73-.43,.2,.18,.38,.34,.62,.57,.3,.14,.5-.2,.78-.36l1.13,.11c.17-.13,.33-.24,.49-.36l3.49,.34c.12-.1,.22-.18,.4-.33l1.57,.15,.41-.34,5.16,.5c.2-.24,.46-.53,.65-.75l6.4,.62c.16-.12,.31-.23,.47-.36l1.16,.11c.16-.12,.31-.24,.45-.34,1.19,.11,2.36,.22,3.53,.34,.05,0,.08,.1,.17,.2l-1.61,1.33c-.17,.78-.92,1.02-1.4,1.53,.16,.25,.44,.47,.29,.83,.35,.55,.89,.89,1.46,1.1,.36,.14,.75,.12,.96,.52,.4-.06,.53,.29,.77,.49,.66,.54,1.34,1.05,2.14,1.38,.09,.04,.16,.14,.24,.22-.39,.16-.73,.3-1.18,.48l-.65-.06c-.51,.42-.98,.88-1.52,1.24-.55,.37-.78,.98-1.24,1.44,.55,.97,1.38,1.67,2.41,2.15,.16,.07,.19,.35,.45,.31,.07,.14,.11,.34,.22,.4,.14,.08,.34,.05,.52,.07-.06,.11-.11,.31-.17,.31-.57,0-1.14-.03-1.68-.04l-.41,.34-3.52-.34-.39,.32-1.92-.18c-.32,.22-.51,.29-.87,.32-.13-.14-.26-.29-.38-.43l-1.55-.15c-.17,.12-.32,.24-.48,.36l-1.53-.15c-.12,.1-.22,.18-.39,.32l-1.96-.19c-.17,.14-.28,.23-.45,.37l-4.31-.41-.4,.33c-.12-.12-.24-.24-.41-.41-.59-.06-1.24-.12-1.89-.18-.05,0-.11,.05-.25,.13-.17,.15-.42,.37-.64,.56l-.79-.08c-.14-.15-.27-.3-.39-.43-.15,.02-.71,.21-.9,.34l-2.9-.28c-.66,.26-1.17,.47-1.67,.66-.18-.18-.31-.32-.47-.5-.28-.03-.6-.07-.92-.08-.12,0-.24,.05-.36,.07-.1,.08-.2,.17-.31,.25l-1.95-.19c-.13-.14-.25-.28-.27-.31-.52-.35-.68,.09-1,.2l-1.5-.14-.39,.32-2.31-.22c-.26,.17-.41,.28-.64,.43-.19-.15-.39-.29-.64-.48l-1.57-.15-.81,.67c-1.75-.17-3.51-.34-5.26-.5-.11-.01-.23,.05-.37,.09-.08,.07-.18,.16-.27,.24l-2.55-.25c.02-.18,.09-.37,.03-.52-.04-.12-.23-.2-.35-.3Z" style="fill: #fff;"/>
  <path d="M165.49,39.84l-.05,.55c.42,.53,.83,1.04,1.08,1.36,.8,.47,1.42,.74,1.82,1.34-.62,.25-1.24,.5-1.98,.79l-2.2-.21c-.16,.12-.31,.24-.47,.36l-.75-.07c-.17,.12-.32,.24-.49,.36l-2.18-.21c-.53,.22-.93,.38-1.38,.57-.07-.07-.19-.19-.3-.3-.49,.21-.99,.42-1.52,.65-.2-.18-.38-.35-.56-.51-.36,.04-.8-.3-1.04,.29l-1.67-.16-.41,.34-1.52-.15c-.17,.12-.33,.23-.51,.36l-.73-.07c-.16,.12-.32,.24-.48,.36l-1.94-.19c-.24,.22-.48,.37-.84,.36-.2,0-.35,.38-.75,.27-.07-.07-.21-.19-.38-.35-.38-.13-.81-.29-1.23,.22l-1.59-.15-.4,.33-1.14-.11c-.16,.12-.32,.24-.48,.36l-1.15-.11c-.16,.12-.31,.24-.48,.36l-1.14-.11c-.16,.12-.31,.22-.46,.33-.2-.47-.71-.6-.98-.44-.47,.27-.95,.24-1.43,.32-.11,.02-.2,.16-.32,.26l-1.15-.11c-.16,.12-.32,.24-.48,.36l-1.45-.14c-.47,.21-.87,.38-1.44,.62l-1.45-.14c-.13,.1-.17,.15-.23,.19-.1,.07-.25,.21-.32,.18-.79-.36-1.47,.39-2.23,.18-.16-.05-.28-.25-.46-.41l-1.54-.15c-.12,.09-.28,.21-.45,.34-.24-.02-.62-.17-.74-.05-.39,.38-.99,.24-1.35,.66l-2.26-.22c-.21,.13-.42,.35-.52,.31-.79-.34-1.47,.36-2.24,.22-.14-.03-.32,.18-.48,.28-.22-.28-.57-.4-.89-.56-.17-.62,.32-1.29-.11-1.86-.32-.43,.19-1.08-.42-1.39,0-.07,0-.14,0-.2,.05-.59,.11-1.17,.17-1.77-.11-.15-.23-.3-.35-.46l.21-2.15,.06-.59c.2-.16,.4-.33,.68-.56l2.35,.23,.39-.32c1.21,.08,2.43,.26,3.55,.32,.21-.17,.31-.26,.41-.34l2.73,.26c.15-.12,.31-.24,.46-.35,2.08,.2,4.16,.4,6.24,.6,.16-.12,.31-.24,.47-.36l2.7,.26c.17-.13,.33-.24,.49-.36l3.09,.3,.39-.33,3.52,.34c.17-.14,.27-.23,.45-.37l4.31,.41c.17-.14,.27-.23,.4-.33,.42,.02,.86,.04,1.24,.06l.38-.31,2.35,.23c.11,.12,.23,.26,.37,.41l.69,.07c.5-.22,.94-.43,1.45-.66l3.4,.33c.18-.13,.33-.24,.5-.36l2.7,.26,.37-.3,4,.38c.04,.14,.08,.25,.11,.37Z" style="fill: #fff;"/>
  <path d="M165.49,39.84c-.03-.12-.07-.23-.11-.37l-4-.38-.37,.3-2.7-.26c-.16,.12-.32,.23-.5,.36l-3.4-.33c-.51,.23-.96,.43-1.45,.66l-.69-.07c-.14-.15-.27-.3-.37-.41l-2.35-.23-.38,.31c-.38-.02-.82-.04-1.24-.06-.13,.1-.23,.19-.4,.33l-4.31-.41c-.17,.14-.27,.23-.45,.37l-3.52-.34-.39,.33-3.09-.3c-.16,.12-.32,.23-.49,.36l-2.7-.26c-.16,.12-.31,.24-.47,.36-2.07-.2-4.16-.4-6.24-.6-.15,.12-.31,.23-.46,.35l-2.73-.26c-.1,.08-.2,.17-.41,.34-1.12-.06-2.34-.23-3.55-.32l-.39,.32-2.35-.23c-.28,.23-.48,.39-.68,.56l-.06,.59c-.1-.05-.29-.1-.3-.16-.07-.47,.07-.99-.34-1.37,.05-.51,.1-1.01,.15-1.52,.01-.12,.01-.25,.02-.37l-.28-.34c-.13-.46,.08-.95,.07-1.44l2.55,.25c.09-.08,.19-.17,.27-.24,.14-.03,.26-.1,.37-.09,1.76,.16,3.51,.33,5.26,.5l.81-.67,1.57,.15c.25,.19,.45,.34,.64,.48,.22-.15,.38-.25,.64-.43l2.31,.22,.39-.32,1.5,.14c.32-.11,.48-.55,1-.2,.02,.02,.15,.17,.27,.31l1.95,.19c.1-.09,.21-.17,.31-.25,.12-.03,.24-.08,.36-.07,.32,.02,.64,.06,.92,.08,.17,.18,.3,.31,.47,.5,.5-.2,1.01-.4,1.67-.66l2.9,.28c.18-.12,.74-.32,.9-.34,.12,.14,.25,.28,.39,.43l.79,.08c.23-.2,.47-.41,.64-.56,.14-.08,.2-.14,.25-.13,.65,.06,1.29,.12,1.89,.18,.16,.17,.29,.29,.41,.41l.4-.33,4.31,.41c.17-.14,.27-.22,.45-.37l1.96,.19c.17-.14,.27-.23,.39-.32l1.53,.15c.16-.12,.31-.23,.48-.36l1.55,.15c.12,.14,.25,.28,.38,.43,.36-.03,.54-.1,.87-.32l1.92,.18,.39-.32,3.52,.34,.41-.34c.54,.02,1.11,.05,1.68,.04,.06,0,.11-.2,.17-.31,.4,.02,.44,.44,.69,.62,.25,.17,.51,.33,.77,.49l-.15,1.57c-.28,.24-.71,.45-.82,.77-.12,.34-.28,.59-.55,.73-.38,.2-.32,.68-.64,.89-.04,.03-.13,0-.19-.01Z" style="fill: #9c9c9c;"/>
  <path d="M166.37,34.78c-.18-.02-.38,.01-.52-.07-.11-.06-.15-.26-.22-.4,.18,.02,.38-.01,.52,.07,.11,.06,.15,.26,.22,.4Z" style="fill: #9c9c9c;"/>
  <path d="M114.23,34.51c.12,.1,.31,.17,.35,.3,.05,.15-.02,.35-.03,.52-.12-.1-.31-.17-.35-.3-.05-.15,.02-.35,.03-.52Z" style="fill: #9c9c9c;"/>
  <path d="M241.33,101.88l-.07,.77c-.15,.13-.29,.26-.5,.44,.08,.21,.16,.44,.34,.93l-.24,2.49c.18,.26,.28,.42,.43,.64-.15,.19-.29,.39-.51,.67l-.29,3.05c.07,.23,.48,.41,.29,.81-.13,.12-.27,.24-.41,.37,.12,.15,.23,.31,.33,.44,.12,.45-.33,.53-.51,.9,.05,.27,.11,.63,.18,.99,.06,0,.11,0,.17-.01l-.16,1.64c.15,.18,.23,.28,.33,.4-.13,.12-.25,.25-.4,.39l-.19,1.94c.11,.14,.22,.29,.35,.45l-.37,3.9c.12,.16,.24,.32,.34,.44l-.08,.79c-.12,.1-.22,.18-.37,.3l-.19,1.99c.04,.06,.14,.22,.31,.49-.04,.19-.03,.53-.18,.79-.12,.21-.4,.33-.35,.67,.09,.12,.2,.28,.33,.45l-.45,4.67c.12,.16,.24,.32,.36,.47l-.3,3.11c.12,.16,.24,.32,.34,.45,.08,.62-1.07,.82-.49,1.57,.08,.1,.17,.2,.25,.3-.13,.19-.26,.37-.41,.59,.11,.26,.24,.54,.39,.89-.16,.17-.33,.35-.52,.56-.17,.35,.22,.53,.35,.85l-.48,5.03c.1,.12,.18,.22,.3,.37l-.48,4.96c.14,.28,.26,.5,.41,.81-.13,.16-.28,.35-.6,.76-.24,.35,.41,.82,.38,1.35-.17,.16-.31,.28-.45,.41,.08,.1,.17,.2,.25,.3,.03,.05,.09,.11,.08,.16-.27,2.87-.55,5.73-.82,8.57,.11,.14,.2,.24,.32,.39l-.56,5.8c.11,.18,.22,.33,.32,.5-.12,.17-.26,.36-.38,.53-.05,.56,.55,.71,.67,1.32-.04,.07-.16,.28-.51,.88,.12-.31,.05-.2,.04-.09-.1,.97-.19,1.95-.28,2.88,.12,.14,.2,.24,.32,.39-.11,.11-.22,.23-.37,.39l-.11,1.16c.07,.1,.18,.26,.31,.44l-.75,7.78c.12,.16,.24,.32,.36,.48l-.37,3.89c.12,.16,.24,.31,.35,.46,.11,.42-.32,.52-.52,.87,.07,.17,.16,.39,.32,.79l-.12,1.22s-.51,.1-.39,.57c.08,.11,.19,.27,.32,.45l-.3,3.09c.12,.16,.24,.32,.36,.48l-.07,.77c-.14,.13-.29,.25-.42,.37l-.11,1.17c.09,.11,.17,.21,.3,.37l-.08,.88c-.09,.08-.19,.16-.32,.26,.09,.2,.19,.4,.33,.68-.13,.16-.28,.35-.46,.56,.08,.11,.19,.26,.31,.42l-.15,1.55c.12,.16,.24,.31,.34,.45l-.19,1.95c-.16,.15-.3,.28-.5,.46,.09,.21,.18,.44,.35,.82l-.09,.97c.12,.17,.22,.33,.35,.52-.11,.11-.24,.23-.38,.38l-.07,.74c-.15,.13-.3,.26-.51,.45,.28,.26,.56,.53,.76,.73,.03,.61-.19,.97-.56,1.37,.09,.19,.2,.41,.36,.73l-.21,2.16c.1,.35,.52,.52,.32,.93-.13,.12-.28,.24-.42,.37l-.19,1.95c.08,.1,.17,.2,.25,.3,.03,.12,.08,.24,.07,.36-.07,.85-.16,1.69-.24,2.51l-.38,.31-.12,1.21c.04,.06,.14,.21,.24,.39-.12,.17-.25,.35-.38,.54-.07,.56,.56,.68,.66,1.36l-.05,.53c-.15,.14-.29,.27-.5,.45,.08,.21,.17,.44,.33,.86l-.39,4.01c.14,.27,.26,.49,.41,.79-.13,.16-.28,.35-.49,.63l-.07,.69c.11,.18,.24,.39,.4,.66-.19,.2-.36,.38-.54,.57l-.15,1.54c.09,.11,.17,.21,.31,.38,.05,.64-.15,1.33-.12,2.02,.12,.17,.23,.33,.3,.43,.12,.48-.39,.53-.47,.92,.09,.21,.21,.49,.34,.79-.19,.3-.38,.61-.72,1.15-.28,.23-.79,.63-1.32,1.06l-.35-.03c-.16,.12-.31,.24-.47,.36l-1.15-.11-.37,.3-4.23-.41c-.18,.11-.34,.21-.61,.38l-3.87-.37-.4,.33-3.88-.37c-.17,.12-.32,.23-.5,.36l-2.71-.26c-.16,.12-.31,.24-.47,.36l-.77-.07c-.13-.15-.26-.29-.37-.42l-.77-.07c-.18,.13-.34,.24-.5,.36l-1.13-.11c-.13,.11-.23,.19-.37,.3l-2.68-.26c-.17,.12-.33,.22-.53,.36l-1.16-.11c-.1-.1-.23-.24-.36-.39-.26,.13-.45,.48-.83,.29-.08-.1-.17-.2-.25-.3-.04-.03-.1-.1-.13-.09-.39,.18-.77,.38-1.24,.61l-1.14-.11c-.08-.08-.21-.21-.36-.37-.13,.09-.28,.2-.44,.31l-1.53-.15c-.16,.12-.32,.24-.47,.36l-2.73-.26c-.11,.09-.21,.17-.31,.25-.05,.03-.11,.09-.16,.09-1.3-.12-2.6-.25-3.87-.37-.14,.11-.24,.19-.38,.32l-2.61-.25c-.28,.14-.5,.26-.77,.4-.23-.16-.47-.33-.8-.55-.18,.1-.39,.22-.65,.37l-1.49-.14c-.16,.12-.31,.23-.47,.35-.08-.1-.17-.2-.26-.31-.27-.22-.6-.14-.91-.15-.1,.08-.2,.17-.35,.29l-4.23-.41c-.18,.11-.33,.22-.55,.35l-1.16-.11c-.08-.08-.21-.22-.36-.37-.1-.02-.29-.11-.34-.06-.37,.38-1,.22-1.33,.66l-3.9-.37c-.11,.09-.21,.17-.31,.26q-.78,0-1.31-.36c-.1,.08-.2,.17-.38,.31l-1.96-.19c-.18,.15-.28,.23-.4,.33l-5.06-.49c-.16,.12-.32,.24-.47,.35-.12-.14-.25-.28-.38-.42-.39-.19-.57,.21-.9,.33l-3.84-.37c-.12,.1-.22,.18-.4,.33l-3.13-.3c-.18,.15-.28,.23-.41,.34l-1.87-.18c-.25,.15-.47,.27-.69,.4-.27-.19-.52-.37-.7-.49-.4-.11-.51,.22-.77,.32l-4.65-.45c-.11,.09-.21,.17-.42,.35-.99-.09-2.08-.2-3.14-.3-.14,.12-.24,.2-.39,.32l-3.4-.33c-.28,.15-.5,.26-.79,.42-.17-.14-.36-.29-.57-.46-.11,.08-.26,.19-.42,.31l-.76-.07c-.16,.12-.31,.24-.45,.35-.43,.11-.53-.32-.79-.47-.52-.12-.99,.03-1.36,.38-.24-.23-.37-.36-.53-.52-.13,.09-.27,.19-.44,.3l-1.13-.11c-.16,.12-.31,.24-.47,.36l-3.9-.37c-.16,.12-.31,.24-.45,.34l-.72-.07c-.24-.2-.43-.36-.62-.52-.23,.14-.38,.24-.61,.38l-1.85-.18c-.17,.12-.33,.22-.49,.33-.17-.13-.35-.28-.6-.47-.21,.13-.42,.26-.66,.41-.61-.06-1.26-.12-1.91-.18-.1,.08-.2,.17-.32,.26-.43,.17-.87,0-1.29-.05-.13-.14-.26-.26-.38-.38-.13,.1-.23,.19-.41,.33l-2.35-.23c-.18,.15-.28,.23-.45,.38l-1.57-.15c-.18,.15-.28,.23-.39,.32l-1.18-.11c-.11-.13-.24-.27-.37-.42l-1.16-.11c-.16,.12-.31,.24-.45,.34-.45,.12-.53-.33-.81-.46-.75-.2-1.27,.41-1.92,.59l-2.31-.22c-.24,.14-.45,.27-.72,.43-.2-.19-.38-.36-.58-.54l-.74-.07c-.16,.12-.32,.24-.48,.36l-1.93-.19c-.12,.1-.22,.18-.38,.31-.11-.1-.23-.21-.39-.37l-1.21-.12c-.18,.03-.34,.48-.77,.28-.1-.11-.23-.25-.37-.4-.14,.11-.3,.22-.45,.34l-1.94-.19c-.11,.09-.21,.17-.38,.31-.9,.05-1.86-.22-2.82-.2-.1,.08-.2,.17-.35,.29l-3.06-.29c-.18,.11-.34,.22-.54,.35-.71,.28-1.13-.72-1.91-.53-.13,.09-.28,.21-.45,.33l-.75-.07c-.16,.12-.31,.23-.46,.34-.13-.14-.26-.28-.44-.49-.21,.08-.44,.17-.9,.36l-4.12-.4c-.18,.15-.28,.23-.41,.34l-3.47-.33c-.17,.12-.33,.23-.47,.33-.23-.16-.47-.33-.69-.48-.24,.18-.39,.3-.55,.42l-2.33-.22c-.11,.09-.21,.17-.32,.26-.44,.14-.87,0-1.29-.06-.15-.15-.28-.28-.47-.48-.22,.1-.44,.2-.78,.36l-1.4-.14c-.17,.12-.33,.23-.51,.36l-3.87-.37c-.16,.12-.32,.24-.48,.36l-3.52-.34c-.09,.08-.18,.17-.26,.24-.15,.04-.27,.1-.38,.09-2.28-.21-4.56-.43-6.83-.65-.18-.22-.35-.42-.52-.63l.19-1.94c-.12-.16-.24-.31-.36-.47l.38-3.91c-.09-.1-.17-.2-.25-.31-.03-.05-.1-.11-.09-.16,.16-1.69,.32-3.39,.48-5.05-.11-.13-.19-.23-.34-.41l.6-6.27c-.15-.18-.23-.28-.37-.45l.26-2.74c-.15-.18-.23-.28-.33-.4l.11-1.19c.12-.22,.55-.31,.44-.75-.11-.14-.23-.3-.35-.45l.37-3.9c-.12-.16-.24-.32-.34-.45-.12-.45,.34-.53,.51-.91-.07-.16-.17-.38-.33-.74l.25-2.6c.12-.15,.28-.33,.41-.49,.08-.61-.55-.74-.66-1.42l.54-5.62c-.09-.1-.17-.21-.26-.32-.18-.44,.07-.87,0-1.24,.2-.19,.33-.32,.53-.51-.1-.22-.2-.44-.39-.87l.21-2.2c-.15-.18-.23-.28-.33-.4l.34-3.53c.11-.1,.25-.23,.39-.36-.23-.29-.46-.6-.75-.96,.12-.2,.25-.4,.5-.78l.18-1.82c-.04-.07-.14-.22-.32-.49l.45-4.66c-.15-.18-.23-.28-.33-.4l.67-7.02c-.12-.16-.24-.32-.36-.49l.19-1.93c-.12-.16-.24-.32-.36-.47-.11-.42,.31-.52,.52-.86-.07-.17-.16-.4-.32-.81l.1-1c.1-.13,.25-.33,.43-.55-.22-.55-.44-1.11-.7-1.75,.15-.16,.32-.34,.49-.52l.07-.75c-.12-.16-.22-.31-.32-.44,.15-.15,.29-.28,.39-.38,.11-.36-.15-.51-.24-.74-.08-.22-.02-.5-.02-.74,.18-.21,.34-.39,.55-.64-.13-.22-.26-.43-.41-.68l.11-1.11c-.12-.16-.24-.31-.35-.45l.07-.77c.16-.15,.3-.28,.4-.37l.19-1.97c-.1-.12-.19-.22-.33-.4l.38-3.92-.37-.45,.15-1.57c-.15-.18-.23-.28-.32-.39,.13-.12,.27-.25,.41-.38l.19-1.94c-.12-.15-.24-.31-.34-.45-.11-.44,.32-.53,.44-.75l.08-.8c-.1-.12-.19-.23-.3-.37l.21-2.23c-.15-.27-.26-.49-.42-.78,.15-.18,.3-.36,.47-.57-.09-.12-.2-.26-.31-.42l.19-1.94c.14-.13,.28-.25,.42-.38-.09-.11-.17-.21-.32-.39l.26-2.74-.34-.42,.33-3.46c-.12-.17-.22-.33-.35-.52,.11-.11,.24-.23,.38-.38l.11-1.16c-.1-.13-.22-.29-.34-.44l.45-4.68c-.12-.16-.24-.31-.34-.44l.07-.77c.15-.14,.27-.27,.4-.39-.1-.13-.19-.23-.33-.4l.15-1.57-.33-.4,.37-3.88c-.12-.17-.23-.32-.36-.5l.64-6.62c-.12-.16-.24-.31-.35-.46,.13-.12,.27-.25,.41-.37l-.32-.39,.34-3.49c-.17-.26-.28-.42-.43-.64,.15-.19,.3-.39,.51-.67l.1-1.09c-.08-.11-.2-.27-.31-.43,.13-.12,.27-.24,.48-.44-.28-.26-.56-.53-.89-.83,.19-.27,.33-.47,.55-.79l.18-1.91-.3-.37,.56-5.84c-.12-.16-.23-.32-.36-.49l.6-6.23c-.12-.16-.24-.31-.36-.47l.26-2.72c-.12-.16-.24-.32-.34-.45-.12-.45,.34-.53,.51-.91-.07-.15-.17-.38-.36-.81l.17-1.8c-.15-.18-.23-.28-.33-.4,.13-.12,.26-.25,.4-.38l.07-.76c-.11-.14-.22-.3-.33-.44,.14-.13,.29-.26,.49-.44-.08-.21-.17-.44-.29-.74,.08-.1,.21-.27,.4-.53-.09-.18-.21-.4-.36-.7l.21-2.2c-.12-.32-.51-.5-.33-.89,.14-.13,.29-.26,.43-.38,.19-.39-.2-.57-.33-.89l.41-4.24-.33-.4,.19-1.96c-.15-.18-.23-.28-.34-.41,.12-.12,.24-.24,.39-.39l.22-2.33c-.09-.12-.21-.28-.33-.44l.34-3.5c-.08-.11-.16-.21-.3-.38-.17-.51,.16-1.07,.06-1.6,.15-.12,.25-.21,.41-.34,.05-.25,.11-.56,.17-.85,.21-.18,.41-.35,.6-.51l2.35,.23c.1-.08,.2-.17,.38-.31l1.76,.17c.22-.27,.47-.57,.73-.89,.36,.25,.61,.43,.94,.66,.18-.1,.39-.22,.66-.37l1.09,.11c.16-.12,.31-.24,.47-.36l5.08,.49c.1-.09,.21-.17,.31-.25,.05-.03,.11-.09,.16-.09,1.17,.11,2.34,.22,3.48,.33,.13-.11,.23-.19,.39-.32,.38,.02,.83,.04,1.24,.06l.36-.3,2.03,.2,.3,.36c.14-.1,.29-.21,.45-.32l1.92,.18c.16-.12,.32-.24,.47-.36l3.5,.34c.16-.12,.32-.24,.45-.34,.45-.12,.53,.34,.91,.51,.15-.07,.37-.17,.73-.33l1,.1c.17-.12,.33-.23,.52-.36l2.69,.26c.16-.12,.32-.24,.49-.36l3.49,.34c.31-.24,.62-.48,.99-.77,.45,.29,.91,.58,1.4,.9,.37-.15,.81-.34,1.27-.52,.09,.1,.21,.24,.34,.37l1.02,.1c.36-.14,.59-.22,.82-.31,.21-.09,.42-.18,.63-.27,.08,.1,.17,.2,.26,.32l1.65,.16c.15-.12,.25-.2,.37-.3l1.54,.15c.16-.12,.32-.24,.48-.36l.77,.07c.13,.14,.25,.29,.38,.43,.56,.12,.78-.38,1.25-.66l3.5,.34c.18-.15,.28-.23,.39-.32l1.65,.16,.29,.35q.67-.41,1.18,.08c.42-.17,.82-.34,1.27-.52,.12,.09,.3,.22,.56,.41,.18-.1,.39-.22,.68-.37l2.26,.22c.16-.12,.31-.24,.47-.36l1.56,.15c.1-.08,.2-.17,.31-.26,.44-.17,.88,0,1.3,.04,.13,.14,.26,.26,.38,.39,.13-.1,.23-.19,.4-.33l1.57,.15,.4-.33,2.31,.22c.17-.12,.32-.23,.5-.36l.77,.07c.11,.13,.24,.27,.37,.42l.77,.07c.15-.12,.3-.23,.44-.33,.14,.15,.27,.29,.46,.48,.21-.09,.44-.19,.81-.35l2.48,.24c.52-.23,.97-.43,1.52-.67l2.22,.21c.16-.12,.31-.24,.47-.36l1.95,.19c.09,.1,.17,.2,.25,.31,.11,.05,.22,.12,.34,.14,.32,.05,.64,.07,1.12,.11,.19-.23,.44-.53,.72-.87,.31,.24,.5,.39,.77,.6l1.09,.11c.12-.08,.27-.2,.43-.31,.17,.16,.35,.32,.56,.52,.26-.16,.46-.29,.69-.43l1.91,.18,.37-.3,1.18,.11c.12,.1,.31,.25,.58,.46,.18-.09,.4-.2,.7-.36l1.05,.1c.16-.12,.32-.23,.48-.35,.12,.13,.25,.27,.37,.41,.39,.19,.57-.2,.86-.31,.72,.07,1.44,.14,2.15,.21,.45-.19,.91-.37,1.42-.58,.07,.07,.19,.19,.34,.34l1.55,.15c.12-.09,.28-.21,.44-.33l3.11,.3c.11-.08,.21-.16,.31-.24,.05-.04,.11-.11,.15-.11,1.04,.09,2.09,.2,3.1,.29,.17-.13,.33-.24,.46-.34,.74-.18,1.11,.67,2.02,.52,.12-.14,.36-.45,.53-.66l1.37,.13c.22,.15,.33,.56,.75,.45,.15-.12,.31-.23,.47-.36l2.71,.26c.17-.13,.32-.24,.54-.4,.19,.12,.39,.26,.64,.42,.2-.06,.48-.22,.74-.2,.36,.02,.63-.04,.87-.32l3.12,.3c.16-.12,.32-.24,.48-.36l.77,.07c.12,.14,.25,.28,.38,.42,.11-.09,.21-.17,.39-.32l1.96,.19c.18-.15,.28-.23,.43-.35,.11,.11,.23,.22,.38,.36,.13-.09,.27-.19,.44-.3l1.52,.15c.16-.12,.31-.24,.47-.36l4.29,.41c.16-.12,.31-.24,.46-.35,.14,.02,.26,.04,.39,.06l.27,.32c.08-.02,.18-.05,.27-.08,.58-.16,1.09-.66,1.85-.37,.06,.06,.19,.2,.33,.35,.14-.1,.29-.22,.44-.33l3.11,.3c.15-.12,.3-.23,.44-.33,.14,.15,.27,.29,.38,.41,.61,.15,.74-.5,1.26-.58,.05,.05,.17,.18,.32,.33l.77,.07c.13-.1,.29-.22,.45-.34l3.91,.38c.1-.08,.2-.17,.3-.25,.05-.03,.11-.1,.16-.09,1.43,.13,2.86,.27,4.27,.41,.28-.23,.53-.44,.82-.68l1.15,.11c.29,.28,.66,.49,1.16,.47,.13-.1,.29-.21,.46-.34l1.53,.15c.16-.12,.31-.24,.47-.36l1.16,.11c.13,.14,.26,.28,.38,.41l.39-.32,1.57,.15,.45-.38,3.92,.38c.18-.15,.28-.23,.4-.33l1.92,.18c.17-.12,.32-.23,.49-.36l1.92,.18c.16-.12,.32-.24,.47-.36l.77,.07c.14,.15,.27,.3,.37,.41l.79,.08c.12-.1,.22-.18,.37-.3l3.45,.33c.18-.11,.34-.21,.61-.39l1.91,.18c.18-.15,.28-.23,.4-.33l1.92,.18c.16-.12,.32-.23,.49-.36l3.14,.3c.39,.49,.79,1,1.22,1.54l-.11,1.13c.08,.1,.17,.2,.31,.37l-.15,1.55c.18,.25,.29,.4,.39,.55-.12,.55-.75,.92-.48,1.56,.08,.1,.17,.2,.31,.38l-.41,4.31c.15,.18,.23,.28,.32,.39l-.53,5.46c.12,.16,.24,.31,.36,.47l-.07,.77c-.15,.13-.29,.26-.42,.37l-.23,2.35c.09,.11,.18,.22,.32,.39l-.37,3.88c.18,.26,.28,.42,.42,.63-.18,.25-.35,.49-.59,.82,.1,.18,.22,.39,.37,.66l-.67,6.96c.12,.16,.24,.31,.36,.47l-.56,5.86c.12,.16,.24,.31,.34,.44l-.07,.77c-.16,.15-.3,.28-.5,.47,.09,.21,.19,.44,.35,.8l-.11,1.11c-.14,.12-.24,.2-.37,.3,.1,.14,.2,.29,.32,.46l-.15,1.53c.12,.16,.24,.31,.36,.46ZM126.46,242.41c.78,.08,1.56,.15,2.34,.22,.04,0,.1-.08,.05-.04,.2-.15,.31-.23,.42-.31l4.26,.41c.18-.13,.33-.24,.5-.36l1.11,.11c.18-.12,.32-.21,.44-.29,.18,.17,.31,.29,.36,.34l1.99,.19c.15-.12,.25-.21,.35-.29,1.1,0,2.18,.29,3.23,.22,.16-.13,.26-.21,.36-.3l2.73,.26c.16-.12,.31-.24,.47-.36l1.53,.15c.18-.13,.33-.24,.45-.32,.46-.12,.53,.37,.66,.41l1.68,.16c.14-.11,.24-.2,.42-.34l3.7,.36c.5-.18,.73-.27,.93-.34,.18,.2,.31,.35,.4,.45,.45-.19,.89-.38,1.28-.55,.22,.16,.41,.31,.6,.45,.22-.15,.38-.26,.64-.43l4.27,.41c.18-.15,.28-.23,.39-.32l4.29,.41c.16-.12,.31-.24,.47-.36l1.12,.11c.24-.15,.45-.27,.68-.41,.24,.21,.43,.38,.58,.51l.74,.07c.21-.14,.36-.24,.54-.36l1.5,.14c.14-.12,.24-.2,.42-.35l2.74,.26c.18-.15,.28-.23,.38-.31,.13,0,.26,.01,.39,.02,.13,.14,.25,.29,.38,.43l1.94,.19c.16-.12,.32-.24,.48-.36l2.71,.26c.12-.1,.22-.18,.39-.33l3.52,.34c.18-.15,.28-.23,.45-.37l4.31,.41c.18-.15,.28-.23,.37-.3l.88,.08c.13,.16,.21,.26,.3,.36,.15-.11,.3-.23,.46-.34l3.11,.3c.16-.12,.32-.24,.48-.36l3.1,.3c.12-.1,.22-.18,.4-.33l2.35,.23c.18-.15,.28-.23,.45-.38l1.91,.18c.25-.15,.38-.23,.5-.3,.14,.17,.22,.27,.31,.38l1.95,.19c.15-.11,.3-.23,.46-.35l1.54,.15c.17-.12,.32-.24,.45-.34,.45-.12,.53,.34,.72,.42l1.18,.11c.21-.14,.37-.24,.55-.35l2.67,.26c.14-.12,.25-.2,.39-.32,1.26,.12,2.56,.25,3.87,.37,.05,0,.11-.05,.16-.08,.1-.08,.2-.17,.31-.26l1.16,.11c.16-.12,.31-.23,.46-.34,.13,.14,.26,.28,.36,.4l1.18,.11,.4-.33,5.48,.53c.18-.15,.28-.23,.38-.31,.44,0,.98,.15,1.3-.05,.39-.24,.72-.17,1.1-.18,.08,0,.15-.13,.23-.21l-.32-.39,.26-2.74-.33-.4c.13-.12,.25-.24,.41-.4,.06-.68,.14-1.39,.2-2.11,0-.12-.05-.24-.08-.36-.08-.09-.16-.19-.25-.29l.75-7.83c-.12-.16-.24-.31-.34-.44l.48-5.02c.2-.25,.36-.43,.49-.59-.14-.29-.23-.49-.3-.62,.17-.26,.31-.46,.43-.65-.16-.22-.27-.37-.39-.54-.04-.43,.18-.87,0-1.32-.09-.1-.17-.19-.25-.29l.79-8.22c-.12-.16-.24-.31-.36-.47l.26-2.72c-.1-.12-.18-.22-.3-.37l.2-2.05c.11-.09,.21-.17,.34-.28l.12-1.25c-.12-.14-.2-.24-.35-.42l.15-1.57c-.15-.18-.23-.28-.3-.37,.28-.39,.56-.78,.81-1.14-.19-.4-.43-.77-.54-1.18-.12-.44-.1-.89,.39-1.18,.07-.04,.06-.24,.08-.36-.1-.29-.5-.46-.31-.86,.14-.13,.29-.26,.43-.38,.19-.39-.2-.57-.32-.89l.29-3.05c-.13-.19-.24-.34-.31-.44l.07-.77c.15-.16,.27-.28,.37-.39-.13-.15-.21-.25-.29-.35-.04-.7,.18-1.4,.12-2.05-.14-.16-.22-.27-.31-.38,.06-.57,.1-1.16,.17-1.74,.01-.11,.1-.22,.15-.33,.1-.09,.2-.17,.29-.25l.26-2.73c-.12-.17-.24-.32-.33-.44l.07-.77c.15-.15,.27-.27,.33-.33-.23-.58-.43-1.08-.63-1.58,.2-.18,.35-.31,.5-.45l.11-1.16c-.11-.15-.22-.3-.33-.44,.14-.13,.28-.26,.39-.36l.19-1.97c-.1-.12-.18-.22-.33-.4l.41-4.26c-.17-.27-.27-.43-.39-.61l.37-3.84c-.12-.15-.2-.25-.32-.38,.09-.27-.06-.61,.16-.85,.13-.11,.23-.19,.34-.28l.11-1.17c-.11-.15-.23-.3-.34-.45l.07-.77c.16-.14,.3-.27,.41-.38,.2-.43-.25-.58-.28-.76l.22-2.29c.23-.33,.37-.53,.5-.72-.16-.22-.27-.38-.4-.56l.11-1.11c-.14-.23-.27-.44-.44-.71,.2-.2,.37-.37,.53-.54l.07-.76c-.13-.17-.24-.33-.34-.46-.03-.48,.2-.83,.44-1.18-.09-.1-.17-.21-.31-.38l.41-4.24c-.17-.29-.26-.45-.35-.6,.21-.35,.41-.65,.58-.93-.17-.23-.29-.38-.39-.51l.11-1.16c.15-.14,.27-.27,.39-.38-.12-.18-.23-.34-.35-.51l.33-3.46c-.11-.14-.2-.24-.28-.34-.03-.45-.07-.91,.46-1.18,.07-.7,.14-1.41,.2-2.13,0-.12-.05-.24-.08-.35-.08-.1-.17-.2-.25-.3l.3-3.13c-.12-.16-.24-.31-.38-.49,.11-.52,.78-.87,.51-1.53-.1-.15-.2-.3-.26-.38l.11-1.17c.16-.17,.26-.29,.36-.39-.14-.17-.22-.27-.31-.38l.26-2.71c-.15-.29-.5-.48-.32-.86,.15-.14,.3-.26,.42-.37l.19-1.94c-.12-.17-.22-.32-.28-.41,.18-.24,.32-.43,.46-.63-.15-.22-.26-.38-.43-.64l.49-5.06c-.15-.18-.23-.28-.32-.39l.68-7.03c-.12-.16-.24-.31-.36-.47l.07-.77c.14-.13,.28-.26,.41-.38-.09-.11-.18-.22-.32-.39l.49-5.09c-.15-.18-.23-.28-.37-.45,.25-2.6,.47-5.27,.79-7.93,.1-.85-.33-1.58-.3-2.39,0-.1-.15-.2-.25-.31l.19-1.96c.13-.12,.28-.24,.42-.37l.07-.77c-.12-.16-.24-.32-.34-.44l.07-.77c.15-.15,.27-.27,.38-.38-.13-.19-.23-.35-.34-.52l.37-3.85c-.12-.14-.2-.24-.3-.37l.08-.79c.13-.22,.55-.32,.44-.74-.11-.15-.23-.3-.35-.46l.56-5.85c-.12-.16-.24-.32-.33-.44l.11-1.1c.21-.26,.36-.45,.49-.61-.15-.3-.27-.52-.41-.8l.29-3c-.12-.14-.2-.24-.29-.35,0-.06-.02-.12-.02-.18,.17-1.76,.34-3.52,.51-5.29,.01-.13,.03-.26,.03-.39,0-.06-.05-.11-.27-.52,.03,.09-.06-.2-.16-.52l-2.83-.27c-.13,.11-.24,.19-.41,.34l-5.27-.51c-.78,.29-1.29,.48-1.77,.66-.19-.21-.32-.36-.43-.49l-1.46-.14c-.55,.24-1,.44-1.52,.67l-2.23-.21c-.4,.46-.82,.33-1.25,.15l-.25-.3c-.44-.04-.88-.21-1.31-.04-.11,.09-.21,.18-.32,.26l-1.17-.11c-.16,.12-.31,.24-.47,.36l-3.04-.29c-.28,.15-.49,.27-.7,.38-.26-.21-.45-.37-.7-.57-.24,.11-.51,.32-.8,.34-.38,.03-.78-.09-1.07,.31-1.95-.19-3.9-.38-5.85-.56-.05,0-.11,.06-.19,.12-.07,.06-.17,.14-.27,.23l-3.82-.37c-.53,.24-.98,.44-1.4,.63l-1.9-.18c-.17-.17-.31-.3-.48-.48-.28,.13-.55,.33-.83,.35-.38,.03-.78-.09-1.06,.3l-1.18-.11c-.22-.19-.35-.56-.75-.46-.16,.12-.32,.24-.48,.36l-1.15-.11c-.12,.1-.22,.18-.39,.33l-1.43-.14c-.41,.2-.63,.3-.85,.4-.19-.19-.32-.33-.51-.52-.71-.07-1.49-.14-2.27-.21-.05,0-.11,.05-.16,.08,0,.01,0,.02,.01,.03-.39,.17-.79,.34-1.26,.54l-.68-.07c-.14-.15-.27-.3-.37-.41l-.77-.07c-.19,.13-.34,.24-.51,.36l-3.08-.3c-.13,.11-.23,.19-.41,.34l-2.74-.26c-.18,.15-.28,.23-.38,.31-.71,.04-1.4-.18-2.05-.11l-.37,.31-3.9-.37c-.16,.12-.32,.24-.46,.35l-1.51-.15c-.22-.19-.4-.36-.62-.55-.41,.3-.76,.56-1.02,.75l-1.84-.18c-.37-.24-.58-.37-.77-.49-.22,.16-.37,.28-.54,.4l-1.15-.11c-.16,.12-.31,.24-.47,.35-.42,.11-.52-.31-.78-.47-.13-.01-.27-.06-.39-.03-.54,.11-1.09,.21-1.53,.58-.04,.03-.12,.03-.31,.07l-3.71-.36c-.15,.12-.25,.2-.37,.3l-2.71-.26c-.16,.12-.32,.24-.48,.36l-1.16-.11c-.12-.14-.25-.28-.45-.5-.53,.21-1.09,.44-1.78,.72l-4.48-.43c-.22,.14-.37,.24-.55,.35l-1.88-.18-.37,.3-1.96-.19c-.22-.15-.33-.56-.75-.45-.15,.12-.31,.23-.47,.36l-1.53-.15c-.17,.13-.33,.24-.49,.36l-1.83-.18c-.31,.16-.53,.27-.71,.36-.25-.19-.42-.33-.59-.45-.14,.12-.25,.2-.38,.31-1.01-.1-2.05-.2-3.09-.29-.05,0-.11,.06-.16,.09-.1,.08-.2,.17-.31,.25l-1.95-.19c-.16,.12-.31,.24-.47,.36l-3.88-.37c-.17,.13-.33,.24-.49,.36l-1.53-.15-.4,.33-3.13-.3c-.18,.15-.28,.23-.45,.38l-2.74-.26c-.18,.15-.28,.23-.39,.32-.57-.03-1.14-.06-1.61-.16l-.33-.4-.78-.07c-.15,.12-.31,.24-.47,.36l-2.71-.26c-.18,.13-.33,.24-.5,.36l-3.48-.33c-.12,.1-.23,.19-.4,.33l-3.13-.3-.45,.38-3.13-.3c-.18,.15-.28,.23-.38,.31-1.23-.05-2.44-.26-3.58-.3-.2,.16-.3,.25-.4,.33l-1.95-.19c-.16,.12-.31,.24-.47,.36l-3.44-.33c-.27,.15-.49,.27-.67,.37-.32-.23-.57-.41-.92-.66-.27,.33-.53,.62-.78,.92-.52-.23-1-.03-1.4-.33-.08-.1-.16-.2-.24-.3l-.78-.07c-.16,.12-.31,.24-.47,.36l-1.53-.15c-.18,.13-.33,.24-.5,.36l-3.33-.32c-.58,.23-1.01,.4-1.33,.53-.3-.18-.51-.3-.7-.42-.22,.17-.37,.28-.52,.4l-.73-.07c-.21-.19-.39-.36-.59-.53-.28,.16-.49,.29-.74,.43l-1.48-.14c-.13,.11-.23,.19-.41,.34l-3.92-.38c-.18,.15-.28,.23-.37,.31l-1.66-.16-.3-.36c-.15,.11-.3,.23-.46,.34l-3.89-.37c-.16,.12-.32,.24-.49,.37-.5-.05-1.02-.1-1.54-.14-.05,0-.1,.08-.18,.14-.08,.82-.16,1.66-.24,2.51,0,.12,.05,.24,.07,.36,.08,.1,.17,.2,.25,.31l-.38,3.91c.12,.16,.24,.31,.36,.47l-.19,1.92c.13,.17,.24,.33,.36,.49l-.45,4.64c.12,.18,.21,.32,.31,.47-.54,.3-.49,.75-.4,1.2,.08,.1,.17,.2,.26,.32l-.07,.78c-.15,.16-.32,.34-.53,.58,.16,.24,.29,.44,.44,.66l-.22,2.3c.12,.17,.22,.31,.29,.41-.17,.23-.32,.42-.41,.54,.04,.44,.51,.59,.3,1.03-.11,.22-.55,.31-.44,.75,.1,.14,.22,.29,.34,.45l-.34,3.51c.12,.16,.24,.31,.36,.47l-.44,4.61c.15,.28,.27,.49,.37,.67-.23,.32-.41,.57-.59,.82,.14,.21,.25,.37,.38,.57l-.29,3.06c.12,.17,.23,.32,.36,.5l-.07,.77c-.13,.11-.27,.24-.42,.37l-.07,.77c.12,.16,.24,.31,.36,.47l-.37,3.88c.13,.18,.24,.33,.42,.59-.32,.4-.77,.82-.56,1.45,.22,.37,.73,.59,.61,1.15-.14,.12-.28,.25-.43,.38l-.26,2.73c.12,.16,.24,.31,.36,.48l-.3,3.11c.1,.12,.18,.22,.32,.39l-.84,8.71c.18,.59,.32,.82,.3,1.05-.03,.35,.08,.6,.26,.88,.11,.18,.01,.5,0,.73-.16,.29-.59,.39-.48,.82,.11,.14,.23,.3,.35,.45l-.45,4.68c.12,.16,.24,.32,.36,.48l-.52,5.46,.32,.39-.41,4.31c.15,.18,.23,.28,.34,.41l-.22,2.27c-.23,.35-.37,.56-.5,.75,.16,.22,.27,.37,.39,.54,.01,.56-.16,1.13-.11,1.63,.16,.18,.25,.28,.33,.37l-.37,3.87c.15,.25,.27,.46,.4,.66-.19,.25-.33,.43-.46,.61,.11,.16,.21,.32,.32,.5l-.56,5.81c.12,.14,.2,.24,.3,.37l-.41,4.27c.12,.16,.23,.32,.36,.49l-.07,.76c-.13,.12-.27,.25-.41,.37,.12,.15,.23,.31,.35,.47l-.3,3.1,.33,.4-.53,5.48c.15,.18,.23,.28,.31,.38-.16,.24-.32,.47-.47,.7,.29,.37,.52,.67,.75,.97-.14,.13-.29,.26-.4,.36l-.15,1.55c.13,.19,.24,.34,.31,.45,.12,.48-.39,.53-.38,.48l-.14,1.46,.32,.39c-.13,1.4-.27,2.83-.41,4.26,0,.05,.05,.11,.08,.16,.08,.1,.17,.2,.26,.31l-.26,2.72c.12,.16,.24,.31,.35,.46l-.11,1.16c-.15,.14-.3,.27-.41,.37l-.15,1.57c.1,.12,.18,.22,.33,.4l-.14,1.42c.19,.43,.29,.65,.39,.86-.19,.19-.33,.32-.48,.47,.1,.14,.21,.28,.32,.44l-.52,5.46c.12,.16,.24,.31,.35,.46l-.07,.78c-.25,.21-.57,.37-.44,.74,.12,.18,.21,.32,.3,.46-.14,.11-.24,.2-.36,.3-.02,.16-.12,.37-.07,.54,.16,.52,.36,1.03,.61,1.71l-.73,7.64c.12,.16,.24,.31,.36,.47l-.14,1.48c.15,.27,.27,.48,.37,.66-.23,.33-.4,.57-.53,.76,.02,.41,.5,.56,.29,1-.1,.09-.24,.23-.42,.41,.02,.52-.16,1.08-.11,1.56,.16,.19,.24,.29,.33,.4l-.38,3.91c.12,.16,.24,.31,.36,.47l-.67,7.02c.13,.17,.24,.33,.36,.49l-.41,4.27c.1,.12,.19,.22,.3,.37l-.08,.86c-.13,.11-.23,.19-.36,.3,.1,.14,.2,.28,.3,.44-.02,.42-.04,.86-.06,1.25,.5,.43,.74-.1,.92-.13l2.04,.2c.12,.14,.2,.24,.28,.34,.44-.2,.87-.39,1.31-.59,.11,.12,.24,.26,.35,.38,.42,.2,.58-.24,.98-.32l2.59,.25c.13-.11,.23-.19,.41-.34l5.48,.53c.18-.15,.28-.23,.45-.37l1.57,.15c.18-.15,.28-.23,.38-.31,.13,.14,.25,.27,.37,.4,.16-.12,.31-.23,.47-.35l2.71,.26c.12-.1,.22-.18,.4-.33l3.87,.37c.27-.17,.43-.27,.49-.32l1.94,.19c.21,.19,.35,.31,.55,.49,.23-.13,.44-.26,.69-.41l.72,.07c.16-.12,.31-.24,.48-.36l3.5,.34c.11-.09,.21-.17,.31-.26,.05-.03,.11-.09,.16-.08,1.31,.12,2.61,.25,3.92,.37,.13,.01,.25,0,.38,0,.1-.08,.2-.17,.38-.31l2.2,.21c.43-.19,.65-.29,.84-.38,.25,.22,.44,.38,.6,.52,.3,0,.55,.01,.72,.02,.18-.15,.28-.23,.39-.32l1.95,.19c.16-.12,.31-.24,.47-.36l3.88,.37c.16-.12,.31-.22,.45-.32,.1,.12,.18,.22,.3,.37l.82,.08c.21-.13,.37-.23,.49-.31,.45,.04,.84,.09,1.23,.11,.12,0,.24-.03,.36-.05,.1-.08,.2-.17,.32-.26l4.99,.48c.5-.23,.95-.44,1.39-.64,.07,.09,.16,.19,.24,.29,.05,.04,.09,.1,.15,.11,.52,.06,1.03,.1,1.4,.14,.35-.17,.57-.28,.7-.35,.43,.11,.48,.61,.95,.49,.11-.08,.27-.19,.44-.31,.42,.02,.86,.04,1.22,.06,.19-.16,.29-.24,.39-.32,.13,.14,.26,.29,.37,.42l.77,.07c.18-.13,.33-.24,.5-.36l1.11,.11c.2-.13,.36-.24,.49-.33,.56,.12,.9,.85,1.57,.46,.1-.08,.2-.17,.33-.27,1.54,.15,3.1,.3,4.67,.44,.05,0,.11-.06,.16-.1,.1-.08,.2-.17,.3-.25Z" style="fill: #030303;"/>
</svg>