<?xml version="1.0" encoding="UTF-8"?>
<svg id="Ebene_1" data-name="Ebene 1" xmlns="http://www.w3.org/2000/svg" width="100" height="100" viewBox="0 0 100 100">
  <path d="M32.13,22.85c.78-.79,1.55-1.57,2.31-2.34h16.57c.24,.22,.47,.43,.69,.62,.27-.23,.51-.44,.85-.74,.34,.19,.7,.39,1.4,.78h10.34c.27,.27,.43,.43,.62,.62h2.61c.32,.3,.63,.59,1.01,.95v6.12c-.26,.26-.5,.5-.73,.73-.08,.06-.17,.19-.25,.19-5.3,0-10.59,0-15.85,0-.19-.19-.34-.34-.58-.58h-2.78c-.25,.21-.5,.41-.85,.7-.35-.21-.7-.42-1.23-.74h-5.14c-.24,.45-.52,.98-.95,1.79v39.73c.8,.48,1.69,.13,2.54,.2,.77,.06,1.54,.01,2.32,.01,.31-.26,.63-.53,1.01-.84,.44,.34,.76,.59,1.21,.93,.31-.15,.67-.34,1.37-.68h7.14c.17,.17,.32,.32,.53,.53h2.11c.22-.22,.37-.37,.57-.57h6.59c.61,.69,1.75,.67,2.35,1.6v5.17c-.28,.55-.55,1.1-.87,1.74h-3.12c-.41,.28-.76,.51-1.23,.83-.29-.18-.64-.4-1.15-.71h-1.84c-.17,.15-.42,.36-.69,.61h-7.27c-.21-.19-.45-.42-.67-.62-.67-.21-1,.28-1.32,.62h-6.64c-.26-.22-.49-.42-.71-.61l-.56,.56h-6c-.13-.1-.37-.3-.69-.56h-1.68c-1.24-.41-1.11-1.67-1.9-2.29v-22.67c.22-.22,.37-.37,.57-.57v-3.99c-.15-.18-.37-.42-.61-.69v-3.96c.2-.21,.42-.45,.65-.69V22.85Z"/>
</svg>