<?xml version="1.0" encoding="UTF-8"?>
<svg id="Ebene_1" data-name="Ebene 1" xmlns="http://www.w3.org/2000/svg" width="100" height="100" viewBox="0 0 100 100">
  <path d="M27.89,37.36v-5.95c.21-.21,.37-.37,.57-.57v-1.92c.23-.26,.44-.5,.7-.8v-.91c0-.11-.05-.26,0-.33,.99-1.33,1.45-2.95,2.3-4.35,.17-.28,.42-.5,.59-.7h.76c.87-.87,1.73-1.73,2.37-2.37,.72-.37,1.17-.6,1.82-.93h1.08c.25-.23,.48-.45,.72-.67h1c.92-.44,1.83-.92,2.78-1.31,.26-.11,.63,.02,.89,.04,.2,.2,.36,.36,.56,.56,.22-.18,.44-.37,.72-.6h1.3c.2,.18,.44,.4,.69,.64h2.62c.24,.23,.48,.45,.71,.67,.34,0,.68,0,1.01,0,1.04,.51,2.13,.93,2.84,1.91h2.83c.23-.23,.39-.39,.57-.57h1.28c.25-.23,.49-.45,.8-.74,.24,.08,.65,.1,.8,.3,.41,.59,1.26,.27,1.65,.9,.11,.18,.59,.14,.9,.18,.85,.1,1.46,.73,2.22,1.04,.56,.23,.79,.91,1.58,1.02,.5,.07,.94,.79,1.72,.63,0,.63-.09,1.08,.03,1.47,.11,.38,.45,.68,.69,1.02-.3,.6-.57,1.15-.85,1.72,.58,.29,1.05,.48,1.48,.76,.44,.28,.8,.83,1.27,.92,.64,.13,.83,.67,1.3,.94v2.21c-.68,.27-1.25,.33-1.87-.05-.87-.53-1.87-.87-2.7-1.45-.53-.37-1.04-.19-1.62-.3-.36,.7-.73,1.42-1.07,2.1,.15,.24,.24,.43,.38,.58,.22,.24,.49,.64,.72,.63,1.24-.07,1.43,1.71,2.64,1.41,.46,.43,.23,.9,.27,1.31,.04,.32,0,.65,0,.96-.47,.31-.66,.93-1.34,.99-.8-.09-1.06-.99-1.72-1.33-1.48,.21-2.44-1.06-3.73-1.32-.61,.13-.49,.62-.53,1.02-.32,.32-.63,.63-.96,.96h-1.98c-.67-.46-1.04-1.27-2.05-1.42-.76-.11-.89-1.1-1.18-1.8-.52-.06-1.05-.12-1.63-.18-.07-.32-.13-.62-.2-.96-.59-.59-1.21-1.21-1.88-1.88v-4.6c-.3-.32-.59-.63-.92-.98-.96,.11-1.83-.35-2.6-.8-.82-.47-1.46-1.26-2.18-1.91-.23,.21-.47,.42-.82,.74-.4-.22-.82-.45-1.25-.68-.16,.16-.31,.31-.47,.47-.1,.03-.2,.09-.29,.09-1.21,0-2.43,0-3.58,0-.87,.9-1.71,1.76-2.39,2.46-.59,.13-.89,.19-1.17,.26-.29,.56-.58,1.11-.95,1.83v1.76c-.16,.16-.32,.32-.47,.47-.06,.2-.18,.39-.18,.59-.02,1.21,0,2.42,0,3.58,.2,.2,.36,.36,.59,.59v1.58c.36,.82,.48,1.51,.89,1.91,.7,.69,1.06,1.58,1.64,2.31,.68,.86,1.42,1.82,2.35,2.3,1,.51,1.72,1.23,2.51,1.93,.21,.19,.61,.16,.84,.34,.52,.4,1.01,.67,1.72,.7,.56,.03,1.1,.47,2.01,.91,.33,.33,.95,.96,1.63,1.64h1.93c.87,.95,1.97,1.53,3.11,2.07,.83,.39,1.71,.7,2.42,1.37,.98,.94,2.34,1.27,3.52,1.88,.62,.32,1.05,.67,1.35,1.24,.09,.18,.04,.46,.16,.59,.84,.88,1.68,1.75,2.57,2.58,.79,.73,.81,2.02,1.89,2.47v1.38c.23,.25,.45,.49,.68,.74v1.96c.23,.25,.45,.48,.65,.7v5.97c-.17,.17-.33,.33-.65,.65,0,.48,.07,1.13-.02,1.75-.08,.6-.61,1.01-.71,1.71-.13,.87-.49,1.78-1.21,2.47-1.03,.99-2.02,2.04-2.58,2.61-1.83,.92-3.1,1.57-4.66,2.35h-1.62c-.27,.23-.51,.43-.81,.68h-12.57c-.19-.17-.43-.39-.69-.62h-3.26c-.25-.23-.49-.45-.74-.68h-1.14c-.75-.44-1.51-.69-1.96-1.21-.53-.62-1.35-.61-1.87-1.14-.55-.55-1.09-1.09-1.64-1.64-.55-.54-1.1-1.09-1.6-1.59,0-1.02-1.1-1.69-.74-2.75-1.1-.71-.39-1.79-.63-2.51,.42-.47,.71-.8,1.1-1.24,1.64,.83,3.27,1.66,4.87,2.47,.02,.27,.04,.49,.04,.56,1.51,2.37,4.12,2.99,6.42,4.38h1.77c.25,.23,.49,.45,.74,.68h7.26c.23-.21,.47-.43,.7-.64l.5,.5c.58,0,.9-.83,1.63-.54,.62,.25,.91-.78,1.36-.61,1.05,.4,1.5-.72,2.39-.76,.41-.02,.79-.7,1.19-1.07,.64-.59,.7-1.49,1.18-2.16,.24-.34,.41-.72,.66-1.18v-6.46c-.23-.26-.45-.5-.66-.73,.18-1.17-.52-2.03-1.02-2.91-.31-.56-.89-.97-1.38-1.42-.42-.38-.16-1-.67-1.4-.67-.52-1.29-1.03-2.06-1.43-.72-.37-1.54-.58-2.15-1.31-.47-.57-1.4-.8-2.17-1.07-.38-.13-.8-.04-1.19-.36-.47-.38-1.08-.59-1.83-.98h-1.06c-.25-.23-.49-.45-.73-.68h-1.39c-.1-.27-.2-.56-.37-1-1.05-.69-2.58-.99-3.44-2.27-1.05,.28-1.78-.57-2.96-.89-.63-.39-1.15-1.37-2.2-1.86-.94-.45-1.63-1.4-2.43-2.14-.24-.22-.66-.45-.67-.7-.07-1.01-1-1.37-1.39-2.09-.18-.33-.34-.75-.47-1.12-.31-.86-.43-1.8-.9-2.61-.16-.27-.33-.53-.6-.96Z"/>
</svg>