<?xml version="1.0" encoding="UTF-8"?>
<svg id="Ebene_1" data-name="Ebene 1" xmlns="http://www.w3.org/2000/svg" width="100" height="100" viewBox="0 0 100 100">
  <path d="M61.58,21.43c.15,.15,.3,.31,.4,.42,.14,.11,.22,.23,.3,.23,1.76,.01,3.52,0,5.43,0,.31,1.02,.05,2.13,.16,2.99,.32,.32,.47,.47,.64,.64v3.98c-.41,.72-1.21,.1-1.74,.45-.16,.16-.31,.31-.52,.51-.22-.18-.44-.37-.72-.59h-2.62c-.19,.18-.43,.39-.69,.63h-.64c-.23-.21-.47-.43-.72-.66h-11.88c-.26-.23-.5-.45-.85-.78-.41,.25-.82,.6-1.29,.76-.39,.13-.85,.03-1.19,.03-.25-.25-.4-.4-.61-.61h-1.82c-.42-.29-.75-.52-1.01-.7-.79-.09-.97,.57-1.52,.93v6.01c-.27,.27-.43,.43-.62,.62v34.62c.76,.46,1.54,.18,2.26,.23,.25-.23,.49-.44,.76-.69,.9,.12,1.61,1.14,2.7,.56,.11-.11,.26-.26,.46-.46h3.44c.22,.22,.38,.38,.56,.56,.23-.2,.45-.39,.71-.61h5.26c.14,.13,.3,.28,.47,.43,.18,.07,.37,.2,.56,.21,.77,.02,1.54,.01,2.31,.01,.16-.16,.32-.32,.47-.48,.19-.06,.39-.18,.58-.18,1.21-.02,2.42,0,3.58,0,.2,.2,.35,.35,.63,.63h2.68c.56,.69,.27,1.37,.33,2,.05,.55,0,1.1,.01,1.66-.15,.16-.3,.32-.62,.66-.21,.76,.08,1.75-.1,2.74-.28,.28-.59,.59-.93,.93h-7.91c-.25,.23-.49,.45-.72,.67-.22-.2-.46-.41-.69-.62-.17,.17-.32,.32-.49,.49-.6,.17-1.15,.26-1.8-.13-.94-.57-1.05-.59-1.99-.02-.93,.57-1.61,.42-2.3-.34h-1.34c-.2,.18-.44,.4-.69,.63h-7.93c-.23-.22-.47-.44-.7-.65h-1.98c-.17,.17-.32,.32-.51,.51-.35,.3-.93,.28-1.2,.11-1.41-.86-3.29-.72-4.5-2.23v-23.34c.14-.14,.29-.29,.52-.52v-15.29c-.08-.1-.27-.35-.53-.69v-1.39c.22-.22,.37-.37,.57-.57v-12.42c.21-.58,.95-.79,.69-1.5,.54-.28,1.07-.56,1.99-1.04h6.32c.27-.27,.43-.43,.61-.61,.23,.19,.45,.39,.71,.61h7.23c.24,.23,.48,.45,.72,.68h11.26Z"/>
</svg>