<?xml version="1.0" encoding="UTF-8"?>
<svg id="Ebene_1" data-name="Ebene 1" xmlns="http://www.w3.org/2000/svg" width="100" height="100" viewBox="0 0 100 100">
  <g id="Joscco_0">
    <g id="Joscco_0-2" data-name="Joscco 0">
      <path d="M55.19,16.7c.59,.1,1,.24,1.41,.24,.37,0,.74-.15,.94-.2,.72,.6,1.47,1.03,1.27,2,.15,.03,.24,.05,.37,.08,.12,.27-.02,.7,.51,.82,.23,.06,.54,.48,.54,.73,0,.77,.57,1.21,.85,1.8,.43,.94,1.04,1.81,1.22,2.86,.03,.12,.08,.25,.15,.34,.46,.52,.69,1.17,.83,1.79,.13,.56,.71,1,.41,1.62,.47,.7,.98,1.34,1.34,2.04,.35,.7,.54,1.47,.82,2.21,.09,.03,.19,.04,.31,.08-.06,.71,.65,1.15,.64,1.86,0,.14,.11,.29,.2,.43,.28,.46,.64,.89,.61,1.48,0,.06,0,.14,.03,.19,.65,1.02,.88,2.22,1.45,3.28,.03,.06,.09,.09,.14,.15v1.2c.91,.92,.94,2.1,1.06,3.34,.07,.05,.2,.15,.37,.29-.09,.77,.16,1.45,.6,2.17,.09,.6-.2,1.39,.42,1.98v.3c0,.78-.07,1.56,.38,2.3,.23,.37,.27,.86,.24,1.34-.03,.45-.04,.91,.18,1.35,.2,.41,.23,.87,.22,1.34-.02,1.26,0,2.52,0,3.82,.11,.09,.24,.2,.42,.33-.03,.25,.03,.57-.1,.73-.35,.43-.31,.92-.31,1.41,0,.58-.03,1.16,0,1.73,.03,.48-.11,.89-.42,1.33,0,.52-.06,1.11,.02,1.67,.07,.49-.08,.98-.26,1.33-.29,.53-.4,1.13-.86,1.61-.39,.4-.74,1.01-.55,1.5-.41,.91-.75,1.65-1.09,2.4-.36,.61-1.13,.89-1.34,1.68-.47,.15-.71,.6-1.08,.86-.48,.34-.77,.81-1.06,1.28h-.41c-.17,.4-.39,.73-.85,.86-.2,.06-.42,.2-.56,.36-.71,.8-1.53,1.42-2.49,1.88-.09,.04-.1,.22-.15,.36h-1.66c-.18,.22-.37,.45-.53,.63h-.71c-.12,.12-.25,.25-.38,.38-.08,0-.18,.03-.26,.02-.54-.09-1.05,.06-1.54,.24-.25,.09-.48,.17-.74,.18-.58,.02-.75,.09-1.36,.61-.28-.09-.6,.04-.99-.13-.37-.16-.88-.15-1.28-.02-.89,.3-1.79,.1-2.67,.11-.2-.35-.39,.21-.65,0-.2-.16-.54-.17-.82-.23-.26-.05-.52-.07-.77-.13-.31-.08-.6-.2-.87-.29-.03-.12-.04-.2-.07-.31h-1.51c-.16-.2-.36-.44-.5-.63h-1.25c-.22-.26-.67-.2-.82-.71-.09-.29-.6-.46-.92-.69-.54-.13-.98-.44-1.37-.84-.54-.54-1.05-1.12-1.72-1.51-.16-.09-.36-.13-.6-.21-.09-.23-.2-.52-.33-.89,0,0-.08-.03-.23-.09-.1-.63-.61-1.05-1.1-1.56v-.26c-.7-.9-1.52-1.68-1.44-2.92-.56-.71-.9-1.54-1.39-2.3-.5-.77-.71-1.73-1.05-2.62-.03-.09-.03-.2-.09-.27-.2-.24-.2-.56-.09-.75,.44-.77-.12-1.26-.44-2.08v-1.62c.6-.37,.98-.98,1.54-1.51,.95,.23,1.69-.65,2.66-.62l.79-.79h.76c.27-.19,.51-.36,.77-.54v-.34c.19-.16,.37-.31,.54-.46,.22,.11,.53,.26,.88,.44,0,.09,.03,.25,.03,.23,.4,.5,.73,.88,1.01,1.28,.22,.31,.43,.6,.46,1.05,.03,.35,.48,.65,.58,1.07,.04,.21,.19,.4,.38,.78v.89c.12,.03,.21,.06,.31,.09,.3,.94,1.07,1.65,1.46,2.53,.4,.89,.95,1.71,1.28,2.64,.26,.22,.5,.45,.71,.63,.23,.11,.45,.17,.62,.31,.11,.09,.12,.35,.23,.39,.64,.24,1,.82,1.55,1.16,.18,.11,.42,.13,.7,.2,.48-.44,1,.37,1.61,.02,.09,.17,.18,.32,.23,.42,.39,.06,.66,.15,.94-.07,.36-.29,.77-.29,1.21-.28,.78,.02,1.56,0,2.26,0,.47-.37,.88-.69,1.31-1.02h1l1.01-1.01h.4c.15-.43,.63-.6,.77-1.1,.1-.34,.16-.91,.73-1,.03-.94,.57-1.67,1.04-2.66v-.53c.16-.31,.27-.51,.43-.82,.09-.96,.17-2.05,.28-3.26,.05-.04,.21-.17,.34-.26-.03-.88,.1-1.71-.36-2.47-.1-.18-.05-.46-.06-.69v-1.52c-.2-.37-.38-.74-.61-1.17v-2.39c-.12-.11-.25-.22-.35-.31-.03-.09-.06-.15-.06-.21-.11-1.09-.13-2.2-.62-3.21-.06-.12-.19-.2-.37-.37-.05-1.01-.41-2.06-1.05-3.12,.2-.88-.78-1.59-.61-2.55-.14-.14-.26-.26-.4-.4,0-.21-.02-.44-.03-.54-.6-.61-1.05-1.14-1.03-1.95-.12-.12-.24-.24-.39-.39,.03-.5-.14-.95-.37-1.45-.31-.7-.71-1.34-1.04-2.02-.15-.31-.2-.67-.26-.94-.19-.37-.34-.69-.49-.99-.07-.02-.16-.03-.26-.05v-.66c-.22-.19-.45-.37-.63-.53v-.53c-.11-.04-.23-.08-.37-.13v-.54c-.45-.77-1.13-.9-1.93-.82-.24,.23-.77,.2-.77,.72-.55,.28-1.14,.49-1.53,1.09h-1.39c-.29,.45-.83,.41-1.24,.64-.42,.24-.8,.54-1.18,.8h-1.11c-.16,.2-.36,.43-.5,.59-.78,.14-1.25,.6-1.7,1.06h-.41l-.4,.4h-1.36c-.38,.5-.71,.93-1.08,1.4h-1.76c-.54,.36-1.08,.57-1.24,1.22-.46,.14-1.01,.2-1.4,.47-.43,.3-1.02,.3-1.28,.79-1.09,.04-1.89,.4-2.25,1.01h-.47c-.16,.2-.36,.43-.52,.62h-.48c-.48,.23-.87,.47-1.28,.6-.43,.13-.89,.14-1.34,.22-.21,.04-.59,.1-.6,.2-.09,.54-.61,.37-.89,.59-.26,.2-.62,.29-.94,.43-.1,.04-.68,.6-.8,.78h-.43c-.18-.19-.37-.37-.54-.56-.56-.64-.8-1.46-.99-2.24-.22-.92-.65-1.71-1.04-2.69v-1.03c-.03-.06-.03-.09-.06-.12-.12-.15-.31-.29-.36-.46-.12-.57-.19-1.16-.26-1.68,.47-.4,.88-.73,1.27-1.09,.37-.36,.79-.57,1.35-.51,.03-.11,.08-.23,.14-.39,.54,.09,.83-.54,1.38-.53,.42,0,.58-.37,.89-.52,.43-.2,.85-.4,1.28-.61,.2-.1,.39-.22,.73-.41h.32c.6-.5,1.16-.74,1.68-1.05,.52-.31,1.22-.37,1.5-.99h.47c.04-.12,.09-.24,.14-.39h.89c.03-.12,.06-.21,.1-.38,.18-.02,.4-.03,.67-.06,.52-.43,1.08-.89,1.66-1.36,.79-.22,1.59-.54,2.44-.67,.2-.03,.87-.59,1.11-.82,.15-.14,.32-.32,.51-.37,.47-.12,.95-.17,1.44-.25,.11-.19,.22-.37,.23-.39,.61-.25,1.09-.37,1.47-.62,.51-.34,1.07-.54,1.61-.8,.11-.05,.23-.1,.44-.2h.77c.16-.2,.36-.43,.54-.63h.85c.42-.34,.79-.74,1.24-.99,.47-.26,.96-.51,1.56-.44,.34,.04,.69-.08,1.11-.14,0,0,.08,.07,.14,.13,.14-.17,.29-.34,.52-.61,0,0,.02-.17,.03-.21,.21-.2,.35-.35,.59-.57,.6-.17,1.37-.3,2.03-1,.68-.04,1.43-.3,2.01-1.04h.37c.1-.14,.21-.31,.32-.47h0Z" style="fill: #010101;"/>
    </g>
  </g>
</svg>