<?xml version="1.0" encoding="UTF-8"?>
<svg id="Ebene_1" data-name="Ebene 1" xmlns="http://www.w3.org/2000/svg" width="100" height="100" viewBox="0 0 100 100">
  <path d="M42.71,20.83c.24-.23,.48-.45,.82-.76,.33,.16,.7,.33,1.5,.71h17.53c.26,.26,.42,.42,.66,.66,.2-.16,.42-.32,.7-.54,.19,.16,.41,.34,.69,.56h1.96c.19-.17,.43-.38,.69-.62h1.3c.22,.21,.46,.43,.71,.65h2.64c.28,.55,.56,1.1,.96,1.87V58.86c.21,.24,.42,.48,.66,.77v1.3c-.18,.2-.4,.44-.63,.69v1.96c.21,.23,.42,.46,.64,.7-.16,.16-.32,.32-.47,.47-.06,.09-.16,.17-.16,.26,0,4.19,0,8.37,0,12.24-.42,.82-.7,1.37-.99,1.92h-1.32c-.24-.22-.47-.44-.7-.65-.7-.25-.93,.45-1.46,.68h-13.79c-.18,.18-.34,.34-.57,.57h-1.99c-.22-.14-.56-.37-1.01-.65-.4,.22-.84,.48-1.43,.8-.28-.2-.62-.43-1.04-.73h-3.21c-.22,.2-.45,.42-.69,.65h-15.88c-.98-.46-.88-1.68-1.66-2.3v-3.27c-.16-.18-.3-.34-.45-.5-.07-.18-.21-.37-.21-.56-.03-.77-.01-1.54-.01-2.31,.16-.16,.32-.32,.47-.47,.06-.19,.18-.39,.18-.58,.01-2.09,0-4.18,0-6.24-.19-.19-.35-.35-.58-.58V27.05c.11-.11,.27-.27,.54-.54v-3.32c.27-.27,.43-.43,.62-.62,.05-.48,.11-1,.16-1.51,.22-.09,.41-.22,.6-.22,4.74-.01,9.49,0,14.22,0Zm-8.49,29.26c.45,.48,.67,.72,.86,.93v1.97c-.24,.28-.45,.52-.6,.69v2.63c.23,.29,.4,.51,.57,.72-.22,.22-.38,.38-.53,.53v4.14c.24,.24,.39,.39,.57,.57v5.97c-.19,.21-.42,.45-.64,.69,.09,.73-.24,1.51,.3,2.33h4.36c.76,.39,1.13,.58,1.47,.75,.34-.31,.58-.53,.84-.76h8.59c.23,.21,.47,.43,.7,.64h1.96c.26-.24,.5-.45,.76-.68h5.87c.3-.25,.54-.46,.65-.55,1.16-.6,1.68,.6,2.59,.58,.21-.18,.45-.39,.72-.61,.49-.04,1.01-.09,1.68-.14,0-13.54,0-27,0-40.46,0-.1-.03-.21-.07-.3-.05-.09-.15-.16-.24-.25h-7.23c-.35-.28-.68-.53-1.05-.82-.42,.29-.74,.52-1.05,.74-.25-.21-.49-.42-.65-.55h-2.68c-.2,.2-.36,.36-.55,.55h-1.46c-.22-.22-.38-.38-.6-.6-.92,0-1.91,0-2.89,0-.2,0-.39,.11-.59,.16-.16,.16-.31,.31-.47,.47-.24-.21-.47-.43-.7-.63h-3.95c-.25,.22-.48,.42-.71,.62-.18-.18-.34-.34-.63-.63-1.39,0-2.92-.01-4.44,.01-.18,0-.35,.21-.53,.32,0,.77-.01,1.55,.01,2.32,0,.19,.14,.38,.22,.57,.13,.16,.26,.31,.38,.46-.21,.24-.43,.49-.58,.66v2.02c.86,.55,.66,1.3,.51,2.05-.16,.16-.31,.31-.47,.47v9.44c.23,.23,.39,.39,.57,.57v1.32c-.23,.3-.49,.62-.86,1.11Z"/>
</svg>