<?xml version="1.0" encoding="UTF-8"?>
<svg id="Ebene_1" data-name="Ebene 1" xmlns="http://www.w3.org/2000/svg" width="100" height="100" viewBox="0 0 100 100">
  <path d="M33.74,50.62v2.65c-.27,.27-.43,.43-.6,.6v2.62c-.23,.25-.45,.49-.68,.73v2.64c.15,.15,.31,.31,.62,.61,.02,.37,.05,.89,.08,1.37,.22,.28,.52,.5,.61,.79,.12,.4,0,.87,.12,1.28,.08,.28,.45,.48,.54,.76,.1,.3,.02,.66,.02,.99,.44,.59,1.07,1.12,1.28,1.78,.3,.94,1.13,1.3,1.66,1.96,.48,.6,1.08,1.1,1.63,1.65,.08,.3,.15,.6,.24,.95,.29,.06,.59,.12,.89,.18,.62,.62,1.25,1.25,1.88,1.88,1.14-.26,2.03,.48,2.88,.99,.64,.38,1.22,.29,1.8,.4,.26,.23,.5,.45,.68,.61h6.67c.45-1.06,1.63-.3,2.27-.95,.51-.52,1.37-.49,1.84-1.17,.49-.72,1.69-.46,2.06-1.43-.1-.15-.21-.3-.32-.45-.52-.71-1.71-.57-2.04-1.42-.32-.84-.92-1.4-1.4-2.08-.46-.65-.64-1.49-.98-2.23-.09-.19-.3-.32-.47-.49v-4.64c.2-.21,.42-.45,.65-.7v-1.31c.55-.55,1.1-1.1,1.65-1.65h.68c.6-.63,1.21-1.26,1.85-1.93h3.26c.28-.22,.52-.42,.82-.66,.19,.16,.42,.35,.69,.57h1.92c.48,.46,.95,.91,1.43,1.37h.63c.72,.72,1.42,1.42,2.12,2.12,.08,.84,.92,1.38,.86,2.3-.06,.85,.95,1.37,.69,2.39-.21,.83-.04,1.76-.04,2.64-.16,.55-1.15,.85-.42,1.74,.29-.19,.58-.48,.91-.56,.4-.1,.85-.02,1.17-.02,.26-.26,.42-.42,.58-.58,.72,.56,1.74,.66,2.35,1.54v1.32c-.65,.67-1.17,1.67-2.38,1.8-.64,.91-1.71,1.22-2.67,1.88h-1.85c-.24,.23-.48,.45-.71,.66-.24,.01-.45,.02-.67,.03-.49,.43-.21,1.3-.93,1.61-.47,.2-.93,.43-1.36,.71-.47,.31-.73,.76-.72,1.36,0,.08-.15,.16-.22,.23-.21,.01-.43,.03-.87,.06-.4,.44-.95,.99-1.42,1.59-.42,.54-1.29,.26-1.61,.93-.37,.76-1.29,.66-1.85,1.15-.37,.33-.93,.43-1.34,.74-.34,.26-.58,.65-.78,.9h-2.11c-.28,.24-.52,.45-.78,.68h-5.19c-.31,.26-.56,.46-.91,.75-.35-.21-.7-.43-1.22-.74h-3.07c-.26-.23-.5-.44-.78-.68h-1.92c-.5-.78-1.52-.67-2.14-1.31-.3-.31-.99,.09-1.53-.28-.75-.51-1.63-.84-2.47-1.22-.65-.3-.92-1.07-1.81-1.26-.64-.14-1.13-.98-1.67-1.52-.86-.85-1.72-1.72-2.58-2.58-.16-1.34-1.38-1.87-2.11-2.77,.14-.64-.58-.96-.62-1.38-.05-.64-.69-.94-.68-1.38,.03-.82-1.02-1.14-.73-2.05,.24-.76-.83-1.14-.7-2.05,.12-.77-1.02-1.4-.6-2.39-.21-.23-.43-.47-.67-.73v-12.57c.14-.15,.29-.31,.64-.68,.1-.74-.04-1.72,.04-2.68,.15-.15,.31-.31,.57-.57,.04-.41-.08-1.04,.17-1.43,.29-.46,.68-.83,.56-1.43-.1-.51,.32-.75,.55-1.1,.27-.42,.41-.93,.75-1.76v-1.82c.53-.48,1.41-.95,1.78-1.67,.4-.78,.86-1.44,1.51-2.08v-1.06c1.74-1.75,3.38-3.38,5.28-5.29-.03,.01,.36-.12,.72-.25v-.76c.45-.23,.93-.42,1.35-.69,.52-.34,.76-1,1.59-1.02,.41,0,.72-.81,1.36-.6,.41-.41,.8-.8,1.28-1.28,.32-.02,.74-.04,1.53-.09,.13-.2,.42-.64,.71-1.08-.06-.06-.22-.22-.46-.46v-4.54c.3-.67,.51-1.14,.73-1.64,.5-.24,1.13-.33,1.55-.82,.31,.31,.62,.63,.53,.53,.53,.93,.78,1.37,1.09,1.93v3.14c.44,.56,1.03,.22,1.58,.33,.23-.2,.47-.42,.74-.66h1.93c.25-.23,.49-.45,.73-.68h1.96c.25-.23,.49-.45,.69-.64h7.96c.18,.18,.33,.33,.57,.57h3.61c1.58,.81,2.94,1.5,4.8,2.46,.6,.6,1.6,1.61,2.62,2.64v.63c.17,.17,.33,.33,.48,.48,.06,.09,.16,.17,.16,.26,0,1.54,0,3.07,0,4.58-.79,.43-.56,1.15-.69,1.76-.1,.47-.5,.87-.9,1.53-1.04,1.04-2.28,2.28-3.57,3.57-.5-.18-.75,.48-1.24,.75h-3.23c-.18,.18-.34,.34-.57,.57h-4.66c-.2-.13-.57-.58-.89-.55-.84,.1-1.4-.64-2.05-.64-.84,0-1.37-.48-2.04-.74-.66-.26-1.31-.58-1.95-.9-.82-.41-1.64-.84-2.73-1.4-.47-.47-1.17-1.17-1.88-1.88,.04-.03,.09-.06,.13-.09-.41-.59-.81-1.18-1.15-1.67h-1.55c-.09,.3-.17,.59-.32,1.1-.22,.07-.6,.18-.97,.29-1.56,1.56-3.12,3.12-4.69,4.69-.15,.82-.71,1.46-.98,2.25-.19,.57-.83,.97-1.19,1.49-.29,.42-.61,.9-.64,1.38-.05,.68-1,.94-.7,1.71-.66,.4-.64,1.04-.7,1.71-.04,.48-.59,.92-.59,1.39-.01,1.09-.97,1.88-.84,2.99,.02,.14-.29,.31-.56,.58Zm35.84-21.07c-.39-1.17-1.74-1.06-2.45-1.88h-2.55c-.19-.19-.34-.34-.61-.61h-2.65c-.27-.27-.42-.42-.62-.62h-3.37c-.36,.27-.61,.46-.89,.68h-1.85c-.23,.23-.39,.39-.56,.56h-1.94c-.24,.23-.45,.5-.72,.66-.29,.16-.87-.22-.89,.52,.55,.49,1.05,1.25,1.7,1.43,.73,.2,1.01,.77,1.54,1.09,.61,.37,1.27,.66,1.88,.97,.57,0,1.12,0,1.67,0,.49,.76,1.53,.62,2.13,1.29,.19,.22,.83,.03,1.21,.03,.28,.24,.51,.43,.71,.61,.28-.24,.53-.44,.79-.66h4.56c.63-.8,1.88-.67,2.3-1.86v-1.05c.25-.33,.45-.58,.62-.84,.05-.08,0-.22,0-.33Zm-9.94,32.96v2.64c.23,.24,.45,.48,.68,.73v1.29c.62,.55,2.15,1.38,2.98,1.62,.31-.31,.62-.62,1.05-1.05v-1.99c.27-.27,.43-.43,.58-.59v-2c-.44-.33-.55-.84-.76-1.32-.22-.5-.69-1.04-1.53-1.04-.4,0-.71-.82-1.53-.51-.81,.39-.72,1.61-1.49,2.23Z"/>
</svg>