<?xml version="1.0" encoding="UTF-8"?>
<svg id="Ebene_1" data-name="Ebene 1" xmlns="http://www.w3.org/2000/svg" width="100" height="100" viewBox="0 0 100 100">
  <g id="Ebene_1-2" data-name="Ebene 1-2">
    <g id="KO">
      <path d="M37.14,78.9s-.06-.07-.07-.11c0-.07-.02-.12-.02-.23h-.69c-.1,.09-.24,.22-.37,.35-.56,0-1.12,0-1.67,0-.21,0-.45,.08-.64-.14-.06-.07-.28-.1-.36-.04-.44,.31-.93,.16-1.4,.18-.63,.03-1.27-.05-1.88,.2-.63,.24-1.31,.22-1.98,.2-.29,0-.59,0-.86-.07-.31-.11-.69-.15-.92-.34-.21-.18-.48-.33-.6-.65-.11-.29-.58-.32-.66-.69h-.42c-.16-.44-.79-.45-.92-.96-.47-.13-.58-.61-.87-.91-.32-.33-.71-.56-.99-.93-.26-.35-.6-.65-.8-1.03-.19-.35-.73-.48-.63-1-.47-.17-.55-.73-.96-.93,0-.35,.04-.68,0-1-.07-.49,.28-.82,.44-1.19,.16-.37,.61-.47,1.05-.51,.33-.02,.64-.23,1-.19,.35,.04,.72,0,1.11,0,.56,.37,1.16,.75,1.75,1.13,.43-.27,.91-.1,1.37-.16,.36,.39,.82,.53,1.32,.6,.21,.03,.42-.03,.64,.13,.54,.4,1.09,.36,1.63-.14,.91,.09,1.89-.13,2.95,.16,.17-.07,.47-.28,.78-.33,.62-.11,1.25-.16,1.88-.2,.53-.04,1.06,.03,1.59-.18,.3-.12,.7-.02,1.01-.02,.16,.16,.27,.27,.36,.36h2.63c.03-.12,.06-.2,.09-.33h1.62c.24,.12,.48,.25,.73,.38,.32-.11,.62-.24,.95-.33,.49-.12,.98-.23,1.45,.09,.35,.24,.78,.24,1.21,.2,.03-.11,.07-.22,.13-.37h6.48c.22-.39,.42-.73,.72-1.25,.03-.41-.15-1.08,.38-1.6,.04-.51,.02-1,.29-1.53,.26-.52,.42-1.18,.29-1.8,.35-.33,.4-.72,.42-1.14,0-.27,.07-.56,.2-.79,.21-.41,.51-.78,.36-1.26,.19-.05,.28-.07,.42-.11-.03-.48,0-.98,.39-1.42-.17-1.02,.74-1.87,.58-2.92l.29-.29c.15-.47,.27-.88,.39-1.29,.02,0,.03,.02,.05,.02,.08-.46,.23-.91,.23-1.37s.05-.9,.23-1.28c.31-.64,.52-1.29,.68-1.98,.05-.21,.08-.43,.14-.73,.05-.04,.18-.15,.31-.26v-.83l.38-.38c.1-.52,.19-1.04,.31-1.68,.05-.03,.2-.16,.34-.26-.13-.67,.25-1.18,.34-1.75,.11-.68,.52-1.22,.65-1.9,.11-.64,.49-1.22,.75-1.84,.04-.08,.11-.16,.2-.28-.02-.54,.07-1.1,.29-1.67,.2-.51,.18-1.09,.29-1.64,.11-.51,.24-1.01,.4-1.5,.06-.17,.24-.29,.38-.46v-.6c-.19-.06-.39-.11-.58-.18-.17-.07-.33-.16-.55-.28-1.09-.16-2.21,.33-3.36,.19-.53,.34-1.12,.13-1.64,.2-.51-.41-1.1-.44-1.66-.59-.38-.1-.79-.11-1.31-.19-.09,.08-.24,.23-.42,.39-.29-.07-.58-.2-.88-.2-.26,0-.52,.16-.7,.21-.3-.18-.54-.28-.72-.43-.25-.22-.46-.24-.76-.07-.22,.13-.53,.11-.84,.17-.47-.11-.99-.24-1.66-.4-.02-.02-.12-.18-.2-.28h-1.08c-.21,.19-.36,.48-.8,.37-.02-.05-.07-.15-.14-.29-.1-.05-.26-.13-.44-.23-.07,.05-.16,.11-.22,.15-.55-.22-1.05-.42-1.59-.63-.2,.16-.39,.32-.6,.43-.21,.11-.45,.17-.68,.25-.29-.73-.87-.65-1.35-.64-.28,.16-.49,.27-.72,.4-.47-.19-.94-.38-1.47-.6-.46,.5-1.05,.52-1.65,.19-.36-.2-.73-.16-1.1-.19-1.05-.11-2.09-.2-3.12-.51-.4-.12-.87,0-1.31,.02-.21,.02-.42,.1-.68,.16-.17-.39-.68-.41-.8-.84h-.42c-.03-.11-.07-.22-.12-.37h-.89c-.21-.31-.41-.63-.65-.92-.26-.31-.58-.55-.99-.69-.36-.13-.69-.3-.87-.74-.16-.39-.51-.71-.81-1.03-.29-.31-.44-.66-.48-1.08-.3-.3-.6-.6-.91-.91-.05-.6-.5-1.03-.67-1.59-.16-.53-.42-1.03-.36-1.54,.22-.41,.41-.75,.6-1.11,.25-.02,.47-.02,.62-.03,.31-.21,.56-.38,.82-.56,.43,.16,.83,.37,1.22,.59,.29,.16,.32,.55,.67,.7,.22,.1,.4,.25,.68,.27,.26,.02,.51,.19,.82,.31,.02-.02,.11-.07,.21-.14,.39,.16,.78,.32,1.2,.49,0,.04,.03,.13,.07,.25h1.51c.35,.24,.61,.42,.87,.59,.82,.17,1.54-.05,2.21-.56,.04,.12,.08,.24,.11,.34,.77,.19,1.55,.24,2.34,.28,.82,.03,1.49-.33,2.2-.71,.07,.2,.11,.32,.16,.47,.37,.07,.82,.31,1.14,.19,.48-.19,.94-.12,1.4-.16,.13,0,.26,0,.28,0,.58-.29,1.07-.52,1.57-.76,.31,.33,.73,.38,1.19,.38,.56-.02,1.11-.02,1.67,0,.27,0,.56-.09,.83,.14,.14,.11,.47,.12,.65,.03,.65-.3,1.32-.16,1.98-.18,.84-.02,1.68,0,2.52,0,.03-.14,.06-.23,.07-.32,.06-.02,.11-.07,.16-.07h1.18c.29,0,.57,0,.8,.2,.24,.2,.51,.2,.8,.2h2.74c.21,0,.45,.09,.63-.14,.06-.07,.26-.08,.36-.04,.77,.32,1.54,.22,2.33,.09,.21-.03,.44,.09,.66,.09,.65,.02,1.31,0,1.96,0s1.31-.02,1.93,.33c.23,.13,.56,.07,.82,.08,.17-.17,.31-.31,.48-.48-.2-.48,.54-.65,.42-1.15,.34-.56,.93-.81,1.54-1.13h.64c.29,.18,.54,.31,.75,.49,.13,.11,.23,.29,.28,.47,.19,.7,.82,1.14,1.04,1.82,.11,.33,.35,.51,.56,.75,.2,.23,.4,.47,.62,.73,.34,.14,.74,.29,1.14,.46,0,0,.06,.02,.06,.05,.02,.5,.64,.51,.77,.92,.49-.2,.62,.6,1.16,.35,.18,.22,.36,.45,.51,.64h.42c.14,.29,.26,.57,.48,1.04v.65c-.1,.1-.21,.21-.34,.34v.53c-.05,.07-.08,.14-.12,.18-.46,.42-.87,.9-1.55,1-.19,.02-.33,.29-.53,.37-.48,.18-.79,.69-1.42,.63-.21-.02-.6,.3-.68,.54-.12,.4-.67,.35-.69,.78-.43,.06-.61,.44-.88,.7-.29,.29-.52,.65-.82,.93-.25,.24-.52,.45-.59,.82-.02,.08-.11,.16-.19,.21-.49,.38-.7,.94-.98,1.45-.13,.24-.22,.52-.41,.7-.24,.23-.15,.47-.19,.8-.54,.22-.47,.94-.95,1.34v.82s-.07-.02-.09-.02c-.21,.5-.43,.99-.65,1.49-.07,0-.13,0-.23,.02v.65c-.15,.13-.27,.24-.36,.31-.03,.1-.07,.16-.07,.22,.05,.71-.14,1.34-.58,1.92-.29,.38-.48,.83-.6,1.31-.07,.26-.21,.5-.37,.87v1.09c-.14,.08-.31,.18-.42,.24,.02,.6,.02,1.06-.33,1.45-.29,.33-.29,.75-.24,1.24-.1,.06-.24,.14-.29,.17-.12,.47-.11,.92-.34,1.15-.35,.37,0,.81-.29,1.17-.21,.26-.25,.67-.47,.99v.82l-.36,.36c-.03,1.16-.65,2.11-1.01,3.15,0,.33,.02,.65,0,.97-.03,.3-.12,.6-.19,.9-.02,.12,0,.28-.07,.36-.43,.49-.29,1.08-.33,1.75-.09,.06-.26,.16-.37,.22v.92c-.13,.11-.29,.22-.35,.27-.11,.83-.2,1.55-.3,2.31-.29,.27-.35,.65-.35,1.08,0,1,0,2.02,0,3,.92,.62,1.82,1.22,2.74,1.83,0,.02,.02,.11,.04,.2h.41c.1,.16,.17,.33,.29,.46,.12,.12,.29,.19,.42,.3,.06,.05,.06,.21,.11,.23,.99,.33,1.54,1.35,2.56,1.61,.33,.65,1.04,.78,1.58,1.13,.22,.14,.44,.2,.47,.51,0,.06,.2,.1,.32,.14,.06,.29,.11,.6,.2,1.02-.05,.14-.16,.42-.26,.69-.42-.05-.2,.52-.54,.59-.61,0-1.23,.02-1.85,0-.37-.02-.78-.04-1.08-.21-.31-.18-.6-.17-.91-.17-.88,0-1.76-.05-2.65,0-2.07,.12-4.12-.28-6.19-.22-.38,0-.77-.18-1.16-.26-.28-.06-.58-.16-.82-.1-.24,.07-.44,.18-.71,.18-1.05-.02-2.11,.1-3.13-.05-.6-.08-1.14-.21-1.71,.03-.11,.05-.32,.07-.38,0-.3-.33-.67-.18-1-.18-1.63-.02-3.27,0-4.9-.02-.33,0-.66,.06-1.02-.16-.21-.12-.64,.11-.96,.19-.17,.04-.38,.2-.51,.16-.73-.3-1.51-.11-2.24-.2l.05,.05Z" style="fill: #010101;"/>
    </g>
  </g>
</svg>