<?xml version="1.0" encoding="UTF-8"?>
<svg id="Ebene_1" data-name="Ebene 1" xmlns="http://www.w3.org/2000/svg" width="100" height="100" viewBox="0 0 100 100">
  <path d="M60.61,65.81c-.32-.62-.56-1.07-.97-1.84-1.14-1.14-2.54-2.54-3.77-3.77-.76-.37-1.31-.63-1.87-.89-.65-.31-1.41-.49-1.91-.95-.59-.56-1.24-.21-1.83-.43-.39-.39-.78-.78-1.22-1.22h-1.91c-.26-.23-.51-.43-.78-.66-.7-.06-1.51,.11-1.99-.7-.89,.14-1.44-.71-2.37-.76-.84-.04-1.63-.83-2.46-1.19-.72-.32-1.38-1.14-2.35-.72-.62-.36-1.24-.73-1.87-1.07-.27-.14-.57-.22-1.12-.43-.49-.5-1.13-1.28-1.89-1.9-.87-.7-.82-2.02-1.86-2.55-.96-.49-.87-1.7-1.65-2.32v-1.96c-.23-.25-.45-.49-.67-.72v-6.62c.16-.16,.32-.32,.47-.47,.35-.61,.11-1.27,.19-1.92,.27-.65,.66-1.23,.73-2.03,.06-.66,.77-1.24,.55-2.28,.43-.31,.97-.69,1.34-.95,.02-.49,.03-.71,.04-.93,.22-.23,.44-.47,.66-.7v-1.3c-.23-.25-.45-.49-.68-.74v-1.91c-.25-.29-.46-.53-.68-.79v-1.91c-.2-.2-.36-.36-.56-.56v-2.82c.78-.42,1.54-.17,2.28-.2,.55,.87,.82,1.89,1.42,2.72,.49,.7-.22,1.84,.88,2.29-.13,.81,.61,1.08,.98,1.58,.9,.45,1.13-1.1,2.03-.68,.48-.43,.91-1.12,1.46-1.23,.59-.12,.84-.75,1.37-.71,.72,.06,.95-.88,1.72-.72,.19,.04,.48-.39,.74-.62h2.64c.14-.15,.29-.31,.41-.45,.23-.08,.42-.21,.61-.21,2.31-.01,4.63,0,6.92,0,.18,.18,.34,.34,.61,.61,.3,.02,.72,.05,1.22,.08,.21-.16,.46-.35,.67-.5,.66,.2,1.32,.4,2.43,.73,.11,.14,.5,.66,.81,1.06h.75c1.08,1.08,2.08,2.09,2.9,2.9,.29,.59,.48,.95,.82,1.64v4.31c-.5,.65-.61,1.68-1.42,2.27-.71,.52-.53,1.57-1.38,2.11-.82,.52-1.42,1.36-2.11,2.04-.94-.19-1.41,1.18-2.42,.66-.63,.34-1.35,.58-1.88,1.03-.68,.58-1.84-.14-2.28,.93h-3.35c-.2-.19-.44-.41-.69-.64h-3.97c-.14-.15-.29-.31-.43-.46-.73-.44-1.52-.04-2.36-.31-1.06-1.68-3.34-2.1-4.41-3.94-.65,.53-.31,1.12-.43,1.68-.19,.21-.4,.45-.64,.71v2.04c1.3,.8,1.5,2.38,2.31,3.59,.22,0,.44,0,.66,0,.61,.42,.88,1.19,1.76,1.38,.56,.12,1.02,.75,1.64,1.24h1.96c.35,.45,.76,.96,1.07,1.37h2.02c.85,.48,1.57,.89,2.35,1.34,.65,.12,1.36-.16,2.14,.26,1.44,.78,3.29,.81,4.24,2.38h2.06c1.24,.86,2.03,1.2,3.09,1.33,.88,.16,1.02,1.48,2.1,1.33,.71,.68,1.43,1.35,2.14,2.03,.63,.62,1.25,1.25,1.88,1.87,.3,.07,.6,.15,.94,.23,.06,.3,.13,.6,.19,.9,.62,.62,1.25,1.25,1.9,1.9v1.28c.23,.25,.45,.49,.68,.75v1.95c.23,.25,.45,.49,.66,.71v3.31c-.17,.17-.32,.32-.6,.6v2.65c-.27,.27-.43,.43-.65,.65v1.94c-.99,.94-1.77,2.03-2.1,3.47-1.83,1.82-3.71,3.68-5.59,5.56-.87-.41-1.09,1.14-2,.72-.32,.67-1.09,.58-1.61,.92-.59,.4-1.22,.8-1.89,1.03-.58,.2-1.39-.26-1.63,.66h-4.05c-.26,.23-.5,.44-.77,.68h-1.96c-.22-.2-.46-.43-.7-.65h-3.96l-.59-.59h-2.65c-.27-.27-.43-.43-.66-.66h-1.62c-1.58-.81-2.95-1.5-4.78-2.44-1-1.03-2.39-2.45-3.92-4.02-.44-.9-.78-2.09-1.34-3.19v-3.34c.19-.2,.41-.44,.64-.69v-1.34c.38-.37,.83-.71,1.15-1.15,.23-.31,.29-.76,.42-1.13h.71c.48-.46,.96-.91,1.44-1.37h1.29l.57-.57h5.95c.51,.28,1.16,.59,1.77,.96,.62,.38,1.46,.43,1.83,1.17,.32,.64,.56,1.32,.83,1.95-.61,.67-1.18,1.3-1.64,1.81-1.54-.02-1.45-1.29-2.02-1.98h-1.3c-.17-.16-.33-.31-.49-.46-.18-.07-.37-.2-.57-.21-.77-.02-1.54,0-2.06,0-.76,.39-1.31,.68-1.87,.96v3.33c.19,.2,.41,.44,.64,.69v.67c.54,.53,1.09,1.07,1.64,1.62,.47,.47,.9,.99,1.42,1.39,.57,.44,1.22,.77,2.08,1.3h3.18l.62,.62h3.99c.19-.17,.43-.38,.69-.62h3.26c.25-.23,.56-.68,.72-.64,.9,.26,1.15-1.09,2.03-.76,1.17-1.17,2.34-2.34,3.39-3.39,.29-.61,.51-1.08,.85-1.79v-1.01c.23-.25,.45-.49,.68-.73v-2.43ZM39.65,27c.06,1.25,1.09,.95,1.67,1.4,2.04,1.59,2.29,1.68,4.44,1.85,.29,.22,.54,.41,.62,.47h4.02c.23-.23,.38-.38,.65-.65h2.17c1.02-.42,1.49-.61,1.95-.81,.7-.7,1.4-1.4,1.84-1.84,.43-.85,.7-1.39,.97-1.93-.5-.93-.79-1.96-1.78-2.75h-1.96c-.27-.27-.42-.42-.58-.58-1.2,0-2.41,0-3.61,0-.19,0-.38,.13-.61,.21-.12,.14-.27,.3-.41,.44h-3.03c-1.59,.79-2.96,1.48-4.32,2.16,.08,.06,.15,.13,.23,.19-.82,.67-1.64,1.33-2.24,1.81Z"/>
</svg>