<?xml version="1.0" encoding="UTF-8"?>
<svg id="Ebene_1" data-name="Ebene 1" xmlns="http://www.w3.org/2000/svg" width="100" height="100" viewBox="0 0 100 100">
  <path d="M47.61,16.17h1.36c.25-.23,.48-.45,.69-.64h1.33c1.42,1.42,2.85,2.8,4.22,4.24,1.1,1.16,2.28,2.21,3.12,3.66,.75,1.29,2.25,2.12,3.15,3.36,.55,.76,.99,1.61,1.69,2.26-.2,1.18,1.33,1.37,1.38,2.41,0,.11-.03,.27,.03,.31,1.72,1.35,2.43,3.57,4.2,4.9,.52,.39,.94,.93,1.42,1.39,.46,.45,.27,1.29,.94,1.6,.79,.37,.55,1.36,1.16,1.85,.49,.4,1.03,.82,.94,1.59,.78,.26,.35,1.22,.94,1.6,.22,0,.44,0,.66,0,.57,.38,.2,1.26,.92,1.63,.45,.23,.66,.72,.8,1.31,.13,.55,.83,.96,1.33,1.49-.29,.65-.57,1.3-.89,2.02-.57,.57-1.19,1.19-1.83,1.83v1.25c-.69,.76-1.34,1.49-2,2.21,.18,1.15-1.53,1.27-1.33,2.43-.83,.87-1.67,1.74-2.54,2.66-.29,.69-.6,1.45-.91,2.2-.62,.62-1.21,1.3-1.88,1.86-1.17,.98-1.61,2.47-2.61,3.56-.12,.14-.06,.46-.2,.57-1.55,1.22-2.09,3.29-3.73,4.35-.02,.28-.04,.5-.06,.71-1.11,.73-2.49,1.2-2.71,2.79-1.1,1.08-2.2,2.16-3.27,3.21v.81c-.28,.09-.57,.19-1.43,.49-.47,.57-1.3,1.58-1.98,2.4-.67,0-1,0-1.33,0-.18-.1-.4-.17-.53-.32-1.33-1.55-3.16-2.66-4.39-5.04-.7-.69-1.8-1.76-2.87-2.8-.02-.29-.04-.5-.07-.79-.41-.2-.86-.42-1.31-.63v-.59c-.92-1.02-2.03-1.87-2.6-2.99-.63-1.25-2.03-1.78-2.48-2.94-.47-1.21-1.73-1.84-1.86-3.12-.31-.02-.53-.03-.75-.05-.46-.44-.24-1.24-.91-1.63-.33-.19-.58-.53-.74-1-.39-1.21-1.09-2.25-2.07-3.12-.9-.79-1.69-1.72-2.53-2.58,.09-1.22-1.62-1.46-1.46-2.7-1.13-.73-1.21-2.27-2.35-3.01-.32-.61-.12-1.27-.16-1.91-.03-.54,0-1.09,0-1.57,.68-.68,1.24-1.4,1.95-1.9,.77-.54,.56-1.63,1.38-2.11,.27-.15,.59-.45,.62-.72,.12-.86,.68-1.51,1.07-2.21,.41-.74,1.21-1.26,1.82-1.9,.58-.61,.58-1.57,1.39-2.09,.61-.39,1.15-.96,1.21-1.81,0-.08,.36-.13,.56-.2,.65-.21,1.02-.65,1.29-1.29,.45-1.05,.84-2.18,1.84-2.88,1-.7,1.36-1.88,2.12-2.76,.72-.84,1.81-1.44,2.27-2.38,.8-1.62,2.46-2.49,3.27-3.94,1.21-2.16,3.23-3.49,4.69-5.31Zm-14.17,33.52c.41,.61,1.14,.89,1.35,1.77,.16,.65,.93,1.16,1.46,1.7,.6,.61,.54,1.59,1.38,2.1,.64,.39,1.11,1.06,1.66,1.61,.08,.3,.15,.6,.23,.9,.84,.22,1.66,.53,1.81,1.51,.1,.65,.93,.94,.72,1.69,.38,.16,.8,.25,1.12,.49,.33,.25,.67,.6,.81,.97,.47,1.19,1,2.31,2.01,3.14-.22,1.26,1.6,1.48,1.4,2.73,.75,.75,1.5,1.5,2.25,2.25,1.27-1.27,2.44-2.44,3.41-3.41,.42-.89,.72-1.53,1.17-2.49,.59-.59,1.45-1.45,2.31-2.31,0-1.02,.86-1.43,1.4-2.07v-.77c1.51-1.5,3.07-3.05,4.66-4.63v-1.25c.88-.88,1.74-1.74,2.33-2.33,.4-.77,.64-1.22,.85-1.63-.21-.4-.45-.86-.86-1.64-.19-.19-.66-.66-1.13-1.13-.55-.55-1.04-1.16-1.65-1.62-.65-.49-.74-1.26-1.17-1.84-.43-.59-1.18-.97-1.16-1.84-1.13-.73-1.34-2.14-2.31-3.04-1.08-1.01-1.6-2.52-2.84-3.44,.13-.79-.51-1.13-.94-1.6-.5-.54-1.03-.99-1.23-1.82-.14-.55-.86-.97-1.34-1.42-.52-.49-.93-1.1-1.56-1.45-1.01,1.01-1.95,1.95-2.68,2.68-.42,.89-.72,1.53-1.23,2.62-.57,.8-1.93,1.54-2.54,3.06-.47,1.15-1.86,1.7-2.5,2.93-.58,1.12-1.67,1.98-2.07,2.42-.67,1.53-1.48,2.15-2.18,2.76-.68,.59-.82,1.57-1.42,2.04-.84,.65-.76,1.75-1.52,2.35Z"/>
</svg>