<?xml version="1.0" encoding="UTF-8"?>
<svg id="Ebene_1" data-name="Ebene 1" xmlns="http://www.w3.org/2000/svg" width="100" height="100" viewBox="0 0 100 100">
  <path d="M73.75,76.17c-.26,.02-.48,.03-.69,.04-.78,.78-1.49,1.66-2.36,2.31-.81,.6-1.8,.98-2.73,1.4-.94,.42-1.79,1-3.33,1.5h-1.33c-.27,.22-.52,.43-.82,.68h-13.89c-.18-.16-.42-.37-.69-.61h-1.27c-.25-.23-.49-.45-.73-.68h-1.97l-1.21-1.21c-1.04,.06-1.92-.58-2.89-.9-.73-1.13-2.22-1.26-3.03-2.33-.45-.59-1.03-1.25-1.69-1.47-.92-.31-1.34-1.06-1.99-1.6-.59-.49-1.08-1.11-1.66-1.62-.65-.58-.97-1.37-1.45-2.04-.49-.68-.93-1.39-1.39-2.08-.36-.55-.14-1.05-.43-1.85-.28-.19-.83-.57-1.17-.8v-1.65c-.23-.25-.45-.49-.68-.74v-1.26c-.24-.28-.46-.52-.68-.79v-1.91l-.57-.57v-9.84c-.22-.27-.42-.52-.66-.81,.17-.2,.36-.43,.59-.69v-2.59c.23-.25,.45-.49,.68-.73v-3.79c.49-.85,.9-1.57,1.32-2.32v-1.73c1.37-1.24,1.91-3.05,3.02-5.11,.5-.5,1.36-1.36,2.22-2.22,.07-.3,.13-.6,.2-.92,.33-.08,.63-.15,.93-.22,1.48-1.48,2.97-2.97,4.45-4.45,1.74-.62,3.32-1.59,4.97-2.39,.52-.25,.99-.28,1.5-.4,.49-.11,.93-.41,1.39-.64,.28-.15,.53-.33,1.05-.66h2.49l.58-.58h10.76c.23,.23,.39,.39,.57,.57h2.62c.25,.23,.49,.45,.73,.68h.98c1.1,.53,1.93,.92,2.76,1.33q3.02,1.48,5.14,3.59c.23,.23,.47,.47,.71,.71v.87c.37,.35,.84,.8,1.3,1.23v1.87c-.49,1.09-1.73,.91-2.4,1.64-.11,.12-.73-.22-1.07-.63-.53,0-1.07,0-1.6,0-.21,0-.55-.01-.6,.1-.54,1.07-2.02,.05-2.56,1.28h-2.72c-.27,.27-.43,.43-.6,.6h-1.24c-1.02,.66-1.49,1.97-2.84,2.1-.86,.85-1.72,1.71-2.59,2.56-.84-.19-1.11,.56-1.59,.96-.41,.35-.88,.7-.71,1.36-.67,.32-.49,1.17-.95,1.58-.5,.45-.26,1.01-.39,1.51-.13,.49-.56,.91-.61,1.39-.05,.58-.34,.96-.57,1.44-.26,.54-.12,1.28-.16,2.01-.16,.18-.37,.42-.61,.69v7.93c.2,.21,.42,.45,.65,.69v1.3c.23,.25,.45,.49,.68,.74v1.29c.88,.88,1.74,1.74,2.6,2.6,.05,1.42,1.41,1.85,2.13,2.76,.47,.59,1.03,1.38,1.67,1.51,.91,.18,1.15,1.18,1.8,1.25,.8,.09,1.17,.94,2.01,.85,.22-.02,.48,.4,.74,.63h1.31c.15,.15,.3,.31,.56,.58h2.67l.7,.7h4.36c1.43,.55,1.11,1.9,2.13,2.44-.63,1.24-1.23,2.41-1.82,3.57Zm-11.91-51.05c-.25-.23-.48-.45-.73-.68h-1.26c-.28-.24-.52-.45-.69-.6h-8.64c-.2,.2-.35,.35-.54,.54-.71,.07-1.6-.1-2.15,.26-.71,.45-1.56,.6-2.17,1.15h-1.68c-.48,.44-.92,1.2-1.44,1.25-.81,.08-1.16,1.03-2,.82-1.41,1.41-2.81,2.81-3.86,3.87-.9,1.68-1.32,3.09-2.25,4.2-.76,.91-1.16,1.92-1.48,3.05-.24,.86-.64,1.74-1.3,2.47v1.91c-.24,.28-.45,.52-.68,.78v1.92c-.19,.19-.35,.35-.57,.57v4.53c.33,.61,.53,.96,.72,1.31-.3,.34-.51,.59-.74,.85,.2,.22,.41,.45,.63,.69v3.29c.23,.25,.45,.48,.67,.72-.51,1.09,.68,1.73,.69,2.72,.01,.91,.87,1.66,.71,2.61,.46,.63,1.36,.92,1.24,1.87,.71,.78,.93,1.89,1.83,2.57,.7,.53,1.24,1.26,1.9,1.85,.72,.65,1.21,1.64,2.19,1.9,.96,.25,1.23,1.23,1.99,1.61,1,.5,1.93,1.26,3.15,1.19l1.29,1.29h1.99c.27,.27,.43,.43,.59,.59h2.64c.24,.23,.48,.45,.69,.64h3.29c.28-.24,.52-.45,.78-.68h3.2c.32-.26,.56-.46,.76-.62h1.71c.61-.35,1.2-.69,1.81-1.05-1.13-.54-2.24-1.07-3.34-1.61-1.47-.72-2.89-1.53-4.4-2.18-.65-.28-.9-1.27-1.85-1.14-1.33-1.33-2.7-2.62-3.97-4-.77-.84-.75-2.16-1.66-2.95-.21-1.36-1.22-2.36-1.64-3.63-.05-.16-.16-.31-.19-.35,.23-.43,.43-.79,.62-1.13-.3-.34-.51-.59-.76-.86v-1.27c-.23-.25-.45-.49-.68-.73v-8.59c.23-.25,.45-.49,.68-.73v-2.57c.24-.3,.66-.61,.61-.8-.3-1.09,.63-1.76,.86-2.66,.17-.67,.74-1.23,1.13-1.85-.34-.87,1.06-1.15,.7-2.03,.41-.61,1.11-.92,1.38-1.75,.28-.87,1.18-1.38,1.99-1.94,1.21-.83,2.65-1.38,3.58-2.59h1.08c.42-.54,1.03-1.32,1.59-2.05h2.44c.78-.41,1.3-.68,1.83-.96-.35-.35-.66-.66-.97-.97h-1.31Z"/>
</svg>