<?xml version="1.0" encoding="UTF-8"?>
<svg id="Ebene_1" data-name="Ebene 1" xmlns="http://www.w3.org/2000/svg" width="100" height="100" viewBox="0 0 100 100">
  <path d="M40.05,75.87c.97-.47,.88-1.69,1.65-2.31v-1.3c.23-.25,.45-.49,.68-.74v-1.96c.17-.17,.32-.32,.59-.59v-2.65c.27-.27,.43-.43,.7-.7v-1.99c.27-.27,.43-.43,.7-.7v-2.65c.27-.27,.43-.43,.62-.62v-2.6c.23-.26,.44-.5,.68-.76v-3.26c.16-.17,.31-.33,.46-.5,.07-.18,.2-.37,.21-.57,.02-.77,.01-1.54,.01-2.3,.17-.17,.32-.33,.61-.61,.17-1.27-.04-2.69,.11-4.09,.16-.16,.31-.31,.54-.54v-4.51c.22-.28,.41-.53,.67-.86,.05-.42,.1-.95,.16-1.42,.2-.2,.35-.35,.54-.54v-4.58c.23-.26,.44-.5,.68-.77v-1.93c.23-.25,.45-.49,.68-.73v-3.05c.38-.75,.63-1.32,.95-1.85,.32-.53,.94-.79,1.1-1.55,.12-.55,.94-.92,1.19-1.48,.21-.48,.08-1.04,.88-1.04,.25,0,.48-.4,.76-.53,.65-.3,.08-1.73,1.34-1.43,.4-.55,1.08-.59,1.62-.89,.18-.1,.32-.29,.47-.42h3.31c.17,.17,.32,.32,.48,.48,1.37,.13,2.47,.95,3.7,1.44,1.45,.59,1.9,1.88,2.73,3.16v1.76c.23,.26,.44,.5,.68,.77v10.57c-.69,.98-1.79,1.34-2.9,1.7-.75-.8-1.5-1.6-2.37-2.53v-7.76c-.98-.24-1.67-1.31-3.07-.86-.25,.53-.57,1.25-.93,1.96-.37,.73-.78,1.45-1.28,2.38v1.71c-.23,.26-.44,.5-.68,.78v2.58c-.23,.25-.45,.49-.68,.73v4.64c-.15,.14-.31,.3-.58,.55v3.28c-.34,.41-.77,.74-.71,.9,.33,.99-.63,1.56-.69,2.39-.06,.88-.01,1.77-.01,2.65v2.17c-.26,.26-.42,.42-.69,.69v2.65c-.27,.27-.43,.43-.61,.61v1.28c-.23,.25-.45,.49-.68,.75v5.27c-.23,.25-.45,.48-.68,.74v1.27c-.24,.27-.45,.51-.68,.76v3.19c-.25,.33-.62,.6-.6,.84,.1,1.31-1.19,2.34-.69,3.7-.88,.55-.39,1.65-.87,2.28-.52,.67-.42,1.73-1.37,2.09-.46,1.11-1.11,2.1-2.15,2.68-.34,.19-.79,.2-1.09,.55-.21,.25-.46,.47-.71,.72-.65,.27-1.57-.2-2.02,.73h-4.69c-.18-.15-.42-.37-.69-.61h-1.3c-1.14-1.18-2.28-2.38-3.54-3.69-.32-.65-.61-1.57-1.16-2.28-.54-.71,.13-1.83-.93-2.28v-4.68c.18-.19,.39-.43,.63-.69v-3.98c.54-.52,1.1-1.05,1.71-1.63h1.96c1.03,.92,1.64,2.09,1.66,3.56-.22,.24-.43,.48-.67,.74v4.61c1.02,1.06,1.05,2.75,2.31,3.67,.66,0,1.32,0,1.98,0Z"/>
</svg>