<?xml version="1.0" encoding="UTF-8"?>
<svg id="Ebene_1" data-name="Ebene 1" xmlns="http://www.w3.org/2000/svg" width="100" height="100" viewBox="0 0 100 100">
  <g id="Ebene_1-2" data-name="Ebene 1-2">
    <g id="Note">
      <path d="M41.4,22.41c.67,.02,1.23-.15,1.78-.55,.28-.2,.58-.55,1.09-.47,.26,.04,.57-.31,.99-.56h.52c.47-.35,.79-.6,1.25-.95h.88c.03-.11,.06-.2,.08-.29,.74-.32,1.48-.65,2.23-.97-.02-.04-.02-.07-.04-.11h.86c.3-.5,.88-.47,1.27-.74,.4-.29,.87-.3,1.28-.48,.46-.2,.96-.21,1.42-.43,.03-.09,.07-.2,.11-.32h.41c.44,.61,.82,1.27,1.04,2,.22,.73,.65,1.37,.85,2.1,.02,.08,.19,.12,.23,.21,.28,.52,.55,1.06,.88,1.71,.81,.25,.58,1.37,1.23,1.91,0,.2,.02,.43,.03,.65,.11,.02,.2,.04,.29,.07,.16,.16,.1,.53-.2,.95h-.65c-.36,.2-.62,.34-.89,.49,0-.02-.02-.04-.03-.06-.4,.31-.79,.62-1.22,.95h-1.15c-.14,.14-.29,.27-.43,.4h-.38c-.07,.13-.11,.3-.22,.38-.26,.17-.62,.13-.86,.4-.2,.22-.42,.47-.69,.57-.74,.31-1.45,.74-2.33,.59-.18,.22-.37,.44-.56,.66-.03-.05-.06-.1-.09-.15-.54,.19-1.09,.38-1.62,.56-.02,.11-.04,.2-.05,.24-.48,.12-.92,.23-1.34,.33,0,.13-.02,.19-.02,.29h-1.2c-.18,.17-.32,.3-.46,.44h-.52c-.62,.52-1.21,1.01-1.86,1.56-.49-.24-.8,.26-1.18,.48-.38,.22-.7,.48-1.17,.52-.27,.02-.52,.29-.83,.46v.84c.08,.02,.17,.04,.29,.07,.32,.22,.04,.85,.58,.97,.12,.43,.5,.65,.76,.97,.2,.24,.37,.5,.56,.76,.28,0,.52,.02,.81-.12,.49-.24,1-.43,1.47-.72,.53-.32,1.11-.51,1.6-.53,.33-.29,.56-.49,.85-.74h.71c.88-.45,1.42-1.32,2.47-1.19,.05-.13,.09-.25,.14-.38,.21,0,.43-.02,.67-.03,.02-.09,.04-.18,.07-.34,.44-.09,.92-.2,1.53-.32,.3-.23,.65-.63,1.23-.72,.25-.04,.46-.31,.7-.42,.42-.19,.7-.55,1.24-.59,.46-.03,.9-.42,1.25-.9h.96c.14-.15,.25-.27,.35-.38,.97-.11,1.42-.36,1.82-1.02h.39c.31-.33,.63-.65,.93-.97h.67c.11,.14,.25,.31,.45,.56,0,.07,.04,.25,.07,.41,.13,0,.19,0,.29,.02,.03,.82,.6,1.37,1.03,2.19,0,.3,.08,.72,.29,1.18,.48,1.05,1.08,2.04,1.55,3.09,.07,.14,.1,.29,.16,.47-.26,.2-.7,.23-.66,.65-.29,.15-.57,.28-.97,.47h-.77c-.43,.38-.77,.68-1.1,.97-.54,.21-1.14,.32-1.6,.61-.49,.31-.92,.66-1.52,.8-.55,.13-1.05,.47-1.65,.74-.27,.07-.66-.14-1.03,.11-.17,.12-.3,.21-.42,.4-.08,.15-.38,.26-.56,.24-.34-.04-.28,.28-.43,.38-.17,.11-.42,0-.6,.21-.34,.37-.97,.25-1.28,.7-.29,.44-.79,.64-1.24,.81-.43,.17-.89,.27-1.21,.65h-1.24c-.16,.19-.34,.41-.52,.61h-.45c-.04,.11-.08,.23-.14,.38h-.88v.9c.42,.11,.42,.58,.65,.87,.27,.34,.56,.66,.69,1.09,.11,.37,.53,.47,.64,.91,.07,.29,.56,.48,.56,.77,.33,.28,.56,.47,.8,.68-.03,.02-.07,.05-.1,.07,.25,.48,.48,.97,.83,1.65,.85,.79,1.76,1.82,2.23,3.15,.22,.41,.64,.62,.93,.97,.53,.62,1.08,1.19,1.42,1.97,.23,.53,.74,.93,1.13,1.4,.33,.41,.65,.83,1.01,1.3-.02,0,.07,.02,.16,.03v.59c.39,.43,.78,.86,1.21,1.33h.26c.16,.24,.32,.47,.51,.75v.47c.31,.29,.61,.57,.93,.88-.05,.41,.54,.52,.61,.92,.08,.43,.7,.65,.37,1.2,.14,.04,.22,.07,.39,.13-.02,.7,.77,1.19,.64,2,.13,.14,.26,.28,.39,.41v3.54l-.35,.35c-.02,.74-.48,1.25-1.01,1.96,0-.07,0,.09-.02,.27-.08,.02-.16,.05-.29,.09-.12,.24-.2,.62-.41,.74-.29,.16-.09,.61-.51,.62-.34,0-.25,.56-.62,.58-.33,.72-1.28,.88-1.51,1.69-.61,.29-1.09,.89-1.89,.65-.03,.13-.06,.22-.09,.38-.55-.02-.84,.56-1.43,.68-.53,.11-1.06,.3-1.6,.38l-.38,.38c-.87-.07-1.69,.18-2.47,.58-1.15-.31-2.32-.29-3.55,0-.69-.48-1.51-.74-2.43-.56-.05-.15-.09-.26-.14-.4h-1.09c-.42-.26-.79-.48-1.19-.74-.02-.04-.06-.16-.09-.27h-.55c-.56-.57-1.1-1.12-1.68-1.69-.11-.34-.23-.75-.35-1.15-.2-.29,.06-.7-.29-.97,0-.6-.14-1.24,.2-1.78,.34-.54,.39-1.11,.38-1.71,.41-.56,.74-1.19,1.23-1.64,.46-.42,.84-.84,1.22-1.42,.63-.19,1.37-.38,2.08-.65,.34-.13,.65-.37,.91-.63,.71-.73,1.68-.86,2.59-1.11,.7-.2,1.44-.21,2.18-.22,.31,0,.63-.2,1.02-.34,.1,.03,.35,.2,.49,.14,.49-.22,1-.17,1.5-.17h1.53c.34,.34,.66,.66,.96,.97h.95v-.51c-.07-.02-.23-.03-.29-.11-.18-.2-.33-.43-.48-.66-.38-.57-.74-1.16-1.24-1.65-.47-.47-.92-.97-1.26-1.54-.12-.21-.34-.15-.4-.3-.07-.16-.12-.48-.15-.48-.34,.05-.24-.25-.32-.38-.1-.15-.13-.34-.16-.43-.32-.29-.57-.57-.88-.78-.31-.21-.39-.59-.72-.81-.25-.16-.31-.6-.7-.64-.07-.38-.47-.47-.63-.8-.17-.34-.52-.56-.76-.87-.23-.29-.34-.71-.62-.9-.29-.2-.42-.49-.65-.72-.25-.23-.13-.74-.65-.8v-.47c-.11-.04-.2-.07-.37-.13-.11-.7-.9-.98-1.23-1.62-.16-.32-.33-.65-.54-1.06-.83-.6-1.26-1.73-2.2-2.44,0-.14-.02-.29-.02-.43-.19-.12-.41-.21-.54-.38-.43-.55-.99-.94-1.45-1.44-.19-.2-.35-.44-.48-.68-.24-.42-.44-.83-.88-1.1-.25-.15-.57-.34-.56-.74-.36-.05-.38-.3-.43-.6-.02-.14-.43-.1-.38-.41-.71-.2-.9-.94-1.37-1.38-.1-.09-.11-.28-.18-.41-.05-.09-.14-.16-.2-.24-.09-.11-.16-.22-.27-.37-.11-.02-.27-.03-.43-.05-.2-.43-.52-.76-.83-1.12-.42-.47-.67-1.09-1.01-1.64-.08-.13-.17-.29-.3-.36-.89-.46-1.03-1.49-1.65-2.15-.05-.05,0-.19,0-.29-.68-.29-1.1-.87-1.34-1.49-.2-.49-.56-.87-.74-1.37-.05-.14-.36-.19-.64-.33-.03-.05-.09-.26-.23-.35-.39-.26-.61-.61-.83-1.02-.19-.35-.56-.61-.72-.97-.16-.38-.42-.68-.63-1.02-.24-.38-.32-.85-.47-1.27,.24-.21,.41-.36,.62-.55h.97c.03-.11,.07-.21,.11-.31,.48-.18,.97-.37,1.59-.61,.21-.21,.53-.53,.85-.85,.11,.11,.23,.23,.41,.41,.09-.16,.18-.33,.22-.41,.88,.03,1.46-.42,2.06-.77,.58-.34,1.19-.6,1.82-.84,.84-.33,1.71-.61,2.55-.97,.08-.03,.1-.21,.16-.37,.13,0,.29-.02,.47-.02,.02-.08,.05-.16,.08-.27,.43-.16,.87-.35,1.33-.51,.65-.22,1.1-.47,1.71-.99v.03Z" style="fill: #010101;"/>
    </g>
  </g>
</svg>