<?xml version="1.0" encoding="UTF-8"?>
<svg id="Ebene_1" data-name="Ebene 1" xmlns="http://www.w3.org/2000/svg" width="100" height="100" viewBox="0 0 100 100">
  <path d="M75.51,57.59c-.16,.15-.31,.31-.58,.58v3.32c-.27,.27-.43,.43-.66,.66v1.7c-.43,.78-.91,1.38-.74,2.19-.12,.17-.23,.35-.35,.52-.37,.5-1.14,.75-.97,1.58-.57,.44-.53,1.09-.72,1.7-.36,1.16-1.04,2.21-1.58,3.32-.18,.37-.32,.75-.47,1.13-1.02,1.02-2.03,2.03-2.51,2.51-.81,1.21-1.21,1.81-1.58,2.35h-.77c-.64,.64-1.33,1.21-1.87,1.9-.62,.8-1.68,.84-2.36,1.59-.53,.58-1.43,.76-2.16,1.14-.73,.37-1.45,.78-2.39,1.28h-1.71c-.26,.23-.51,.44-.79,.68h-11.91c-.2-.18-.44-.4-.69-.63h-3.28c-.25-.23-.48-.45-.72-.67h-1.15c-.15-.11-.41-.28-.84-.59-.31-.03-.83-.09-1.36-.14-.39-.39-.78-.78-1.2-1.2-1,.27-1.76-.48-2.63-.77-.8-.27-1.24-1.08-1.23-1.93-.44-.02-.66-.03-.94-.04-.64-1.05-2.12-1.51-2.27-3-.86-.86-1.72-1.72-2.58-2.58,.43-.91-1.13-1.12-.7-2.03-.67-.32-.46-1.21-.95-1.58-.75-.56,0-1.47-.66-2.08-.43-.4-.59-1.07-.99-1.85v-2.35c-.23-.25-.45-.5-.68-.76v-3.26c-.23-.25-.45-.49-.67-.72v-9.27c.16-.16,.32-.32,.59-.59v-2.65c.27-.27,.57-.43,.56-.58-.02-1.39,1.25-2.51,.83-3.8,.71-1.42,1.37-2.69,1.96-4,.12-.27,.02-.65,.02-.95,.24-.27,.46-.51,.66-.73v-1.68c.28-.55,.56-1.09,.99-1.91,.7-.7,1.9-1.5,2.52-2.61,.97-1.76,2.53-2.92,3.83-4.44-.1-.89-1.05-1.59-.77-2.63-1.09-.5-.1-1.98-1.17-2.5-.04-.65-.09-1.3-.14-2.06-.13-.16-.34-.4-.59-.69v-3.31c.25-.26,.55-.58,.86-.9,.16,.09,.32,.16,.46,.27,.46,.33,.52,.87,.74,1.35,.61,1.29,1.43,2.47,1.94,3.84,.21,.57,.63,1.03,.65,1.73,.01,.47,.37,.94,.63,1.38,.27,.45,.6,.87,.99,1.42,.58-.27,1.12-.53,1.67-.79,.46-.22,.95-.4,1.38-.67,.54-.34,1.03-.76,1.75-1.31,.41-.15,1.32,.28,1.78-.63h2.62c.26-.23,.5-.44,.77-.68h1.93c.17-.16,.33-.31,.5-.46,.18-.07,.37-.2,.56-.21,.77-.02,1.54-.01,2.28-.01,.25-.23,.48-.43,.7-.62,.27,.23,.51,.44,.67,.58,.76,.23,.98-.49,1.64-.69,.27,.17,.61,.39,1.24,.79h2.45c.27,.27,.43,.43,.6,.6h1.95c.25,.23,.49,.45,.74,.68h2.41c1.19,.61,2.37,.94,3.15,1.7,.86,.84,2.09,1.05,2.85,2.04,.73,.95,1.68,1.73,2.51,2.56,.02,.27,.03,.49,.04,.71,1.09,1.09,2.18,2.18,3.24,3.23,0,1.01,1.1,1.67,.74,2.73,1.01,.46,.26,1.68,.94,2.25,.9,.75-.26,2.01,.7,2.69,.8,.57-.39,1.93,.95,2.14v12.74c-.19,.21-.42,.45-.65,.69v3.3Zm-48.39-11.28v13.25c.23,.24,.45,.48,.68,.73v1.73c.72,1.38,1.34,2.57,2.05,3.92v1.61c1.25,1.52,2.94,2.47,3.6,4.3h.64c1.1,1.1,2.19,2.19,3.3,3.3h1.81c.48,.27,.84,.48,1.21,.67,.45,.23,.9,.5,1.39,.65,.39,.12,.89-.14,1.2,.31,.3,.43,.75,.44,1.17,.36,.66-.13,.86,.61,1.38,.67,.42,.05,.85,0,.79,0,.79-.41,1.15-.6,1.43-.74,.61,.3,.85,.98,1.53,.74,.47-.45,.94-.9,1.42-1.35h3.6c.25-.39,.61-.94,.89-1.37h2.14c1.08-1.08,2.1-2.1,3.11-3.11,.38-.13,.77-.26,1.13-.39,0-.3,0-.52,0-.75,.86-.86,1.72-1.72,2.44-2.44,.3-.63,.52-1.09,.86-1.8v-1.02c.23-.25,.45-.49,.68-.73v-1.3c.23-.25,.45-.49,.66-.72-.17-1.4,.74-2.36,1.38-3.56v-2.43c.22-.22,.37-.37,.64-.64v-3.98c.27-.27,.43-.43,.62-.62,0-1.39,0-2.82,0-4.25,0-.19-.12-.39-.19-.58-.16-.16-.31-.31-.47-.47,0-1.77,0-3.53-.01-5.3,0-.08-.15-.15-.24-.24-.19-.03-.39-.06-.72-.12-.33,.33-.73,.69-1.09,1.1-.37,.43-1.03,.13-1.4,.68-.35,.54-1.03,.09-1.54,.27-.23,.21-.47,.43-.73,.66h-1.94c-.18,.18-.34,.34-.57,.57h-10c-.34-.24-.62-.59-.86-.56-.73,.08-.97-.94-1.72-.69-.77,.26-1.08-.66-1.71-.65-.68,.01-.94-.96-1.71-.69-.48-.81-1.29-.64-2.03-.7-.89-1.12-2.17-1.6-3.43-2.11-1.01-1.02-2.03-2.03-3.04-3.05-1.38,0-1.57-1.19-2.07-2.07-.97,.73-1.33,1.81-1.78,3.02-.04,.05-.18,.21-.33,.37-.52,.56-1.28,1.04-1.5,1.69-.25,.77-1.17,1.38-.73,2.35-.41,.72-.81,1.44-1.41,2.49v2.4c-.27,.27-.43,.42-.58,.58Zm35.8-11.93v-2.41c-.61-1.2-1.13-2.2-1.64-3.22h-.64c-1.5-1.74-3.79-2.12-5.5-3.32h-1.76c-.33-.25-.66-.5-1.05-.81-.39,.29-.71,.54-1.02,.77-.24-.22-.49-.43-.67-.6-.75-.27-.94,.52-1.69,.69h-2.31c-.21,.21-.37,.37-.64,.64h-3.34c-.62,.82-1.58,.78-2.22,1.47-.57,.63-1.56,.93-2.42,1.27-.4,.16-.95,.57-.95,1.2,.49,1.09,1.03,2.08,1.88,2.92,.49,.48,1.22,.29,1.65,.9,.43,.61,1.04,1.08,1.45,1.49h1.34c.6,.67,1.24,1.41,1.78,2.01h1.52c.29,.25,.53,.46,.8,.68h1.85c.33,.26,.58,.46,.69,.55h7.34c.46-.46,.85-.85,1.25-1.25h1.29c.25-.23,.49-.45,.66-.61,.38-.09,.68-.16,.94-.22,.1-.4,.18-.7,.26-1,.39-.39,.78-.78,1.17-1.17Z"/>
</svg>