<?xml version="1.0" encoding="UTF-8"?>
<svg id="Ebene_1" data-name="Ebene 1" xmlns="http://www.w3.org/2000/svg" width="64.18mm" height="25.93mm" viewBox="0 0 181.91 73.49">
  <g id="bubble">
    <path d="M139.11,10.2c.16-.16,.25-.25,.36-.36h2.37c.11,.1,.26,.23,.41,.37h.38c.14-.13,.28-.26,.41-.38h1.16c.16,.14,.3,.27,.45,.4h3.51c.11,.11,.2,.2,.33,.33,.18-.11,.37-.23,.64-.39,.17,.11,.38,.24,.66,.43h2.29c.11-.1,.26-.23,.41-.37h1.17c.14,.13,.28,.26,.41,.38h.78c.1-.1,.19-.19,.35-.35,.11,.08,.23,.17,.47,.35h1.92c.16,.16,.25,.25,.42,.42h1.57c.16,.16,.25,.25,.36,.36h2.71c.25,.33,.7,.32,.95,.56,.29,.27,.57,.23,.89,.25,.38,.02,.56,.54,1.02,.39,.38-.12,.53,.37,.82,.37,.48,.01,.6,.46,.93,.63,.92,.46,1.65,1.07,2.09,2.06,.2,.44,.7,.74,1,1.04,.03,.36-.03,.69,.1,.85,.22,.27,.32,.51,.34,.86,0,.23,.18,.45,.36,.86v1.73c.14,.15,.26,.29,.4,.45v1.54c.14,.15,.27,.29,.4,.44v3.52c.14,.15,.27,.29,.37,.4,.13,.43-.24,.59-.37,.83,.02,.41-.02,.75,.3,1.11,.2,.22,.09,.74,.12,1.13-.13,.15-.25,.3-.39,.46,.11,.12,.22,.26,.36,.41v7.45c-.12,.13-.26,.28-.39,.42v1.77c-.31,.65-.61,1.12-.77,1.64-.37,1.16-.41,1.28-1.04,1.93-.39,.41-.8,.78-1.33,.94-.02,.17-.03,.3-.04,.42-.56,.56-1.11,1.11-1.71,1.71-.21,0-.46,.02-.83,.04-.21,.21-.44,.59-.76,.72-.3,.11-.59,.19-.79,.45h-1.19l-.77,.77h-3.15l-.38,.38h-2.69c-.16,.13-.31,.25-.48,.39-.12-.1-.25-.22-.4-.34-.13,.12-.27,.24-.41,.38h-.78c-.09,.09-.19,.19-.37,.37-.47,.05-1.05,.02-1.61,0-.1-.1-.19-.19-.33-.33h-.88c-.1,.1-.19,.19-.35,.35h-5.51l-.37,.37h-1.93c-.15,.14-.3,.26-.46,.41h-5.47c-.15,.14-.29,.27-.41,.38-.2-.15-.39-.29-.52-.39-.49,.06-.61,.42-.87,.6v2.36c.09,.09,.17,.18,.26,.28,.04,.05,.12,.1,.12,.15,0,.65,0,1.31,0,1.98,.72,.41,.8,1.22,1.14,1.89,.37,.37,.7,.77,1.11,1.08,.38,.29,.39,.8,.7,1.09,.38,.35,.6,.78,.83,1.21,.13,.01,.26,.02,.38,.03,.06,.11,.12,.21,.16,.33,.17,.42,.58,.88,1.06,1.3,.39,.35,.73,.75,1.02,1.05,.28,.07,.46,.11,.63,.15v1.01c-.61,.01-1.09,.32-1.61,.44-.5,.12-1.04,.03-1.62,.03-.11-.09-.26-.21-.51-.4h-1.14c-.16-.16-.25-.25-.37-.37h-1.11c-.31-.15-.45-.56-.86-.41-.28-.27-.56-.53-.85-.8h-.76c-.25-.25-.48-.48-.74-.74h-1.18c-.35-.35-.66-.82-1.1-1.06-.45-.24-.81-.66-1.23-.82-.53-.19-.82-.57-1.24-.88-.42-.02-.86-.05-1.27-.07-.06-.25-.11-.42-.16-.6-.42-.42-.83-.83-1.25-1.25-.18-.05-.35-.09-.53-.14-.2-.44-.4-.88-.66-1.44-.38-.51-1.11-.89-1.45-1.62-.13-.28-.29-.54-.38-.82-.06-.18-.01-.39-.01-.58-.38-.38-.75-.75-1.19-1.19v-1.19c-.12-.09-.17-.17-.22-.17-1.44,0-2.88,0-4.28,0-.17,.15-.32,.28-.52,.46-.2-.11-.42-.22-.79-.42h-2.29c-.12,.12-.22,.22-.31,.31h-2.84c-.14-.14-.23-.23-.33-.33-.14,.12-.27,.25-.42,.38h-3.91c-.15,.14-.29,.27-.41,.39-.43,.15-.56-.27-.82-.38-.43-.15-.53,.32-.84,.39-.5-.03-.82-.68-1.47-.36-.09,.08-.23,.2-.4,.35h-3.92c-.12-.11-.26-.24-.41-.38-.39-.14-.55,.23-.79,.38h-1.95c-.16-.14-.31-.27-.51-.45-.2,.11-.42,.23-.78,.42h-6.48c-.16,.13-.31,.25-.46,.37-.18-.12-.38-.24-.64-.41-.2,.15-.39,.3-.62,.47h-7.81c-.14,.13-.29,.27-.49,.45-.2-.09-.42-.2-.86-.41h-3.04c-.09,.09-.18,.18-.31,.31-.12-.1-.25-.2-.43-.34h-5.1c-.1,.09-.24,.21-.41,.36h-.77c-.12-.11-.26-.24-.41-.38h-4.31c-.14-.13-.28-.26-.42-.38-.1,.1-.19,.19-.33,.33h-3.97s-.19-.14-.41-.31h-1.21c-.12,.12-.21,.21-.33,.33-.13-.11-.27-.22-.42-.36h-5.88c-.12,.11-.26,.24-.4,.37-.14-.13-.28-.26-.43-.39h-1.95c-.1-.1-.19-.19-.35-.35-.11,.09-.24,.18-.43,.32h-1.96c-.07-.06-.22-.18-.4-.32-.12,.1-.25,.21-.41,.34h-1.16c-.12-.11-.26-.24-.4-.37-.4-.13-.59,.16-.78,.37h-2.78c-.1-.1-.2-.2-.34-.34h-1.17c-.11,.07-.31,.18-.5,.29-.1-.1-.2-.2-.31-.31h-3.89c-.16-.13-.3-.26-.46-.4-.13,.12-.27,.24-.41,.37h-3.14c-.09-.09-.18-.18-.24-.25-.08-.06-.13-.14-.18-.14-1.44,0-2.88,0-4.3,0-.11-.11-.21-.21-.35-.35h-2.67c-.17-.13-.32-.24-.53-.4h-1.47c-.16-.13-.31-.25-.5-.41h-1.13c-.79-.93-1.99-1.18-2.99-1.79v-.44c-.4-.38-.81-.81-1.25-1.2-.44-.38-.4-1.09-.97-1.37-.18-.58-.79-1.02-.51-1.67-.18-.2-.31-.34-.44-.49v-1.54c-.11-.11-.2-.2-.37-.37v-1.18c-.16-.16-.25-.25-.42-.42v-1.97c-.16-.16-.25-.25-.36-.36v-2.72c-.14-.15-.27-.29-.4-.45v-4.3c-.09-.1-.18-.19-.27-.29-.04-.11-.12-.22-.12-.34,0-2.82,0-5.63,0-8.44,.1-.1,.2-.2,.35-.35,.02-.24,.05-.55,.08-.87,.09-.09,.19-.19,.32-.32,.03-.4-.08-.94,.14-1.26,.24-.36,.32-.68,.29-1.04,.16-.47,.74-.57,.8-1.08,.05-.5,.71-.64,.76-1.05,.05-.47,.38-.65,.63-.93,.3-.34,.64-.65,.98-.99,.86-.44,1.73-.88,2.72-1.38h1.81c.1-.1,.19-.19,.36-.36,.36-.02,.8-.04,1.24-.06,.09-.09,.19-.19,.35-.35h1.97l.38-.38c.13,.1,.26,.21,.43,.34h3.52c.11-.1,.25-.22,.41-.37h2.72c.15-.14,.29-.27,.43-.4h3.92c.1-.1,.19-.19,.29-.29,.42-.2,.86-.08,1.29-.07,.16,.13,.3,.26,.5,.43,.2-.11,.42-.23,.76-.43h1.86c.08,.07,.23,.19,.39,.32,.1,.01,.3,.08,.34,.03,.32-.43,1.01-.24,1.21-.81,.19,.17,.33,.3,.44,.4,.43,.13,.59-.24,.91-.42,.32,.09,.67,.19,1.11,.32,.08-.04,.28-.16,.51-.28,.25,.14,.51,.29,.85,.47,.18-.14,.38-.29,.59-.46h10.58c.1-.1,.19-.19,.36-.36,.17-.01,.42-.03,.71-.05,.18,.13,.38,.27,.65,.46,.18-.1,.39-.22,.66-.37,.08,.06,.21,.17,.37,.3h1.56c.11-.1,.25-.23,.4-.36,.13,.12,.27,.25,.41,.37h.77c.15-.14,.29-.27,.5-.45,.2,.1,.42,.21,.82,.41h1c.19-.12,.45-.27,.7-.43,.21,.18,.36,.3,.53,.45h1.16c.23-.11,.38-.52,.78-.37,.14,.13,.28,.26,.42,.39h3.93c.1-.1,.19-.19,.28-.28,.12-.04,.23-.1,.35-.1,1.24,0,2.48,0,3.67,0,.19,.16,.34,.29,.54,.46,.21-.12,.42-.24,.82-.47h8.11c.16-.16,.25-.25,.36-.36,.13,.12,.27,.23,.42,.37h1.16c.13-.12,.28-.25,.41-.38h.77c.15,.14,.29,.27,.41,.37h1.97c.11-.11,.2-.2,.34-.34,.12,.09,.25,.19,.41,.32h1.63c.13-.13,.22-.22,.34-.34h1.19c.11,.1,.25,.23,.41,.37h.77c.13-.12,.28-.26,.41-.38h1.57c.1,.1,.19,.19,.35,.35,.11-.08,.23-.17,.43-.32h1.53c.14,.09,.35,.22,.56,.35,.12-.03,.25-.03,.36-.09,.11-.06,.19-.18,.3-.29h5.91c.11,.1,.25,.23,.4,.36,.13-.12,.27-.25,.41-.37h.77c.15,.14,.3,.27,.41,.37h4.73c.11-.11,.2-.2,.34-.34h3.18c.06,.05,.21,.16,.46,.36h2.32c.16,.16,.25,.25,.37,.37,.27-.25,.54-.51,.82-.76,.09,.09,.19,.19,.34,.34,.76,.12,1.6-.03,2.43,.07,.09,.09,.19,.19,.32,.32h1.26c.11-.11,.2-.2,.31-.31h2.05c.13,.13,.23,.23,.34,.34h4.73c.11-.1,.25-.23,.41-.37h.38c.14,.12,.28,.26,.41,.38h4.32c.1-.1,.19-.19,.35-.35,.11,.08,.23,.17,.37,.28q1.45,.09,2.04,.46Z" style="fill: #000000;"/>
  </g>
</svg>
