<?xml version="1.0" encoding="UTF-8"?>
<svg id="Ebene_1" data-name="Ebene 1" xmlns="http://www.w3.org/2000/svg" width="10.19mm" height="8.85mm" viewBox="0 0 28.89 25.08">
  <path d="M16.07,3.59c.09,.09,.19,.19,.35,.35h1.18c.16,.16,.25,.25,.39,.39h1.16c.61,.75,1.65,.67,2.52,1.22h.66c.15,.14,.29,.27,.43,.4h1.03c.44,.22,.81,.34,1.09,.57,.34,.28,.85,.24,1.11,.68,.18,.32,.07,.79,.49,.89v2.21c-.18,.41-.38,.64-.35,.85,.06,.45-.31,.68-.4,1.02-.09,.37-.05,.76-.11,1.14-.02,.1-.17,.19-.28,.3v1.15c-.14,.15-.27,.29-.4,.45v.76c-.14,.15-.27,.29-.4,.44v1.16l-.74,.74v.99c-.34,.64-.62,1.18-1.05,1.98-.38,.36-1,.95-1.68,1.59h-2.23c-.15-.14-.29-.27-.5-.47-.24,.14-.49,.28-.73,.42-.09-.09-.19-.19-.31-.31h-1.51c-.16-.13-.31-.25-.49-.4h-1.11c-.15-.14-.3-.26-.46-.4h-1.14c-.15-.14-.29-.27-.43-.4h-1.86c-.5-.29-.93-.53-1.38-.79h-.85c-.42-.18-.81-.25-1.07-.48-.39-.34-.88-.43-1.3-.69-.42-.26-.85-.58-1.4-.41-.19-.4-.64-.35-.95-.55-.36-.23-.37-.64-.56-.95-.06-.11-.17-.19-.25-.28v-2.75c.1-.1,.19-.19,.35-.35v-1.57c.16-.16,.25-.25,.43-.43,0-.24,.04-.56-.01-.87-.06-.39,.37-.51,.4-.82,.03-.33,0-.65,0-1.02,.11-.12,.23-.27,.38-.44v-1.13c.14-.15,.27-.29,.4-.45v-1.15c.27-.29,.54-.57,.8-.84-.25-.66,.38-1.05,.52-1.67,.34-.34,.76-.76,1.21-1.21h2.82c.13,.13,.22,.22,.38,.38h1.97c.16,.16,.25,.25,.36,.36h1.55c.15,.14,.29,.27,.43,.4h1.57Zm-6.38,1.18c-.07,.19-.12,.25-.11,.3,.17,.65,.61,1.17,.81,1.82,.1,.33,.5,.57,.77,.86v.76c.34,.38,.66,.72,.88,1.21,.25,.54,.43,1.22,1.07,1.48,0,.3-.11,.67,.02,.8,.42,.4,.34,1.12,1.07,1.45,.3-.34,.59-.78,.99-1.09,.32-.25,.82-.28,1.14-.53,.43-.34,.9-.37,1.39-.45,.37-.37,.73-.74,1.1-1.11h.59c.65-.31,1.16-.52,1.63-.79,.52-.3,1.18-.4,1.49-1-.18-.18-.37-.37-.56-.56h-.77c-.15-.14-.29-.27-.43-.4h-1.16c-.15-.14-.29-.27-.43-.4h-1.17c-.29-.67-1.15-.1-1.48-.7-.44-.04-.88-.09-1.18-.12-.54-.29-.97-.52-1.41-.75h-1.78c-.13-.11-.27-.24-.43-.38h-.75c-.15-.14-.29-.27-.43-.4h-.87Zm2.85,14.56h1.64c.97,.31,1.5,.93,2.32,.83,.3,.49,.79,.37,1.23,.34,.47-.03,.69,.62,1.21,.41,.11-.05,.24-.06,.56-.13-.73-.54-.75-1.35-1.19-2.01-.45-.69-.78-1.5-1.13-2.27-.24-.54-.71-1.04-.58-1.7-.19-.2-.36-.38-.61-.65-.25,.32-.49,.63-.69,.89h-.83c-.4,.27-.53,.84-1.21,.75-.35-.49-.74-1.04-1.1-1.55h-.8c-.33,.28-.59,.67-.92,.74-.45,.09-.6,.46-.92,.65-.31,.19-.65,.34-1.08,.56h-.64c-.14,.13-.29,.27-.32,.29-.41,.21-.77-.06-1.06,.28,.01,.15,.02,.33,.04,.47,.4,.31,.99-.11,1.24,.45,.38,.04,.66,.43,.98,.44,.48,.02,.83,.24,1.21,.43h1.01c.13,.12,.27,.24,.43,.38h.75c.15,.14,.29,.27,.43,.4ZM6.43,11.13c-.31,.57-.55,1-.79,1.43v1.02c-.1,.12-.23,.27-.36,.43-.03,.29-.06,.6-.08,.85-.15,.15-.24,.24-.34,.34,.09,.07,.19,.14,.32,.24,.52-.27,1.06-.54,1.59-.82h.64c.47-.5,.97-1.02,1.37-1.45,.58-.24,1.05-.38,1.46-.63,.25-.15,.56-.36,.49-.86-.42-.35-.76-.86-1.02-1.43-.3-.66-.6-1.33-.94-1.97-.37-.7-.65-1.47-1.43-1.88-.29,.41-.08,.88-.14,1.32-.13,.14-.26,.28-.4,.43v1.15c-.14,.16-.27,.3-.39,.43v1.41Zm11.35,2.6c.11,.23,.14,.35,.22,.44,.2,.25,.58,.47,.59,.72,.03,.46,.5,.68,.47,1.21-.02,.42,.35,.88,.59,1.3,.18,.32,.67,.45,.55,.95,.4,.19,.32,.66,.61,1.04,.22-.22,.44-.43,.59-.59v-1.14c.3-.56,.53-.98,.76-1.41v-1.4c.11-.13,.23-.27,.37-.42,.02-.29,.05-.6,.07-.84,.16-.16,.25-.25,.35-.35v-1.54c.18-.3,.72-.5,.26-.96-.57,.32-1.17,.56-1.74,.87-.64,.34-1.3,.66-1.93,1.02-.58,.33-1.27,.46-1.76,1.11Z" style="fill: #fdfdfd;"/>
</svg>